G04 #@! TF.GenerationSoftware,KiCad,Pcbnew,7.0.1*
G04 #@! TF.CreationDate,2023-11-28T21:46:24+01:00*
G04 #@! TF.ProjectId,Qtr-8-SN,5174722d-382d-4534-9e2e-6b696361645f,rev?*
G04 #@! TF.SameCoordinates,Original*
G04 #@! TF.FileFunction,Paste,Bot*
G04 #@! TF.FilePolarity,Positive*
%FSLAX46Y46*%
G04 Gerber Fmt 4.6, Leading zero omitted, Abs format (unit mm)*
G04 Created by KiCad (PCBNEW 7.0.1) date 2023-11-28 21:46:24*
%MOMM*%
%LPD*%
G01*
G04 APERTURE LIST*
G04 Aperture macros list*
%AMRoundRect*
0 Rectangle with rounded corners*
0 $1 Rounding radius*
0 $2 $3 $4 $5 $6 $7 $8 $9 X,Y pos of 4 corners*
0 Add a 4 corners polygon primitive as box body*
4,1,4,$2,$3,$4,$5,$6,$7,$8,$9,$2,$3,0*
0 Add four circle primitives for the rounded corners*
1,1,$1+$1,$2,$3*
1,1,$1+$1,$4,$5*
1,1,$1+$1,$6,$7*
1,1,$1+$1,$8,$9*
0 Add four rect primitives between the rounded corners*
20,1,$1+$1,$2,$3,$4,$5,0*
20,1,$1+$1,$4,$5,$6,$7,0*
20,1,$1+$1,$6,$7,$8,$9,0*
20,1,$1+$1,$8,$9,$2,$3,0*%
G04 Aperture macros list end*
%ADD10RoundRect,0.200000X-0.275000X0.200000X-0.275000X-0.200000X0.275000X-0.200000X0.275000X0.200000X0*%
%ADD11RoundRect,0.225000X-0.225000X-0.250000X0.225000X-0.250000X0.225000X0.250000X-0.225000X0.250000X0*%
%ADD12R,1.000000X1.000000*%
%ADD13RoundRect,0.200000X0.200000X0.275000X-0.200000X0.275000X-0.200000X-0.275000X0.200000X-0.275000X0*%
%ADD14RoundRect,0.225000X0.225000X0.250000X-0.225000X0.250000X-0.225000X-0.250000X0.225000X-0.250000X0*%
%ADD15RoundRect,0.150000X0.150000X-0.587500X0.150000X0.587500X-0.150000X0.587500X-0.150000X-0.587500X0*%
%ADD16R,0.400000X1.000000*%
%ADD17R,2.000000X1.300000*%
G04 APERTURE END LIST*
D10*
X119329200Y-137820400D03*
X119329200Y-139470400D03*
D11*
X81229200Y-136296400D03*
X82779200Y-136296400D03*
D12*
X95242600Y-131894600D03*
X95242600Y-133694600D03*
X99542600Y-133694600D03*
X99542600Y-131894600D03*
D11*
X109702000Y-136601200D03*
X111252000Y-136601200D03*
X62179200Y-136347200D03*
X63729200Y-136347200D03*
D13*
X121779800Y-129286000D03*
X120129800Y-129286000D03*
D10*
X68021200Y-137363200D03*
X68021200Y-139013200D03*
D12*
X123817600Y-131905600D03*
X123817600Y-133705600D03*
X128117600Y-133705600D03*
X128117600Y-131905600D03*
D14*
X108838400Y-144780000D03*
X107288400Y-144780000D03*
D10*
X108000800Y-137554200D03*
X108000800Y-139204200D03*
D11*
X128066800Y-136347200D03*
X129616800Y-136347200D03*
D15*
X75700400Y-143753600D03*
X76650400Y-145628600D03*
X74750400Y-145628600D03*
D13*
X126250200Y-138531600D03*
X124600200Y-138531600D03*
D10*
X98196400Y-137464800D03*
X98196400Y-139114800D03*
X64871600Y-138050000D03*
X64871600Y-139700000D03*
X81127600Y-137769600D03*
X81127600Y-139419600D03*
D14*
X108813600Y-143103600D03*
X107263600Y-143103600D03*
D13*
X102792800Y-129286000D03*
X101142800Y-129286000D03*
D10*
X89154000Y-137554200D03*
X89154000Y-139204200D03*
D11*
X90766600Y-136448800D03*
X92316600Y-136448800D03*
D13*
X83718400Y-129286000D03*
X82068400Y-129286000D03*
D12*
X114292600Y-131905600D03*
X114292600Y-133705600D03*
X118592600Y-133705600D03*
X118592600Y-131905600D03*
D10*
X66395600Y-137338800D03*
X66395600Y-138988800D03*
D12*
X57142600Y-131905600D03*
X57142600Y-133705600D03*
X61442600Y-133705600D03*
X61442600Y-131905600D03*
X85717600Y-131905600D03*
X85717600Y-133705600D03*
X90017600Y-133705600D03*
X90017600Y-131905600D03*
D11*
X71716600Y-136448800D03*
X73266600Y-136448800D03*
D13*
X64617600Y-129286000D03*
X62967600Y-129286000D03*
D10*
X79400400Y-144018000D03*
X79400400Y-145668000D03*
D16*
X101255600Y-140970000D03*
X100255600Y-140970000D03*
X99255600Y-140970000D03*
X98255600Y-140970000D03*
X97255600Y-140970000D03*
X96255600Y-140970000D03*
X95255600Y-140970000D03*
X94255600Y-140970000D03*
X93255600Y-140970000D03*
X92255600Y-140970000D03*
X91255600Y-140970000D03*
X90255600Y-140970000D03*
X89255600Y-140970000D03*
X88255600Y-140970000D03*
X87255600Y-140970000D03*
X86255600Y-140970000D03*
D17*
X104055600Y-143670000D03*
X83455600Y-143670000D03*
D11*
X100330000Y-136398000D03*
X101880000Y-136398000D03*
X119329200Y-136347200D03*
X120879200Y-136347200D03*
D12*
X76192600Y-131905600D03*
X76192600Y-133705600D03*
X80492600Y-133705600D03*
X80492600Y-131905600D03*
X66667600Y-131905600D03*
X66667600Y-133705600D03*
X70967600Y-133705600D03*
X70967600Y-131905600D03*
D10*
X71729600Y-138176000D03*
X71729600Y-139826000D03*
D12*
X104767600Y-131894600D03*
X104767600Y-133694600D03*
X109067600Y-133694600D03*
X109067600Y-131894600D03*
M02*
