%TF.GenerationSoftware,KiCad,Pcbnew,7.0.1*%
%TF.CreationDate,2023-11-28T21:46:45+01:00*%
%TF.ProjectId,Qtr-8-SN,5174722d-382d-4534-9e2e-6b696361645f,rev?*%
%TF.SameCoordinates,Original*%
%TF.FileFunction,Drillmap*%
%TF.FilePolarity,Positive*%
%FSLAX45Y45*%
G04 Gerber Fmt 4.5, Leading zero omitted, Abs format (unit mm)*
G04 Created by KiCad (PCBNEW 7.0.1) date 2023-11-28 21:46:45*
%MOMM*%
%LPD*%
G01*
G04 APERTURE LIST*
%ADD10C,0.150000*%
%ADD11C,0.200000*%
%ADD12C,0.025000*%
%ADD13C,0.030000*%
%ADD14C,0.080000*%
G04 APERTURE END LIST*
D10*
X5029200Y-12798120D02*
X5029260Y-13280560D01*
X5129200Y-12698120D02*
G75*
G03*
X5029200Y-12798120I0J-100000D01*
G01*
X5129200Y-12698120D02*
X13396760Y-12697120D01*
X12711360Y-13979560D02*
X13396760Y-13979560D01*
X5029260Y-13880560D02*
G75*
G03*
X5129260Y-13980560I100000J0D01*
G01*
X13496760Y-13279560D02*
X13496760Y-13879560D01*
X12477610Y-13979560D02*
G75*
G03*
X12127610Y-14329560I0J-350000D01*
G01*
X6048410Y-13979560D02*
X5814660Y-13979560D01*
X13396760Y-13979560D02*
G75*
G03*
X13496760Y-13879560I0J100000D01*
G01*
X6398410Y-14679560D02*
X6398410Y-14329560D01*
X12711360Y-13979560D02*
X12477610Y-13979560D01*
X6398410Y-14329560D02*
G75*
G03*
X6048410Y-13979560I-350000J0D01*
G01*
X13496760Y-12797120D02*
X13496760Y-13279560D01*
X6398410Y-14679560D02*
G75*
G03*
X7098410Y-14679560I350000J0D01*
G01*
X11427610Y-14679560D02*
X7098410Y-14679560D01*
X5029260Y-13280560D02*
X5029260Y-13880560D01*
X12127610Y-14679560D02*
X12127610Y-14329560D01*
X13496760Y-12797120D02*
G75*
G03*
X13396760Y-12697120I-100000J0D01*
G01*
X5814660Y-13979560D02*
X5129260Y-13980560D01*
X11427610Y-14679560D02*
G75*
G03*
X12127610Y-14679560I350000J0D01*
G01*
D11*
D12*
X6693100Y-14241980D02*
X6718100Y-14266980D01*
X6718100Y-14241980D02*
X6693100Y-14266980D01*
X6860740Y-14241980D02*
X6885740Y-14266980D01*
X6885740Y-14241980D02*
X6860740Y-14266980D01*
X6962340Y-13723820D02*
X6987340Y-13748820D01*
X6987340Y-13723820D02*
X6962340Y-13748820D01*
X7785300Y-13474900D02*
X7810300Y-13499900D01*
X7810300Y-13474900D02*
X7785300Y-13499900D01*
X7927540Y-14304430D02*
X7952540Y-14329430D01*
X7952540Y-14304430D02*
X7927540Y-14329430D01*
X9095940Y-14297860D02*
X9120940Y-14322860D01*
X9120940Y-14297860D02*
X9095940Y-14322860D01*
X9172140Y-14252140D02*
X9197140Y-14277140D01*
X9197140Y-14252140D02*
X9172140Y-14277140D01*
X9238180Y-14196260D02*
X9263180Y-14221260D01*
X9263180Y-14196260D02*
X9238180Y-14221260D01*
X9339780Y-14201340D02*
X9364780Y-14226340D01*
X9364780Y-14201340D02*
X9339780Y-14226340D01*
X9614100Y-13916860D02*
X9639100Y-13941860D01*
X9639100Y-13916860D02*
X9614100Y-13941860D01*
X9695380Y-13469820D02*
X9720380Y-13494820D01*
X9720380Y-13469820D02*
X9695380Y-13494820D01*
X10528500Y-13901620D02*
X10553500Y-13926620D01*
X10553500Y-13901620D02*
X10528500Y-13926620D01*
X11590220Y-13474900D02*
X11615220Y-13499900D01*
X11615220Y-13474900D02*
X11590220Y-13499900D01*
X11717220Y-13957500D02*
X11742220Y-13982500D01*
X11742220Y-13957500D02*
X11717220Y-13982500D01*
X11905180Y-14216580D02*
X11930180Y-14241580D01*
X11930180Y-14216580D02*
X11905180Y-14241580D01*
D13*
X6497080Y-13634720D02*
G75*
G03*
X6497080Y-13634720I-15000J0D01*
G01*
X6575480Y-13190560D02*
G75*
G03*
X6575480Y-13190560I-15000J0D01*
G01*
X7304800Y-14493240D02*
G75*
G03*
X7304800Y-14493240I-15000J0D01*
G01*
X7401320Y-14051280D02*
G75*
G03*
X7401320Y-14051280I-15000J0D01*
G01*
X7431800Y-13619480D02*
G75*
G03*
X7431800Y-13619480I-15000J0D01*
G01*
X7482600Y-13050520D02*
G75*
G03*
X7482600Y-13050520I-15000J0D01*
G01*
X7772160Y-13050520D02*
G75*
G03*
X7772160Y-13050520I-15000J0D01*
G01*
X8397000Y-13629640D02*
G75*
G03*
X8397000Y-13629640I-15000J0D01*
G01*
X8480480Y-13190560D02*
G75*
G03*
X8480480Y-13190560I-15000J0D01*
G01*
X8840560Y-14259560D02*
G75*
G03*
X8840560Y-14259560I-15000J0D01*
G01*
X9247960Y-13507720D02*
G75*
G03*
X9247960Y-13507720I-15000J0D01*
G01*
X10322320Y-13619480D02*
G75*
G03*
X10322320Y-13619480I-15000J0D01*
G01*
X10386580Y-13189460D02*
G75*
G03*
X10386580Y-13189460I-15000J0D01*
G01*
X10896360Y-14594840D02*
G75*
G03*
X10896360Y-14594840I-15000J0D01*
G01*
X11262120Y-13665200D02*
G75*
G03*
X11262120Y-13665200I-15000J0D01*
G01*
X12222240Y-13634720D02*
G75*
G03*
X12222240Y-13634720I-15000J0D01*
G01*
X12278120Y-13187680D02*
G75*
G03*
X12278120Y-13187680I-15000J0D01*
G01*
X12976680Y-13746480D02*
G75*
G03*
X12976680Y-13746480I-15000J0D01*
G01*
D14*
X5283200Y-12969880D02*
X5283200Y-13049880D01*
X5243200Y-13009880D02*
X5323200Y-13009880D01*
X5283200Y-13731880D02*
X5283200Y-13811880D01*
X5243200Y-13771880D02*
X5323200Y-13771880D01*
X13243560Y-12964800D02*
X13243560Y-13044800D01*
X13203560Y-13004800D02*
X13283560Y-13004800D01*
X13243560Y-13726800D02*
X13243560Y-13806800D01*
X13203560Y-13766800D02*
X13283560Y-13766800D01*
D11*
X5269319Y-15349584D02*
X5269319Y-15149584D01*
X5269319Y-15149584D02*
X5316938Y-15149584D01*
X5316938Y-15149584D02*
X5345510Y-15159108D01*
X5345510Y-15159108D02*
X5364557Y-15178155D01*
X5364557Y-15178155D02*
X5374081Y-15197203D01*
X5374081Y-15197203D02*
X5383605Y-15235298D01*
X5383605Y-15235298D02*
X5383605Y-15263869D01*
X5383605Y-15263869D02*
X5374081Y-15301965D01*
X5374081Y-15301965D02*
X5364557Y-15321012D01*
X5364557Y-15321012D02*
X5345510Y-15340060D01*
X5345510Y-15340060D02*
X5316938Y-15349584D01*
X5316938Y-15349584D02*
X5269319Y-15349584D01*
X5469319Y-15349584D02*
X5469319Y-15216250D01*
X5469319Y-15254346D02*
X5478843Y-15235298D01*
X5478843Y-15235298D02*
X5488367Y-15225774D01*
X5488367Y-15225774D02*
X5507414Y-15216250D01*
X5507414Y-15216250D02*
X5526462Y-15216250D01*
X5593128Y-15349584D02*
X5593128Y-15216250D01*
X5593128Y-15149584D02*
X5583605Y-15159108D01*
X5583605Y-15159108D02*
X5593128Y-15168631D01*
X5593128Y-15168631D02*
X5602652Y-15159108D01*
X5602652Y-15159108D02*
X5593128Y-15149584D01*
X5593128Y-15149584D02*
X5593128Y-15168631D01*
X5716938Y-15349584D02*
X5697890Y-15340060D01*
X5697890Y-15340060D02*
X5688367Y-15321012D01*
X5688367Y-15321012D02*
X5688367Y-15149584D01*
X5821700Y-15349584D02*
X5802652Y-15340060D01*
X5802652Y-15340060D02*
X5793128Y-15321012D01*
X5793128Y-15321012D02*
X5793128Y-15149584D01*
X6050271Y-15349584D02*
X6050271Y-15149584D01*
X6050271Y-15149584D02*
X6116938Y-15292441D01*
X6116938Y-15292441D02*
X6183605Y-15149584D01*
X6183605Y-15149584D02*
X6183605Y-15349584D01*
X6364557Y-15349584D02*
X6364557Y-15244822D01*
X6364557Y-15244822D02*
X6355033Y-15225774D01*
X6355033Y-15225774D02*
X6335986Y-15216250D01*
X6335986Y-15216250D02*
X6297890Y-15216250D01*
X6297890Y-15216250D02*
X6278843Y-15225774D01*
X6364557Y-15340060D02*
X6345509Y-15349584D01*
X6345509Y-15349584D02*
X6297890Y-15349584D01*
X6297890Y-15349584D02*
X6278843Y-15340060D01*
X6278843Y-15340060D02*
X6269319Y-15321012D01*
X6269319Y-15321012D02*
X6269319Y-15301965D01*
X6269319Y-15301965D02*
X6278843Y-15282917D01*
X6278843Y-15282917D02*
X6297890Y-15273393D01*
X6297890Y-15273393D02*
X6345509Y-15273393D01*
X6345509Y-15273393D02*
X6364557Y-15263869D01*
X6459795Y-15216250D02*
X6459795Y-15416250D01*
X6459795Y-15225774D02*
X6478843Y-15216250D01*
X6478843Y-15216250D02*
X6516938Y-15216250D01*
X6516938Y-15216250D02*
X6535986Y-15225774D01*
X6535986Y-15225774D02*
X6545509Y-15235298D01*
X6545509Y-15235298D02*
X6555033Y-15254346D01*
X6555033Y-15254346D02*
X6555033Y-15311488D01*
X6555033Y-15311488D02*
X6545509Y-15330536D01*
X6545509Y-15330536D02*
X6535986Y-15340060D01*
X6535986Y-15340060D02*
X6516938Y-15349584D01*
X6516938Y-15349584D02*
X6478843Y-15349584D01*
X6478843Y-15349584D02*
X6459795Y-15340060D01*
X6640748Y-15330536D02*
X6650271Y-15340060D01*
X6650271Y-15340060D02*
X6640748Y-15349584D01*
X6640748Y-15349584D02*
X6631224Y-15340060D01*
X6631224Y-15340060D02*
X6640748Y-15330536D01*
X6640748Y-15330536D02*
X6640748Y-15349584D01*
X6640748Y-15225774D02*
X6650271Y-15235298D01*
X6650271Y-15235298D02*
X6640748Y-15244822D01*
X6640748Y-15244822D02*
X6631224Y-15235298D01*
X6631224Y-15235298D02*
X6640748Y-15225774D01*
X6640748Y-15225774D02*
X6640748Y-15244822D01*
D12*
X4996700Y-15664560D02*
X5021700Y-15689560D01*
X5021700Y-15664560D02*
X4996700Y-15689560D01*
D11*
X5307414Y-15569584D02*
X5326462Y-15569584D01*
X5326462Y-15569584D02*
X5345510Y-15579108D01*
X5345510Y-15579108D02*
X5355033Y-15588631D01*
X5355033Y-15588631D02*
X5364557Y-15607679D01*
X5364557Y-15607679D02*
X5374081Y-15645774D01*
X5374081Y-15645774D02*
X5374081Y-15693393D01*
X5374081Y-15693393D02*
X5364557Y-15731488D01*
X5364557Y-15731488D02*
X5355033Y-15750536D01*
X5355033Y-15750536D02*
X5345510Y-15760060D01*
X5345510Y-15760060D02*
X5326462Y-15769584D01*
X5326462Y-15769584D02*
X5307414Y-15769584D01*
X5307414Y-15769584D02*
X5288367Y-15760060D01*
X5288367Y-15760060D02*
X5278843Y-15750536D01*
X5278843Y-15750536D02*
X5269319Y-15731488D01*
X5269319Y-15731488D02*
X5259795Y-15693393D01*
X5259795Y-15693393D02*
X5259795Y-15645774D01*
X5259795Y-15645774D02*
X5269319Y-15607679D01*
X5269319Y-15607679D02*
X5278843Y-15588631D01*
X5278843Y-15588631D02*
X5288367Y-15579108D01*
X5288367Y-15579108D02*
X5307414Y-15569584D01*
X5459795Y-15750536D02*
X5469319Y-15760060D01*
X5469319Y-15760060D02*
X5459795Y-15769584D01*
X5459795Y-15769584D02*
X5450271Y-15760060D01*
X5450271Y-15760060D02*
X5459795Y-15750536D01*
X5459795Y-15750536D02*
X5459795Y-15769584D01*
X5545510Y-15588631D02*
X5555033Y-15579108D01*
X5555033Y-15579108D02*
X5574081Y-15569584D01*
X5574081Y-15569584D02*
X5621700Y-15569584D01*
X5621700Y-15569584D02*
X5640748Y-15579108D01*
X5640748Y-15579108D02*
X5650271Y-15588631D01*
X5650271Y-15588631D02*
X5659795Y-15607679D01*
X5659795Y-15607679D02*
X5659795Y-15626727D01*
X5659795Y-15626727D02*
X5650271Y-15655298D01*
X5650271Y-15655298D02*
X5535986Y-15769584D01*
X5535986Y-15769584D02*
X5659795Y-15769584D01*
X5840748Y-15569584D02*
X5745509Y-15569584D01*
X5745509Y-15569584D02*
X5735986Y-15664822D01*
X5735986Y-15664822D02*
X5745509Y-15655298D01*
X5745509Y-15655298D02*
X5764557Y-15645774D01*
X5764557Y-15645774D02*
X5812176Y-15645774D01*
X5812176Y-15645774D02*
X5831224Y-15655298D01*
X5831224Y-15655298D02*
X5840748Y-15664822D01*
X5840748Y-15664822D02*
X5850271Y-15683869D01*
X5850271Y-15683869D02*
X5850271Y-15731488D01*
X5850271Y-15731488D02*
X5840748Y-15750536D01*
X5840748Y-15750536D02*
X5831224Y-15760060D01*
X5831224Y-15760060D02*
X5812176Y-15769584D01*
X5812176Y-15769584D02*
X5764557Y-15769584D01*
X5764557Y-15769584D02*
X5745509Y-15760060D01*
X5745509Y-15760060D02*
X5735986Y-15750536D01*
X5974081Y-15569584D02*
X5993129Y-15569584D01*
X5993129Y-15569584D02*
X6012176Y-15579108D01*
X6012176Y-15579108D02*
X6021700Y-15588631D01*
X6021700Y-15588631D02*
X6031224Y-15607679D01*
X6031224Y-15607679D02*
X6040748Y-15645774D01*
X6040748Y-15645774D02*
X6040748Y-15693393D01*
X6040748Y-15693393D02*
X6031224Y-15731488D01*
X6031224Y-15731488D02*
X6021700Y-15750536D01*
X6021700Y-15750536D02*
X6012176Y-15760060D01*
X6012176Y-15760060D02*
X5993129Y-15769584D01*
X5993129Y-15769584D02*
X5974081Y-15769584D01*
X5974081Y-15769584D02*
X5955033Y-15760060D01*
X5955033Y-15760060D02*
X5945509Y-15750536D01*
X5945509Y-15750536D02*
X5935986Y-15731488D01*
X5935986Y-15731488D02*
X5926462Y-15693393D01*
X5926462Y-15693393D02*
X5926462Y-15645774D01*
X5926462Y-15645774D02*
X5935986Y-15607679D01*
X5935986Y-15607679D02*
X5945509Y-15588631D01*
X5945509Y-15588631D02*
X5955033Y-15579108D01*
X5955033Y-15579108D02*
X5974081Y-15569584D01*
X6126462Y-15769584D02*
X6126462Y-15636250D01*
X6126462Y-15655298D02*
X6135986Y-15645774D01*
X6135986Y-15645774D02*
X6155033Y-15636250D01*
X6155033Y-15636250D02*
X6183605Y-15636250D01*
X6183605Y-15636250D02*
X6202652Y-15645774D01*
X6202652Y-15645774D02*
X6212176Y-15664822D01*
X6212176Y-15664822D02*
X6212176Y-15769584D01*
X6212176Y-15664822D02*
X6221700Y-15645774D01*
X6221700Y-15645774D02*
X6240748Y-15636250D01*
X6240748Y-15636250D02*
X6269319Y-15636250D01*
X6269319Y-15636250D02*
X6288367Y-15645774D01*
X6288367Y-15645774D02*
X6297890Y-15664822D01*
X6297890Y-15664822D02*
X6297890Y-15769584D01*
X6393129Y-15769584D02*
X6393129Y-15636250D01*
X6393129Y-15655298D02*
X6402652Y-15645774D01*
X6402652Y-15645774D02*
X6421700Y-15636250D01*
X6421700Y-15636250D02*
X6450271Y-15636250D01*
X6450271Y-15636250D02*
X6469319Y-15645774D01*
X6469319Y-15645774D02*
X6478843Y-15664822D01*
X6478843Y-15664822D02*
X6478843Y-15769584D01*
X6478843Y-15664822D02*
X6488367Y-15645774D01*
X6488367Y-15645774D02*
X6507414Y-15636250D01*
X6507414Y-15636250D02*
X6535986Y-15636250D01*
X6535986Y-15636250D02*
X6555033Y-15645774D01*
X6555033Y-15645774D02*
X6564557Y-15664822D01*
X6564557Y-15664822D02*
X6564557Y-15769584D01*
X6955033Y-15560060D02*
X6783605Y-15817203D01*
X7212176Y-15569584D02*
X7231224Y-15569584D01*
X7231224Y-15569584D02*
X7250272Y-15579108D01*
X7250272Y-15579108D02*
X7259795Y-15588631D01*
X7259795Y-15588631D02*
X7269319Y-15607679D01*
X7269319Y-15607679D02*
X7278843Y-15645774D01*
X7278843Y-15645774D02*
X7278843Y-15693393D01*
X7278843Y-15693393D02*
X7269319Y-15731488D01*
X7269319Y-15731488D02*
X7259795Y-15750536D01*
X7259795Y-15750536D02*
X7250272Y-15760060D01*
X7250272Y-15760060D02*
X7231224Y-15769584D01*
X7231224Y-15769584D02*
X7212176Y-15769584D01*
X7212176Y-15769584D02*
X7193129Y-15760060D01*
X7193129Y-15760060D02*
X7183605Y-15750536D01*
X7183605Y-15750536D02*
X7174081Y-15731488D01*
X7174081Y-15731488D02*
X7164557Y-15693393D01*
X7164557Y-15693393D02*
X7164557Y-15645774D01*
X7164557Y-15645774D02*
X7174081Y-15607679D01*
X7174081Y-15607679D02*
X7183605Y-15588631D01*
X7183605Y-15588631D02*
X7193129Y-15579108D01*
X7193129Y-15579108D02*
X7212176Y-15569584D01*
X7364557Y-15750536D02*
X7374081Y-15760060D01*
X7374081Y-15760060D02*
X7364557Y-15769584D01*
X7364557Y-15769584D02*
X7355033Y-15760060D01*
X7355033Y-15760060D02*
X7364557Y-15750536D01*
X7364557Y-15750536D02*
X7364557Y-15769584D01*
X7497891Y-15569584D02*
X7516938Y-15569584D01*
X7516938Y-15569584D02*
X7535986Y-15579108D01*
X7535986Y-15579108D02*
X7545510Y-15588631D01*
X7545510Y-15588631D02*
X7555033Y-15607679D01*
X7555033Y-15607679D02*
X7564557Y-15645774D01*
X7564557Y-15645774D02*
X7564557Y-15693393D01*
X7564557Y-15693393D02*
X7555033Y-15731488D01*
X7555033Y-15731488D02*
X7545510Y-15750536D01*
X7545510Y-15750536D02*
X7535986Y-15760060D01*
X7535986Y-15760060D02*
X7516938Y-15769584D01*
X7516938Y-15769584D02*
X7497891Y-15769584D01*
X7497891Y-15769584D02*
X7478843Y-15760060D01*
X7478843Y-15760060D02*
X7469319Y-15750536D01*
X7469319Y-15750536D02*
X7459795Y-15731488D01*
X7459795Y-15731488D02*
X7450272Y-15693393D01*
X7450272Y-15693393D02*
X7450272Y-15645774D01*
X7450272Y-15645774D02*
X7459795Y-15607679D01*
X7459795Y-15607679D02*
X7469319Y-15588631D01*
X7469319Y-15588631D02*
X7478843Y-15579108D01*
X7478843Y-15579108D02*
X7497891Y-15569584D01*
X7688367Y-15569584D02*
X7707414Y-15569584D01*
X7707414Y-15569584D02*
X7726462Y-15579108D01*
X7726462Y-15579108D02*
X7735986Y-15588631D01*
X7735986Y-15588631D02*
X7745510Y-15607679D01*
X7745510Y-15607679D02*
X7755033Y-15645774D01*
X7755033Y-15645774D02*
X7755033Y-15693393D01*
X7755033Y-15693393D02*
X7745510Y-15731488D01*
X7745510Y-15731488D02*
X7735986Y-15750536D01*
X7735986Y-15750536D02*
X7726462Y-15760060D01*
X7726462Y-15760060D02*
X7707414Y-15769584D01*
X7707414Y-15769584D02*
X7688367Y-15769584D01*
X7688367Y-15769584D02*
X7669319Y-15760060D01*
X7669319Y-15760060D02*
X7659795Y-15750536D01*
X7659795Y-15750536D02*
X7650272Y-15731488D01*
X7650272Y-15731488D02*
X7640748Y-15693393D01*
X7640748Y-15693393D02*
X7640748Y-15645774D01*
X7640748Y-15645774D02*
X7650272Y-15607679D01*
X7650272Y-15607679D02*
X7659795Y-15588631D01*
X7659795Y-15588631D02*
X7669319Y-15579108D01*
X7669319Y-15579108D02*
X7688367Y-15569584D01*
X7850272Y-15769584D02*
X7888367Y-15769584D01*
X7888367Y-15769584D02*
X7907414Y-15760060D01*
X7907414Y-15760060D02*
X7916938Y-15750536D01*
X7916938Y-15750536D02*
X7935986Y-15721965D01*
X7935986Y-15721965D02*
X7945510Y-15683869D01*
X7945510Y-15683869D02*
X7945510Y-15607679D01*
X7945510Y-15607679D02*
X7935986Y-15588631D01*
X7935986Y-15588631D02*
X7926462Y-15579108D01*
X7926462Y-15579108D02*
X7907414Y-15569584D01*
X7907414Y-15569584D02*
X7869319Y-15569584D01*
X7869319Y-15569584D02*
X7850272Y-15579108D01*
X7850272Y-15579108D02*
X7840748Y-15588631D01*
X7840748Y-15588631D02*
X7831224Y-15607679D01*
X7831224Y-15607679D02*
X7831224Y-15655298D01*
X7831224Y-15655298D02*
X7840748Y-15674346D01*
X7840748Y-15674346D02*
X7850272Y-15683869D01*
X7850272Y-15683869D02*
X7869319Y-15693393D01*
X7869319Y-15693393D02*
X7907414Y-15693393D01*
X7907414Y-15693393D02*
X7926462Y-15683869D01*
X7926462Y-15683869D02*
X7935986Y-15674346D01*
X7935986Y-15674346D02*
X7945510Y-15655298D01*
X8059795Y-15655298D02*
X8040748Y-15645774D01*
X8040748Y-15645774D02*
X8031224Y-15636250D01*
X8031224Y-15636250D02*
X8021700Y-15617203D01*
X8021700Y-15617203D02*
X8021700Y-15607679D01*
X8021700Y-15607679D02*
X8031224Y-15588631D01*
X8031224Y-15588631D02*
X8040748Y-15579108D01*
X8040748Y-15579108D02*
X8059795Y-15569584D01*
X8059795Y-15569584D02*
X8097891Y-15569584D01*
X8097891Y-15569584D02*
X8116938Y-15579108D01*
X8116938Y-15579108D02*
X8126462Y-15588631D01*
X8126462Y-15588631D02*
X8135986Y-15607679D01*
X8135986Y-15607679D02*
X8135986Y-15617203D01*
X8135986Y-15617203D02*
X8126462Y-15636250D01*
X8126462Y-15636250D02*
X8116938Y-15645774D01*
X8116938Y-15645774D02*
X8097891Y-15655298D01*
X8097891Y-15655298D02*
X8059795Y-15655298D01*
X8059795Y-15655298D02*
X8040748Y-15664822D01*
X8040748Y-15664822D02*
X8031224Y-15674346D01*
X8031224Y-15674346D02*
X8021700Y-15693393D01*
X8021700Y-15693393D02*
X8021700Y-15731488D01*
X8021700Y-15731488D02*
X8031224Y-15750536D01*
X8031224Y-15750536D02*
X8040748Y-15760060D01*
X8040748Y-15760060D02*
X8059795Y-15769584D01*
X8059795Y-15769584D02*
X8097891Y-15769584D01*
X8097891Y-15769584D02*
X8116938Y-15760060D01*
X8116938Y-15760060D02*
X8126462Y-15750536D01*
X8126462Y-15750536D02*
X8135986Y-15731488D01*
X8135986Y-15731488D02*
X8135986Y-15693393D01*
X8135986Y-15693393D02*
X8126462Y-15674346D01*
X8126462Y-15674346D02*
X8116938Y-15664822D01*
X8116938Y-15664822D02*
X8097891Y-15655298D01*
X8212176Y-15569584D02*
X8212176Y-15607679D01*
X8288367Y-15569584D02*
X8288367Y-15607679D01*
X8583605Y-15845774D02*
X8574081Y-15836250D01*
X8574081Y-15836250D02*
X8555034Y-15807679D01*
X8555034Y-15807679D02*
X8545510Y-15788631D01*
X8545510Y-15788631D02*
X8535986Y-15760060D01*
X8535986Y-15760060D02*
X8526462Y-15712441D01*
X8526462Y-15712441D02*
X8526462Y-15674346D01*
X8526462Y-15674346D02*
X8535986Y-15626727D01*
X8535986Y-15626727D02*
X8545510Y-15598155D01*
X8545510Y-15598155D02*
X8555034Y-15579108D01*
X8555034Y-15579108D02*
X8574081Y-15550536D01*
X8574081Y-15550536D02*
X8583605Y-15541012D01*
X8764557Y-15769584D02*
X8650272Y-15769584D01*
X8707415Y-15769584D02*
X8707415Y-15569584D01*
X8707415Y-15569584D02*
X8688367Y-15598155D01*
X8688367Y-15598155D02*
X8669319Y-15617203D01*
X8669319Y-15617203D02*
X8650272Y-15626727D01*
X8945510Y-15569584D02*
X8850272Y-15569584D01*
X8850272Y-15569584D02*
X8840748Y-15664822D01*
X8840748Y-15664822D02*
X8850272Y-15655298D01*
X8850272Y-15655298D02*
X8869319Y-15645774D01*
X8869319Y-15645774D02*
X8916938Y-15645774D01*
X8916938Y-15645774D02*
X8935986Y-15655298D01*
X8935986Y-15655298D02*
X8945510Y-15664822D01*
X8945510Y-15664822D02*
X8955034Y-15683869D01*
X8955034Y-15683869D02*
X8955034Y-15731488D01*
X8955034Y-15731488D02*
X8945510Y-15750536D01*
X8945510Y-15750536D02*
X8935986Y-15760060D01*
X8935986Y-15760060D02*
X8916938Y-15769584D01*
X8916938Y-15769584D02*
X8869319Y-15769584D01*
X8869319Y-15769584D02*
X8850272Y-15760060D01*
X8850272Y-15760060D02*
X8840748Y-15750536D01*
X9193129Y-15769584D02*
X9193129Y-15569584D01*
X9278843Y-15769584D02*
X9278843Y-15664822D01*
X9278843Y-15664822D02*
X9269319Y-15645774D01*
X9269319Y-15645774D02*
X9250272Y-15636250D01*
X9250272Y-15636250D02*
X9221700Y-15636250D01*
X9221700Y-15636250D02*
X9202653Y-15645774D01*
X9202653Y-15645774D02*
X9193129Y-15655298D01*
X9402653Y-15769584D02*
X9383605Y-15760060D01*
X9383605Y-15760060D02*
X9374081Y-15750536D01*
X9374081Y-15750536D02*
X9364558Y-15731488D01*
X9364558Y-15731488D02*
X9364558Y-15674346D01*
X9364558Y-15674346D02*
X9374081Y-15655298D01*
X9374081Y-15655298D02*
X9383605Y-15645774D01*
X9383605Y-15645774D02*
X9402653Y-15636250D01*
X9402653Y-15636250D02*
X9431224Y-15636250D01*
X9431224Y-15636250D02*
X9450272Y-15645774D01*
X9450272Y-15645774D02*
X9459796Y-15655298D01*
X9459796Y-15655298D02*
X9469319Y-15674346D01*
X9469319Y-15674346D02*
X9469319Y-15731488D01*
X9469319Y-15731488D02*
X9459796Y-15750536D01*
X9459796Y-15750536D02*
X9450272Y-15760060D01*
X9450272Y-15760060D02*
X9431224Y-15769584D01*
X9431224Y-15769584D02*
X9402653Y-15769584D01*
X9583605Y-15769584D02*
X9564558Y-15760060D01*
X9564558Y-15760060D02*
X9555034Y-15741012D01*
X9555034Y-15741012D02*
X9555034Y-15569584D01*
X9735986Y-15760060D02*
X9716939Y-15769584D01*
X9716939Y-15769584D02*
X9678843Y-15769584D01*
X9678843Y-15769584D02*
X9659796Y-15760060D01*
X9659796Y-15760060D02*
X9650272Y-15741012D01*
X9650272Y-15741012D02*
X9650272Y-15664822D01*
X9650272Y-15664822D02*
X9659796Y-15645774D01*
X9659796Y-15645774D02*
X9678843Y-15636250D01*
X9678843Y-15636250D02*
X9716939Y-15636250D01*
X9716939Y-15636250D02*
X9735986Y-15645774D01*
X9735986Y-15645774D02*
X9745510Y-15664822D01*
X9745510Y-15664822D02*
X9745510Y-15683869D01*
X9745510Y-15683869D02*
X9650272Y-15702917D01*
X9821700Y-15760060D02*
X9840748Y-15769584D01*
X9840748Y-15769584D02*
X9878843Y-15769584D01*
X9878843Y-15769584D02*
X9897891Y-15760060D01*
X9897891Y-15760060D02*
X9907415Y-15741012D01*
X9907415Y-15741012D02*
X9907415Y-15731488D01*
X9907415Y-15731488D02*
X9897891Y-15712441D01*
X9897891Y-15712441D02*
X9878843Y-15702917D01*
X9878843Y-15702917D02*
X9850272Y-15702917D01*
X9850272Y-15702917D02*
X9831224Y-15693393D01*
X9831224Y-15693393D02*
X9821700Y-15674346D01*
X9821700Y-15674346D02*
X9821700Y-15664822D01*
X9821700Y-15664822D02*
X9831224Y-15645774D01*
X9831224Y-15645774D02*
X9850272Y-15636250D01*
X9850272Y-15636250D02*
X9878843Y-15636250D01*
X9878843Y-15636250D02*
X9897891Y-15645774D01*
X9974081Y-15845774D02*
X9983605Y-15836250D01*
X9983605Y-15836250D02*
X10002653Y-15807679D01*
X10002653Y-15807679D02*
X10012177Y-15788631D01*
X10012177Y-15788631D02*
X10021700Y-15760060D01*
X10021700Y-15760060D02*
X10031224Y-15712441D01*
X10031224Y-15712441D02*
X10031224Y-15674346D01*
X10031224Y-15674346D02*
X10021700Y-15626727D01*
X10021700Y-15626727D02*
X10012177Y-15598155D01*
X10012177Y-15598155D02*
X10002653Y-15579108D01*
X10002653Y-15579108D02*
X9983605Y-15550536D01*
X9983605Y-15550536D02*
X9974081Y-15541012D01*
D13*
X5021700Y-15941060D02*
G75*
G03*
X5021700Y-15941060I-15000J0D01*
G01*
D11*
X5307414Y-15833584D02*
X5326462Y-15833584D01*
X5326462Y-15833584D02*
X5345510Y-15843108D01*
X5345510Y-15843108D02*
X5355033Y-15852631D01*
X5355033Y-15852631D02*
X5364557Y-15871679D01*
X5364557Y-15871679D02*
X5374081Y-15909774D01*
X5374081Y-15909774D02*
X5374081Y-15957393D01*
X5374081Y-15957393D02*
X5364557Y-15995488D01*
X5364557Y-15995488D02*
X5355033Y-16014536D01*
X5355033Y-16014536D02*
X5345510Y-16024060D01*
X5345510Y-16024060D02*
X5326462Y-16033584D01*
X5326462Y-16033584D02*
X5307414Y-16033584D01*
X5307414Y-16033584D02*
X5288367Y-16024060D01*
X5288367Y-16024060D02*
X5278843Y-16014536D01*
X5278843Y-16014536D02*
X5269319Y-15995488D01*
X5269319Y-15995488D02*
X5259795Y-15957393D01*
X5259795Y-15957393D02*
X5259795Y-15909774D01*
X5259795Y-15909774D02*
X5269319Y-15871679D01*
X5269319Y-15871679D02*
X5278843Y-15852631D01*
X5278843Y-15852631D02*
X5288367Y-15843108D01*
X5288367Y-15843108D02*
X5307414Y-15833584D01*
X5459795Y-16014536D02*
X5469319Y-16024060D01*
X5469319Y-16024060D02*
X5459795Y-16033584D01*
X5459795Y-16033584D02*
X5450271Y-16024060D01*
X5450271Y-16024060D02*
X5459795Y-16014536D01*
X5459795Y-16014536D02*
X5459795Y-16033584D01*
X5535986Y-15833584D02*
X5659795Y-15833584D01*
X5659795Y-15833584D02*
X5593128Y-15909774D01*
X5593128Y-15909774D02*
X5621700Y-15909774D01*
X5621700Y-15909774D02*
X5640748Y-15919298D01*
X5640748Y-15919298D02*
X5650271Y-15928822D01*
X5650271Y-15928822D02*
X5659795Y-15947869D01*
X5659795Y-15947869D02*
X5659795Y-15995488D01*
X5659795Y-15995488D02*
X5650271Y-16014536D01*
X5650271Y-16014536D02*
X5640748Y-16024060D01*
X5640748Y-16024060D02*
X5621700Y-16033584D01*
X5621700Y-16033584D02*
X5564557Y-16033584D01*
X5564557Y-16033584D02*
X5545510Y-16024060D01*
X5545510Y-16024060D02*
X5535986Y-16014536D01*
X5783605Y-15833584D02*
X5802652Y-15833584D01*
X5802652Y-15833584D02*
X5821700Y-15843108D01*
X5821700Y-15843108D02*
X5831224Y-15852631D01*
X5831224Y-15852631D02*
X5840748Y-15871679D01*
X5840748Y-15871679D02*
X5850271Y-15909774D01*
X5850271Y-15909774D02*
X5850271Y-15957393D01*
X5850271Y-15957393D02*
X5840748Y-15995488D01*
X5840748Y-15995488D02*
X5831224Y-16014536D01*
X5831224Y-16014536D02*
X5821700Y-16024060D01*
X5821700Y-16024060D02*
X5802652Y-16033584D01*
X5802652Y-16033584D02*
X5783605Y-16033584D01*
X5783605Y-16033584D02*
X5764557Y-16024060D01*
X5764557Y-16024060D02*
X5755033Y-16014536D01*
X5755033Y-16014536D02*
X5745509Y-15995488D01*
X5745509Y-15995488D02*
X5735986Y-15957393D01*
X5735986Y-15957393D02*
X5735986Y-15909774D01*
X5735986Y-15909774D02*
X5745509Y-15871679D01*
X5745509Y-15871679D02*
X5755033Y-15852631D01*
X5755033Y-15852631D02*
X5764557Y-15843108D01*
X5764557Y-15843108D02*
X5783605Y-15833584D01*
X5974081Y-15833584D02*
X5993129Y-15833584D01*
X5993129Y-15833584D02*
X6012176Y-15843108D01*
X6012176Y-15843108D02*
X6021700Y-15852631D01*
X6021700Y-15852631D02*
X6031224Y-15871679D01*
X6031224Y-15871679D02*
X6040748Y-15909774D01*
X6040748Y-15909774D02*
X6040748Y-15957393D01*
X6040748Y-15957393D02*
X6031224Y-15995488D01*
X6031224Y-15995488D02*
X6021700Y-16014536D01*
X6021700Y-16014536D02*
X6012176Y-16024060D01*
X6012176Y-16024060D02*
X5993129Y-16033584D01*
X5993129Y-16033584D02*
X5974081Y-16033584D01*
X5974081Y-16033584D02*
X5955033Y-16024060D01*
X5955033Y-16024060D02*
X5945509Y-16014536D01*
X5945509Y-16014536D02*
X5935986Y-15995488D01*
X5935986Y-15995488D02*
X5926462Y-15957393D01*
X5926462Y-15957393D02*
X5926462Y-15909774D01*
X5926462Y-15909774D02*
X5935986Y-15871679D01*
X5935986Y-15871679D02*
X5945509Y-15852631D01*
X5945509Y-15852631D02*
X5955033Y-15843108D01*
X5955033Y-15843108D02*
X5974081Y-15833584D01*
X6126462Y-16033584D02*
X6126462Y-15900250D01*
X6126462Y-15919298D02*
X6135986Y-15909774D01*
X6135986Y-15909774D02*
X6155033Y-15900250D01*
X6155033Y-15900250D02*
X6183605Y-15900250D01*
X6183605Y-15900250D02*
X6202652Y-15909774D01*
X6202652Y-15909774D02*
X6212176Y-15928822D01*
X6212176Y-15928822D02*
X6212176Y-16033584D01*
X6212176Y-15928822D02*
X6221700Y-15909774D01*
X6221700Y-15909774D02*
X6240748Y-15900250D01*
X6240748Y-15900250D02*
X6269319Y-15900250D01*
X6269319Y-15900250D02*
X6288367Y-15909774D01*
X6288367Y-15909774D02*
X6297890Y-15928822D01*
X6297890Y-15928822D02*
X6297890Y-16033584D01*
X6393129Y-16033584D02*
X6393129Y-15900250D01*
X6393129Y-15919298D02*
X6402652Y-15909774D01*
X6402652Y-15909774D02*
X6421700Y-15900250D01*
X6421700Y-15900250D02*
X6450271Y-15900250D01*
X6450271Y-15900250D02*
X6469319Y-15909774D01*
X6469319Y-15909774D02*
X6478843Y-15928822D01*
X6478843Y-15928822D02*
X6478843Y-16033584D01*
X6478843Y-15928822D02*
X6488367Y-15909774D01*
X6488367Y-15909774D02*
X6507414Y-15900250D01*
X6507414Y-15900250D02*
X6535986Y-15900250D01*
X6535986Y-15900250D02*
X6555033Y-15909774D01*
X6555033Y-15909774D02*
X6564557Y-15928822D01*
X6564557Y-15928822D02*
X6564557Y-16033584D01*
X6955033Y-15824060D02*
X6783605Y-16081203D01*
X7212176Y-15833584D02*
X7231224Y-15833584D01*
X7231224Y-15833584D02*
X7250272Y-15843108D01*
X7250272Y-15843108D02*
X7259795Y-15852631D01*
X7259795Y-15852631D02*
X7269319Y-15871679D01*
X7269319Y-15871679D02*
X7278843Y-15909774D01*
X7278843Y-15909774D02*
X7278843Y-15957393D01*
X7278843Y-15957393D02*
X7269319Y-15995488D01*
X7269319Y-15995488D02*
X7259795Y-16014536D01*
X7259795Y-16014536D02*
X7250272Y-16024060D01*
X7250272Y-16024060D02*
X7231224Y-16033584D01*
X7231224Y-16033584D02*
X7212176Y-16033584D01*
X7212176Y-16033584D02*
X7193129Y-16024060D01*
X7193129Y-16024060D02*
X7183605Y-16014536D01*
X7183605Y-16014536D02*
X7174081Y-15995488D01*
X7174081Y-15995488D02*
X7164557Y-15957393D01*
X7164557Y-15957393D02*
X7164557Y-15909774D01*
X7164557Y-15909774D02*
X7174081Y-15871679D01*
X7174081Y-15871679D02*
X7183605Y-15852631D01*
X7183605Y-15852631D02*
X7193129Y-15843108D01*
X7193129Y-15843108D02*
X7212176Y-15833584D01*
X7364557Y-16014536D02*
X7374081Y-16024060D01*
X7374081Y-16024060D02*
X7364557Y-16033584D01*
X7364557Y-16033584D02*
X7355033Y-16024060D01*
X7355033Y-16024060D02*
X7364557Y-16014536D01*
X7364557Y-16014536D02*
X7364557Y-16033584D01*
X7497891Y-15833584D02*
X7516938Y-15833584D01*
X7516938Y-15833584D02*
X7535986Y-15843108D01*
X7535986Y-15843108D02*
X7545510Y-15852631D01*
X7545510Y-15852631D02*
X7555033Y-15871679D01*
X7555033Y-15871679D02*
X7564557Y-15909774D01*
X7564557Y-15909774D02*
X7564557Y-15957393D01*
X7564557Y-15957393D02*
X7555033Y-15995488D01*
X7555033Y-15995488D02*
X7545510Y-16014536D01*
X7545510Y-16014536D02*
X7535986Y-16024060D01*
X7535986Y-16024060D02*
X7516938Y-16033584D01*
X7516938Y-16033584D02*
X7497891Y-16033584D01*
X7497891Y-16033584D02*
X7478843Y-16024060D01*
X7478843Y-16024060D02*
X7469319Y-16014536D01*
X7469319Y-16014536D02*
X7459795Y-15995488D01*
X7459795Y-15995488D02*
X7450272Y-15957393D01*
X7450272Y-15957393D02*
X7450272Y-15909774D01*
X7450272Y-15909774D02*
X7459795Y-15871679D01*
X7459795Y-15871679D02*
X7469319Y-15852631D01*
X7469319Y-15852631D02*
X7478843Y-15843108D01*
X7478843Y-15843108D02*
X7497891Y-15833584D01*
X7755033Y-16033584D02*
X7640748Y-16033584D01*
X7697891Y-16033584D02*
X7697891Y-15833584D01*
X7697891Y-15833584D02*
X7678843Y-15862155D01*
X7678843Y-15862155D02*
X7659795Y-15881203D01*
X7659795Y-15881203D02*
X7640748Y-15890727D01*
X7945510Y-16033584D02*
X7831224Y-16033584D01*
X7888367Y-16033584D02*
X7888367Y-15833584D01*
X7888367Y-15833584D02*
X7869319Y-15862155D01*
X7869319Y-15862155D02*
X7850272Y-15881203D01*
X7850272Y-15881203D02*
X7831224Y-15890727D01*
X8059795Y-15919298D02*
X8040748Y-15909774D01*
X8040748Y-15909774D02*
X8031224Y-15900250D01*
X8031224Y-15900250D02*
X8021700Y-15881203D01*
X8021700Y-15881203D02*
X8021700Y-15871679D01*
X8021700Y-15871679D02*
X8031224Y-15852631D01*
X8031224Y-15852631D02*
X8040748Y-15843108D01*
X8040748Y-15843108D02*
X8059795Y-15833584D01*
X8059795Y-15833584D02*
X8097891Y-15833584D01*
X8097891Y-15833584D02*
X8116938Y-15843108D01*
X8116938Y-15843108D02*
X8126462Y-15852631D01*
X8126462Y-15852631D02*
X8135986Y-15871679D01*
X8135986Y-15871679D02*
X8135986Y-15881203D01*
X8135986Y-15881203D02*
X8126462Y-15900250D01*
X8126462Y-15900250D02*
X8116938Y-15909774D01*
X8116938Y-15909774D02*
X8097891Y-15919298D01*
X8097891Y-15919298D02*
X8059795Y-15919298D01*
X8059795Y-15919298D02*
X8040748Y-15928822D01*
X8040748Y-15928822D02*
X8031224Y-15938346D01*
X8031224Y-15938346D02*
X8021700Y-15957393D01*
X8021700Y-15957393D02*
X8021700Y-15995488D01*
X8021700Y-15995488D02*
X8031224Y-16014536D01*
X8031224Y-16014536D02*
X8040748Y-16024060D01*
X8040748Y-16024060D02*
X8059795Y-16033584D01*
X8059795Y-16033584D02*
X8097891Y-16033584D01*
X8097891Y-16033584D02*
X8116938Y-16024060D01*
X8116938Y-16024060D02*
X8126462Y-16014536D01*
X8126462Y-16014536D02*
X8135986Y-15995488D01*
X8135986Y-15995488D02*
X8135986Y-15957393D01*
X8135986Y-15957393D02*
X8126462Y-15938346D01*
X8126462Y-15938346D02*
X8116938Y-15928822D01*
X8116938Y-15928822D02*
X8097891Y-15919298D01*
X8212176Y-15833584D02*
X8212176Y-15871679D01*
X8288367Y-15833584D02*
X8288367Y-15871679D01*
X8583605Y-16109774D02*
X8574081Y-16100250D01*
X8574081Y-16100250D02*
X8555034Y-16071679D01*
X8555034Y-16071679D02*
X8545510Y-16052631D01*
X8545510Y-16052631D02*
X8535986Y-16024060D01*
X8535986Y-16024060D02*
X8526462Y-15976441D01*
X8526462Y-15976441D02*
X8526462Y-15938346D01*
X8526462Y-15938346D02*
X8535986Y-15890727D01*
X8535986Y-15890727D02*
X8545510Y-15862155D01*
X8545510Y-15862155D02*
X8555034Y-15843108D01*
X8555034Y-15843108D02*
X8574081Y-15814536D01*
X8574081Y-15814536D02*
X8583605Y-15805012D01*
X8764557Y-16033584D02*
X8650272Y-16033584D01*
X8707415Y-16033584D02*
X8707415Y-15833584D01*
X8707415Y-15833584D02*
X8688367Y-15862155D01*
X8688367Y-15862155D02*
X8669319Y-15881203D01*
X8669319Y-15881203D02*
X8650272Y-15890727D01*
X8878843Y-15919298D02*
X8859796Y-15909774D01*
X8859796Y-15909774D02*
X8850272Y-15900250D01*
X8850272Y-15900250D02*
X8840748Y-15881203D01*
X8840748Y-15881203D02*
X8840748Y-15871679D01*
X8840748Y-15871679D02*
X8850272Y-15852631D01*
X8850272Y-15852631D02*
X8859796Y-15843108D01*
X8859796Y-15843108D02*
X8878843Y-15833584D01*
X8878843Y-15833584D02*
X8916938Y-15833584D01*
X8916938Y-15833584D02*
X8935986Y-15843108D01*
X8935986Y-15843108D02*
X8945510Y-15852631D01*
X8945510Y-15852631D02*
X8955034Y-15871679D01*
X8955034Y-15871679D02*
X8955034Y-15881203D01*
X8955034Y-15881203D02*
X8945510Y-15900250D01*
X8945510Y-15900250D02*
X8935986Y-15909774D01*
X8935986Y-15909774D02*
X8916938Y-15919298D01*
X8916938Y-15919298D02*
X8878843Y-15919298D01*
X8878843Y-15919298D02*
X8859796Y-15928822D01*
X8859796Y-15928822D02*
X8850272Y-15938346D01*
X8850272Y-15938346D02*
X8840748Y-15957393D01*
X8840748Y-15957393D02*
X8840748Y-15995488D01*
X8840748Y-15995488D02*
X8850272Y-16014536D01*
X8850272Y-16014536D02*
X8859796Y-16024060D01*
X8859796Y-16024060D02*
X8878843Y-16033584D01*
X8878843Y-16033584D02*
X8916938Y-16033584D01*
X8916938Y-16033584D02*
X8935986Y-16024060D01*
X8935986Y-16024060D02*
X8945510Y-16014536D01*
X8945510Y-16014536D02*
X8955034Y-15995488D01*
X8955034Y-15995488D02*
X8955034Y-15957393D01*
X8955034Y-15957393D02*
X8945510Y-15938346D01*
X8945510Y-15938346D02*
X8935986Y-15928822D01*
X8935986Y-15928822D02*
X8916938Y-15919298D01*
X9193129Y-16033584D02*
X9193129Y-15833584D01*
X9278843Y-16033584D02*
X9278843Y-15928822D01*
X9278843Y-15928822D02*
X9269319Y-15909774D01*
X9269319Y-15909774D02*
X9250272Y-15900250D01*
X9250272Y-15900250D02*
X9221700Y-15900250D01*
X9221700Y-15900250D02*
X9202653Y-15909774D01*
X9202653Y-15909774D02*
X9193129Y-15919298D01*
X9402653Y-16033584D02*
X9383605Y-16024060D01*
X9383605Y-16024060D02*
X9374081Y-16014536D01*
X9374081Y-16014536D02*
X9364558Y-15995488D01*
X9364558Y-15995488D02*
X9364558Y-15938346D01*
X9364558Y-15938346D02*
X9374081Y-15919298D01*
X9374081Y-15919298D02*
X9383605Y-15909774D01*
X9383605Y-15909774D02*
X9402653Y-15900250D01*
X9402653Y-15900250D02*
X9431224Y-15900250D01*
X9431224Y-15900250D02*
X9450272Y-15909774D01*
X9450272Y-15909774D02*
X9459796Y-15919298D01*
X9459796Y-15919298D02*
X9469319Y-15938346D01*
X9469319Y-15938346D02*
X9469319Y-15995488D01*
X9469319Y-15995488D02*
X9459796Y-16014536D01*
X9459796Y-16014536D02*
X9450272Y-16024060D01*
X9450272Y-16024060D02*
X9431224Y-16033584D01*
X9431224Y-16033584D02*
X9402653Y-16033584D01*
X9583605Y-16033584D02*
X9564558Y-16024060D01*
X9564558Y-16024060D02*
X9555034Y-16005012D01*
X9555034Y-16005012D02*
X9555034Y-15833584D01*
X9735986Y-16024060D02*
X9716939Y-16033584D01*
X9716939Y-16033584D02*
X9678843Y-16033584D01*
X9678843Y-16033584D02*
X9659796Y-16024060D01*
X9659796Y-16024060D02*
X9650272Y-16005012D01*
X9650272Y-16005012D02*
X9650272Y-15928822D01*
X9650272Y-15928822D02*
X9659796Y-15909774D01*
X9659796Y-15909774D02*
X9678843Y-15900250D01*
X9678843Y-15900250D02*
X9716939Y-15900250D01*
X9716939Y-15900250D02*
X9735986Y-15909774D01*
X9735986Y-15909774D02*
X9745510Y-15928822D01*
X9745510Y-15928822D02*
X9745510Y-15947869D01*
X9745510Y-15947869D02*
X9650272Y-15966917D01*
X9821700Y-16024060D02*
X9840748Y-16033584D01*
X9840748Y-16033584D02*
X9878843Y-16033584D01*
X9878843Y-16033584D02*
X9897891Y-16024060D01*
X9897891Y-16024060D02*
X9907415Y-16005012D01*
X9907415Y-16005012D02*
X9907415Y-15995488D01*
X9907415Y-15995488D02*
X9897891Y-15976441D01*
X9897891Y-15976441D02*
X9878843Y-15966917D01*
X9878843Y-15966917D02*
X9850272Y-15966917D01*
X9850272Y-15966917D02*
X9831224Y-15957393D01*
X9831224Y-15957393D02*
X9821700Y-15938346D01*
X9821700Y-15938346D02*
X9821700Y-15928822D01*
X9821700Y-15928822D02*
X9831224Y-15909774D01*
X9831224Y-15909774D02*
X9850272Y-15900250D01*
X9850272Y-15900250D02*
X9878843Y-15900250D01*
X9878843Y-15900250D02*
X9897891Y-15909774D01*
X9974081Y-16109774D02*
X9983605Y-16100250D01*
X9983605Y-16100250D02*
X10002653Y-16071679D01*
X10002653Y-16071679D02*
X10012177Y-16052631D01*
X10012177Y-16052631D02*
X10021700Y-16024060D01*
X10021700Y-16024060D02*
X10031224Y-15976441D01*
X10031224Y-15976441D02*
X10031224Y-15938346D01*
X10031224Y-15938346D02*
X10021700Y-15890727D01*
X10021700Y-15890727D02*
X10012177Y-15862155D01*
X10012177Y-15862155D02*
X10002653Y-15843108D01*
X10002653Y-15843108D02*
X9983605Y-15814536D01*
X9983605Y-15814536D02*
X9974081Y-15805012D01*
D14*
X4981700Y-16165060D02*
X4981700Y-16245060D01*
X4941700Y-16205060D02*
X5021700Y-16205060D01*
D11*
X5307414Y-16097584D02*
X5326462Y-16097584D01*
X5326462Y-16097584D02*
X5345510Y-16107108D01*
X5345510Y-16107108D02*
X5355033Y-16116631D01*
X5355033Y-16116631D02*
X5364557Y-16135679D01*
X5364557Y-16135679D02*
X5374081Y-16173774D01*
X5374081Y-16173774D02*
X5374081Y-16221393D01*
X5374081Y-16221393D02*
X5364557Y-16259488D01*
X5364557Y-16259488D02*
X5355033Y-16278536D01*
X5355033Y-16278536D02*
X5345510Y-16288060D01*
X5345510Y-16288060D02*
X5326462Y-16297584D01*
X5326462Y-16297584D02*
X5307414Y-16297584D01*
X5307414Y-16297584D02*
X5288367Y-16288060D01*
X5288367Y-16288060D02*
X5278843Y-16278536D01*
X5278843Y-16278536D02*
X5269319Y-16259488D01*
X5269319Y-16259488D02*
X5259795Y-16221393D01*
X5259795Y-16221393D02*
X5259795Y-16173774D01*
X5259795Y-16173774D02*
X5269319Y-16135679D01*
X5269319Y-16135679D02*
X5278843Y-16116631D01*
X5278843Y-16116631D02*
X5288367Y-16107108D01*
X5288367Y-16107108D02*
X5307414Y-16097584D01*
X5459795Y-16278536D02*
X5469319Y-16288060D01*
X5469319Y-16288060D02*
X5459795Y-16297584D01*
X5459795Y-16297584D02*
X5450271Y-16288060D01*
X5450271Y-16288060D02*
X5459795Y-16278536D01*
X5459795Y-16278536D02*
X5459795Y-16297584D01*
X5583605Y-16183298D02*
X5564557Y-16173774D01*
X5564557Y-16173774D02*
X5555033Y-16164250D01*
X5555033Y-16164250D02*
X5545510Y-16145203D01*
X5545510Y-16145203D02*
X5545510Y-16135679D01*
X5545510Y-16135679D02*
X5555033Y-16116631D01*
X5555033Y-16116631D02*
X5564557Y-16107108D01*
X5564557Y-16107108D02*
X5583605Y-16097584D01*
X5583605Y-16097584D02*
X5621700Y-16097584D01*
X5621700Y-16097584D02*
X5640748Y-16107108D01*
X5640748Y-16107108D02*
X5650271Y-16116631D01*
X5650271Y-16116631D02*
X5659795Y-16135679D01*
X5659795Y-16135679D02*
X5659795Y-16145203D01*
X5659795Y-16145203D02*
X5650271Y-16164250D01*
X5650271Y-16164250D02*
X5640748Y-16173774D01*
X5640748Y-16173774D02*
X5621700Y-16183298D01*
X5621700Y-16183298D02*
X5583605Y-16183298D01*
X5583605Y-16183298D02*
X5564557Y-16192822D01*
X5564557Y-16192822D02*
X5555033Y-16202346D01*
X5555033Y-16202346D02*
X5545510Y-16221393D01*
X5545510Y-16221393D02*
X5545510Y-16259488D01*
X5545510Y-16259488D02*
X5555033Y-16278536D01*
X5555033Y-16278536D02*
X5564557Y-16288060D01*
X5564557Y-16288060D02*
X5583605Y-16297584D01*
X5583605Y-16297584D02*
X5621700Y-16297584D01*
X5621700Y-16297584D02*
X5640748Y-16288060D01*
X5640748Y-16288060D02*
X5650271Y-16278536D01*
X5650271Y-16278536D02*
X5659795Y-16259488D01*
X5659795Y-16259488D02*
X5659795Y-16221393D01*
X5659795Y-16221393D02*
X5650271Y-16202346D01*
X5650271Y-16202346D02*
X5640748Y-16192822D01*
X5640748Y-16192822D02*
X5621700Y-16183298D01*
X5783605Y-16097584D02*
X5802652Y-16097584D01*
X5802652Y-16097584D02*
X5821700Y-16107108D01*
X5821700Y-16107108D02*
X5831224Y-16116631D01*
X5831224Y-16116631D02*
X5840748Y-16135679D01*
X5840748Y-16135679D02*
X5850271Y-16173774D01*
X5850271Y-16173774D02*
X5850271Y-16221393D01*
X5850271Y-16221393D02*
X5840748Y-16259488D01*
X5840748Y-16259488D02*
X5831224Y-16278536D01*
X5831224Y-16278536D02*
X5821700Y-16288060D01*
X5821700Y-16288060D02*
X5802652Y-16297584D01*
X5802652Y-16297584D02*
X5783605Y-16297584D01*
X5783605Y-16297584D02*
X5764557Y-16288060D01*
X5764557Y-16288060D02*
X5755033Y-16278536D01*
X5755033Y-16278536D02*
X5745509Y-16259488D01*
X5745509Y-16259488D02*
X5735986Y-16221393D01*
X5735986Y-16221393D02*
X5735986Y-16173774D01*
X5735986Y-16173774D02*
X5745509Y-16135679D01*
X5745509Y-16135679D02*
X5755033Y-16116631D01*
X5755033Y-16116631D02*
X5764557Y-16107108D01*
X5764557Y-16107108D02*
X5783605Y-16097584D01*
X5974081Y-16097584D02*
X5993129Y-16097584D01*
X5993129Y-16097584D02*
X6012176Y-16107108D01*
X6012176Y-16107108D02*
X6021700Y-16116631D01*
X6021700Y-16116631D02*
X6031224Y-16135679D01*
X6031224Y-16135679D02*
X6040748Y-16173774D01*
X6040748Y-16173774D02*
X6040748Y-16221393D01*
X6040748Y-16221393D02*
X6031224Y-16259488D01*
X6031224Y-16259488D02*
X6021700Y-16278536D01*
X6021700Y-16278536D02*
X6012176Y-16288060D01*
X6012176Y-16288060D02*
X5993129Y-16297584D01*
X5993129Y-16297584D02*
X5974081Y-16297584D01*
X5974081Y-16297584D02*
X5955033Y-16288060D01*
X5955033Y-16288060D02*
X5945509Y-16278536D01*
X5945509Y-16278536D02*
X5935986Y-16259488D01*
X5935986Y-16259488D02*
X5926462Y-16221393D01*
X5926462Y-16221393D02*
X5926462Y-16173774D01*
X5926462Y-16173774D02*
X5935986Y-16135679D01*
X5935986Y-16135679D02*
X5945509Y-16116631D01*
X5945509Y-16116631D02*
X5955033Y-16107108D01*
X5955033Y-16107108D02*
X5974081Y-16097584D01*
X6126462Y-16297584D02*
X6126462Y-16164250D01*
X6126462Y-16183298D02*
X6135986Y-16173774D01*
X6135986Y-16173774D02*
X6155033Y-16164250D01*
X6155033Y-16164250D02*
X6183605Y-16164250D01*
X6183605Y-16164250D02*
X6202652Y-16173774D01*
X6202652Y-16173774D02*
X6212176Y-16192822D01*
X6212176Y-16192822D02*
X6212176Y-16297584D01*
X6212176Y-16192822D02*
X6221700Y-16173774D01*
X6221700Y-16173774D02*
X6240748Y-16164250D01*
X6240748Y-16164250D02*
X6269319Y-16164250D01*
X6269319Y-16164250D02*
X6288367Y-16173774D01*
X6288367Y-16173774D02*
X6297890Y-16192822D01*
X6297890Y-16192822D02*
X6297890Y-16297584D01*
X6393129Y-16297584D02*
X6393129Y-16164250D01*
X6393129Y-16183298D02*
X6402652Y-16173774D01*
X6402652Y-16173774D02*
X6421700Y-16164250D01*
X6421700Y-16164250D02*
X6450271Y-16164250D01*
X6450271Y-16164250D02*
X6469319Y-16173774D01*
X6469319Y-16173774D02*
X6478843Y-16192822D01*
X6478843Y-16192822D02*
X6478843Y-16297584D01*
X6478843Y-16192822D02*
X6488367Y-16173774D01*
X6488367Y-16173774D02*
X6507414Y-16164250D01*
X6507414Y-16164250D02*
X6535986Y-16164250D01*
X6535986Y-16164250D02*
X6555033Y-16173774D01*
X6555033Y-16173774D02*
X6564557Y-16192822D01*
X6564557Y-16192822D02*
X6564557Y-16297584D01*
X6955033Y-16088060D02*
X6783605Y-16345203D01*
X7212176Y-16097584D02*
X7231224Y-16097584D01*
X7231224Y-16097584D02*
X7250272Y-16107108D01*
X7250272Y-16107108D02*
X7259795Y-16116631D01*
X7259795Y-16116631D02*
X7269319Y-16135679D01*
X7269319Y-16135679D02*
X7278843Y-16173774D01*
X7278843Y-16173774D02*
X7278843Y-16221393D01*
X7278843Y-16221393D02*
X7269319Y-16259488D01*
X7269319Y-16259488D02*
X7259795Y-16278536D01*
X7259795Y-16278536D02*
X7250272Y-16288060D01*
X7250272Y-16288060D02*
X7231224Y-16297584D01*
X7231224Y-16297584D02*
X7212176Y-16297584D01*
X7212176Y-16297584D02*
X7193129Y-16288060D01*
X7193129Y-16288060D02*
X7183605Y-16278536D01*
X7183605Y-16278536D02*
X7174081Y-16259488D01*
X7174081Y-16259488D02*
X7164557Y-16221393D01*
X7164557Y-16221393D02*
X7164557Y-16173774D01*
X7164557Y-16173774D02*
X7174081Y-16135679D01*
X7174081Y-16135679D02*
X7183605Y-16116631D01*
X7183605Y-16116631D02*
X7193129Y-16107108D01*
X7193129Y-16107108D02*
X7212176Y-16097584D01*
X7364557Y-16278536D02*
X7374081Y-16288060D01*
X7374081Y-16288060D02*
X7364557Y-16297584D01*
X7364557Y-16297584D02*
X7355033Y-16288060D01*
X7355033Y-16288060D02*
X7364557Y-16278536D01*
X7364557Y-16278536D02*
X7364557Y-16297584D01*
X7497891Y-16097584D02*
X7516938Y-16097584D01*
X7516938Y-16097584D02*
X7535986Y-16107108D01*
X7535986Y-16107108D02*
X7545510Y-16116631D01*
X7545510Y-16116631D02*
X7555033Y-16135679D01*
X7555033Y-16135679D02*
X7564557Y-16173774D01*
X7564557Y-16173774D02*
X7564557Y-16221393D01*
X7564557Y-16221393D02*
X7555033Y-16259488D01*
X7555033Y-16259488D02*
X7545510Y-16278536D01*
X7545510Y-16278536D02*
X7535986Y-16288060D01*
X7535986Y-16288060D02*
X7516938Y-16297584D01*
X7516938Y-16297584D02*
X7497891Y-16297584D01*
X7497891Y-16297584D02*
X7478843Y-16288060D01*
X7478843Y-16288060D02*
X7469319Y-16278536D01*
X7469319Y-16278536D02*
X7459795Y-16259488D01*
X7459795Y-16259488D02*
X7450272Y-16221393D01*
X7450272Y-16221393D02*
X7450272Y-16173774D01*
X7450272Y-16173774D02*
X7459795Y-16135679D01*
X7459795Y-16135679D02*
X7469319Y-16116631D01*
X7469319Y-16116631D02*
X7478843Y-16107108D01*
X7478843Y-16107108D02*
X7497891Y-16097584D01*
X7631224Y-16097584D02*
X7755033Y-16097584D01*
X7755033Y-16097584D02*
X7688367Y-16173774D01*
X7688367Y-16173774D02*
X7716938Y-16173774D01*
X7716938Y-16173774D02*
X7735986Y-16183298D01*
X7735986Y-16183298D02*
X7745510Y-16192822D01*
X7745510Y-16192822D02*
X7755033Y-16211869D01*
X7755033Y-16211869D02*
X7755033Y-16259488D01*
X7755033Y-16259488D02*
X7745510Y-16278536D01*
X7745510Y-16278536D02*
X7735986Y-16288060D01*
X7735986Y-16288060D02*
X7716938Y-16297584D01*
X7716938Y-16297584D02*
X7659795Y-16297584D01*
X7659795Y-16297584D02*
X7640748Y-16288060D01*
X7640748Y-16288060D02*
X7631224Y-16278536D01*
X7945510Y-16297584D02*
X7831224Y-16297584D01*
X7888367Y-16297584D02*
X7888367Y-16097584D01*
X7888367Y-16097584D02*
X7869319Y-16126155D01*
X7869319Y-16126155D02*
X7850272Y-16145203D01*
X7850272Y-16145203D02*
X7831224Y-16154727D01*
X8126462Y-16097584D02*
X8031224Y-16097584D01*
X8031224Y-16097584D02*
X8021700Y-16192822D01*
X8021700Y-16192822D02*
X8031224Y-16183298D01*
X8031224Y-16183298D02*
X8050272Y-16173774D01*
X8050272Y-16173774D02*
X8097891Y-16173774D01*
X8097891Y-16173774D02*
X8116938Y-16183298D01*
X8116938Y-16183298D02*
X8126462Y-16192822D01*
X8126462Y-16192822D02*
X8135986Y-16211869D01*
X8135986Y-16211869D02*
X8135986Y-16259488D01*
X8135986Y-16259488D02*
X8126462Y-16278536D01*
X8126462Y-16278536D02*
X8116938Y-16288060D01*
X8116938Y-16288060D02*
X8097891Y-16297584D01*
X8097891Y-16297584D02*
X8050272Y-16297584D01*
X8050272Y-16297584D02*
X8031224Y-16288060D01*
X8031224Y-16288060D02*
X8021700Y-16278536D01*
X8212176Y-16097584D02*
X8212176Y-16135679D01*
X8288367Y-16097584D02*
X8288367Y-16135679D01*
X8583605Y-16373774D02*
X8574081Y-16364250D01*
X8574081Y-16364250D02*
X8555034Y-16335679D01*
X8555034Y-16335679D02*
X8545510Y-16316631D01*
X8545510Y-16316631D02*
X8535986Y-16288060D01*
X8535986Y-16288060D02*
X8526462Y-16240441D01*
X8526462Y-16240441D02*
X8526462Y-16202346D01*
X8526462Y-16202346D02*
X8535986Y-16154727D01*
X8535986Y-16154727D02*
X8545510Y-16126155D01*
X8545510Y-16126155D02*
X8555034Y-16107108D01*
X8555034Y-16107108D02*
X8574081Y-16078536D01*
X8574081Y-16078536D02*
X8583605Y-16069012D01*
X8745510Y-16164250D02*
X8745510Y-16297584D01*
X8697891Y-16088060D02*
X8650272Y-16230917D01*
X8650272Y-16230917D02*
X8774081Y-16230917D01*
X9002653Y-16297584D02*
X9002653Y-16097584D01*
X9088367Y-16297584D02*
X9088367Y-16192822D01*
X9088367Y-16192822D02*
X9078843Y-16173774D01*
X9078843Y-16173774D02*
X9059796Y-16164250D01*
X9059796Y-16164250D02*
X9031224Y-16164250D01*
X9031224Y-16164250D02*
X9012177Y-16173774D01*
X9012177Y-16173774D02*
X9002653Y-16183298D01*
X9212177Y-16297584D02*
X9193129Y-16288060D01*
X9193129Y-16288060D02*
X9183605Y-16278536D01*
X9183605Y-16278536D02*
X9174081Y-16259488D01*
X9174081Y-16259488D02*
X9174081Y-16202346D01*
X9174081Y-16202346D02*
X9183605Y-16183298D01*
X9183605Y-16183298D02*
X9193129Y-16173774D01*
X9193129Y-16173774D02*
X9212177Y-16164250D01*
X9212177Y-16164250D02*
X9240748Y-16164250D01*
X9240748Y-16164250D02*
X9259796Y-16173774D01*
X9259796Y-16173774D02*
X9269319Y-16183298D01*
X9269319Y-16183298D02*
X9278843Y-16202346D01*
X9278843Y-16202346D02*
X9278843Y-16259488D01*
X9278843Y-16259488D02*
X9269319Y-16278536D01*
X9269319Y-16278536D02*
X9259796Y-16288060D01*
X9259796Y-16288060D02*
X9240748Y-16297584D01*
X9240748Y-16297584D02*
X9212177Y-16297584D01*
X9393129Y-16297584D02*
X9374081Y-16288060D01*
X9374081Y-16288060D02*
X9364558Y-16269012D01*
X9364558Y-16269012D02*
X9364558Y-16097584D01*
X9545510Y-16288060D02*
X9526462Y-16297584D01*
X9526462Y-16297584D02*
X9488367Y-16297584D01*
X9488367Y-16297584D02*
X9469319Y-16288060D01*
X9469319Y-16288060D02*
X9459796Y-16269012D01*
X9459796Y-16269012D02*
X9459796Y-16192822D01*
X9459796Y-16192822D02*
X9469319Y-16173774D01*
X9469319Y-16173774D02*
X9488367Y-16164250D01*
X9488367Y-16164250D02*
X9526462Y-16164250D01*
X9526462Y-16164250D02*
X9545510Y-16173774D01*
X9545510Y-16173774D02*
X9555034Y-16192822D01*
X9555034Y-16192822D02*
X9555034Y-16211869D01*
X9555034Y-16211869D02*
X9459796Y-16230917D01*
X9631224Y-16288060D02*
X9650272Y-16297584D01*
X9650272Y-16297584D02*
X9688367Y-16297584D01*
X9688367Y-16297584D02*
X9707415Y-16288060D01*
X9707415Y-16288060D02*
X9716939Y-16269012D01*
X9716939Y-16269012D02*
X9716939Y-16259488D01*
X9716939Y-16259488D02*
X9707415Y-16240441D01*
X9707415Y-16240441D02*
X9688367Y-16230917D01*
X9688367Y-16230917D02*
X9659796Y-16230917D01*
X9659796Y-16230917D02*
X9640748Y-16221393D01*
X9640748Y-16221393D02*
X9631224Y-16202346D01*
X9631224Y-16202346D02*
X9631224Y-16192822D01*
X9631224Y-16192822D02*
X9640748Y-16173774D01*
X9640748Y-16173774D02*
X9659796Y-16164250D01*
X9659796Y-16164250D02*
X9688367Y-16164250D01*
X9688367Y-16164250D02*
X9707415Y-16173774D01*
X9783605Y-16373774D02*
X9793129Y-16364250D01*
X9793129Y-16364250D02*
X9812177Y-16335679D01*
X9812177Y-16335679D02*
X9821700Y-16316631D01*
X9821700Y-16316631D02*
X9831224Y-16288060D01*
X9831224Y-16288060D02*
X9840748Y-16240441D01*
X9840748Y-16240441D02*
X9840748Y-16202346D01*
X9840748Y-16202346D02*
X9831224Y-16154727D01*
X9831224Y-16154727D02*
X9821700Y-16126155D01*
X9821700Y-16126155D02*
X9812177Y-16107108D01*
X9812177Y-16107108D02*
X9793129Y-16078536D01*
X9793129Y-16078536D02*
X9783605Y-16069012D01*
M02*
