M48
; DRILL file {KiCad 7.0.1} date Tue Nov 28 21:46:44 2023
; FORMAT={-:-/ absolute / metric / decimal}
; #@! TF.CreationDate,2023-11-28T21:46:44+01:00
; #@! TF.GenerationSoftware,Kicad,Pcbnew,7.0.1
; #@! TF.FileFunction,Plated,1,2,PTH
FMAT,2
METRIC
; #@! TA.AperFunction,Plated,PTH,ViaDrill
T1C0.250
; #@! TA.AperFunction,Plated,PTH,ViaDrill
T2C0.300
; #@! TA.AperFunction,Plated,PTH,ComponentDrill
T3C0.800
%
G90
G05
T1
X67.056Y-142.545
X68.732Y-142.545
X69.748Y-137.363
X77.978Y-134.874
X79.4Y-143.169
X91.084Y-143.104
X91.846Y-142.646
X92.507Y-142.088
X93.523Y-142.138
X96.266Y-139.294
X97.079Y-134.823
X105.41Y-139.141
X116.027Y-134.874
X117.297Y-139.7
X119.177Y-142.291
T2
X64.821Y-136.347
X65.605Y-131.906
X72.898Y-144.932
X73.863Y-140.513
X74.168Y-136.195
X74.676Y-130.505
X77.572Y-130.505
X83.82Y-136.296
X84.655Y-131.906
X88.256Y-142.596
X92.33Y-135.077
X103.073Y-136.195
X103.716Y-131.895
X108.814Y-145.948
X112.471Y-136.652
X122.072Y-136.347
X122.631Y-131.877
X129.617Y-137.465
T3
X52.832Y-130.099
X52.832Y-137.719
X132.436Y-130.048
X132.436Y-137.668
T0
M30
