G04 #@! TF.GenerationSoftware,KiCad,Pcbnew,7.0.1*
G04 #@! TF.CreationDate,2023-11-29T16:19:33+01:00*
G04 #@! TF.ProjectId,Gruzik2.0,4772757a-696b-4322-9e30-2e6b69636164,rev?*
G04 #@! TF.SameCoordinates,Original*
G04 #@! TF.FileFunction,Legend,Bot*
G04 #@! TF.FilePolarity,Positive*
%FSLAX46Y46*%
G04 Gerber Fmt 4.6, Leading zero omitted, Abs format (unit mm)*
G04 Created by KiCad (PCBNEW 7.0.1) date 2023-11-29 16:19:33*
%MOMM*%
%LPD*%
G01*
G04 APERTURE LIST*
G04 Aperture macros list*
%AMRoundRect*
0 Rectangle with rounded corners*
0 $1 Rounding radius*
0 $2 $3 $4 $5 $6 $7 $8 $9 X,Y pos of 4 corners*
0 Add a 4 corners polygon primitive as box body*
4,1,4,$2,$3,$4,$5,$6,$7,$8,$9,$2,$3,0*
0 Add four circle primitives for the rounded corners*
1,1,$1+$1,$2,$3*
1,1,$1+$1,$4,$5*
1,1,$1+$1,$6,$7*
1,1,$1+$1,$8,$9*
0 Add four rect primitives between the rounded corners*
20,1,$1+$1,$2,$3,$4,$5,0*
20,1,$1+$1,$4,$5,$6,$7,0*
20,1,$1+$1,$6,$7,$8,$9,0*
20,1,$1+$1,$8,$9,$2,$3,0*%
G04 Aperture macros list end*
%ADD10C,0.300000*%
%ADD11C,0.250000*%
%ADD12C,0.200000*%
%ADD13C,0.120000*%
%ADD14C,0.150000*%
%ADD15C,1.500000*%
%ADD16C,2.100000*%
%ADD17R,1.700000X1.700000*%
%ADD18O,1.700000X1.700000*%
%ADD19R,1.500000X2.000000*%
%ADD20R,3.800000X2.000000*%
%ADD21RoundRect,0.225000X0.250000X-0.225000X0.250000X0.225000X-0.250000X0.225000X-0.250000X-0.225000X0*%
%ADD22RoundRect,0.225000X0.225000X0.250000X-0.225000X0.250000X-0.225000X-0.250000X0.225000X-0.250000X0*%
%ADD23R,0.450000X1.750000*%
%ADD24RoundRect,0.225000X-0.225000X-0.250000X0.225000X-0.250000X0.225000X0.250000X-0.225000X0.250000X0*%
%ADD25RoundRect,0.200000X-0.275000X0.200000X-0.275000X-0.200000X0.275000X-0.200000X0.275000X0.200000X0*%
%ADD26RoundRect,0.218750X-0.256250X0.218750X-0.256250X-0.218750X0.256250X-0.218750X0.256250X0.218750X0*%
%ADD27RoundRect,0.075000X-0.662500X-0.075000X0.662500X-0.075000X0.662500X0.075000X-0.662500X0.075000X0*%
%ADD28RoundRect,0.075000X-0.075000X-0.662500X0.075000X-0.662500X0.075000X0.662500X-0.075000X0.662500X0*%
%ADD29R,0.400000X1.000000*%
%ADD30R,2.000000X1.300000*%
G04 APERTURE END LIST*
D10*
G36*
X150498642Y-138188054D02*
G01*
X150653981Y-138017475D01*
X150638080Y-138006216D01*
X150623206Y-137994934D01*
X150609357Y-137983630D01*
X150596535Y-137972302D01*
X150584738Y-137960952D01*
X150573967Y-137949578D01*
X150564221Y-137938182D01*
X150555502Y-137926763D01*
X150547808Y-137915321D01*
X150541140Y-137903856D01*
X150535498Y-137892368D01*
X150530882Y-137880857D01*
X150527292Y-137869324D01*
X150524727Y-137857767D01*
X150522804Y-137840390D01*
X150522676Y-137834586D01*
X150523262Y-137820790D01*
X150525023Y-137807795D01*
X150527956Y-137795602D01*
X150532064Y-137784211D01*
X150537344Y-137773620D01*
X150543799Y-137763832D01*
X150546709Y-137760140D01*
X150555828Y-137750379D01*
X150565380Y-137742637D01*
X150577071Y-137736158D01*
X150589350Y-137732427D01*
X150600345Y-137731418D01*
X150613270Y-137732399D01*
X150625886Y-137735344D01*
X150638194Y-137740253D01*
X150648498Y-137746023D01*
X150656911Y-137751934D01*
X150667055Y-137760731D01*
X150676340Y-137769643D01*
X150687062Y-137780539D01*
X150699222Y-137793418D01*
X150708127Y-137803106D01*
X150717670Y-137813676D01*
X150727853Y-137825127D01*
X150738674Y-137837460D01*
X150750135Y-137850674D01*
X150762234Y-137864770D01*
X150774972Y-137879747D01*
X150788349Y-137895606D01*
X150802365Y-137912347D01*
X150809612Y-137921048D01*
X150822818Y-137937128D01*
X150835400Y-137952395D01*
X150847356Y-137966849D01*
X150858687Y-137980490D01*
X150869392Y-137993319D01*
X150879473Y-138005334D01*
X150888929Y-138016537D01*
X150897759Y-138026927D01*
X150905965Y-138036504D01*
X150917101Y-138049345D01*
X150926830Y-138060358D01*
X150935153Y-138069541D01*
X150944063Y-138078941D01*
X150945900Y-138080782D01*
X150954560Y-138089379D01*
X150963174Y-138097658D01*
X150976009Y-138109479D01*
X150988741Y-138120585D01*
X151001371Y-138130974D01*
X151013897Y-138140646D01*
X151026320Y-138149603D01*
X151038640Y-138157844D01*
X151050857Y-138165368D01*
X151062971Y-138172177D01*
X151074982Y-138178269D01*
X151078963Y-138180140D01*
X151090939Y-138185378D01*
X151103126Y-138190101D01*
X151115524Y-138194308D01*
X151128134Y-138198001D01*
X151140954Y-138201178D01*
X151153986Y-138203840D01*
X151167230Y-138205986D01*
X151180684Y-138207618D01*
X151194350Y-138208734D01*
X151208227Y-138209335D01*
X151217595Y-138209450D01*
X151235643Y-138209047D01*
X151253298Y-138207838D01*
X151270558Y-138205823D01*
X151287424Y-138203002D01*
X151303897Y-138199375D01*
X151319976Y-138194942D01*
X151335661Y-138189703D01*
X151350952Y-138183658D01*
X151365849Y-138176807D01*
X151380353Y-138169150D01*
X151394462Y-138160687D01*
X151408178Y-138151418D01*
X151421500Y-138141342D01*
X151434428Y-138130461D01*
X151446962Y-138118774D01*
X151459103Y-138106281D01*
X151470637Y-138093176D01*
X151481428Y-138079578D01*
X151491474Y-138065488D01*
X151500777Y-138050905D01*
X151509335Y-138035831D01*
X151517148Y-138020264D01*
X151524218Y-138004204D01*
X151530544Y-137987653D01*
X151536125Y-137970609D01*
X151540962Y-137953072D01*
X151545055Y-137935044D01*
X151548404Y-137916523D01*
X151551009Y-137897510D01*
X151552869Y-137878004D01*
X151553985Y-137858007D01*
X151554357Y-137837517D01*
X151554101Y-137821489D01*
X151553332Y-137805721D01*
X151552049Y-137790211D01*
X151550254Y-137774960D01*
X151547946Y-137759968D01*
X151545125Y-137745234D01*
X151541791Y-137730759D01*
X151537944Y-137716543D01*
X151533584Y-137702586D01*
X151528712Y-137688887D01*
X151523326Y-137675447D01*
X151517428Y-137662266D01*
X151511016Y-137649344D01*
X151504092Y-137636680D01*
X151496655Y-137624275D01*
X151488705Y-137612129D01*
X151480169Y-137600221D01*
X151471046Y-137588531D01*
X151461337Y-137577058D01*
X151451043Y-137565803D01*
X151440162Y-137554765D01*
X151428694Y-137543944D01*
X151416641Y-137533342D01*
X151404001Y-137522956D01*
X151390776Y-137512788D01*
X151376964Y-137502838D01*
X151362566Y-137493106D01*
X151347581Y-137483590D01*
X151332011Y-137474293D01*
X151315854Y-137465213D01*
X151299111Y-137456350D01*
X151281782Y-137447705D01*
X151160442Y-137641438D01*
X151170829Y-137646923D01*
X151190613Y-137658049D01*
X151209077Y-137669384D01*
X151226223Y-137680926D01*
X151242050Y-137692678D01*
X151256558Y-137704637D01*
X151269747Y-137716805D01*
X151281617Y-137729181D01*
X151292169Y-137741766D01*
X151301401Y-137754559D01*
X151309315Y-137767560D01*
X151315909Y-137780770D01*
X151321185Y-137794188D01*
X151325142Y-137807814D01*
X151327779Y-137821649D01*
X151329098Y-137835693D01*
X151329263Y-137842792D01*
X151328736Y-137857300D01*
X151327157Y-137871222D01*
X151324523Y-137884558D01*
X151320837Y-137897307D01*
X151316097Y-137909471D01*
X151310304Y-137921048D01*
X151303457Y-137932039D01*
X151295558Y-137942443D01*
X151286893Y-137951923D01*
X151277899Y-137960139D01*
X151266192Y-137968631D01*
X151253971Y-137975148D01*
X151241234Y-137979691D01*
X151227982Y-137982258D01*
X151217009Y-137982890D01*
X151204461Y-137982146D01*
X151191913Y-137979913D01*
X151179365Y-137976192D01*
X151166817Y-137970983D01*
X151154269Y-137964286D01*
X151144231Y-137957856D01*
X151136702Y-137952408D01*
X151125922Y-137943639D01*
X151116959Y-137935553D01*
X151107244Y-137926173D01*
X151096777Y-137915501D01*
X151085558Y-137903535D01*
X151077660Y-137894840D01*
X151069428Y-137885570D01*
X151060862Y-137875725D01*
X151051962Y-137865305D01*
X151042727Y-137854311D01*
X151033158Y-137842742D01*
X151023255Y-137830598D01*
X151013018Y-137817879D01*
X151003214Y-137805651D01*
X150993552Y-137793697D01*
X150984031Y-137782016D01*
X150974650Y-137770609D01*
X150965410Y-137759476D01*
X150956311Y-137748616D01*
X150947353Y-137738030D01*
X150938536Y-137727717D01*
X150929859Y-137717678D01*
X150921323Y-137707913D01*
X150912929Y-137698421D01*
X150904674Y-137689203D01*
X150896561Y-137680259D01*
X150888589Y-137671588D01*
X150873066Y-137655067D01*
X150858107Y-137639641D01*
X150843711Y-137625309D01*
X150829879Y-137612072D01*
X150816610Y-137599929D01*
X150803904Y-137588881D01*
X150791761Y-137578928D01*
X150780182Y-137570068D01*
X150769165Y-137562304D01*
X150758432Y-137555312D01*
X150747701Y-137548771D01*
X150736972Y-137542682D01*
X150726246Y-137537043D01*
X150715522Y-137531855D01*
X150699440Y-137524920D01*
X150683363Y-137519000D01*
X150667291Y-137514094D01*
X150651225Y-137510203D01*
X150635163Y-137507328D01*
X150619107Y-137505467D01*
X150603056Y-137504621D01*
X150597707Y-137504565D01*
X150582420Y-137504939D01*
X150567409Y-137506062D01*
X150552672Y-137507934D01*
X150538209Y-137510555D01*
X150524022Y-137513924D01*
X150510109Y-137518042D01*
X150496471Y-137522909D01*
X150483108Y-137528525D01*
X150470020Y-137534889D01*
X150457206Y-137542003D01*
X150444667Y-137549865D01*
X150432403Y-137558475D01*
X150420414Y-137567835D01*
X150408700Y-137577943D01*
X150397260Y-137588800D01*
X150386095Y-137600406D01*
X150375377Y-137612598D01*
X150365350Y-137625140D01*
X150356014Y-137638032D01*
X150347370Y-137651275D01*
X150339418Y-137664869D01*
X150332157Y-137678812D01*
X150325588Y-137693106D01*
X150319710Y-137707750D01*
X150314523Y-137722745D01*
X150310029Y-137738090D01*
X150306225Y-137753785D01*
X150303113Y-137769831D01*
X150300693Y-137786227D01*
X150298964Y-137802973D01*
X150297927Y-137820070D01*
X150297581Y-137837517D01*
X150297963Y-137854475D01*
X150299106Y-137871279D01*
X150301013Y-137887929D01*
X150303681Y-137904424D01*
X150307113Y-137920764D01*
X150311306Y-137936950D01*
X150316262Y-137952981D01*
X150321981Y-137968858D01*
X150328462Y-137984580D01*
X150335706Y-138000148D01*
X150340959Y-138010441D01*
X150346624Y-138020751D01*
X150352847Y-138031168D01*
X150359630Y-138041689D01*
X150366971Y-138052316D01*
X150374870Y-138063048D01*
X150383329Y-138073886D01*
X150392346Y-138084829D01*
X150401922Y-138095877D01*
X150412056Y-138107030D01*
X150422750Y-138118289D01*
X150434002Y-138129653D01*
X150445812Y-138141123D01*
X150458182Y-138152697D01*
X150471110Y-138164378D01*
X150484597Y-138176163D01*
X150498642Y-138188054D01*
G37*
G36*
X150316339Y-138333720D02*
G01*
X150316339Y-138561159D01*
X151094497Y-138735842D01*
X150316339Y-138952729D01*
X150316339Y-139144704D01*
X151094497Y-139363937D01*
X150316339Y-139537154D01*
X150316339Y-139764593D01*
X151535600Y-139491725D01*
X151535600Y-139270147D01*
X150747477Y-139046519D01*
X151535600Y-138827286D01*
X151535600Y-138608054D01*
X150316339Y-138333720D01*
G37*
G36*
X150539382Y-141051557D02*
G01*
X150692082Y-140890064D01*
X150681660Y-140879710D01*
X150671568Y-140869277D01*
X150661808Y-140858764D01*
X150652378Y-140848170D01*
X150643279Y-140837496D01*
X150634511Y-140826742D01*
X150626073Y-140815908D01*
X150617967Y-140804994D01*
X150610191Y-140794000D01*
X150602747Y-140782925D01*
X150595633Y-140771770D01*
X150588850Y-140760536D01*
X150582398Y-140749221D01*
X150576277Y-140737826D01*
X150570487Y-140726350D01*
X150565027Y-140714795D01*
X150559899Y-140703160D01*
X150555101Y-140691444D01*
X150550634Y-140679648D01*
X150546498Y-140667772D01*
X150542693Y-140655816D01*
X150539219Y-140643780D01*
X150536076Y-140631664D01*
X150533263Y-140619467D01*
X150530782Y-140607190D01*
X150528631Y-140594834D01*
X150526811Y-140582397D01*
X150525323Y-140569880D01*
X150524164Y-140557282D01*
X150523337Y-140544605D01*
X150522841Y-140531848D01*
X150522676Y-140519010D01*
X150523128Y-140497498D01*
X150524484Y-140476411D01*
X150526746Y-140455750D01*
X150529911Y-140435516D01*
X150533981Y-140415707D01*
X150538956Y-140396324D01*
X150544835Y-140377367D01*
X150551618Y-140358836D01*
X150559306Y-140340730D01*
X150567899Y-140323051D01*
X150577396Y-140305797D01*
X150587797Y-140288970D01*
X150599103Y-140272568D01*
X150611313Y-140256592D01*
X150624428Y-140241043D01*
X150638447Y-140225919D01*
X150653093Y-140211509D01*
X150668163Y-140198029D01*
X150683657Y-140185479D01*
X150699575Y-140173858D01*
X150715916Y-140163167D01*
X150732680Y-140153406D01*
X150749868Y-140144574D01*
X150767480Y-140136672D01*
X150785516Y-140129700D01*
X150803975Y-140123657D01*
X150822857Y-140118544D01*
X150842164Y-140114361D01*
X150861893Y-140111107D01*
X150882047Y-140108783D01*
X150902624Y-140107388D01*
X150923625Y-140106923D01*
X150938286Y-140107130D01*
X150952741Y-140107748D01*
X150966991Y-140108778D01*
X150981034Y-140110221D01*
X150994871Y-140112075D01*
X151008502Y-140114342D01*
X151021927Y-140117021D01*
X151035146Y-140120113D01*
X151048159Y-140123616D01*
X151060965Y-140127531D01*
X151073566Y-140131859D01*
X151085961Y-140136599D01*
X151098149Y-140141751D01*
X151110132Y-140147315D01*
X151121908Y-140153291D01*
X151133478Y-140159680D01*
X151144755Y-140166445D01*
X151155726Y-140173551D01*
X151166389Y-140180999D01*
X151176746Y-140188788D01*
X151186796Y-140196917D01*
X151196539Y-140205388D01*
X151205975Y-140214201D01*
X151215104Y-140223354D01*
X151223927Y-140232849D01*
X151232442Y-140242684D01*
X151240651Y-140252861D01*
X151248553Y-140263379D01*
X151256148Y-140274239D01*
X151263437Y-140285439D01*
X151270418Y-140296981D01*
X151277093Y-140308863D01*
X151283410Y-140321000D01*
X151289320Y-140333304D01*
X151294823Y-140345776D01*
X151299917Y-140358414D01*
X151304605Y-140371220D01*
X151308884Y-140384192D01*
X151312756Y-140397332D01*
X151316221Y-140410639D01*
X151319277Y-140424114D01*
X151321927Y-140437755D01*
X151324168Y-140451563D01*
X151326003Y-140465539D01*
X151327429Y-140479682D01*
X151328448Y-140493992D01*
X151329059Y-140508469D01*
X151329263Y-140523113D01*
X151329121Y-140535612D01*
X151328695Y-140547976D01*
X151327985Y-140560204D01*
X151326992Y-140572298D01*
X151325714Y-140584256D01*
X151324152Y-140596079D01*
X151322307Y-140607767D01*
X151320177Y-140619321D01*
X151316451Y-140636397D01*
X151312085Y-140653169D01*
X151307081Y-140669637D01*
X151301438Y-140685802D01*
X151295156Y-140701662D01*
X151292920Y-140706882D01*
X151285525Y-140722636D01*
X151280011Y-140733301D01*
X151274030Y-140744098D01*
X151267582Y-140755024D01*
X151260667Y-140766082D01*
X151253285Y-140777270D01*
X151245436Y-140788588D01*
X151237119Y-140800037D01*
X151228336Y-140811616D01*
X151219085Y-140823326D01*
X151209367Y-140835167D01*
X151199182Y-140847138D01*
X151188530Y-140859239D01*
X151177411Y-140871471D01*
X151165825Y-140883834D01*
X151159856Y-140890064D01*
X151322522Y-141046575D01*
X151338549Y-141029852D01*
X151353952Y-141013245D01*
X151368729Y-140996751D01*
X151382881Y-140980372D01*
X151396407Y-140964108D01*
X151409309Y-140947958D01*
X151421586Y-140931923D01*
X151433237Y-140916002D01*
X151444264Y-140900196D01*
X151454665Y-140884504D01*
X151464441Y-140868927D01*
X151473592Y-140853464D01*
X151482118Y-140838116D01*
X151490019Y-140822882D01*
X151497295Y-140807762D01*
X151503946Y-140792757D01*
X151510050Y-140777678D01*
X151515761Y-140762335D01*
X151521078Y-140746729D01*
X151526001Y-140730860D01*
X151530530Y-140714727D01*
X151534665Y-140698332D01*
X151538407Y-140681672D01*
X151541754Y-140664750D01*
X151544708Y-140647564D01*
X151547268Y-140630115D01*
X151549434Y-140612402D01*
X151551207Y-140594426D01*
X151552585Y-140576187D01*
X151553570Y-140557684D01*
X151554160Y-140538918D01*
X151554357Y-140519889D01*
X151554185Y-140502312D01*
X151553667Y-140484936D01*
X151552804Y-140467760D01*
X151551596Y-140450784D01*
X151550043Y-140434008D01*
X151548144Y-140417433D01*
X151545900Y-140401058D01*
X151543311Y-140384884D01*
X151540377Y-140368910D01*
X151537098Y-140353136D01*
X151533474Y-140337563D01*
X151529504Y-140322190D01*
X151525189Y-140307017D01*
X151520529Y-140292045D01*
X151515524Y-140277273D01*
X151510174Y-140262702D01*
X151504478Y-140248330D01*
X151498438Y-140234159D01*
X151492052Y-140220189D01*
X151485321Y-140206419D01*
X151478244Y-140192849D01*
X151470823Y-140179480D01*
X151463056Y-140166311D01*
X151454944Y-140153342D01*
X151446487Y-140140573D01*
X151437685Y-140128005D01*
X151428538Y-140115638D01*
X151419045Y-140103470D01*
X151409208Y-140091504D01*
X151399025Y-140079737D01*
X151388497Y-140068171D01*
X151377623Y-140056805D01*
X151366462Y-140045733D01*
X151355106Y-140035013D01*
X151343555Y-140024644D01*
X151331809Y-140014627D01*
X151319869Y-140004961D01*
X151307735Y-139995647D01*
X151295405Y-139986684D01*
X151282881Y-139978073D01*
X151270163Y-139969813D01*
X151257250Y-139961905D01*
X151244142Y-139954348D01*
X151230839Y-139947143D01*
X151217342Y-139940289D01*
X151203651Y-139933787D01*
X151189764Y-139927636D01*
X151175683Y-139921836D01*
X151161408Y-139916388D01*
X151146937Y-139911292D01*
X151132273Y-139906547D01*
X151117413Y-139902153D01*
X151102359Y-139898111D01*
X151087110Y-139894421D01*
X151071667Y-139891082D01*
X151056029Y-139888094D01*
X151040196Y-139885458D01*
X151024169Y-139883173D01*
X151007947Y-139881240D01*
X150991530Y-139879659D01*
X150974919Y-139878428D01*
X150958113Y-139877550D01*
X150941113Y-139877022D01*
X150923918Y-139876847D01*
X150901690Y-139877167D01*
X150879775Y-139878129D01*
X150858175Y-139879732D01*
X150836888Y-139881976D01*
X150815915Y-139884861D01*
X150795255Y-139888387D01*
X150774909Y-139892555D01*
X150754877Y-139897363D01*
X150735159Y-139902813D01*
X150715754Y-139908904D01*
X150696663Y-139915635D01*
X150677886Y-139923009D01*
X150659422Y-139931023D01*
X150641272Y-139939678D01*
X150623436Y-139948975D01*
X150605914Y-139958912D01*
X150588725Y-139969446D01*
X150571965Y-139980532D01*
X150555633Y-139992170D01*
X150539730Y-140004360D01*
X150524254Y-140017101D01*
X150509207Y-140030395D01*
X150494588Y-140044240D01*
X150480397Y-140058637D01*
X150466634Y-140073585D01*
X150453300Y-140089086D01*
X150440394Y-140105139D01*
X150427915Y-140121743D01*
X150415865Y-140138899D01*
X150404244Y-140156607D01*
X150393050Y-140174867D01*
X150382285Y-140193678D01*
X150372028Y-140212894D01*
X150362432Y-140232293D01*
X150353499Y-140251875D01*
X150345227Y-140271641D01*
X150337617Y-140291589D01*
X150330669Y-140311721D01*
X150324382Y-140332036D01*
X150318757Y-140352534D01*
X150313794Y-140373215D01*
X150309493Y-140394080D01*
X150305853Y-140415127D01*
X150302875Y-140436358D01*
X150300559Y-140457772D01*
X150298905Y-140479369D01*
X150297912Y-140501150D01*
X150297581Y-140523113D01*
X150297828Y-140541828D01*
X150298566Y-140560455D01*
X150299797Y-140578995D01*
X150301520Y-140597449D01*
X150303735Y-140615815D01*
X150306443Y-140634094D01*
X150309643Y-140652286D01*
X150313335Y-140670392D01*
X150317520Y-140688410D01*
X150322196Y-140706341D01*
X150327366Y-140724185D01*
X150333027Y-140741943D01*
X150339181Y-140759613D01*
X150345827Y-140777196D01*
X150352965Y-140794692D01*
X150360596Y-140812101D01*
X150368645Y-140829317D01*
X150377110Y-140846233D01*
X150385992Y-140862849D01*
X150395291Y-140879164D01*
X150405006Y-140895180D01*
X150415138Y-140910896D01*
X150425687Y-140926312D01*
X150436653Y-140941428D01*
X150448036Y-140956244D01*
X150459835Y-140970760D01*
X150472051Y-140984976D01*
X150484684Y-140998892D01*
X150497733Y-141012508D01*
X150511199Y-141025825D01*
X150525082Y-141038841D01*
X150539382Y-141051557D01*
G37*
G36*
X150316339Y-141246756D02*
G01*
X150316339Y-141477419D01*
X151310505Y-141477419D01*
X151310505Y-141813888D01*
X151535600Y-141813888D01*
X151535600Y-141246756D01*
X150316339Y-141246756D01*
G37*
G36*
X150316339Y-141986812D02*
G01*
X150316339Y-142220113D01*
X150725788Y-142220113D01*
X150316339Y-142548961D01*
X150316339Y-142826812D01*
X150850938Y-142403002D01*
X151535600Y-142868138D01*
X151535600Y-142594390D01*
X150984881Y-142220113D01*
X151535600Y-142220113D01*
X151535600Y-141986812D01*
X150316339Y-141986812D01*
G37*
G36*
X45261939Y-136721850D02*
G01*
X45261939Y-137391857D01*
X45487033Y-137391857D01*
X45487033Y-137171160D01*
X46481200Y-137171160D01*
X46481200Y-136936980D01*
X45487033Y-136936980D01*
X45487033Y-136721850D01*
X45261939Y-136721850D01*
G37*
G36*
X45580823Y-137440511D02*
G01*
X45580823Y-137701655D01*
X45826433Y-137878975D01*
X45580823Y-138055416D01*
X45580823Y-138314216D01*
X46005512Y-138008522D01*
X46481200Y-138352025D01*
X46481200Y-138090880D01*
X46186643Y-137878096D01*
X46481200Y-137666191D01*
X46481200Y-137408271D01*
X46007564Y-137748843D01*
X45580823Y-137440511D01*
G37*
D11*
X67513295Y-169359238D02*
X67608533Y-169311619D01*
X67608533Y-169311619D02*
X67751390Y-169311619D01*
X67751390Y-169311619D02*
X67894247Y-169359238D01*
X67894247Y-169359238D02*
X67989485Y-169454476D01*
X67989485Y-169454476D02*
X68037104Y-169549714D01*
X68037104Y-169549714D02*
X68084723Y-169740190D01*
X68084723Y-169740190D02*
X68084723Y-169883047D01*
X68084723Y-169883047D02*
X68037104Y-170073523D01*
X68037104Y-170073523D02*
X67989485Y-170168761D01*
X67989485Y-170168761D02*
X67894247Y-170264000D01*
X67894247Y-170264000D02*
X67751390Y-170311619D01*
X67751390Y-170311619D02*
X67656152Y-170311619D01*
X67656152Y-170311619D02*
X67513295Y-170264000D01*
X67513295Y-170264000D02*
X67465676Y-170216380D01*
X67465676Y-170216380D02*
X67465676Y-169883047D01*
X67465676Y-169883047D02*
X67656152Y-169883047D01*
X66465676Y-170311619D02*
X66799009Y-169835428D01*
X67037104Y-170311619D02*
X67037104Y-169311619D01*
X67037104Y-169311619D02*
X66656152Y-169311619D01*
X66656152Y-169311619D02*
X66560914Y-169359238D01*
X66560914Y-169359238D02*
X66513295Y-169406857D01*
X66513295Y-169406857D02*
X66465676Y-169502095D01*
X66465676Y-169502095D02*
X66465676Y-169644952D01*
X66465676Y-169644952D02*
X66513295Y-169740190D01*
X66513295Y-169740190D02*
X66560914Y-169787809D01*
X66560914Y-169787809D02*
X66656152Y-169835428D01*
X66656152Y-169835428D02*
X67037104Y-169835428D01*
X66037104Y-169311619D02*
X66037104Y-170121142D01*
X66037104Y-170121142D02*
X65989485Y-170216380D01*
X65989485Y-170216380D02*
X65941866Y-170264000D01*
X65941866Y-170264000D02*
X65846628Y-170311619D01*
X65846628Y-170311619D02*
X65656152Y-170311619D01*
X65656152Y-170311619D02*
X65560914Y-170264000D01*
X65560914Y-170264000D02*
X65513295Y-170216380D01*
X65513295Y-170216380D02*
X65465676Y-170121142D01*
X65465676Y-170121142D02*
X65465676Y-169311619D01*
X65084723Y-169311619D02*
X64418057Y-169311619D01*
X64418057Y-169311619D02*
X65084723Y-170311619D01*
X65084723Y-170311619D02*
X64418057Y-170311619D01*
X64037104Y-170311619D02*
X64037104Y-169311619D01*
X63560914Y-170311619D02*
X63560914Y-169311619D01*
X62989486Y-170311619D02*
X63418057Y-169740190D01*
X62989486Y-169311619D02*
X63560914Y-169883047D01*
X61846628Y-169406857D02*
X61799009Y-169359238D01*
X61799009Y-169359238D02*
X61703771Y-169311619D01*
X61703771Y-169311619D02*
X61465676Y-169311619D01*
X61465676Y-169311619D02*
X61370438Y-169359238D01*
X61370438Y-169359238D02*
X61322819Y-169406857D01*
X61322819Y-169406857D02*
X61275200Y-169502095D01*
X61275200Y-169502095D02*
X61275200Y-169597333D01*
X61275200Y-169597333D02*
X61322819Y-169740190D01*
X61322819Y-169740190D02*
X61894247Y-170311619D01*
X61894247Y-170311619D02*
X61275200Y-170311619D01*
X60846628Y-170216380D02*
X60799009Y-170264000D01*
X60799009Y-170264000D02*
X60846628Y-170311619D01*
X60846628Y-170311619D02*
X60894247Y-170264000D01*
X60894247Y-170264000D02*
X60846628Y-170216380D01*
X60846628Y-170216380D02*
X60846628Y-170311619D01*
X60179962Y-169311619D02*
X60084724Y-169311619D01*
X60084724Y-169311619D02*
X59989486Y-169359238D01*
X59989486Y-169359238D02*
X59941867Y-169406857D01*
X59941867Y-169406857D02*
X59894248Y-169502095D01*
X59894248Y-169502095D02*
X59846629Y-169692571D01*
X59846629Y-169692571D02*
X59846629Y-169930666D01*
X59846629Y-169930666D02*
X59894248Y-170121142D01*
X59894248Y-170121142D02*
X59941867Y-170216380D01*
X59941867Y-170216380D02*
X59989486Y-170264000D01*
X59989486Y-170264000D02*
X60084724Y-170311619D01*
X60084724Y-170311619D02*
X60179962Y-170311619D01*
X60179962Y-170311619D02*
X60275200Y-170264000D01*
X60275200Y-170264000D02*
X60322819Y-170216380D01*
X60322819Y-170216380D02*
X60370438Y-170121142D01*
X60370438Y-170121142D02*
X60418057Y-169930666D01*
X60418057Y-169930666D02*
X60418057Y-169692571D01*
X60418057Y-169692571D02*
X60370438Y-169502095D01*
X60370438Y-169502095D02*
X60322819Y-169406857D01*
X60322819Y-169406857D02*
X60275200Y-169359238D01*
X60275200Y-169359238D02*
X60179962Y-169311619D01*
D10*
G36*
X43348759Y-137157479D02*
G01*
X43048633Y-137157479D01*
X43048633Y-137363523D01*
X43348759Y-137363523D01*
X43348759Y-137671855D01*
X43555095Y-137671855D01*
X43555095Y-137363523D01*
X43855221Y-137363523D01*
X43855221Y-137157479D01*
X43555095Y-137157479D01*
X43555095Y-136848268D01*
X43348759Y-136848268D01*
X43348759Y-137157479D01*
G37*
G36*
X42823539Y-138043788D02*
G01*
X42823539Y-138611799D01*
X43029876Y-138611799D01*
X43029876Y-138216126D01*
X43248229Y-138166593D01*
X43245022Y-138178064D01*
X43242056Y-138190646D01*
X43239721Y-138203057D01*
X43239143Y-138206747D01*
X43237597Y-138219031D01*
X43236624Y-138230973D01*
X43236215Y-138243711D01*
X43236212Y-138244849D01*
X43236654Y-138265256D01*
X43237980Y-138285227D01*
X43240189Y-138304759D01*
X43243283Y-138323855D01*
X43247260Y-138342513D01*
X43252121Y-138360734D01*
X43257866Y-138378518D01*
X43264495Y-138395864D01*
X43272008Y-138412773D01*
X43280405Y-138429244D01*
X43289685Y-138445279D01*
X43299849Y-138460875D01*
X43310898Y-138476035D01*
X43322830Y-138490757D01*
X43335645Y-138505042D01*
X43349345Y-138518889D01*
X43363734Y-138532127D01*
X43378618Y-138544512D01*
X43393996Y-138556042D01*
X43409869Y-138566718D01*
X43426236Y-138576540D01*
X43443098Y-138585508D01*
X43460454Y-138593622D01*
X43478305Y-138600881D01*
X43496651Y-138607287D01*
X43515491Y-138612839D01*
X43534826Y-138617536D01*
X43554656Y-138621380D01*
X43574980Y-138624369D01*
X43595798Y-138626504D01*
X43617112Y-138627785D01*
X43638920Y-138628212D01*
X43660976Y-138627741D01*
X43682595Y-138626325D01*
X43703776Y-138623967D01*
X43724521Y-138620665D01*
X43744827Y-138616420D01*
X43764697Y-138611231D01*
X43784129Y-138605099D01*
X43803124Y-138598024D01*
X43821681Y-138590005D01*
X43839802Y-138581043D01*
X43857484Y-138571137D01*
X43874730Y-138560288D01*
X43891538Y-138548496D01*
X43907909Y-138535760D01*
X43923842Y-138522081D01*
X43939338Y-138507459D01*
X43954138Y-138492159D01*
X43967983Y-138476450D01*
X43980874Y-138460331D01*
X43992809Y-138443803D01*
X44003790Y-138426864D01*
X44013816Y-138409516D01*
X44022886Y-138391757D01*
X44031003Y-138373589D01*
X44038164Y-138355011D01*
X44044370Y-138336023D01*
X44049622Y-138316625D01*
X44053919Y-138296817D01*
X44057261Y-138276600D01*
X44059648Y-138255972D01*
X44061080Y-138234935D01*
X44061557Y-138213488D01*
X44061205Y-138194313D01*
X44060147Y-138175478D01*
X44058384Y-138156981D01*
X44055915Y-138138823D01*
X44052742Y-138121004D01*
X44048863Y-138103524D01*
X44044279Y-138086382D01*
X44038989Y-138069580D01*
X44032995Y-138053116D01*
X44026295Y-138036992D01*
X44018890Y-138021206D01*
X44010779Y-138005759D01*
X44001964Y-137990651D01*
X43992443Y-137975882D01*
X43982217Y-137961452D01*
X43971285Y-137947361D01*
X43959740Y-137933739D01*
X43947673Y-137920717D01*
X43935084Y-137908295D01*
X43921973Y-137896473D01*
X43908339Y-137885251D01*
X43894184Y-137874628D01*
X43879506Y-137864606D01*
X43864307Y-137855184D01*
X43848585Y-137846361D01*
X43832342Y-137838138D01*
X43815576Y-137830516D01*
X43798288Y-137823493D01*
X43780478Y-137817070D01*
X43762146Y-137811247D01*
X43743292Y-137806024D01*
X43723916Y-137801401D01*
X43723916Y-138043788D01*
X43737348Y-138051097D01*
X43749946Y-138058955D01*
X43761711Y-138067363D01*
X43772642Y-138076321D01*
X43782740Y-138085828D01*
X43792005Y-138095885D01*
X43800436Y-138106491D01*
X43808033Y-138117647D01*
X43814697Y-138129224D01*
X43820471Y-138141094D01*
X43825358Y-138153258D01*
X43829356Y-138165714D01*
X43832465Y-138178463D01*
X43834686Y-138191506D01*
X43836019Y-138204842D01*
X43836463Y-138218470D01*
X43835997Y-138232662D01*
X43834598Y-138246442D01*
X43832267Y-138259810D01*
X43829003Y-138272766D01*
X43824807Y-138285309D01*
X43819678Y-138297440D01*
X43813617Y-138309159D01*
X43806623Y-138320466D01*
X43798696Y-138331361D01*
X43789838Y-138341844D01*
X43783414Y-138348603D01*
X43773147Y-138358188D01*
X43762349Y-138366831D01*
X43751020Y-138374530D01*
X43739161Y-138381287D01*
X43726772Y-138387101D01*
X43713851Y-138391973D01*
X43700400Y-138395901D01*
X43686419Y-138398886D01*
X43671906Y-138400929D01*
X43656863Y-138402029D01*
X43646540Y-138402239D01*
X43631575Y-138401801D01*
X43617125Y-138400487D01*
X43603191Y-138398297D01*
X43589772Y-138395232D01*
X43576868Y-138391291D01*
X43564479Y-138386474D01*
X43552605Y-138380781D01*
X43541247Y-138374212D01*
X43530404Y-138366767D01*
X43520076Y-138358447D01*
X43513476Y-138352413D01*
X43504153Y-138342885D01*
X43495747Y-138332987D01*
X43488257Y-138322717D01*
X43481685Y-138312076D01*
X43476030Y-138301065D01*
X43471292Y-138289682D01*
X43467471Y-138277929D01*
X43464567Y-138265805D01*
X43462580Y-138253309D01*
X43461510Y-138240443D01*
X43461306Y-138231660D01*
X43461750Y-138219788D01*
X43463081Y-138207989D01*
X43465299Y-138196261D01*
X43468404Y-138184605D01*
X43472397Y-138173020D01*
X43477277Y-138161506D01*
X43479478Y-138156921D01*
X43485600Y-138145501D01*
X43492610Y-138134138D01*
X43500507Y-138122832D01*
X43509291Y-138111584D01*
X43516957Y-138102626D01*
X43525191Y-138093705D01*
X43533993Y-138084821D01*
X43492374Y-137896949D01*
X42823539Y-138043788D01*
G37*
G36*
X42823539Y-138748380D02*
G01*
X42823539Y-138985784D01*
X43689624Y-139290599D01*
X42823539Y-139599810D01*
X42823539Y-139837214D01*
X44042800Y-139400215D01*
X44042800Y-139177759D01*
X42823539Y-138748380D01*
G37*
G36*
X158715559Y-137817879D02*
G01*
X158415433Y-137817879D01*
X158415433Y-138023923D01*
X158715559Y-138023923D01*
X158715559Y-138332255D01*
X158921895Y-138332255D01*
X158921895Y-138023923D01*
X159222021Y-138023923D01*
X159222021Y-137817879D01*
X158921895Y-137817879D01*
X158921895Y-137508668D01*
X158715559Y-137508668D01*
X158715559Y-137817879D01*
G37*
G36*
X158190339Y-138704188D02*
G01*
X158190339Y-139272199D01*
X158396676Y-139272199D01*
X158396676Y-138876526D01*
X158615029Y-138826993D01*
X158611822Y-138838464D01*
X158608856Y-138851046D01*
X158606521Y-138863457D01*
X158605943Y-138867147D01*
X158604397Y-138879431D01*
X158603424Y-138891373D01*
X158603015Y-138904111D01*
X158603012Y-138905249D01*
X158603454Y-138925656D01*
X158604780Y-138945627D01*
X158606989Y-138965159D01*
X158610083Y-138984255D01*
X158614060Y-139002913D01*
X158618921Y-139021134D01*
X158624666Y-139038918D01*
X158631295Y-139056264D01*
X158638808Y-139073173D01*
X158647205Y-139089644D01*
X158656485Y-139105679D01*
X158666649Y-139121275D01*
X158677698Y-139136435D01*
X158689630Y-139151157D01*
X158702445Y-139165442D01*
X158716145Y-139179289D01*
X158730534Y-139192527D01*
X158745418Y-139204912D01*
X158760796Y-139216442D01*
X158776669Y-139227118D01*
X158793036Y-139236940D01*
X158809898Y-139245908D01*
X158827254Y-139254022D01*
X158845105Y-139261281D01*
X158863451Y-139267687D01*
X158882291Y-139273239D01*
X158901626Y-139277936D01*
X158921456Y-139281780D01*
X158941780Y-139284769D01*
X158962598Y-139286904D01*
X158983912Y-139288185D01*
X159005720Y-139288612D01*
X159027776Y-139288141D01*
X159049395Y-139286725D01*
X159070576Y-139284367D01*
X159091321Y-139281065D01*
X159111627Y-139276820D01*
X159131497Y-139271631D01*
X159150929Y-139265499D01*
X159169924Y-139258424D01*
X159188481Y-139250405D01*
X159206602Y-139241443D01*
X159224284Y-139231537D01*
X159241530Y-139220688D01*
X159258338Y-139208896D01*
X159274709Y-139196160D01*
X159290642Y-139182481D01*
X159306138Y-139167859D01*
X159320938Y-139152559D01*
X159334783Y-139136850D01*
X159347674Y-139120731D01*
X159359609Y-139104203D01*
X159370590Y-139087264D01*
X159380616Y-139069916D01*
X159389686Y-139052157D01*
X159397803Y-139033989D01*
X159404964Y-139015411D01*
X159411170Y-138996423D01*
X159416422Y-138977025D01*
X159420719Y-138957217D01*
X159424061Y-138937000D01*
X159426448Y-138916372D01*
X159427880Y-138895335D01*
X159428357Y-138873888D01*
X159428005Y-138854713D01*
X159426947Y-138835878D01*
X159425184Y-138817381D01*
X159422715Y-138799223D01*
X159419542Y-138781404D01*
X159415663Y-138763924D01*
X159411079Y-138746782D01*
X159405789Y-138729980D01*
X159399795Y-138713516D01*
X159393095Y-138697392D01*
X159385690Y-138681606D01*
X159377579Y-138666159D01*
X159368764Y-138651051D01*
X159359243Y-138636282D01*
X159349017Y-138621852D01*
X159338085Y-138607761D01*
X159326540Y-138594139D01*
X159314473Y-138581117D01*
X159301884Y-138568695D01*
X159288773Y-138556873D01*
X159275139Y-138545651D01*
X159260984Y-138535028D01*
X159246306Y-138525006D01*
X159231107Y-138515584D01*
X159215385Y-138506761D01*
X159199142Y-138498538D01*
X159182376Y-138490916D01*
X159165088Y-138483893D01*
X159147278Y-138477470D01*
X159128946Y-138471647D01*
X159110092Y-138466424D01*
X159090716Y-138461801D01*
X159090716Y-138704188D01*
X159104148Y-138711497D01*
X159116746Y-138719355D01*
X159128511Y-138727763D01*
X159139442Y-138736721D01*
X159149540Y-138746228D01*
X159158805Y-138756285D01*
X159167236Y-138766891D01*
X159174833Y-138778047D01*
X159181497Y-138789624D01*
X159187271Y-138801494D01*
X159192158Y-138813658D01*
X159196156Y-138826114D01*
X159199265Y-138838863D01*
X159201486Y-138851906D01*
X159202819Y-138865242D01*
X159203263Y-138878870D01*
X159202797Y-138893062D01*
X159201398Y-138906842D01*
X159199067Y-138920210D01*
X159195803Y-138933166D01*
X159191607Y-138945709D01*
X159186478Y-138957840D01*
X159180417Y-138969559D01*
X159173423Y-138980866D01*
X159165496Y-138991761D01*
X159156638Y-139002244D01*
X159150214Y-139009003D01*
X159139947Y-139018588D01*
X159129149Y-139027231D01*
X159117820Y-139034930D01*
X159105961Y-139041687D01*
X159093572Y-139047501D01*
X159080651Y-139052373D01*
X159067200Y-139056301D01*
X159053219Y-139059286D01*
X159038706Y-139061329D01*
X159023663Y-139062429D01*
X159013340Y-139062639D01*
X158998375Y-139062201D01*
X158983925Y-139060887D01*
X158969991Y-139058697D01*
X158956572Y-139055632D01*
X158943668Y-139051691D01*
X158931279Y-139046874D01*
X158919405Y-139041181D01*
X158908047Y-139034612D01*
X158897204Y-139027167D01*
X158886876Y-139018847D01*
X158880276Y-139012813D01*
X158870953Y-139003285D01*
X158862547Y-138993387D01*
X158855057Y-138983117D01*
X158848485Y-138972476D01*
X158842830Y-138961465D01*
X158838092Y-138950082D01*
X158834271Y-138938329D01*
X158831367Y-138926205D01*
X158829380Y-138913709D01*
X158828310Y-138900843D01*
X158828106Y-138892060D01*
X158828550Y-138880188D01*
X158829881Y-138868389D01*
X158832099Y-138856661D01*
X158835204Y-138845005D01*
X158839197Y-138833420D01*
X158844077Y-138821906D01*
X158846278Y-138817321D01*
X158852400Y-138805901D01*
X158859410Y-138794538D01*
X158867307Y-138783232D01*
X158876091Y-138771984D01*
X158883757Y-138763026D01*
X158891991Y-138754105D01*
X158900793Y-138745221D01*
X158859174Y-138557349D01*
X158190339Y-138704188D01*
G37*
G36*
X158190339Y-139408780D02*
G01*
X158190339Y-139646184D01*
X159056424Y-139950999D01*
X158190339Y-140260210D01*
X158190339Y-140497614D01*
X159409600Y-140060615D01*
X159409600Y-139838159D01*
X158190339Y-139408780D01*
G37*
G36*
X49173600Y-137138429D02*
G01*
X48648380Y-137138429D01*
X48648380Y-137160117D01*
X49173600Y-137432985D01*
X49173600Y-137685044D01*
X48622881Y-137398108D01*
X48617601Y-137412314D01*
X48612018Y-137426066D01*
X48606133Y-137439361D01*
X48599946Y-137452201D01*
X48593457Y-137464585D01*
X48586666Y-137476514D01*
X48579572Y-137487987D01*
X48572176Y-137499004D01*
X48564478Y-137509566D01*
X48556477Y-137519672D01*
X48548174Y-137529322D01*
X48539569Y-137538517D01*
X48530662Y-137547256D01*
X48521453Y-137555539D01*
X48511941Y-137563366D01*
X48502127Y-137570738D01*
X48492010Y-137577695D01*
X48481588Y-137584202D01*
X48470861Y-137590261D01*
X48459830Y-137595871D01*
X48448495Y-137601032D01*
X48436855Y-137605744D01*
X48424910Y-137610008D01*
X48412661Y-137613823D01*
X48400107Y-137617189D01*
X48387249Y-137620106D01*
X48374086Y-137622574D01*
X48360619Y-137624594D01*
X48346847Y-137626165D01*
X48332771Y-137627287D01*
X48318390Y-137627960D01*
X48303704Y-137628184D01*
X48289717Y-137627982D01*
X48275966Y-137627374D01*
X48262450Y-137626360D01*
X48249171Y-137624942D01*
X48236127Y-137623118D01*
X48223319Y-137620889D01*
X48210747Y-137618255D01*
X48198411Y-137615215D01*
X48186311Y-137611770D01*
X48174446Y-137607920D01*
X48162818Y-137603664D01*
X48151425Y-137599003D01*
X48140268Y-137593937D01*
X48129347Y-137588466D01*
X48118662Y-137582589D01*
X48108212Y-137576307D01*
X48103093Y-137573032D01*
X48093130Y-137566284D01*
X48083536Y-137559273D01*
X48069836Y-137548262D01*
X48056965Y-137536659D01*
X48044924Y-137524463D01*
X48033712Y-137511675D01*
X48023330Y-137498294D01*
X48013778Y-137484321D01*
X48005054Y-137469756D01*
X47997161Y-137454598D01*
X47990096Y-137438847D01*
X47985766Y-137427734D01*
X47981716Y-137415716D01*
X47977945Y-137402794D01*
X47974453Y-137388967D01*
X47971240Y-137374235D01*
X47968307Y-137358600D01*
X47965653Y-137342060D01*
X47963278Y-137324615D01*
X47961183Y-137306266D01*
X47959368Y-137287012D01*
X47957831Y-137266854D01*
X47956574Y-137245792D01*
X47955596Y-137223825D01*
X47954898Y-137200953D01*
X47954653Y-137189178D01*
X47954479Y-137177177D01*
X47954374Y-137164950D01*
X47954339Y-137152497D01*
X47954339Y-137138429D01*
X48179433Y-137138429D01*
X48179433Y-137202029D01*
X48179544Y-137218833D01*
X48179876Y-137234621D01*
X48180430Y-137249394D01*
X48181206Y-137263153D01*
X48182203Y-137275896D01*
X48183876Y-137291309D01*
X48185944Y-137304917D01*
X48188406Y-137316721D01*
X48192036Y-137328938D01*
X48193675Y-137333206D01*
X48199345Y-137345351D01*
X48206149Y-137356507D01*
X48214087Y-137366673D01*
X48223158Y-137375851D01*
X48233362Y-137384039D01*
X48238838Y-137387758D01*
X48250330Y-137394098D01*
X48262544Y-137398976D01*
X48275479Y-137402390D01*
X48289135Y-137404341D01*
X48301066Y-137404849D01*
X48305133Y-137404808D01*
X48316898Y-137404198D01*
X48331566Y-137402247D01*
X48345071Y-137398996D01*
X48357413Y-137394444D01*
X48368592Y-137388591D01*
X48378607Y-137381438D01*
X48387460Y-137372984D01*
X48395149Y-137363230D01*
X48396880Y-137360561D01*
X48403255Y-137348542D01*
X48408750Y-137334371D01*
X48412295Y-137322330D01*
X48415345Y-137309078D01*
X48417900Y-137294615D01*
X48419961Y-137278942D01*
X48421527Y-137262058D01*
X48422296Y-137250130D01*
X48422846Y-137237663D01*
X48423176Y-137224658D01*
X48423285Y-137211115D01*
X48423285Y-137138429D01*
X48179433Y-137138429D01*
X47954339Y-137138429D01*
X47954339Y-136907766D01*
X49173600Y-136907766D01*
X49173600Y-137138429D01*
G37*
G36*
X48273223Y-137760955D02*
G01*
X48273223Y-138022099D01*
X48518833Y-138199419D01*
X48273223Y-138375860D01*
X48273223Y-138634660D01*
X48697912Y-138328966D01*
X49173600Y-138672469D01*
X49173600Y-138411325D01*
X48879043Y-138198540D01*
X49173600Y-137986635D01*
X49173600Y-137728715D01*
X48699964Y-138069287D01*
X48273223Y-137760955D01*
G37*
D11*
X70269123Y-171838800D02*
X70126266Y-171886419D01*
X70126266Y-171886419D02*
X69888171Y-171886419D01*
X69888171Y-171886419D02*
X69792933Y-171838800D01*
X69792933Y-171838800D02*
X69745314Y-171791180D01*
X69745314Y-171791180D02*
X69697695Y-171695942D01*
X69697695Y-171695942D02*
X69697695Y-171600704D01*
X69697695Y-171600704D02*
X69745314Y-171505466D01*
X69745314Y-171505466D02*
X69792933Y-171457847D01*
X69792933Y-171457847D02*
X69888171Y-171410228D01*
X69888171Y-171410228D02*
X70078647Y-171362609D01*
X70078647Y-171362609D02*
X70173885Y-171314990D01*
X70173885Y-171314990D02*
X70221504Y-171267371D01*
X70221504Y-171267371D02*
X70269123Y-171172133D01*
X70269123Y-171172133D02*
X70269123Y-171076895D01*
X70269123Y-171076895D02*
X70221504Y-170981657D01*
X70221504Y-170981657D02*
X70173885Y-170934038D01*
X70173885Y-170934038D02*
X70078647Y-170886419D01*
X70078647Y-170886419D02*
X69840552Y-170886419D01*
X69840552Y-170886419D02*
X69697695Y-170934038D01*
X69269123Y-171791180D02*
X69221504Y-171838800D01*
X69221504Y-171838800D02*
X69269123Y-171886419D01*
X69269123Y-171886419D02*
X69316742Y-171838800D01*
X69316742Y-171838800D02*
X69269123Y-171791180D01*
X69269123Y-171791180D02*
X69269123Y-171886419D01*
X68792933Y-171886419D02*
X68792933Y-170886419D01*
X68792933Y-170886419D02*
X68221505Y-171886419D01*
X68221505Y-171886419D02*
X68221505Y-170886419D01*
X67554838Y-171410228D02*
X67554838Y-171886419D01*
X67888171Y-170886419D02*
X67554838Y-171410228D01*
X67554838Y-171410228D02*
X67221505Y-170886419D01*
X66888171Y-171886419D02*
X66888171Y-170886419D01*
X66888171Y-170886419D02*
X66650076Y-170886419D01*
X66650076Y-170886419D02*
X66507219Y-170934038D01*
X66507219Y-170934038D02*
X66411981Y-171029276D01*
X66411981Y-171029276D02*
X66364362Y-171124514D01*
X66364362Y-171124514D02*
X66316743Y-171314990D01*
X66316743Y-171314990D02*
X66316743Y-171457847D01*
X66316743Y-171457847D02*
X66364362Y-171648323D01*
X66364362Y-171648323D02*
X66411981Y-171743561D01*
X66411981Y-171743561D02*
X66507219Y-171838800D01*
X66507219Y-171838800D02*
X66650076Y-171886419D01*
X66650076Y-171886419D02*
X66888171Y-171886419D01*
X65888171Y-171362609D02*
X65554838Y-171362609D01*
X65411981Y-171886419D02*
X65888171Y-171886419D01*
X65888171Y-171886419D02*
X65888171Y-170886419D01*
X65888171Y-170886419D02*
X65411981Y-170886419D01*
X64411981Y-171886419D02*
X64745314Y-171410228D01*
X64983409Y-171886419D02*
X64983409Y-170886419D01*
X64983409Y-170886419D02*
X64602457Y-170886419D01*
X64602457Y-170886419D02*
X64507219Y-170934038D01*
X64507219Y-170934038D02*
X64459600Y-170981657D01*
X64459600Y-170981657D02*
X64411981Y-171076895D01*
X64411981Y-171076895D02*
X64411981Y-171219752D01*
X64411981Y-171219752D02*
X64459600Y-171314990D01*
X64459600Y-171314990D02*
X64507219Y-171362609D01*
X64507219Y-171362609D02*
X64602457Y-171410228D01*
X64602457Y-171410228D02*
X64983409Y-171410228D01*
X63983409Y-171362609D02*
X63650076Y-171362609D01*
X63507219Y-171886419D02*
X63983409Y-171886419D01*
X63983409Y-171886419D02*
X63983409Y-170886419D01*
X63983409Y-170886419D02*
X63507219Y-170886419D01*
X63078647Y-171886419D02*
X63078647Y-170886419D01*
X62507219Y-171886419D02*
X62935790Y-171314990D01*
X62507219Y-170886419D02*
X63078647Y-171457847D01*
X61364361Y-170981657D02*
X61316742Y-170934038D01*
X61316742Y-170934038D02*
X61221504Y-170886419D01*
X61221504Y-170886419D02*
X60983409Y-170886419D01*
X60983409Y-170886419D02*
X60888171Y-170934038D01*
X60888171Y-170934038D02*
X60840552Y-170981657D01*
X60840552Y-170981657D02*
X60792933Y-171076895D01*
X60792933Y-171076895D02*
X60792933Y-171172133D01*
X60792933Y-171172133D02*
X60840552Y-171314990D01*
X60840552Y-171314990D02*
X61411980Y-171886419D01*
X61411980Y-171886419D02*
X60792933Y-171886419D01*
X60173885Y-170886419D02*
X60078647Y-170886419D01*
X60078647Y-170886419D02*
X59983409Y-170934038D01*
X59983409Y-170934038D02*
X59935790Y-170981657D01*
X59935790Y-170981657D02*
X59888171Y-171076895D01*
X59888171Y-171076895D02*
X59840552Y-171267371D01*
X59840552Y-171267371D02*
X59840552Y-171505466D01*
X59840552Y-171505466D02*
X59888171Y-171695942D01*
X59888171Y-171695942D02*
X59935790Y-171791180D01*
X59935790Y-171791180D02*
X59983409Y-171838800D01*
X59983409Y-171838800D02*
X60078647Y-171886419D01*
X60078647Y-171886419D02*
X60173885Y-171886419D01*
X60173885Y-171886419D02*
X60269123Y-171838800D01*
X60269123Y-171838800D02*
X60316742Y-171791180D01*
X60316742Y-171791180D02*
X60364361Y-171695942D01*
X60364361Y-171695942D02*
X60411980Y-171505466D01*
X60411980Y-171505466D02*
X60411980Y-171267371D01*
X60411980Y-171267371D02*
X60364361Y-171076895D01*
X60364361Y-171076895D02*
X60316742Y-170981657D01*
X60316742Y-170981657D02*
X60269123Y-170934038D01*
X60269123Y-170934038D02*
X60173885Y-170886419D01*
X59459599Y-170981657D02*
X59411980Y-170934038D01*
X59411980Y-170934038D02*
X59316742Y-170886419D01*
X59316742Y-170886419D02*
X59078647Y-170886419D01*
X59078647Y-170886419D02*
X58983409Y-170934038D01*
X58983409Y-170934038D02*
X58935790Y-170981657D01*
X58935790Y-170981657D02*
X58888171Y-171076895D01*
X58888171Y-171076895D02*
X58888171Y-171172133D01*
X58888171Y-171172133D02*
X58935790Y-171314990D01*
X58935790Y-171314990D02*
X59507218Y-171886419D01*
X59507218Y-171886419D02*
X58888171Y-171886419D01*
X58554837Y-170886419D02*
X57935790Y-170886419D01*
X57935790Y-170886419D02*
X58269123Y-171267371D01*
X58269123Y-171267371D02*
X58126266Y-171267371D01*
X58126266Y-171267371D02*
X58031028Y-171314990D01*
X58031028Y-171314990D02*
X57983409Y-171362609D01*
X57983409Y-171362609D02*
X57935790Y-171457847D01*
X57935790Y-171457847D02*
X57935790Y-171695942D01*
X57935790Y-171695942D02*
X57983409Y-171791180D01*
X57983409Y-171791180D02*
X58031028Y-171838800D01*
X58031028Y-171838800D02*
X58126266Y-171886419D01*
X58126266Y-171886419D02*
X58411980Y-171886419D01*
X58411980Y-171886419D02*
X58507218Y-171838800D01*
X58507218Y-171838800D02*
X58554837Y-171791180D01*
X57507218Y-171886419D02*
X57507218Y-171219752D01*
X57507218Y-171410228D02*
X57459599Y-171314990D01*
X57459599Y-171314990D02*
X57411980Y-171267371D01*
X57411980Y-171267371D02*
X57316742Y-171219752D01*
X57316742Y-171219752D02*
X57221504Y-171219752D01*
D10*
G36*
X153191042Y-138289654D02*
G01*
X153346381Y-138119075D01*
X153330480Y-138107816D01*
X153315606Y-138096534D01*
X153301757Y-138085230D01*
X153288935Y-138073902D01*
X153277138Y-138062552D01*
X153266367Y-138051178D01*
X153256621Y-138039782D01*
X153247902Y-138028363D01*
X153240208Y-138016921D01*
X153233540Y-138005456D01*
X153227898Y-137993968D01*
X153223282Y-137982457D01*
X153219692Y-137970924D01*
X153217127Y-137959367D01*
X153215204Y-137941990D01*
X153215076Y-137936186D01*
X153215662Y-137922390D01*
X153217423Y-137909395D01*
X153220356Y-137897202D01*
X153224464Y-137885811D01*
X153229744Y-137875220D01*
X153236199Y-137865432D01*
X153239109Y-137861740D01*
X153248228Y-137851979D01*
X153257780Y-137844237D01*
X153269471Y-137837758D01*
X153281750Y-137834027D01*
X153292745Y-137833018D01*
X153305670Y-137833999D01*
X153318286Y-137836944D01*
X153330594Y-137841853D01*
X153340898Y-137847623D01*
X153349311Y-137853534D01*
X153359455Y-137862331D01*
X153368740Y-137871243D01*
X153379462Y-137882139D01*
X153391622Y-137895018D01*
X153400527Y-137904706D01*
X153410070Y-137915276D01*
X153420253Y-137926727D01*
X153431074Y-137939060D01*
X153442535Y-137952274D01*
X153454634Y-137966370D01*
X153467372Y-137981347D01*
X153480749Y-137997206D01*
X153494765Y-138013947D01*
X153502012Y-138022648D01*
X153515218Y-138038728D01*
X153527800Y-138053995D01*
X153539756Y-138068449D01*
X153551087Y-138082090D01*
X153561792Y-138094919D01*
X153571873Y-138106934D01*
X153581329Y-138118137D01*
X153590159Y-138128527D01*
X153598365Y-138138104D01*
X153609501Y-138150945D01*
X153619230Y-138161958D01*
X153627553Y-138171141D01*
X153636463Y-138180541D01*
X153638300Y-138182382D01*
X153646960Y-138190979D01*
X153655574Y-138199258D01*
X153668409Y-138211079D01*
X153681141Y-138222185D01*
X153693771Y-138232574D01*
X153706297Y-138242246D01*
X153718720Y-138251203D01*
X153731040Y-138259444D01*
X153743257Y-138266968D01*
X153755371Y-138273777D01*
X153767382Y-138279869D01*
X153771363Y-138281740D01*
X153783339Y-138286978D01*
X153795526Y-138291701D01*
X153807924Y-138295908D01*
X153820534Y-138299601D01*
X153833354Y-138302778D01*
X153846386Y-138305440D01*
X153859630Y-138307586D01*
X153873084Y-138309218D01*
X153886750Y-138310334D01*
X153900627Y-138310935D01*
X153909995Y-138311050D01*
X153928043Y-138310647D01*
X153945698Y-138309438D01*
X153962958Y-138307423D01*
X153979824Y-138304602D01*
X153996297Y-138300975D01*
X154012376Y-138296542D01*
X154028061Y-138291303D01*
X154043352Y-138285258D01*
X154058249Y-138278407D01*
X154072753Y-138270750D01*
X154086862Y-138262287D01*
X154100578Y-138253018D01*
X154113900Y-138242942D01*
X154126828Y-138232061D01*
X154139362Y-138220374D01*
X154151503Y-138207881D01*
X154163037Y-138194776D01*
X154173828Y-138181178D01*
X154183874Y-138167088D01*
X154193177Y-138152505D01*
X154201735Y-138137431D01*
X154209548Y-138121864D01*
X154216618Y-138105804D01*
X154222944Y-138089253D01*
X154228525Y-138072209D01*
X154233362Y-138054672D01*
X154237455Y-138036644D01*
X154240804Y-138018123D01*
X154243409Y-137999110D01*
X154245269Y-137979604D01*
X154246385Y-137959607D01*
X154246757Y-137939117D01*
X154246501Y-137923089D01*
X154245732Y-137907321D01*
X154244449Y-137891811D01*
X154242654Y-137876560D01*
X154240346Y-137861568D01*
X154237525Y-137846834D01*
X154234191Y-137832359D01*
X154230344Y-137818143D01*
X154225984Y-137804186D01*
X154221112Y-137790487D01*
X154215726Y-137777047D01*
X154209828Y-137763866D01*
X154203416Y-137750944D01*
X154196492Y-137738280D01*
X154189055Y-137725875D01*
X154181105Y-137713729D01*
X154172569Y-137701821D01*
X154163446Y-137690131D01*
X154153737Y-137678658D01*
X154143443Y-137667403D01*
X154132562Y-137656365D01*
X154121094Y-137645544D01*
X154109041Y-137634942D01*
X154096401Y-137624556D01*
X154083176Y-137614388D01*
X154069364Y-137604438D01*
X154054966Y-137594706D01*
X154039981Y-137585190D01*
X154024411Y-137575893D01*
X154008254Y-137566813D01*
X153991511Y-137557950D01*
X153974182Y-137549305D01*
X153852842Y-137743038D01*
X153863229Y-137748523D01*
X153883013Y-137759649D01*
X153901477Y-137770984D01*
X153918623Y-137782526D01*
X153934450Y-137794278D01*
X153948958Y-137806237D01*
X153962147Y-137818405D01*
X153974017Y-137830781D01*
X153984569Y-137843366D01*
X153993801Y-137856159D01*
X154001715Y-137869160D01*
X154008309Y-137882370D01*
X154013585Y-137895788D01*
X154017542Y-137909414D01*
X154020179Y-137923249D01*
X154021498Y-137937293D01*
X154021663Y-137944392D01*
X154021136Y-137958900D01*
X154019557Y-137972822D01*
X154016923Y-137986158D01*
X154013237Y-137998907D01*
X154008497Y-138011071D01*
X154002704Y-138022648D01*
X153995857Y-138033639D01*
X153987958Y-138044043D01*
X153979293Y-138053523D01*
X153970299Y-138061739D01*
X153958592Y-138070231D01*
X153946371Y-138076748D01*
X153933634Y-138081291D01*
X153920382Y-138083858D01*
X153909409Y-138084490D01*
X153896861Y-138083746D01*
X153884313Y-138081513D01*
X153871765Y-138077792D01*
X153859217Y-138072583D01*
X153846669Y-138065886D01*
X153836631Y-138059456D01*
X153829102Y-138054008D01*
X153818322Y-138045239D01*
X153809359Y-138037153D01*
X153799644Y-138027773D01*
X153789177Y-138017101D01*
X153777958Y-138005135D01*
X153770060Y-137996440D01*
X153761828Y-137987170D01*
X153753262Y-137977325D01*
X153744362Y-137966905D01*
X153735127Y-137955911D01*
X153725558Y-137944342D01*
X153715655Y-137932198D01*
X153705418Y-137919479D01*
X153695614Y-137907251D01*
X153685952Y-137895297D01*
X153676431Y-137883616D01*
X153667050Y-137872209D01*
X153657810Y-137861076D01*
X153648711Y-137850216D01*
X153639753Y-137839630D01*
X153630936Y-137829317D01*
X153622259Y-137819278D01*
X153613723Y-137809513D01*
X153605329Y-137800021D01*
X153597074Y-137790803D01*
X153588961Y-137781859D01*
X153580989Y-137773188D01*
X153565466Y-137756667D01*
X153550507Y-137741241D01*
X153536111Y-137726909D01*
X153522279Y-137713672D01*
X153509010Y-137701529D01*
X153496304Y-137690481D01*
X153484161Y-137680528D01*
X153472582Y-137671668D01*
X153461565Y-137663904D01*
X153450832Y-137656912D01*
X153440101Y-137650371D01*
X153429372Y-137644282D01*
X153418646Y-137638643D01*
X153407922Y-137633455D01*
X153391840Y-137626520D01*
X153375763Y-137620600D01*
X153359691Y-137615694D01*
X153343625Y-137611803D01*
X153327563Y-137608928D01*
X153311507Y-137607067D01*
X153295456Y-137606221D01*
X153290107Y-137606165D01*
X153274820Y-137606539D01*
X153259809Y-137607662D01*
X153245072Y-137609534D01*
X153230609Y-137612155D01*
X153216422Y-137615524D01*
X153202509Y-137619642D01*
X153188871Y-137624509D01*
X153175508Y-137630125D01*
X153162420Y-137636489D01*
X153149606Y-137643603D01*
X153137067Y-137651465D01*
X153124803Y-137660075D01*
X153112814Y-137669435D01*
X153101100Y-137679543D01*
X153089660Y-137690400D01*
X153078495Y-137702006D01*
X153067777Y-137714198D01*
X153057750Y-137726740D01*
X153048414Y-137739632D01*
X153039770Y-137752875D01*
X153031818Y-137766469D01*
X153024557Y-137780412D01*
X153017988Y-137794706D01*
X153012110Y-137809350D01*
X153006923Y-137824345D01*
X153002429Y-137839690D01*
X152998625Y-137855385D01*
X152995513Y-137871431D01*
X152993093Y-137887827D01*
X152991364Y-137904573D01*
X152990327Y-137921670D01*
X152989981Y-137939117D01*
X152990363Y-137956075D01*
X152991506Y-137972879D01*
X152993413Y-137989529D01*
X152996081Y-138006024D01*
X152999513Y-138022364D01*
X153003706Y-138038550D01*
X153008662Y-138054581D01*
X153014381Y-138070458D01*
X153020862Y-138086180D01*
X153028106Y-138101748D01*
X153033359Y-138112041D01*
X153039024Y-138122351D01*
X153045247Y-138132768D01*
X153052030Y-138143289D01*
X153059371Y-138153916D01*
X153067270Y-138164648D01*
X153075729Y-138175486D01*
X153084746Y-138186429D01*
X153094322Y-138197477D01*
X153104456Y-138208630D01*
X153115150Y-138219889D01*
X153126402Y-138231253D01*
X153138212Y-138242723D01*
X153150582Y-138254297D01*
X153163510Y-138265978D01*
X153176997Y-138277763D01*
X153191042Y-138289654D01*
G37*
G36*
X153008739Y-138435320D02*
G01*
X153008739Y-138662759D01*
X153786897Y-138837442D01*
X153008739Y-139054329D01*
X153008739Y-139246304D01*
X153786897Y-139465537D01*
X153008739Y-139638754D01*
X153008739Y-139866193D01*
X154228000Y-139593325D01*
X154228000Y-139371747D01*
X153439877Y-139148119D01*
X154228000Y-138928886D01*
X154228000Y-138709654D01*
X153008739Y-138435320D01*
G37*
G36*
X154228000Y-140317260D02*
G01*
X154227970Y-140331869D01*
X154227883Y-140346204D01*
X154227737Y-140360265D01*
X154227532Y-140374051D01*
X154227270Y-140387564D01*
X154226948Y-140400802D01*
X154226569Y-140413766D01*
X154226131Y-140426455D01*
X154225635Y-140438871D01*
X154225080Y-140451012D01*
X154223795Y-140474472D01*
X154222277Y-140496835D01*
X154220526Y-140518101D01*
X154218540Y-140538271D01*
X154216322Y-140557343D01*
X154213869Y-140575319D01*
X154211183Y-140592198D01*
X154208264Y-140607981D01*
X154205111Y-140622666D01*
X154201724Y-140636255D01*
X154198104Y-140648747D01*
X154194181Y-140660638D01*
X154189884Y-140672423D01*
X154185214Y-140684103D01*
X154180171Y-140695678D01*
X154174754Y-140707147D01*
X154168964Y-140718512D01*
X154162802Y-140729770D01*
X154156265Y-140740924D01*
X154149356Y-140751972D01*
X154142073Y-140762915D01*
X154134417Y-140773753D01*
X154126388Y-140784485D01*
X154117986Y-140795112D01*
X154109210Y-140805633D01*
X154100062Y-140816049D01*
X154090540Y-140826360D01*
X154080637Y-140836480D01*
X154070422Y-140846322D01*
X154059892Y-140855888D01*
X154049049Y-140865176D01*
X154037892Y-140874188D01*
X154026421Y-140882922D01*
X154014637Y-140891379D01*
X154002539Y-140899560D01*
X153990127Y-140907463D01*
X153977402Y-140915089D01*
X153964363Y-140922438D01*
X153951010Y-140929510D01*
X153937343Y-140936305D01*
X153923363Y-140942823D01*
X153909069Y-140949064D01*
X153894461Y-140955027D01*
X153879608Y-140960670D01*
X153864575Y-140965950D01*
X153849364Y-140970865D01*
X153833975Y-140975415D01*
X153818407Y-140979602D01*
X153802660Y-140983425D01*
X153786734Y-140986884D01*
X153770630Y-140989978D01*
X153754348Y-140992709D01*
X153737887Y-140995075D01*
X153721247Y-140997078D01*
X153704428Y-140998716D01*
X153687431Y-140999990D01*
X153670256Y-141000901D01*
X153652901Y-141001447D01*
X153635369Y-141001629D01*
X153623034Y-141001548D01*
X153610797Y-141001304D01*
X153598657Y-141000897D01*
X153586615Y-141000328D01*
X153574670Y-140999597D01*
X153562822Y-140998702D01*
X153539418Y-140996426D01*
X153516403Y-140993500D01*
X153493778Y-140989923D01*
X153471542Y-140985697D01*
X153449695Y-140980819D01*
X153428238Y-140975292D01*
X153407170Y-140969114D01*
X153386491Y-140962286D01*
X153366201Y-140954807D01*
X153346300Y-140946679D01*
X153326789Y-140937900D01*
X153307667Y-140928470D01*
X153288935Y-140918391D01*
X153270718Y-140907809D01*
X153253145Y-140896872D01*
X153236216Y-140885579D01*
X153219930Y-140873933D01*
X153204287Y-140861931D01*
X153189288Y-140849574D01*
X153174932Y-140836862D01*
X153161220Y-140823796D01*
X153148151Y-140810374D01*
X153135726Y-140796598D01*
X153123944Y-140782466D01*
X153112805Y-140767980D01*
X153102310Y-140753139D01*
X153092458Y-140737943D01*
X153083250Y-140722392D01*
X153074685Y-140706486D01*
X153070628Y-140698311D01*
X153062900Y-140681165D01*
X153055687Y-140662957D01*
X153048989Y-140643686D01*
X153042807Y-140623353D01*
X153037140Y-140601957D01*
X153031988Y-140579499D01*
X153029605Y-140567872D01*
X153027351Y-140555979D01*
X153025226Y-140543820D01*
X153023229Y-140531396D01*
X153021362Y-140518706D01*
X153019623Y-140505750D01*
X153018013Y-140492529D01*
X153016532Y-140479042D01*
X153015179Y-140465290D01*
X153013956Y-140451272D01*
X153012861Y-140436988D01*
X153011895Y-140422439D01*
X153011058Y-140407624D01*
X153010349Y-140392544D01*
X153009770Y-140377198D01*
X153009319Y-140361586D01*
X153008997Y-140345709D01*
X153008804Y-140329566D01*
X153008739Y-140313157D01*
X153008739Y-140269486D01*
X153233833Y-140269486D01*
X153233833Y-140347742D01*
X153233927Y-140361090D01*
X153234209Y-140374207D01*
X153234678Y-140387093D01*
X153235336Y-140399747D01*
X153236180Y-140412170D01*
X153237213Y-140424362D01*
X153238434Y-140436323D01*
X153239842Y-140448052D01*
X153243221Y-140470817D01*
X153247352Y-140492657D01*
X153252234Y-140513572D01*
X153257867Y-140533562D01*
X153264251Y-140552626D01*
X153271386Y-140570766D01*
X153279272Y-140587981D01*
X153287909Y-140604270D01*
X153297297Y-140619635D01*
X153307436Y-140634074D01*
X153318326Y-140647588D01*
X153329967Y-140660177D01*
X153343715Y-140673274D01*
X153358141Y-140685525D01*
X153373244Y-140696932D01*
X153389025Y-140707493D01*
X153405484Y-140717210D01*
X153422621Y-140726082D01*
X153440435Y-140734108D01*
X153458928Y-140741290D01*
X153478098Y-140747627D01*
X153497945Y-140753119D01*
X153518471Y-140757766D01*
X153539674Y-140761569D01*
X153561555Y-140764526D01*
X153584114Y-140766638D01*
X153607351Y-140767906D01*
X153619223Y-140768222D01*
X153631265Y-140768328D01*
X153646864Y-140768151D01*
X153662154Y-140767618D01*
X153677135Y-140766731D01*
X153691807Y-140765489D01*
X153706170Y-140763892D01*
X153720223Y-140761940D01*
X153733968Y-140759633D01*
X153747403Y-140756971D01*
X153760529Y-140753954D01*
X153773346Y-140750582D01*
X153785854Y-140746856D01*
X153798053Y-140742774D01*
X153809942Y-140738338D01*
X153821523Y-140733546D01*
X153832794Y-140728400D01*
X153843757Y-140722899D01*
X153854334Y-140717154D01*
X153869475Y-140708150D01*
X153883745Y-140698682D01*
X153897145Y-140688751D01*
X153909674Y-140678356D01*
X153921332Y-140667497D01*
X153932119Y-140656175D01*
X153942036Y-140644389D01*
X153951082Y-140632139D01*
X153959257Y-140619426D01*
X153966562Y-140606248D01*
X153973057Y-140592129D01*
X153978913Y-140576480D01*
X153982462Y-140565197D01*
X153985727Y-140553234D01*
X153988709Y-140540591D01*
X153991406Y-140527268D01*
X153993819Y-140513265D01*
X153995949Y-140498582D01*
X153997795Y-140483219D01*
X153999356Y-140467175D01*
X154000634Y-140450452D01*
X154001628Y-140433049D01*
X154002337Y-140414965D01*
X154002763Y-140396202D01*
X154002905Y-140376758D01*
X154002905Y-140269486D01*
X153233833Y-140269486D01*
X153008739Y-140269486D01*
X153008739Y-140039410D01*
X154228000Y-140039410D01*
X154228000Y-140317260D01*
G37*
G36*
X153008739Y-141198000D02*
G01*
X153008739Y-141427198D01*
X154228000Y-141427198D01*
X154228000Y-141198000D01*
X153008739Y-141198000D01*
G37*
G36*
X153634018Y-141625504D02*
G01*
X153649824Y-141626033D01*
X153665494Y-141626914D01*
X153681027Y-141628148D01*
X153696424Y-141629735D01*
X153711685Y-141631675D01*
X153726809Y-141633967D01*
X153741797Y-141636611D01*
X153756650Y-141639609D01*
X153771365Y-141642959D01*
X153785945Y-141646661D01*
X153800388Y-141650716D01*
X153814695Y-141655124D01*
X153828866Y-141659885D01*
X153842901Y-141664998D01*
X153856799Y-141670463D01*
X153870561Y-141676282D01*
X153884187Y-141682453D01*
X153897677Y-141688976D01*
X153911030Y-141695852D01*
X153924247Y-141703081D01*
X153937328Y-141710663D01*
X153950273Y-141718597D01*
X153963081Y-141726884D01*
X153975754Y-141735523D01*
X153988290Y-141744515D01*
X154000689Y-141753859D01*
X154012953Y-141763557D01*
X154025080Y-141773606D01*
X154037071Y-141784009D01*
X154048926Y-141794764D01*
X154060644Y-141805872D01*
X154072095Y-141817246D01*
X154083181Y-141828800D01*
X154093905Y-141840535D01*
X154104265Y-141852450D01*
X154114261Y-141864546D01*
X154123894Y-141876822D01*
X154133163Y-141889278D01*
X154142069Y-141901914D01*
X154150611Y-141914731D01*
X154158790Y-141927728D01*
X154166605Y-141940905D01*
X154174057Y-141954263D01*
X154181145Y-141967801D01*
X154187870Y-141981519D01*
X154194231Y-141995418D01*
X154200229Y-142009497D01*
X154205863Y-142023756D01*
X154211134Y-142038196D01*
X154216041Y-142052816D01*
X154220585Y-142067616D01*
X154224765Y-142082597D01*
X154228582Y-142097758D01*
X154232036Y-142113099D01*
X154235125Y-142128620D01*
X154237852Y-142144322D01*
X154240214Y-142160204D01*
X154242214Y-142176267D01*
X154243849Y-142192510D01*
X154245122Y-142208933D01*
X154246030Y-142225536D01*
X154246576Y-142242320D01*
X154246757Y-142259284D01*
X154246580Y-142275493D01*
X154246049Y-142291549D01*
X154245163Y-142307454D01*
X154243923Y-142323205D01*
X154242328Y-142338805D01*
X154240379Y-142354253D01*
X154238076Y-142369548D01*
X154235418Y-142384691D01*
X154232406Y-142399681D01*
X154229040Y-142414519D01*
X154225320Y-142429206D01*
X154221245Y-142443739D01*
X154216815Y-142458121D01*
X154212032Y-142472350D01*
X154206894Y-142486427D01*
X154201401Y-142500352D01*
X154195555Y-142514124D01*
X154189354Y-142527744D01*
X154182798Y-142541212D01*
X154175889Y-142554528D01*
X154168625Y-142567691D01*
X154161006Y-142580702D01*
X154153034Y-142593561D01*
X154144707Y-142606268D01*
X154136025Y-142618822D01*
X154126989Y-142631224D01*
X154117599Y-142643474D01*
X154107855Y-142655571D01*
X154097756Y-142667516D01*
X154087303Y-142679309D01*
X154076496Y-142690950D01*
X154065334Y-142702438D01*
X154053916Y-142713672D01*
X154042341Y-142724550D01*
X154030608Y-142735070D01*
X154018718Y-142745234D01*
X154006671Y-142755042D01*
X153994466Y-142764492D01*
X153982104Y-142773587D01*
X153969584Y-142782324D01*
X153956907Y-142790705D01*
X153944073Y-142798729D01*
X153931081Y-142806397D01*
X153917932Y-142813708D01*
X153904625Y-142820662D01*
X153891161Y-142827260D01*
X153877539Y-142833501D01*
X153863760Y-142839385D01*
X153849824Y-142844913D01*
X153835730Y-142850084D01*
X153821479Y-142854899D01*
X153807070Y-142859357D01*
X153792504Y-142863458D01*
X153777780Y-142867203D01*
X153762899Y-142870591D01*
X153747861Y-142873622D01*
X153732665Y-142876297D01*
X153717312Y-142878615D01*
X153701801Y-142880576D01*
X153686133Y-142882181D01*
X153670307Y-142883429D01*
X153654325Y-142884321D01*
X153638184Y-142884856D01*
X153621886Y-142885034D01*
X153605442Y-142884853D01*
X153589155Y-142884311D01*
X153573026Y-142883406D01*
X153557054Y-142882140D01*
X153541239Y-142880512D01*
X153525582Y-142878522D01*
X153510082Y-142876171D01*
X153494740Y-142873457D01*
X153479555Y-142870382D01*
X153464527Y-142866945D01*
X153449657Y-142863146D01*
X153434945Y-142858986D01*
X153420389Y-142854463D01*
X153405991Y-142849579D01*
X153391751Y-142844333D01*
X153377668Y-142838726D01*
X153363742Y-142832756D01*
X153349974Y-142826425D01*
X153336364Y-142819732D01*
X153322910Y-142812677D01*
X153309614Y-142805261D01*
X153296476Y-142797482D01*
X153283495Y-142789342D01*
X153270671Y-142780840D01*
X153258005Y-142771977D01*
X153245496Y-142762751D01*
X153233145Y-142753164D01*
X153220951Y-142743215D01*
X153208915Y-142732904D01*
X153197036Y-142722231D01*
X153185314Y-142711197D01*
X153173750Y-142699800D01*
X153162444Y-142688171D01*
X153151496Y-142676400D01*
X153140908Y-142664488D01*
X153130679Y-142652434D01*
X153120809Y-142640239D01*
X153111297Y-142627903D01*
X153102145Y-142615425D01*
X153093351Y-142602806D01*
X153084916Y-142590045D01*
X153076841Y-142577143D01*
X153069124Y-142564099D01*
X153061766Y-142550915D01*
X153054767Y-142537588D01*
X153048127Y-142524121D01*
X153041846Y-142510512D01*
X153035923Y-142496761D01*
X153030360Y-142482870D01*
X153025156Y-142468836D01*
X153020310Y-142454662D01*
X153015824Y-142440346D01*
X153011696Y-142425889D01*
X153007927Y-142411290D01*
X153004518Y-142396550D01*
X153001467Y-142381668D01*
X152998775Y-142366645D01*
X152996442Y-142351481D01*
X152994468Y-142336175D01*
X152992853Y-142320728D01*
X152991597Y-142305139D01*
X152990699Y-142289410D01*
X152990161Y-142273538D01*
X152989981Y-142257526D01*
X152990018Y-142255181D01*
X153215076Y-142255181D01*
X153215535Y-142275793D01*
X153216912Y-142296012D01*
X153219207Y-142315837D01*
X153222421Y-142335268D01*
X153226553Y-142354305D01*
X153231603Y-142372949D01*
X153237571Y-142391198D01*
X153244458Y-142409054D01*
X153252263Y-142426516D01*
X153260986Y-142443584D01*
X153270627Y-142460258D01*
X153281186Y-142476538D01*
X153292664Y-142492425D01*
X153305059Y-142507917D01*
X153318373Y-142523016D01*
X153332605Y-142537721D01*
X153347464Y-142551811D01*
X153362730Y-142564992D01*
X153378403Y-142577264D01*
X153394484Y-142588627D01*
X153410973Y-142599081D01*
X153427869Y-142608626D01*
X153445173Y-142617262D01*
X153462884Y-142624989D01*
X153481003Y-142631807D01*
X153499530Y-142637715D01*
X153518464Y-142642715D01*
X153537806Y-142646806D01*
X153557555Y-142649988D01*
X153577712Y-142652260D01*
X153598277Y-142653624D01*
X153619249Y-142654078D01*
X153640288Y-142653627D01*
X153660909Y-142652274D01*
X153681110Y-142650018D01*
X153700893Y-142646861D01*
X153720256Y-142642801D01*
X153739201Y-142637839D01*
X153757726Y-142631975D01*
X153775833Y-142625209D01*
X153793520Y-142617540D01*
X153810788Y-142608970D01*
X153827638Y-142599497D01*
X153844068Y-142589122D01*
X153860079Y-142577845D01*
X153875672Y-142565665D01*
X153890845Y-142552584D01*
X153905599Y-142538600D01*
X153919654Y-142523977D01*
X153932801Y-142508975D01*
X153945043Y-142493596D01*
X153956377Y-142477839D01*
X153966805Y-142461704D01*
X153976326Y-142445191D01*
X153984940Y-142428301D01*
X153992647Y-142411032D01*
X153999448Y-142393386D01*
X154005342Y-142375362D01*
X154010329Y-142356960D01*
X154014409Y-142338181D01*
X154017583Y-142319023D01*
X154019850Y-142299488D01*
X154021210Y-142279575D01*
X154021663Y-142259284D01*
X154021314Y-142241277D01*
X154020266Y-142223527D01*
X154018520Y-142206033D01*
X154016076Y-142188796D01*
X154012933Y-142171815D01*
X154009092Y-142155090D01*
X154004553Y-142138622D01*
X153999315Y-142122410D01*
X153993379Y-142106455D01*
X153986744Y-142090757D01*
X153979411Y-142075314D01*
X153971380Y-142060128D01*
X153962650Y-142045199D01*
X153953222Y-142030526D01*
X153943095Y-142016110D01*
X153932270Y-142001950D01*
X153917624Y-141984488D01*
X153902334Y-141968153D01*
X153886400Y-141952944D01*
X153869823Y-141938862D01*
X153852603Y-141925906D01*
X153834740Y-141914077D01*
X153816232Y-141903375D01*
X153797082Y-141893799D01*
X153777288Y-141885350D01*
X153756850Y-141878027D01*
X153735770Y-141871831D01*
X153714045Y-141866761D01*
X153691678Y-141862818D01*
X153668667Y-141860002D01*
X153656920Y-141859016D01*
X153645012Y-141858312D01*
X153632943Y-141857890D01*
X153620714Y-141857749D01*
X153598901Y-141858196D01*
X153577570Y-141859539D01*
X153556723Y-141861778D01*
X153536359Y-141864911D01*
X153516478Y-141868940D01*
X153497080Y-141873864D01*
X153478165Y-141879684D01*
X153459734Y-141886399D01*
X153441785Y-141894009D01*
X153424320Y-141902514D01*
X153407338Y-141911915D01*
X153390839Y-141922211D01*
X153374823Y-141933402D01*
X153359290Y-141945489D01*
X153344241Y-141958470D01*
X153329674Y-141972348D01*
X153315797Y-141986882D01*
X153302815Y-142001835D01*
X153290729Y-142017208D01*
X153279537Y-142032999D01*
X153269241Y-142049210D01*
X153259841Y-142065839D01*
X153251335Y-142082888D01*
X153243725Y-142100355D01*
X153237010Y-142118242D01*
X153231191Y-142136547D01*
X153226267Y-142155272D01*
X153222238Y-142174416D01*
X153219104Y-142193979D01*
X153216866Y-142213960D01*
X153215523Y-142234361D01*
X153215076Y-142255181D01*
X152990018Y-142255181D01*
X152990311Y-142236401D01*
X152991300Y-142215453D01*
X152992949Y-142194681D01*
X152995257Y-142174086D01*
X152998225Y-142153667D01*
X153001852Y-142133424D01*
X153006138Y-142113358D01*
X153011084Y-142093468D01*
X153016689Y-142073754D01*
X153022954Y-142054216D01*
X153029878Y-142034855D01*
X153037462Y-142015670D01*
X153045705Y-141996662D01*
X153054608Y-141977829D01*
X153064170Y-141959173D01*
X153074392Y-141940694D01*
X153085140Y-141922548D01*
X153096355Y-141904895D01*
X153108038Y-141887735D01*
X153120187Y-141871066D01*
X153132804Y-141854890D01*
X153145888Y-141839206D01*
X153159439Y-141824015D01*
X153173457Y-141809315D01*
X153187942Y-141795109D01*
X153202894Y-141781394D01*
X153218313Y-141768172D01*
X153234200Y-141755442D01*
X153250553Y-141743204D01*
X153267374Y-141731458D01*
X153284662Y-141720205D01*
X153302417Y-141709445D01*
X153320514Y-141699259D01*
X153338829Y-141689730D01*
X153357361Y-141680858D01*
X153376111Y-141672643D01*
X153395078Y-141665086D01*
X153414263Y-141658186D01*
X153433666Y-141651943D01*
X153453286Y-141646357D01*
X153473123Y-141641428D01*
X153493178Y-141637156D01*
X153513451Y-141633542D01*
X153533941Y-141630585D01*
X153554648Y-141628285D01*
X153575573Y-141626642D01*
X153596716Y-141625656D01*
X153618076Y-141625327D01*
X153634018Y-141625504D01*
G37*
G36*
X50701555Y-138011548D02*
G01*
X50860410Y-137849175D01*
X50850583Y-137839490D01*
X50841067Y-137829705D01*
X50831864Y-137819821D01*
X50822973Y-137809837D01*
X50814393Y-137799753D01*
X50806126Y-137789570D01*
X50798170Y-137779287D01*
X50790526Y-137768905D01*
X50783195Y-137758423D01*
X50776175Y-137747841D01*
X50769468Y-137737160D01*
X50763072Y-137726379D01*
X50756988Y-137715499D01*
X50751217Y-137704519D01*
X50745757Y-137693439D01*
X50740609Y-137682260D01*
X50735774Y-137670981D01*
X50731250Y-137659602D01*
X50727038Y-137648124D01*
X50723138Y-137636547D01*
X50719550Y-137624869D01*
X50716275Y-137613092D01*
X50713311Y-137601216D01*
X50710659Y-137589240D01*
X50708319Y-137577164D01*
X50706291Y-137564989D01*
X50704575Y-137552714D01*
X50703171Y-137540339D01*
X50702079Y-137527865D01*
X50701300Y-137515291D01*
X50700832Y-137502618D01*
X50700676Y-137489845D01*
X50701128Y-137467688D01*
X50702484Y-137445987D01*
X50704746Y-137424741D01*
X50707911Y-137403951D01*
X50711981Y-137383617D01*
X50716956Y-137363738D01*
X50722835Y-137344315D01*
X50729618Y-137325348D01*
X50737306Y-137306836D01*
X50745899Y-137288780D01*
X50755396Y-137271179D01*
X50765797Y-137254035D01*
X50777103Y-137237346D01*
X50789313Y-137221112D01*
X50802428Y-137205335D01*
X50816447Y-137190013D01*
X50831113Y-137175390D01*
X50846168Y-137161711D01*
X50861613Y-137148975D01*
X50877446Y-137137183D01*
X50893669Y-137126334D01*
X50910282Y-137116428D01*
X50927283Y-137107466D01*
X50944674Y-137099447D01*
X50962454Y-137092372D01*
X50980624Y-137086240D01*
X50999182Y-137081051D01*
X51018130Y-137076806D01*
X51037467Y-137073504D01*
X51057194Y-137071146D01*
X51077309Y-137069731D01*
X51097814Y-137069259D01*
X51119042Y-137069748D01*
X51139859Y-137071214D01*
X51160267Y-137073659D01*
X51180265Y-137077081D01*
X51199853Y-137081481D01*
X51219031Y-137086858D01*
X51237799Y-137093213D01*
X51256157Y-137100546D01*
X51274105Y-137108857D01*
X51291644Y-137118146D01*
X51308773Y-137128412D01*
X51325492Y-137139656D01*
X51341800Y-137151878D01*
X51357700Y-137165077D01*
X51373189Y-137179254D01*
X51388268Y-137194409D01*
X51402678Y-137210317D01*
X51416158Y-137226681D01*
X51428708Y-137243501D01*
X51440328Y-137260776D01*
X51451019Y-137278507D01*
X51460781Y-137296693D01*
X51469612Y-137315336D01*
X51477514Y-137334433D01*
X51484487Y-137353987D01*
X51490529Y-137373996D01*
X51495643Y-137394461D01*
X51499826Y-137415382D01*
X51503080Y-137436758D01*
X51505404Y-137458590D01*
X51506798Y-137480877D01*
X51507263Y-137503620D01*
X51507086Y-137518420D01*
X51506553Y-137532925D01*
X51505666Y-137547134D01*
X51504424Y-137561048D01*
X51502827Y-137574666D01*
X51500875Y-137587990D01*
X51498568Y-137601017D01*
X51495906Y-137613750D01*
X51492889Y-137626186D01*
X51489517Y-137638328D01*
X51485791Y-137650174D01*
X51481709Y-137661725D01*
X51477273Y-137672980D01*
X51472481Y-137683940D01*
X51467335Y-137694605D01*
X51461834Y-137704974D01*
X51452865Y-137720083D01*
X51442995Y-137734636D01*
X51435914Y-137744029D01*
X51428432Y-137753174D01*
X51420549Y-137762072D01*
X51412266Y-137770723D01*
X51403582Y-137779126D01*
X51394497Y-137787283D01*
X51385012Y-137795191D01*
X51375126Y-137802853D01*
X51364839Y-137810267D01*
X51354151Y-137817434D01*
X51343063Y-137824354D01*
X51331574Y-137831026D01*
X51319685Y-137837452D01*
X51319685Y-137486328D01*
X51094590Y-137486328D01*
X51094590Y-138096251D01*
X51145002Y-138098010D01*
X51164612Y-138097688D01*
X51184093Y-138096723D01*
X51203446Y-138095114D01*
X51222671Y-138092862D01*
X51241768Y-138089967D01*
X51260737Y-138086428D01*
X51279577Y-138082246D01*
X51298289Y-138077420D01*
X51316873Y-138071951D01*
X51335328Y-138065838D01*
X51353656Y-138059082D01*
X51371855Y-138051683D01*
X51389926Y-138043640D01*
X51407869Y-138034954D01*
X51425683Y-138025624D01*
X51443369Y-138015651D01*
X51460695Y-138005165D01*
X51477501Y-137994297D01*
X51493787Y-137983046D01*
X51509553Y-137971413D01*
X51524799Y-137959397D01*
X51539526Y-137946999D01*
X51553733Y-137934219D01*
X51567420Y-137921056D01*
X51580588Y-137907511D01*
X51593235Y-137893583D01*
X51605363Y-137879273D01*
X51616971Y-137864581D01*
X51628059Y-137849506D01*
X51638628Y-137834049D01*
X51648676Y-137818209D01*
X51658205Y-137801987D01*
X51667185Y-137785434D01*
X51675585Y-137768525D01*
X51683405Y-137751261D01*
X51690647Y-137733642D01*
X51697309Y-137715669D01*
X51703392Y-137697340D01*
X51708895Y-137678657D01*
X51713819Y-137659618D01*
X51718164Y-137640225D01*
X51721930Y-137620477D01*
X51725116Y-137600374D01*
X51727723Y-137579916D01*
X51729750Y-137559103D01*
X51731199Y-137537935D01*
X51732068Y-137516412D01*
X51732357Y-137494535D01*
X51732278Y-137482777D01*
X51731646Y-137459502D01*
X51730382Y-137436545D01*
X51728486Y-137413906D01*
X51725959Y-137391585D01*
X51722799Y-137369582D01*
X51719007Y-137347898D01*
X51714583Y-137326532D01*
X51709527Y-137305485D01*
X51703839Y-137284755D01*
X51697520Y-137264344D01*
X51690568Y-137244251D01*
X51682984Y-137224477D01*
X51674768Y-137205021D01*
X51665921Y-137185883D01*
X51656441Y-137167063D01*
X51651464Y-137157773D01*
X51641083Y-137139548D01*
X51630165Y-137121805D01*
X51618708Y-137104542D01*
X51606713Y-137087760D01*
X51594180Y-137071459D01*
X51581108Y-137055639D01*
X51567499Y-137040300D01*
X51553352Y-137025442D01*
X51538666Y-137011064D01*
X51523443Y-136997168D01*
X51507681Y-136983752D01*
X51491381Y-136970817D01*
X51474543Y-136958363D01*
X51457167Y-136946390D01*
X51439253Y-136934897D01*
X51420801Y-136923886D01*
X51401988Y-136913451D01*
X51382992Y-136903690D01*
X51363813Y-136894602D01*
X51344451Y-136886187D01*
X51324905Y-136878445D01*
X51305177Y-136871376D01*
X51285265Y-136864981D01*
X51265170Y-136859259D01*
X51244891Y-136854210D01*
X51224430Y-136849834D01*
X51203785Y-136846132D01*
X51182957Y-136843102D01*
X51161946Y-136840746D01*
X51140752Y-136839063D01*
X51119375Y-136838053D01*
X51097814Y-136837717D01*
X51083037Y-136837872D01*
X51068379Y-136838338D01*
X51053842Y-136839116D01*
X51039425Y-136840203D01*
X51025128Y-136841602D01*
X51010952Y-136843312D01*
X50996895Y-136845332D01*
X50982959Y-136847664D01*
X50969143Y-136850306D01*
X50955448Y-136853259D01*
X50941872Y-136856522D01*
X50928417Y-136860097D01*
X50915082Y-136863982D01*
X50901867Y-136868179D01*
X50888772Y-136872686D01*
X50875798Y-136877504D01*
X50862943Y-136882633D01*
X50850209Y-136888072D01*
X50837596Y-136893823D01*
X50825102Y-136899884D01*
X50812729Y-136906256D01*
X50800475Y-136912939D01*
X50788343Y-136919933D01*
X50776330Y-136927238D01*
X50764437Y-136934853D01*
X50752665Y-136942780D01*
X50741013Y-136951017D01*
X50729481Y-136959565D01*
X50718069Y-136968424D01*
X50706778Y-136977593D01*
X50695607Y-136987074D01*
X50684556Y-136996865D01*
X50671699Y-137008773D01*
X50659250Y-137020903D01*
X50647210Y-137033256D01*
X50635577Y-137045830D01*
X50624353Y-137058626D01*
X50613537Y-137071645D01*
X50603129Y-137084886D01*
X50593129Y-137098348D01*
X50583538Y-137112033D01*
X50574354Y-137125940D01*
X50565579Y-137140069D01*
X50557212Y-137154420D01*
X50549253Y-137168994D01*
X50541702Y-137183789D01*
X50534559Y-137198807D01*
X50527825Y-137214046D01*
X50521499Y-137229508D01*
X50515580Y-137245192D01*
X50510070Y-137261098D01*
X50504968Y-137277226D01*
X50500275Y-137293576D01*
X50495989Y-137310148D01*
X50492112Y-137326942D01*
X50488642Y-137343959D01*
X50485581Y-137361197D01*
X50482928Y-137378658D01*
X50480683Y-137396341D01*
X50478847Y-137414246D01*
X50477418Y-137432373D01*
X50476398Y-137450722D01*
X50475785Y-137469293D01*
X50475581Y-137488087D01*
X50475808Y-137507790D01*
X50476488Y-137527333D01*
X50477622Y-137546716D01*
X50479208Y-137565939D01*
X50481249Y-137585001D01*
X50483742Y-137603903D01*
X50486689Y-137622645D01*
X50490089Y-137641227D01*
X50493943Y-137659648D01*
X50498250Y-137677909D01*
X50503011Y-137696010D01*
X50508224Y-137713950D01*
X50513892Y-137731730D01*
X50520012Y-137749350D01*
X50526586Y-137766810D01*
X50533613Y-137784109D01*
X50539971Y-137798599D01*
X50546880Y-137813052D01*
X50554342Y-137827468D01*
X50562355Y-137841848D01*
X50570920Y-137856191D01*
X50580036Y-137870498D01*
X50589705Y-137884768D01*
X50599925Y-137899001D01*
X50610698Y-137913197D01*
X50622022Y-137927357D01*
X50633898Y-137941481D01*
X50646325Y-137955567D01*
X50659305Y-137969617D01*
X50672836Y-137983631D01*
X50686920Y-137997608D01*
X50701555Y-138011548D01*
G37*
G36*
X50494339Y-138303174D02*
G01*
X50494339Y-138524165D01*
X51296824Y-139044402D01*
X50494339Y-139044402D01*
X50494339Y-139275065D01*
X51713600Y-139275065D01*
X51713600Y-139053488D01*
X50913753Y-138534130D01*
X51713600Y-138534130D01*
X51713600Y-138303174D01*
X50494339Y-138303174D01*
G37*
G36*
X51713600Y-139823732D02*
G01*
X51713570Y-139838341D01*
X51713483Y-139852676D01*
X51713337Y-139866737D01*
X51713132Y-139880523D01*
X51712870Y-139894035D01*
X51712548Y-139907273D01*
X51712169Y-139920237D01*
X51711731Y-139932927D01*
X51711235Y-139945342D01*
X51710680Y-139957484D01*
X51709395Y-139980944D01*
X51707877Y-140003307D01*
X51706126Y-140024573D01*
X51704140Y-140044742D01*
X51701922Y-140063815D01*
X51699469Y-140081791D01*
X51696783Y-140098670D01*
X51693864Y-140114452D01*
X51690711Y-140129138D01*
X51687324Y-140142727D01*
X51683704Y-140155218D01*
X51679781Y-140167109D01*
X51675484Y-140178895D01*
X51670814Y-140190575D01*
X51665771Y-140202150D01*
X51660354Y-140213619D01*
X51654564Y-140224983D01*
X51648402Y-140236242D01*
X51641865Y-140247396D01*
X51634956Y-140258444D01*
X51627673Y-140269387D01*
X51620017Y-140280224D01*
X51611988Y-140290956D01*
X51603586Y-140301583D01*
X51594810Y-140312105D01*
X51585662Y-140322521D01*
X51576140Y-140332832D01*
X51566237Y-140342952D01*
X51556022Y-140352794D01*
X51545492Y-140362360D01*
X51534649Y-140371648D01*
X51523492Y-140380660D01*
X51512021Y-140389394D01*
X51500237Y-140397851D01*
X51488139Y-140406031D01*
X51475727Y-140413935D01*
X51463002Y-140421561D01*
X51449963Y-140428910D01*
X51436610Y-140435982D01*
X51422943Y-140442777D01*
X51408963Y-140449295D01*
X51394669Y-140455535D01*
X51380061Y-140461499D01*
X51365208Y-140467142D01*
X51350175Y-140472421D01*
X51334964Y-140477336D01*
X51319575Y-140481887D01*
X51304007Y-140486074D01*
X51288260Y-140489897D01*
X51272334Y-140493356D01*
X51256230Y-140496450D01*
X51239948Y-140499181D01*
X51223487Y-140501547D01*
X51206847Y-140503550D01*
X51190028Y-140505188D01*
X51173031Y-140506462D01*
X51155856Y-140507372D01*
X51138501Y-140507919D01*
X51120969Y-140508101D01*
X51108634Y-140508019D01*
X51096397Y-140507775D01*
X51084257Y-140507369D01*
X51072215Y-140506800D01*
X51060270Y-140506068D01*
X51048422Y-140505174D01*
X51025018Y-140502898D01*
X51002003Y-140499972D01*
X50979378Y-140496395D01*
X50957142Y-140492168D01*
X50935295Y-140487291D01*
X50913838Y-140481764D01*
X50892770Y-140475586D01*
X50872091Y-140468758D01*
X50851801Y-140461279D01*
X50831900Y-140453150D01*
X50812389Y-140444371D01*
X50793267Y-140434942D01*
X50774535Y-140424863D01*
X50756318Y-140414280D01*
X50738745Y-140403343D01*
X50721816Y-140392051D01*
X50705530Y-140380404D01*
X50689887Y-140368402D01*
X50674888Y-140356046D01*
X50660532Y-140343334D01*
X50646820Y-140330267D01*
X50633751Y-140316846D01*
X50621326Y-140303069D01*
X50609544Y-140288938D01*
X50598405Y-140274452D01*
X50587910Y-140259611D01*
X50578058Y-140244414D01*
X50568850Y-140228863D01*
X50560285Y-140212957D01*
X50556228Y-140204783D01*
X50548500Y-140187637D01*
X50541287Y-140169429D01*
X50534589Y-140150158D01*
X50528407Y-140129825D01*
X50522740Y-140108429D01*
X50517588Y-140085971D01*
X50515205Y-140074344D01*
X50512951Y-140062450D01*
X50510826Y-140050292D01*
X50508829Y-140037867D01*
X50506962Y-140025177D01*
X50505223Y-140012222D01*
X50503613Y-139999001D01*
X50502132Y-139985514D01*
X50500779Y-139971762D01*
X50499556Y-139957744D01*
X50498461Y-139943460D01*
X50497495Y-139928911D01*
X50496658Y-139914096D01*
X50495949Y-139899015D01*
X50495370Y-139883669D01*
X50494919Y-139868058D01*
X50494597Y-139852180D01*
X50494404Y-139836037D01*
X50494339Y-139819629D01*
X50494339Y-139775958D01*
X50719433Y-139775958D01*
X50719433Y-139854214D01*
X50719527Y-139867562D01*
X50719809Y-139880679D01*
X50720278Y-139893565D01*
X50720936Y-139906219D01*
X50721780Y-139918642D01*
X50722813Y-139930834D01*
X50724034Y-139942795D01*
X50725442Y-139954524D01*
X50728821Y-139977289D01*
X50732952Y-139999129D01*
X50737834Y-140020044D01*
X50743467Y-140040034D01*
X50749851Y-140059098D01*
X50756986Y-140077238D01*
X50764872Y-140094452D01*
X50773509Y-140110742D01*
X50782897Y-140126106D01*
X50793036Y-140140546D01*
X50803926Y-140154060D01*
X50815567Y-140166649D01*
X50829315Y-140179745D01*
X50843741Y-140191997D01*
X50858844Y-140203403D01*
X50874625Y-140213965D01*
X50891084Y-140223682D01*
X50908221Y-140232553D01*
X50926035Y-140240580D01*
X50944528Y-140247762D01*
X50963698Y-140254099D01*
X50983545Y-140259591D01*
X51004071Y-140264238D01*
X51025274Y-140268040D01*
X51047155Y-140270998D01*
X51069714Y-140273110D01*
X51092951Y-140274377D01*
X51104823Y-140274694D01*
X51116865Y-140274800D01*
X51132464Y-140274622D01*
X51147754Y-140274090D01*
X51162735Y-140273203D01*
X51177407Y-140271960D01*
X51191770Y-140270363D01*
X51205823Y-140268411D01*
X51219568Y-140266104D01*
X51233003Y-140263442D01*
X51246129Y-140260426D01*
X51258946Y-140257054D01*
X51271454Y-140253327D01*
X51283653Y-140249246D01*
X51295542Y-140244809D01*
X51307123Y-140240018D01*
X51318394Y-140234872D01*
X51329357Y-140229371D01*
X51339934Y-140223626D01*
X51355075Y-140214622D01*
X51369345Y-140205154D01*
X51382745Y-140195223D01*
X51395274Y-140184828D01*
X51406932Y-140173969D01*
X51417719Y-140162647D01*
X51427636Y-140150860D01*
X51436682Y-140138611D01*
X51444857Y-140125897D01*
X51452162Y-140112720D01*
X51458657Y-140098601D01*
X51464513Y-140082952D01*
X51468062Y-140071669D01*
X51471327Y-140059706D01*
X51474309Y-140047063D01*
X51477006Y-140033740D01*
X51479419Y-140019737D01*
X51481549Y-140005054D01*
X51483395Y-139989691D01*
X51484956Y-139973647D01*
X51486234Y-139956924D01*
X51487228Y-139939520D01*
X51487937Y-139921437D01*
X51488363Y-139902673D01*
X51488505Y-139883230D01*
X51488505Y-139775958D01*
X50719433Y-139775958D01*
X50494339Y-139775958D01*
X50494339Y-139545881D01*
X51713600Y-139545881D01*
X51713600Y-139823732D01*
G37*
G36*
X156869600Y-137748029D02*
G01*
X156344380Y-137748029D01*
X156344380Y-137769717D01*
X156869600Y-138042585D01*
X156869600Y-138294644D01*
X156318881Y-138007708D01*
X156313601Y-138021914D01*
X156308018Y-138035666D01*
X156302133Y-138048961D01*
X156295946Y-138061801D01*
X156289457Y-138074185D01*
X156282666Y-138086114D01*
X156275572Y-138097587D01*
X156268176Y-138108604D01*
X156260478Y-138119166D01*
X156252477Y-138129272D01*
X156244174Y-138138922D01*
X156235569Y-138148117D01*
X156226662Y-138156856D01*
X156217453Y-138165139D01*
X156207941Y-138172966D01*
X156198127Y-138180338D01*
X156188010Y-138187295D01*
X156177588Y-138193802D01*
X156166861Y-138199861D01*
X156155830Y-138205471D01*
X156144495Y-138210632D01*
X156132855Y-138215344D01*
X156120910Y-138219608D01*
X156108661Y-138223423D01*
X156096107Y-138226789D01*
X156083249Y-138229706D01*
X156070086Y-138232174D01*
X156056619Y-138234194D01*
X156042847Y-138235765D01*
X156028771Y-138236887D01*
X156014390Y-138237560D01*
X155999704Y-138237784D01*
X155985717Y-138237582D01*
X155971966Y-138236974D01*
X155958450Y-138235960D01*
X155945171Y-138234542D01*
X155932127Y-138232718D01*
X155919319Y-138230489D01*
X155906747Y-138227855D01*
X155894411Y-138224815D01*
X155882311Y-138221370D01*
X155870446Y-138217520D01*
X155858818Y-138213264D01*
X155847425Y-138208603D01*
X155836268Y-138203537D01*
X155825347Y-138198066D01*
X155814662Y-138192189D01*
X155804212Y-138185907D01*
X155799093Y-138182632D01*
X155789130Y-138175884D01*
X155779536Y-138168873D01*
X155765836Y-138157862D01*
X155752965Y-138146259D01*
X155740924Y-138134063D01*
X155729712Y-138121275D01*
X155719330Y-138107894D01*
X155709778Y-138093921D01*
X155701054Y-138079356D01*
X155693161Y-138064198D01*
X155686096Y-138048447D01*
X155681766Y-138037334D01*
X155677716Y-138025316D01*
X155673945Y-138012394D01*
X155670453Y-137998567D01*
X155667240Y-137983835D01*
X155664307Y-137968200D01*
X155661653Y-137951660D01*
X155659278Y-137934215D01*
X155657183Y-137915866D01*
X155655368Y-137896612D01*
X155653831Y-137876454D01*
X155652574Y-137855392D01*
X155651596Y-137833425D01*
X155650898Y-137810553D01*
X155650653Y-137798778D01*
X155650479Y-137786777D01*
X155650374Y-137774550D01*
X155650339Y-137762097D01*
X155650339Y-137748029D01*
X155875433Y-137748029D01*
X155875433Y-137811629D01*
X155875544Y-137828433D01*
X155875876Y-137844221D01*
X155876430Y-137858994D01*
X155877206Y-137872753D01*
X155878203Y-137885496D01*
X155879876Y-137900909D01*
X155881944Y-137914517D01*
X155884406Y-137926321D01*
X155888036Y-137938538D01*
X155889675Y-137942806D01*
X155895345Y-137954951D01*
X155902149Y-137966107D01*
X155910087Y-137976273D01*
X155919158Y-137985451D01*
X155929362Y-137993639D01*
X155934838Y-137997358D01*
X155946330Y-138003698D01*
X155958544Y-138008576D01*
X155971479Y-138011990D01*
X155985135Y-138013941D01*
X155997066Y-138014449D01*
X156001133Y-138014408D01*
X156012898Y-138013798D01*
X156027566Y-138011847D01*
X156041071Y-138008596D01*
X156053413Y-138004044D01*
X156064592Y-137998191D01*
X156074607Y-137991038D01*
X156083460Y-137982584D01*
X156091149Y-137972830D01*
X156092880Y-137970161D01*
X156099255Y-137958142D01*
X156104750Y-137943971D01*
X156108295Y-137931930D01*
X156111345Y-137918678D01*
X156113900Y-137904215D01*
X156115961Y-137888542D01*
X156117527Y-137871658D01*
X156118296Y-137859730D01*
X156118846Y-137847263D01*
X156119176Y-137834258D01*
X156119285Y-137820715D01*
X156119285Y-137748029D01*
X155875433Y-137748029D01*
X155650339Y-137748029D01*
X155650339Y-137517366D01*
X156869600Y-137517366D01*
X156869600Y-137748029D01*
G37*
G36*
X155650339Y-138476654D02*
G01*
X155650339Y-139138747D01*
X155875433Y-139138747D01*
X155875433Y-138705851D01*
X156100528Y-138705851D01*
X156100528Y-139138747D01*
X156325622Y-139138747D01*
X156325622Y-138705851D01*
X156644505Y-138705851D01*
X156644505Y-139138747D01*
X156869600Y-139138747D01*
X156869600Y-138476654D01*
X155650339Y-138476654D01*
G37*
G36*
X155832642Y-139984902D02*
G01*
X155987981Y-139814323D01*
X155972080Y-139803064D01*
X155957206Y-139791782D01*
X155943357Y-139780478D01*
X155930535Y-139769150D01*
X155918738Y-139757800D01*
X155907967Y-139746427D01*
X155898221Y-139735030D01*
X155889502Y-139723611D01*
X155881808Y-139712169D01*
X155875140Y-139700704D01*
X155869498Y-139689216D01*
X155864882Y-139677706D01*
X155861292Y-139666172D01*
X155858727Y-139654616D01*
X155856804Y-139637238D01*
X155856676Y-139631434D01*
X155857262Y-139617638D01*
X155859023Y-139604644D01*
X155861956Y-139592451D01*
X155866064Y-139581059D01*
X155871344Y-139570469D01*
X155877799Y-139560680D01*
X155880709Y-139556989D01*
X155889828Y-139547227D01*
X155899380Y-139539486D01*
X155911071Y-139533006D01*
X155923350Y-139529276D01*
X155934345Y-139528266D01*
X155947270Y-139529248D01*
X155959886Y-139532193D01*
X155972194Y-139537101D01*
X155982498Y-139542872D01*
X155990911Y-139548782D01*
X156001055Y-139557580D01*
X156010340Y-139566492D01*
X156021062Y-139577387D01*
X156033222Y-139590266D01*
X156042127Y-139599954D01*
X156051670Y-139610524D01*
X156061853Y-139621975D01*
X156072674Y-139634308D01*
X156084135Y-139647522D01*
X156096234Y-139661618D01*
X156108972Y-139676596D01*
X156122349Y-139692455D01*
X156136365Y-139709195D01*
X156143612Y-139717896D01*
X156156818Y-139733976D01*
X156169400Y-139749243D01*
X156181356Y-139763697D01*
X156192687Y-139777339D01*
X156203392Y-139790167D01*
X156213473Y-139802183D01*
X156222929Y-139813385D01*
X156231759Y-139823775D01*
X156239965Y-139833352D01*
X156251101Y-139846194D01*
X156260830Y-139857206D01*
X156269153Y-139866389D01*
X156278063Y-139875789D01*
X156279900Y-139877631D01*
X156288560Y-139886228D01*
X156297174Y-139894506D01*
X156310009Y-139906328D01*
X156322741Y-139917433D01*
X156335371Y-139927822D01*
X156347897Y-139937495D01*
X156360320Y-139946451D01*
X156372640Y-139954692D01*
X156384857Y-139962217D01*
X156396971Y-139969025D01*
X156408982Y-139975117D01*
X156412963Y-139976989D01*
X156424939Y-139982227D01*
X156437126Y-139986949D01*
X156449524Y-139991157D01*
X156462134Y-139994849D01*
X156474954Y-139998026D01*
X156487986Y-140000688D01*
X156501230Y-140002835D01*
X156514684Y-140004466D01*
X156528350Y-140005582D01*
X156542227Y-140006183D01*
X156551595Y-140006298D01*
X156569643Y-140005895D01*
X156587298Y-140004686D01*
X156604558Y-140002671D01*
X156621424Y-139999850D01*
X156637897Y-139996223D01*
X156653976Y-139991790D01*
X156669661Y-139986551D01*
X156684952Y-139980506D01*
X156699849Y-139973655D01*
X156714353Y-139965998D01*
X156728462Y-139957535D01*
X156742178Y-139948266D01*
X156755500Y-139938191D01*
X156768428Y-139927310D01*
X156780962Y-139915623D01*
X156793103Y-139903130D01*
X156804637Y-139890024D01*
X156815428Y-139876426D01*
X156825474Y-139862336D01*
X156834777Y-139847754D01*
X156843335Y-139832679D01*
X156851148Y-139817112D01*
X156858218Y-139801053D01*
X156864544Y-139784501D01*
X156870125Y-139767457D01*
X156874962Y-139749921D01*
X156879055Y-139731892D01*
X156882404Y-139713371D01*
X156885009Y-139694358D01*
X156886869Y-139674853D01*
X156887985Y-139654855D01*
X156888357Y-139634365D01*
X156888101Y-139618338D01*
X156887332Y-139602569D01*
X156886049Y-139587059D01*
X156884254Y-139571808D01*
X156881946Y-139556816D01*
X156879125Y-139542082D01*
X156875791Y-139527607D01*
X156871944Y-139513391D01*
X156867584Y-139499434D01*
X156862712Y-139485735D01*
X156857326Y-139472296D01*
X156851428Y-139459115D01*
X156845016Y-139446192D01*
X156838092Y-139433529D01*
X156830655Y-139421124D01*
X156822705Y-139408978D01*
X156814169Y-139397070D01*
X156805046Y-139385379D01*
X156795337Y-139373906D01*
X156785043Y-139362651D01*
X156774162Y-139351613D01*
X156762694Y-139340793D01*
X156750641Y-139330190D01*
X156738001Y-139319805D01*
X156724776Y-139309637D01*
X156710964Y-139299687D01*
X156696566Y-139289954D01*
X156681581Y-139280439D01*
X156666011Y-139271141D01*
X156649854Y-139262061D01*
X156633111Y-139253198D01*
X156615782Y-139244553D01*
X156494442Y-139438287D01*
X156504829Y-139443772D01*
X156524613Y-139454898D01*
X156543077Y-139466232D01*
X156560223Y-139477775D01*
X156576050Y-139489526D01*
X156590558Y-139501485D01*
X156603747Y-139513653D01*
X156615617Y-139526030D01*
X156626169Y-139538614D01*
X156635401Y-139551407D01*
X156643315Y-139564408D01*
X156649909Y-139577618D01*
X156655185Y-139591036D01*
X156659142Y-139604663D01*
X156661779Y-139618498D01*
X156663098Y-139632541D01*
X156663263Y-139639641D01*
X156662736Y-139654149D01*
X156661157Y-139668070D01*
X156658523Y-139681406D01*
X156654837Y-139694156D01*
X156650097Y-139706319D01*
X156644304Y-139717896D01*
X156637457Y-139728887D01*
X156629558Y-139739292D01*
X156620893Y-139748771D01*
X156611899Y-139756987D01*
X156600192Y-139765479D01*
X156587971Y-139771996D01*
X156575234Y-139776539D01*
X156561982Y-139779106D01*
X156551009Y-139779738D01*
X156538461Y-139778994D01*
X156525913Y-139776762D01*
X156513365Y-139773041D01*
X156500817Y-139767831D01*
X156488269Y-139761134D01*
X156478231Y-139754704D01*
X156470702Y-139749257D01*
X156459922Y-139740487D01*
X156450959Y-139732401D01*
X156441244Y-139723022D01*
X156430777Y-139712349D01*
X156419558Y-139700384D01*
X156411660Y-139691688D01*
X156403428Y-139682418D01*
X156394862Y-139672573D01*
X156385962Y-139662154D01*
X156376727Y-139651159D01*
X156367158Y-139639590D01*
X156357255Y-139627446D01*
X156347018Y-139614728D01*
X156337214Y-139602500D01*
X156327552Y-139590545D01*
X156318031Y-139578865D01*
X156308650Y-139567458D01*
X156299410Y-139556324D01*
X156290311Y-139545464D01*
X156281353Y-139534878D01*
X156272536Y-139524566D01*
X156263859Y-139514527D01*
X156255323Y-139504761D01*
X156246929Y-139495270D01*
X156238674Y-139486051D01*
X156230561Y-139477107D01*
X156222589Y-139468436D01*
X156207066Y-139451915D01*
X156192107Y-139436489D01*
X156177711Y-139422158D01*
X156163879Y-139408920D01*
X156150610Y-139396778D01*
X156137904Y-139385729D01*
X156125761Y-139375776D01*
X156114182Y-139366917D01*
X156103165Y-139359152D01*
X156092432Y-139352160D01*
X156081701Y-139345619D01*
X156070972Y-139339530D01*
X156060246Y-139333891D01*
X156049522Y-139328704D01*
X156033440Y-139321768D01*
X156017363Y-139315848D01*
X156001291Y-139310942D01*
X155985225Y-139307052D01*
X155969163Y-139304176D01*
X155953107Y-139302315D01*
X155937056Y-139301469D01*
X155931707Y-139301413D01*
X155916420Y-139301787D01*
X155901409Y-139302911D01*
X155886672Y-139304782D01*
X155872209Y-139307403D01*
X155858022Y-139310773D01*
X155844109Y-139314891D01*
X155830471Y-139319758D01*
X155817108Y-139325373D01*
X155804020Y-139331738D01*
X155791206Y-139338851D01*
X155778667Y-139346713D01*
X155766403Y-139355324D01*
X155754414Y-139364683D01*
X155742700Y-139374791D01*
X155731260Y-139385648D01*
X155720095Y-139397254D01*
X155709377Y-139409446D01*
X155699350Y-139421988D01*
X155690014Y-139434881D01*
X155681370Y-139448124D01*
X155673418Y-139461717D01*
X155666157Y-139475660D01*
X155659588Y-139489954D01*
X155653710Y-139504599D01*
X155648523Y-139519593D01*
X155644029Y-139534938D01*
X155640225Y-139550633D01*
X155637113Y-139566679D01*
X155634693Y-139583075D01*
X155632964Y-139599821D01*
X155631927Y-139616918D01*
X155631581Y-139634365D01*
X155631963Y-139651324D01*
X155633106Y-139668128D01*
X155635013Y-139684777D01*
X155637681Y-139701272D01*
X155641113Y-139717613D01*
X155645306Y-139733798D01*
X155650262Y-139749830D01*
X155655981Y-139765706D01*
X155662462Y-139781429D01*
X155669706Y-139796996D01*
X155674959Y-139807289D01*
X155680624Y-139817600D01*
X155686847Y-139828016D01*
X155693630Y-139838537D01*
X155700971Y-139849164D01*
X155708870Y-139859896D01*
X155717329Y-139870734D01*
X155726346Y-139881677D01*
X155735922Y-139892725D01*
X155746056Y-139903878D01*
X155756750Y-139915137D01*
X155768002Y-139926501D01*
X155779812Y-139937971D01*
X155792182Y-139949546D01*
X155805110Y-139961226D01*
X155818597Y-139973011D01*
X155832642Y-139984902D01*
G37*
G36*
X155650339Y-140223479D02*
G01*
X155650339Y-140885572D01*
X155875433Y-140885572D01*
X155875433Y-140452676D01*
X156100528Y-140452676D01*
X156100528Y-140885572D01*
X156325622Y-140885572D01*
X156325622Y-140452676D01*
X156644505Y-140452676D01*
X156644505Y-140885572D01*
X156869600Y-140885572D01*
X156869600Y-140223479D01*
X155650339Y-140223479D01*
G37*
G36*
X155650339Y-140976724D02*
G01*
X155650339Y-141646731D01*
X155875433Y-141646731D01*
X155875433Y-141426033D01*
X156869600Y-141426033D01*
X156869600Y-141191853D01*
X155875433Y-141191853D01*
X155875433Y-140976724D01*
X155650339Y-140976724D01*
G37*
G36*
X147932755Y-138773548D02*
G01*
X148091610Y-138611175D01*
X148081783Y-138601490D01*
X148072267Y-138591705D01*
X148063064Y-138581821D01*
X148054173Y-138571837D01*
X148045593Y-138561753D01*
X148037326Y-138551570D01*
X148029370Y-138541287D01*
X148021726Y-138530905D01*
X148014395Y-138520423D01*
X148007375Y-138509841D01*
X148000668Y-138499160D01*
X147994272Y-138488379D01*
X147988188Y-138477499D01*
X147982417Y-138466519D01*
X147976957Y-138455439D01*
X147971809Y-138444260D01*
X147966974Y-138432981D01*
X147962450Y-138421602D01*
X147958238Y-138410124D01*
X147954338Y-138398547D01*
X147950750Y-138386869D01*
X147947475Y-138375092D01*
X147944511Y-138363216D01*
X147941859Y-138351240D01*
X147939519Y-138339164D01*
X147937491Y-138326989D01*
X147935775Y-138314714D01*
X147934371Y-138302339D01*
X147933279Y-138289865D01*
X147932500Y-138277291D01*
X147932032Y-138264618D01*
X147931876Y-138251845D01*
X147932328Y-138229688D01*
X147933684Y-138207987D01*
X147935946Y-138186741D01*
X147939111Y-138165951D01*
X147943181Y-138145617D01*
X147948156Y-138125738D01*
X147954035Y-138106315D01*
X147960818Y-138087348D01*
X147968506Y-138068836D01*
X147977099Y-138050780D01*
X147986596Y-138033179D01*
X147996997Y-138016035D01*
X148008303Y-137999346D01*
X148020513Y-137983112D01*
X148033628Y-137967335D01*
X148047647Y-137952013D01*
X148062313Y-137937390D01*
X148077368Y-137923711D01*
X148092813Y-137910975D01*
X148108646Y-137899183D01*
X148124869Y-137888334D01*
X148141482Y-137878428D01*
X148158483Y-137869466D01*
X148175874Y-137861447D01*
X148193654Y-137854372D01*
X148211824Y-137848240D01*
X148230382Y-137843051D01*
X148249330Y-137838806D01*
X148268667Y-137835504D01*
X148288394Y-137833146D01*
X148308509Y-137831731D01*
X148329014Y-137831259D01*
X148350242Y-137831748D01*
X148371059Y-137833214D01*
X148391467Y-137835659D01*
X148411465Y-137839081D01*
X148431053Y-137843481D01*
X148450231Y-137848858D01*
X148468999Y-137855213D01*
X148487357Y-137862546D01*
X148505305Y-137870857D01*
X148522844Y-137880146D01*
X148539973Y-137890412D01*
X148556692Y-137901656D01*
X148573000Y-137913878D01*
X148588900Y-137927077D01*
X148604389Y-137941254D01*
X148619468Y-137956409D01*
X148633878Y-137972317D01*
X148647358Y-137988681D01*
X148659908Y-138005501D01*
X148671528Y-138022776D01*
X148682219Y-138040507D01*
X148691981Y-138058693D01*
X148700812Y-138077336D01*
X148708714Y-138096433D01*
X148715687Y-138115987D01*
X148721729Y-138135996D01*
X148726843Y-138156461D01*
X148731026Y-138177382D01*
X148734280Y-138198758D01*
X148736604Y-138220590D01*
X148737998Y-138242877D01*
X148738463Y-138265620D01*
X148738286Y-138280420D01*
X148737753Y-138294925D01*
X148736866Y-138309134D01*
X148735624Y-138323048D01*
X148734027Y-138336666D01*
X148732075Y-138349990D01*
X148729768Y-138363017D01*
X148727106Y-138375750D01*
X148724089Y-138388186D01*
X148720717Y-138400328D01*
X148716991Y-138412174D01*
X148712909Y-138423725D01*
X148708473Y-138434980D01*
X148703681Y-138445940D01*
X148698535Y-138456605D01*
X148693034Y-138466974D01*
X148684065Y-138482083D01*
X148674195Y-138496636D01*
X148667114Y-138506029D01*
X148659632Y-138515174D01*
X148651749Y-138524072D01*
X148643466Y-138532723D01*
X148634782Y-138541126D01*
X148625697Y-138549283D01*
X148616212Y-138557191D01*
X148606326Y-138564853D01*
X148596039Y-138572267D01*
X148585351Y-138579434D01*
X148574263Y-138586354D01*
X148562774Y-138593026D01*
X148550885Y-138599452D01*
X148550885Y-138248328D01*
X148325790Y-138248328D01*
X148325790Y-138858251D01*
X148376202Y-138860010D01*
X148395812Y-138859688D01*
X148415293Y-138858723D01*
X148434646Y-138857114D01*
X148453871Y-138854862D01*
X148472968Y-138851967D01*
X148491937Y-138848428D01*
X148510777Y-138844246D01*
X148529489Y-138839420D01*
X148548073Y-138833951D01*
X148566528Y-138827838D01*
X148584856Y-138821082D01*
X148603055Y-138813683D01*
X148621126Y-138805640D01*
X148639069Y-138796954D01*
X148656883Y-138787624D01*
X148674569Y-138777651D01*
X148691895Y-138767165D01*
X148708701Y-138756297D01*
X148724987Y-138745046D01*
X148740753Y-138733413D01*
X148755999Y-138721397D01*
X148770726Y-138708999D01*
X148784933Y-138696219D01*
X148798620Y-138683056D01*
X148811788Y-138669511D01*
X148824435Y-138655583D01*
X148836563Y-138641273D01*
X148848171Y-138626581D01*
X148859259Y-138611506D01*
X148869828Y-138596049D01*
X148879876Y-138580209D01*
X148889405Y-138563987D01*
X148898385Y-138547434D01*
X148906785Y-138530525D01*
X148914605Y-138513261D01*
X148921847Y-138495642D01*
X148928509Y-138477669D01*
X148934592Y-138459340D01*
X148940095Y-138440657D01*
X148945019Y-138421618D01*
X148949364Y-138402225D01*
X148953130Y-138382477D01*
X148956316Y-138362374D01*
X148958923Y-138341916D01*
X148960950Y-138321103D01*
X148962399Y-138299935D01*
X148963268Y-138278412D01*
X148963557Y-138256535D01*
X148963478Y-138244777D01*
X148962846Y-138221502D01*
X148961582Y-138198545D01*
X148959686Y-138175906D01*
X148957159Y-138153585D01*
X148953999Y-138131582D01*
X148950207Y-138109898D01*
X148945783Y-138088532D01*
X148940727Y-138067485D01*
X148935039Y-138046755D01*
X148928720Y-138026344D01*
X148921768Y-138006251D01*
X148914184Y-137986477D01*
X148905968Y-137967021D01*
X148897121Y-137947883D01*
X148887641Y-137929063D01*
X148882664Y-137919773D01*
X148872283Y-137901548D01*
X148861365Y-137883805D01*
X148849908Y-137866542D01*
X148837913Y-137849760D01*
X148825380Y-137833459D01*
X148812308Y-137817639D01*
X148798699Y-137802300D01*
X148784552Y-137787442D01*
X148769866Y-137773064D01*
X148754643Y-137759168D01*
X148738881Y-137745752D01*
X148722581Y-137732817D01*
X148705743Y-137720363D01*
X148688367Y-137708390D01*
X148670453Y-137696897D01*
X148652001Y-137685886D01*
X148633188Y-137675451D01*
X148614192Y-137665690D01*
X148595013Y-137656602D01*
X148575651Y-137648187D01*
X148556105Y-137640445D01*
X148536377Y-137633376D01*
X148516465Y-137626981D01*
X148496370Y-137621259D01*
X148476091Y-137616210D01*
X148455630Y-137611834D01*
X148434985Y-137608132D01*
X148414157Y-137605102D01*
X148393146Y-137602746D01*
X148371952Y-137601063D01*
X148350575Y-137600053D01*
X148329014Y-137599717D01*
X148314237Y-137599872D01*
X148299579Y-137600338D01*
X148285042Y-137601116D01*
X148270625Y-137602203D01*
X148256328Y-137603602D01*
X148242152Y-137605312D01*
X148228095Y-137607332D01*
X148214159Y-137609664D01*
X148200343Y-137612306D01*
X148186648Y-137615259D01*
X148173072Y-137618522D01*
X148159617Y-137622097D01*
X148146282Y-137625982D01*
X148133067Y-137630179D01*
X148119972Y-137634686D01*
X148106998Y-137639504D01*
X148094143Y-137644633D01*
X148081409Y-137650072D01*
X148068796Y-137655823D01*
X148056302Y-137661884D01*
X148043929Y-137668256D01*
X148031675Y-137674939D01*
X148019543Y-137681933D01*
X148007530Y-137689238D01*
X147995637Y-137696853D01*
X147983865Y-137704780D01*
X147972213Y-137713017D01*
X147960681Y-137721565D01*
X147949269Y-137730424D01*
X147937978Y-137739593D01*
X147926807Y-137749074D01*
X147915756Y-137758865D01*
X147902899Y-137770773D01*
X147890450Y-137782903D01*
X147878410Y-137795256D01*
X147866777Y-137807830D01*
X147855553Y-137820626D01*
X147844737Y-137833645D01*
X147834329Y-137846886D01*
X147824329Y-137860348D01*
X147814738Y-137874033D01*
X147805554Y-137887940D01*
X147796779Y-137902069D01*
X147788412Y-137916420D01*
X147780453Y-137930994D01*
X147772902Y-137945789D01*
X147765759Y-137960807D01*
X147759025Y-137976046D01*
X147752699Y-137991508D01*
X147746780Y-138007192D01*
X147741270Y-138023098D01*
X147736168Y-138039226D01*
X147731475Y-138055576D01*
X147727189Y-138072148D01*
X147723312Y-138088942D01*
X147719842Y-138105959D01*
X147716781Y-138123197D01*
X147714128Y-138140658D01*
X147711883Y-138158341D01*
X147710047Y-138176246D01*
X147708618Y-138194373D01*
X147707598Y-138212722D01*
X147706985Y-138231293D01*
X147706781Y-138250087D01*
X147707008Y-138269790D01*
X147707688Y-138289333D01*
X147708822Y-138308716D01*
X147710408Y-138327939D01*
X147712449Y-138347001D01*
X147714942Y-138365903D01*
X147717889Y-138384645D01*
X147721289Y-138403227D01*
X147725143Y-138421648D01*
X147729450Y-138439909D01*
X147734211Y-138458010D01*
X147739424Y-138475950D01*
X147745092Y-138493730D01*
X147751212Y-138511350D01*
X147757786Y-138528810D01*
X147764813Y-138546109D01*
X147771171Y-138560599D01*
X147778080Y-138575052D01*
X147785542Y-138589468D01*
X147793555Y-138603848D01*
X147802120Y-138618191D01*
X147811236Y-138632498D01*
X147820905Y-138646768D01*
X147831125Y-138661001D01*
X147841898Y-138675197D01*
X147853222Y-138689357D01*
X147865098Y-138703481D01*
X147877525Y-138717567D01*
X147890505Y-138731617D01*
X147904036Y-138745631D01*
X147918120Y-138759608D01*
X147932755Y-138773548D01*
G37*
G36*
X147725539Y-139065174D02*
G01*
X147725539Y-139286165D01*
X148528024Y-139806402D01*
X147725539Y-139806402D01*
X147725539Y-140037065D01*
X148944800Y-140037065D01*
X148944800Y-139815488D01*
X148144953Y-139296130D01*
X148944800Y-139296130D01*
X148944800Y-139065174D01*
X147725539Y-139065174D01*
G37*
G36*
X148944800Y-140585732D02*
G01*
X148944770Y-140600341D01*
X148944683Y-140614676D01*
X148944537Y-140628737D01*
X148944332Y-140642523D01*
X148944070Y-140656035D01*
X148943748Y-140669273D01*
X148943369Y-140682237D01*
X148942931Y-140694927D01*
X148942435Y-140707342D01*
X148941880Y-140719484D01*
X148940595Y-140742944D01*
X148939077Y-140765307D01*
X148937326Y-140786573D01*
X148935340Y-140806742D01*
X148933122Y-140825815D01*
X148930669Y-140843791D01*
X148927983Y-140860670D01*
X148925064Y-140876452D01*
X148921911Y-140891138D01*
X148918524Y-140904727D01*
X148914904Y-140917218D01*
X148910981Y-140929109D01*
X148906684Y-140940895D01*
X148902014Y-140952575D01*
X148896971Y-140964150D01*
X148891554Y-140975619D01*
X148885764Y-140986983D01*
X148879602Y-140998242D01*
X148873065Y-141009396D01*
X148866156Y-141020444D01*
X148858873Y-141031387D01*
X148851217Y-141042224D01*
X148843188Y-141052956D01*
X148834786Y-141063583D01*
X148826010Y-141074105D01*
X148816862Y-141084521D01*
X148807340Y-141094832D01*
X148797437Y-141104952D01*
X148787222Y-141114794D01*
X148776692Y-141124360D01*
X148765849Y-141133648D01*
X148754692Y-141142660D01*
X148743221Y-141151394D01*
X148731437Y-141159851D01*
X148719339Y-141168031D01*
X148706927Y-141175935D01*
X148694202Y-141183561D01*
X148681163Y-141190910D01*
X148667810Y-141197982D01*
X148654143Y-141204777D01*
X148640163Y-141211295D01*
X148625869Y-141217535D01*
X148611261Y-141223499D01*
X148596408Y-141229142D01*
X148581375Y-141234421D01*
X148566164Y-141239336D01*
X148550775Y-141243887D01*
X148535207Y-141248074D01*
X148519460Y-141251897D01*
X148503534Y-141255356D01*
X148487430Y-141258450D01*
X148471148Y-141261181D01*
X148454687Y-141263547D01*
X148438047Y-141265550D01*
X148421228Y-141267188D01*
X148404231Y-141268462D01*
X148387056Y-141269372D01*
X148369701Y-141269919D01*
X148352169Y-141270101D01*
X148339834Y-141270019D01*
X148327597Y-141269775D01*
X148315457Y-141269369D01*
X148303415Y-141268800D01*
X148291470Y-141268068D01*
X148279622Y-141267174D01*
X148256218Y-141264898D01*
X148233203Y-141261972D01*
X148210578Y-141258395D01*
X148188342Y-141254168D01*
X148166495Y-141249291D01*
X148145038Y-141243764D01*
X148123970Y-141237586D01*
X148103291Y-141230758D01*
X148083001Y-141223279D01*
X148063100Y-141215150D01*
X148043589Y-141206371D01*
X148024467Y-141196942D01*
X148005735Y-141186863D01*
X147987518Y-141176280D01*
X147969945Y-141165343D01*
X147953016Y-141154051D01*
X147936730Y-141142404D01*
X147921087Y-141130402D01*
X147906088Y-141118046D01*
X147891732Y-141105334D01*
X147878020Y-141092267D01*
X147864951Y-141078846D01*
X147852526Y-141065069D01*
X147840744Y-141050938D01*
X147829605Y-141036452D01*
X147819110Y-141021611D01*
X147809258Y-141006414D01*
X147800050Y-140990863D01*
X147791485Y-140974957D01*
X147787428Y-140966783D01*
X147779700Y-140949637D01*
X147772487Y-140931429D01*
X147765789Y-140912158D01*
X147759607Y-140891825D01*
X147753940Y-140870429D01*
X147748788Y-140847971D01*
X147746405Y-140836344D01*
X147744151Y-140824450D01*
X147742026Y-140812292D01*
X147740029Y-140799867D01*
X147738162Y-140787177D01*
X147736423Y-140774222D01*
X147734813Y-140761001D01*
X147733332Y-140747514D01*
X147731979Y-140733762D01*
X147730756Y-140719744D01*
X147729661Y-140705460D01*
X147728695Y-140690911D01*
X147727858Y-140676096D01*
X147727149Y-140661015D01*
X147726570Y-140645669D01*
X147726119Y-140630058D01*
X147725797Y-140614180D01*
X147725604Y-140598037D01*
X147725539Y-140581629D01*
X147725539Y-140537958D01*
X147950633Y-140537958D01*
X147950633Y-140616214D01*
X147950727Y-140629562D01*
X147951009Y-140642679D01*
X147951478Y-140655565D01*
X147952136Y-140668219D01*
X147952980Y-140680642D01*
X147954013Y-140692834D01*
X147955234Y-140704795D01*
X147956642Y-140716524D01*
X147960021Y-140739289D01*
X147964152Y-140761129D01*
X147969034Y-140782044D01*
X147974667Y-140802034D01*
X147981051Y-140821098D01*
X147988186Y-140839238D01*
X147996072Y-140856452D01*
X148004709Y-140872742D01*
X148014097Y-140888106D01*
X148024236Y-140902546D01*
X148035126Y-140916060D01*
X148046767Y-140928649D01*
X148060515Y-140941745D01*
X148074941Y-140953997D01*
X148090044Y-140965403D01*
X148105825Y-140975965D01*
X148122284Y-140985682D01*
X148139421Y-140994553D01*
X148157235Y-141002580D01*
X148175728Y-141009762D01*
X148194898Y-141016099D01*
X148214745Y-141021591D01*
X148235271Y-141026238D01*
X148256474Y-141030040D01*
X148278355Y-141032998D01*
X148300914Y-141035110D01*
X148324151Y-141036377D01*
X148336023Y-141036694D01*
X148348065Y-141036800D01*
X148363664Y-141036622D01*
X148378954Y-141036090D01*
X148393935Y-141035203D01*
X148408607Y-141033960D01*
X148422970Y-141032363D01*
X148437023Y-141030411D01*
X148450768Y-141028104D01*
X148464203Y-141025442D01*
X148477329Y-141022426D01*
X148490146Y-141019054D01*
X148502654Y-141015327D01*
X148514853Y-141011246D01*
X148526742Y-141006809D01*
X148538323Y-141002018D01*
X148549594Y-140996872D01*
X148560557Y-140991371D01*
X148571134Y-140985626D01*
X148586275Y-140976622D01*
X148600545Y-140967154D01*
X148613945Y-140957223D01*
X148626474Y-140946828D01*
X148638132Y-140935969D01*
X148648919Y-140924647D01*
X148658836Y-140912860D01*
X148667882Y-140900611D01*
X148676057Y-140887897D01*
X148683362Y-140874720D01*
X148689857Y-140860601D01*
X148695713Y-140844952D01*
X148699262Y-140833669D01*
X148702527Y-140821706D01*
X148705509Y-140809063D01*
X148708206Y-140795740D01*
X148710619Y-140781737D01*
X148712749Y-140767054D01*
X148714595Y-140751691D01*
X148716156Y-140735647D01*
X148717434Y-140718924D01*
X148718428Y-140701520D01*
X148719137Y-140683437D01*
X148719563Y-140664673D01*
X148719705Y-140645230D01*
X148719705Y-140537958D01*
X147950633Y-140537958D01*
X147725539Y-140537958D01*
X147725539Y-140307881D01*
X148944800Y-140307881D01*
X148944800Y-140585732D01*
G37*
D12*
X113000619Y-167132095D02*
X113810142Y-167132095D01*
X113810142Y-167132095D02*
X113905380Y-167179714D01*
X113905380Y-167179714D02*
X113953000Y-167227333D01*
X113953000Y-167227333D02*
X114000619Y-167322571D01*
X114000619Y-167322571D02*
X114000619Y-167513047D01*
X114000619Y-167513047D02*
X113953000Y-167608285D01*
X113953000Y-167608285D02*
X113905380Y-167655904D01*
X113905380Y-167655904D02*
X113810142Y-167703523D01*
X113810142Y-167703523D02*
X113000619Y-167703523D01*
X113000619Y-168084476D02*
X113000619Y-168703523D01*
X113000619Y-168703523D02*
X113381571Y-168370190D01*
X113381571Y-168370190D02*
X113381571Y-168513047D01*
X113381571Y-168513047D02*
X113429190Y-168608285D01*
X113429190Y-168608285D02*
X113476809Y-168655904D01*
X113476809Y-168655904D02*
X113572047Y-168703523D01*
X113572047Y-168703523D02*
X113810142Y-168703523D01*
X113810142Y-168703523D02*
X113905380Y-168655904D01*
X113905380Y-168655904D02*
X113953000Y-168608285D01*
X113953000Y-168608285D02*
X114000619Y-168513047D01*
X114000619Y-168513047D02*
X114000619Y-168227333D01*
X114000619Y-168227333D02*
X113953000Y-168132095D01*
X113953000Y-168132095D02*
X113905380Y-168084476D01*
X105828180Y-155091133D02*
X105875800Y-155043514D01*
X105875800Y-155043514D02*
X105923419Y-154900657D01*
X105923419Y-154900657D02*
X105923419Y-154805419D01*
X105923419Y-154805419D02*
X105875800Y-154662562D01*
X105875800Y-154662562D02*
X105780561Y-154567324D01*
X105780561Y-154567324D02*
X105685323Y-154519705D01*
X105685323Y-154519705D02*
X105494847Y-154472086D01*
X105494847Y-154472086D02*
X105351990Y-154472086D01*
X105351990Y-154472086D02*
X105161514Y-154519705D01*
X105161514Y-154519705D02*
X105066276Y-154567324D01*
X105066276Y-154567324D02*
X104971038Y-154662562D01*
X104971038Y-154662562D02*
X104923419Y-154805419D01*
X104923419Y-154805419D02*
X104923419Y-154900657D01*
X104923419Y-154900657D02*
X104971038Y-155043514D01*
X104971038Y-155043514D02*
X105018657Y-155091133D01*
X105256752Y-155948276D02*
X105923419Y-155948276D01*
X104875800Y-155710181D02*
X105590085Y-155472086D01*
X105590085Y-155472086D02*
X105590085Y-156091133D01*
X102129419Y-167182495D02*
X102938942Y-167182495D01*
X102938942Y-167182495D02*
X103034180Y-167230114D01*
X103034180Y-167230114D02*
X103081800Y-167277733D01*
X103081800Y-167277733D02*
X103129419Y-167372971D01*
X103129419Y-167372971D02*
X103129419Y-167563447D01*
X103129419Y-167563447D02*
X103081800Y-167658685D01*
X103081800Y-167658685D02*
X103034180Y-167706304D01*
X103034180Y-167706304D02*
X102938942Y-167753923D01*
X102938942Y-167753923D02*
X102129419Y-167753923D01*
X102224657Y-168182495D02*
X102177038Y-168230114D01*
X102177038Y-168230114D02*
X102129419Y-168325352D01*
X102129419Y-168325352D02*
X102129419Y-168563447D01*
X102129419Y-168563447D02*
X102177038Y-168658685D01*
X102177038Y-168658685D02*
X102224657Y-168706304D01*
X102224657Y-168706304D02*
X102319895Y-168753923D01*
X102319895Y-168753923D02*
X102415133Y-168753923D01*
X102415133Y-168753923D02*
X102557990Y-168706304D01*
X102557990Y-168706304D02*
X103129419Y-168134876D01*
X103129419Y-168134876D02*
X103129419Y-168753923D01*
X86767666Y-144326980D02*
X86815285Y-144374600D01*
X86815285Y-144374600D02*
X86958142Y-144422219D01*
X86958142Y-144422219D02*
X87053380Y-144422219D01*
X87053380Y-144422219D02*
X87196237Y-144374600D01*
X87196237Y-144374600D02*
X87291475Y-144279361D01*
X87291475Y-144279361D02*
X87339094Y-144184123D01*
X87339094Y-144184123D02*
X87386713Y-143993647D01*
X87386713Y-143993647D02*
X87386713Y-143850790D01*
X87386713Y-143850790D02*
X87339094Y-143660314D01*
X87339094Y-143660314D02*
X87291475Y-143565076D01*
X87291475Y-143565076D02*
X87196237Y-143469838D01*
X87196237Y-143469838D02*
X87053380Y-143422219D01*
X87053380Y-143422219D02*
X86958142Y-143422219D01*
X86958142Y-143422219D02*
X86815285Y-143469838D01*
X86815285Y-143469838D02*
X86767666Y-143517457D01*
X85862904Y-143422219D02*
X86339094Y-143422219D01*
X86339094Y-143422219D02*
X86386713Y-143898409D01*
X86386713Y-143898409D02*
X86339094Y-143850790D01*
X86339094Y-143850790D02*
X86243856Y-143803171D01*
X86243856Y-143803171D02*
X86005761Y-143803171D01*
X86005761Y-143803171D02*
X85910523Y-143850790D01*
X85910523Y-143850790D02*
X85862904Y-143898409D01*
X85862904Y-143898409D02*
X85815285Y-143993647D01*
X85815285Y-143993647D02*
X85815285Y-144231742D01*
X85815285Y-144231742D02*
X85862904Y-144326980D01*
X85862904Y-144326980D02*
X85910523Y-144374600D01*
X85910523Y-144374600D02*
X86005761Y-144422219D01*
X86005761Y-144422219D02*
X86243856Y-144422219D01*
X86243856Y-144422219D02*
X86339094Y-144374600D01*
X86339094Y-144374600D02*
X86386713Y-144326980D01*
X152279619Y-152444095D02*
X153089142Y-152444095D01*
X153089142Y-152444095D02*
X153184380Y-152491714D01*
X153184380Y-152491714D02*
X153232000Y-152539333D01*
X153232000Y-152539333D02*
X153279619Y-152634571D01*
X153279619Y-152634571D02*
X153279619Y-152825047D01*
X153279619Y-152825047D02*
X153232000Y-152920285D01*
X153232000Y-152920285D02*
X153184380Y-152967904D01*
X153184380Y-152967904D02*
X153089142Y-153015523D01*
X153089142Y-153015523D02*
X152279619Y-153015523D01*
X152612952Y-153920285D02*
X153279619Y-153920285D01*
X152232000Y-153682190D02*
X152946285Y-153444095D01*
X152946285Y-153444095D02*
X152946285Y-154063142D01*
X113600580Y-157954742D02*
X113648200Y-157907123D01*
X113648200Y-157907123D02*
X113695819Y-157764266D01*
X113695819Y-157764266D02*
X113695819Y-157669028D01*
X113695819Y-157669028D02*
X113648200Y-157526171D01*
X113648200Y-157526171D02*
X113552961Y-157430933D01*
X113552961Y-157430933D02*
X113457723Y-157383314D01*
X113457723Y-157383314D02*
X113267247Y-157335695D01*
X113267247Y-157335695D02*
X113124390Y-157335695D01*
X113124390Y-157335695D02*
X112933914Y-157383314D01*
X112933914Y-157383314D02*
X112838676Y-157430933D01*
X112838676Y-157430933D02*
X112743438Y-157526171D01*
X112743438Y-157526171D02*
X112695819Y-157669028D01*
X112695819Y-157669028D02*
X112695819Y-157764266D01*
X112695819Y-157764266D02*
X112743438Y-157907123D01*
X112743438Y-157907123D02*
X112791057Y-157954742D01*
X113695819Y-158907123D02*
X113695819Y-158335695D01*
X113695819Y-158621409D02*
X112695819Y-158621409D01*
X112695819Y-158621409D02*
X112838676Y-158526171D01*
X112838676Y-158526171D02*
X112933914Y-158430933D01*
X112933914Y-158430933D02*
X112981533Y-158335695D01*
X112791057Y-159288076D02*
X112743438Y-159335695D01*
X112743438Y-159335695D02*
X112695819Y-159430933D01*
X112695819Y-159430933D02*
X112695819Y-159669028D01*
X112695819Y-159669028D02*
X112743438Y-159764266D01*
X112743438Y-159764266D02*
X112791057Y-159811885D01*
X112791057Y-159811885D02*
X112886295Y-159859504D01*
X112886295Y-159859504D02*
X112981533Y-159859504D01*
X112981533Y-159859504D02*
X113124390Y-159811885D01*
X113124390Y-159811885D02*
X113695819Y-159240457D01*
X113695819Y-159240457D02*
X113695819Y-159859504D01*
X97753466Y-157339380D02*
X97801085Y-157387000D01*
X97801085Y-157387000D02*
X97943942Y-157434619D01*
X97943942Y-157434619D02*
X98039180Y-157434619D01*
X98039180Y-157434619D02*
X98182037Y-157387000D01*
X98182037Y-157387000D02*
X98277275Y-157291761D01*
X98277275Y-157291761D02*
X98324894Y-157196523D01*
X98324894Y-157196523D02*
X98372513Y-157006047D01*
X98372513Y-157006047D02*
X98372513Y-156863190D01*
X98372513Y-156863190D02*
X98324894Y-156672714D01*
X98324894Y-156672714D02*
X98277275Y-156577476D01*
X98277275Y-156577476D02*
X98182037Y-156482238D01*
X98182037Y-156482238D02*
X98039180Y-156434619D01*
X98039180Y-156434619D02*
X97943942Y-156434619D01*
X97943942Y-156434619D02*
X97801085Y-156482238D01*
X97801085Y-156482238D02*
X97753466Y-156529857D01*
X96896323Y-156434619D02*
X97086799Y-156434619D01*
X97086799Y-156434619D02*
X97182037Y-156482238D01*
X97182037Y-156482238D02*
X97229656Y-156529857D01*
X97229656Y-156529857D02*
X97324894Y-156672714D01*
X97324894Y-156672714D02*
X97372513Y-156863190D01*
X97372513Y-156863190D02*
X97372513Y-157244142D01*
X97372513Y-157244142D02*
X97324894Y-157339380D01*
X97324894Y-157339380D02*
X97277275Y-157387000D01*
X97277275Y-157387000D02*
X97182037Y-157434619D01*
X97182037Y-157434619D02*
X96991561Y-157434619D01*
X96991561Y-157434619D02*
X96896323Y-157387000D01*
X96896323Y-157387000D02*
X96848704Y-157339380D01*
X96848704Y-157339380D02*
X96801085Y-157244142D01*
X96801085Y-157244142D02*
X96801085Y-157006047D01*
X96801085Y-157006047D02*
X96848704Y-156910809D01*
X96848704Y-156910809D02*
X96896323Y-156863190D01*
X96896323Y-156863190D02*
X96991561Y-156815571D01*
X96991561Y-156815571D02*
X97182037Y-156815571D01*
X97182037Y-156815571D02*
X97277275Y-156863190D01*
X97277275Y-156863190D02*
X97324894Y-156910809D01*
X97324894Y-156910809D02*
X97372513Y-157006047D01*
X58465333Y-145973380D02*
X58512952Y-146021000D01*
X58512952Y-146021000D02*
X58655809Y-146068619D01*
X58655809Y-146068619D02*
X58751047Y-146068619D01*
X58751047Y-146068619D02*
X58893904Y-146021000D01*
X58893904Y-146021000D02*
X58989142Y-145925761D01*
X58989142Y-145925761D02*
X59036761Y-145830523D01*
X59036761Y-145830523D02*
X59084380Y-145640047D01*
X59084380Y-145640047D02*
X59084380Y-145497190D01*
X59084380Y-145497190D02*
X59036761Y-145306714D01*
X59036761Y-145306714D02*
X58989142Y-145211476D01*
X58989142Y-145211476D02*
X58893904Y-145116238D01*
X58893904Y-145116238D02*
X58751047Y-145068619D01*
X58751047Y-145068619D02*
X58655809Y-145068619D01*
X58655809Y-145068619D02*
X58512952Y-145116238D01*
X58512952Y-145116238D02*
X58465333Y-145163857D01*
X57512952Y-146068619D02*
X58084380Y-146068619D01*
X57798666Y-146068619D02*
X57798666Y-145068619D01*
X57798666Y-145068619D02*
X57893904Y-145211476D01*
X57893904Y-145211476D02*
X57989142Y-145306714D01*
X57989142Y-145306714D02*
X58084380Y-145354333D01*
X57036761Y-146068619D02*
X56846285Y-146068619D01*
X56846285Y-146068619D02*
X56751047Y-146021000D01*
X56751047Y-146021000D02*
X56703428Y-145973380D01*
X56703428Y-145973380D02*
X56608190Y-145830523D01*
X56608190Y-145830523D02*
X56560571Y-145640047D01*
X56560571Y-145640047D02*
X56560571Y-145259095D01*
X56560571Y-145259095D02*
X56608190Y-145163857D01*
X56608190Y-145163857D02*
X56655809Y-145116238D01*
X56655809Y-145116238D02*
X56751047Y-145068619D01*
X56751047Y-145068619D02*
X56941523Y-145068619D01*
X56941523Y-145068619D02*
X57036761Y-145116238D01*
X57036761Y-145116238D02*
X57084380Y-145163857D01*
X57084380Y-145163857D02*
X57131999Y-145259095D01*
X57131999Y-145259095D02*
X57131999Y-145497190D01*
X57131999Y-145497190D02*
X57084380Y-145592428D01*
X57084380Y-145592428D02*
X57036761Y-145640047D01*
X57036761Y-145640047D02*
X56941523Y-145687666D01*
X56941523Y-145687666D02*
X56751047Y-145687666D01*
X56751047Y-145687666D02*
X56655809Y-145640047D01*
X56655809Y-145640047D02*
X56608190Y-145592428D01*
X56608190Y-145592428D02*
X56560571Y-145497190D01*
X107701419Y-162305933D02*
X107225228Y-161972600D01*
X107701419Y-161734505D02*
X106701419Y-161734505D01*
X106701419Y-161734505D02*
X106701419Y-162115457D01*
X106701419Y-162115457D02*
X106749038Y-162210695D01*
X106749038Y-162210695D02*
X106796657Y-162258314D01*
X106796657Y-162258314D02*
X106891895Y-162305933D01*
X106891895Y-162305933D02*
X107034752Y-162305933D01*
X107034752Y-162305933D02*
X107129990Y-162258314D01*
X107129990Y-162258314D02*
X107177609Y-162210695D01*
X107177609Y-162210695D02*
X107225228Y-162115457D01*
X107225228Y-162115457D02*
X107225228Y-161734505D01*
X106796657Y-162686886D02*
X106749038Y-162734505D01*
X106749038Y-162734505D02*
X106701419Y-162829743D01*
X106701419Y-162829743D02*
X106701419Y-163067838D01*
X106701419Y-163067838D02*
X106749038Y-163163076D01*
X106749038Y-163163076D02*
X106796657Y-163210695D01*
X106796657Y-163210695D02*
X106891895Y-163258314D01*
X106891895Y-163258314D02*
X106987133Y-163258314D01*
X106987133Y-163258314D02*
X107129990Y-163210695D01*
X107129990Y-163210695D02*
X107701419Y-162639267D01*
X107701419Y-162639267D02*
X107701419Y-163258314D01*
X81647380Y-136631742D02*
X81695000Y-136584123D01*
X81695000Y-136584123D02*
X81742619Y-136441266D01*
X81742619Y-136441266D02*
X81742619Y-136346028D01*
X81742619Y-136346028D02*
X81695000Y-136203171D01*
X81695000Y-136203171D02*
X81599761Y-136107933D01*
X81599761Y-136107933D02*
X81504523Y-136060314D01*
X81504523Y-136060314D02*
X81314047Y-136012695D01*
X81314047Y-136012695D02*
X81171190Y-136012695D01*
X81171190Y-136012695D02*
X80980714Y-136060314D01*
X80980714Y-136060314D02*
X80885476Y-136107933D01*
X80885476Y-136107933D02*
X80790238Y-136203171D01*
X80790238Y-136203171D02*
X80742619Y-136346028D01*
X80742619Y-136346028D02*
X80742619Y-136441266D01*
X80742619Y-136441266D02*
X80790238Y-136584123D01*
X80790238Y-136584123D02*
X80837857Y-136631742D01*
X80837857Y-137012695D02*
X80790238Y-137060314D01*
X80790238Y-137060314D02*
X80742619Y-137155552D01*
X80742619Y-137155552D02*
X80742619Y-137393647D01*
X80742619Y-137393647D02*
X80790238Y-137488885D01*
X80790238Y-137488885D02*
X80837857Y-137536504D01*
X80837857Y-137536504D02*
X80933095Y-137584123D01*
X80933095Y-137584123D02*
X81028333Y-137584123D01*
X81028333Y-137584123D02*
X81171190Y-137536504D01*
X81171190Y-137536504D02*
X81742619Y-136965076D01*
X81742619Y-136965076D02*
X81742619Y-137584123D01*
X80742619Y-138203171D02*
X80742619Y-138298409D01*
X80742619Y-138298409D02*
X80790238Y-138393647D01*
X80790238Y-138393647D02*
X80837857Y-138441266D01*
X80837857Y-138441266D02*
X80933095Y-138488885D01*
X80933095Y-138488885D02*
X81123571Y-138536504D01*
X81123571Y-138536504D02*
X81361666Y-138536504D01*
X81361666Y-138536504D02*
X81552142Y-138488885D01*
X81552142Y-138488885D02*
X81647380Y-138441266D01*
X81647380Y-138441266D02*
X81695000Y-138393647D01*
X81695000Y-138393647D02*
X81742619Y-138298409D01*
X81742619Y-138298409D02*
X81742619Y-138203171D01*
X81742619Y-138203171D02*
X81695000Y-138107933D01*
X81695000Y-138107933D02*
X81647380Y-138060314D01*
X81647380Y-138060314D02*
X81552142Y-138012695D01*
X81552142Y-138012695D02*
X81361666Y-137965076D01*
X81361666Y-137965076D02*
X81123571Y-137965076D01*
X81123571Y-137965076D02*
X80933095Y-138012695D01*
X80933095Y-138012695D02*
X80837857Y-138060314D01*
X80837857Y-138060314D02*
X80790238Y-138107933D01*
X80790238Y-138107933D02*
X80742619Y-138203171D01*
X102729380Y-143089333D02*
X102777000Y-143041714D01*
X102777000Y-143041714D02*
X102824619Y-142898857D01*
X102824619Y-142898857D02*
X102824619Y-142803619D01*
X102824619Y-142803619D02*
X102777000Y-142660762D01*
X102777000Y-142660762D02*
X102681761Y-142565524D01*
X102681761Y-142565524D02*
X102586523Y-142517905D01*
X102586523Y-142517905D02*
X102396047Y-142470286D01*
X102396047Y-142470286D02*
X102253190Y-142470286D01*
X102253190Y-142470286D02*
X102062714Y-142517905D01*
X102062714Y-142517905D02*
X101967476Y-142565524D01*
X101967476Y-142565524D02*
X101872238Y-142660762D01*
X101872238Y-142660762D02*
X101824619Y-142803619D01*
X101824619Y-142803619D02*
X101824619Y-142898857D01*
X101824619Y-142898857D02*
X101872238Y-143041714D01*
X101872238Y-143041714D02*
X101919857Y-143089333D01*
X102824619Y-144041714D02*
X102824619Y-143470286D01*
X102824619Y-143756000D02*
X101824619Y-143756000D01*
X101824619Y-143756000D02*
X101967476Y-143660762D01*
X101967476Y-143660762D02*
X102062714Y-143565524D01*
X102062714Y-143565524D02*
X102110333Y-143470286D01*
X86221866Y-147679780D02*
X86269485Y-147727400D01*
X86269485Y-147727400D02*
X86412342Y-147775019D01*
X86412342Y-147775019D02*
X86507580Y-147775019D01*
X86507580Y-147775019D02*
X86650437Y-147727400D01*
X86650437Y-147727400D02*
X86745675Y-147632161D01*
X86745675Y-147632161D02*
X86793294Y-147536923D01*
X86793294Y-147536923D02*
X86840913Y-147346447D01*
X86840913Y-147346447D02*
X86840913Y-147203590D01*
X86840913Y-147203590D02*
X86793294Y-147013114D01*
X86793294Y-147013114D02*
X86745675Y-146917876D01*
X86745675Y-146917876D02*
X86650437Y-146822638D01*
X86650437Y-146822638D02*
X86507580Y-146775019D01*
X86507580Y-146775019D02*
X86412342Y-146775019D01*
X86412342Y-146775019D02*
X86269485Y-146822638D01*
X86269485Y-146822638D02*
X86221866Y-146870257D01*
X85888532Y-146775019D02*
X85269485Y-146775019D01*
X85269485Y-146775019D02*
X85602818Y-147155971D01*
X85602818Y-147155971D02*
X85459961Y-147155971D01*
X85459961Y-147155971D02*
X85364723Y-147203590D01*
X85364723Y-147203590D02*
X85317104Y-147251209D01*
X85317104Y-147251209D02*
X85269485Y-147346447D01*
X85269485Y-147346447D02*
X85269485Y-147584542D01*
X85269485Y-147584542D02*
X85317104Y-147679780D01*
X85317104Y-147679780D02*
X85364723Y-147727400D01*
X85364723Y-147727400D02*
X85459961Y-147775019D01*
X85459961Y-147775019D02*
X85745675Y-147775019D01*
X85745675Y-147775019D02*
X85840913Y-147727400D01*
X85840913Y-147727400D02*
X85888532Y-147679780D01*
X58465333Y-148005380D02*
X58512952Y-148053000D01*
X58512952Y-148053000D02*
X58655809Y-148100619D01*
X58655809Y-148100619D02*
X58751047Y-148100619D01*
X58751047Y-148100619D02*
X58893904Y-148053000D01*
X58893904Y-148053000D02*
X58989142Y-147957761D01*
X58989142Y-147957761D02*
X59036761Y-147862523D01*
X59036761Y-147862523D02*
X59084380Y-147672047D01*
X59084380Y-147672047D02*
X59084380Y-147529190D01*
X59084380Y-147529190D02*
X59036761Y-147338714D01*
X59036761Y-147338714D02*
X58989142Y-147243476D01*
X58989142Y-147243476D02*
X58893904Y-147148238D01*
X58893904Y-147148238D02*
X58751047Y-147100619D01*
X58751047Y-147100619D02*
X58655809Y-147100619D01*
X58655809Y-147100619D02*
X58512952Y-147148238D01*
X58512952Y-147148238D02*
X58465333Y-147195857D01*
X57512952Y-148100619D02*
X58084380Y-148100619D01*
X57798666Y-148100619D02*
X57798666Y-147100619D01*
X57798666Y-147100619D02*
X57893904Y-147243476D01*
X57893904Y-147243476D02*
X57989142Y-147338714D01*
X57989142Y-147338714D02*
X58084380Y-147386333D01*
X56608190Y-147100619D02*
X57084380Y-147100619D01*
X57084380Y-147100619D02*
X57131999Y-147576809D01*
X57131999Y-147576809D02*
X57084380Y-147529190D01*
X57084380Y-147529190D02*
X56989142Y-147481571D01*
X56989142Y-147481571D02*
X56751047Y-147481571D01*
X56751047Y-147481571D02*
X56655809Y-147529190D01*
X56655809Y-147529190D02*
X56608190Y-147576809D01*
X56608190Y-147576809D02*
X56560571Y-147672047D01*
X56560571Y-147672047D02*
X56560571Y-147910142D01*
X56560571Y-147910142D02*
X56608190Y-148005380D01*
X56608190Y-148005380D02*
X56655809Y-148053000D01*
X56655809Y-148053000D02*
X56751047Y-148100619D01*
X56751047Y-148100619D02*
X56989142Y-148100619D01*
X56989142Y-148100619D02*
X57084380Y-148053000D01*
X57084380Y-148053000D02*
X57131999Y-148005380D01*
X86467019Y-156628133D02*
X86467019Y-156151943D01*
X86467019Y-156151943D02*
X85467019Y-156151943D01*
X86467019Y-157485276D02*
X86467019Y-156913848D01*
X86467019Y-157199562D02*
X85467019Y-157199562D01*
X85467019Y-157199562D02*
X85609876Y-157104324D01*
X85609876Y-157104324D02*
X85705114Y-157009086D01*
X85705114Y-157009086D02*
X85752733Y-156913848D01*
X58093619Y-152190095D02*
X58903142Y-152190095D01*
X58903142Y-152190095D02*
X58998380Y-152237714D01*
X58998380Y-152237714D02*
X59046000Y-152285333D01*
X59046000Y-152285333D02*
X59093619Y-152380571D01*
X59093619Y-152380571D02*
X59093619Y-152571047D01*
X59093619Y-152571047D02*
X59046000Y-152666285D01*
X59046000Y-152666285D02*
X58998380Y-152713904D01*
X58998380Y-152713904D02*
X58903142Y-152761523D01*
X58903142Y-152761523D02*
X58093619Y-152761523D01*
X58093619Y-153713904D02*
X58093619Y-153237714D01*
X58093619Y-153237714D02*
X58569809Y-153190095D01*
X58569809Y-153190095D02*
X58522190Y-153237714D01*
X58522190Y-153237714D02*
X58474571Y-153332952D01*
X58474571Y-153332952D02*
X58474571Y-153571047D01*
X58474571Y-153571047D02*
X58522190Y-153666285D01*
X58522190Y-153666285D02*
X58569809Y-153713904D01*
X58569809Y-153713904D02*
X58665047Y-153761523D01*
X58665047Y-153761523D02*
X58903142Y-153761523D01*
X58903142Y-153761523D02*
X58998380Y-153713904D01*
X58998380Y-153713904D02*
X59046000Y-153666285D01*
X59046000Y-153666285D02*
X59093619Y-153571047D01*
X59093619Y-153571047D02*
X59093619Y-153332952D01*
X59093619Y-153332952D02*
X59046000Y-153237714D01*
X59046000Y-153237714D02*
X58998380Y-153190095D01*
X89927780Y-156882133D02*
X89975400Y-156834514D01*
X89975400Y-156834514D02*
X90023019Y-156691657D01*
X90023019Y-156691657D02*
X90023019Y-156596419D01*
X90023019Y-156596419D02*
X89975400Y-156453562D01*
X89975400Y-156453562D02*
X89880161Y-156358324D01*
X89880161Y-156358324D02*
X89784923Y-156310705D01*
X89784923Y-156310705D02*
X89594447Y-156263086D01*
X89594447Y-156263086D02*
X89451590Y-156263086D01*
X89451590Y-156263086D02*
X89261114Y-156310705D01*
X89261114Y-156310705D02*
X89165876Y-156358324D01*
X89165876Y-156358324D02*
X89070638Y-156453562D01*
X89070638Y-156453562D02*
X89023019Y-156596419D01*
X89023019Y-156596419D02*
X89023019Y-156691657D01*
X89023019Y-156691657D02*
X89070638Y-156834514D01*
X89070638Y-156834514D02*
X89118257Y-156882133D01*
X90023019Y-157358324D02*
X90023019Y-157548800D01*
X90023019Y-157548800D02*
X89975400Y-157644038D01*
X89975400Y-157644038D02*
X89927780Y-157691657D01*
X89927780Y-157691657D02*
X89784923Y-157786895D01*
X89784923Y-157786895D02*
X89594447Y-157834514D01*
X89594447Y-157834514D02*
X89213495Y-157834514D01*
X89213495Y-157834514D02*
X89118257Y-157786895D01*
X89118257Y-157786895D02*
X89070638Y-157739276D01*
X89070638Y-157739276D02*
X89023019Y-157644038D01*
X89023019Y-157644038D02*
X89023019Y-157453562D01*
X89023019Y-157453562D02*
X89070638Y-157358324D01*
X89070638Y-157358324D02*
X89118257Y-157310705D01*
X89118257Y-157310705D02*
X89213495Y-157263086D01*
X89213495Y-157263086D02*
X89451590Y-157263086D01*
X89451590Y-157263086D02*
X89546828Y-157310705D01*
X89546828Y-157310705D02*
X89594447Y-157358324D01*
X89594447Y-157358324D02*
X89642066Y-157453562D01*
X89642066Y-157453562D02*
X89642066Y-157644038D01*
X89642066Y-157644038D02*
X89594447Y-157739276D01*
X89594447Y-157739276D02*
X89546828Y-157786895D01*
X89546828Y-157786895D02*
X89451590Y-157834514D01*
X101836457Y-161395780D02*
X101884076Y-161443400D01*
X101884076Y-161443400D02*
X102026933Y-161491019D01*
X102026933Y-161491019D02*
X102122171Y-161491019D01*
X102122171Y-161491019D02*
X102265028Y-161443400D01*
X102265028Y-161443400D02*
X102360266Y-161348161D01*
X102360266Y-161348161D02*
X102407885Y-161252923D01*
X102407885Y-161252923D02*
X102455504Y-161062447D01*
X102455504Y-161062447D02*
X102455504Y-160919590D01*
X102455504Y-160919590D02*
X102407885Y-160729114D01*
X102407885Y-160729114D02*
X102360266Y-160633876D01*
X102360266Y-160633876D02*
X102265028Y-160538638D01*
X102265028Y-160538638D02*
X102122171Y-160491019D01*
X102122171Y-160491019D02*
X102026933Y-160491019D01*
X102026933Y-160491019D02*
X101884076Y-160538638D01*
X101884076Y-160538638D02*
X101836457Y-160586257D01*
X100884076Y-161491019D02*
X101455504Y-161491019D01*
X101169790Y-161491019D02*
X101169790Y-160491019D01*
X101169790Y-160491019D02*
X101265028Y-160633876D01*
X101265028Y-160633876D02*
X101360266Y-160729114D01*
X101360266Y-160729114D02*
X101455504Y-160776733D01*
X100550742Y-160491019D02*
X99931695Y-160491019D01*
X99931695Y-160491019D02*
X100265028Y-160871971D01*
X100265028Y-160871971D02*
X100122171Y-160871971D01*
X100122171Y-160871971D02*
X100026933Y-160919590D01*
X100026933Y-160919590D02*
X99979314Y-160967209D01*
X99979314Y-160967209D02*
X99931695Y-161062447D01*
X99931695Y-161062447D02*
X99931695Y-161300542D01*
X99931695Y-161300542D02*
X99979314Y-161395780D01*
X99979314Y-161395780D02*
X100026933Y-161443400D01*
X100026933Y-161443400D02*
X100122171Y-161491019D01*
X100122171Y-161491019D02*
X100407885Y-161491019D01*
X100407885Y-161491019D02*
X100503123Y-161443400D01*
X100503123Y-161443400D02*
X100550742Y-161395780D01*
X117004180Y-157980742D02*
X117051800Y-157933123D01*
X117051800Y-157933123D02*
X117099419Y-157790266D01*
X117099419Y-157790266D02*
X117099419Y-157695028D01*
X117099419Y-157695028D02*
X117051800Y-157552171D01*
X117051800Y-157552171D02*
X116956561Y-157456933D01*
X116956561Y-157456933D02*
X116861323Y-157409314D01*
X116861323Y-157409314D02*
X116670847Y-157361695D01*
X116670847Y-157361695D02*
X116527990Y-157361695D01*
X116527990Y-157361695D02*
X116337514Y-157409314D01*
X116337514Y-157409314D02*
X116242276Y-157456933D01*
X116242276Y-157456933D02*
X116147038Y-157552171D01*
X116147038Y-157552171D02*
X116099419Y-157695028D01*
X116099419Y-157695028D02*
X116099419Y-157790266D01*
X116099419Y-157790266D02*
X116147038Y-157933123D01*
X116147038Y-157933123D02*
X116194657Y-157980742D01*
X117099419Y-158933123D02*
X117099419Y-158361695D01*
X117099419Y-158647409D02*
X116099419Y-158647409D01*
X116099419Y-158647409D02*
X116242276Y-158552171D01*
X116242276Y-158552171D02*
X116337514Y-158456933D01*
X116337514Y-158456933D02*
X116385133Y-158361695D01*
X116099419Y-159266457D02*
X116099419Y-159933123D01*
X116099419Y-159933123D02*
X117099419Y-159504552D01*
X109225419Y-162230733D02*
X108749228Y-161897400D01*
X109225419Y-161659305D02*
X108225419Y-161659305D01*
X108225419Y-161659305D02*
X108225419Y-162040257D01*
X108225419Y-162040257D02*
X108273038Y-162135495D01*
X108273038Y-162135495D02*
X108320657Y-162183114D01*
X108320657Y-162183114D02*
X108415895Y-162230733D01*
X108415895Y-162230733D02*
X108558752Y-162230733D01*
X108558752Y-162230733D02*
X108653990Y-162183114D01*
X108653990Y-162183114D02*
X108701609Y-162135495D01*
X108701609Y-162135495D02*
X108749228Y-162040257D01*
X108749228Y-162040257D02*
X108749228Y-161659305D01*
X108558752Y-163087876D02*
X109225419Y-163087876D01*
X108177800Y-162849781D02*
X108892085Y-162611686D01*
X108892085Y-162611686D02*
X108892085Y-163230733D01*
X97855066Y-158964980D02*
X97902685Y-159012600D01*
X97902685Y-159012600D02*
X98045542Y-159060219D01*
X98045542Y-159060219D02*
X98140780Y-159060219D01*
X98140780Y-159060219D02*
X98283637Y-159012600D01*
X98283637Y-159012600D02*
X98378875Y-158917361D01*
X98378875Y-158917361D02*
X98426494Y-158822123D01*
X98426494Y-158822123D02*
X98474113Y-158631647D01*
X98474113Y-158631647D02*
X98474113Y-158488790D01*
X98474113Y-158488790D02*
X98426494Y-158298314D01*
X98426494Y-158298314D02*
X98378875Y-158203076D01*
X98378875Y-158203076D02*
X98283637Y-158107838D01*
X98283637Y-158107838D02*
X98140780Y-158060219D01*
X98140780Y-158060219D02*
X98045542Y-158060219D01*
X98045542Y-158060219D02*
X97902685Y-158107838D01*
X97902685Y-158107838D02*
X97855066Y-158155457D01*
X97521732Y-158060219D02*
X96855066Y-158060219D01*
X96855066Y-158060219D02*
X97283637Y-159060219D01*
X142164333Y-147687380D02*
X142211952Y-147735000D01*
X142211952Y-147735000D02*
X142354809Y-147782619D01*
X142354809Y-147782619D02*
X142450047Y-147782619D01*
X142450047Y-147782619D02*
X142592904Y-147735000D01*
X142592904Y-147735000D02*
X142688142Y-147639761D01*
X142688142Y-147639761D02*
X142735761Y-147544523D01*
X142735761Y-147544523D02*
X142783380Y-147354047D01*
X142783380Y-147354047D02*
X142783380Y-147211190D01*
X142783380Y-147211190D02*
X142735761Y-147020714D01*
X142735761Y-147020714D02*
X142688142Y-146925476D01*
X142688142Y-146925476D02*
X142592904Y-146830238D01*
X142592904Y-146830238D02*
X142450047Y-146782619D01*
X142450047Y-146782619D02*
X142354809Y-146782619D01*
X142354809Y-146782619D02*
X142211952Y-146830238D01*
X142211952Y-146830238D02*
X142164333Y-146877857D01*
X141211952Y-147782619D02*
X141783380Y-147782619D01*
X141497666Y-147782619D02*
X141497666Y-146782619D01*
X141497666Y-146782619D02*
X141592904Y-146925476D01*
X141592904Y-146925476D02*
X141688142Y-147020714D01*
X141688142Y-147020714D02*
X141783380Y-147068333D01*
X140354809Y-147115952D02*
X140354809Y-147782619D01*
X140592904Y-146735000D02*
X140830999Y-147449285D01*
X140830999Y-147449285D02*
X140211952Y-147449285D01*
X119086980Y-157980742D02*
X119134600Y-157933123D01*
X119134600Y-157933123D02*
X119182219Y-157790266D01*
X119182219Y-157790266D02*
X119182219Y-157695028D01*
X119182219Y-157695028D02*
X119134600Y-157552171D01*
X119134600Y-157552171D02*
X119039361Y-157456933D01*
X119039361Y-157456933D02*
X118944123Y-157409314D01*
X118944123Y-157409314D02*
X118753647Y-157361695D01*
X118753647Y-157361695D02*
X118610790Y-157361695D01*
X118610790Y-157361695D02*
X118420314Y-157409314D01*
X118420314Y-157409314D02*
X118325076Y-157456933D01*
X118325076Y-157456933D02*
X118229838Y-157552171D01*
X118229838Y-157552171D02*
X118182219Y-157695028D01*
X118182219Y-157695028D02*
X118182219Y-157790266D01*
X118182219Y-157790266D02*
X118229838Y-157933123D01*
X118229838Y-157933123D02*
X118277457Y-157980742D01*
X119182219Y-158933123D02*
X119182219Y-158361695D01*
X119182219Y-158647409D02*
X118182219Y-158647409D01*
X118182219Y-158647409D02*
X118325076Y-158552171D01*
X118325076Y-158552171D02*
X118420314Y-158456933D01*
X118420314Y-158456933D02*
X118467933Y-158361695D01*
X118610790Y-159504552D02*
X118563171Y-159409314D01*
X118563171Y-159409314D02*
X118515552Y-159361695D01*
X118515552Y-159361695D02*
X118420314Y-159314076D01*
X118420314Y-159314076D02*
X118372695Y-159314076D01*
X118372695Y-159314076D02*
X118277457Y-159361695D01*
X118277457Y-159361695D02*
X118229838Y-159409314D01*
X118229838Y-159409314D02*
X118182219Y-159504552D01*
X118182219Y-159504552D02*
X118182219Y-159695028D01*
X118182219Y-159695028D02*
X118229838Y-159790266D01*
X118229838Y-159790266D02*
X118277457Y-159837885D01*
X118277457Y-159837885D02*
X118372695Y-159885504D01*
X118372695Y-159885504D02*
X118420314Y-159885504D01*
X118420314Y-159885504D02*
X118515552Y-159837885D01*
X118515552Y-159837885D02*
X118563171Y-159790266D01*
X118563171Y-159790266D02*
X118610790Y-159695028D01*
X118610790Y-159695028D02*
X118610790Y-159504552D01*
X118610790Y-159504552D02*
X118658409Y-159409314D01*
X118658409Y-159409314D02*
X118706028Y-159361695D01*
X118706028Y-159361695D02*
X118801266Y-159314076D01*
X118801266Y-159314076D02*
X118991742Y-159314076D01*
X118991742Y-159314076D02*
X119086980Y-159361695D01*
X119086980Y-159361695D02*
X119134600Y-159409314D01*
X119134600Y-159409314D02*
X119182219Y-159504552D01*
X119182219Y-159504552D02*
X119182219Y-159695028D01*
X119182219Y-159695028D02*
X119134600Y-159790266D01*
X119134600Y-159790266D02*
X119086980Y-159837885D01*
X119086980Y-159837885D02*
X118991742Y-159885504D01*
X118991742Y-159885504D02*
X118801266Y-159885504D01*
X118801266Y-159885504D02*
X118706028Y-159837885D01*
X118706028Y-159837885D02*
X118658409Y-159790266D01*
X118658409Y-159790266D02*
X118610790Y-159695028D01*
X100634704Y-156434619D02*
X100634704Y-157244142D01*
X100634704Y-157244142D02*
X100587085Y-157339380D01*
X100587085Y-157339380D02*
X100539466Y-157387000D01*
X100539466Y-157387000D02*
X100444228Y-157434619D01*
X100444228Y-157434619D02*
X100253752Y-157434619D01*
X100253752Y-157434619D02*
X100158514Y-157387000D01*
X100158514Y-157387000D02*
X100110895Y-157339380D01*
X100110895Y-157339380D02*
X100063276Y-157244142D01*
X100063276Y-157244142D02*
X100063276Y-156434619D01*
X99063276Y-157434619D02*
X99634704Y-157434619D01*
X99348990Y-157434619D02*
X99348990Y-156434619D01*
X99348990Y-156434619D02*
X99444228Y-156577476D01*
X99444228Y-156577476D02*
X99539466Y-156672714D01*
X99539466Y-156672714D02*
X99634704Y-156720333D01*
X130931857Y-169676180D02*
X130979476Y-169723800D01*
X130979476Y-169723800D02*
X131122333Y-169771419D01*
X131122333Y-169771419D02*
X131217571Y-169771419D01*
X131217571Y-169771419D02*
X131360428Y-169723800D01*
X131360428Y-169723800D02*
X131455666Y-169628561D01*
X131455666Y-169628561D02*
X131503285Y-169533323D01*
X131503285Y-169533323D02*
X131550904Y-169342847D01*
X131550904Y-169342847D02*
X131550904Y-169199990D01*
X131550904Y-169199990D02*
X131503285Y-169009514D01*
X131503285Y-169009514D02*
X131455666Y-168914276D01*
X131455666Y-168914276D02*
X131360428Y-168819038D01*
X131360428Y-168819038D02*
X131217571Y-168771419D01*
X131217571Y-168771419D02*
X131122333Y-168771419D01*
X131122333Y-168771419D02*
X130979476Y-168819038D01*
X130979476Y-168819038D02*
X130931857Y-168866657D01*
X129979476Y-169771419D02*
X130550904Y-169771419D01*
X130265190Y-169771419D02*
X130265190Y-168771419D01*
X130265190Y-168771419D02*
X130360428Y-168914276D01*
X130360428Y-168914276D02*
X130455666Y-169009514D01*
X130455666Y-169009514D02*
X130550904Y-169057133D01*
X129360428Y-168771419D02*
X129265190Y-168771419D01*
X129265190Y-168771419D02*
X129169952Y-168819038D01*
X129169952Y-168819038D02*
X129122333Y-168866657D01*
X129122333Y-168866657D02*
X129074714Y-168961895D01*
X129074714Y-168961895D02*
X129027095Y-169152371D01*
X129027095Y-169152371D02*
X129027095Y-169390466D01*
X129027095Y-169390466D02*
X129074714Y-169580942D01*
X129074714Y-169580942D02*
X129122333Y-169676180D01*
X129122333Y-169676180D02*
X129169952Y-169723800D01*
X129169952Y-169723800D02*
X129265190Y-169771419D01*
X129265190Y-169771419D02*
X129360428Y-169771419D01*
X129360428Y-169771419D02*
X129455666Y-169723800D01*
X129455666Y-169723800D02*
X129503285Y-169676180D01*
X129503285Y-169676180D02*
X129550904Y-169580942D01*
X129550904Y-169580942D02*
X129598523Y-169390466D01*
X129598523Y-169390466D02*
X129598523Y-169152371D01*
X129598523Y-169152371D02*
X129550904Y-168961895D01*
X129550904Y-168961895D02*
X129503285Y-168866657D01*
X129503285Y-168866657D02*
X129455666Y-168819038D01*
X129455666Y-168819038D02*
X129360428Y-168771419D01*
X88149780Y-156577333D02*
X88197400Y-156529714D01*
X88197400Y-156529714D02*
X88245019Y-156386857D01*
X88245019Y-156386857D02*
X88245019Y-156291619D01*
X88245019Y-156291619D02*
X88197400Y-156148762D01*
X88197400Y-156148762D02*
X88102161Y-156053524D01*
X88102161Y-156053524D02*
X88006923Y-156005905D01*
X88006923Y-156005905D02*
X87816447Y-155958286D01*
X87816447Y-155958286D02*
X87673590Y-155958286D01*
X87673590Y-155958286D02*
X87483114Y-156005905D01*
X87483114Y-156005905D02*
X87387876Y-156053524D01*
X87387876Y-156053524D02*
X87292638Y-156148762D01*
X87292638Y-156148762D02*
X87245019Y-156291619D01*
X87245019Y-156291619D02*
X87245019Y-156386857D01*
X87245019Y-156386857D02*
X87292638Y-156529714D01*
X87292638Y-156529714D02*
X87340257Y-156577333D01*
X87673590Y-157148762D02*
X87625971Y-157053524D01*
X87625971Y-157053524D02*
X87578352Y-157005905D01*
X87578352Y-157005905D02*
X87483114Y-156958286D01*
X87483114Y-156958286D02*
X87435495Y-156958286D01*
X87435495Y-156958286D02*
X87340257Y-157005905D01*
X87340257Y-157005905D02*
X87292638Y-157053524D01*
X87292638Y-157053524D02*
X87245019Y-157148762D01*
X87245019Y-157148762D02*
X87245019Y-157339238D01*
X87245019Y-157339238D02*
X87292638Y-157434476D01*
X87292638Y-157434476D02*
X87340257Y-157482095D01*
X87340257Y-157482095D02*
X87435495Y-157529714D01*
X87435495Y-157529714D02*
X87483114Y-157529714D01*
X87483114Y-157529714D02*
X87578352Y-157482095D01*
X87578352Y-157482095D02*
X87625971Y-157434476D01*
X87625971Y-157434476D02*
X87673590Y-157339238D01*
X87673590Y-157339238D02*
X87673590Y-157148762D01*
X87673590Y-157148762D02*
X87721209Y-157053524D01*
X87721209Y-157053524D02*
X87768828Y-157005905D01*
X87768828Y-157005905D02*
X87864066Y-156958286D01*
X87864066Y-156958286D02*
X88054542Y-156958286D01*
X88054542Y-156958286D02*
X88149780Y-157005905D01*
X88149780Y-157005905D02*
X88197400Y-157053524D01*
X88197400Y-157053524D02*
X88245019Y-157148762D01*
X88245019Y-157148762D02*
X88245019Y-157339238D01*
X88245019Y-157339238D02*
X88197400Y-157434476D01*
X88197400Y-157434476D02*
X88149780Y-157482095D01*
X88149780Y-157482095D02*
X88054542Y-157529714D01*
X88054542Y-157529714D02*
X87864066Y-157529714D01*
X87864066Y-157529714D02*
X87768828Y-157482095D01*
X87768828Y-157482095D02*
X87721209Y-157434476D01*
X87721209Y-157434476D02*
X87673590Y-157339238D01*
G36*
X97366748Y-136070966D02*
G01*
X97378445Y-136072374D01*
X97389798Y-136074721D01*
X97400808Y-136078007D01*
X97411475Y-136082231D01*
X97421798Y-136087395D01*
X97431777Y-136093497D01*
X97441414Y-136100538D01*
X97450542Y-136108724D01*
X97459121Y-136118261D01*
X97465195Y-136126300D01*
X97470959Y-136135099D01*
X97476415Y-136144659D01*
X97481561Y-136154978D01*
X97486398Y-136166056D01*
X97490926Y-136177895D01*
X97495145Y-136190494D01*
X97499055Y-136203853D01*
X97502590Y-136218145D01*
X97504754Y-136228338D01*
X97506764Y-136239064D01*
X97508618Y-136250322D01*
X97510318Y-136262112D01*
X97511864Y-136274435D01*
X97513255Y-136287290D01*
X97514491Y-136300678D01*
X97515573Y-136314598D01*
X97516501Y-136329050D01*
X97517274Y-136344035D01*
X97517892Y-136359552D01*
X97518355Y-136375601D01*
X97518665Y-136392183D01*
X97518819Y-136409297D01*
X97518838Y-136418054D01*
X97518794Y-136429453D01*
X97518660Y-136440629D01*
X97518437Y-136451583D01*
X97518125Y-136462315D01*
X97517723Y-136472825D01*
X97517233Y-136483112D01*
X97516653Y-136493177D01*
X97515984Y-136503020D01*
X97514378Y-136522038D01*
X97512416Y-136540168D01*
X97510096Y-136557408D01*
X97507420Y-136573759D01*
X97504387Y-136589220D01*
X97500997Y-136603793D01*
X97497251Y-136617476D01*
X97493147Y-136630270D01*
X97488687Y-136642175D01*
X97483870Y-136653191D01*
X97478696Y-136663317D01*
X97473165Y-136672555D01*
X97467350Y-136681043D01*
X97461323Y-136688984D01*
X97451886Y-136699868D01*
X97441972Y-136709520D01*
X97431581Y-136717940D01*
X97420714Y-136725128D01*
X97409370Y-136731084D01*
X97397550Y-136735807D01*
X97385253Y-136739298D01*
X97372480Y-136741557D01*
X97359230Y-136742584D01*
X97354707Y-136742653D01*
X97341817Y-136742066D01*
X97329434Y-136740308D01*
X97317557Y-136737378D01*
X97306187Y-136733276D01*
X97295323Y-136728002D01*
X97284966Y-136721555D01*
X97275116Y-136713937D01*
X97265772Y-136705146D01*
X97256935Y-136695183D01*
X97248605Y-136684049D01*
X97243333Y-136675974D01*
X97237269Y-136665506D01*
X97231597Y-136654191D01*
X97226317Y-136642028D01*
X97221427Y-136629019D01*
X97216929Y-136615162D01*
X97212821Y-136600457D01*
X97209105Y-136584906D01*
X97205780Y-136568507D01*
X97202846Y-136551262D01*
X97200304Y-136533168D01*
X97198152Y-136514228D01*
X97197223Y-136504440D01*
X97196392Y-136494441D01*
X97195659Y-136484229D01*
X97195023Y-136473806D01*
X97194485Y-136463171D01*
X97194045Y-136452324D01*
X97193703Y-136441265D01*
X97193458Y-136429995D01*
X97193312Y-136418513D01*
X97193263Y-136406819D01*
X97193307Y-136394982D01*
X97193438Y-136383377D01*
X97193658Y-136372004D01*
X97193965Y-136360863D01*
X97194360Y-136349953D01*
X97194843Y-136339276D01*
X97195413Y-136328830D01*
X97196072Y-136318616D01*
X97196818Y-136308634D01*
X97197652Y-136298884D01*
X97199583Y-136280079D01*
X97201865Y-136262202D01*
X97204498Y-136245252D01*
X97207482Y-136229229D01*
X97210818Y-136214134D01*
X97214504Y-136199966D01*
X97218542Y-136186725D01*
X97222931Y-136174412D01*
X97227670Y-136163026D01*
X97232761Y-136152568D01*
X97238203Y-136143036D01*
X97243925Y-136134252D01*
X97249855Y-136126035D01*
X97255992Y-136118384D01*
X97265588Y-136107971D01*
X97275653Y-136098832D01*
X97286185Y-136090969D01*
X97297185Y-136084381D01*
X97308653Y-136079068D01*
X97320590Y-136075030D01*
X97332994Y-136072267D01*
X97345866Y-136070780D01*
X97354707Y-136070496D01*
X97366748Y-136070966D01*
G37*
G36*
X102271560Y-136289338D02*
G01*
X102210988Y-136289338D01*
X102199702Y-136289246D01*
X102188865Y-136288971D01*
X102178476Y-136288513D01*
X102168535Y-136287872D01*
X102154465Y-136286567D01*
X102141404Y-136284850D01*
X102129352Y-136282720D01*
X102118309Y-136280179D01*
X102108275Y-136277225D01*
X102096465Y-136272645D01*
X102086450Y-136267333D01*
X102084226Y-136265890D01*
X102076097Y-136259483D01*
X102069052Y-136252106D01*
X102063091Y-136243760D01*
X102058214Y-136234444D01*
X102054421Y-136224159D01*
X102051711Y-136212905D01*
X102050085Y-136200681D01*
X102049577Y-136190878D01*
X102049543Y-136187489D01*
X102049967Y-136177546D01*
X102051592Y-136166166D01*
X102054437Y-136155387D01*
X102058502Y-136145209D01*
X102063785Y-136135632D01*
X102066885Y-136131068D01*
X102073708Y-136122565D01*
X102081356Y-136115006D01*
X102089828Y-136108391D01*
X102099125Y-136102721D01*
X102109245Y-136097995D01*
X102112802Y-136096630D01*
X102122983Y-136093605D01*
X102132820Y-136091553D01*
X102144160Y-136089830D01*
X102157004Y-136088435D01*
X102167623Y-136087605D01*
X102179089Y-136086959D01*
X102191400Y-136086497D01*
X102204557Y-136086220D01*
X102218559Y-136086128D01*
X102271560Y-136086128D01*
X102271560Y-136289338D01*
G37*
G36*
X104140307Y-137373088D02*
G01*
X96558675Y-137373088D01*
X96558675Y-136406819D01*
X97001532Y-136406819D01*
X97001576Y-136419158D01*
X97001706Y-136431325D01*
X97001923Y-136443319D01*
X97002227Y-136455141D01*
X97002617Y-136466789D01*
X97003095Y-136478265D01*
X97003659Y-136489569D01*
X97004310Y-136500699D01*
X97005048Y-136511657D01*
X97005873Y-136522443D01*
X97006785Y-136533055D01*
X97007783Y-136543495D01*
X97008868Y-136553763D01*
X97010041Y-136563857D01*
X97011299Y-136573779D01*
X97012645Y-136583528D01*
X97015597Y-136602509D01*
X97018896Y-136620798D01*
X97022543Y-136638397D01*
X97026537Y-136655305D01*
X97030878Y-136671523D01*
X97035566Y-136687049D01*
X97040601Y-136701885D01*
X97045984Y-136716030D01*
X97051631Y-136729602D01*
X97057517Y-136742717D01*
X97063644Y-136755377D01*
X97070012Y-136767581D01*
X97076620Y-136779328D01*
X97083468Y-136790620D01*
X97090557Y-136801455D01*
X97097886Y-136811834D01*
X97105456Y-136821758D01*
X97113266Y-136831225D01*
X97121316Y-136840236D01*
X97129607Y-136848791D01*
X97138138Y-136856890D01*
X97146910Y-136864534D01*
X97155922Y-136871721D01*
X97165175Y-136878452D01*
X97174671Y-136884722D01*
X97184474Y-136890587D01*
X97194584Y-136896048D01*
X97205002Y-136901105D01*
X97215726Y-136905757D01*
X97226758Y-136910005D01*
X97238098Y-136913848D01*
X97249744Y-136917286D01*
X97261698Y-136920320D01*
X97273958Y-136922950D01*
X97286526Y-136925174D01*
X97299402Y-136926995D01*
X97312584Y-136928411D01*
X97326074Y-136929422D01*
X97339871Y-136930029D01*
X97353975Y-136930231D01*
X97368090Y-136930028D01*
X97381921Y-136929418D01*
X97395468Y-136928402D01*
X97408731Y-136926980D01*
X97421709Y-136925151D01*
X97434403Y-136922915D01*
X97446813Y-136920273D01*
X97458938Y-136917225D01*
X97470779Y-136913770D01*
X97482336Y-136909909D01*
X97493608Y-136905642D01*
X97504596Y-136900968D01*
X97515300Y-136895887D01*
X97525719Y-136890400D01*
X97535854Y-136884507D01*
X97545705Y-136878207D01*
X97555282Y-136871462D01*
X97564596Y-136864293D01*
X97573646Y-136856701D01*
X97582433Y-136848684D01*
X97590957Y-136840245D01*
X97599217Y-136831381D01*
X97607214Y-136822094D01*
X97608431Y-136820566D01*
X97837087Y-136820566D01*
X97837583Y-136831717D01*
X97839071Y-136842456D01*
X97841552Y-136852783D01*
X97845025Y-136862698D01*
X97849490Y-136872200D01*
X97854947Y-136881291D01*
X97861397Y-136889969D01*
X97868838Y-136898235D01*
X97876918Y-136905734D01*
X97885401Y-136912233D01*
X97894289Y-136917733D01*
X97903582Y-136922232D01*
X97913279Y-136925732D01*
X97923381Y-136928231D01*
X97933887Y-136929731D01*
X97944798Y-136930231D01*
X97955770Y-136929731D01*
X97966337Y-136928231D01*
X97976500Y-136925732D01*
X97986258Y-136922232D01*
X97995612Y-136917733D01*
X98000710Y-136914600D01*
X98195391Y-136914600D01*
X98895391Y-136914600D01*
X98942042Y-136914600D01*
X99170164Y-136914600D01*
X99482063Y-136455667D01*
X99482063Y-136914600D01*
X99676480Y-136914600D01*
X99676480Y-135898549D01*
X99892390Y-135898549D01*
X99892390Y-136914600D01*
X100083388Y-136914600D01*
X100083388Y-135898549D01*
X100211372Y-135898549D01*
X100571874Y-136727021D01*
X100234575Y-136727021D01*
X100234575Y-136914600D01*
X100852265Y-136914600D01*
X100492984Y-136086128D01*
X100822711Y-136086128D01*
X100822711Y-135898549D01*
X100987575Y-135898549D01*
X100987575Y-136498654D01*
X100987643Y-136517251D01*
X100987846Y-136535122D01*
X100988185Y-136552269D01*
X100988659Y-136568691D01*
X100989269Y-136584387D01*
X100990014Y-136599358D01*
X100990895Y-136613605D01*
X100991911Y-136627126D01*
X100993062Y-136639922D01*
X100994349Y-136651993D01*
X100995772Y-136663338D01*
X100997330Y-136673959D01*
X100999023Y-136683855D01*
X101001818Y-136697339D01*
X101004917Y-136709191D01*
X101008397Y-136720191D01*
X101012427Y-136731119D01*
X101017007Y-136741973D01*
X101022136Y-136752754D01*
X101027814Y-136763463D01*
X101034043Y-136774098D01*
X101040820Y-136784660D01*
X101048148Y-136795149D01*
X101056024Y-136805566D01*
X101064451Y-136815909D01*
X101070374Y-136822764D01*
X101079572Y-136832773D01*
X101089033Y-136842285D01*
X101098755Y-136851298D01*
X101108739Y-136859813D01*
X101118985Y-136867830D01*
X101129493Y-136875349D01*
X101140263Y-136882370D01*
X101151294Y-136888893D01*
X101162588Y-136894918D01*
X101174144Y-136900445D01*
X101181993Y-136903853D01*
X101194034Y-136908567D01*
X101206436Y-136912817D01*
X101219199Y-136916604D01*
X101232322Y-136919927D01*
X101245806Y-136922786D01*
X101259650Y-136925182D01*
X101273856Y-136927114D01*
X101288422Y-136928582D01*
X101298332Y-136929304D01*
X101308404Y-136929819D01*
X101318635Y-136930128D01*
X101329027Y-136930231D01*
X101342655Y-136930035D01*
X101356062Y-136929445D01*
X101369247Y-136928462D01*
X101382211Y-136927086D01*
X101394953Y-136925318D01*
X101407475Y-136923156D01*
X101419775Y-136920601D01*
X101431853Y-136917653D01*
X101442685Y-136914600D01*
X101816047Y-136914600D01*
X102026096Y-136914600D01*
X102253486Y-136476916D01*
X102271560Y-136476916D01*
X102271560Y-136914600D01*
X102463779Y-136914600D01*
X102463779Y-136440768D01*
X102647206Y-136440768D01*
X102647474Y-136457110D01*
X102648278Y-136473344D01*
X102649618Y-136489472D01*
X102651495Y-136505493D01*
X102653908Y-136521407D01*
X102656857Y-136537214D01*
X102660342Y-136552914D01*
X102664364Y-136568507D01*
X102668921Y-136583994D01*
X102674015Y-136599374D01*
X102679645Y-136614646D01*
X102685811Y-136629812D01*
X102692514Y-136644871D01*
X102699752Y-136659824D01*
X102707527Y-136674669D01*
X102715838Y-136689408D01*
X102724576Y-136703846D01*
X102733633Y-136717850D01*
X102743009Y-136731422D01*
X102752703Y-136744561D01*
X102762716Y-136757266D01*
X102773048Y-136769538D01*
X102783698Y-136781377D01*
X102794667Y-136792783D01*
X102805955Y-136803756D01*
X102817561Y-136814296D01*
X102829486Y-136824402D01*
X102841730Y-136834076D01*
X102854292Y-136843316D01*
X102867173Y-136852123D01*
X102880373Y-136860497D01*
X102893891Y-136868438D01*
X102907686Y-136875920D01*
X102921776Y-136882920D01*
X102936163Y-136889438D01*
X102950845Y-136895472D01*
X102965823Y-136901024D01*
X102981097Y-136906093D01*
X102996667Y-136910679D01*
X103012532Y-136914783D01*
X103028693Y-136918403D01*
X103045150Y-136921541D01*
X103061902Y-136924197D01*
X103078951Y-136926369D01*
X103096295Y-136928059D01*
X103113935Y-136929266D01*
X103131870Y-136929990D01*
X103150102Y-136930231D01*
X103159899Y-136930165D01*
X103179296Y-136929639D01*
X103198427Y-136928585D01*
X103217292Y-136927005D01*
X103235893Y-136924899D01*
X103254228Y-136922265D01*
X103272299Y-136919106D01*
X103290104Y-136915419D01*
X103307643Y-136911206D01*
X103324918Y-136906466D01*
X103341927Y-136901200D01*
X103358671Y-136895406D01*
X103375150Y-136889087D01*
X103391363Y-136882240D01*
X103407311Y-136874867D01*
X103422995Y-136866967D01*
X103430737Y-136862820D01*
X103445924Y-136854169D01*
X103460710Y-136845070D01*
X103475095Y-136835523D01*
X103489080Y-136825527D01*
X103502664Y-136815083D01*
X103515848Y-136804190D01*
X103528630Y-136792849D01*
X103541012Y-136781060D01*
X103552994Y-136768822D01*
X103564574Y-136756136D01*
X103575754Y-136743001D01*
X103586533Y-136729418D01*
X103596911Y-136715386D01*
X103606889Y-136700906D01*
X103616466Y-136685978D01*
X103625642Y-136670601D01*
X103634338Y-136654924D01*
X103642472Y-136639094D01*
X103650046Y-136623111D01*
X103657058Y-136606976D01*
X103663510Y-136590688D01*
X103669400Y-136574247D01*
X103674729Y-136557654D01*
X103679498Y-136540908D01*
X103683705Y-136524009D01*
X103687352Y-136506958D01*
X103690437Y-136489754D01*
X103692962Y-136472398D01*
X103694925Y-136454889D01*
X103696328Y-136437227D01*
X103697169Y-136419412D01*
X103697450Y-136401445D01*
X103697320Y-136389131D01*
X103696932Y-136376916D01*
X103696284Y-136364802D01*
X103695378Y-136352788D01*
X103694212Y-136340874D01*
X103692787Y-136329060D01*
X103691104Y-136317346D01*
X103689161Y-136305733D01*
X103686959Y-136294219D01*
X103684498Y-136282806D01*
X103681778Y-136271493D01*
X103678800Y-136260281D01*
X103675562Y-136249168D01*
X103672065Y-136238156D01*
X103668309Y-136227243D01*
X103664294Y-136216431D01*
X103660020Y-136205719D01*
X103655487Y-136195108D01*
X103650695Y-136184596D01*
X103645644Y-136174185D01*
X103640333Y-136163874D01*
X103634764Y-136153663D01*
X103628936Y-136143552D01*
X103622849Y-136133541D01*
X103616503Y-136123631D01*
X103609897Y-136113821D01*
X103603033Y-136104111D01*
X103595910Y-136094501D01*
X103588527Y-136084991D01*
X103580886Y-136075581D01*
X103572985Y-136066272D01*
X103564826Y-136057063D01*
X103554903Y-136046349D01*
X103544794Y-136035975D01*
X103534501Y-136025941D01*
X103524022Y-136016248D01*
X103513358Y-136006894D01*
X103502510Y-135997881D01*
X103491476Y-135989207D01*
X103480257Y-135980874D01*
X103468853Y-135972881D01*
X103457264Y-135965229D01*
X103445489Y-135957916D01*
X103433530Y-135950943D01*
X103421386Y-135944311D01*
X103409056Y-135938018D01*
X103396542Y-135932066D01*
X103383842Y-135926454D01*
X103370957Y-135921182D01*
X103357887Y-135916250D01*
X103344632Y-135911658D01*
X103331192Y-135907407D01*
X103317567Y-135903495D01*
X103303757Y-135899924D01*
X103289762Y-135896693D01*
X103275581Y-135893802D01*
X103261216Y-135891251D01*
X103246665Y-135889040D01*
X103231930Y-135887169D01*
X103217009Y-135885639D01*
X103201903Y-135884448D01*
X103186612Y-135883598D01*
X103171136Y-135883088D01*
X103155475Y-135882918D01*
X103139055Y-135883107D01*
X103122769Y-135883673D01*
X103106617Y-135884618D01*
X103090598Y-135885940D01*
X103074713Y-135887640D01*
X103058961Y-135889718D01*
X103043343Y-135892174D01*
X103027858Y-135895008D01*
X103012507Y-135898219D01*
X102997290Y-135901808D01*
X102982206Y-135905775D01*
X102967255Y-135910120D01*
X102952439Y-135914843D01*
X102937755Y-135919943D01*
X102923206Y-135925422D01*
X102908790Y-135931278D01*
X102896715Y-135936576D01*
X102884671Y-135942334D01*
X102872657Y-135948551D01*
X102860674Y-135955229D01*
X102848721Y-135962366D01*
X102836799Y-135969964D01*
X102824907Y-135978021D01*
X102813046Y-135986538D01*
X102801216Y-135995515D01*
X102789416Y-136004951D01*
X102777647Y-136014848D01*
X102765908Y-136025204D01*
X102754199Y-136036021D01*
X102742521Y-136047297D01*
X102730874Y-136059033D01*
X102719257Y-136071229D01*
X102854568Y-136203609D01*
X102862639Y-136195419D01*
X102870793Y-136187489D01*
X102879030Y-136179820D01*
X102887350Y-136172410D01*
X102895753Y-136165261D01*
X102904239Y-136158371D01*
X102912808Y-136151742D01*
X102921460Y-136145372D01*
X102930195Y-136139262D01*
X102939013Y-136133413D01*
X102947914Y-136127823D01*
X102956898Y-136122493D01*
X102965965Y-136117424D01*
X102975115Y-136112614D01*
X102984348Y-136108064D01*
X102993664Y-136103774D01*
X103003063Y-136099745D01*
X103012545Y-136095975D01*
X103022110Y-136092465D01*
X103031758Y-136089215D01*
X103041489Y-136086225D01*
X103051303Y-136083495D01*
X103061201Y-136081026D01*
X103071181Y-136078816D01*
X103081244Y-136076866D01*
X103091390Y-136075176D01*
X103101619Y-136073746D01*
X103111931Y-136072576D01*
X103122326Y-136071666D01*
X103132804Y-136071016D01*
X103143365Y-136070626D01*
X103154009Y-136070496D01*
X103172474Y-136070873D01*
X103190558Y-136072004D01*
X103208263Y-136073888D01*
X103225588Y-136076526D01*
X103242533Y-136079918D01*
X103259099Y-136084063D01*
X103275285Y-136088962D01*
X103291091Y-136094615D01*
X103306517Y-136101022D01*
X103321564Y-136108182D01*
X103336231Y-136116096D01*
X103350518Y-136124764D01*
X103364426Y-136134185D01*
X103377953Y-136144361D01*
X103391102Y-136155290D01*
X103403870Y-136166972D01*
X103416055Y-136179194D01*
X103427455Y-136191740D01*
X103438068Y-136204610D01*
X103447895Y-136217805D01*
X103456935Y-136231324D01*
X103465190Y-136245168D01*
X103472659Y-136259336D01*
X103479341Y-136273828D01*
X103485237Y-136288645D01*
X103490347Y-136303786D01*
X103494671Y-136319252D01*
X103498209Y-136335042D01*
X103500960Y-136351156D01*
X103502926Y-136367595D01*
X103504105Y-136384358D01*
X103504498Y-136401445D01*
X103504091Y-136419135D01*
X103502868Y-136436483D01*
X103500831Y-136453489D01*
X103497980Y-136470154D01*
X103494313Y-136486477D01*
X103489832Y-136502459D01*
X103484536Y-136518099D01*
X103478425Y-136533397D01*
X103471499Y-136548354D01*
X103463759Y-136562970D01*
X103455204Y-136577244D01*
X103445834Y-136591176D01*
X103435649Y-136604767D01*
X103424650Y-136618016D01*
X103412835Y-136630924D01*
X103400206Y-136643490D01*
X103386949Y-136655498D01*
X103373313Y-136666731D01*
X103359297Y-136677190D01*
X103344901Y-136686874D01*
X103330125Y-136695783D01*
X103314969Y-136703917D01*
X103299434Y-136711277D01*
X103283519Y-136717862D01*
X103267225Y-136723672D01*
X103250550Y-136728708D01*
X103233496Y-136732969D01*
X103216062Y-136736455D01*
X103198249Y-136739166D01*
X103180056Y-136741103D01*
X103161483Y-136742265D01*
X103142530Y-136742653D01*
X103130197Y-136742505D01*
X103118110Y-136742061D01*
X103106269Y-136741322D01*
X103094674Y-136740286D01*
X103083325Y-136738956D01*
X103072222Y-136737329D01*
X103061366Y-136735406D01*
X103050756Y-136733188D01*
X103040392Y-136730674D01*
X103030274Y-136727864D01*
X103020402Y-136724759D01*
X103010776Y-136721358D01*
X103001397Y-136717661D01*
X102992263Y-136713668D01*
X102983376Y-136709379D01*
X102974735Y-136704795D01*
X102962144Y-136697321D01*
X102950017Y-136689096D01*
X102942190Y-136683195D01*
X102934569Y-136676960D01*
X102927154Y-136670391D01*
X102919945Y-136663488D01*
X102912942Y-136656252D01*
X102906145Y-136648681D01*
X102899554Y-136640777D01*
X102893170Y-136632538D01*
X102886991Y-136623966D01*
X102881018Y-136615059D01*
X102875252Y-136605819D01*
X102869692Y-136596245D01*
X102864337Y-136586337D01*
X103156940Y-136586337D01*
X103156940Y-136398759D01*
X102648671Y-136398759D01*
X102647206Y-136440768D01*
X102463779Y-136440768D01*
X102463779Y-135898549D01*
X102259836Y-135898549D01*
X102249459Y-135898578D01*
X102239269Y-135898666D01*
X102229269Y-135898811D01*
X102219456Y-135899015D01*
X102200397Y-135899597D01*
X102182091Y-135900412D01*
X102164539Y-135901459D01*
X102147740Y-135902740D01*
X102131696Y-135904253D01*
X102116405Y-135905999D01*
X102101868Y-135907977D01*
X102088084Y-135910189D01*
X102075054Y-135912633D01*
X102062778Y-135915310D01*
X102051256Y-135918220D01*
X102040487Y-135921363D01*
X102030472Y-135924739D01*
X102021211Y-135928347D01*
X102008086Y-135934234D01*
X101995454Y-135940812D01*
X101983316Y-135948081D01*
X101971672Y-135956042D01*
X101960521Y-135964694D01*
X101949865Y-135974037D01*
X101939702Y-135984071D01*
X101930032Y-135994796D01*
X101920857Y-136006213D01*
X101915014Y-136014208D01*
X101909391Y-136022510D01*
X101906661Y-136026777D01*
X101901426Y-136035485D01*
X101896529Y-136044389D01*
X101891969Y-136053490D01*
X101887748Y-136062787D01*
X101883864Y-136072281D01*
X101880317Y-136081972D01*
X101877109Y-136091859D01*
X101874238Y-136101942D01*
X101871705Y-136112223D01*
X101869510Y-136122699D01*
X101867652Y-136133373D01*
X101866132Y-136144242D01*
X101864950Y-136155309D01*
X101864106Y-136166571D01*
X101863599Y-136178031D01*
X101863462Y-136187489D01*
X101863430Y-136189687D01*
X101863617Y-136201925D01*
X101864178Y-136213909D01*
X101865113Y-136225639D01*
X101866422Y-136237116D01*
X101868105Y-136248338D01*
X101870162Y-136259307D01*
X101872593Y-136270023D01*
X101875398Y-136280484D01*
X101878577Y-136290692D01*
X101882130Y-136300645D01*
X101886057Y-136310346D01*
X101890358Y-136319792D01*
X101895033Y-136328984D01*
X101900082Y-136337923D01*
X101905505Y-136346608D01*
X101911302Y-136355039D01*
X101917445Y-136363217D01*
X101923968Y-136371144D01*
X101930871Y-136378818D01*
X101938153Y-136386241D01*
X101945815Y-136393412D01*
X101953857Y-136400331D01*
X101962279Y-136406998D01*
X101971080Y-136413413D01*
X101980261Y-136419576D01*
X101989822Y-136425488D01*
X101999763Y-136431147D01*
X102010083Y-136436555D01*
X102020783Y-136441711D01*
X102031862Y-136446615D01*
X102043322Y-136451267D01*
X102055161Y-136455667D01*
X101816047Y-136914600D01*
X101442685Y-136914600D01*
X101443710Y-136914311D01*
X101455346Y-136910577D01*
X101466761Y-136906450D01*
X101477954Y-136901929D01*
X101488926Y-136897016D01*
X101499676Y-136891709D01*
X101510205Y-136886010D01*
X101520513Y-136879917D01*
X101530500Y-136873529D01*
X101540125Y-136866945D01*
X101549390Y-136860165D01*
X101558295Y-136853188D01*
X101566838Y-136846014D01*
X101575021Y-136838644D01*
X101582844Y-136831077D01*
X101590306Y-136823314D01*
X101597407Y-136815354D01*
X101604147Y-136807198D01*
X101610527Y-136798845D01*
X101616547Y-136790295D01*
X101622205Y-136781549D01*
X101627503Y-136772607D01*
X101632440Y-136763468D01*
X101637017Y-136754132D01*
X101641247Y-136744261D01*
X101645203Y-136733577D01*
X101648887Y-136722081D01*
X101652298Y-136709771D01*
X101655436Y-136696649D01*
X101658301Y-136682714D01*
X101660893Y-136667966D01*
X101663212Y-136652405D01*
X101665259Y-136636031D01*
X101667032Y-136618844D01*
X101668533Y-136600845D01*
X101669761Y-136582032D01*
X101670716Y-136562407D01*
X101671091Y-136552290D01*
X101671398Y-136541969D01*
X101671637Y-136531445D01*
X101671807Y-136520718D01*
X101671910Y-136509787D01*
X101671944Y-136498654D01*
X101671944Y-135898549D01*
X101478748Y-135898549D01*
X101478748Y-136547747D01*
X101478691Y-136558028D01*
X101478519Y-136567927D01*
X101478047Y-136582061D01*
X101477317Y-136595336D01*
X101476329Y-136607752D01*
X101475084Y-136619310D01*
X101473581Y-136630009D01*
X101471821Y-136639849D01*
X101469073Y-136651634D01*
X101465868Y-136661892D01*
X101464093Y-136666449D01*
X101458972Y-136676947D01*
X101452921Y-136686766D01*
X101445940Y-136695905D01*
X101438028Y-136704364D01*
X101429186Y-136712143D01*
X101419414Y-136719242D01*
X101415245Y-136721892D01*
X101406536Y-136726758D01*
X101397384Y-136730975D01*
X101387790Y-136734543D01*
X101377753Y-136737462D01*
X101367274Y-136739733D01*
X101356352Y-136741355D01*
X101344987Y-136742328D01*
X101333179Y-136742653D01*
X101320700Y-136742290D01*
X101308663Y-136741202D01*
X101297069Y-136739390D01*
X101285918Y-136736852D01*
X101275210Y-136733589D01*
X101264944Y-136729601D01*
X101255121Y-136724888D01*
X101245740Y-136719449D01*
X101236879Y-136713454D01*
X101228735Y-136707069D01*
X101221308Y-136700295D01*
X101214599Y-136693132D01*
X101207222Y-136683631D01*
X101200965Y-136673521D01*
X101195830Y-136662803D01*
X101194938Y-136660587D01*
X101191617Y-136650596D01*
X101188740Y-136638575D01*
X101186872Y-136628226D01*
X101185254Y-136616736D01*
X101183884Y-136604103D01*
X101182764Y-136590329D01*
X101182155Y-136580512D01*
X101181657Y-136570187D01*
X101181270Y-136559354D01*
X101180993Y-136548014D01*
X101180827Y-136536166D01*
X101180772Y-136523811D01*
X101180772Y-135898549D01*
X100987575Y-135898549D01*
X100822711Y-135898549D01*
X100211372Y-135898549D01*
X100083388Y-135898549D01*
X99892390Y-135898549D01*
X99676480Y-135898549D01*
X99482063Y-135898549D01*
X99482063Y-136239757D01*
X99208022Y-135898549D01*
X98976480Y-135898549D01*
X99329655Y-136344048D01*
X98942042Y-136914600D01*
X98895391Y-136914600D01*
X98895391Y-136823741D01*
X98583005Y-136509401D01*
X98575996Y-136502376D01*
X98562423Y-136488588D01*
X98549444Y-136475147D01*
X98537058Y-136462053D01*
X98525266Y-136449307D01*
X98514067Y-136436908D01*
X98503461Y-136424856D01*
X98493449Y-136413151D01*
X98484031Y-136401794D01*
X98475205Y-136390784D01*
X98466974Y-136380121D01*
X98459335Y-136369806D01*
X98452291Y-136359838D01*
X98445839Y-136350217D01*
X98439981Y-136340943D01*
X98434716Y-136332017D01*
X98432307Y-136327684D01*
X98425585Y-136314888D01*
X98419524Y-136302328D01*
X98414124Y-136290004D01*
X98409386Y-136277916D01*
X98405309Y-136266064D01*
X98401893Y-136254448D01*
X98399138Y-136243069D01*
X98397044Y-136231925D01*
X98395612Y-136221018D01*
X98394840Y-136210347D01*
X98394693Y-136203364D01*
X98395035Y-136192733D01*
X98396059Y-136182453D01*
X98397765Y-136172525D01*
X98400154Y-136162950D01*
X98404402Y-136150730D01*
X98409863Y-136139136D01*
X98416538Y-136128168D01*
X98424426Y-136117826D01*
X98431139Y-136110480D01*
X98433528Y-136108110D01*
X98441005Y-136101388D01*
X98448872Y-136095327D01*
X98457131Y-136089927D01*
X98465779Y-136085189D01*
X98474819Y-136081112D01*
X98484249Y-136077696D01*
X98494070Y-136074941D01*
X98504282Y-136072847D01*
X98514884Y-136071415D01*
X98525878Y-136070643D01*
X98533423Y-136070496D01*
X98544829Y-136070904D01*
X98555875Y-136072128D01*
X98566559Y-136074167D01*
X98576883Y-136077022D01*
X98586847Y-136080693D01*
X98596449Y-136085179D01*
X98605691Y-136090482D01*
X98614573Y-136096600D01*
X98623094Y-136103533D01*
X98631254Y-136111283D01*
X98636494Y-136116902D01*
X98643894Y-136125850D01*
X98650616Y-136135381D01*
X98656660Y-136145496D01*
X98662025Y-136156195D01*
X98666712Y-136167478D01*
X98670720Y-136179345D01*
X98674050Y-136191795D01*
X98676702Y-136204830D01*
X98678676Y-136218448D01*
X98679971Y-136232651D01*
X98680457Y-136242443D01*
X98868036Y-136242443D01*
X98867477Y-136232041D01*
X98866748Y-136221779D01*
X98865848Y-136211656D01*
X98864777Y-136201674D01*
X98863535Y-136191831D01*
X98862123Y-136182128D01*
X98858785Y-136163141D01*
X98854765Y-136144713D01*
X98850061Y-136126844D01*
X98844675Y-136109534D01*
X98838605Y-136092783D01*
X98831852Y-136076592D01*
X98824416Y-136060959D01*
X98816297Y-136045886D01*
X98807494Y-136031372D01*
X98798009Y-136017416D01*
X98787840Y-136004020D01*
X98776989Y-135991183D01*
X98765454Y-135978905D01*
X98753337Y-135967282D01*
X98740801Y-135956408D01*
X98727844Y-135946284D01*
X98714468Y-135936911D01*
X98700672Y-135928287D01*
X98686457Y-135920413D01*
X98671821Y-135913289D01*
X98656766Y-135906915D01*
X98641291Y-135901290D01*
X98625396Y-135896416D01*
X98609081Y-135892291D01*
X98592347Y-135888917D01*
X98575193Y-135886292D01*
X98557619Y-135884418D01*
X98539625Y-135883293D01*
X98521211Y-135882918D01*
X98509786Y-135883069D01*
X98498531Y-135883525D01*
X98487446Y-135884283D01*
X98476530Y-135885345D01*
X98465784Y-135886710D01*
X98455208Y-135888379D01*
X98444802Y-135890351D01*
X98434566Y-135892626D01*
X98424500Y-135895205D01*
X98414603Y-135898087D01*
X98404876Y-135901273D01*
X98395319Y-135904762D01*
X98385932Y-135908555D01*
X98376715Y-135912650D01*
X98367667Y-135917050D01*
X98358790Y-135921752D01*
X98350077Y-135926742D01*
X98341586Y-135932003D01*
X98333316Y-135937535D01*
X98325267Y-135943337D01*
X98317440Y-135949411D01*
X98309834Y-135955756D01*
X98302450Y-135962371D01*
X98295287Y-135969258D01*
X98288345Y-135976415D01*
X98281624Y-135983843D01*
X98275125Y-135991543D01*
X98268847Y-135999513D01*
X98262791Y-136007754D01*
X98256956Y-136016267D01*
X98251342Y-136025050D01*
X98245949Y-136034104D01*
X98240833Y-136043273D01*
X98236046Y-136052460D01*
X98231590Y-136061667D01*
X98227463Y-136070893D01*
X98223667Y-136080138D01*
X98220201Y-136089402D01*
X98217065Y-136098685D01*
X98212980Y-136112646D01*
X98209637Y-136126649D01*
X98207038Y-136140696D01*
X98205181Y-136154785D01*
X98204067Y-136168917D01*
X98203695Y-136183092D01*
X98203896Y-136194412D01*
X98204497Y-136205841D01*
X98205499Y-136217379D01*
X98206901Y-136229025D01*
X98208704Y-136240780D01*
X98210908Y-136252644D01*
X98213513Y-136264617D01*
X98216518Y-136276698D01*
X98219924Y-136288888D01*
X98223731Y-136301187D01*
X98227938Y-136313595D01*
X98232547Y-136326112D01*
X98237556Y-136338737D01*
X98242965Y-136351471D01*
X98248775Y-136364314D01*
X98254986Y-136377265D01*
X98261699Y-136390389D01*
X98269076Y-136403811D01*
X98277117Y-136417531D01*
X98285822Y-136431548D01*
X98295191Y-136445863D01*
X98305224Y-136460476D01*
X98315921Y-136475386D01*
X98327282Y-136490594D01*
X98339307Y-136506100D01*
X98345569Y-136513964D01*
X98351997Y-136521903D01*
X98358590Y-136529916D01*
X98365350Y-136538004D01*
X98372275Y-136546166D01*
X98379367Y-136554402D01*
X98386625Y-136562713D01*
X98394048Y-136571099D01*
X98401638Y-136579558D01*
X98409394Y-136588093D01*
X98417315Y-136596701D01*
X98425403Y-136605384D01*
X98433657Y-136614142D01*
X98442076Y-136622974D01*
X98555405Y-136742653D01*
X98195391Y-136742653D01*
X98195391Y-136914600D01*
X98000710Y-136914600D01*
X98004561Y-136912233D01*
X98013106Y-136905734D01*
X98021246Y-136898235D01*
X98028631Y-136889969D01*
X98035030Y-136881291D01*
X98040446Y-136872200D01*
X98044877Y-136862698D01*
X98048323Y-136852783D01*
X98050784Y-136842456D01*
X98052261Y-136831717D01*
X98052753Y-136820566D01*
X98052261Y-136809365D01*
X98050784Y-136798599D01*
X98048323Y-136788269D01*
X98044877Y-136778373D01*
X98040446Y-136768912D01*
X98035030Y-136759887D01*
X98028631Y-136751296D01*
X98021246Y-136743141D01*
X98013106Y-136735699D01*
X98004561Y-136729250D01*
X97995612Y-136723792D01*
X97986258Y-136719327D01*
X97976500Y-136715855D01*
X97966337Y-136713374D01*
X97955770Y-136711886D01*
X97944798Y-136711389D01*
X97933887Y-136711886D01*
X97923381Y-136713374D01*
X97913279Y-136715855D01*
X97903582Y-136719327D01*
X97894289Y-136723792D01*
X97885401Y-136729250D01*
X97876918Y-136735699D01*
X97868838Y-136743141D01*
X97861397Y-136751296D01*
X97854947Y-136759887D01*
X97849490Y-136768912D01*
X97845025Y-136778373D01*
X97841552Y-136788269D01*
X97839071Y-136798599D01*
X97837583Y-136809365D01*
X97837087Y-136820566D01*
X97608431Y-136820566D01*
X97614948Y-136812384D01*
X97622418Y-136802250D01*
X97629626Y-136791692D01*
X97636569Y-136780711D01*
X97643250Y-136769306D01*
X97649667Y-136757477D01*
X97655821Y-136745225D01*
X97661711Y-136732549D01*
X97667338Y-136719449D01*
X97672662Y-136705786D01*
X97677642Y-136691419D01*
X97682279Y-136676347D01*
X97686572Y-136660572D01*
X97690522Y-136644092D01*
X97694129Y-136626908D01*
X97697391Y-136609020D01*
X97700311Y-136590428D01*
X97702887Y-136571132D01*
X97704046Y-136561220D01*
X97705119Y-136551132D01*
X97706107Y-136540868D01*
X97707009Y-136530427D01*
X97707824Y-136519811D01*
X97708554Y-136509019D01*
X97709198Y-136498051D01*
X97709756Y-136486906D01*
X97710229Y-136475586D01*
X97710615Y-136464090D01*
X97710915Y-136452417D01*
X97711130Y-136440569D01*
X97711259Y-136428545D01*
X97711302Y-136416344D01*
X97711218Y-136399334D01*
X97710966Y-136382619D01*
X97710546Y-136366199D01*
X97709959Y-136350074D01*
X97709203Y-136334245D01*
X97708279Y-136318711D01*
X97707188Y-136303472D01*
X97705929Y-136288529D01*
X97704501Y-136273881D01*
X97702906Y-136259528D01*
X97701143Y-136245470D01*
X97699212Y-136231708D01*
X97697113Y-136218241D01*
X97694846Y-136205069D01*
X97692411Y-136192193D01*
X97689808Y-136179612D01*
X97687038Y-136167326D01*
X97684099Y-136155335D01*
X97680993Y-136143640D01*
X97677718Y-136132240D01*
X97674276Y-136121135D01*
X97670666Y-136110326D01*
X97666888Y-136099812D01*
X97662942Y-136089593D01*
X97658828Y-136079669D01*
X97654546Y-136070041D01*
X97650096Y-136060708D01*
X97645478Y-136051670D01*
X97640693Y-136042928D01*
X97635739Y-136034481D01*
X97625328Y-136018472D01*
X97619287Y-136010133D01*
X97613099Y-136002058D01*
X97606765Y-135994247D01*
X97600286Y-135986702D01*
X97593660Y-135979421D01*
X97579971Y-135965654D01*
X97565698Y-135952946D01*
X97550841Y-135941296D01*
X97535401Y-135930706D01*
X97519376Y-135921175D01*
X97502768Y-135912703D01*
X97485575Y-135905290D01*
X97467799Y-135898935D01*
X97449439Y-135893640D01*
X97430495Y-135889404D01*
X97420804Y-135887683D01*
X97410967Y-135886227D01*
X97400984Y-135885036D01*
X97390855Y-135884109D01*
X97380580Y-135883447D01*
X97370159Y-135883050D01*
X97359592Y-135882918D01*
X97345881Y-135883128D01*
X97332409Y-135883757D01*
X97319175Y-135884807D01*
X97306179Y-135886276D01*
X97293422Y-135888165D01*
X97280904Y-135890474D01*
X97268624Y-135893203D01*
X97256583Y-135896351D01*
X97244780Y-135899919D01*
X97233216Y-135903907D01*
X97221890Y-135908315D01*
X97210802Y-135913143D01*
X97199954Y-135918390D01*
X97189343Y-135924057D01*
X97178972Y-135930144D01*
X97168838Y-135936651D01*
X97158968Y-135943559D01*
X97149383Y-135950909D01*
X97140085Y-135958702D01*
X97131072Y-135966937D01*
X97122346Y-135975616D01*
X97113907Y-135984736D01*
X97105753Y-135994300D01*
X97097886Y-136004306D01*
X97090305Y-136014755D01*
X97083010Y-136025647D01*
X97076001Y-136036982D01*
X97069279Y-136048759D01*
X97062843Y-136060978D01*
X97056693Y-136073641D01*
X97050829Y-136086746D01*
X97045252Y-136100294D01*
X97039957Y-136114400D01*
X97035005Y-136129179D01*
X97030394Y-136144633D01*
X97026124Y-136160759D01*
X97022196Y-136177559D01*
X97018610Y-136195033D01*
X97015365Y-136213181D01*
X97012462Y-136232002D01*
X97009900Y-136251496D01*
X97008748Y-136261496D01*
X97007680Y-136271665D01*
X97006698Y-136282001D01*
X97005802Y-136292506D01*
X97004990Y-136303180D01*
X97004265Y-136314022D01*
X97003624Y-136325032D01*
X97003069Y-136336210D01*
X97002600Y-136347558D01*
X97002215Y-136359073D01*
X97001916Y-136370757D01*
X97001703Y-136382609D01*
X97001575Y-136394630D01*
X97001532Y-136406819D01*
X96558675Y-136406819D01*
X96558675Y-135440061D01*
X104140307Y-135440061D01*
X104140307Y-137373088D01*
G37*
X142177333Y-145655380D02*
X142224952Y-145703000D01*
X142224952Y-145703000D02*
X142367809Y-145750619D01*
X142367809Y-145750619D02*
X142463047Y-145750619D01*
X142463047Y-145750619D02*
X142605904Y-145703000D01*
X142605904Y-145703000D02*
X142701142Y-145607761D01*
X142701142Y-145607761D02*
X142748761Y-145512523D01*
X142748761Y-145512523D02*
X142796380Y-145322047D01*
X142796380Y-145322047D02*
X142796380Y-145179190D01*
X142796380Y-145179190D02*
X142748761Y-144988714D01*
X142748761Y-144988714D02*
X142701142Y-144893476D01*
X142701142Y-144893476D02*
X142605904Y-144798238D01*
X142605904Y-144798238D02*
X142463047Y-144750619D01*
X142463047Y-144750619D02*
X142367809Y-144750619D01*
X142367809Y-144750619D02*
X142224952Y-144798238D01*
X142224952Y-144798238D02*
X142177333Y-144845857D01*
X141224952Y-145750619D02*
X141796380Y-145750619D01*
X141510666Y-145750619D02*
X141510666Y-144750619D01*
X141510666Y-144750619D02*
X141605904Y-144893476D01*
X141605904Y-144893476D02*
X141701142Y-144988714D01*
X141701142Y-144988714D02*
X141796380Y-145036333D01*
X140367809Y-144750619D02*
X140558285Y-144750619D01*
X140558285Y-144750619D02*
X140653523Y-144798238D01*
X140653523Y-144798238D02*
X140701142Y-144845857D01*
X140701142Y-144845857D02*
X140796380Y-144988714D01*
X140796380Y-144988714D02*
X140843999Y-145179190D01*
X140843999Y-145179190D02*
X140843999Y-145560142D01*
X140843999Y-145560142D02*
X140796380Y-145655380D01*
X140796380Y-145655380D02*
X140748761Y-145703000D01*
X140748761Y-145703000D02*
X140653523Y-145750619D01*
X140653523Y-145750619D02*
X140463047Y-145750619D01*
X140463047Y-145750619D02*
X140367809Y-145703000D01*
X140367809Y-145703000D02*
X140320190Y-145655380D01*
X140320190Y-145655380D02*
X140272571Y-145560142D01*
X140272571Y-145560142D02*
X140272571Y-145322047D01*
X140272571Y-145322047D02*
X140320190Y-145226809D01*
X140320190Y-145226809D02*
X140367809Y-145179190D01*
X140367809Y-145179190D02*
X140463047Y-145131571D01*
X140463047Y-145131571D02*
X140653523Y-145131571D01*
X140653523Y-145131571D02*
X140748761Y-145179190D01*
X140748761Y-145179190D02*
X140796380Y-145226809D01*
X140796380Y-145226809D02*
X140843999Y-145322047D01*
X115328580Y-158009742D02*
X115376200Y-157962123D01*
X115376200Y-157962123D02*
X115423819Y-157819266D01*
X115423819Y-157819266D02*
X115423819Y-157724028D01*
X115423819Y-157724028D02*
X115376200Y-157581171D01*
X115376200Y-157581171D02*
X115280961Y-157485933D01*
X115280961Y-157485933D02*
X115185723Y-157438314D01*
X115185723Y-157438314D02*
X114995247Y-157390695D01*
X114995247Y-157390695D02*
X114852390Y-157390695D01*
X114852390Y-157390695D02*
X114661914Y-157438314D01*
X114661914Y-157438314D02*
X114566676Y-157485933D01*
X114566676Y-157485933D02*
X114471438Y-157581171D01*
X114471438Y-157581171D02*
X114423819Y-157724028D01*
X114423819Y-157724028D02*
X114423819Y-157819266D01*
X114423819Y-157819266D02*
X114471438Y-157962123D01*
X114471438Y-157962123D02*
X114519057Y-158009742D01*
X115423819Y-158962123D02*
X115423819Y-158390695D01*
X115423819Y-158676409D02*
X114423819Y-158676409D01*
X114423819Y-158676409D02*
X114566676Y-158581171D01*
X114566676Y-158581171D02*
X114661914Y-158485933D01*
X114661914Y-158485933D02*
X114709533Y-158390695D01*
X115423819Y-159914504D02*
X115423819Y-159343076D01*
X115423819Y-159628790D02*
X114423819Y-159628790D01*
X114423819Y-159628790D02*
X114566676Y-159533552D01*
X114566676Y-159533552D02*
X114661914Y-159438314D01*
X114661914Y-159438314D02*
X114709533Y-159343076D01*
X104431180Y-142936933D02*
X104478800Y-142889314D01*
X104478800Y-142889314D02*
X104526419Y-142746457D01*
X104526419Y-142746457D02*
X104526419Y-142651219D01*
X104526419Y-142651219D02*
X104478800Y-142508362D01*
X104478800Y-142508362D02*
X104383561Y-142413124D01*
X104383561Y-142413124D02*
X104288323Y-142365505D01*
X104288323Y-142365505D02*
X104097847Y-142317886D01*
X104097847Y-142317886D02*
X103954990Y-142317886D01*
X103954990Y-142317886D02*
X103764514Y-142365505D01*
X103764514Y-142365505D02*
X103669276Y-142413124D01*
X103669276Y-142413124D02*
X103574038Y-142508362D01*
X103574038Y-142508362D02*
X103526419Y-142651219D01*
X103526419Y-142651219D02*
X103526419Y-142746457D01*
X103526419Y-142746457D02*
X103574038Y-142889314D01*
X103574038Y-142889314D02*
X103621657Y-142936933D01*
X103621657Y-143317886D02*
X103574038Y-143365505D01*
X103574038Y-143365505D02*
X103526419Y-143460743D01*
X103526419Y-143460743D02*
X103526419Y-143698838D01*
X103526419Y-143698838D02*
X103574038Y-143794076D01*
X103574038Y-143794076D02*
X103621657Y-143841695D01*
X103621657Y-143841695D02*
X103716895Y-143889314D01*
X103716895Y-143889314D02*
X103812133Y-143889314D01*
X103812133Y-143889314D02*
X103954990Y-143841695D01*
X103954990Y-143841695D02*
X104526419Y-143270267D01*
X104526419Y-143270267D02*
X104526419Y-143889314D01*
D13*
X109874000Y-163794000D02*
X109874000Y-169804000D01*
X116694000Y-166044000D02*
X116694000Y-169804000D01*
X116694000Y-169804000D02*
X115434000Y-169804000D01*
X109874000Y-169804000D02*
X111134000Y-169804000D01*
X104950800Y-152845380D02*
X104950800Y-152564220D01*
X105970800Y-152845380D02*
X105970800Y-152564220D01*
X99256800Y-163844400D02*
X99256800Y-169854400D01*
X106076800Y-166094400D02*
X106076800Y-169854400D01*
X106076800Y-169854400D02*
X104816800Y-169854400D01*
X99256800Y-169854400D02*
X100516800Y-169854400D01*
X86741580Y-145899600D02*
X86460420Y-145899600D01*
X86741580Y-144879600D02*
X86460420Y-144879600D01*
D14*
X143242000Y-156081000D02*
X143542000Y-156081000D01*
X143242000Y-156081000D02*
X143242000Y-150331000D01*
X151667000Y-156081000D02*
X151667000Y-157681000D01*
X151892000Y-156081000D02*
X151667000Y-156081000D01*
X151892000Y-156081000D02*
X151892000Y-150331000D01*
X143242000Y-150331000D02*
X143542000Y-150331000D01*
X151892000Y-150331000D02*
X151592000Y-150331000D01*
D13*
X112672400Y-161938580D02*
X112672400Y-161657420D01*
X113692400Y-161938580D02*
X113692400Y-161657420D01*
X94855420Y-156512800D02*
X95136580Y-156512800D01*
X94855420Y-157532800D02*
X95136580Y-157532800D01*
X60996896Y-145350000D02*
X61278056Y-145350000D01*
X60996896Y-146370000D02*
X61278056Y-146370000D01*
X107710500Y-164698142D02*
X107710500Y-165172658D01*
X106665500Y-164698142D02*
X106665500Y-165172658D01*
X82243200Y-137415180D02*
X82243200Y-137134020D01*
X83263200Y-137415180D02*
X83263200Y-137134020D01*
X101775800Y-145784180D02*
X101775800Y-145503020D01*
X102795800Y-145784180D02*
X102795800Y-145503020D01*
X86195780Y-149252400D02*
X85914620Y-149252400D01*
X86195780Y-148232400D02*
X85914620Y-148232400D01*
X60996896Y-147128000D02*
X61278056Y-147128000D01*
X60996896Y-148148000D02*
X61278056Y-148148000D01*
X86565200Y-154243921D02*
X86565200Y-154569479D01*
X85545200Y-154243921D02*
X85545200Y-154569479D01*
D14*
X49056000Y-155827000D02*
X49356000Y-155827000D01*
X49056000Y-155827000D02*
X49056000Y-150077000D01*
X57481000Y-155827000D02*
X57481000Y-157427000D01*
X57706000Y-155827000D02*
X57481000Y-155827000D01*
X57706000Y-155827000D02*
X57706000Y-150077000D01*
X49056000Y-150077000D02*
X49356000Y-150077000D01*
X57706000Y-150077000D02*
X57406000Y-150077000D01*
D13*
X89101200Y-154534780D02*
X89101200Y-154253620D01*
X90121200Y-154534780D02*
X90121200Y-154253620D01*
X101334180Y-162968400D02*
X101053020Y-162968400D01*
X101334180Y-161948400D02*
X101053020Y-161948400D01*
X116330000Y-161938580D02*
X116330000Y-161657420D01*
X117350000Y-161938580D02*
X117350000Y-161657420D01*
X109285300Y-164661542D02*
X109285300Y-165136058D01*
X108240300Y-164661542D02*
X108240300Y-165136058D01*
X94855420Y-158087600D02*
X95136580Y-158087600D01*
X94855420Y-159107600D02*
X95136580Y-159107600D01*
X138627056Y-147830000D02*
X138345896Y-147830000D01*
X138627056Y-146810000D02*
X138345896Y-146810000D01*
X118158800Y-161938580D02*
X118158800Y-161657420D01*
X119178800Y-161938580D02*
X119178800Y-161657420D01*
X94660000Y-147421500D02*
X94660000Y-147871500D01*
X94660000Y-154191500D02*
X93370000Y-154191500D01*
X94660000Y-154641500D02*
X94660000Y-154191500D01*
X95110000Y-147421500D02*
X94660000Y-147421500D01*
X95110000Y-154641500D02*
X94660000Y-154641500D01*
X101430000Y-147421500D02*
X101880000Y-147421500D01*
X101430000Y-154641500D02*
X101880000Y-154641500D01*
X101880000Y-147421500D02*
X101880000Y-147871500D01*
X101880000Y-154641500D02*
X101880000Y-154191500D01*
X130429580Y-171248800D02*
X130148420Y-171248800D01*
X130429580Y-170228800D02*
X130148420Y-170228800D01*
X87323200Y-154534780D02*
X87323200Y-154253620D01*
X88343200Y-154534780D02*
X88343200Y-154253620D01*
X89657200Y-134926400D02*
X90457200Y-134926400D01*
X89657200Y-135226400D02*
X89657200Y-134926400D01*
X89657200Y-139096400D02*
X89657200Y-137046400D01*
X90427200Y-138746400D02*
X90427200Y-139096400D01*
X90427200Y-139096400D02*
X89657200Y-139096400D01*
X90457200Y-133626400D02*
X110277200Y-133626400D01*
X90457200Y-134926400D02*
X90457200Y-133626400D01*
X92407200Y-138746400D02*
X90427200Y-138746400D01*
X92407200Y-139336400D02*
X92407200Y-138746400D01*
X110277200Y-133626400D02*
X110277200Y-134926400D01*
X110277200Y-134926400D02*
X111077200Y-134926400D01*
X110307200Y-138746400D02*
X108327200Y-138746400D01*
X110307200Y-139096400D02*
X110307200Y-138746400D01*
X111077200Y-134926400D02*
X111077200Y-135226400D01*
X111077200Y-137046400D02*
X111077200Y-139096400D01*
X111077200Y-139096400D02*
X110307200Y-139096400D01*
X138640056Y-145798000D02*
X138358896Y-145798000D01*
X138640056Y-144778000D02*
X138358896Y-144778000D01*
X114450400Y-161938580D02*
X114450400Y-161657420D01*
X115470400Y-161938580D02*
X115470400Y-161657420D01*
X103553800Y-145784180D02*
X103553800Y-145503020D01*
X104573800Y-145784180D02*
X104573800Y-145503020D01*
%LPC*%
D15*
X87426800Y-151751200D03*
X87426800Y-146871200D03*
D16*
X75184000Y-167894000D03*
D17*
X138379200Y-135585200D03*
D18*
X140919200Y-135585200D03*
D17*
X49885600Y-170688000D03*
D18*
X52425600Y-170688000D03*
D17*
X43434000Y-135382000D03*
D18*
X45974000Y-135382000D03*
X48514000Y-135382000D03*
X51054000Y-135382000D03*
D17*
X150774400Y-170992800D03*
D18*
X148234400Y-170992800D03*
D16*
X41322000Y-144145000D03*
X125476000Y-138176000D03*
X159338000Y-161925000D03*
D17*
X148437600Y-135636000D03*
D18*
X150977600Y-135636000D03*
X153517600Y-135636000D03*
X156057600Y-135636000D03*
X158597600Y-135636000D03*
D16*
X159338000Y-144145000D03*
X75184000Y-138176000D03*
D17*
X131666000Y-158496000D03*
D18*
X131666000Y-155956000D03*
X131666000Y-153416000D03*
X131666000Y-150876000D03*
X131666000Y-148336000D03*
X131666000Y-145796000D03*
D17*
X68834000Y-145796000D03*
D18*
X68834000Y-148336000D03*
X68834000Y-150876000D03*
X68834000Y-153416000D03*
X68834000Y-155956000D03*
X68834000Y-158496000D03*
D16*
X41322000Y-161925000D03*
D17*
X133604000Y-169722800D03*
D18*
X136144000Y-169722800D03*
D16*
X125476000Y-167894000D03*
D19*
X110984000Y-164744000D03*
X113284000Y-164744000D03*
D20*
X113284000Y-171044000D03*
D19*
X115584000Y-164744000D03*
D21*
X105460800Y-153479800D03*
X105460800Y-151929800D03*
D19*
X100366800Y-164794400D03*
X102666800Y-164794400D03*
D20*
X102666800Y-171094400D03*
D19*
X104966800Y-164794400D03*
D22*
X87376000Y-145389600D03*
X85826000Y-145389600D03*
D23*
X151142000Y-156806000D03*
X150492000Y-156806000D03*
X149842000Y-156806000D03*
X149192000Y-156806000D03*
X148542000Y-156806000D03*
X147892000Y-156806000D03*
X147242000Y-156806000D03*
X146592000Y-156806000D03*
X145942000Y-156806000D03*
X145292000Y-156806000D03*
X144642000Y-156806000D03*
X143992000Y-156806000D03*
X143992000Y-149606000D03*
X144642000Y-149606000D03*
X145292000Y-149606000D03*
X145942000Y-149606000D03*
X146592000Y-149606000D03*
X147242000Y-149606000D03*
X147892000Y-149606000D03*
X148542000Y-149606000D03*
X149192000Y-149606000D03*
X149842000Y-149606000D03*
X150492000Y-149606000D03*
X151142000Y-149606000D03*
D21*
X113182400Y-162573000D03*
X113182400Y-161023000D03*
D24*
X94221000Y-157022800D03*
X95771000Y-157022800D03*
X60362476Y-145860000D03*
X61912476Y-145860000D03*
D25*
X107188000Y-164110400D03*
X107188000Y-165760400D03*
D21*
X82753200Y-138049600D03*
X82753200Y-136499600D03*
X102285800Y-146418600D03*
X102285800Y-144868600D03*
D22*
X86830200Y-148742400D03*
X85280200Y-148742400D03*
D24*
X60362476Y-147638000D03*
X61912476Y-147638000D03*
D26*
X86055200Y-153619200D03*
X86055200Y-155194200D03*
D23*
X56956000Y-156552000D03*
X56306000Y-156552000D03*
X55656000Y-156552000D03*
X55006000Y-156552000D03*
X54356000Y-156552000D03*
X53706000Y-156552000D03*
X53056000Y-156552000D03*
X52406000Y-156552000D03*
X51756000Y-156552000D03*
X51106000Y-156552000D03*
X50456000Y-156552000D03*
X49806000Y-156552000D03*
X49806000Y-149352000D03*
X50456000Y-149352000D03*
X51106000Y-149352000D03*
X51756000Y-149352000D03*
X52406000Y-149352000D03*
X53056000Y-149352000D03*
X53706000Y-149352000D03*
X54356000Y-149352000D03*
X55006000Y-149352000D03*
X55656000Y-149352000D03*
X56306000Y-149352000D03*
X56956000Y-149352000D03*
D21*
X89611200Y-155169200D03*
X89611200Y-153619200D03*
D22*
X101968600Y-162458400D03*
X100418600Y-162458400D03*
D21*
X116840000Y-162573000D03*
X116840000Y-161023000D03*
D25*
X108762800Y-164073800D03*
X108762800Y-165723800D03*
D24*
X94221000Y-158597600D03*
X95771000Y-158597600D03*
D22*
X139261476Y-147320000D03*
X137711476Y-147320000D03*
D21*
X118668800Y-162573000D03*
X118668800Y-161023000D03*
D27*
X94107500Y-153781500D03*
X94107500Y-153281500D03*
X94107500Y-152781500D03*
X94107500Y-152281500D03*
X94107500Y-151781500D03*
X94107500Y-151281500D03*
X94107500Y-150781500D03*
X94107500Y-150281500D03*
X94107500Y-149781500D03*
X94107500Y-149281500D03*
X94107500Y-148781500D03*
X94107500Y-148281500D03*
D28*
X95520000Y-146869000D03*
X96020000Y-146869000D03*
X96520000Y-146869000D03*
X97020000Y-146869000D03*
X97520000Y-146869000D03*
X98020000Y-146869000D03*
X98520000Y-146869000D03*
X99020000Y-146869000D03*
X99520000Y-146869000D03*
X100020000Y-146869000D03*
X100520000Y-146869000D03*
X101020000Y-146869000D03*
D27*
X102432500Y-148281500D03*
X102432500Y-148781500D03*
X102432500Y-149281500D03*
X102432500Y-149781500D03*
X102432500Y-150281500D03*
X102432500Y-150781500D03*
X102432500Y-151281500D03*
X102432500Y-151781500D03*
X102432500Y-152281500D03*
X102432500Y-152781500D03*
X102432500Y-153281500D03*
X102432500Y-153781500D03*
D28*
X101020000Y-155194000D03*
X100520000Y-155194000D03*
X100020000Y-155194000D03*
X99520000Y-155194000D03*
X99020000Y-155194000D03*
X98520000Y-155194000D03*
X98020000Y-155194000D03*
X97520000Y-155194000D03*
X97020000Y-155194000D03*
X96520000Y-155194000D03*
X96020000Y-155194000D03*
X95520000Y-155194000D03*
D22*
X131064000Y-170738800D03*
X129514000Y-170738800D03*
D21*
X87833200Y-155169200D03*
X87833200Y-153619200D03*
D29*
X92867200Y-138836400D03*
X93867200Y-138836400D03*
X94867200Y-138836400D03*
X95867200Y-138836400D03*
X96867200Y-138836400D03*
X97867200Y-138836400D03*
X98867200Y-138836400D03*
X99867200Y-138836400D03*
X100867200Y-138836400D03*
X101867200Y-138836400D03*
X102867200Y-138836400D03*
X103867200Y-138836400D03*
X104867200Y-138836400D03*
X105867200Y-138836400D03*
X106867200Y-138836400D03*
X107867200Y-138836400D03*
D30*
X90067200Y-136136400D03*
X110667200Y-136136400D03*
D22*
X139274476Y-145288000D03*
X137724476Y-145288000D03*
D21*
X114960400Y-162573000D03*
X114960400Y-161023000D03*
X104063800Y-146418600D03*
X104063800Y-144868600D03*
M02*
