G04 #@! TF.GenerationSoftware,KiCad,Pcbnew,7.0.1*
G04 #@! TF.CreationDate,2023-11-28T21:34:11+01:00*
G04 #@! TF.ProjectId,Gruzik2.0,4772757a-696b-4322-9e30-2e6b69636164,rev?*
G04 #@! TF.SameCoordinates,Original*
G04 #@! TF.FileFunction,Copper,L3,Inr*
G04 #@! TF.FilePolarity,Positive*
%FSLAX46Y46*%
G04 Gerber Fmt 4.6, Leading zero omitted, Abs format (unit mm)*
G04 Created by KiCad (PCBNEW 7.0.1) date 2023-11-28 21:34:11*
%MOMM*%
%LPD*%
G01*
G04 APERTURE LIST*
G04 #@! TA.AperFunction,ComponentPad*
%ADD10C,1.500000*%
G04 #@! TD*
G04 #@! TA.AperFunction,ComponentPad*
%ADD11R,1.700000X1.700000*%
G04 #@! TD*
G04 #@! TA.AperFunction,ComponentPad*
%ADD12O,1.700000X1.700000*%
G04 #@! TD*
G04 #@! TA.AperFunction,ViaPad*
%ADD13C,0.700000*%
G04 #@! TD*
G04 #@! TA.AperFunction,ViaPad*
%ADD14C,0.550000*%
G04 #@! TD*
G04 #@! TA.AperFunction,ViaPad*
%ADD15C,0.800000*%
G04 #@! TD*
G04 #@! TA.AperFunction,Conductor*
%ADD16C,0.500000*%
G04 #@! TD*
G04 #@! TA.AperFunction,Conductor*
%ADD17C,0.300000*%
G04 #@! TD*
G04 APERTURE END LIST*
D10*
X87426800Y-151751200D03*
X87426800Y-146871200D03*
D11*
X138379200Y-135585200D03*
D12*
X140919200Y-135585200D03*
D11*
X49885600Y-170688000D03*
D12*
X52425600Y-170688000D03*
D11*
X43434000Y-135382000D03*
D12*
X45974000Y-135382000D03*
X48514000Y-135382000D03*
X51054000Y-135382000D03*
D11*
X150774400Y-170992800D03*
D12*
X148234400Y-170992800D03*
D11*
X148437600Y-135636000D03*
D12*
X150977600Y-135636000D03*
X153517600Y-135636000D03*
X156057600Y-135636000D03*
X158597600Y-135636000D03*
D11*
X131666000Y-158496000D03*
D12*
X131666000Y-155956000D03*
X131666000Y-153416000D03*
X131666000Y-150876000D03*
X131666000Y-148336000D03*
X131666000Y-145796000D03*
D11*
X68834000Y-145796000D03*
D12*
X68834000Y-148336000D03*
X68834000Y-150876000D03*
X68834000Y-153416000D03*
X68834000Y-155956000D03*
X68834000Y-158496000D03*
D11*
X133604000Y-169722800D03*
D12*
X136144000Y-169722800D03*
D13*
X51866800Y-154432000D03*
X136156200Y-135483600D03*
X147015200Y-155194000D03*
X146202400Y-154533600D03*
X53848000Y-154990800D03*
X91948000Y-157937200D03*
X91897200Y-156819600D03*
X52628800Y-154990800D03*
D14*
X53238400Y-151079200D03*
D13*
X90728800Y-141681200D03*
X106514600Y-151929800D03*
X95707200Y-151434800D03*
X147980400Y-155143200D03*
X107289600Y-166928800D03*
X105156000Y-144868600D03*
X95771000Y-159499000D03*
X149148800Y-154533600D03*
D14*
X146862800Y-151536400D03*
D13*
X54914800Y-154432000D03*
D14*
X98958400Y-153924000D03*
D13*
X84734400Y-153619200D03*
X145796000Y-135991600D03*
X94221000Y-159512000D03*
X91694000Y-140817600D03*
D15*
X97536000Y-170383200D03*
D13*
X119634000Y-162458400D03*
X100787200Y-153162000D03*
D14*
X54356000Y-148052000D03*
X148538700Y-148233900D03*
D13*
X105156000Y-146418600D03*
X106476800Y-153479800D03*
D15*
X90754200Y-155169200D03*
D14*
X97129600Y-151739600D03*
D13*
X63195200Y-143814800D03*
D14*
X108712000Y-166725600D03*
X115570000Y-166878000D03*
D15*
X118211600Y-169976800D03*
D13*
X94894400Y-137312400D03*
X144272000Y-148183600D03*
X151460200Y-147599400D03*
X50139600Y-147777200D03*
X57302400Y-147777200D03*
D14*
X112776000Y-137414000D03*
X101056600Y-148168200D03*
D13*
X52425600Y-158038800D03*
X52425600Y-158902400D03*
D14*
X111581700Y-151144900D03*
X140055600Y-138988800D03*
X104190800Y-154272698D03*
X109270800Y-162509200D03*
X98520000Y-148100800D03*
D13*
X148234400Y-158242000D03*
X148234400Y-159105600D03*
D14*
X87782400Y-135229600D03*
X99161600Y-145338800D03*
X100330000Y-144490100D03*
X87782400Y-134162800D03*
X79044800Y-142443200D03*
X100152200Y-149580600D03*
X55016400Y-150622000D03*
X64312800Y-144881600D03*
X100888800Y-150114000D03*
X51765200Y-150723600D03*
X78943200Y-143459200D03*
X65735200Y-145237200D03*
X109931200Y-143967200D03*
X111431200Y-143916400D03*
X95554800Y-160629600D03*
X98958400Y-158699200D03*
X95504000Y-161493200D03*
X98145600Y-157429200D03*
X89001600Y-140411200D03*
X69138800Y-135636000D03*
D16*
X90754200Y-155169200D02*
X93852400Y-155169200D01*
X97129600Y-151892000D02*
X97129600Y-151739600D01*
X93852400Y-155169200D02*
X97129600Y-151892000D01*
D17*
X150977600Y-137566400D02*
X150977600Y-135636000D01*
X150012400Y-138531600D02*
X150977600Y-137566400D01*
X140055600Y-138988800D02*
X140512800Y-138531600D01*
X140512800Y-138531600D02*
X150012400Y-138531600D01*
X107797600Y-156514800D02*
X109270800Y-157988000D01*
X109270800Y-157988000D02*
X109270800Y-162509200D01*
X98520000Y-152571200D02*
X102463600Y-156514800D01*
X102463600Y-156514800D02*
X107797600Y-156514800D01*
X98520000Y-148100800D02*
X98520000Y-152571200D01*
X98958400Y-160070800D02*
X98399600Y-160629600D01*
X98399600Y-160629600D02*
X95554800Y-160629600D01*
X98958400Y-158699200D02*
X98958400Y-160070800D01*
G04 #@! TA.AperFunction,Conductor*
G36*
X87158909Y-133460015D02*
G01*
X87202932Y-133497615D01*
X87225087Y-133551102D01*
X87220545Y-133608818D01*
X87190295Y-133658181D01*
X87172252Y-133676223D01*
X87079277Y-133824193D01*
X87021558Y-133989142D01*
X87001992Y-134162800D01*
X87021558Y-134336457D01*
X87079276Y-134501403D01*
X87160221Y-134630227D01*
X87179227Y-134696199D01*
X87160222Y-134762170D01*
X87079276Y-134890997D01*
X87021558Y-135055942D01*
X87001992Y-135229599D01*
X87021558Y-135403257D01*
X87079277Y-135568206D01*
X87172252Y-135716176D01*
X87295823Y-135839747D01*
X87443793Y-135932722D01*
X87608742Y-135990441D01*
X87782400Y-136010007D01*
X87956057Y-135990441D01*
X88121006Y-135932722D01*
X88268976Y-135839747D01*
X88392547Y-135716176D01*
X88485522Y-135568206D01*
X88515127Y-135483600D01*
X135301015Y-135483600D01*
X135319703Y-135661404D01*
X135374949Y-135831435D01*
X135464340Y-135986265D01*
X135583971Y-136119127D01*
X135728603Y-136224210D01*
X135728606Y-136224211D01*
X135728607Y-136224212D01*
X135815794Y-136263030D01*
X135891935Y-136296930D01*
X136066807Y-136334100D01*
X136066809Y-136334100D01*
X136245591Y-136334100D01*
X136245593Y-136334100D01*
X136420464Y-136296930D01*
X136420465Y-136296929D01*
X136420467Y-136296929D01*
X136583793Y-136224212D01*
X136728430Y-136119126D01*
X136812553Y-136025697D01*
X136861477Y-135992449D01*
X136920241Y-135985650D01*
X136975468Y-136006849D01*
X137014589Y-136051223D01*
X137028700Y-136108672D01*
X137028700Y-136483069D01*
X137035109Y-136542684D01*
X137055337Y-136596917D01*
X137085404Y-136677531D01*
X137171654Y-136792746D01*
X137286869Y-136878996D01*
X137421717Y-136929291D01*
X137481327Y-136935700D01*
X139277072Y-136935699D01*
X139336683Y-136929291D01*
X139471531Y-136878996D01*
X139586746Y-136792746D01*
X139672996Y-136677531D01*
X139722010Y-136546116D01*
X139756989Y-136495737D01*
X139811834Y-136468284D01*
X139873127Y-136470473D01*
X139925873Y-136501769D01*
X140047799Y-136623695D01*
X140241370Y-136759235D01*
X140455537Y-136859103D01*
X140683792Y-136920263D01*
X140919200Y-136940859D01*
X141154608Y-136920263D01*
X141382863Y-136859103D01*
X141597030Y-136759235D01*
X141790601Y-136623695D01*
X141957695Y-136456601D01*
X142093235Y-136263030D01*
X142193103Y-136048863D01*
X142208446Y-135991600D01*
X144940815Y-135991600D01*
X144959503Y-136169404D01*
X145014749Y-136339435D01*
X145104140Y-136494265D01*
X145223771Y-136627127D01*
X145368403Y-136732210D01*
X145368406Y-136732211D01*
X145368407Y-136732212D01*
X145429102Y-136759235D01*
X145531735Y-136804930D01*
X145706607Y-136842100D01*
X145706609Y-136842100D01*
X145885391Y-136842100D01*
X145885393Y-136842100D01*
X146060264Y-136804930D01*
X146060265Y-136804929D01*
X146060267Y-136804929D01*
X146223593Y-136732212D01*
X146252957Y-136710878D01*
X146298854Y-136677531D01*
X146368230Y-136627126D01*
X146487859Y-136494265D01*
X146577250Y-136339435D01*
X146632497Y-136169403D01*
X146651185Y-135991600D01*
X146632497Y-135813797D01*
X146600778Y-135716176D01*
X146577250Y-135643764D01*
X146487859Y-135488934D01*
X146368228Y-135356072D01*
X146223596Y-135250989D01*
X146060264Y-135178269D01*
X145885393Y-135141100D01*
X145885391Y-135141100D01*
X145706609Y-135141100D01*
X145706607Y-135141100D01*
X145531735Y-135178269D01*
X145368408Y-135250987D01*
X145223768Y-135356074D01*
X145104140Y-135488934D01*
X145014749Y-135643764D01*
X144959503Y-135813795D01*
X144940815Y-135991600D01*
X142208446Y-135991600D01*
X142254263Y-135820608D01*
X142274859Y-135585200D01*
X142254263Y-135349792D01*
X142193103Y-135121537D01*
X142093235Y-134907371D01*
X141957695Y-134713799D01*
X141790601Y-134546705D01*
X141597030Y-134411165D01*
X141382863Y-134311297D01*
X141310505Y-134291909D01*
X141154607Y-134250136D01*
X140919200Y-134229540D01*
X140683792Y-134250136D01*
X140455536Y-134311297D01*
X140241370Y-134411165D01*
X140047801Y-134546703D01*
X139925873Y-134668631D01*
X139873126Y-134699926D01*
X139811834Y-134702115D01*
X139756989Y-134674662D01*
X139722010Y-134624282D01*
X139712022Y-134597503D01*
X139672996Y-134492869D01*
X139586746Y-134377654D01*
X139471531Y-134291404D01*
X139336683Y-134241109D01*
X139277073Y-134234700D01*
X139277069Y-134234700D01*
X137481330Y-134234700D01*
X137421715Y-134241109D01*
X137286869Y-134291404D01*
X137171654Y-134377654D01*
X137085404Y-134492868D01*
X137046232Y-134597893D01*
X137035109Y-134627717D01*
X137029648Y-134678517D01*
X137028700Y-134687331D01*
X137028700Y-134858526D01*
X137014589Y-134915975D01*
X136975469Y-134960348D01*
X136920242Y-134981548D01*
X136861478Y-134974749D01*
X136812551Y-134941499D01*
X136728428Y-134848072D01*
X136583796Y-134742989D01*
X136420464Y-134670269D01*
X136245593Y-134633100D01*
X136245591Y-134633100D01*
X136066809Y-134633100D01*
X136066807Y-134633100D01*
X135891935Y-134670269D01*
X135728608Y-134742987D01*
X135583968Y-134848074D01*
X135464340Y-134980934D01*
X135374949Y-135135764D01*
X135319703Y-135305795D01*
X135301015Y-135483600D01*
X88515127Y-135483600D01*
X88543241Y-135403257D01*
X88562807Y-135229600D01*
X88553773Y-135149423D01*
X88543241Y-135055942D01*
X88485522Y-134890993D01*
X88404578Y-134762170D01*
X88385572Y-134696199D01*
X88404577Y-134630230D01*
X88485522Y-134501406D01*
X88543241Y-134336457D01*
X88562807Y-134162800D01*
X88543241Y-133989143D01*
X88506667Y-133884623D01*
X88485522Y-133824193D01*
X88392547Y-133676223D01*
X88374505Y-133658181D01*
X88344255Y-133608818D01*
X88339713Y-133551102D01*
X88361868Y-133497615D01*
X88405891Y-133460015D01*
X88462186Y-133446500D01*
X159282486Y-133446500D01*
X159335294Y-133446500D01*
X159340702Y-133446617D01*
X159737845Y-133463957D01*
X159748581Y-133464897D01*
X160140010Y-133516429D01*
X160150648Y-133518304D01*
X160536102Y-133603758D01*
X160546542Y-133606556D01*
X160923068Y-133725273D01*
X160933214Y-133728966D01*
X161297971Y-133880054D01*
X161307762Y-133884620D01*
X161619570Y-134046937D01*
X161657942Y-134066912D01*
X161667309Y-134072319D01*
X161932255Y-134241109D01*
X162000281Y-134284446D01*
X162009142Y-134290651D01*
X162322348Y-134530982D01*
X162330635Y-134537936D01*
X162621701Y-134804649D01*
X162629350Y-134812298D01*
X162896063Y-135103364D01*
X162903017Y-135111651D01*
X163143348Y-135424857D01*
X163149553Y-135433718D01*
X163361679Y-135766689D01*
X163367087Y-135776057D01*
X163549376Y-136126230D01*
X163553948Y-136136034D01*
X163705029Y-136500775D01*
X163708729Y-136510941D01*
X163827442Y-136887453D01*
X163830242Y-136897901D01*
X163915693Y-137283343D01*
X163917571Y-137293997D01*
X163969100Y-137685399D01*
X163970043Y-137696175D01*
X163987382Y-138093297D01*
X163987500Y-138098706D01*
X163987500Y-167971294D01*
X163987382Y-167976703D01*
X163970043Y-168373824D01*
X163969100Y-168384600D01*
X163917571Y-168776002D01*
X163915693Y-168786656D01*
X163830242Y-169172098D01*
X163827442Y-169182546D01*
X163708729Y-169559058D01*
X163705029Y-169569224D01*
X163553948Y-169933965D01*
X163549376Y-169943769D01*
X163367087Y-170293942D01*
X163361679Y-170303310D01*
X163149553Y-170636281D01*
X163143348Y-170645142D01*
X162903017Y-170958348D01*
X162896063Y-170966635D01*
X162629350Y-171257701D01*
X162621701Y-171265350D01*
X162330635Y-171532063D01*
X162322348Y-171539017D01*
X162009142Y-171779348D01*
X162000281Y-171785553D01*
X161667310Y-171997679D01*
X161657942Y-172003087D01*
X161307769Y-172185376D01*
X161297965Y-172189948D01*
X160933224Y-172341029D01*
X160923058Y-172344729D01*
X160546546Y-172463442D01*
X160536098Y-172466242D01*
X160150656Y-172551693D01*
X160140002Y-172553571D01*
X159748600Y-172605100D01*
X159737824Y-172606043D01*
X159340703Y-172623382D01*
X159335294Y-172623500D01*
X41324706Y-172623500D01*
X41319297Y-172623382D01*
X40922175Y-172606043D01*
X40911399Y-172605100D01*
X40519997Y-172553571D01*
X40509343Y-172551693D01*
X40123901Y-172466242D01*
X40113453Y-172463442D01*
X39736941Y-172344729D01*
X39726775Y-172341029D01*
X39362034Y-172189948D01*
X39352230Y-172185376D01*
X39002057Y-172003087D01*
X38992689Y-171997679D01*
X38659718Y-171785553D01*
X38650857Y-171779348D01*
X38398710Y-171585869D01*
X48535100Y-171585869D01*
X48541509Y-171645484D01*
X48550887Y-171670627D01*
X48591804Y-171780331D01*
X48678054Y-171895546D01*
X48793269Y-171981796D01*
X48928117Y-172032091D01*
X48987727Y-172038500D01*
X50783472Y-172038499D01*
X50843083Y-172032091D01*
X50977931Y-171981796D01*
X51093146Y-171895546D01*
X51179396Y-171780331D01*
X51228410Y-171648916D01*
X51263389Y-171598537D01*
X51318234Y-171571084D01*
X51379527Y-171573273D01*
X51432273Y-171604569D01*
X51554199Y-171726495D01*
X51747770Y-171862035D01*
X51961937Y-171961903D01*
X52190192Y-172023063D01*
X52425600Y-172043659D01*
X52661008Y-172023063D01*
X52889263Y-171961903D01*
X53103430Y-171862035D01*
X53297001Y-171726495D01*
X53464095Y-171559401D01*
X53599635Y-171365830D01*
X53699503Y-171151663D01*
X53760663Y-170923408D01*
X53781259Y-170688000D01*
X53760663Y-170452592D01*
X53742070Y-170383200D01*
X96630540Y-170383200D01*
X96650326Y-170571457D01*
X96708820Y-170751484D01*
X96803466Y-170915416D01*
X96930129Y-171056089D01*
X97083269Y-171167351D01*
X97256197Y-171244344D01*
X97441352Y-171283700D01*
X97441354Y-171283700D01*
X97630646Y-171283700D01*
X97630648Y-171283700D01*
X97754084Y-171257462D01*
X97815803Y-171244344D01*
X97988730Y-171167351D01*
X98127002Y-171066891D01*
X98141870Y-171056089D01*
X98195343Y-170996702D01*
X98268533Y-170915416D01*
X98363179Y-170751484D01*
X98405684Y-170620669D01*
X132253500Y-170620669D01*
X132259909Y-170680284D01*
X132262787Y-170688000D01*
X132310204Y-170815131D01*
X132396454Y-170930346D01*
X132511669Y-171016596D01*
X132646517Y-171066891D01*
X132706127Y-171073300D01*
X134501872Y-171073299D01*
X134561483Y-171066891D01*
X134696331Y-171016596D01*
X134811546Y-170930346D01*
X134897796Y-170815131D01*
X134946810Y-170683716D01*
X134981789Y-170633337D01*
X135036634Y-170605884D01*
X135097927Y-170608073D01*
X135150673Y-170639369D01*
X135272599Y-170761295D01*
X135466170Y-170896835D01*
X135680337Y-170996703D01*
X135908592Y-171057863D01*
X136144000Y-171078459D01*
X136379408Y-171057863D01*
X136607663Y-170996703D01*
X136616033Y-170992800D01*
X146878740Y-170992800D01*
X146899336Y-171228207D01*
X146936211Y-171365827D01*
X146960497Y-171456463D01*
X147060365Y-171670630D01*
X147195905Y-171864201D01*
X147362999Y-172031295D01*
X147556570Y-172166835D01*
X147770737Y-172266703D01*
X147998991Y-172327862D01*
X147998992Y-172327863D01*
X148234399Y-172348459D01*
X148234399Y-172348458D01*
X148234400Y-172348459D01*
X148469808Y-172327863D01*
X148698063Y-172266703D01*
X148912230Y-172166835D01*
X149105801Y-172031295D01*
X149227729Y-171909366D01*
X149280472Y-171878073D01*
X149341765Y-171875884D01*
X149396609Y-171903337D01*
X149431589Y-171953716D01*
X149457454Y-172023063D01*
X149480604Y-172085131D01*
X149566854Y-172200346D01*
X149682069Y-172286596D01*
X149816917Y-172336891D01*
X149876527Y-172343300D01*
X151672272Y-172343299D01*
X151731883Y-172336891D01*
X151866731Y-172286596D01*
X151981946Y-172200346D01*
X152068196Y-172085131D01*
X152118491Y-171950283D01*
X152124900Y-171890673D01*
X152124899Y-170094928D01*
X152118491Y-170035317D01*
X152068196Y-169900469D01*
X151981946Y-169785254D01*
X151866731Y-169699004D01*
X151731883Y-169648709D01*
X151672273Y-169642300D01*
X151672269Y-169642300D01*
X149876530Y-169642300D01*
X149816915Y-169648709D01*
X149682069Y-169699004D01*
X149566854Y-169785254D01*
X149480604Y-169900469D01*
X149431589Y-170031883D01*
X149396609Y-170082262D01*
X149341765Y-170109715D01*
X149280472Y-170107526D01*
X149227726Y-170076230D01*
X149105804Y-169954308D01*
X149105801Y-169954305D01*
X148912230Y-169818765D01*
X148698063Y-169718897D01*
X148636902Y-169702509D01*
X148469807Y-169657736D01*
X148234400Y-169637140D01*
X147998992Y-169657736D01*
X147770736Y-169718897D01*
X147556570Y-169818765D01*
X147362998Y-169954305D01*
X147195905Y-170121398D01*
X147060365Y-170314970D01*
X146960497Y-170529136D01*
X146899336Y-170757392D01*
X146878740Y-170992800D01*
X136616033Y-170992800D01*
X136821830Y-170896835D01*
X137015401Y-170761295D01*
X137182495Y-170594201D01*
X137318035Y-170400630D01*
X137417903Y-170186463D01*
X137479063Y-169958208D01*
X137499659Y-169722800D01*
X137479063Y-169487392D01*
X137417903Y-169259137D01*
X137318035Y-169044971D01*
X137182495Y-168851399D01*
X137015401Y-168684305D01*
X136821830Y-168548765D01*
X136607663Y-168448897D01*
X136546502Y-168432509D01*
X136379407Y-168387736D01*
X136144000Y-168367140D01*
X135908592Y-168387736D01*
X135680336Y-168448897D01*
X135466170Y-168548765D01*
X135272601Y-168684303D01*
X135150673Y-168806231D01*
X135097926Y-168837526D01*
X135036634Y-168839715D01*
X134981789Y-168812262D01*
X134946810Y-168761882D01*
X134936089Y-168733139D01*
X134897796Y-168630469D01*
X134811546Y-168515254D01*
X134696331Y-168429004D01*
X134561483Y-168378709D01*
X134501873Y-168372300D01*
X134501869Y-168372300D01*
X132706130Y-168372300D01*
X132646515Y-168378709D01*
X132511669Y-168429004D01*
X132396454Y-168515254D01*
X132310204Y-168630468D01*
X132259909Y-168765316D01*
X132253500Y-168824930D01*
X132253500Y-170620669D01*
X98405684Y-170620669D01*
X98421674Y-170571456D01*
X98441460Y-170383200D01*
X98421674Y-170194944D01*
X98363179Y-170014916D01*
X98363179Y-170014915D01*
X98268533Y-169850983D01*
X98141870Y-169710310D01*
X97988730Y-169599048D01*
X97815802Y-169522055D01*
X97630648Y-169482700D01*
X97630646Y-169482700D01*
X97441354Y-169482700D01*
X97441352Y-169482700D01*
X97256197Y-169522055D01*
X97083269Y-169599048D01*
X96930129Y-169710310D01*
X96803466Y-169850983D01*
X96708820Y-170014915D01*
X96650326Y-170194942D01*
X96630540Y-170383200D01*
X53742070Y-170383200D01*
X53699503Y-170224337D01*
X53599635Y-170010171D01*
X53464095Y-169816599D01*
X53297001Y-169649505D01*
X53103430Y-169513965D01*
X52889263Y-169414097D01*
X52828102Y-169397709D01*
X52661007Y-169352936D01*
X52425600Y-169332340D01*
X52190192Y-169352936D01*
X51961936Y-169414097D01*
X51747770Y-169513965D01*
X51554201Y-169649503D01*
X51432273Y-169771431D01*
X51379526Y-169802726D01*
X51318234Y-169804915D01*
X51263389Y-169777462D01*
X51228410Y-169727082D01*
X51217937Y-169699004D01*
X51179396Y-169595669D01*
X51093146Y-169480454D01*
X50977931Y-169394204D01*
X50843083Y-169343909D01*
X50783473Y-169337500D01*
X50783469Y-169337500D01*
X48987730Y-169337500D01*
X48928115Y-169343909D01*
X48793269Y-169394204D01*
X48678054Y-169480454D01*
X48591804Y-169595668D01*
X48541509Y-169730516D01*
X48535100Y-169790130D01*
X48535100Y-171585869D01*
X38398710Y-171585869D01*
X38337651Y-171539017D01*
X38329364Y-171532063D01*
X38038298Y-171265350D01*
X38030649Y-171257701D01*
X37763936Y-170966635D01*
X37756982Y-170958348D01*
X37516651Y-170645142D01*
X37510446Y-170636281D01*
X37508570Y-170633337D01*
X37298319Y-170303309D01*
X37292912Y-170293942D01*
X37158279Y-170035315D01*
X37110620Y-169943762D01*
X37106051Y-169933965D01*
X37100520Y-169920612D01*
X36954966Y-169569214D01*
X36951270Y-169559058D01*
X36939603Y-169522056D01*
X36832556Y-169182542D01*
X36829757Y-169172098D01*
X36807775Y-169072944D01*
X36744304Y-168786648D01*
X36742428Y-168776002D01*
X36690897Y-168384581D01*
X36689957Y-168373845D01*
X36672617Y-167976702D01*
X36672500Y-167971294D01*
X36672500Y-167893999D01*
X73878531Y-167893999D01*
X73898364Y-168120689D01*
X73957261Y-168340497D01*
X74053432Y-168546735D01*
X74183953Y-168733140D01*
X74344859Y-168894046D01*
X74531264Y-169024567D01*
X74531265Y-169024567D01*
X74531266Y-169024568D01*
X74737504Y-169120739D01*
X74957308Y-169179635D01*
X75042261Y-169187067D01*
X75127214Y-169194500D01*
X75127216Y-169194500D01*
X75240784Y-169194500D01*
X75240786Y-169194500D01*
X75308747Y-169188553D01*
X75410692Y-169179635D01*
X75630496Y-169120739D01*
X75836734Y-169024568D01*
X76023139Y-168894047D01*
X76184047Y-168733139D01*
X76314568Y-168546734D01*
X76410739Y-168340496D01*
X76469635Y-168120692D01*
X76489468Y-167894000D01*
X124170531Y-167894000D01*
X124190364Y-168120689D01*
X124249261Y-168340497D01*
X124345432Y-168546735D01*
X124475953Y-168733140D01*
X124636859Y-168894046D01*
X124823264Y-169024567D01*
X124823265Y-169024567D01*
X124823266Y-169024568D01*
X125029504Y-169120739D01*
X125249308Y-169179635D01*
X125334261Y-169187067D01*
X125419214Y-169194500D01*
X125419216Y-169194500D01*
X125532784Y-169194500D01*
X125532786Y-169194500D01*
X125600747Y-169188553D01*
X125702692Y-169179635D01*
X125922496Y-169120739D01*
X126128734Y-169024568D01*
X126315139Y-168894047D01*
X126476047Y-168733139D01*
X126606568Y-168546734D01*
X126702739Y-168340496D01*
X126761635Y-168120692D01*
X126781468Y-167894000D01*
X126761635Y-167667308D01*
X126702739Y-167447504D01*
X126606568Y-167241266D01*
X126586199Y-167212176D01*
X126476046Y-167054859D01*
X126315140Y-166893953D01*
X126128735Y-166763432D01*
X125922497Y-166667261D01*
X125702689Y-166608364D01*
X125532786Y-166593500D01*
X125532784Y-166593500D01*
X125419216Y-166593500D01*
X125419214Y-166593500D01*
X125249310Y-166608364D01*
X125029502Y-166667261D01*
X124823264Y-166763432D01*
X124636859Y-166893953D01*
X124475953Y-167054859D01*
X124345432Y-167241264D01*
X124249261Y-167447502D01*
X124190364Y-167667310D01*
X124170531Y-167894000D01*
X76489468Y-167894000D01*
X76469635Y-167667308D01*
X76410739Y-167447504D01*
X76314568Y-167241266D01*
X76294199Y-167212176D01*
X76184046Y-167054859D01*
X76057987Y-166928800D01*
X106434415Y-166928800D01*
X106453103Y-167106604D01*
X106508349Y-167276635D01*
X106597740Y-167431465D01*
X106717371Y-167564327D01*
X106862003Y-167669410D01*
X107025335Y-167742130D01*
X107200207Y-167779300D01*
X107200209Y-167779300D01*
X107378991Y-167779300D01*
X107378993Y-167779300D01*
X107553864Y-167742130D01*
X107553865Y-167742129D01*
X107553867Y-167742129D01*
X107717193Y-167669412D01*
X107861830Y-167564326D01*
X107981459Y-167431465D01*
X108024992Y-167356061D01*
X108063486Y-167314962D01*
X108116192Y-167295125D01*
X108172236Y-167300645D01*
X108220059Y-167330383D01*
X108225423Y-167335747D01*
X108373393Y-167428722D01*
X108538342Y-167486441D01*
X108712000Y-167506007D01*
X108885657Y-167486441D01*
X109050606Y-167428722D01*
X109198576Y-167335747D01*
X109322147Y-167212176D01*
X109415122Y-167064206D01*
X109472841Y-166899257D01*
X109475236Y-166878000D01*
X114789592Y-166878000D01*
X114809158Y-167051657D01*
X114866877Y-167216606D01*
X114959852Y-167364576D01*
X115083423Y-167488147D01*
X115231393Y-167581122D01*
X115396342Y-167638841D01*
X115570000Y-167658407D01*
X115743657Y-167638841D01*
X115908606Y-167581122D01*
X116056576Y-167488147D01*
X116180147Y-167364576D01*
X116273122Y-167216606D01*
X116330841Y-167051657D01*
X116350407Y-166878000D01*
X116330841Y-166704343D01*
X116317865Y-166667261D01*
X116273122Y-166539393D01*
X116180147Y-166391423D01*
X116056576Y-166267852D01*
X115908606Y-166174877D01*
X115743657Y-166117158D01*
X115570000Y-166097592D01*
X115396342Y-166117158D01*
X115231393Y-166174877D01*
X115083423Y-166267852D01*
X114959852Y-166391423D01*
X114866877Y-166539393D01*
X114809158Y-166704342D01*
X114789592Y-166878000D01*
X109475236Y-166878000D01*
X109492407Y-166725600D01*
X109472841Y-166551943D01*
X109428818Y-166426135D01*
X109415122Y-166386993D01*
X109322147Y-166239023D01*
X109198576Y-166115452D01*
X109050606Y-166022477D01*
X108885657Y-165964758D01*
X108712000Y-165945192D01*
X108538342Y-165964758D01*
X108373393Y-166022477D01*
X108225423Y-166115452D01*
X108101853Y-166239022D01*
X108070443Y-166289012D01*
X108030041Y-166328888D01*
X107976103Y-166346581D01*
X107919931Y-166338384D01*
X107873300Y-166306013D01*
X107861828Y-166293272D01*
X107717196Y-166188189D01*
X107553864Y-166115469D01*
X107378993Y-166078300D01*
X107378991Y-166078300D01*
X107200209Y-166078300D01*
X107200207Y-166078300D01*
X107025335Y-166115469D01*
X106862008Y-166188187D01*
X106717368Y-166293274D01*
X106597740Y-166426134D01*
X106508349Y-166580964D01*
X106453103Y-166750995D01*
X106434415Y-166928800D01*
X76057987Y-166928800D01*
X76023140Y-166893953D01*
X75836735Y-166763432D01*
X75630497Y-166667261D01*
X75410689Y-166608364D01*
X75240786Y-166593500D01*
X75240784Y-166593500D01*
X75127216Y-166593500D01*
X75127214Y-166593500D01*
X74957310Y-166608364D01*
X74737502Y-166667261D01*
X74531264Y-166763432D01*
X74344859Y-166893953D01*
X74183953Y-167054859D01*
X74053432Y-167241264D01*
X73957261Y-167447502D01*
X73898364Y-167667310D01*
X73878531Y-167893999D01*
X36672500Y-167893999D01*
X36672500Y-161925000D01*
X40016531Y-161925000D01*
X40036364Y-162151689D01*
X40095261Y-162371497D01*
X40191432Y-162577735D01*
X40321953Y-162764140D01*
X40482859Y-162925046D01*
X40669264Y-163055567D01*
X40669265Y-163055567D01*
X40669266Y-163055568D01*
X40875504Y-163151739D01*
X41095308Y-163210635D01*
X41180261Y-163218067D01*
X41265214Y-163225500D01*
X41265216Y-163225500D01*
X41378784Y-163225500D01*
X41378786Y-163225500D01*
X41446747Y-163219553D01*
X41548692Y-163210635D01*
X41768496Y-163151739D01*
X41974734Y-163055568D01*
X42161139Y-162925047D01*
X42322047Y-162764139D01*
X42452568Y-162577734D01*
X42548739Y-162371496D01*
X42607635Y-162151692D01*
X42627468Y-161925000D01*
X42607635Y-161698308D01*
X42548739Y-161478504D01*
X42452568Y-161272266D01*
X42449111Y-161267329D01*
X42322046Y-161085859D01*
X42161140Y-160924953D01*
X41974735Y-160794432D01*
X41768497Y-160698261D01*
X41548689Y-160639364D01*
X41378786Y-160624500D01*
X41378784Y-160624500D01*
X41265216Y-160624500D01*
X41265214Y-160624500D01*
X41095310Y-160639364D01*
X40875502Y-160698261D01*
X40669264Y-160794432D01*
X40482859Y-160924953D01*
X40321953Y-161085859D01*
X40191432Y-161272264D01*
X40095261Y-161478502D01*
X40036364Y-161698310D01*
X40016531Y-161925000D01*
X36672500Y-161925000D01*
X36672500Y-158902400D01*
X51570415Y-158902400D01*
X51589103Y-159080204D01*
X51644349Y-159250235D01*
X51733740Y-159405065D01*
X51853371Y-159537927D01*
X51998003Y-159643010D01*
X52161335Y-159715730D01*
X52336207Y-159752900D01*
X52336209Y-159752900D01*
X52514991Y-159752900D01*
X52514993Y-159752900D01*
X52689864Y-159715730D01*
X52689865Y-159715729D01*
X52689867Y-159715729D01*
X52853193Y-159643012D01*
X52997830Y-159537926D01*
X53117459Y-159405065D01*
X53206850Y-159250235D01*
X53262097Y-159080203D01*
X53280785Y-158902400D01*
X53262097Y-158724597D01*
X53206850Y-158554565D01*
X53206849Y-158554563D01*
X53206849Y-158554562D01*
X53194169Y-158532601D01*
X53184361Y-158496000D01*
X67478340Y-158496000D01*
X67498936Y-158731407D01*
X67536838Y-158872857D01*
X67560097Y-158959663D01*
X67659965Y-159173830D01*
X67795505Y-159367401D01*
X67962599Y-159534495D01*
X68156170Y-159670035D01*
X68370337Y-159769903D01*
X68598592Y-159831063D01*
X68834000Y-159851659D01*
X69069408Y-159831063D01*
X69297663Y-159769903D01*
X69511830Y-159670035D01*
X69705401Y-159534495D01*
X69727897Y-159511999D01*
X93365815Y-159511999D01*
X93384503Y-159689804D01*
X93439749Y-159859835D01*
X93529140Y-160014665D01*
X93648771Y-160147527D01*
X93793403Y-160252610D01*
X93793406Y-160252611D01*
X93793407Y-160252612D01*
X93799247Y-160255212D01*
X93956735Y-160325330D01*
X94131607Y-160362500D01*
X94131609Y-160362500D01*
X94310391Y-160362500D01*
X94310393Y-160362500D01*
X94485264Y-160325330D01*
X94485265Y-160325329D01*
X94485267Y-160325329D01*
X94642754Y-160255211D01*
X94698935Y-160244625D01*
X94753897Y-160260370D01*
X94795953Y-160299100D01*
X94816162Y-160352582D01*
X94810229Y-160409446D01*
X94793958Y-160455945D01*
X94774392Y-160629599D01*
X94793958Y-160803257D01*
X94855675Y-160979630D01*
X94861854Y-161034468D01*
X94843628Y-161086556D01*
X94800877Y-161154593D01*
X94743158Y-161319542D01*
X94723592Y-161493200D01*
X94743158Y-161666857D01*
X94800877Y-161831806D01*
X94893852Y-161979776D01*
X95017423Y-162103347D01*
X95165393Y-162196322D01*
X95330342Y-162254041D01*
X95504000Y-162273607D01*
X95677657Y-162254041D01*
X95842606Y-162196322D01*
X95990576Y-162103347D01*
X96114147Y-161979776D01*
X96207122Y-161831806D01*
X96264841Y-161666857D01*
X96284407Y-161493200D01*
X96282751Y-161478502D01*
X96275933Y-161417983D01*
X96287433Y-161350298D01*
X96333181Y-161299106D01*
X96399153Y-161280100D01*
X98314095Y-161280100D01*
X98335304Y-161282441D01*
X98337894Y-161282359D01*
X98337896Y-161282360D01*
X98407862Y-161280160D01*
X98411757Y-161280100D01*
X98440520Y-161280100D01*
X98440525Y-161280100D01*
X98444902Y-161279546D01*
X98456541Y-161278630D01*
X98502169Y-161277197D01*
X98522549Y-161271275D01*
X98541589Y-161267332D01*
X98562658Y-161264671D01*
X98605120Y-161247858D01*
X98616157Y-161244080D01*
X98659998Y-161231344D01*
X98678270Y-161220536D01*
X98695736Y-161211980D01*
X98715471Y-161204168D01*
X98752416Y-161177325D01*
X98762148Y-161170932D01*
X98801465Y-161147681D01*
X98816474Y-161132671D01*
X98831263Y-161120039D01*
X98848437Y-161107563D01*
X98877546Y-161072374D01*
X98885390Y-161063754D01*
X99357913Y-160591231D01*
X99374562Y-160577894D01*
X99376336Y-160576004D01*
X99376340Y-160576002D01*
X99424298Y-160524930D01*
X99426946Y-160522198D01*
X99447312Y-160501834D01*
X99450012Y-160498351D01*
X99457588Y-160489480D01*
X99488848Y-160456193D01*
X99499072Y-160437593D01*
X99509751Y-160421336D01*
X99522763Y-160404563D01*
X99540898Y-160362652D01*
X99546033Y-160352174D01*
X99568026Y-160312170D01*
X99571382Y-160299100D01*
X99573304Y-160291612D01*
X99579608Y-160273199D01*
X99588036Y-160253726D01*
X99595178Y-160208624D01*
X99597543Y-160197205D01*
X99608900Y-160152977D01*
X99608900Y-160131755D01*
X99610427Y-160112356D01*
X99613747Y-160091395D01*
X99609449Y-160045936D01*
X99608900Y-160034269D01*
X99608900Y-159157278D01*
X99627906Y-159091307D01*
X99661522Y-159037806D01*
X99719241Y-158872857D01*
X99738807Y-158699200D01*
X99719241Y-158525542D01*
X99661522Y-158360593D01*
X99568547Y-158212623D01*
X99444976Y-158089052D01*
X99297006Y-157996077D01*
X99132056Y-157938358D01*
X98956566Y-157918585D01*
X98904478Y-157900358D01*
X98865456Y-157861336D01*
X98847230Y-157809248D01*
X98853408Y-157754412D01*
X98906441Y-157602857D01*
X98926007Y-157429200D01*
X98906441Y-157255543D01*
X98896103Y-157226000D01*
X98848722Y-157090593D01*
X98755747Y-156942623D01*
X98632176Y-156819052D01*
X98484206Y-156726077D01*
X98319257Y-156668358D01*
X98145600Y-156648792D01*
X97971942Y-156668358D01*
X97806993Y-156726077D01*
X97659023Y-156819052D01*
X97535452Y-156942623D01*
X97442477Y-157090593D01*
X97384758Y-157255542D01*
X97365192Y-157429200D01*
X97384758Y-157602857D01*
X97442477Y-157767806D01*
X97535452Y-157915776D01*
X97659023Y-158039347D01*
X97806993Y-158132322D01*
X97971943Y-158190041D01*
X98147432Y-158209814D01*
X98199521Y-158228040D01*
X98238543Y-158267062D01*
X98256769Y-158319151D01*
X98250590Y-158373989D01*
X98197558Y-158525542D01*
X98177992Y-158699200D01*
X98197558Y-158872857D01*
X98255277Y-159037806D01*
X98288894Y-159091307D01*
X98307900Y-159157278D01*
X98307900Y-159749992D01*
X98298461Y-159797445D01*
X98271581Y-159837673D01*
X98166473Y-159942781D01*
X98126245Y-159969661D01*
X98078792Y-159979100D01*
X96679946Y-159979100D01*
X96623651Y-159965585D01*
X96579628Y-159927985D01*
X96557473Y-159874498D01*
X96562015Y-159816782D01*
X96570783Y-159789796D01*
X96607497Y-159676803D01*
X96626185Y-159499000D01*
X96607497Y-159321197D01*
X96578840Y-159233001D01*
X96552250Y-159151164D01*
X96462859Y-158996334D01*
X96354932Y-158876470D01*
X96343230Y-158863474D01*
X96343229Y-158863473D01*
X96343228Y-158863472D01*
X96198596Y-158758389D01*
X96035264Y-158685669D01*
X95860393Y-158648500D01*
X95860391Y-158648500D01*
X95681609Y-158648500D01*
X95681607Y-158648500D01*
X95506735Y-158685669D01*
X95343408Y-158758387D01*
X95198771Y-158863472D01*
X95082297Y-158992830D01*
X95024326Y-159029053D01*
X94955968Y-159029054D01*
X94897998Y-158992831D01*
X94793230Y-158876474D01*
X94793225Y-158876471D01*
X94793225Y-158876470D01*
X94648596Y-158771389D01*
X94485264Y-158698669D01*
X94310393Y-158661500D01*
X94310391Y-158661500D01*
X94131609Y-158661500D01*
X94131607Y-158661500D01*
X93956735Y-158698669D01*
X93793408Y-158771387D01*
X93648768Y-158876474D01*
X93529140Y-159009334D01*
X93439749Y-159164164D01*
X93384503Y-159334195D01*
X93365815Y-159511999D01*
X69727897Y-159511999D01*
X69872495Y-159367401D01*
X70008035Y-159173830D01*
X70107903Y-158959663D01*
X70169063Y-158731408D01*
X70189659Y-158496000D01*
X70169063Y-158260592D01*
X70107903Y-158032337D01*
X70008035Y-157818171D01*
X69872495Y-157624599D01*
X69705401Y-157457505D01*
X69519839Y-157327573D01*
X69480975Y-157283257D01*
X69466964Y-157226000D01*
X69480975Y-157168743D01*
X69519839Y-157124426D01*
X69705401Y-156994495D01*
X69872495Y-156827401D01*
X70008035Y-156633830D01*
X70107903Y-156419663D01*
X70169063Y-156191408D01*
X70189659Y-155956000D01*
X70182629Y-155875654D01*
X70169063Y-155720592D01*
X70149040Y-155645865D01*
X70107903Y-155492337D01*
X70008035Y-155278171D01*
X69931732Y-155169199D01*
X89848740Y-155169199D01*
X89868526Y-155357457D01*
X89927020Y-155537484D01*
X90021666Y-155701416D01*
X90148329Y-155842089D01*
X90301469Y-155953351D01*
X90474397Y-156030344D01*
X90659552Y-156069700D01*
X90659554Y-156069700D01*
X90848846Y-156069700D01*
X90848848Y-156069700D01*
X90972284Y-156043462D01*
X91034003Y-156030344D01*
X91199792Y-155956529D01*
X91206928Y-155953352D01*
X91206928Y-155953351D01*
X91206930Y-155953351D01*
X91220649Y-155943383D01*
X91255218Y-155925769D01*
X91293537Y-155919700D01*
X91307216Y-155919700D01*
X91366953Y-155935038D01*
X91411913Y-155977257D01*
X91430971Y-156035914D01*
X91419415Y-156096496D01*
X91380102Y-156144018D01*
X91324968Y-156184074D01*
X91205340Y-156316934D01*
X91115949Y-156471764D01*
X91060703Y-156641795D01*
X91042015Y-156819600D01*
X91060703Y-156997404D01*
X91115949Y-157167435D01*
X91205340Y-157322265D01*
X91215505Y-157333554D01*
X91241286Y-157378208D01*
X91246676Y-157429487D01*
X91230742Y-157478526D01*
X91166749Y-157589364D01*
X91111503Y-157759395D01*
X91092815Y-157937200D01*
X91111503Y-158115004D01*
X91166749Y-158285035D01*
X91256140Y-158439865D01*
X91375771Y-158572727D01*
X91520403Y-158677810D01*
X91520406Y-158677811D01*
X91520407Y-158677812D01*
X91568446Y-158699200D01*
X91683735Y-158750530D01*
X91858607Y-158787700D01*
X91858609Y-158787700D01*
X92037391Y-158787700D01*
X92037393Y-158787700D01*
X92212264Y-158750530D01*
X92212265Y-158750529D01*
X92212267Y-158750529D01*
X92375593Y-158677812D01*
X92520230Y-158572726D01*
X92639859Y-158439865D01*
X92729250Y-158285035D01*
X92784497Y-158115003D01*
X92803185Y-157937200D01*
X92784497Y-157759397D01*
X92734809Y-157606474D01*
X92729250Y-157589364D01*
X92639859Y-157434534D01*
X92629694Y-157423245D01*
X92603913Y-157378591D01*
X92598523Y-157327311D01*
X92614455Y-157278277D01*
X92678450Y-157167435D01*
X92733697Y-156997403D01*
X92752385Y-156819600D01*
X92733697Y-156641797D01*
X92678450Y-156471765D01*
X92678450Y-156471764D01*
X92589059Y-156316934D01*
X92469430Y-156184074D01*
X92414297Y-156144017D01*
X92374985Y-156096495D01*
X92363429Y-156035913D01*
X92382488Y-155977257D01*
X92427447Y-155935038D01*
X92487184Y-155919700D01*
X93788694Y-155919700D01*
X93806664Y-155921009D01*
X93810720Y-155921602D01*
X93830423Y-155924489D01*
X93879768Y-155920172D01*
X93890576Y-155919700D01*
X93896106Y-155919700D01*
X93896109Y-155919700D01*
X93926950Y-155916094D01*
X93930431Y-155915739D01*
X94005197Y-155909199D01*
X94005197Y-155909198D01*
X94006452Y-155909089D01*
X94025462Y-155904874D01*
X94026650Y-155904441D01*
X94026655Y-155904441D01*
X94097220Y-155878757D01*
X94100495Y-155877619D01*
X94171734Y-155854014D01*
X94171736Y-155854012D01*
X94172936Y-155853615D01*
X94190463Y-155845129D01*
X94191512Y-155844438D01*
X94191517Y-155844437D01*
X94254206Y-155803205D01*
X94257198Y-155801299D01*
X94321056Y-155761912D01*
X94321056Y-155761911D01*
X94322129Y-155761250D01*
X94337224Y-155748953D01*
X94338092Y-155748032D01*
X94338096Y-155748030D01*
X94389585Y-155693453D01*
X94392031Y-155690935D01*
X97615238Y-152467727D01*
X97628856Y-152455957D01*
X97648130Y-152441610D01*
X97648541Y-152441119D01*
X97696357Y-152406146D01*
X97754941Y-152397347D01*
X97810921Y-152416730D01*
X97851521Y-152459872D01*
X97867473Y-152516925D01*
X97869439Y-152579461D01*
X97869500Y-152583357D01*
X97869500Y-152612126D01*
X97870053Y-152616507D01*
X97870968Y-152628140D01*
X97872402Y-152673769D01*
X97878323Y-152694150D01*
X97882267Y-152713195D01*
X97884928Y-152734259D01*
X97901737Y-152776715D01*
X97905520Y-152787763D01*
X97918256Y-152831600D01*
X97929061Y-152849870D01*
X97937621Y-152867343D01*
X97945431Y-152887069D01*
X97972267Y-152924008D01*
X97978673Y-152933760D01*
X98001919Y-152973065D01*
X98001921Y-152973067D01*
X98016925Y-152988071D01*
X98029564Y-153002869D01*
X98042037Y-153020037D01*
X98077212Y-153049136D01*
X98085854Y-153057000D01*
X98323872Y-153295018D01*
X98353232Y-153341744D01*
X98359411Y-153396582D01*
X98341185Y-153448670D01*
X98255277Y-153585393D01*
X98197558Y-153750342D01*
X98177992Y-153923999D01*
X98197558Y-154097657D01*
X98255277Y-154262606D01*
X98348252Y-154410576D01*
X98471823Y-154534147D01*
X98619793Y-154627122D01*
X98784742Y-154684841D01*
X98958399Y-154704407D01*
X98958399Y-154704406D01*
X98958400Y-154704407D01*
X99132057Y-154684841D01*
X99297006Y-154627122D01*
X99433732Y-154541211D01*
X99485815Y-154522987D01*
X99540653Y-154529165D01*
X99587380Y-154558526D01*
X101943164Y-156914310D01*
X101956512Y-156930969D01*
X102009431Y-156980664D01*
X102012228Y-156983375D01*
X102032562Y-157003709D01*
X102036043Y-157006409D01*
X102044926Y-157013995D01*
X102078207Y-157045248D01*
X102096798Y-157055468D01*
X102113062Y-157066151D01*
X102129835Y-157079162D01*
X102171738Y-157097295D01*
X102182226Y-157102433D01*
X102222232Y-157124427D01*
X102242797Y-157129706D01*
X102261193Y-157136005D01*
X102280674Y-157144436D01*
X102325778Y-157151579D01*
X102337197Y-157153944D01*
X102381423Y-157165300D01*
X102402645Y-157165300D01*
X102422043Y-157166826D01*
X102443005Y-157170147D01*
X102488463Y-157165849D01*
X102500131Y-157165300D01*
X107476792Y-157165300D01*
X107524245Y-157174739D01*
X107564473Y-157201619D01*
X108583981Y-158221127D01*
X108610861Y-158261355D01*
X108620300Y-158308808D01*
X108620300Y-162051122D01*
X108601294Y-162117093D01*
X108567677Y-162170593D01*
X108509958Y-162335542D01*
X108490392Y-162509199D01*
X108509958Y-162682857D01*
X108567677Y-162847806D01*
X108660652Y-162995776D01*
X108784223Y-163119347D01*
X108932193Y-163212322D01*
X109097142Y-163270041D01*
X109270800Y-163289607D01*
X109444457Y-163270041D01*
X109609406Y-163212322D01*
X109757376Y-163119347D01*
X109880947Y-162995776D01*
X109973922Y-162847806D01*
X110031641Y-162682857D01*
X110051207Y-162509200D01*
X110045483Y-162458400D01*
X118778815Y-162458400D01*
X118797503Y-162636204D01*
X118852749Y-162806235D01*
X118942140Y-162961065D01*
X119061771Y-163093927D01*
X119206403Y-163199010D01*
X119206406Y-163199011D01*
X119206407Y-163199012D01*
X119315291Y-163247490D01*
X119369735Y-163271730D01*
X119544607Y-163308900D01*
X119544609Y-163308900D01*
X119723391Y-163308900D01*
X119723393Y-163308900D01*
X119898264Y-163271730D01*
X119898265Y-163271729D01*
X119898267Y-163271729D01*
X120061593Y-163199012D01*
X120206230Y-163093926D01*
X120325859Y-162961065D01*
X120415250Y-162806235D01*
X120470497Y-162636203D01*
X120489185Y-162458400D01*
X120470497Y-162280597D01*
X120415250Y-162110565D01*
X120415250Y-162110564D01*
X120325859Y-161955734D01*
X120298186Y-161925000D01*
X158032531Y-161925000D01*
X158052364Y-162151689D01*
X158111261Y-162371497D01*
X158207432Y-162577735D01*
X158337953Y-162764140D01*
X158498859Y-162925046D01*
X158685264Y-163055567D01*
X158685265Y-163055567D01*
X158685266Y-163055568D01*
X158891504Y-163151739D01*
X159111308Y-163210635D01*
X159196261Y-163218067D01*
X159281214Y-163225500D01*
X159281216Y-163225500D01*
X159394784Y-163225500D01*
X159394786Y-163225500D01*
X159462747Y-163219553D01*
X159564692Y-163210635D01*
X159784496Y-163151739D01*
X159990734Y-163055568D01*
X160177139Y-162925047D01*
X160338047Y-162764139D01*
X160468568Y-162577734D01*
X160564739Y-162371496D01*
X160623635Y-162151692D01*
X160643468Y-161925000D01*
X160623635Y-161698308D01*
X160564739Y-161478504D01*
X160468568Y-161272266D01*
X160465111Y-161267329D01*
X160338046Y-161085859D01*
X160177140Y-160924953D01*
X159990735Y-160794432D01*
X159784497Y-160698261D01*
X159564689Y-160639364D01*
X159394786Y-160624500D01*
X159394784Y-160624500D01*
X159281216Y-160624500D01*
X159281214Y-160624500D01*
X159111310Y-160639364D01*
X158891502Y-160698261D01*
X158685264Y-160794432D01*
X158498859Y-160924953D01*
X158337953Y-161085859D01*
X158207432Y-161272264D01*
X158111261Y-161478502D01*
X158052364Y-161698310D01*
X158032531Y-161925000D01*
X120298186Y-161925000D01*
X120206228Y-161822872D01*
X120061596Y-161717789D01*
X119898264Y-161645069D01*
X119723393Y-161607900D01*
X119723391Y-161607900D01*
X119544609Y-161607900D01*
X119544607Y-161607900D01*
X119369735Y-161645069D01*
X119206408Y-161717787D01*
X119061768Y-161822874D01*
X118942140Y-161955734D01*
X118852749Y-162110564D01*
X118797503Y-162280595D01*
X118778815Y-162458400D01*
X110045483Y-162458400D01*
X110031641Y-162335543D01*
X110012414Y-162280597D01*
X109973922Y-162170593D01*
X109940306Y-162117093D01*
X109921300Y-162051122D01*
X109921300Y-158073504D01*
X109923641Y-158052294D01*
X109923234Y-158039347D01*
X109921360Y-157979736D01*
X109921300Y-157975842D01*
X109921300Y-157947081D01*
X109921300Y-157947075D01*
X109920746Y-157942695D01*
X109919830Y-157931054D01*
X109919445Y-157918793D01*
X109918397Y-157885430D01*
X109912475Y-157865047D01*
X109908532Y-157846010D01*
X109905871Y-157824942D01*
X109889066Y-157782498D01*
X109885281Y-157771444D01*
X109875953Y-157739335D01*
X109872544Y-157727601D01*
X109861734Y-157709322D01*
X109853180Y-157691862D01*
X109845368Y-157672129D01*
X109818523Y-157635180D01*
X109812132Y-157625451D01*
X109788881Y-157586135D01*
X109773868Y-157571122D01*
X109761235Y-157556330D01*
X109748763Y-157539163D01*
X109713579Y-157510056D01*
X109704940Y-157502194D01*
X108318034Y-156115288D01*
X108304691Y-156098633D01*
X108251766Y-156048934D01*
X108248969Y-156046223D01*
X108228634Y-156025888D01*
X108225147Y-156023183D01*
X108216271Y-156015601D01*
X108182994Y-155984352D01*
X108164393Y-155974126D01*
X108148132Y-155963445D01*
X108138534Y-155956000D01*
X130310340Y-155956000D01*
X130330936Y-156191407D01*
X130364571Y-156316934D01*
X130392097Y-156419663D01*
X130491965Y-156633830D01*
X130627505Y-156827401D01*
X130627507Y-156827403D01*
X130627508Y-156827404D01*
X130749430Y-156949326D01*
X130780726Y-157002072D01*
X130782915Y-157063365D01*
X130755462Y-157118209D01*
X130705083Y-157153189D01*
X130573669Y-157202204D01*
X130458454Y-157288454D01*
X130372204Y-157403668D01*
X130321909Y-157538516D01*
X130320306Y-157553419D01*
X130316790Y-157586135D01*
X130315500Y-157598130D01*
X130315500Y-159393869D01*
X130316704Y-159405065D01*
X130321909Y-159453483D01*
X130372204Y-159588331D01*
X130458454Y-159703546D01*
X130573669Y-159789796D01*
X130708517Y-159840091D01*
X130768127Y-159846500D01*
X132563872Y-159846499D01*
X132623483Y-159840091D01*
X132758331Y-159789796D01*
X132873546Y-159703546D01*
X132959796Y-159588331D01*
X133010091Y-159453483D01*
X133016500Y-159393873D01*
X133016500Y-159105600D01*
X147379215Y-159105600D01*
X147386386Y-159173827D01*
X147397903Y-159283404D01*
X147453149Y-159453435D01*
X147542540Y-159608265D01*
X147662171Y-159741127D01*
X147806803Y-159846210D01*
X147806806Y-159846211D01*
X147806807Y-159846212D01*
X147837405Y-159859835D01*
X147970135Y-159918930D01*
X148145007Y-159956100D01*
X148145009Y-159956100D01*
X148323791Y-159956100D01*
X148323793Y-159956100D01*
X148498664Y-159918930D01*
X148498665Y-159918929D01*
X148498667Y-159918929D01*
X148661993Y-159846212D01*
X148806630Y-159741126D01*
X148926259Y-159608265D01*
X149015650Y-159453435D01*
X149070897Y-159283403D01*
X149089585Y-159105600D01*
X149070897Y-158927797D01*
X149015650Y-158757765D01*
X149015649Y-158757764D01*
X149015649Y-158757762D01*
X149002969Y-158735801D01*
X148986355Y-158673800D01*
X149002969Y-158611799D01*
X149015649Y-158589837D01*
X149015650Y-158589835D01*
X149070897Y-158419803D01*
X149089585Y-158242000D01*
X149070897Y-158064197D01*
X149022672Y-157915776D01*
X149015650Y-157894164D01*
X148926259Y-157739334D01*
X148806628Y-157606472D01*
X148661996Y-157501389D01*
X148498664Y-157428669D01*
X148323793Y-157391500D01*
X148323791Y-157391500D01*
X148145009Y-157391500D01*
X148145007Y-157391500D01*
X147970135Y-157428669D01*
X147806808Y-157501387D01*
X147662168Y-157606474D01*
X147542540Y-157739334D01*
X147453149Y-157894164D01*
X147397903Y-158064195D01*
X147379215Y-158242000D01*
X147397903Y-158419804D01*
X147453149Y-158589835D01*
X147465831Y-158611800D01*
X147482444Y-158673800D01*
X147465831Y-158735800D01*
X147453149Y-158757764D01*
X147397903Y-158927795D01*
X147397902Y-158927797D01*
X147397903Y-158927797D01*
X147379215Y-159105600D01*
X133016500Y-159105600D01*
X133016499Y-157598128D01*
X133010091Y-157538517D01*
X132959796Y-157403669D01*
X132873546Y-157288454D01*
X132758331Y-157202204D01*
X132696898Y-157179291D01*
X132626916Y-157153189D01*
X132576537Y-157118209D01*
X132549084Y-157063365D01*
X132551273Y-157002072D01*
X132582566Y-156949329D01*
X132704495Y-156827401D01*
X132840035Y-156633830D01*
X132939903Y-156419663D01*
X133001063Y-156191408D01*
X133021659Y-155956000D01*
X133014629Y-155875654D01*
X133001063Y-155720592D01*
X132981040Y-155645865D01*
X132939903Y-155492337D01*
X132840035Y-155278171D01*
X132704495Y-155084599D01*
X132537401Y-154917505D01*
X132351839Y-154787573D01*
X132312975Y-154743257D01*
X132298964Y-154686000D01*
X132312975Y-154628743D01*
X132351839Y-154584426D01*
X132424427Y-154533600D01*
X145347215Y-154533600D01*
X145348015Y-154541214D01*
X145365903Y-154711404D01*
X145421149Y-154881435D01*
X145510540Y-155036265D01*
X145630171Y-155169127D01*
X145774803Y-155274210D01*
X145774806Y-155274211D01*
X145774807Y-155274212D01*
X145879902Y-155321003D01*
X145938135Y-155346930D01*
X146117841Y-155385127D01*
X146175032Y-155414267D01*
X146209991Y-155468098D01*
X146233950Y-155541836D01*
X146323340Y-155696665D01*
X146442971Y-155829527D01*
X146587603Y-155934610D01*
X146587606Y-155934611D01*
X146587607Y-155934612D01*
X146683390Y-155977257D01*
X146750935Y-156007330D01*
X146925807Y-156044500D01*
X146925809Y-156044500D01*
X147104591Y-156044500D01*
X147104593Y-156044500D01*
X147279462Y-156007330D01*
X147279461Y-156007330D01*
X147279467Y-156007329D01*
X147442793Y-155934612D01*
X147470026Y-155914824D01*
X147529949Y-155891821D01*
X147593347Y-155901862D01*
X147716135Y-155956530D01*
X147891007Y-155993700D01*
X147891009Y-155993700D01*
X148069791Y-155993700D01*
X148069793Y-155993700D01*
X148244664Y-155956530D01*
X148244665Y-155956529D01*
X148244667Y-155956529D01*
X148407993Y-155883812D01*
X148416538Y-155877604D01*
X148465419Y-155842089D01*
X148552630Y-155778726D01*
X148672259Y-155645865D01*
X148761650Y-155491035D01*
X148778885Y-155437990D01*
X148810676Y-155387113D01*
X148862635Y-155357114D01*
X148922596Y-155355020D01*
X149059407Y-155384100D01*
X149059409Y-155384100D01*
X149238191Y-155384100D01*
X149238193Y-155384100D01*
X149413064Y-155346930D01*
X149413065Y-155346929D01*
X149413067Y-155346929D01*
X149576393Y-155274212D01*
X149721030Y-155169126D01*
X149840659Y-155036265D01*
X149930050Y-154881435D01*
X149985297Y-154711403D01*
X150003985Y-154533600D01*
X149985297Y-154355797D01*
X149941307Y-154220410D01*
X149930050Y-154185764D01*
X149840659Y-154030934D01*
X149721028Y-153898072D01*
X149576396Y-153792989D01*
X149413064Y-153720269D01*
X149238193Y-153683100D01*
X149238191Y-153683100D01*
X149059409Y-153683100D01*
X149059407Y-153683100D01*
X148884535Y-153720269D01*
X148721208Y-153792987D01*
X148576568Y-153898074D01*
X148456940Y-154030934D01*
X148367548Y-154185766D01*
X148350313Y-154238809D01*
X148318520Y-154289688D01*
X148266562Y-154319686D01*
X148206603Y-154321779D01*
X148069794Y-154292700D01*
X148069791Y-154292700D01*
X147891009Y-154292700D01*
X147891007Y-154292700D01*
X147716135Y-154329869D01*
X147552806Y-154402588D01*
X147525569Y-154422377D01*
X147465646Y-154445378D01*
X147402251Y-154435337D01*
X147279464Y-154380669D01*
X147099758Y-154342472D01*
X147042567Y-154313332D01*
X147007608Y-154259500D01*
X146983650Y-154185764D01*
X146894259Y-154030934D01*
X146774628Y-153898072D01*
X146629996Y-153792989D01*
X146466664Y-153720269D01*
X146291793Y-153683100D01*
X146291791Y-153683100D01*
X146113009Y-153683100D01*
X146113007Y-153683100D01*
X145938135Y-153720269D01*
X145774808Y-153792987D01*
X145630168Y-153898074D01*
X145510540Y-154030934D01*
X145421149Y-154185764D01*
X145365903Y-154355795D01*
X145356385Y-154446355D01*
X145347215Y-154533600D01*
X132424427Y-154533600D01*
X132537401Y-154454495D01*
X132704495Y-154287401D01*
X132840035Y-154093830D01*
X132939903Y-153879663D01*
X133001063Y-153651408D01*
X133021659Y-153416000D01*
X133001063Y-153180592D01*
X132939903Y-152952337D01*
X132840035Y-152738171D01*
X132704495Y-152544599D01*
X132537401Y-152377505D01*
X132351839Y-152247573D01*
X132312975Y-152203257D01*
X132298964Y-152146000D01*
X132312975Y-152088743D01*
X132351839Y-152044426D01*
X132537401Y-151914495D01*
X132704495Y-151747401D01*
X132840035Y-151553830D01*
X132848163Y-151536400D01*
X146082392Y-151536400D01*
X146101958Y-151710057D01*
X146159677Y-151875006D01*
X146252652Y-152022976D01*
X146376223Y-152146547D01*
X146524193Y-152239522D01*
X146689142Y-152297241D01*
X146862800Y-152316807D01*
X147036457Y-152297241D01*
X147201406Y-152239522D01*
X147349376Y-152146547D01*
X147472947Y-152022976D01*
X147565922Y-151875006D01*
X147623641Y-151710057D01*
X147643207Y-151536400D01*
X147637247Y-151483506D01*
X147623641Y-151362742D01*
X147565922Y-151197793D01*
X147472947Y-151049823D01*
X147349376Y-150926252D01*
X147201406Y-150833277D01*
X147036457Y-150775558D01*
X146862800Y-150755992D01*
X146689142Y-150775558D01*
X146524193Y-150833277D01*
X146376223Y-150926252D01*
X146252652Y-151049823D01*
X146159677Y-151197793D01*
X146101958Y-151362742D01*
X146082392Y-151536400D01*
X132848163Y-151536400D01*
X132939903Y-151339663D01*
X133001063Y-151111408D01*
X133021659Y-150876000D01*
X133001063Y-150640592D01*
X132939903Y-150412337D01*
X132840035Y-150198171D01*
X132704495Y-150004599D01*
X132537401Y-149837505D01*
X132351839Y-149707573D01*
X132312976Y-149663257D01*
X132298965Y-149606000D01*
X132312976Y-149548743D01*
X132351839Y-149504426D01*
X132537401Y-149374495D01*
X132704495Y-149207401D01*
X132840035Y-149013830D01*
X132939903Y-148799663D01*
X133001063Y-148571408D01*
X133021659Y-148336000D01*
X133008325Y-148183599D01*
X143416815Y-148183599D01*
X143435503Y-148361404D01*
X143490749Y-148531435D01*
X143580140Y-148686265D01*
X143699771Y-148819127D01*
X143844403Y-148924210D01*
X143844406Y-148924211D01*
X143844407Y-148924212D01*
X143948264Y-148970452D01*
X144007735Y-148996930D01*
X144182607Y-149034100D01*
X144182609Y-149034100D01*
X144361391Y-149034100D01*
X144361393Y-149034100D01*
X144536264Y-148996930D01*
X144536265Y-148996929D01*
X144536267Y-148996929D01*
X144699593Y-148924212D01*
X144844230Y-148819126D01*
X144963859Y-148686265D01*
X145053250Y-148531435D01*
X145108497Y-148361403D01*
X145121898Y-148233899D01*
X147758292Y-148233899D01*
X147777858Y-148407557D01*
X147835577Y-148572506D01*
X147928552Y-148720476D01*
X148052123Y-148844047D01*
X148200093Y-148937022D01*
X148365042Y-148994741D01*
X148538700Y-149014307D01*
X148712357Y-148994741D01*
X148877306Y-148937022D01*
X149025276Y-148844047D01*
X149148847Y-148720476D01*
X149241822Y-148572506D01*
X149299541Y-148407557D01*
X149319107Y-148233900D01*
X149299541Y-148060243D01*
X149296656Y-148051999D01*
X149241822Y-147895293D01*
X149148847Y-147747323D01*
X149025276Y-147623752D01*
X148986518Y-147599399D01*
X150605015Y-147599399D01*
X150623703Y-147777204D01*
X150678949Y-147947235D01*
X150768340Y-148102065D01*
X150887971Y-148234927D01*
X151032603Y-148340010D01*
X151032606Y-148340011D01*
X151032607Y-148340012D01*
X151141490Y-148388489D01*
X151195935Y-148412730D01*
X151370807Y-148449900D01*
X151370809Y-148449900D01*
X151549591Y-148449900D01*
X151549593Y-148449900D01*
X151724464Y-148412730D01*
X151724465Y-148412729D01*
X151724467Y-148412729D01*
X151887793Y-148340012D01*
X151893317Y-148335999D01*
X151978021Y-148274457D01*
X152032430Y-148234926D01*
X152152059Y-148102065D01*
X152241450Y-147947235D01*
X152296697Y-147777203D01*
X152315385Y-147599400D01*
X152296697Y-147421597D01*
X152253914Y-147289926D01*
X152241450Y-147251564D01*
X152152059Y-147096734D01*
X152032428Y-146963872D01*
X151887796Y-146858789D01*
X151724464Y-146786069D01*
X151549593Y-146748900D01*
X151549591Y-146748900D01*
X151370809Y-146748900D01*
X151370807Y-146748900D01*
X151195935Y-146786069D01*
X151032608Y-146858787D01*
X150887968Y-146963874D01*
X150768340Y-147096734D01*
X150678949Y-147251564D01*
X150623703Y-147421595D01*
X150605015Y-147599399D01*
X148986518Y-147599399D01*
X148877306Y-147530777D01*
X148712357Y-147473058D01*
X148538700Y-147453492D01*
X148365042Y-147473058D01*
X148200093Y-147530777D01*
X148052123Y-147623752D01*
X147928552Y-147747323D01*
X147835577Y-147895293D01*
X147777858Y-148060242D01*
X147758292Y-148233899D01*
X145121898Y-148233899D01*
X145127185Y-148183600D01*
X145108497Y-148005797D01*
X145072592Y-147895293D01*
X145053250Y-147835764D01*
X144963859Y-147680934D01*
X144844228Y-147548072D01*
X144699596Y-147442989D01*
X144536264Y-147370269D01*
X144361393Y-147333100D01*
X144361391Y-147333100D01*
X144182609Y-147333100D01*
X144182607Y-147333100D01*
X144007735Y-147370269D01*
X143844408Y-147442987D01*
X143699768Y-147548074D01*
X143580140Y-147680934D01*
X143490749Y-147835764D01*
X143435503Y-148005795D01*
X143416815Y-148183599D01*
X133008325Y-148183599D01*
X133001063Y-148100592D01*
X132939903Y-147872337D01*
X132840035Y-147658171D01*
X132704495Y-147464599D01*
X132537401Y-147297505D01*
X132351839Y-147167573D01*
X132312975Y-147123257D01*
X132298964Y-147066000D01*
X132312975Y-147008743D01*
X132351839Y-146964426D01*
X132537401Y-146834495D01*
X132704495Y-146667401D01*
X132840035Y-146473830D01*
X132939903Y-146259663D01*
X133001063Y-146031408D01*
X133021659Y-145796000D01*
X133001063Y-145560592D01*
X132939903Y-145332337D01*
X132840035Y-145118171D01*
X132704495Y-144924599D01*
X132537401Y-144757505D01*
X132343830Y-144621965D01*
X132129663Y-144522097D01*
X132068502Y-144505709D01*
X131901407Y-144460936D01*
X131666000Y-144440340D01*
X131430592Y-144460936D01*
X131202336Y-144522097D01*
X130988170Y-144621965D01*
X130794598Y-144757505D01*
X130627505Y-144924598D01*
X130491965Y-145118170D01*
X130392097Y-145332336D01*
X130330936Y-145560592D01*
X130310340Y-145796000D01*
X130330936Y-146031407D01*
X130354462Y-146119207D01*
X130392097Y-146259663D01*
X130491965Y-146473830D01*
X130627505Y-146667401D01*
X130794599Y-146834495D01*
X130980160Y-146964426D01*
X131019024Y-147008743D01*
X131033035Y-147066000D01*
X131019024Y-147123257D01*
X130980159Y-147167575D01*
X130949738Y-147188875D01*
X130803664Y-147291158D01*
X130794595Y-147297508D01*
X130627505Y-147464598D01*
X130491965Y-147658170D01*
X130392097Y-147872336D01*
X130330936Y-148100592D01*
X130310340Y-148336000D01*
X130330936Y-148571407D01*
X130346020Y-148627700D01*
X130392097Y-148799663D01*
X130491965Y-149013830D01*
X130627505Y-149207401D01*
X130794599Y-149374495D01*
X130980160Y-149504426D01*
X131019024Y-149548743D01*
X131033035Y-149606000D01*
X131019024Y-149663257D01*
X130980158Y-149707575D01*
X130831119Y-149811934D01*
X130794595Y-149837508D01*
X130627505Y-150004598D01*
X130491965Y-150198170D01*
X130392097Y-150412336D01*
X130330936Y-150640592D01*
X130310340Y-150875999D01*
X130330936Y-151111407D01*
X130364240Y-151235699D01*
X130392097Y-151339663D01*
X130491965Y-151553830D01*
X130627505Y-151747401D01*
X130794599Y-151914495D01*
X130980160Y-152044426D01*
X131019024Y-152088743D01*
X131033035Y-152146000D01*
X131019024Y-152203257D01*
X130980158Y-152247575D01*
X130835779Y-152348671D01*
X130794595Y-152377508D01*
X130627505Y-152544598D01*
X130491965Y-152738170D01*
X130392097Y-152952336D01*
X130330936Y-153180592D01*
X130310340Y-153415999D01*
X130330936Y-153651407D01*
X130369949Y-153797004D01*
X130392097Y-153879663D01*
X130491965Y-154093830D01*
X130627505Y-154287401D01*
X130794599Y-154454495D01*
X130980160Y-154584426D01*
X131019024Y-154628743D01*
X131033035Y-154686000D01*
X131019024Y-154743257D01*
X130980159Y-154787575D01*
X130794595Y-154917508D01*
X130627505Y-155084598D01*
X130491965Y-155278170D01*
X130392097Y-155492336D01*
X130330936Y-155720592D01*
X130310340Y-155956000D01*
X108138534Y-155956000D01*
X108131364Y-155950438D01*
X108095777Y-155935038D01*
X108089469Y-155932308D01*
X108078979Y-155927169D01*
X108038967Y-155905172D01*
X108018400Y-155899891D01*
X107999998Y-155893591D01*
X107980524Y-155885164D01*
X107935437Y-155878023D01*
X107923998Y-155875654D01*
X107879778Y-155864300D01*
X107879777Y-155864300D01*
X107858555Y-155864300D01*
X107839156Y-155862773D01*
X107818196Y-155859453D01*
X107818195Y-155859453D01*
X107796158Y-155861536D01*
X107772739Y-155863750D01*
X107761070Y-155864300D01*
X102784408Y-155864300D01*
X102736955Y-155854861D01*
X102696727Y-155827981D01*
X101141444Y-154272698D01*
X103410392Y-154272698D01*
X103429958Y-154446355D01*
X103487677Y-154611304D01*
X103580652Y-154759274D01*
X103704223Y-154882845D01*
X103852193Y-154975820D01*
X104017142Y-155033539D01*
X104190800Y-155053105D01*
X104364457Y-155033539D01*
X104529406Y-154975820D01*
X104677376Y-154882845D01*
X104800947Y-154759274D01*
X104893922Y-154611304D01*
X104951641Y-154446355D01*
X104971207Y-154272698D01*
X104951641Y-154099041D01*
X104946435Y-154084164D01*
X104893922Y-153934091D01*
X104800947Y-153786121D01*
X104677376Y-153662550D01*
X104529406Y-153569575D01*
X104364457Y-153511856D01*
X104190800Y-153492290D01*
X104017142Y-153511856D01*
X103852193Y-153569575D01*
X103704223Y-153662550D01*
X103580652Y-153786121D01*
X103487677Y-153934091D01*
X103429958Y-154099040D01*
X103410392Y-154272698D01*
X101141444Y-154272698D01*
X101035543Y-154166797D01*
X101004801Y-154115887D01*
X101001300Y-154056519D01*
X101025845Y-154002348D01*
X101072789Y-153965836D01*
X101144087Y-153934092D01*
X101214793Y-153902612D01*
X101359430Y-153797526D01*
X101479059Y-153664665D01*
X101568450Y-153509835D01*
X101578209Y-153479800D01*
X105621615Y-153479800D01*
X105640303Y-153657604D01*
X105695549Y-153827635D01*
X105784940Y-153982465D01*
X105904571Y-154115327D01*
X106049203Y-154220410D01*
X106049206Y-154220411D01*
X106049207Y-154220412D01*
X106125085Y-154254195D01*
X106212535Y-154293130D01*
X106387407Y-154330300D01*
X106387409Y-154330300D01*
X106566191Y-154330300D01*
X106566193Y-154330300D01*
X106741064Y-154293130D01*
X106741065Y-154293129D01*
X106741067Y-154293129D01*
X106904393Y-154220412D01*
X107049030Y-154115326D01*
X107168659Y-153982465D01*
X107258050Y-153827635D01*
X107313297Y-153657603D01*
X107331985Y-153479800D01*
X107313297Y-153301997D01*
X107258050Y-153131965D01*
X107258050Y-153131964D01*
X107168659Y-152977134D01*
X107049028Y-152844272D01*
X107014035Y-152818848D01*
X106976436Y-152774825D01*
X106962921Y-152718530D01*
X106976437Y-152662236D01*
X107014032Y-152618216D01*
X107086830Y-152565326D01*
X107206459Y-152432465D01*
X107295850Y-152277635D01*
X107351097Y-152107603D01*
X107369785Y-151929800D01*
X107351097Y-151751997D01*
X107295850Y-151581965D01*
X107295850Y-151581964D01*
X107206459Y-151427134D01*
X107086828Y-151294272D01*
X106942196Y-151189189D01*
X106842721Y-151144900D01*
X110801292Y-151144900D01*
X110820858Y-151318557D01*
X110878577Y-151483506D01*
X110971552Y-151631476D01*
X111095123Y-151755047D01*
X111243093Y-151848022D01*
X111408042Y-151905741D01*
X111581700Y-151925307D01*
X111755357Y-151905741D01*
X111920306Y-151848022D01*
X112068276Y-151755047D01*
X112191847Y-151631476D01*
X112284822Y-151483506D01*
X112342541Y-151318557D01*
X112362107Y-151144900D01*
X112342541Y-150971243D01*
X112338324Y-150959193D01*
X112284822Y-150806293D01*
X112191847Y-150658323D01*
X112068276Y-150534752D01*
X111920306Y-150441777D01*
X111755357Y-150384058D01*
X111581700Y-150364492D01*
X111408042Y-150384058D01*
X111243093Y-150441777D01*
X111095123Y-150534752D01*
X110971552Y-150658323D01*
X110878577Y-150806293D01*
X110820858Y-150971242D01*
X110801292Y-151144900D01*
X106842721Y-151144900D01*
X106778864Y-151116469D01*
X106603993Y-151079300D01*
X106603991Y-151079300D01*
X106425209Y-151079300D01*
X106425207Y-151079300D01*
X106250335Y-151116469D01*
X106087008Y-151189187D01*
X105942368Y-151294274D01*
X105822740Y-151427134D01*
X105733349Y-151581964D01*
X105678103Y-151751995D01*
X105659415Y-151929800D01*
X105678103Y-152107604D01*
X105733349Y-152277635D01*
X105822740Y-152432465D01*
X105942368Y-152565324D01*
X105942370Y-152565326D01*
X105977365Y-152590752D01*
X106014963Y-152634774D01*
X106028478Y-152691068D01*
X106014963Y-152747363D01*
X105977363Y-152791386D01*
X105904570Y-152844272D01*
X105784940Y-152977134D01*
X105695549Y-153131964D01*
X105640303Y-153301995D01*
X105621615Y-153479800D01*
X101578209Y-153479800D01*
X101623697Y-153339803D01*
X101642385Y-153162000D01*
X101623697Y-152984197D01*
X101578233Y-152844274D01*
X101568450Y-152814164D01*
X101479059Y-152659334D01*
X101359428Y-152526472D01*
X101214796Y-152421389D01*
X101051464Y-152348669D01*
X100876593Y-152311500D01*
X100876591Y-152311500D01*
X100697809Y-152311500D01*
X100697807Y-152311500D01*
X100522935Y-152348669D01*
X100359608Y-152421387D01*
X100214968Y-152526474D01*
X100095340Y-152659334D01*
X100005949Y-152814164D01*
X99989258Y-152865537D01*
X99955498Y-152918275D01*
X99900274Y-152947793D01*
X99837668Y-152946563D01*
X99783646Y-152914900D01*
X99206819Y-152338073D01*
X99179939Y-152297845D01*
X99170500Y-152250392D01*
X99170500Y-149852889D01*
X99189506Y-149786917D01*
X99240698Y-149741169D01*
X99308383Y-149729669D01*
X99371812Y-149755942D01*
X99411541Y-149811934D01*
X99449077Y-149919206D01*
X99542052Y-150067176D01*
X99665623Y-150190747D01*
X99813593Y-150283722D01*
X99912579Y-150318359D01*
X99978543Y-150341441D01*
X100076259Y-150352450D01*
X100139688Y-150378722D01*
X100179417Y-150434714D01*
X100185678Y-150452607D01*
X100278652Y-150600576D01*
X100402223Y-150724147D01*
X100550193Y-150817122D01*
X100715142Y-150874841D01*
X100888800Y-150894407D01*
X101062457Y-150874841D01*
X101227406Y-150817122D01*
X101375376Y-150724147D01*
X101498947Y-150600576D01*
X101591922Y-150452606D01*
X101649641Y-150287657D01*
X101669207Y-150114000D01*
X101649641Y-149940343D01*
X101615086Y-149841593D01*
X101591922Y-149775393D01*
X101498947Y-149627423D01*
X101375376Y-149503852D01*
X101227406Y-149410877D01*
X101062456Y-149353158D01*
X100964739Y-149342148D01*
X100901310Y-149315875D01*
X100861582Y-149259883D01*
X100855323Y-149241996D01*
X100778586Y-149119869D01*
X100759580Y-149053897D01*
X100778586Y-148987925D01*
X100829779Y-148942177D01*
X100897463Y-148930677D01*
X101056600Y-148948607D01*
X101230257Y-148929041D01*
X101395206Y-148871322D01*
X101543176Y-148778347D01*
X101666747Y-148654776D01*
X101759722Y-148506806D01*
X101817441Y-148341857D01*
X101837007Y-148168200D01*
X101817441Y-147994542D01*
X101759722Y-147829593D01*
X101666747Y-147681623D01*
X101543176Y-147558052D01*
X101395206Y-147465077D01*
X101230257Y-147407358D01*
X101056600Y-147387792D01*
X100882942Y-147407358D01*
X100717993Y-147465077D01*
X100570023Y-147558052D01*
X100446452Y-147681623D01*
X100353477Y-147829593D01*
X100295758Y-147994542D01*
X100276192Y-148168200D01*
X100295758Y-148341857D01*
X100353477Y-148506806D01*
X100430213Y-148628931D01*
X100449219Y-148694902D01*
X100430213Y-148760874D01*
X100379021Y-148806622D01*
X100311336Y-148818122D01*
X100152200Y-148800192D01*
X99978542Y-148819758D01*
X99813593Y-148877477D01*
X99665623Y-148970452D01*
X99542052Y-149094023D01*
X99449077Y-149241993D01*
X99411541Y-149349266D01*
X99371812Y-149405258D01*
X99308383Y-149431531D01*
X99240698Y-149420031D01*
X99189506Y-149374283D01*
X99170500Y-149308311D01*
X99170500Y-148558878D01*
X99189506Y-148492907D01*
X99223122Y-148439406D01*
X99280841Y-148274457D01*
X99300407Y-148100800D01*
X99280841Y-147927142D01*
X99223122Y-147762193D01*
X99130147Y-147614223D01*
X99006576Y-147490652D01*
X98858606Y-147397677D01*
X98693657Y-147339958D01*
X98520000Y-147320392D01*
X98346342Y-147339958D01*
X98181393Y-147397677D01*
X98033423Y-147490652D01*
X97909852Y-147614223D01*
X97816877Y-147762193D01*
X97759158Y-147927142D01*
X97739592Y-148100800D01*
X97759158Y-148274457D01*
X97816877Y-148439406D01*
X97850494Y-148492907D01*
X97869500Y-148558878D01*
X97869500Y-151083414D01*
X97855985Y-151139709D01*
X97818385Y-151183732D01*
X97764898Y-151205887D01*
X97707182Y-151201345D01*
X97657819Y-151171095D01*
X97616176Y-151129452D01*
X97468206Y-151036477D01*
X97303257Y-150978758D01*
X97129600Y-150959192D01*
X96955942Y-150978758D01*
X96790993Y-151036477D01*
X96656593Y-151120926D01*
X96593713Y-151139893D01*
X96529965Y-151124083D01*
X96483235Y-151077932D01*
X96399059Y-150932134D01*
X96279428Y-150799272D01*
X96134796Y-150694189D01*
X95971464Y-150621469D01*
X95796593Y-150584300D01*
X95796591Y-150584300D01*
X95617809Y-150584300D01*
X95617807Y-150584300D01*
X95442935Y-150621469D01*
X95279608Y-150694187D01*
X95134968Y-150799274D01*
X95015340Y-150932134D01*
X94925949Y-151086964D01*
X94870703Y-151256995D01*
X94852015Y-151434800D01*
X94870703Y-151612604D01*
X94925949Y-151782635D01*
X95015340Y-151937465D01*
X95134971Y-152070327D01*
X95279603Y-152175410D01*
X95279606Y-152175411D01*
X95279607Y-152175412D01*
X95291105Y-152180531D01*
X95454839Y-152253430D01*
X95454371Y-152254481D01*
X95499918Y-152278063D01*
X95534642Y-152333901D01*
X95535934Y-152399643D01*
X95503430Y-152456802D01*
X93577851Y-154382381D01*
X93537623Y-154409261D01*
X93490170Y-154418700D01*
X91293537Y-154418700D01*
X91255218Y-154412631D01*
X91220650Y-154395017D01*
X91206928Y-154385047D01*
X91034002Y-154308055D01*
X90848848Y-154268700D01*
X90848846Y-154268700D01*
X90659554Y-154268700D01*
X90659552Y-154268700D01*
X90474397Y-154308055D01*
X90301469Y-154385048D01*
X90148329Y-154496310D01*
X90021666Y-154636983D01*
X89927020Y-154800915D01*
X89868526Y-154980942D01*
X89848740Y-155169199D01*
X69931732Y-155169199D01*
X69872495Y-155084599D01*
X69705401Y-154917505D01*
X69519839Y-154787573D01*
X69480975Y-154743257D01*
X69466964Y-154686000D01*
X69480975Y-154628743D01*
X69519839Y-154584426D01*
X69705401Y-154454495D01*
X69872495Y-154287401D01*
X70008035Y-154093830D01*
X70107903Y-153879663D01*
X70169063Y-153651408D01*
X70171881Y-153619200D01*
X83879215Y-153619200D01*
X83897903Y-153797004D01*
X83953149Y-153967035D01*
X84042540Y-154121865D01*
X84162171Y-154254727D01*
X84306803Y-154359810D01*
X84306806Y-154359811D01*
X84306807Y-154359812D01*
X84363491Y-154385049D01*
X84470135Y-154432530D01*
X84645007Y-154469700D01*
X84645009Y-154469700D01*
X84823791Y-154469700D01*
X84823793Y-154469700D01*
X84998664Y-154432530D01*
X84998665Y-154432529D01*
X84998667Y-154432529D01*
X85161993Y-154359812D01*
X85306630Y-154254726D01*
X85426259Y-154121865D01*
X85515650Y-153967035D01*
X85570897Y-153797003D01*
X85589585Y-153619200D01*
X85570897Y-153441397D01*
X85525603Y-153301997D01*
X85515650Y-153271364D01*
X85426259Y-153116534D01*
X85306628Y-152983672D01*
X85161996Y-152878589D01*
X84998664Y-152805869D01*
X84823793Y-152768700D01*
X84823791Y-152768700D01*
X84645009Y-152768700D01*
X84645007Y-152768700D01*
X84470135Y-152805869D01*
X84306808Y-152878587D01*
X84162168Y-152983674D01*
X84042540Y-153116534D01*
X83953149Y-153271364D01*
X83897903Y-153441395D01*
X83879215Y-153619200D01*
X70171881Y-153619200D01*
X70189659Y-153416000D01*
X70169063Y-153180592D01*
X70107903Y-152952337D01*
X70008035Y-152738171D01*
X69872495Y-152544599D01*
X69705401Y-152377505D01*
X69519839Y-152247573D01*
X69480975Y-152203257D01*
X69466964Y-152146000D01*
X69480975Y-152088743D01*
X69519839Y-152044426D01*
X69705401Y-151914495D01*
X69868697Y-151751199D01*
X86171522Y-151751199D01*
X86190592Y-151969174D01*
X86247225Y-152180531D01*
X86278747Y-152248129D01*
X86339698Y-152378839D01*
X86465202Y-152558077D01*
X86619923Y-152712798D01*
X86799161Y-152838302D01*
X86997470Y-152930775D01*
X87208823Y-152987407D01*
X87426800Y-153006477D01*
X87644777Y-152987407D01*
X87856130Y-152930775D01*
X88054439Y-152838302D01*
X88233677Y-152712798D01*
X88388398Y-152558077D01*
X88513902Y-152378839D01*
X88606375Y-152180530D01*
X88663007Y-151969177D01*
X88682077Y-151751200D01*
X88663007Y-151533223D01*
X88606375Y-151321870D01*
X88513902Y-151123562D01*
X88388398Y-150944323D01*
X88233677Y-150789602D01*
X88054439Y-150664098D01*
X87901163Y-150592624D01*
X87856131Y-150571625D01*
X87644774Y-150514992D01*
X87426800Y-150495922D01*
X87208825Y-150514992D01*
X86997468Y-150571625D01*
X86799161Y-150664098D01*
X86619922Y-150789602D01*
X86465202Y-150944322D01*
X86339698Y-151123561D01*
X86247225Y-151321868D01*
X86190592Y-151533225D01*
X86171522Y-151751199D01*
X69868697Y-151751199D01*
X69872495Y-151747401D01*
X70008035Y-151553830D01*
X70107903Y-151339663D01*
X70169063Y-151111408D01*
X70189659Y-150876000D01*
X70169063Y-150640592D01*
X70107903Y-150412337D01*
X70008035Y-150198171D01*
X69872495Y-150004599D01*
X69705401Y-149837505D01*
X69519839Y-149707573D01*
X69480976Y-149663257D01*
X69466965Y-149606000D01*
X69480976Y-149548743D01*
X69519839Y-149504426D01*
X69705401Y-149374495D01*
X69872495Y-149207401D01*
X70008035Y-149013830D01*
X70107903Y-148799663D01*
X70169063Y-148571408D01*
X70189659Y-148336000D01*
X70169063Y-148100592D01*
X70107903Y-147872337D01*
X70008035Y-147658171D01*
X69872495Y-147464599D01*
X69750569Y-147342673D01*
X69719273Y-147289927D01*
X69717084Y-147228634D01*
X69744537Y-147173789D01*
X69794916Y-147138810D01*
X69926331Y-147089796D01*
X70041546Y-147003546D01*
X70127796Y-146888331D01*
X70134185Y-146871200D01*
X86171522Y-146871200D01*
X86190592Y-147089174D01*
X86247225Y-147300531D01*
X86269770Y-147348878D01*
X86339698Y-147498839D01*
X86465202Y-147678077D01*
X86619923Y-147832798D01*
X86799161Y-147958302D01*
X86997470Y-148050775D01*
X87208823Y-148107407D01*
X87426800Y-148126477D01*
X87644777Y-148107407D01*
X87856130Y-148050775D01*
X88054439Y-147958302D01*
X88233677Y-147832798D01*
X88388398Y-147678077D01*
X88513902Y-147498839D01*
X88606375Y-147300530D01*
X88663007Y-147089177D01*
X88682077Y-146871200D01*
X88663007Y-146653223D01*
X88606375Y-146441870D01*
X88595524Y-146418599D01*
X104300815Y-146418599D01*
X104319503Y-146596404D01*
X104374749Y-146766435D01*
X104464140Y-146921265D01*
X104583771Y-147054127D01*
X104728403Y-147159210D01*
X104728406Y-147159211D01*
X104728407Y-147159212D01*
X104747191Y-147167575D01*
X104891735Y-147231930D01*
X105066607Y-147269100D01*
X105066609Y-147269100D01*
X105245391Y-147269100D01*
X105245393Y-147269100D01*
X105420264Y-147231930D01*
X105420265Y-147231929D01*
X105420267Y-147231929D01*
X105583593Y-147159212D01*
X105601090Y-147146500D01*
X105669584Y-147096735D01*
X105728230Y-147054126D01*
X105847859Y-146921265D01*
X105937250Y-146766435D01*
X105992497Y-146596403D01*
X106011185Y-146418600D01*
X105992497Y-146240797D01*
X105952990Y-146119207D01*
X105937250Y-146070764D01*
X105847859Y-145915934D01*
X105766319Y-145825376D01*
X105728230Y-145783074D01*
X105674334Y-145743916D01*
X105636736Y-145699895D01*
X105623221Y-145643600D01*
X105636736Y-145587305D01*
X105674334Y-145543283D01*
X105728230Y-145504126D01*
X105847859Y-145371265D01*
X105937250Y-145216435D01*
X105992497Y-145046403D01*
X106011185Y-144868600D01*
X105992497Y-144690797D01*
X105955635Y-144577347D01*
X105937250Y-144520764D01*
X105847859Y-144365934D01*
X105728228Y-144233072D01*
X105583596Y-144127989D01*
X105420264Y-144055269D01*
X105245393Y-144018100D01*
X105245391Y-144018100D01*
X105066609Y-144018100D01*
X105066607Y-144018100D01*
X104891735Y-144055269D01*
X104728408Y-144127987D01*
X104583768Y-144233074D01*
X104464140Y-144365934D01*
X104374749Y-144520764D01*
X104319503Y-144690795D01*
X104312491Y-144757508D01*
X104300815Y-144868600D01*
X104303919Y-144898128D01*
X104319503Y-145046404D01*
X104374749Y-145216435D01*
X104464140Y-145371265D01*
X104517598Y-145430635D01*
X104583770Y-145504126D01*
X104637665Y-145543283D01*
X104675262Y-145587304D01*
X104688777Y-145643598D01*
X104675262Y-145699893D01*
X104637664Y-145743916D01*
X104583770Y-145783073D01*
X104464140Y-145915934D01*
X104374749Y-146070764D01*
X104319503Y-146240795D01*
X104300815Y-146418599D01*
X88595524Y-146418599D01*
X88513902Y-146243562D01*
X88388398Y-146064323D01*
X88233677Y-145909602D01*
X88054439Y-145784098D01*
X87925078Y-145723776D01*
X87856131Y-145691625D01*
X87644774Y-145634992D01*
X87426800Y-145615922D01*
X87208825Y-145634992D01*
X86997468Y-145691625D01*
X86799161Y-145784098D01*
X86619922Y-145909602D01*
X86465202Y-146064322D01*
X86339698Y-146243561D01*
X86247225Y-146441868D01*
X86190592Y-146653225D01*
X86171522Y-146871200D01*
X70134185Y-146871200D01*
X70178091Y-146753483D01*
X70184500Y-146693873D01*
X70184499Y-145338799D01*
X98381192Y-145338799D01*
X98400758Y-145512457D01*
X98458477Y-145677406D01*
X98551452Y-145825376D01*
X98675023Y-145948947D01*
X98822993Y-146041922D01*
X98987942Y-146099641D01*
X99161600Y-146119207D01*
X99335257Y-146099641D01*
X99500206Y-146041922D01*
X99648176Y-145948947D01*
X99771747Y-145825376D01*
X99864722Y-145677406D01*
X99922441Y-145512457D01*
X99942007Y-145338800D01*
X99942006Y-145338798D01*
X99942251Y-145336632D01*
X99960477Y-145284543D01*
X99999499Y-145245521D01*
X100051588Y-145227295D01*
X100106425Y-145233473D01*
X100156343Y-145250941D01*
X100330000Y-145270507D01*
X100503657Y-145250941D01*
X100668606Y-145193222D01*
X100816576Y-145100247D01*
X100940147Y-144976676D01*
X101033122Y-144828706D01*
X101090841Y-144663757D01*
X101110407Y-144490100D01*
X101090841Y-144316442D01*
X101033122Y-144151493D01*
X100940147Y-144003523D01*
X100903824Y-143967200D01*
X109150792Y-143967200D01*
X109170358Y-144140857D01*
X109228077Y-144305806D01*
X109321052Y-144453776D01*
X109444623Y-144577347D01*
X109592593Y-144670322D01*
X109757542Y-144728041D01*
X109931200Y-144747607D01*
X110104857Y-144728041D01*
X110269806Y-144670322D01*
X110417776Y-144577347D01*
X110541347Y-144453776D01*
X110592166Y-144372896D01*
X110637177Y-144330342D01*
X110697158Y-144314869D01*
X110757140Y-144330341D01*
X110802153Y-144372897D01*
X110821054Y-144402978D01*
X110944623Y-144526547D01*
X111092593Y-144619522D01*
X111257542Y-144677241D01*
X111431200Y-144696807D01*
X111604857Y-144677241D01*
X111769806Y-144619522D01*
X111917776Y-144526547D01*
X112041347Y-144402976D01*
X112134322Y-144255006D01*
X112172815Y-144145000D01*
X158032531Y-144145000D01*
X158052364Y-144371689D01*
X158111261Y-144591497D01*
X158207432Y-144797735D01*
X158337953Y-144984140D01*
X158498859Y-145145046D01*
X158685264Y-145275567D01*
X158685265Y-145275567D01*
X158685266Y-145275568D01*
X158891504Y-145371739D01*
X159111308Y-145430635D01*
X159196261Y-145438067D01*
X159281214Y-145445500D01*
X159281216Y-145445500D01*
X159394784Y-145445500D01*
X159394786Y-145445500D01*
X159462747Y-145439553D01*
X159564692Y-145430635D01*
X159784496Y-145371739D01*
X159990734Y-145275568D01*
X160177139Y-145145047D01*
X160338047Y-144984139D01*
X160468568Y-144797734D01*
X160564739Y-144591496D01*
X160623635Y-144371692D01*
X160643468Y-144145000D01*
X160623635Y-143918308D01*
X160564739Y-143698504D01*
X160468568Y-143492266D01*
X160460416Y-143480624D01*
X160338046Y-143305859D01*
X160177140Y-143144953D01*
X159990735Y-143014432D01*
X159784497Y-142918261D01*
X159564689Y-142859364D01*
X159394786Y-142844500D01*
X159394784Y-142844500D01*
X159281216Y-142844500D01*
X159281214Y-142844500D01*
X159111310Y-142859364D01*
X158891502Y-142918261D01*
X158685264Y-143014432D01*
X158498859Y-143144953D01*
X158337953Y-143305859D01*
X158207432Y-143492264D01*
X158111261Y-143698502D01*
X158052364Y-143918310D01*
X158032531Y-144145000D01*
X112172815Y-144145000D01*
X112192041Y-144090057D01*
X112211607Y-143916400D01*
X112192041Y-143742743D01*
X112187322Y-143729258D01*
X112134322Y-143577793D01*
X112041347Y-143429823D01*
X111917776Y-143306252D01*
X111769806Y-143213277D01*
X111604857Y-143155558D01*
X111431200Y-143135992D01*
X111257542Y-143155558D01*
X111092593Y-143213277D01*
X110944623Y-143306252D01*
X110821054Y-143429821D01*
X110770234Y-143510702D01*
X110725221Y-143553258D01*
X110665240Y-143568730D01*
X110605258Y-143553257D01*
X110560246Y-143510701D01*
X110541347Y-143480623D01*
X110417776Y-143357052D01*
X110269806Y-143264077D01*
X110104857Y-143206358D01*
X109931200Y-143186792D01*
X109757542Y-143206358D01*
X109592593Y-143264077D01*
X109444623Y-143357052D01*
X109321052Y-143480623D01*
X109228077Y-143628593D01*
X109170358Y-143793542D01*
X109150792Y-143967200D01*
X100903824Y-143967200D01*
X100816576Y-143879952D01*
X100668606Y-143786977D01*
X100503657Y-143729258D01*
X100330000Y-143709692D01*
X100156342Y-143729258D01*
X99991393Y-143786977D01*
X99843423Y-143879952D01*
X99719852Y-144003523D01*
X99626877Y-144151493D01*
X99569158Y-144316442D01*
X99549348Y-144492268D01*
X99531122Y-144544356D01*
X99492100Y-144583378D01*
X99440012Y-144601604D01*
X99385174Y-144595426D01*
X99335257Y-144577959D01*
X99335255Y-144577958D01*
X99335253Y-144577958D01*
X99161600Y-144558392D01*
X98987942Y-144577958D01*
X98822993Y-144635677D01*
X98675023Y-144728652D01*
X98551452Y-144852223D01*
X98458477Y-145000193D01*
X98400758Y-145165142D01*
X98381192Y-145338799D01*
X70184499Y-145338799D01*
X70184499Y-144898128D01*
X70178091Y-144838517D01*
X70127796Y-144703669D01*
X70041546Y-144588454D01*
X69926331Y-144502204D01*
X69791483Y-144451909D01*
X69731873Y-144445500D01*
X69731869Y-144445500D01*
X67936130Y-144445500D01*
X67876515Y-144451909D01*
X67741669Y-144502204D01*
X67626454Y-144588454D01*
X67540204Y-144703668D01*
X67489909Y-144838516D01*
X67483500Y-144898130D01*
X67483500Y-146693869D01*
X67489909Y-146753484D01*
X67515056Y-146820906D01*
X67540204Y-146888331D01*
X67626454Y-147003546D01*
X67741669Y-147089796D01*
X67831383Y-147123257D01*
X67873082Y-147138810D01*
X67923462Y-147173789D01*
X67950915Y-147228634D01*
X67948726Y-147289926D01*
X67917431Y-147342673D01*
X67795503Y-147464601D01*
X67659965Y-147658170D01*
X67560097Y-147872336D01*
X67498936Y-148100592D01*
X67478340Y-148336000D01*
X67498936Y-148571407D01*
X67514020Y-148627700D01*
X67560097Y-148799663D01*
X67659965Y-149013830D01*
X67795505Y-149207401D01*
X67962599Y-149374495D01*
X68148160Y-149504426D01*
X68187024Y-149548743D01*
X68201035Y-149606000D01*
X68187024Y-149663257D01*
X68148158Y-149707575D01*
X67999119Y-149811934D01*
X67962595Y-149837508D01*
X67795505Y-150004598D01*
X67659965Y-150198170D01*
X67560097Y-150412336D01*
X67498936Y-150640592D01*
X67478340Y-150876000D01*
X67498936Y-151111407D01*
X67532240Y-151235699D01*
X67560097Y-151339663D01*
X67659965Y-151553830D01*
X67795505Y-151747401D01*
X67962599Y-151914495D01*
X68148160Y-152044426D01*
X68187024Y-152088743D01*
X68201035Y-152146000D01*
X68187024Y-152203257D01*
X68148158Y-152247575D01*
X68003779Y-152348671D01*
X67962595Y-152377508D01*
X67795505Y-152544598D01*
X67659965Y-152738170D01*
X67560097Y-152952336D01*
X67498936Y-153180592D01*
X67478340Y-153416000D01*
X67498936Y-153651407D01*
X67537949Y-153797004D01*
X67560097Y-153879663D01*
X67659965Y-154093830D01*
X67795505Y-154287401D01*
X67962599Y-154454495D01*
X68148160Y-154584426D01*
X68187024Y-154628743D01*
X68201035Y-154686000D01*
X68187024Y-154743257D01*
X68148159Y-154787575D01*
X67962595Y-154917508D01*
X67795505Y-155084598D01*
X67659965Y-155278170D01*
X67560097Y-155492336D01*
X67498936Y-155720592D01*
X67478340Y-155955999D01*
X67498936Y-156191407D01*
X67532571Y-156316934D01*
X67560097Y-156419663D01*
X67659965Y-156633830D01*
X67795505Y-156827401D01*
X67962599Y-156994495D01*
X68148160Y-157124426D01*
X68187024Y-157168743D01*
X68201035Y-157226000D01*
X68187024Y-157283257D01*
X68148158Y-157327575D01*
X68003779Y-157428671D01*
X67962595Y-157457508D01*
X67795505Y-157624598D01*
X67659965Y-157818170D01*
X67560097Y-158032336D01*
X67498936Y-158260592D01*
X67478340Y-158496000D01*
X53184361Y-158496000D01*
X53177555Y-158470600D01*
X53194169Y-158408599D01*
X53206849Y-158386637D01*
X53215311Y-158360594D01*
X53262097Y-158216603D01*
X53280785Y-158038800D01*
X53262097Y-157860997D01*
X53227464Y-157754409D01*
X53206850Y-157690964D01*
X53117459Y-157536134D01*
X53000833Y-157406609D01*
X52997830Y-157403274D01*
X52997829Y-157403273D01*
X52997828Y-157403272D01*
X52853196Y-157298189D01*
X52689864Y-157225469D01*
X52514993Y-157188300D01*
X52514991Y-157188300D01*
X52336209Y-157188300D01*
X52336207Y-157188300D01*
X52161335Y-157225469D01*
X51998008Y-157298187D01*
X51853368Y-157403274D01*
X51733740Y-157536134D01*
X51644349Y-157690964D01*
X51589103Y-157860995D01*
X51570415Y-158038800D01*
X51589103Y-158216604D01*
X51644350Y-158386636D01*
X51657030Y-158408598D01*
X51673644Y-158470597D01*
X51657032Y-158532597D01*
X51644350Y-158554563D01*
X51589103Y-158724595D01*
X51570415Y-158902400D01*
X36672500Y-158902400D01*
X36672500Y-154432000D01*
X51011615Y-154432000D01*
X51030303Y-154609804D01*
X51085549Y-154779835D01*
X51174940Y-154934665D01*
X51294571Y-155067527D01*
X51439203Y-155172610D01*
X51602535Y-155245330D01*
X51719678Y-155270229D01*
X51766415Y-155280163D01*
X51813520Y-155301135D01*
X51848022Y-155339453D01*
X51936940Y-155493465D01*
X52056571Y-155626327D01*
X52201203Y-155731410D01*
X52364535Y-155804130D01*
X52539407Y-155841300D01*
X52539409Y-155841300D01*
X52718191Y-155841300D01*
X52718193Y-155841300D01*
X52893064Y-155804130D01*
X52893065Y-155804129D01*
X52893067Y-155804129D01*
X53056393Y-155731412D01*
X53165514Y-155652129D01*
X53212619Y-155631158D01*
X53264181Y-155631158D01*
X53311285Y-155652129D01*
X53405515Y-155720592D01*
X53420407Y-155731412D01*
X53583735Y-155804130D01*
X53758607Y-155841300D01*
X53758609Y-155841300D01*
X53937391Y-155841300D01*
X53937393Y-155841300D01*
X54112264Y-155804130D01*
X54112265Y-155804129D01*
X54112267Y-155804129D01*
X54275593Y-155731412D01*
X54420230Y-155626326D01*
X54539859Y-155493465D01*
X54629250Y-155338635D01*
X54629250Y-155338634D01*
X54634513Y-155329519D01*
X54669015Y-155291201D01*
X54716120Y-155270229D01*
X54767679Y-155270229D01*
X54825409Y-155282500D01*
X55004191Y-155282500D01*
X55004193Y-155282500D01*
X55179064Y-155245330D01*
X55179065Y-155245329D01*
X55179067Y-155245329D01*
X55342393Y-155172612D01*
X55487030Y-155067526D01*
X55606659Y-154934665D01*
X55696050Y-154779835D01*
X55751297Y-154609803D01*
X55769985Y-154432000D01*
X55751297Y-154254197D01*
X55718276Y-154152570D01*
X55696050Y-154084164D01*
X55606659Y-153929334D01*
X55487028Y-153796472D01*
X55342396Y-153691389D01*
X55179064Y-153618669D01*
X55004193Y-153581500D01*
X55004191Y-153581500D01*
X54825409Y-153581500D01*
X54825407Y-153581500D01*
X54650535Y-153618669D01*
X54487208Y-153691387D01*
X54342568Y-153796474D01*
X54222940Y-153929334D01*
X54128287Y-154093280D01*
X54093786Y-154131598D01*
X54046681Y-154152570D01*
X53995119Y-154152570D01*
X53937393Y-154140300D01*
X53937391Y-154140300D01*
X53758609Y-154140300D01*
X53758607Y-154140300D01*
X53583735Y-154177469D01*
X53420405Y-154250188D01*
X53311285Y-154329469D01*
X53264181Y-154350441D01*
X53212619Y-154350441D01*
X53165514Y-154329469D01*
X53056393Y-154250187D01*
X52893064Y-154177469D01*
X52729183Y-154142636D01*
X52682079Y-154121664D01*
X52647577Y-154083346D01*
X52558659Y-153929334D01*
X52439028Y-153796472D01*
X52294396Y-153691389D01*
X52131064Y-153618669D01*
X51956193Y-153581500D01*
X51956191Y-153581500D01*
X51777409Y-153581500D01*
X51777407Y-153581500D01*
X51602535Y-153618669D01*
X51439208Y-153691387D01*
X51294568Y-153796474D01*
X51174940Y-153929334D01*
X51085549Y-154084164D01*
X51030303Y-154254195D01*
X51011615Y-154432000D01*
X36672500Y-154432000D01*
X36672500Y-150723600D01*
X50984792Y-150723600D01*
X51004358Y-150897257D01*
X51062077Y-151062206D01*
X51155052Y-151210176D01*
X51278623Y-151333747D01*
X51426593Y-151426722D01*
X51591542Y-151484441D01*
X51765200Y-151504007D01*
X51938857Y-151484441D01*
X52103806Y-151426722D01*
X52251776Y-151333747D01*
X52300456Y-151285066D01*
X52353809Y-151253594D01*
X52415729Y-151251856D01*
X52470764Y-151280287D01*
X52505179Y-151331791D01*
X52535278Y-151417807D01*
X52628252Y-151565776D01*
X52751823Y-151689347D01*
X52899793Y-151782322D01*
X53064742Y-151840041D01*
X53238400Y-151859607D01*
X53412057Y-151840041D01*
X53577006Y-151782322D01*
X53724976Y-151689347D01*
X53848547Y-151565776D01*
X53941522Y-151417806D01*
X53999241Y-151252857D01*
X54018807Y-151079200D01*
X54015497Y-151049823D01*
X53999241Y-150905542D01*
X53941522Y-150740593D01*
X53867006Y-150622000D01*
X54235992Y-150622000D01*
X54255558Y-150795657D01*
X54313277Y-150960606D01*
X54406252Y-151108576D01*
X54529823Y-151232147D01*
X54677793Y-151325122D01*
X54842742Y-151382841D01*
X55016400Y-151402407D01*
X55190057Y-151382841D01*
X55355006Y-151325122D01*
X55502976Y-151232147D01*
X55626547Y-151108576D01*
X55719522Y-150960606D01*
X55777241Y-150795657D01*
X55796807Y-150622000D01*
X55785059Y-150517734D01*
X55777241Y-150448342D01*
X55719522Y-150283393D01*
X55626547Y-150135423D01*
X55502976Y-150011852D01*
X55355006Y-149918877D01*
X55190057Y-149861158D01*
X55016400Y-149841592D01*
X54842742Y-149861158D01*
X54677793Y-149918877D01*
X54529823Y-150011852D01*
X54406252Y-150135423D01*
X54313277Y-150283393D01*
X54255558Y-150448342D01*
X54235992Y-150622000D01*
X53867006Y-150622000D01*
X53848547Y-150592623D01*
X53724976Y-150469052D01*
X53577006Y-150376077D01*
X53412057Y-150318358D01*
X53238400Y-150298792D01*
X53064742Y-150318358D01*
X52899793Y-150376077D01*
X52751823Y-150469052D01*
X52703142Y-150517734D01*
X52649789Y-150549207D01*
X52587868Y-150550944D01*
X52532834Y-150522513D01*
X52498421Y-150471011D01*
X52468322Y-150384994D01*
X52404483Y-150283394D01*
X52375347Y-150237023D01*
X52251776Y-150113452D01*
X52103806Y-150020477D01*
X51938857Y-149962758D01*
X51765200Y-149943192D01*
X51591542Y-149962758D01*
X51426593Y-150020477D01*
X51278623Y-150113452D01*
X51155052Y-150237023D01*
X51062077Y-150384993D01*
X51004358Y-150549942D01*
X50984792Y-150723600D01*
X36672500Y-150723600D01*
X36672500Y-147777200D01*
X49284415Y-147777200D01*
X49303103Y-147955004D01*
X49358349Y-148125035D01*
X49447740Y-148279865D01*
X49567371Y-148412727D01*
X49712003Y-148517810D01*
X49712006Y-148517811D01*
X49712007Y-148517812D01*
X49742605Y-148531435D01*
X49875335Y-148590530D01*
X50050207Y-148627700D01*
X50050209Y-148627700D01*
X50228991Y-148627700D01*
X50228993Y-148627700D01*
X50403864Y-148590530D01*
X50403865Y-148590529D01*
X50403867Y-148590529D01*
X50567193Y-148517812D01*
X50711830Y-148412726D01*
X50831459Y-148279865D01*
X50920850Y-148125035D01*
X50944581Y-148052000D01*
X53575592Y-148052000D01*
X53595158Y-148225657D01*
X53652877Y-148390606D01*
X53745852Y-148538576D01*
X53869423Y-148662147D01*
X54017393Y-148755122D01*
X54182342Y-148812841D01*
X54356000Y-148832407D01*
X54529657Y-148812841D01*
X54694606Y-148755122D01*
X54842576Y-148662147D01*
X54966147Y-148538576D01*
X55059122Y-148390606D01*
X55116841Y-148225657D01*
X55136407Y-148052000D01*
X55125478Y-147955004D01*
X55116841Y-147878342D01*
X55081449Y-147777200D01*
X56447215Y-147777200D01*
X56465903Y-147955004D01*
X56521149Y-148125035D01*
X56610540Y-148279865D01*
X56730171Y-148412727D01*
X56874803Y-148517810D01*
X56874806Y-148517811D01*
X56874807Y-148517812D01*
X56905405Y-148531435D01*
X57038135Y-148590530D01*
X57213007Y-148627700D01*
X57213009Y-148627700D01*
X57391791Y-148627700D01*
X57391793Y-148627700D01*
X57566664Y-148590530D01*
X57566665Y-148590529D01*
X57566667Y-148590529D01*
X57729993Y-148517812D01*
X57874630Y-148412726D01*
X57994259Y-148279865D01*
X58083650Y-148125035D01*
X58138897Y-147955003D01*
X58157585Y-147777200D01*
X58138897Y-147599397D01*
X58103564Y-147490653D01*
X58083650Y-147429364D01*
X57994259Y-147274534D01*
X57890421Y-147159212D01*
X57874630Y-147141674D01*
X57874629Y-147141673D01*
X57874628Y-147141672D01*
X57729996Y-147036589D01*
X57566664Y-146963869D01*
X57391793Y-146926700D01*
X57391791Y-146926700D01*
X57213009Y-146926700D01*
X57213007Y-146926700D01*
X57038135Y-146963869D01*
X56874808Y-147036587D01*
X56730168Y-147141674D01*
X56610540Y-147274534D01*
X56521149Y-147429364D01*
X56465903Y-147599395D01*
X56447215Y-147777200D01*
X55081449Y-147777200D01*
X55059122Y-147713393D01*
X54966147Y-147565423D01*
X54842576Y-147441852D01*
X54694606Y-147348877D01*
X54529657Y-147291158D01*
X54356000Y-147271592D01*
X54182342Y-147291158D01*
X54017393Y-147348877D01*
X53869423Y-147441852D01*
X53745852Y-147565423D01*
X53652877Y-147713393D01*
X53595158Y-147878342D01*
X53575592Y-148052000D01*
X50944581Y-148052000D01*
X50976097Y-147955003D01*
X50994785Y-147777200D01*
X50976097Y-147599397D01*
X50940764Y-147490653D01*
X50920850Y-147429364D01*
X50831459Y-147274534D01*
X50727621Y-147159212D01*
X50711830Y-147141674D01*
X50711829Y-147141673D01*
X50711828Y-147141672D01*
X50567196Y-147036589D01*
X50403864Y-146963869D01*
X50228993Y-146926700D01*
X50228991Y-146926700D01*
X50050209Y-146926700D01*
X50050207Y-146926700D01*
X49875335Y-146963869D01*
X49712008Y-147036587D01*
X49567368Y-147141674D01*
X49447740Y-147274534D01*
X49358349Y-147429364D01*
X49303103Y-147599395D01*
X49284415Y-147777200D01*
X36672500Y-147777200D01*
X36672500Y-144145000D01*
X40016531Y-144145000D01*
X40036364Y-144371689D01*
X40095261Y-144591497D01*
X40191432Y-144797735D01*
X40321953Y-144984140D01*
X40482859Y-145145046D01*
X40669264Y-145275567D01*
X40669265Y-145275567D01*
X40669266Y-145275568D01*
X40875504Y-145371739D01*
X41095308Y-145430635D01*
X41180261Y-145438067D01*
X41265214Y-145445500D01*
X41265216Y-145445500D01*
X41378784Y-145445500D01*
X41378786Y-145445500D01*
X41446747Y-145439553D01*
X41548692Y-145430635D01*
X41768496Y-145371739D01*
X41974734Y-145275568D01*
X42161139Y-145145047D01*
X42322047Y-144984139D01*
X42452568Y-144797734D01*
X42548739Y-144591496D01*
X42607635Y-144371692D01*
X42627468Y-144145000D01*
X42607635Y-143918308D01*
X42579900Y-143814799D01*
X62340015Y-143814799D01*
X62358703Y-143992604D01*
X62413949Y-144162635D01*
X62503340Y-144317465D01*
X62622971Y-144450327D01*
X62767603Y-144555410D01*
X62767606Y-144555411D01*
X62767607Y-144555412D01*
X62871357Y-144601604D01*
X62930935Y-144628130D01*
X63105807Y-144665300D01*
X63105809Y-144665300D01*
X63284591Y-144665300D01*
X63284593Y-144665300D01*
X63395180Y-144641794D01*
X63453278Y-144643369D01*
X63504277Y-144671245D01*
X63536972Y-144719296D01*
X63544181Y-144776967D01*
X63532392Y-144881599D01*
X63551958Y-145055257D01*
X63609677Y-145220206D01*
X63702652Y-145368176D01*
X63826223Y-145491747D01*
X63974193Y-145584722D01*
X64139142Y-145642441D01*
X64312800Y-145662007D01*
X64486457Y-145642441D01*
X64651406Y-145584722D01*
X64717358Y-145543282D01*
X64799375Y-145491748D01*
X64810423Y-145480700D01*
X64863776Y-145449226D01*
X64925696Y-145447487D01*
X64980731Y-145475918D01*
X65015147Y-145527423D01*
X65032078Y-145575806D01*
X65125052Y-145723776D01*
X65248623Y-145847347D01*
X65396593Y-145940322D01*
X65561542Y-145998041D01*
X65735200Y-146017607D01*
X65908857Y-145998041D01*
X66073806Y-145940322D01*
X66221776Y-145847347D01*
X66345347Y-145723776D01*
X66438322Y-145575806D01*
X66496041Y-145410857D01*
X66515607Y-145237200D01*
X66502196Y-145118170D01*
X66496041Y-145063542D01*
X66438322Y-144898593D01*
X66345347Y-144750623D01*
X66221776Y-144627052D01*
X66073806Y-144534077D01*
X65908857Y-144476358D01*
X65735200Y-144456792D01*
X65561542Y-144476358D01*
X65396593Y-144534077D01*
X65248622Y-144627053D01*
X65237572Y-144638103D01*
X65184219Y-144669574D01*
X65122299Y-144671311D01*
X65067266Y-144642880D01*
X65032852Y-144591375D01*
X65015922Y-144542993D01*
X64922947Y-144395023D01*
X64799376Y-144271452D01*
X64651406Y-144178477D01*
X64486457Y-144120758D01*
X64312799Y-144101192D01*
X64170110Y-144117269D01*
X64115491Y-144111167D01*
X64068874Y-144082057D01*
X64039417Y-144035659D01*
X64032906Y-143981093D01*
X64050385Y-143814800D01*
X64031697Y-143636997D01*
X63976450Y-143466965D01*
X63976450Y-143466964D01*
X63971967Y-143459200D01*
X78162792Y-143459200D01*
X78182358Y-143632857D01*
X78240077Y-143797806D01*
X78333052Y-143945776D01*
X78456623Y-144069347D01*
X78604593Y-144162322D01*
X78769542Y-144220041D01*
X78943200Y-144239607D01*
X79116857Y-144220041D01*
X79281806Y-144162322D01*
X79429776Y-144069347D01*
X79553347Y-143945776D01*
X79646322Y-143797806D01*
X79704041Y-143632857D01*
X79723607Y-143459200D01*
X79707037Y-143312134D01*
X79704041Y-143285542D01*
X79646322Y-143120593D01*
X79628628Y-143092433D01*
X79610401Y-143040344D01*
X79616581Y-142985505D01*
X79645939Y-142938783D01*
X79654947Y-142929776D01*
X79747922Y-142781806D01*
X79805641Y-142616857D01*
X79825207Y-142443200D01*
X79805641Y-142269543D01*
X79747922Y-142104594D01*
X79747922Y-142104593D01*
X79654947Y-141956623D01*
X79531376Y-141833052D01*
X79383406Y-141740077D01*
X79218457Y-141682358D01*
X79208179Y-141681200D01*
X89873615Y-141681200D01*
X89892303Y-141859004D01*
X89947549Y-142029035D01*
X90036940Y-142183865D01*
X90156571Y-142316727D01*
X90301203Y-142421810D01*
X90301206Y-142421811D01*
X90301207Y-142421812D01*
X90349246Y-142443200D01*
X90464535Y-142494530D01*
X90639407Y-142531700D01*
X90639409Y-142531700D01*
X90818191Y-142531700D01*
X90818193Y-142531700D01*
X90993064Y-142494530D01*
X90993065Y-142494529D01*
X90993067Y-142494529D01*
X91156393Y-142421812D01*
X91301030Y-142316726D01*
X91420659Y-142183865D01*
X91510050Y-142029035D01*
X91565297Y-141859003D01*
X91573691Y-141779137D01*
X91594212Y-141722760D01*
X91638798Y-141682614D01*
X91697012Y-141668100D01*
X91783393Y-141668100D01*
X91958264Y-141630930D01*
X91958265Y-141630929D01*
X91958267Y-141630929D01*
X92121593Y-141558212D01*
X92266230Y-141453126D01*
X92385859Y-141320265D01*
X92475250Y-141165435D01*
X92530497Y-140995403D01*
X92549185Y-140817600D01*
X92530497Y-140639797D01*
X92475250Y-140469765D01*
X92475250Y-140469764D01*
X92385859Y-140314934D01*
X92266228Y-140182072D01*
X92121596Y-140076989D01*
X91958264Y-140004269D01*
X91783393Y-139967100D01*
X91783391Y-139967100D01*
X91604609Y-139967100D01*
X91604607Y-139967100D01*
X91429735Y-140004269D01*
X91266408Y-140076987D01*
X91121768Y-140182074D01*
X91002140Y-140314934D01*
X90912749Y-140469764D01*
X90857503Y-140639795D01*
X90849109Y-140719662D01*
X90828588Y-140776040D01*
X90784002Y-140816186D01*
X90725788Y-140830700D01*
X90639407Y-140830700D01*
X90464535Y-140867869D01*
X90301208Y-140940587D01*
X90156568Y-141045674D01*
X90036940Y-141178534D01*
X89947549Y-141333364D01*
X89892303Y-141503395D01*
X89873615Y-141681200D01*
X79208179Y-141681200D01*
X79044800Y-141662792D01*
X78871142Y-141682358D01*
X78706193Y-141740077D01*
X78558223Y-141833052D01*
X78434652Y-141956623D01*
X78341677Y-142104593D01*
X78283958Y-142269542D01*
X78264392Y-142443199D01*
X78283958Y-142616857D01*
X78341676Y-142781803D01*
X78359372Y-142809966D01*
X78377597Y-142862053D01*
X78371419Y-142916890D01*
X78342061Y-142963616D01*
X78333053Y-142972624D01*
X78240076Y-143120596D01*
X78182358Y-143285542D01*
X78162792Y-143459200D01*
X63971967Y-143459200D01*
X63887059Y-143312134D01*
X63767428Y-143179272D01*
X63622796Y-143074189D01*
X63459464Y-143001469D01*
X63284593Y-142964300D01*
X63284591Y-142964300D01*
X63105809Y-142964300D01*
X63105807Y-142964300D01*
X62930935Y-143001469D01*
X62767608Y-143074187D01*
X62622968Y-143179274D01*
X62503340Y-143312134D01*
X62413949Y-143466964D01*
X62358703Y-143636995D01*
X62340015Y-143814799D01*
X42579900Y-143814799D01*
X42548739Y-143698504D01*
X42452568Y-143492266D01*
X42444416Y-143480624D01*
X42322046Y-143305859D01*
X42161140Y-143144953D01*
X41974735Y-143014432D01*
X41768497Y-142918261D01*
X41548689Y-142859364D01*
X41378786Y-142844500D01*
X41378784Y-142844500D01*
X41265216Y-142844500D01*
X41265214Y-142844500D01*
X41095310Y-142859364D01*
X40875502Y-142918261D01*
X40669264Y-143014432D01*
X40482859Y-143144953D01*
X40321953Y-143305859D01*
X40191432Y-143492264D01*
X40095261Y-143698502D01*
X40036364Y-143918310D01*
X40016531Y-144145000D01*
X36672500Y-144145000D01*
X36672500Y-140411200D01*
X88221192Y-140411200D01*
X88240758Y-140584857D01*
X88298477Y-140749806D01*
X88391452Y-140897776D01*
X88515023Y-141021347D01*
X88662993Y-141114322D01*
X88827942Y-141172041D01*
X89001599Y-141191607D01*
X89001599Y-141191606D01*
X89001600Y-141191607D01*
X89175257Y-141172041D01*
X89340206Y-141114322D01*
X89488176Y-141021347D01*
X89611747Y-140897776D01*
X89704722Y-140749806D01*
X89762441Y-140584857D01*
X89782007Y-140411200D01*
X89762441Y-140237543D01*
X89743031Y-140182074D01*
X89704722Y-140072593D01*
X89611747Y-139924623D01*
X89488176Y-139801052D01*
X89340206Y-139708077D01*
X89175257Y-139650358D01*
X89001600Y-139630792D01*
X88827942Y-139650358D01*
X88662993Y-139708077D01*
X88515023Y-139801052D01*
X88391452Y-139924623D01*
X88298477Y-140072593D01*
X88240758Y-140237542D01*
X88221192Y-140411200D01*
X36672500Y-140411200D01*
X36672500Y-138175999D01*
X73878531Y-138175999D01*
X73898364Y-138402689D01*
X73957261Y-138622497D01*
X74053432Y-138828735D01*
X74183953Y-139015140D01*
X74344859Y-139176046D01*
X74531264Y-139306567D01*
X74531265Y-139306567D01*
X74531266Y-139306568D01*
X74737504Y-139402739D01*
X74957308Y-139461635D01*
X75042261Y-139469067D01*
X75127214Y-139476500D01*
X75127216Y-139476500D01*
X75240784Y-139476500D01*
X75240786Y-139476500D01*
X75308747Y-139470553D01*
X75410692Y-139461635D01*
X75630496Y-139402739D01*
X75836734Y-139306568D01*
X76023139Y-139176047D01*
X76184047Y-139015139D01*
X76314568Y-138828734D01*
X76410739Y-138622496D01*
X76469635Y-138402692D01*
X76489468Y-138176000D01*
X76469635Y-137949308D01*
X76410739Y-137729504D01*
X76314568Y-137523266D01*
X76238059Y-137413999D01*
X111995592Y-137413999D01*
X112015158Y-137587657D01*
X112072877Y-137752606D01*
X112165852Y-137900576D01*
X112289423Y-138024147D01*
X112437393Y-138117122D01*
X112602342Y-138174841D01*
X112776000Y-138194407D01*
X112939370Y-138176000D01*
X124170531Y-138176000D01*
X124190364Y-138402689D01*
X124249261Y-138622497D01*
X124345432Y-138828735D01*
X124475953Y-139015140D01*
X124636859Y-139176046D01*
X124823264Y-139306567D01*
X124823265Y-139306567D01*
X124823266Y-139306568D01*
X125029504Y-139402739D01*
X125249308Y-139461635D01*
X125334261Y-139469067D01*
X125419214Y-139476500D01*
X125419216Y-139476500D01*
X125532784Y-139476500D01*
X125532786Y-139476500D01*
X125600747Y-139470553D01*
X125702692Y-139461635D01*
X125922496Y-139402739D01*
X126128734Y-139306568D01*
X126315139Y-139176047D01*
X126476047Y-139015139D01*
X126494490Y-138988799D01*
X139275192Y-138988799D01*
X139294758Y-139162457D01*
X139352477Y-139327406D01*
X139445452Y-139475376D01*
X139569023Y-139598947D01*
X139716993Y-139691922D01*
X139881942Y-139749641D01*
X140055600Y-139769207D01*
X140229257Y-139749641D01*
X140394206Y-139691922D01*
X140542176Y-139598947D01*
X140665747Y-139475376D01*
X140758722Y-139327406D01*
X140780509Y-139265145D01*
X140806652Y-139221758D01*
X140847964Y-139192446D01*
X140897550Y-139182100D01*
X149926895Y-139182100D01*
X149948104Y-139184441D01*
X149950694Y-139184359D01*
X149950696Y-139184360D01*
X150020662Y-139182160D01*
X150024557Y-139182100D01*
X150053320Y-139182100D01*
X150053325Y-139182100D01*
X150057702Y-139181546D01*
X150069341Y-139180630D01*
X150114969Y-139179197D01*
X150135349Y-139173275D01*
X150154389Y-139169332D01*
X150175458Y-139166671D01*
X150217920Y-139149858D01*
X150228957Y-139146080D01*
X150272798Y-139133344D01*
X150291070Y-139122536D01*
X150308536Y-139113980D01*
X150328271Y-139106168D01*
X150365216Y-139079325D01*
X150374948Y-139072932D01*
X150414265Y-139049681D01*
X150429274Y-139034671D01*
X150444063Y-139022039D01*
X150461237Y-139009563D01*
X150490346Y-138974374D01*
X150498190Y-138965754D01*
X151377113Y-138086831D01*
X151393762Y-138073494D01*
X151395536Y-138071604D01*
X151395540Y-138071602D01*
X151443498Y-138020530D01*
X151446146Y-138017798D01*
X151466511Y-137997435D01*
X151469211Y-137993952D01*
X151476787Y-137985081D01*
X151508048Y-137951793D01*
X151518275Y-137933187D01*
X151528948Y-137916939D01*
X151541962Y-137900164D01*
X151560099Y-137858249D01*
X151565217Y-137847801D01*
X151587227Y-137807768D01*
X151592505Y-137787207D01*
X151598807Y-137768803D01*
X151607236Y-137749326D01*
X151614378Y-137704224D01*
X151616744Y-137692801D01*
X151628100Y-137648577D01*
X151628100Y-137627355D01*
X151629627Y-137607956D01*
X151632947Y-137586995D01*
X151628650Y-137541539D01*
X151628100Y-137529870D01*
X151628100Y-136893723D01*
X151642110Y-136836467D01*
X151680976Y-136792149D01*
X151797042Y-136710877D01*
X151849001Y-136674495D01*
X152016095Y-136507401D01*
X152146026Y-136321839D01*
X152190343Y-136282975D01*
X152247600Y-136268964D01*
X152304857Y-136282975D01*
X152349173Y-136321839D01*
X152479105Y-136507401D01*
X152646199Y-136674495D01*
X152839770Y-136810035D01*
X153053937Y-136909903D01*
X153282192Y-136971063D01*
X153517600Y-136991659D01*
X153753008Y-136971063D01*
X153981263Y-136909903D01*
X154195430Y-136810035D01*
X154389001Y-136674495D01*
X154556095Y-136507401D01*
X154686026Y-136321839D01*
X154730343Y-136282975D01*
X154787600Y-136268964D01*
X154844857Y-136282975D01*
X154889173Y-136321839D01*
X155019105Y-136507401D01*
X155186199Y-136674495D01*
X155379770Y-136810035D01*
X155593937Y-136909903D01*
X155822192Y-136971063D01*
X156057600Y-136991659D01*
X156293008Y-136971063D01*
X156521263Y-136909903D01*
X156735430Y-136810035D01*
X156929001Y-136674495D01*
X157096095Y-136507401D01*
X157226332Y-136321402D01*
X157270648Y-136282539D01*
X157327905Y-136268528D01*
X157385162Y-136282539D01*
X157429480Y-136321404D01*
X157559493Y-136507081D01*
X157726518Y-136674106D01*
X157920023Y-136809600D01*
X158134107Y-136909430D01*
X158347599Y-136966635D01*
X158347600Y-136966636D01*
X158347600Y-135886000D01*
X158847600Y-135886000D01*
X158847600Y-136966635D01*
X159061092Y-136909430D01*
X159275176Y-136809600D01*
X159468681Y-136674106D01*
X159635706Y-136507081D01*
X159771200Y-136313576D01*
X159871030Y-136099492D01*
X159928236Y-135886000D01*
X158847600Y-135886000D01*
X158347600Y-135886000D01*
X158347600Y-134305364D01*
X158847600Y-134305364D01*
X158847600Y-135386000D01*
X159928236Y-135386000D01*
X159928235Y-135385999D01*
X159871030Y-135172507D01*
X159771199Y-134958421D01*
X159635709Y-134764921D01*
X159468681Y-134597893D01*
X159275176Y-134462399D01*
X159061092Y-134362569D01*
X158847600Y-134305364D01*
X158347600Y-134305364D01*
X158347599Y-134305364D01*
X158134107Y-134362569D01*
X157920021Y-134462400D01*
X157726521Y-134597890D01*
X157559493Y-134764918D01*
X157429480Y-134950596D01*
X157385162Y-134989461D01*
X157327905Y-135003472D01*
X157270648Y-134989461D01*
X157226330Y-134950595D01*
X157219961Y-134941499D01*
X157096095Y-134764599D01*
X156929001Y-134597505D01*
X156735430Y-134461965D01*
X156521263Y-134362097D01*
X156451876Y-134343505D01*
X156293007Y-134300936D01*
X156057600Y-134280340D01*
X155822192Y-134300936D01*
X155593936Y-134362097D01*
X155379770Y-134461965D01*
X155186198Y-134597505D01*
X155019105Y-134764598D01*
X154889175Y-134950159D01*
X154844857Y-134989025D01*
X154787600Y-135003036D01*
X154730343Y-134989025D01*
X154686025Y-134950159D01*
X154619809Y-134855592D01*
X154556095Y-134764599D01*
X154389001Y-134597505D01*
X154195430Y-134461965D01*
X153981263Y-134362097D01*
X153911876Y-134343505D01*
X153753007Y-134300936D01*
X153517600Y-134280340D01*
X153282192Y-134300936D01*
X153053936Y-134362097D01*
X152839770Y-134461965D01*
X152646198Y-134597505D01*
X152479105Y-134764598D01*
X152349175Y-134950159D01*
X152304857Y-134989025D01*
X152247600Y-135003036D01*
X152190343Y-134989025D01*
X152146025Y-134950159D01*
X152079809Y-134855592D01*
X152016095Y-134764599D01*
X151849001Y-134597505D01*
X151655430Y-134461965D01*
X151441263Y-134362097D01*
X151371876Y-134343505D01*
X151213007Y-134300936D01*
X150977600Y-134280340D01*
X150742192Y-134300936D01*
X150513936Y-134362097D01*
X150299770Y-134461965D01*
X150106201Y-134597503D01*
X149984273Y-134719431D01*
X149931526Y-134750726D01*
X149870234Y-134752915D01*
X149815389Y-134725462D01*
X149780410Y-134675082D01*
X149765467Y-134635019D01*
X149731396Y-134543669D01*
X149645146Y-134428454D01*
X149529931Y-134342204D01*
X149395083Y-134291909D01*
X149335473Y-134285500D01*
X149335469Y-134285500D01*
X147539730Y-134285500D01*
X147480115Y-134291909D01*
X147345269Y-134342204D01*
X147230054Y-134428454D01*
X147143804Y-134543668D01*
X147093509Y-134678516D01*
X147087100Y-134738130D01*
X147087100Y-136533869D01*
X147093509Y-136593484D01*
X147104776Y-136623691D01*
X147143804Y-136728331D01*
X147230054Y-136843546D01*
X147345269Y-136929796D01*
X147480117Y-136980091D01*
X147539727Y-136986500D01*
X149335472Y-136986499D01*
X149395083Y-136980091D01*
X149529931Y-136929796D01*
X149645146Y-136843546D01*
X149731396Y-136728331D01*
X149780410Y-136596916D01*
X149815389Y-136546537D01*
X149870234Y-136519084D01*
X149931527Y-136521273D01*
X149984273Y-136552569D01*
X150106199Y-136674495D01*
X150274224Y-136792149D01*
X150313090Y-136836467D01*
X150327100Y-136893723D01*
X150327100Y-137245592D01*
X150317661Y-137293045D01*
X150290781Y-137333273D01*
X149779273Y-137844781D01*
X149739045Y-137871661D01*
X149691592Y-137881100D01*
X140598304Y-137881100D01*
X140577094Y-137878758D01*
X140504537Y-137881039D01*
X140500642Y-137881100D01*
X140471871Y-137881100D01*
X140467490Y-137881653D01*
X140455859Y-137882568D01*
X140410230Y-137884002D01*
X140389851Y-137889923D01*
X140370807Y-137893867D01*
X140356439Y-137895682D01*
X140349741Y-137896529D01*
X140307290Y-137913336D01*
X140296243Y-137917118D01*
X140252398Y-137929856D01*
X140234130Y-137940660D01*
X140216664Y-137949217D01*
X140196929Y-137957031D01*
X140160002Y-137983860D01*
X140150242Y-137990271D01*
X140110936Y-138013517D01*
X140095925Y-138028528D01*
X140081136Y-138041158D01*
X140063964Y-138053634D01*
X140034857Y-138088818D01*
X140026996Y-138097456D01*
X139924339Y-138200113D01*
X139877614Y-138229473D01*
X139716992Y-138285678D01*
X139569023Y-138378652D01*
X139445452Y-138502223D01*
X139352477Y-138650193D01*
X139294758Y-138815142D01*
X139275192Y-138988799D01*
X126494490Y-138988799D01*
X126606568Y-138828734D01*
X126702739Y-138622496D01*
X126761635Y-138402692D01*
X126781468Y-138176000D01*
X126761635Y-137949308D01*
X126702739Y-137729504D01*
X126606568Y-137523266D01*
X126530059Y-137413999D01*
X126476046Y-137336859D01*
X126315140Y-137175953D01*
X126128735Y-137045432D01*
X125922497Y-136949261D01*
X125702689Y-136890364D01*
X125532786Y-136875500D01*
X125532784Y-136875500D01*
X125419216Y-136875500D01*
X125419214Y-136875500D01*
X125249310Y-136890364D01*
X125029502Y-136949261D01*
X124823264Y-137045432D01*
X124636859Y-137175953D01*
X124475953Y-137336859D01*
X124345432Y-137523264D01*
X124249261Y-137729502D01*
X124190364Y-137949310D01*
X124170531Y-138176000D01*
X112939370Y-138176000D01*
X112949657Y-138174841D01*
X113114606Y-138117122D01*
X113262576Y-138024147D01*
X113386147Y-137900576D01*
X113479122Y-137752606D01*
X113536841Y-137587657D01*
X113556407Y-137414000D01*
X113547715Y-137336859D01*
X113536841Y-137240342D01*
X113479122Y-137075393D01*
X113386147Y-136927423D01*
X113262576Y-136803852D01*
X113114606Y-136710877D01*
X112949657Y-136653158D01*
X112776000Y-136633592D01*
X112602342Y-136653158D01*
X112437393Y-136710877D01*
X112289423Y-136803852D01*
X112165852Y-136927423D01*
X112072877Y-137075393D01*
X112015158Y-137240342D01*
X111995592Y-137413999D01*
X76238059Y-137413999D01*
X76184046Y-137336859D01*
X76023140Y-137175953D01*
X75836735Y-137045432D01*
X75630497Y-136949261D01*
X75410689Y-136890364D01*
X75240786Y-136875500D01*
X75240784Y-136875500D01*
X75127216Y-136875500D01*
X75127214Y-136875500D01*
X74957310Y-136890364D01*
X74737502Y-136949261D01*
X74531264Y-137045432D01*
X74344859Y-137175953D01*
X74183953Y-137336859D01*
X74053432Y-137523264D01*
X73957261Y-137729502D01*
X73898364Y-137949310D01*
X73878531Y-138175999D01*
X36672500Y-138175999D01*
X36672500Y-138098706D01*
X36672618Y-138093297D01*
X36677396Y-137983860D01*
X36689957Y-137696152D01*
X36690897Y-137685420D01*
X36742430Y-137293985D01*
X36744303Y-137283355D01*
X36829759Y-136897891D01*
X36832557Y-136887453D01*
X36951276Y-136510924D01*
X36954963Y-136500792D01*
X37106057Y-136136019D01*
X37110615Y-136126245D01*
X37292918Y-135776045D01*
X37298313Y-135766700D01*
X37384126Y-135632000D01*
X42084000Y-135632000D01*
X42084000Y-136279824D01*
X42090402Y-136339375D01*
X42140647Y-136474089D01*
X42226811Y-136589188D01*
X42341910Y-136675352D01*
X42476624Y-136725597D01*
X42536176Y-136732000D01*
X43184000Y-136732000D01*
X43684000Y-136732000D01*
X44331824Y-136732000D01*
X44391375Y-136725597D01*
X44526089Y-136675352D01*
X44641188Y-136589188D01*
X44727352Y-136474089D01*
X44776422Y-136342528D01*
X44811401Y-136292149D01*
X44866246Y-136264696D01*
X44927539Y-136266885D01*
X44980285Y-136298181D01*
X45102599Y-136420495D01*
X45296170Y-136556035D01*
X45510337Y-136655903D01*
X45738592Y-136717063D01*
X45974000Y-136737659D01*
X46209408Y-136717063D01*
X46437663Y-136655903D01*
X46651830Y-136556035D01*
X46845401Y-136420495D01*
X47012495Y-136253401D01*
X47142426Y-136067839D01*
X47186743Y-136028975D01*
X47244000Y-136014964D01*
X47301257Y-136028975D01*
X47345573Y-136067839D01*
X47475505Y-136253401D01*
X47642599Y-136420495D01*
X47836170Y-136556035D01*
X48050337Y-136655903D01*
X48278592Y-136717063D01*
X48514000Y-136737659D01*
X48749408Y-136717063D01*
X48977663Y-136655903D01*
X49191830Y-136556035D01*
X49385401Y-136420495D01*
X49552495Y-136253401D01*
X49682426Y-136067839D01*
X49726743Y-136028975D01*
X49784000Y-136014964D01*
X49841257Y-136028975D01*
X49885573Y-136067839D01*
X50015505Y-136253401D01*
X50182599Y-136420495D01*
X50376170Y-136556035D01*
X50590337Y-136655903D01*
X50818592Y-136717063D01*
X51054000Y-136737659D01*
X51289408Y-136717063D01*
X51517663Y-136655903D01*
X51731830Y-136556035D01*
X51925401Y-136420495D01*
X52092495Y-136253401D01*
X52228035Y-136059830D01*
X52327903Y-135845663D01*
X52384081Y-135636000D01*
X68358392Y-135636000D01*
X68377958Y-135809657D01*
X68435677Y-135974606D01*
X68528652Y-136122576D01*
X68652223Y-136246147D01*
X68800193Y-136339122D01*
X68965142Y-136396841D01*
X69138800Y-136416407D01*
X69312457Y-136396841D01*
X69477406Y-136339122D01*
X69625376Y-136246147D01*
X69748947Y-136122576D01*
X69841922Y-135974606D01*
X69899641Y-135809657D01*
X69919207Y-135636000D01*
X69899641Y-135462343D01*
X69888028Y-135429156D01*
X69841922Y-135297393D01*
X69748947Y-135149423D01*
X69625376Y-135025852D01*
X69477406Y-134932877D01*
X69312457Y-134875158D01*
X69138799Y-134855592D01*
X68965142Y-134875158D01*
X68800193Y-134932877D01*
X68652223Y-135025852D01*
X68528652Y-135149423D01*
X68435677Y-135297393D01*
X68377958Y-135462342D01*
X68358392Y-135636000D01*
X52384081Y-135636000D01*
X52389063Y-135617408D01*
X52409659Y-135382000D01*
X52389063Y-135146592D01*
X52327903Y-134918337D01*
X52228035Y-134704171D01*
X52092495Y-134510599D01*
X51925401Y-134343505D01*
X51731830Y-134207965D01*
X51517663Y-134108097D01*
X51445074Y-134088647D01*
X51289407Y-134046936D01*
X51054000Y-134026340D01*
X50818592Y-134046936D01*
X50590336Y-134108097D01*
X50376170Y-134207965D01*
X50182598Y-134343505D01*
X50015505Y-134510598D01*
X49885575Y-134696159D01*
X49841257Y-134735025D01*
X49784000Y-134749036D01*
X49726743Y-134735025D01*
X49682425Y-134696159D01*
X49636259Y-134630227D01*
X49552495Y-134510599D01*
X49385401Y-134343505D01*
X49191830Y-134207965D01*
X48977663Y-134108097D01*
X48905074Y-134088647D01*
X48749407Y-134046936D01*
X48514000Y-134026340D01*
X48278592Y-134046936D01*
X48050336Y-134108097D01*
X47836170Y-134207965D01*
X47642598Y-134343505D01*
X47475505Y-134510598D01*
X47345575Y-134696159D01*
X47301257Y-134735025D01*
X47244000Y-134749036D01*
X47186743Y-134735025D01*
X47142425Y-134696159D01*
X47096259Y-134630227D01*
X47012495Y-134510599D01*
X46845401Y-134343505D01*
X46651830Y-134207965D01*
X46437663Y-134108097D01*
X46365074Y-134088647D01*
X46209407Y-134046936D01*
X45974000Y-134026340D01*
X45738592Y-134046936D01*
X45510336Y-134108097D01*
X45296170Y-134207965D01*
X45102601Y-134343503D01*
X44980285Y-134465819D01*
X44927539Y-134497114D01*
X44866246Y-134499303D01*
X44811401Y-134471850D01*
X44776422Y-134421471D01*
X44727352Y-134289911D01*
X44641188Y-134174811D01*
X44526089Y-134088647D01*
X44391375Y-134038402D01*
X44331824Y-134032000D01*
X43684000Y-134032000D01*
X43684000Y-136732000D01*
X43184000Y-136732000D01*
X43184000Y-135632000D01*
X42084000Y-135632000D01*
X37384126Y-135632000D01*
X37510453Y-135433707D01*
X37516643Y-135424867D01*
X37741368Y-135132000D01*
X42084000Y-135132000D01*
X43184000Y-135132000D01*
X43184000Y-134032000D01*
X42536176Y-134032000D01*
X42476624Y-134038402D01*
X42341910Y-134088647D01*
X42226811Y-134174811D01*
X42140647Y-134289910D01*
X42090402Y-134424624D01*
X42084000Y-134484176D01*
X42084000Y-135132000D01*
X37741368Y-135132000D01*
X37756989Y-135111642D01*
X37763927Y-135103373D01*
X38030659Y-134812287D01*
X38038287Y-134804659D01*
X38329373Y-134537927D01*
X38337642Y-134530989D01*
X38650867Y-134290643D01*
X38659707Y-134284453D01*
X38992700Y-134072313D01*
X39002045Y-134066918D01*
X39352245Y-133884615D01*
X39362019Y-133880057D01*
X39726792Y-133728963D01*
X39736924Y-133725276D01*
X40113462Y-133606554D01*
X40123891Y-133603759D01*
X40509355Y-133518303D01*
X40519985Y-133516430D01*
X40911420Y-133464897D01*
X40922152Y-133463957D01*
X41319297Y-133446617D01*
X41324706Y-133446500D01*
X41377514Y-133446500D01*
X87102614Y-133446500D01*
X87158909Y-133460015D01*
G37*
G04 #@! TD.AperFunction*
M02*
