G04 #@! TF.GenerationSoftware,KiCad,Pcbnew,7.0.1*
G04 #@! TF.CreationDate,2023-11-29T16:19:33+01:00*
G04 #@! TF.ProjectId,Gruzik2.0,4772757a-696b-4322-9e30-2e6b69636164,rev?*
G04 #@! TF.SameCoordinates,Original*
G04 #@! TF.FileFunction,Copper,L2,Inr*
G04 #@! TF.FilePolarity,Positive*
%FSLAX46Y46*%
G04 Gerber Fmt 4.6, Leading zero omitted, Abs format (unit mm)*
G04 Created by KiCad (PCBNEW 7.0.1) date 2023-11-29 16:19:33*
%MOMM*%
%LPD*%
G01*
G04 APERTURE LIST*
G04 #@! TA.AperFunction,ComponentPad*
%ADD10C,1.500000*%
G04 #@! TD*
G04 #@! TA.AperFunction,ComponentPad*
%ADD11R,1.700000X1.700000*%
G04 #@! TD*
G04 #@! TA.AperFunction,ComponentPad*
%ADD12O,1.700000X1.700000*%
G04 #@! TD*
G04 #@! TA.AperFunction,ViaPad*
%ADD13C,0.700000*%
G04 #@! TD*
G04 #@! TA.AperFunction,ViaPad*
%ADD14C,0.550000*%
G04 #@! TD*
G04 #@! TA.AperFunction,ViaPad*
%ADD15C,0.800000*%
G04 #@! TD*
G04 #@! TA.AperFunction,Conductor*
%ADD16C,0.300000*%
G04 #@! TD*
G04 APERTURE END LIST*
D10*
X87426800Y-151751200D03*
X87426800Y-146871200D03*
D11*
X138379200Y-135585200D03*
D12*
X140919200Y-135585200D03*
D11*
X49885600Y-170688000D03*
D12*
X52425600Y-170688000D03*
D11*
X43434000Y-135382000D03*
D12*
X45974000Y-135382000D03*
X48514000Y-135382000D03*
X51054000Y-135382000D03*
D11*
X150774400Y-170992800D03*
D12*
X148234400Y-170992800D03*
D11*
X148437600Y-135636000D03*
D12*
X150977600Y-135636000D03*
X153517600Y-135636000D03*
X156057600Y-135636000D03*
X158597600Y-135636000D03*
D11*
X131666000Y-158496000D03*
D12*
X131666000Y-155956000D03*
X131666000Y-153416000D03*
X131666000Y-150876000D03*
X131666000Y-148336000D03*
X131666000Y-145796000D03*
D11*
X68834000Y-145796000D03*
D12*
X68834000Y-148336000D03*
X68834000Y-150876000D03*
X68834000Y-153416000D03*
X68834000Y-155956000D03*
X68834000Y-158496000D03*
D11*
X133604000Y-169722800D03*
D12*
X136144000Y-169722800D03*
D13*
X51866800Y-154432000D03*
X136156200Y-135483600D03*
X147015200Y-155194000D03*
X146202400Y-154533600D03*
X53848000Y-154990800D03*
X91948000Y-157937200D03*
X91897200Y-156819600D03*
X52628800Y-154990800D03*
D14*
X53238400Y-151079200D03*
D13*
X90728800Y-141681200D03*
X106514600Y-151929800D03*
X95707200Y-151434800D03*
X147980400Y-155143200D03*
X107289600Y-166928800D03*
X105156000Y-144868600D03*
X95771000Y-159499000D03*
X149148800Y-154533600D03*
D14*
X146862800Y-151536400D03*
D13*
X54914800Y-154432000D03*
D14*
X98958400Y-153924000D03*
D13*
X84734400Y-153619200D03*
X145796000Y-135991600D03*
X94221000Y-159512000D03*
X91694000Y-140817600D03*
D15*
X97536000Y-170383200D03*
D13*
X119634000Y-162458400D03*
X100787200Y-153162000D03*
D14*
X54356000Y-148052000D03*
X148538700Y-148233900D03*
D13*
X105156000Y-146418600D03*
X106476800Y-153479800D03*
D15*
X90754200Y-155169200D03*
D14*
X97129600Y-151739600D03*
D13*
X63195200Y-143814800D03*
D14*
X108712000Y-166725600D03*
X115570000Y-166878000D03*
D15*
X118211600Y-169976800D03*
D13*
X94894400Y-137312400D03*
X144272000Y-148183600D03*
X151460200Y-147599400D03*
X50139600Y-147777200D03*
X57302400Y-147777200D03*
D14*
X112776000Y-137414000D03*
X101056600Y-148168200D03*
D13*
X52425600Y-158038800D03*
X52425600Y-158902400D03*
D14*
X111581700Y-151144900D03*
X140055600Y-138988800D03*
X104190800Y-154272698D03*
X109270800Y-162509200D03*
X98520000Y-148100800D03*
D13*
X148234400Y-158242000D03*
X148234400Y-159105600D03*
D14*
X87782400Y-135229600D03*
X99161600Y-145338800D03*
X100330000Y-144490100D03*
X87782400Y-134162800D03*
X79044800Y-142443200D03*
X100152200Y-149580600D03*
X55016400Y-150622000D03*
X64312800Y-144881600D03*
X100888800Y-150114000D03*
X51765200Y-150723600D03*
X78943200Y-143459200D03*
X65735200Y-145237200D03*
X109931200Y-143967200D03*
X111431200Y-143916400D03*
X95554800Y-160629600D03*
X98958400Y-158699200D03*
X95504000Y-161493200D03*
X98145600Y-157429200D03*
X89001600Y-140411200D03*
X69138800Y-135636000D03*
D16*
X119786400Y-141579600D02*
X134061200Y-141579600D01*
X140919200Y-136652000D02*
X140919200Y-135585200D01*
X140250800Y-137320400D02*
X140919200Y-136652000D01*
X138320400Y-137320400D02*
X140250800Y-137320400D01*
X116890800Y-149250400D02*
X116890800Y-144475200D01*
X102971600Y-153924000D02*
X106375200Y-150520400D01*
X98958400Y-153924000D02*
X102971600Y-153924000D01*
X116890800Y-144475200D02*
X119786400Y-141579600D01*
X106375200Y-150520400D02*
X115620800Y-150520400D01*
X115620800Y-150520400D02*
X116890800Y-149250400D01*
X134061200Y-141579600D02*
X138320400Y-137320400D01*
X108610400Y-145796000D02*
X107037400Y-147369000D01*
X111048800Y-137414000D02*
X108610400Y-139852400D01*
X101858541Y-147369000D02*
X101059341Y-148168200D01*
X101059341Y-148168200D02*
X101056600Y-148168200D01*
X107037400Y-147369000D02*
X101858541Y-147369000D01*
X112776000Y-137414000D02*
X111048800Y-137414000D01*
X108610400Y-139852400D02*
X108610400Y-145796000D01*
X134010400Y-142900400D02*
X138887200Y-138023600D01*
X118567200Y-150266400D02*
X118567200Y-144526000D01*
X120192800Y-142900400D02*
X134010400Y-142900400D01*
X117246400Y-151587200D02*
X118567200Y-150266400D01*
X153517600Y-137261600D02*
X153517600Y-135636000D01*
X111581700Y-151144900D02*
X112024000Y-151587200D01*
X138887200Y-138023600D02*
X152755600Y-138023600D01*
X112024000Y-151587200D02*
X117246400Y-151587200D01*
X118567200Y-144526000D02*
X120192800Y-142900400D01*
X152755600Y-138023600D02*
X153517600Y-137261600D01*
X119583200Y-151587200D02*
X119583200Y-145694400D01*
X118618000Y-152552400D02*
X119583200Y-151587200D01*
X119583200Y-145694400D02*
X121158000Y-144119600D01*
X106224650Y-152629800D02*
X106804550Y-152629800D01*
X104190800Y-154272698D02*
X105911098Y-152552400D01*
X121158000Y-144119600D02*
X134924800Y-144119600D01*
X105911098Y-152552400D02*
X106147250Y-152552400D01*
X106881950Y-152552400D02*
X118618000Y-152552400D01*
X106804550Y-152629800D02*
X106881950Y-152552400D01*
X134924800Y-144119600D02*
X140055600Y-138988800D01*
X106147250Y-152552400D02*
X106224650Y-152629800D01*
X99161600Y-135585200D02*
X98755200Y-135178800D01*
X98755200Y-135178800D02*
X87782400Y-135229600D01*
X99161600Y-145338800D02*
X99161600Y-135585200D01*
X100330000Y-144490100D02*
X100330000Y-135077200D01*
X99466400Y-134213600D02*
X87782400Y-134162800D01*
X100330000Y-135077200D02*
X99466400Y-134213600D01*
X55321200Y-150926800D02*
X62839600Y-150926800D01*
X96520000Y-149860000D02*
X96316800Y-149656800D01*
X96316800Y-149656800D02*
X96316800Y-143510000D01*
X95250000Y-142443200D02*
X79044800Y-142443200D01*
X62839600Y-150926800D02*
X64312800Y-149453600D01*
X64312800Y-149453600D02*
X64312800Y-144881600D01*
X55016400Y-150622000D02*
X55321200Y-150926800D01*
X100152200Y-149580600D02*
X99872800Y-149860000D01*
X96316800Y-143510000D02*
X95250000Y-142443200D01*
X99872800Y-149860000D02*
X96520000Y-149860000D01*
X95808800Y-150672800D02*
X100330000Y-150672800D01*
X65735200Y-145237200D02*
X65735200Y-149961600D01*
X52882800Y-151841200D02*
X51765200Y-150723600D01*
X78943200Y-143459200D02*
X78994000Y-143510000D01*
X95300800Y-150164800D02*
X95808800Y-150672800D01*
X63855600Y-151841200D02*
X52882800Y-151841200D01*
X65735200Y-149961600D02*
X63855600Y-151841200D01*
X94949294Y-143510000D02*
X95300800Y-143861506D01*
X95300800Y-143861506D02*
X95300800Y-150164800D01*
X78994000Y-143510000D02*
X94949294Y-143510000D01*
X100330000Y-150672800D02*
X100888800Y-150114000D01*
X98145600Y-160832800D02*
X98145600Y-157429200D01*
X97485200Y-161493200D02*
X98145600Y-160832800D01*
X95504000Y-161493200D02*
X97485200Y-161493200D01*
G04 #@! TA.AperFunction,Conductor*
G36*
X87158909Y-133460015D02*
G01*
X87202932Y-133497615D01*
X87225087Y-133551102D01*
X87220545Y-133608818D01*
X87190295Y-133658181D01*
X87172252Y-133676223D01*
X87079277Y-133824193D01*
X87021558Y-133989142D01*
X87001992Y-134162800D01*
X87021558Y-134336457D01*
X87079276Y-134501403D01*
X87160221Y-134630227D01*
X87179227Y-134696199D01*
X87160222Y-134762170D01*
X87079276Y-134890997D01*
X87021558Y-135055942D01*
X87001992Y-135229599D01*
X87021558Y-135403257D01*
X87079277Y-135568206D01*
X87172252Y-135716176D01*
X87295823Y-135839747D01*
X87443793Y-135932722D01*
X87608742Y-135990441D01*
X87782400Y-136010007D01*
X87956057Y-135990441D01*
X88121006Y-135932722D01*
X88177892Y-135896977D01*
X88243289Y-135877972D01*
X98386526Y-135831014D01*
X98448768Y-135847435D01*
X98494391Y-135892847D01*
X98511100Y-135955013D01*
X98511100Y-144880722D01*
X98492094Y-144946693D01*
X98458477Y-145000193D01*
X98400758Y-145165142D01*
X98381192Y-145338799D01*
X98400758Y-145512457D01*
X98458477Y-145677406D01*
X98551452Y-145825376D01*
X98675023Y-145948947D01*
X98822993Y-146041922D01*
X98987942Y-146099641D01*
X99161600Y-146119207D01*
X99335257Y-146099641D01*
X99500206Y-146041922D01*
X99648176Y-145948947D01*
X99771747Y-145825376D01*
X99864722Y-145677406D01*
X99922441Y-145512457D01*
X99942007Y-145338800D01*
X99942006Y-145338798D01*
X99942251Y-145336632D01*
X99960477Y-145284543D01*
X99999499Y-145245521D01*
X100051588Y-145227295D01*
X100106425Y-145233473D01*
X100156343Y-145250941D01*
X100330000Y-145270507D01*
X100503657Y-145250941D01*
X100668606Y-145193222D01*
X100816576Y-145100247D01*
X100940147Y-144976676D01*
X101008055Y-144868600D01*
X104300815Y-144868600D01*
X104303919Y-144898128D01*
X104319503Y-145046404D01*
X104374749Y-145216435D01*
X104464140Y-145371265D01*
X104583771Y-145504127D01*
X104728403Y-145609210D01*
X104728406Y-145609211D01*
X104728407Y-145609212D01*
X104837291Y-145657690D01*
X104891735Y-145681930D01*
X105066607Y-145719100D01*
X105066609Y-145719100D01*
X105245391Y-145719100D01*
X105245393Y-145719100D01*
X105420264Y-145681930D01*
X105420265Y-145681929D01*
X105420267Y-145681929D01*
X105583593Y-145609212D01*
X105728230Y-145504126D01*
X105847859Y-145371265D01*
X105937250Y-145216435D01*
X105992497Y-145046403D01*
X106011185Y-144868600D01*
X105992497Y-144690797D01*
X105952692Y-144568290D01*
X105937250Y-144520764D01*
X105847859Y-144365934D01*
X105734112Y-144239607D01*
X105728230Y-144233074D01*
X105728229Y-144233073D01*
X105728228Y-144233072D01*
X105583596Y-144127989D01*
X105420264Y-144055269D01*
X105245393Y-144018100D01*
X105245391Y-144018100D01*
X105066609Y-144018100D01*
X105066607Y-144018100D01*
X104891735Y-144055269D01*
X104728408Y-144127987D01*
X104583768Y-144233074D01*
X104464140Y-144365934D01*
X104374749Y-144520764D01*
X104319503Y-144690795D01*
X104306605Y-144813515D01*
X104300815Y-144868600D01*
X101008055Y-144868600D01*
X101033122Y-144828706D01*
X101090841Y-144663757D01*
X101110407Y-144490100D01*
X101090841Y-144316442D01*
X101033122Y-144151493D01*
X100999506Y-144097993D01*
X100980500Y-144032022D01*
X100980500Y-135162705D01*
X100982841Y-135141494D01*
X100981903Y-135111651D01*
X100980561Y-135068924D01*
X100980500Y-135065029D01*
X100980500Y-135036282D01*
X100980500Y-135036275D01*
X100979947Y-135031900D01*
X100979031Y-135020263D01*
X100978490Y-135003036D01*
X100977598Y-134974631D01*
X100972816Y-134958171D01*
X100971677Y-134954251D01*
X100967730Y-134935201D01*
X100965071Y-134914142D01*
X100948264Y-134871693D01*
X100944481Y-134860645D01*
X100931744Y-134816802D01*
X100920937Y-134798529D01*
X100912382Y-134781066D01*
X100904568Y-134761329D01*
X100877733Y-134724393D01*
X100871325Y-134714636D01*
X100848084Y-134675338D01*
X100841377Y-134668631D01*
X100833068Y-134660322D01*
X100820435Y-134645530D01*
X100811404Y-134633100D01*
X100807963Y-134628363D01*
X100772779Y-134599256D01*
X100764140Y-134591394D01*
X99988039Y-133815293D01*
X99976360Y-133800650D01*
X99921358Y-133748548D01*
X99918953Y-133746207D01*
X99897436Y-133724690D01*
X99895283Y-133723020D01*
X99886013Y-133715067D01*
X99854094Y-133684832D01*
X99843415Y-133678900D01*
X99797071Y-133633919D01*
X99779632Y-133571734D01*
X99795830Y-133509214D01*
X99841270Y-133463319D01*
X99903626Y-133446500D01*
X159282486Y-133446500D01*
X159335294Y-133446500D01*
X159340702Y-133446617D01*
X159737845Y-133463957D01*
X159748581Y-133464897D01*
X160140010Y-133516429D01*
X160150648Y-133518304D01*
X160536102Y-133603758D01*
X160546542Y-133606556D01*
X160923068Y-133725273D01*
X160933214Y-133728966D01*
X161297971Y-133880054D01*
X161307762Y-133884620D01*
X161619570Y-134046937D01*
X161657942Y-134066912D01*
X161667309Y-134072319D01*
X161932255Y-134241109D01*
X162000281Y-134284446D01*
X162009142Y-134290651D01*
X162322348Y-134530982D01*
X162330635Y-134537936D01*
X162621701Y-134804649D01*
X162629350Y-134812298D01*
X162896063Y-135103364D01*
X162903017Y-135111651D01*
X163143348Y-135424857D01*
X163149553Y-135433718D01*
X163361679Y-135766689D01*
X163367087Y-135776057D01*
X163549376Y-136126230D01*
X163553948Y-136136034D01*
X163705029Y-136500775D01*
X163708729Y-136510941D01*
X163827442Y-136887453D01*
X163830242Y-136897901D01*
X163915693Y-137283343D01*
X163917571Y-137293997D01*
X163969100Y-137685399D01*
X163970043Y-137696175D01*
X163986954Y-138083506D01*
X163987382Y-138093297D01*
X163987500Y-138098706D01*
X163987500Y-167971294D01*
X163987382Y-167976703D01*
X163970043Y-168373824D01*
X163969100Y-168384600D01*
X163917571Y-168776002D01*
X163915693Y-168786656D01*
X163830242Y-169172098D01*
X163827442Y-169182546D01*
X163708729Y-169559058D01*
X163705029Y-169569224D01*
X163553948Y-169933965D01*
X163549376Y-169943769D01*
X163367087Y-170293942D01*
X163361679Y-170303310D01*
X163149553Y-170636281D01*
X163143348Y-170645142D01*
X162903017Y-170958348D01*
X162896063Y-170966635D01*
X162629350Y-171257701D01*
X162621701Y-171265350D01*
X162330635Y-171532063D01*
X162322348Y-171539017D01*
X162009142Y-171779348D01*
X162000281Y-171785553D01*
X161667310Y-171997679D01*
X161657942Y-172003087D01*
X161307769Y-172185376D01*
X161297965Y-172189948D01*
X160933224Y-172341029D01*
X160923058Y-172344729D01*
X160546546Y-172463442D01*
X160536098Y-172466242D01*
X160150656Y-172551693D01*
X160140002Y-172553571D01*
X159748600Y-172605100D01*
X159737824Y-172606043D01*
X159340703Y-172623382D01*
X159335294Y-172623500D01*
X41324706Y-172623500D01*
X41319297Y-172623382D01*
X40922175Y-172606043D01*
X40911399Y-172605100D01*
X40519997Y-172553571D01*
X40509343Y-172551693D01*
X40123901Y-172466242D01*
X40113453Y-172463442D01*
X39736941Y-172344729D01*
X39726775Y-172341029D01*
X39362034Y-172189948D01*
X39352230Y-172185376D01*
X39002057Y-172003087D01*
X38992689Y-171997679D01*
X38659718Y-171785553D01*
X38650857Y-171779348D01*
X38398710Y-171585869D01*
X48535100Y-171585869D01*
X48541509Y-171645484D01*
X48550887Y-171670627D01*
X48591804Y-171780331D01*
X48678054Y-171895546D01*
X48793269Y-171981796D01*
X48928117Y-172032091D01*
X48987727Y-172038500D01*
X50783472Y-172038499D01*
X50843083Y-172032091D01*
X50977931Y-171981796D01*
X51093146Y-171895546D01*
X51179396Y-171780331D01*
X51228410Y-171648916D01*
X51263389Y-171598537D01*
X51318234Y-171571084D01*
X51379527Y-171573273D01*
X51432273Y-171604569D01*
X51554199Y-171726495D01*
X51747770Y-171862035D01*
X51961937Y-171961903D01*
X52190192Y-172023063D01*
X52425600Y-172043659D01*
X52661008Y-172023063D01*
X52889263Y-171961903D01*
X53103430Y-171862035D01*
X53297001Y-171726495D01*
X53464095Y-171559401D01*
X53599635Y-171365830D01*
X53699503Y-171151663D01*
X53760663Y-170923408D01*
X53781259Y-170688000D01*
X53760663Y-170452592D01*
X53699503Y-170224337D01*
X53599635Y-170010171D01*
X53576268Y-169976799D01*
X117306140Y-169976799D01*
X117325926Y-170165057D01*
X117384420Y-170345084D01*
X117479066Y-170509016D01*
X117605729Y-170649689D01*
X117758869Y-170760951D01*
X117931797Y-170837944D01*
X118116952Y-170877300D01*
X118116954Y-170877300D01*
X118306246Y-170877300D01*
X118306248Y-170877300D01*
X118429684Y-170851062D01*
X118491403Y-170837944D01*
X118664330Y-170760951D01*
X118775359Y-170680284D01*
X118817470Y-170649689D01*
X118832194Y-170633337D01*
X118843600Y-170620669D01*
X132253500Y-170620669D01*
X132259909Y-170680284D01*
X132262787Y-170688000D01*
X132310204Y-170815131D01*
X132396454Y-170930346D01*
X132511669Y-171016596D01*
X132646517Y-171066891D01*
X132706127Y-171073300D01*
X134501872Y-171073299D01*
X134561483Y-171066891D01*
X134696331Y-171016596D01*
X134811546Y-170930346D01*
X134897796Y-170815131D01*
X134946810Y-170683716D01*
X134981789Y-170633337D01*
X135036634Y-170605884D01*
X135097927Y-170608073D01*
X135150673Y-170639369D01*
X135272599Y-170761295D01*
X135466170Y-170896835D01*
X135680337Y-170996703D01*
X135908592Y-171057863D01*
X136144000Y-171078459D01*
X136379408Y-171057863D01*
X136607663Y-170996703D01*
X136616033Y-170992800D01*
X146878740Y-170992800D01*
X146899336Y-171228207D01*
X146936211Y-171365827D01*
X146960497Y-171456463D01*
X147060365Y-171670630D01*
X147195905Y-171864201D01*
X147362999Y-172031295D01*
X147556570Y-172166835D01*
X147770737Y-172266703D01*
X147998991Y-172327862D01*
X147998992Y-172327863D01*
X148234399Y-172348459D01*
X148234399Y-172348458D01*
X148234400Y-172348459D01*
X148469808Y-172327863D01*
X148698063Y-172266703D01*
X148912230Y-172166835D01*
X149105801Y-172031295D01*
X149227729Y-171909366D01*
X149280472Y-171878073D01*
X149341765Y-171875884D01*
X149396609Y-171903337D01*
X149431589Y-171953716D01*
X149457454Y-172023063D01*
X149480604Y-172085131D01*
X149566854Y-172200346D01*
X149682069Y-172286596D01*
X149816917Y-172336891D01*
X149876527Y-172343300D01*
X151672272Y-172343299D01*
X151731883Y-172336891D01*
X151866731Y-172286596D01*
X151981946Y-172200346D01*
X152068196Y-172085131D01*
X152118491Y-171950283D01*
X152124900Y-171890673D01*
X152124899Y-170094928D01*
X152118491Y-170035317D01*
X152068196Y-169900469D01*
X151981946Y-169785254D01*
X151866731Y-169699004D01*
X151731883Y-169648709D01*
X151672273Y-169642300D01*
X151672269Y-169642300D01*
X149876530Y-169642300D01*
X149816915Y-169648709D01*
X149682069Y-169699004D01*
X149566854Y-169785254D01*
X149480604Y-169900469D01*
X149431589Y-170031883D01*
X149396609Y-170082262D01*
X149341765Y-170109715D01*
X149280472Y-170107526D01*
X149227726Y-170076230D01*
X149105804Y-169954308D01*
X149105801Y-169954305D01*
X148912230Y-169818765D01*
X148698063Y-169718897D01*
X148636902Y-169702509D01*
X148469807Y-169657736D01*
X148234400Y-169637140D01*
X147998992Y-169657736D01*
X147770736Y-169718897D01*
X147556570Y-169818765D01*
X147362998Y-169954305D01*
X147195905Y-170121398D01*
X147060365Y-170314970D01*
X146960497Y-170529136D01*
X146899336Y-170757392D01*
X146878740Y-170992800D01*
X136616033Y-170992800D01*
X136821830Y-170896835D01*
X137015401Y-170761295D01*
X137182495Y-170594201D01*
X137318035Y-170400630D01*
X137417903Y-170186463D01*
X137479063Y-169958208D01*
X137499659Y-169722800D01*
X137479063Y-169487392D01*
X137417903Y-169259137D01*
X137318035Y-169044971D01*
X137182495Y-168851399D01*
X137015401Y-168684305D01*
X136821830Y-168548765D01*
X136607663Y-168448897D01*
X136546502Y-168432509D01*
X136379407Y-168387736D01*
X136144000Y-168367140D01*
X135908592Y-168387736D01*
X135680336Y-168448897D01*
X135466170Y-168548765D01*
X135272601Y-168684303D01*
X135150673Y-168806231D01*
X135097926Y-168837526D01*
X135036634Y-168839715D01*
X134981789Y-168812262D01*
X134946810Y-168761882D01*
X134936089Y-168733139D01*
X134897796Y-168630469D01*
X134811546Y-168515254D01*
X134696331Y-168429004D01*
X134561483Y-168378709D01*
X134501873Y-168372300D01*
X134501869Y-168372300D01*
X132706130Y-168372300D01*
X132646515Y-168378709D01*
X132511669Y-168429004D01*
X132396454Y-168515254D01*
X132310204Y-168630468D01*
X132259909Y-168765316D01*
X132253500Y-168824930D01*
X132253500Y-170620669D01*
X118843600Y-170620669D01*
X118944133Y-170509016D01*
X119038779Y-170345084D01*
X119097274Y-170165056D01*
X119117060Y-169976800D01*
X119097274Y-169788544D01*
X119051839Y-169648709D01*
X119038779Y-169608515D01*
X118944133Y-169444583D01*
X118817470Y-169303910D01*
X118664330Y-169192648D01*
X118491402Y-169115655D01*
X118306248Y-169076300D01*
X118306246Y-169076300D01*
X118116954Y-169076300D01*
X118116952Y-169076300D01*
X117931797Y-169115655D01*
X117758869Y-169192648D01*
X117605729Y-169303910D01*
X117479066Y-169444583D01*
X117384420Y-169608515D01*
X117325926Y-169788542D01*
X117306140Y-169976799D01*
X53576268Y-169976799D01*
X53464095Y-169816599D01*
X53297001Y-169649505D01*
X53103430Y-169513965D01*
X52889263Y-169414097D01*
X52828102Y-169397709D01*
X52661007Y-169352936D01*
X52425600Y-169332340D01*
X52190192Y-169352936D01*
X51961936Y-169414097D01*
X51747770Y-169513965D01*
X51554201Y-169649503D01*
X51432273Y-169771431D01*
X51379526Y-169802726D01*
X51318234Y-169804915D01*
X51263389Y-169777462D01*
X51228410Y-169727082D01*
X51217937Y-169699004D01*
X51179396Y-169595669D01*
X51093146Y-169480454D01*
X50977931Y-169394204D01*
X50843083Y-169343909D01*
X50783473Y-169337500D01*
X50783469Y-169337500D01*
X48987730Y-169337500D01*
X48928115Y-169343909D01*
X48793269Y-169394204D01*
X48678054Y-169480454D01*
X48591804Y-169595668D01*
X48553262Y-169699004D01*
X48541509Y-169730517D01*
X48535271Y-169788544D01*
X48535100Y-169790130D01*
X48535100Y-171585869D01*
X38398710Y-171585869D01*
X38337651Y-171539017D01*
X38329364Y-171532063D01*
X38038298Y-171265350D01*
X38030649Y-171257701D01*
X37763936Y-170966635D01*
X37756982Y-170958348D01*
X37516651Y-170645142D01*
X37510446Y-170636281D01*
X37508570Y-170633337D01*
X37298319Y-170303309D01*
X37292912Y-170293942D01*
X37158279Y-170035315D01*
X37110620Y-169943762D01*
X37106051Y-169933965D01*
X37100520Y-169920612D01*
X36954966Y-169569214D01*
X36951270Y-169559058D01*
X36937052Y-169513965D01*
X36832556Y-169182542D01*
X36829757Y-169172098D01*
X36807775Y-169072944D01*
X36744304Y-168786648D01*
X36742428Y-168776002D01*
X36690897Y-168384581D01*
X36689957Y-168373845D01*
X36672617Y-167976702D01*
X36672500Y-167971294D01*
X36672500Y-167893999D01*
X73878531Y-167893999D01*
X73898364Y-168120689D01*
X73957261Y-168340497D01*
X74053432Y-168546735D01*
X74183953Y-168733140D01*
X74344859Y-168894046D01*
X74531264Y-169024567D01*
X74531265Y-169024567D01*
X74531266Y-169024568D01*
X74737504Y-169120739D01*
X74957308Y-169179635D01*
X75042261Y-169187067D01*
X75127214Y-169194500D01*
X75127216Y-169194500D01*
X75240784Y-169194500D01*
X75240786Y-169194500D01*
X75308747Y-169188553D01*
X75410692Y-169179635D01*
X75630496Y-169120739D01*
X75836734Y-169024568D01*
X76023139Y-168894047D01*
X76184047Y-168733139D01*
X76314568Y-168546734D01*
X76410739Y-168340496D01*
X76469635Y-168120692D01*
X76489468Y-167894000D01*
X124170531Y-167894000D01*
X124190364Y-168120689D01*
X124249261Y-168340497D01*
X124345432Y-168546735D01*
X124475953Y-168733140D01*
X124636859Y-168894046D01*
X124823264Y-169024567D01*
X124823265Y-169024567D01*
X124823266Y-169024568D01*
X125029504Y-169120739D01*
X125249308Y-169179635D01*
X125334261Y-169187067D01*
X125419214Y-169194500D01*
X125419216Y-169194500D01*
X125532784Y-169194500D01*
X125532786Y-169194500D01*
X125600747Y-169188553D01*
X125702692Y-169179635D01*
X125922496Y-169120739D01*
X126128734Y-169024568D01*
X126315139Y-168894047D01*
X126476047Y-168733139D01*
X126606568Y-168546734D01*
X126702739Y-168340496D01*
X126761635Y-168120692D01*
X126781468Y-167894000D01*
X126761635Y-167667308D01*
X126702739Y-167447504D01*
X126606568Y-167241266D01*
X126586199Y-167212176D01*
X126476046Y-167054859D01*
X126315140Y-166893953D01*
X126128735Y-166763432D01*
X125922497Y-166667261D01*
X125702689Y-166608364D01*
X125532786Y-166593500D01*
X125532784Y-166593500D01*
X125419216Y-166593500D01*
X125419214Y-166593500D01*
X125249310Y-166608364D01*
X125029502Y-166667261D01*
X124823264Y-166763432D01*
X124636859Y-166893953D01*
X124475953Y-167054859D01*
X124345432Y-167241264D01*
X124249261Y-167447502D01*
X124190364Y-167667310D01*
X124170531Y-167894000D01*
X76489468Y-167894000D01*
X76469635Y-167667308D01*
X76410739Y-167447504D01*
X76314568Y-167241266D01*
X76294199Y-167212176D01*
X76184046Y-167054859D01*
X76057987Y-166928800D01*
X106434415Y-166928800D01*
X106453103Y-167106604D01*
X106508349Y-167276635D01*
X106597740Y-167431465D01*
X106717371Y-167564327D01*
X106862003Y-167669410D01*
X107025335Y-167742130D01*
X107200207Y-167779300D01*
X107200209Y-167779300D01*
X107378991Y-167779300D01*
X107378993Y-167779300D01*
X107553864Y-167742130D01*
X107553865Y-167742129D01*
X107553867Y-167742129D01*
X107717193Y-167669412D01*
X107861830Y-167564326D01*
X107981459Y-167431465D01*
X108024992Y-167356061D01*
X108063486Y-167314962D01*
X108116192Y-167295125D01*
X108172236Y-167300645D01*
X108220059Y-167330383D01*
X108225423Y-167335747D01*
X108373393Y-167428722D01*
X108538342Y-167486441D01*
X108712000Y-167506007D01*
X108885657Y-167486441D01*
X109050606Y-167428722D01*
X109198576Y-167335747D01*
X109322147Y-167212176D01*
X109415122Y-167064206D01*
X109472841Y-166899257D01*
X109475236Y-166878000D01*
X114789592Y-166878000D01*
X114809158Y-167051657D01*
X114866877Y-167216606D01*
X114959852Y-167364576D01*
X115083423Y-167488147D01*
X115231393Y-167581122D01*
X115396342Y-167638841D01*
X115570000Y-167658407D01*
X115743657Y-167638841D01*
X115908606Y-167581122D01*
X116056576Y-167488147D01*
X116180147Y-167364576D01*
X116273122Y-167216606D01*
X116330841Y-167051657D01*
X116350407Y-166878000D01*
X116330841Y-166704343D01*
X116317865Y-166667261D01*
X116273122Y-166539393D01*
X116180147Y-166391423D01*
X116056576Y-166267852D01*
X115908606Y-166174877D01*
X115743657Y-166117158D01*
X115570000Y-166097592D01*
X115396342Y-166117158D01*
X115231393Y-166174877D01*
X115083423Y-166267852D01*
X114959852Y-166391423D01*
X114866877Y-166539393D01*
X114809158Y-166704342D01*
X114789592Y-166878000D01*
X109475236Y-166878000D01*
X109492407Y-166725600D01*
X109472841Y-166551943D01*
X109428818Y-166426135D01*
X109415122Y-166386993D01*
X109322147Y-166239023D01*
X109198576Y-166115452D01*
X109050606Y-166022477D01*
X108885657Y-165964758D01*
X108712000Y-165945192D01*
X108538342Y-165964758D01*
X108373393Y-166022477D01*
X108225423Y-166115452D01*
X108101853Y-166239022D01*
X108070443Y-166289012D01*
X108030041Y-166328888D01*
X107976103Y-166346581D01*
X107919931Y-166338384D01*
X107873300Y-166306013D01*
X107861828Y-166293272D01*
X107717196Y-166188189D01*
X107553864Y-166115469D01*
X107378993Y-166078300D01*
X107378991Y-166078300D01*
X107200209Y-166078300D01*
X107200207Y-166078300D01*
X107025335Y-166115469D01*
X106862008Y-166188187D01*
X106717368Y-166293274D01*
X106597740Y-166426134D01*
X106508349Y-166580964D01*
X106453103Y-166750995D01*
X106434415Y-166928800D01*
X76057987Y-166928800D01*
X76023140Y-166893953D01*
X75836735Y-166763432D01*
X75630497Y-166667261D01*
X75410689Y-166608364D01*
X75240786Y-166593500D01*
X75240784Y-166593500D01*
X75127216Y-166593500D01*
X75127214Y-166593500D01*
X74957310Y-166608364D01*
X74737502Y-166667261D01*
X74531264Y-166763432D01*
X74344859Y-166893953D01*
X74183953Y-167054859D01*
X74053432Y-167241264D01*
X73957261Y-167447502D01*
X73898364Y-167667310D01*
X73878531Y-167893999D01*
X36672500Y-167893999D01*
X36672500Y-161925000D01*
X40016531Y-161925000D01*
X40036364Y-162151689D01*
X40095261Y-162371497D01*
X40191432Y-162577735D01*
X40321953Y-162764140D01*
X40482859Y-162925046D01*
X40669264Y-163055567D01*
X40669265Y-163055567D01*
X40669266Y-163055568D01*
X40875504Y-163151739D01*
X41095308Y-163210635D01*
X41180261Y-163218067D01*
X41265214Y-163225500D01*
X41265216Y-163225500D01*
X41378784Y-163225500D01*
X41378786Y-163225500D01*
X41446747Y-163219553D01*
X41548692Y-163210635D01*
X41768496Y-163151739D01*
X41974734Y-163055568D01*
X42161139Y-162925047D01*
X42322047Y-162764139D01*
X42452568Y-162577734D01*
X42484527Y-162509199D01*
X108490392Y-162509199D01*
X108509958Y-162682857D01*
X108567677Y-162847806D01*
X108660652Y-162995776D01*
X108784223Y-163119347D01*
X108932193Y-163212322D01*
X109097142Y-163270041D01*
X109270800Y-163289607D01*
X109444457Y-163270041D01*
X109609406Y-163212322D01*
X109757376Y-163119347D01*
X109880947Y-162995776D01*
X109973922Y-162847806D01*
X110031641Y-162682857D01*
X110051207Y-162509200D01*
X110031641Y-162335543D01*
X110009968Y-162273607D01*
X109973922Y-162170593D01*
X109880947Y-162022623D01*
X109783324Y-161925000D01*
X158032531Y-161925000D01*
X158052364Y-162151689D01*
X158111261Y-162371497D01*
X158207432Y-162577735D01*
X158337953Y-162764140D01*
X158498859Y-162925046D01*
X158685264Y-163055567D01*
X158685265Y-163055567D01*
X158685266Y-163055568D01*
X158891504Y-163151739D01*
X159111308Y-163210635D01*
X159196261Y-163218067D01*
X159281214Y-163225500D01*
X159281216Y-163225500D01*
X159394784Y-163225500D01*
X159394786Y-163225500D01*
X159462747Y-163219553D01*
X159564692Y-163210635D01*
X159784496Y-163151739D01*
X159990734Y-163055568D01*
X160177139Y-162925047D01*
X160338047Y-162764139D01*
X160468568Y-162577734D01*
X160564739Y-162371496D01*
X160623635Y-162151692D01*
X160643468Y-161925000D01*
X160623635Y-161698308D01*
X160564739Y-161478504D01*
X160468568Y-161272266D01*
X160417689Y-161199603D01*
X160338046Y-161085859D01*
X160177140Y-160924953D01*
X159990735Y-160794432D01*
X159784497Y-160698261D01*
X159564689Y-160639364D01*
X159394786Y-160624500D01*
X159394784Y-160624500D01*
X159281216Y-160624500D01*
X159281214Y-160624500D01*
X159111310Y-160639364D01*
X158891502Y-160698261D01*
X158685264Y-160794432D01*
X158498859Y-160924953D01*
X158337953Y-161085859D01*
X158207432Y-161272264D01*
X158111261Y-161478502D01*
X158052364Y-161698310D01*
X158032531Y-161925000D01*
X109783324Y-161925000D01*
X109757376Y-161899052D01*
X109609406Y-161806077D01*
X109444457Y-161748358D01*
X109270799Y-161728792D01*
X109097142Y-161748358D01*
X108932193Y-161806077D01*
X108784223Y-161899052D01*
X108660652Y-162022623D01*
X108567677Y-162170593D01*
X108509958Y-162335542D01*
X108490392Y-162509199D01*
X42484527Y-162509199D01*
X42548739Y-162371496D01*
X42607635Y-162151692D01*
X42627468Y-161925000D01*
X42607635Y-161698308D01*
X42552677Y-161493200D01*
X94723592Y-161493200D01*
X94743158Y-161666857D01*
X94800877Y-161831806D01*
X94893852Y-161979776D01*
X95017423Y-162103347D01*
X95165393Y-162196322D01*
X95330342Y-162254041D01*
X95504000Y-162273607D01*
X95677657Y-162254041D01*
X95842606Y-162196322D01*
X95842605Y-162196322D01*
X95896107Y-162162706D01*
X95962078Y-162143700D01*
X97399695Y-162143700D01*
X97420904Y-162146041D01*
X97423494Y-162145959D01*
X97423496Y-162145960D01*
X97493462Y-162143760D01*
X97497357Y-162143700D01*
X97526120Y-162143700D01*
X97526125Y-162143700D01*
X97530502Y-162143146D01*
X97542141Y-162142230D01*
X97587769Y-162140797D01*
X97608149Y-162134875D01*
X97627189Y-162130932D01*
X97648258Y-162128271D01*
X97690720Y-162111458D01*
X97701757Y-162107680D01*
X97745598Y-162094944D01*
X97763870Y-162084136D01*
X97781336Y-162075580D01*
X97801071Y-162067768D01*
X97838016Y-162040925D01*
X97847748Y-162034532D01*
X97887065Y-162011281D01*
X97902074Y-161996271D01*
X97916863Y-161983639D01*
X97934037Y-161971163D01*
X97963146Y-161935974D01*
X97970990Y-161927354D01*
X98545113Y-161353231D01*
X98561762Y-161339894D01*
X98563536Y-161338004D01*
X98563540Y-161338002D01*
X98611498Y-161286930D01*
X98614146Y-161284198D01*
X98634512Y-161263834D01*
X98637212Y-161260351D01*
X98644788Y-161251480D01*
X98676048Y-161218193D01*
X98686272Y-161199593D01*
X98696951Y-161183336D01*
X98709963Y-161166563D01*
X98728098Y-161124652D01*
X98733233Y-161114174D01*
X98755226Y-161074170D01*
X98760503Y-161053615D01*
X98766808Y-161035199D01*
X98775236Y-161015726D01*
X98782378Y-160970624D01*
X98784743Y-160959205D01*
X98796100Y-160914977D01*
X98796100Y-160893755D01*
X98797627Y-160874356D01*
X98800947Y-160853395D01*
X98796649Y-160807936D01*
X98796100Y-160796269D01*
X98796100Y-159600077D01*
X98815106Y-159534105D01*
X98866298Y-159488357D01*
X98933982Y-159476857D01*
X98958398Y-159479607D01*
X98958398Y-159479606D01*
X98958400Y-159479607D01*
X99132057Y-159460041D01*
X99297006Y-159402322D01*
X99444976Y-159309347D01*
X99568547Y-159185776D01*
X99661522Y-159037806D01*
X99719241Y-158872857D01*
X99738807Y-158699200D01*
X99728960Y-158611800D01*
X99719241Y-158525542D01*
X99661522Y-158360593D01*
X99568547Y-158212623D01*
X99444976Y-158089052D01*
X99297006Y-157996077D01*
X99132056Y-157938358D01*
X98956566Y-157918585D01*
X98904478Y-157900358D01*
X98865456Y-157861336D01*
X98847230Y-157809248D01*
X98853408Y-157754412D01*
X98906441Y-157602857D01*
X98926007Y-157429200D01*
X98906441Y-157255543D01*
X98896103Y-157226000D01*
X98848722Y-157090593D01*
X98755747Y-156942623D01*
X98632176Y-156819052D01*
X98484206Y-156726077D01*
X98319257Y-156668358D01*
X98145600Y-156648792D01*
X97971942Y-156668358D01*
X97806993Y-156726077D01*
X97659023Y-156819052D01*
X97535452Y-156942623D01*
X97442477Y-157090593D01*
X97384758Y-157255542D01*
X97365192Y-157429200D01*
X97384758Y-157602857D01*
X97442477Y-157767806D01*
X97476094Y-157821307D01*
X97495100Y-157887278D01*
X97495100Y-160511992D01*
X97485661Y-160559445D01*
X97458781Y-160599673D01*
X97252073Y-160806381D01*
X97211845Y-160833261D01*
X97164392Y-160842700D01*
X96449953Y-160842700D01*
X96383981Y-160823694D01*
X96338233Y-160772502D01*
X96326733Y-160704817D01*
X96335207Y-160629600D01*
X96315641Y-160455943D01*
X96262024Y-160302717D01*
X96255564Y-160250647D01*
X96271218Y-160200566D01*
X96306179Y-160161444D01*
X96343230Y-160134526D01*
X96462859Y-160001665D01*
X96552250Y-159846835D01*
X96607497Y-159676803D01*
X96626185Y-159499000D01*
X96607497Y-159321197D01*
X96563496Y-159185776D01*
X96552250Y-159151164D01*
X96462859Y-158996334D01*
X96364898Y-158887539D01*
X96343230Y-158863474D01*
X96343229Y-158863473D01*
X96343228Y-158863472D01*
X96198596Y-158758389D01*
X96035264Y-158685669D01*
X95860393Y-158648500D01*
X95860391Y-158648500D01*
X95681609Y-158648500D01*
X95681607Y-158648500D01*
X95506735Y-158685669D01*
X95343408Y-158758387D01*
X95198768Y-158863474D01*
X95079140Y-158996334D01*
X94989749Y-159151164D01*
X94934503Y-159321195D01*
X94915815Y-159499000D01*
X94934503Y-159676804D01*
X94989749Y-159846835D01*
X95034081Y-159923619D01*
X95050222Y-159974811D01*
X95043216Y-160028029D01*
X95014376Y-160073300D01*
X94944650Y-160143025D01*
X94851677Y-160290993D01*
X94793958Y-160455942D01*
X94774392Y-160629599D01*
X94793958Y-160803257D01*
X94855675Y-160979630D01*
X94861854Y-161034468D01*
X94843628Y-161086556D01*
X94800877Y-161154593D01*
X94743158Y-161319542D01*
X94723592Y-161493200D01*
X42552677Y-161493200D01*
X42548739Y-161478504D01*
X42452568Y-161272266D01*
X42401689Y-161199603D01*
X42322046Y-161085859D01*
X42161140Y-160924953D01*
X41974735Y-160794432D01*
X41768497Y-160698261D01*
X41548689Y-160639364D01*
X41378786Y-160624500D01*
X41378784Y-160624500D01*
X41265216Y-160624500D01*
X41265214Y-160624500D01*
X41095310Y-160639364D01*
X40875502Y-160698261D01*
X40669264Y-160794432D01*
X40482859Y-160924953D01*
X40321953Y-161085859D01*
X40191432Y-161272264D01*
X40095261Y-161478502D01*
X40036364Y-161698310D01*
X40016531Y-161925000D01*
X36672500Y-161925000D01*
X36672500Y-158902400D01*
X51570415Y-158902400D01*
X51589103Y-159080204D01*
X51644349Y-159250235D01*
X51733740Y-159405065D01*
X51853371Y-159537927D01*
X51998003Y-159643010D01*
X52161335Y-159715730D01*
X52336207Y-159752900D01*
X52336209Y-159752900D01*
X52514991Y-159752900D01*
X52514993Y-159752900D01*
X52689864Y-159715730D01*
X52689865Y-159715729D01*
X52689867Y-159715729D01*
X52853193Y-159643012D01*
X52997830Y-159537926D01*
X53117459Y-159405065D01*
X53206850Y-159250235D01*
X53262097Y-159080203D01*
X53280785Y-158902400D01*
X53262097Y-158724597D01*
X53206850Y-158554565D01*
X53206849Y-158554563D01*
X53206849Y-158554562D01*
X53194169Y-158532601D01*
X53184361Y-158496000D01*
X67478340Y-158496000D01*
X67498936Y-158731407D01*
X67536838Y-158872857D01*
X67560097Y-158959663D01*
X67659965Y-159173830D01*
X67795505Y-159367401D01*
X67962599Y-159534495D01*
X68156170Y-159670035D01*
X68370337Y-159769903D01*
X68598592Y-159831063D01*
X68834000Y-159851659D01*
X69069408Y-159831063D01*
X69297663Y-159769903D01*
X69511830Y-159670035D01*
X69705401Y-159534495D01*
X69872495Y-159367401D01*
X70008035Y-159173830D01*
X70107903Y-158959663D01*
X70169063Y-158731408D01*
X70189659Y-158496000D01*
X70169063Y-158260592D01*
X70107903Y-158032337D01*
X70008035Y-157818171D01*
X69872495Y-157624599D01*
X69705401Y-157457505D01*
X69519839Y-157327573D01*
X69480975Y-157283257D01*
X69466964Y-157226000D01*
X69480975Y-157168743D01*
X69519839Y-157124426D01*
X69705401Y-156994495D01*
X69872495Y-156827401D01*
X69877957Y-156819600D01*
X91042015Y-156819600D01*
X91060703Y-156997404D01*
X91115949Y-157167435D01*
X91205340Y-157322265D01*
X91215505Y-157333554D01*
X91241286Y-157378208D01*
X91246676Y-157429487D01*
X91230742Y-157478526D01*
X91166749Y-157589364D01*
X91111503Y-157759395D01*
X91092815Y-157937200D01*
X91111503Y-158115004D01*
X91166749Y-158285035D01*
X91256140Y-158439865D01*
X91375771Y-158572727D01*
X91520403Y-158677810D01*
X91520406Y-158677811D01*
X91520407Y-158677812D01*
X91538059Y-158685671D01*
X91683735Y-158750530D01*
X91858607Y-158787700D01*
X91858609Y-158787700D01*
X92037391Y-158787700D01*
X92037393Y-158787700D01*
X92212264Y-158750530D01*
X92212265Y-158750529D01*
X92212267Y-158750529D01*
X92375593Y-158677812D01*
X92520230Y-158572726D01*
X92639859Y-158439865D01*
X92729250Y-158285035D01*
X92784497Y-158115003D01*
X92803185Y-157937200D01*
X92784497Y-157759397D01*
X92734809Y-157606474D01*
X92729250Y-157589364D01*
X92639859Y-157434534D01*
X92629694Y-157423245D01*
X92603913Y-157378591D01*
X92598523Y-157327311D01*
X92614455Y-157278277D01*
X92678450Y-157167435D01*
X92733697Y-156997403D01*
X92752385Y-156819600D01*
X92733697Y-156641797D01*
X92678450Y-156471765D01*
X92678450Y-156471764D01*
X92589059Y-156316934D01*
X92491098Y-156208139D01*
X92469430Y-156184074D01*
X92469429Y-156184073D01*
X92469428Y-156184072D01*
X92324796Y-156078989D01*
X92161464Y-156006269D01*
X91986593Y-155969100D01*
X91986591Y-155969100D01*
X91807809Y-155969100D01*
X91807807Y-155969100D01*
X91632935Y-156006269D01*
X91469608Y-156078987D01*
X91324968Y-156184074D01*
X91205340Y-156316934D01*
X91115949Y-156471764D01*
X91060703Y-156641795D01*
X91042015Y-156819600D01*
X69877957Y-156819600D01*
X70008035Y-156633830D01*
X70107903Y-156419663D01*
X70169063Y-156191408D01*
X70189659Y-155956000D01*
X70169063Y-155720592D01*
X70107903Y-155492337D01*
X70008035Y-155278171D01*
X69931732Y-155169199D01*
X89848740Y-155169199D01*
X89868526Y-155357457D01*
X89927020Y-155537484D01*
X90021666Y-155701416D01*
X90148329Y-155842089D01*
X90301469Y-155953351D01*
X90474397Y-156030344D01*
X90659552Y-156069700D01*
X90659554Y-156069700D01*
X90848846Y-156069700D01*
X90848848Y-156069700D01*
X90972284Y-156043462D01*
X91034003Y-156030344D01*
X91206930Y-155953351D01*
X91302643Y-155883812D01*
X91360070Y-155842089D01*
X91360781Y-155841300D01*
X91486733Y-155701416D01*
X91581379Y-155537484D01*
X91639874Y-155357456D01*
X91659660Y-155169200D01*
X91639874Y-154980944D01*
X91581379Y-154800916D01*
X91581379Y-154800915D01*
X91486733Y-154636983D01*
X91360070Y-154496310D01*
X91206930Y-154385048D01*
X91034002Y-154308055D01*
X90848848Y-154268700D01*
X90848846Y-154268700D01*
X90659554Y-154268700D01*
X90659552Y-154268700D01*
X90474397Y-154308055D01*
X90301469Y-154385048D01*
X90148329Y-154496310D01*
X90021666Y-154636983D01*
X89927020Y-154800915D01*
X89868526Y-154980942D01*
X89848740Y-155169199D01*
X69931732Y-155169199D01*
X69872495Y-155084599D01*
X69705401Y-154917505D01*
X69519839Y-154787573D01*
X69480975Y-154743257D01*
X69466964Y-154686000D01*
X69480975Y-154628743D01*
X69519839Y-154584426D01*
X69705401Y-154454495D01*
X69872495Y-154287401D01*
X70008035Y-154093830D01*
X70087229Y-153923999D01*
X98177992Y-153923999D01*
X98197558Y-154097657D01*
X98255277Y-154262606D01*
X98348252Y-154410576D01*
X98471823Y-154534147D01*
X98619793Y-154627122D01*
X98784742Y-154684841D01*
X98958399Y-154704407D01*
X98958399Y-154704406D01*
X98958400Y-154704407D01*
X99132057Y-154684841D01*
X99297006Y-154627122D01*
X99297006Y-154627121D01*
X99350507Y-154593506D01*
X99416478Y-154574500D01*
X102886095Y-154574500D01*
X102907304Y-154576841D01*
X102909894Y-154576759D01*
X102909896Y-154576760D01*
X102979862Y-154574560D01*
X102983757Y-154574500D01*
X103012520Y-154574500D01*
X103012525Y-154574500D01*
X103016902Y-154573946D01*
X103028541Y-154573030D01*
X103074169Y-154571597D01*
X103094549Y-154565675D01*
X103113589Y-154561732D01*
X103134658Y-154559071D01*
X103177120Y-154542258D01*
X103188157Y-154538480D01*
X103231998Y-154525744D01*
X103250270Y-154514936D01*
X103267736Y-154506380D01*
X103287471Y-154498568D01*
X103287471Y-154498567D01*
X103302041Y-154492800D01*
X103302636Y-154494305D01*
X103333564Y-154481389D01*
X103390646Y-154485393D01*
X103439852Y-154514601D01*
X103470703Y-154562794D01*
X103487677Y-154611304D01*
X103580652Y-154759274D01*
X103704223Y-154882845D01*
X103852193Y-154975820D01*
X104017142Y-155033539D01*
X104190800Y-155053105D01*
X104364457Y-155033539D01*
X104529406Y-154975820D01*
X104677376Y-154882845D01*
X104800947Y-154759274D01*
X104893922Y-154611304D01*
X104950127Y-154450680D01*
X104979485Y-154403957D01*
X106066823Y-153316618D01*
X106107051Y-153289739D01*
X106154504Y-153280300D01*
X106163701Y-153280300D01*
X106183099Y-153281826D01*
X106204055Y-153285146D01*
X106249501Y-153280850D01*
X106261171Y-153280300D01*
X106719045Y-153280300D01*
X106740254Y-153282641D01*
X106742844Y-153282559D01*
X106742846Y-153282560D01*
X106812812Y-153280360D01*
X106816707Y-153280300D01*
X106845470Y-153280300D01*
X106845475Y-153280300D01*
X106849852Y-153279746D01*
X106861491Y-153278830D01*
X106907119Y-153277397D01*
X106927499Y-153271475D01*
X106946539Y-153267532D01*
X106967608Y-153264871D01*
X107010070Y-153248058D01*
X107021107Y-153244280D01*
X107064948Y-153231544D01*
X107083215Y-153220739D01*
X107100724Y-153212166D01*
X107102170Y-153211594D01*
X107147782Y-153202900D01*
X118532495Y-153202900D01*
X118553704Y-153205241D01*
X118556294Y-153205159D01*
X118556296Y-153205160D01*
X118626262Y-153202960D01*
X118630157Y-153202900D01*
X118658920Y-153202900D01*
X118658925Y-153202900D01*
X118663302Y-153202346D01*
X118674941Y-153201430D01*
X118720569Y-153199997D01*
X118740949Y-153194075D01*
X118759989Y-153190132D01*
X118781058Y-153187471D01*
X118823520Y-153170658D01*
X118834557Y-153166880D01*
X118878398Y-153154144D01*
X118896670Y-153143336D01*
X118914136Y-153134780D01*
X118933871Y-153126968D01*
X118970816Y-153100125D01*
X118980548Y-153093732D01*
X119019865Y-153070481D01*
X119034874Y-153055471D01*
X119049663Y-153042839D01*
X119066837Y-153030363D01*
X119095946Y-152995174D01*
X119103790Y-152986554D01*
X119982713Y-152107631D01*
X119999362Y-152094294D01*
X120001136Y-152092404D01*
X120001140Y-152092402D01*
X120049098Y-152041330D01*
X120051746Y-152038598D01*
X120072111Y-152018235D01*
X120074811Y-152014752D01*
X120082387Y-152005881D01*
X120113648Y-151972593D01*
X120123875Y-151953987D01*
X120134548Y-151937739D01*
X120147562Y-151920964D01*
X120165699Y-151879049D01*
X120170817Y-151868601D01*
X120192827Y-151828568D01*
X120198105Y-151808007D01*
X120204407Y-151789603D01*
X120212836Y-151770126D01*
X120219978Y-151725024D01*
X120222344Y-151713601D01*
X120233700Y-151669377D01*
X120233700Y-151648155D01*
X120235227Y-151628756D01*
X120237785Y-151612603D01*
X120238547Y-151607795D01*
X120234250Y-151562339D01*
X120233700Y-151550670D01*
X120233700Y-146015208D01*
X120243139Y-145967755D01*
X120270019Y-145927527D01*
X121391127Y-144806419D01*
X121431355Y-144779539D01*
X121478808Y-144770100D01*
X130497485Y-144770100D01*
X130561813Y-144788091D01*
X130607474Y-144836843D01*
X130621220Y-144902210D01*
X130599060Y-144965223D01*
X130491965Y-145118170D01*
X130392097Y-145332336D01*
X130330936Y-145560592D01*
X130310340Y-145796000D01*
X130330936Y-146031407D01*
X130363850Y-146154243D01*
X130392097Y-146259663D01*
X130491965Y-146473830D01*
X130627505Y-146667401D01*
X130794599Y-146834495D01*
X130980160Y-146964426D01*
X131019024Y-147008743D01*
X131033035Y-147066000D01*
X131019024Y-147123257D01*
X130980159Y-147167575D01*
X130949738Y-147188875D01*
X130860209Y-147251565D01*
X130794595Y-147297508D01*
X130627505Y-147464598D01*
X130491965Y-147658170D01*
X130392097Y-147872336D01*
X130330936Y-148100592D01*
X130310340Y-148336000D01*
X130330936Y-148571407D01*
X130346020Y-148627700D01*
X130392097Y-148799663D01*
X130491965Y-149013830D01*
X130627505Y-149207401D01*
X130794599Y-149374495D01*
X130980160Y-149504426D01*
X131019024Y-149548743D01*
X131033035Y-149606000D01*
X131019024Y-149663257D01*
X130980158Y-149707575D01*
X130831249Y-149811843D01*
X130794595Y-149837508D01*
X130627505Y-150004598D01*
X130491965Y-150198170D01*
X130392097Y-150412336D01*
X130330936Y-150640592D01*
X130310340Y-150875999D01*
X130330936Y-151111407D01*
X130372464Y-151266392D01*
X130392097Y-151339663D01*
X130491965Y-151553830D01*
X130627505Y-151747401D01*
X130794599Y-151914495D01*
X130980160Y-152044426D01*
X131019024Y-152088743D01*
X131033035Y-152146000D01*
X131019024Y-152203257D01*
X130980158Y-152247575D01*
X130853311Y-152336395D01*
X130794595Y-152377508D01*
X130627505Y-152544598D01*
X130491965Y-152738170D01*
X130392097Y-152952336D01*
X130330936Y-153180592D01*
X130310340Y-153415999D01*
X130330936Y-153651407D01*
X130368873Y-153792988D01*
X130392097Y-153879663D01*
X130491965Y-154093830D01*
X130627505Y-154287401D01*
X130794599Y-154454495D01*
X130980160Y-154584426D01*
X131019024Y-154628743D01*
X131033035Y-154686000D01*
X131019024Y-154743257D01*
X130980159Y-154787575D01*
X130794595Y-154917508D01*
X130627505Y-155084598D01*
X130491965Y-155278170D01*
X130392097Y-155492336D01*
X130330936Y-155720592D01*
X130310340Y-155956000D01*
X130330936Y-156191407D01*
X130364571Y-156316934D01*
X130392097Y-156419663D01*
X130491965Y-156633830D01*
X130627505Y-156827401D01*
X130627507Y-156827403D01*
X130627508Y-156827404D01*
X130749430Y-156949326D01*
X130780726Y-157002072D01*
X130782915Y-157063365D01*
X130755462Y-157118209D01*
X130705083Y-157153189D01*
X130573669Y-157202204D01*
X130458454Y-157288454D01*
X130372204Y-157403668D01*
X130321909Y-157538516D01*
X130315500Y-157598130D01*
X130315500Y-159393869D01*
X130321909Y-159453484D01*
X130334916Y-159488357D01*
X130372204Y-159588331D01*
X130458454Y-159703546D01*
X130573669Y-159789796D01*
X130708517Y-159840091D01*
X130768127Y-159846500D01*
X132563872Y-159846499D01*
X132623483Y-159840091D01*
X132758331Y-159789796D01*
X132873546Y-159703546D01*
X132959796Y-159588331D01*
X133010091Y-159453483D01*
X133016500Y-159393873D01*
X133016500Y-159105599D01*
X147379215Y-159105599D01*
X147397903Y-159283404D01*
X147453149Y-159453435D01*
X147542540Y-159608265D01*
X147662171Y-159741127D01*
X147806803Y-159846210D01*
X147806806Y-159846211D01*
X147806807Y-159846212D01*
X147915690Y-159894689D01*
X147970135Y-159918930D01*
X148145007Y-159956100D01*
X148145009Y-159956100D01*
X148323791Y-159956100D01*
X148323793Y-159956100D01*
X148498664Y-159918930D01*
X148498665Y-159918929D01*
X148498667Y-159918929D01*
X148661993Y-159846212D01*
X148806630Y-159741126D01*
X148926259Y-159608265D01*
X149015650Y-159453435D01*
X149070897Y-159283403D01*
X149089585Y-159105600D01*
X149070897Y-158927797D01*
X149015650Y-158757765D01*
X149015649Y-158757764D01*
X149015649Y-158757762D01*
X149002969Y-158735801D01*
X148986355Y-158673800D01*
X149002969Y-158611799D01*
X149015649Y-158589837D01*
X149015650Y-158589835D01*
X149070897Y-158419803D01*
X149089585Y-158242000D01*
X149070897Y-158064197D01*
X149023585Y-157918585D01*
X149015650Y-157894164D01*
X148926259Y-157739334D01*
X148806628Y-157606472D01*
X148661996Y-157501389D01*
X148498664Y-157428669D01*
X148323793Y-157391500D01*
X148323791Y-157391500D01*
X148145009Y-157391500D01*
X148145007Y-157391500D01*
X147970135Y-157428669D01*
X147806808Y-157501387D01*
X147662168Y-157606474D01*
X147542540Y-157739334D01*
X147453149Y-157894164D01*
X147397903Y-158064195D01*
X147379215Y-158242000D01*
X147397903Y-158419804D01*
X147453149Y-158589835D01*
X147465831Y-158611800D01*
X147482444Y-158673800D01*
X147465831Y-158735800D01*
X147453149Y-158757764D01*
X147397903Y-158927795D01*
X147379215Y-159105599D01*
X133016500Y-159105599D01*
X133016499Y-157598128D01*
X133010091Y-157538517D01*
X132959796Y-157403669D01*
X132873546Y-157288454D01*
X132758331Y-157202204D01*
X132696898Y-157179291D01*
X132626916Y-157153189D01*
X132576537Y-157118209D01*
X132549084Y-157063365D01*
X132551273Y-157002072D01*
X132582566Y-156949329D01*
X132704495Y-156827401D01*
X132840035Y-156633830D01*
X132939903Y-156419663D01*
X133001063Y-156191408D01*
X133021659Y-155956000D01*
X133001063Y-155720592D01*
X132939903Y-155492337D01*
X132840035Y-155278171D01*
X132704495Y-155084599D01*
X132537401Y-154917505D01*
X132351839Y-154787573D01*
X132312975Y-154743257D01*
X132298964Y-154686000D01*
X132312975Y-154628743D01*
X132351839Y-154584426D01*
X132424427Y-154533600D01*
X145347215Y-154533600D01*
X145351209Y-154571596D01*
X145365903Y-154711404D01*
X145421149Y-154881435D01*
X145510540Y-155036265D01*
X145630171Y-155169127D01*
X145774803Y-155274210D01*
X145774806Y-155274211D01*
X145774807Y-155274212D01*
X145879902Y-155321003D01*
X145938135Y-155346930D01*
X146117841Y-155385127D01*
X146175032Y-155414267D01*
X146209991Y-155468098D01*
X146233950Y-155541836D01*
X146323340Y-155696665D01*
X146442971Y-155829527D01*
X146587603Y-155934610D01*
X146587606Y-155934611D01*
X146587607Y-155934612D01*
X146635646Y-155956000D01*
X146750935Y-156007330D01*
X146925807Y-156044500D01*
X146925809Y-156044500D01*
X147104591Y-156044500D01*
X147104593Y-156044500D01*
X147279462Y-156007330D01*
X147279461Y-156007330D01*
X147279467Y-156007329D01*
X147442793Y-155934612D01*
X147470026Y-155914824D01*
X147529949Y-155891821D01*
X147593347Y-155901862D01*
X147716135Y-155956530D01*
X147891007Y-155993700D01*
X147891009Y-155993700D01*
X148069791Y-155993700D01*
X148069793Y-155993700D01*
X148244664Y-155956530D01*
X148244665Y-155956529D01*
X148244667Y-155956529D01*
X148407993Y-155883812D01*
X148552630Y-155778726D01*
X148672259Y-155645865D01*
X148761650Y-155491035D01*
X148778885Y-155437990D01*
X148810676Y-155387113D01*
X148862635Y-155357114D01*
X148922596Y-155355020D01*
X149059407Y-155384100D01*
X149059409Y-155384100D01*
X149238191Y-155384100D01*
X149238193Y-155384100D01*
X149413064Y-155346930D01*
X149413065Y-155346929D01*
X149413067Y-155346929D01*
X149576393Y-155274212D01*
X149721030Y-155169126D01*
X149840659Y-155036265D01*
X149930050Y-154881435D01*
X149985297Y-154711403D01*
X150003985Y-154533600D01*
X149985297Y-154355797D01*
X149947285Y-154238809D01*
X149930050Y-154185764D01*
X149840659Y-154030934D01*
X149721028Y-153898072D01*
X149576396Y-153792989D01*
X149413064Y-153720269D01*
X149238193Y-153683100D01*
X149238191Y-153683100D01*
X149059409Y-153683100D01*
X149059407Y-153683100D01*
X148884535Y-153720269D01*
X148721208Y-153792987D01*
X148576568Y-153898074D01*
X148456940Y-154030934D01*
X148367548Y-154185766D01*
X148350313Y-154238809D01*
X148318520Y-154289688D01*
X148266562Y-154319686D01*
X148206603Y-154321779D01*
X148069794Y-154292700D01*
X148069791Y-154292700D01*
X147891009Y-154292700D01*
X147891007Y-154292700D01*
X147716135Y-154329869D01*
X147552806Y-154402588D01*
X147525569Y-154422377D01*
X147465646Y-154445378D01*
X147402251Y-154435337D01*
X147279464Y-154380669D01*
X147099758Y-154342472D01*
X147042567Y-154313332D01*
X147007608Y-154259500D01*
X146983650Y-154185764D01*
X146894259Y-154030934D01*
X146774628Y-153898072D01*
X146629996Y-153792989D01*
X146466664Y-153720269D01*
X146291793Y-153683100D01*
X146291791Y-153683100D01*
X146113009Y-153683100D01*
X146113007Y-153683100D01*
X145938135Y-153720269D01*
X145774808Y-153792987D01*
X145630168Y-153898074D01*
X145510540Y-154030934D01*
X145421149Y-154185764D01*
X145365903Y-154355795D01*
X145347215Y-154533599D01*
X145347215Y-154533600D01*
X132424427Y-154533600D01*
X132537401Y-154454495D01*
X132704495Y-154287401D01*
X132840035Y-154093830D01*
X132939903Y-153879663D01*
X133001063Y-153651408D01*
X133021659Y-153416000D01*
X133001063Y-153180592D01*
X132939903Y-152952337D01*
X132840035Y-152738171D01*
X132704495Y-152544599D01*
X132537401Y-152377505D01*
X132351839Y-152247573D01*
X132312975Y-152203257D01*
X132298964Y-152146000D01*
X132312975Y-152088743D01*
X132351839Y-152044426D01*
X132537401Y-151914495D01*
X132704495Y-151747401D01*
X132840035Y-151553830D01*
X132848163Y-151536400D01*
X146082392Y-151536400D01*
X146101958Y-151710057D01*
X146159677Y-151875006D01*
X146252652Y-152022976D01*
X146376223Y-152146547D01*
X146524193Y-152239522D01*
X146689142Y-152297241D01*
X146862800Y-152316807D01*
X147036457Y-152297241D01*
X147201406Y-152239522D01*
X147349376Y-152146547D01*
X147472947Y-152022976D01*
X147565922Y-151875006D01*
X147623641Y-151710057D01*
X147643207Y-151536400D01*
X147637782Y-151488255D01*
X147623641Y-151362742D01*
X147565922Y-151197793D01*
X147472947Y-151049823D01*
X147349376Y-150926252D01*
X147201406Y-150833277D01*
X147036457Y-150775558D01*
X146862800Y-150755992D01*
X146689142Y-150775558D01*
X146524193Y-150833277D01*
X146376223Y-150926252D01*
X146252652Y-151049823D01*
X146159677Y-151197793D01*
X146101958Y-151362742D01*
X146082392Y-151536400D01*
X132848163Y-151536400D01*
X132939903Y-151339663D01*
X133001063Y-151111408D01*
X133021659Y-150876000D01*
X133001063Y-150640592D01*
X132939903Y-150412337D01*
X132840035Y-150198171D01*
X132704495Y-150004599D01*
X132537401Y-149837505D01*
X132351839Y-149707573D01*
X132312976Y-149663257D01*
X132298965Y-149606000D01*
X132312976Y-149548743D01*
X132351839Y-149504426D01*
X132537401Y-149374495D01*
X132704495Y-149207401D01*
X132840035Y-149013830D01*
X132939903Y-148799663D01*
X133001063Y-148571408D01*
X133021659Y-148336000D01*
X133008325Y-148183599D01*
X143416815Y-148183599D01*
X143435503Y-148361404D01*
X143490749Y-148531435D01*
X143580140Y-148686265D01*
X143699771Y-148819127D01*
X143844403Y-148924210D01*
X143844406Y-148924211D01*
X143844407Y-148924212D01*
X143948264Y-148970452D01*
X144007735Y-148996930D01*
X144182607Y-149034100D01*
X144182609Y-149034100D01*
X144361391Y-149034100D01*
X144361393Y-149034100D01*
X144536264Y-148996930D01*
X144536265Y-148996929D01*
X144536267Y-148996929D01*
X144699593Y-148924212D01*
X144844230Y-148819126D01*
X144963859Y-148686265D01*
X145053250Y-148531435D01*
X145108497Y-148361403D01*
X145127185Y-148183600D01*
X145108497Y-148005797D01*
X145060941Y-147859434D01*
X145053250Y-147835764D01*
X144963859Y-147680934D01*
X144890444Y-147599399D01*
X150605015Y-147599399D01*
X150623703Y-147777204D01*
X150678949Y-147947235D01*
X150768340Y-148102065D01*
X150887971Y-148234927D01*
X151032603Y-148340010D01*
X151032606Y-148340011D01*
X151032607Y-148340012D01*
X151141490Y-148388489D01*
X151195935Y-148412730D01*
X151370807Y-148449900D01*
X151370809Y-148449900D01*
X151549591Y-148449900D01*
X151549593Y-148449900D01*
X151724464Y-148412730D01*
X151724465Y-148412729D01*
X151724467Y-148412729D01*
X151887793Y-148340012D01*
X151893317Y-148335999D01*
X151978021Y-148274457D01*
X152032430Y-148234926D01*
X152152059Y-148102065D01*
X152241450Y-147947235D01*
X152296697Y-147777203D01*
X152315385Y-147599400D01*
X152296697Y-147421597D01*
X152253914Y-147289926D01*
X152241450Y-147251564D01*
X152152059Y-147096734D01*
X152032428Y-146963872D01*
X151887796Y-146858789D01*
X151724464Y-146786069D01*
X151549593Y-146748900D01*
X151549591Y-146748900D01*
X151370809Y-146748900D01*
X151370807Y-146748900D01*
X151195935Y-146786069D01*
X151032608Y-146858787D01*
X150887968Y-146963874D01*
X150768340Y-147096734D01*
X150678949Y-147251564D01*
X150623703Y-147421595D01*
X150605015Y-147599399D01*
X144890444Y-147599399D01*
X144844228Y-147548072D01*
X144699596Y-147442989D01*
X144536264Y-147370269D01*
X144361393Y-147333100D01*
X144361391Y-147333100D01*
X144182609Y-147333100D01*
X144182607Y-147333100D01*
X144007735Y-147370269D01*
X143844408Y-147442987D01*
X143699768Y-147548074D01*
X143580140Y-147680934D01*
X143490749Y-147835764D01*
X143435503Y-148005795D01*
X143416815Y-148183599D01*
X133008325Y-148183599D01*
X133001063Y-148100592D01*
X132939903Y-147872337D01*
X132840035Y-147658171D01*
X132704495Y-147464599D01*
X132537401Y-147297505D01*
X132351839Y-147167573D01*
X132312975Y-147123257D01*
X132298964Y-147066000D01*
X132312975Y-147008743D01*
X132351839Y-146964426D01*
X132537401Y-146834495D01*
X132704495Y-146667401D01*
X132840035Y-146473830D01*
X132939903Y-146259663D01*
X133001063Y-146031408D01*
X133021659Y-145796000D01*
X133001063Y-145560592D01*
X132939903Y-145332337D01*
X132840035Y-145118171D01*
X132732939Y-144965222D01*
X132710780Y-144902210D01*
X132724526Y-144836843D01*
X132770187Y-144788091D01*
X132834515Y-144770100D01*
X134839295Y-144770100D01*
X134860504Y-144772441D01*
X134863094Y-144772359D01*
X134863096Y-144772360D01*
X134933062Y-144770160D01*
X134936957Y-144770100D01*
X134965720Y-144770100D01*
X134965725Y-144770100D01*
X134970102Y-144769546D01*
X134981741Y-144768630D01*
X135027369Y-144767197D01*
X135047749Y-144761275D01*
X135066789Y-144757332D01*
X135087858Y-144754671D01*
X135130320Y-144737858D01*
X135141357Y-144734080D01*
X135185198Y-144721344D01*
X135203470Y-144710536D01*
X135220936Y-144701980D01*
X135240671Y-144694168D01*
X135277616Y-144667325D01*
X135287348Y-144660932D01*
X135326665Y-144637681D01*
X135341674Y-144622671D01*
X135356463Y-144610039D01*
X135373637Y-144597563D01*
X135402746Y-144562374D01*
X135410590Y-144553754D01*
X135819344Y-144145000D01*
X158032531Y-144145000D01*
X158052364Y-144371689D01*
X158111261Y-144591497D01*
X158207432Y-144797735D01*
X158337953Y-144984140D01*
X158498859Y-145145046D01*
X158685264Y-145275567D01*
X158685265Y-145275567D01*
X158685266Y-145275568D01*
X158891504Y-145371739D01*
X159111308Y-145430635D01*
X159196261Y-145438067D01*
X159281214Y-145445500D01*
X159281216Y-145445500D01*
X159394784Y-145445500D01*
X159394786Y-145445500D01*
X159462747Y-145439553D01*
X159564692Y-145430635D01*
X159784496Y-145371739D01*
X159990734Y-145275568D01*
X160177139Y-145145047D01*
X160338047Y-144984139D01*
X160468568Y-144797734D01*
X160564739Y-144591496D01*
X160623635Y-144371692D01*
X160643468Y-144145000D01*
X160623635Y-143918308D01*
X160564739Y-143698504D01*
X160468568Y-143492266D01*
X160460416Y-143480624D01*
X160338046Y-143305859D01*
X160177140Y-143144953D01*
X159990735Y-143014432D01*
X159784497Y-142918261D01*
X159564689Y-142859364D01*
X159394786Y-142844500D01*
X159394784Y-142844500D01*
X159281216Y-142844500D01*
X159281214Y-142844500D01*
X159111310Y-142859364D01*
X158891502Y-142918261D01*
X158685264Y-143014432D01*
X158498859Y-143144953D01*
X158337953Y-143305859D01*
X158207432Y-143492264D01*
X158111261Y-143698502D01*
X158052364Y-143918310D01*
X158032531Y-144145000D01*
X135819344Y-144145000D01*
X140186859Y-139777485D01*
X140233582Y-139748127D01*
X140394206Y-139691922D01*
X140542176Y-139598947D01*
X140665747Y-139475376D01*
X140758722Y-139327406D01*
X140816441Y-139162457D01*
X140836007Y-138988800D01*
X140816441Y-138815143D01*
X140816440Y-138815142D01*
X140816085Y-138811984D01*
X140827585Y-138744299D01*
X140873333Y-138693106D01*
X140939305Y-138674100D01*
X152670095Y-138674100D01*
X152691304Y-138676441D01*
X152693894Y-138676359D01*
X152693896Y-138676360D01*
X152763862Y-138674160D01*
X152767757Y-138674100D01*
X152796520Y-138674100D01*
X152796525Y-138674100D01*
X152800902Y-138673546D01*
X152812541Y-138672630D01*
X152858169Y-138671197D01*
X152878549Y-138665275D01*
X152897589Y-138661332D01*
X152918658Y-138658671D01*
X152961120Y-138641858D01*
X152972157Y-138638080D01*
X153015998Y-138625344D01*
X153034270Y-138614536D01*
X153051736Y-138605980D01*
X153071471Y-138598168D01*
X153108416Y-138571325D01*
X153118158Y-138564926D01*
X153157465Y-138541681D01*
X153172473Y-138526671D01*
X153187269Y-138514035D01*
X153204437Y-138501563D01*
X153233546Y-138466374D01*
X153241390Y-138457754D01*
X153917110Y-137782033D01*
X153933764Y-137768692D01*
X153935537Y-137766803D01*
X153935540Y-137766802D01*
X153983513Y-137715714D01*
X153986161Y-137712982D01*
X154006511Y-137692634D01*
X154009215Y-137689146D01*
X154016784Y-137680284D01*
X154048048Y-137646993D01*
X154058269Y-137628399D01*
X154068955Y-137612132D01*
X154081961Y-137595365D01*
X154081963Y-137595363D01*
X154100098Y-137553452D01*
X154105233Y-137542974D01*
X154127226Y-137502970D01*
X154130504Y-137490204D01*
X154132504Y-137482412D01*
X154138808Y-137463999D01*
X154147236Y-137444526D01*
X154154378Y-137399424D01*
X154156743Y-137388005D01*
X154168100Y-137343777D01*
X154168100Y-137322555D01*
X154169627Y-137303156D01*
X154172947Y-137282195D01*
X154168650Y-137236739D01*
X154168100Y-137225070D01*
X154168100Y-136893723D01*
X154182110Y-136836467D01*
X154220976Y-136792149D01*
X154337042Y-136710877D01*
X154389001Y-136674495D01*
X154556095Y-136507401D01*
X154686026Y-136321839D01*
X154730343Y-136282975D01*
X154787600Y-136268964D01*
X154844857Y-136282975D01*
X154889173Y-136321839D01*
X155019105Y-136507401D01*
X155186199Y-136674495D01*
X155379770Y-136810035D01*
X155593937Y-136909903D01*
X155822192Y-136971063D01*
X156057600Y-136991659D01*
X156293008Y-136971063D01*
X156521263Y-136909903D01*
X156735430Y-136810035D01*
X156929001Y-136674495D01*
X157096095Y-136507401D01*
X157226026Y-136321839D01*
X157270343Y-136282975D01*
X157327600Y-136268964D01*
X157384857Y-136282975D01*
X157429173Y-136321839D01*
X157559105Y-136507401D01*
X157726199Y-136674495D01*
X157919770Y-136810035D01*
X158133937Y-136909903D01*
X158362192Y-136971063D01*
X158597600Y-136991659D01*
X158833008Y-136971063D01*
X159061263Y-136909903D01*
X159275430Y-136810035D01*
X159469001Y-136674495D01*
X159636095Y-136507401D01*
X159771635Y-136313830D01*
X159871503Y-136099663D01*
X159932663Y-135871408D01*
X159953259Y-135636000D01*
X159948814Y-135585200D01*
X159932663Y-135400592D01*
X159907263Y-135305797D01*
X159871503Y-135172337D01*
X159771635Y-134958171D01*
X159636095Y-134764599D01*
X159469001Y-134597505D01*
X159275430Y-134461965D01*
X159061263Y-134362097D01*
X158991876Y-134343505D01*
X158833007Y-134300936D01*
X158597600Y-134280340D01*
X158362192Y-134300936D01*
X158133936Y-134362097D01*
X157919770Y-134461965D01*
X157726198Y-134597505D01*
X157559105Y-134764598D01*
X157429175Y-134950159D01*
X157384857Y-134989025D01*
X157327600Y-135003036D01*
X157270343Y-134989025D01*
X157226025Y-134950159D01*
X157159809Y-134855592D01*
X157096095Y-134764599D01*
X156929001Y-134597505D01*
X156735430Y-134461965D01*
X156521263Y-134362097D01*
X156451876Y-134343505D01*
X156293007Y-134300936D01*
X156057600Y-134280340D01*
X155822192Y-134300936D01*
X155593936Y-134362097D01*
X155379770Y-134461965D01*
X155186198Y-134597505D01*
X155019105Y-134764598D01*
X154889175Y-134950159D01*
X154844857Y-134989025D01*
X154787600Y-135003036D01*
X154730343Y-134989025D01*
X154686025Y-134950159D01*
X154619809Y-134855592D01*
X154556095Y-134764599D01*
X154389001Y-134597505D01*
X154195430Y-134461965D01*
X153981263Y-134362097D01*
X153911876Y-134343505D01*
X153753007Y-134300936D01*
X153517600Y-134280340D01*
X153282192Y-134300936D01*
X153053936Y-134362097D01*
X152839770Y-134461965D01*
X152646198Y-134597505D01*
X152479105Y-134764598D01*
X152349175Y-134950159D01*
X152304857Y-134989025D01*
X152247600Y-135003036D01*
X152190343Y-134989025D01*
X152146025Y-134950159D01*
X152079809Y-134855592D01*
X152016095Y-134764599D01*
X151849001Y-134597505D01*
X151655430Y-134461965D01*
X151441263Y-134362097D01*
X151371876Y-134343505D01*
X151213007Y-134300936D01*
X150977600Y-134280340D01*
X150742192Y-134300936D01*
X150513936Y-134362097D01*
X150299770Y-134461965D01*
X150106201Y-134597503D01*
X149984273Y-134719431D01*
X149931526Y-134750726D01*
X149870234Y-134752915D01*
X149815389Y-134725462D01*
X149780410Y-134675082D01*
X149765467Y-134635019D01*
X149731396Y-134543669D01*
X149645146Y-134428454D01*
X149529931Y-134342204D01*
X149395083Y-134291909D01*
X149335473Y-134285500D01*
X149335469Y-134285500D01*
X147539730Y-134285500D01*
X147480115Y-134291909D01*
X147345269Y-134342204D01*
X147230054Y-134428454D01*
X147143804Y-134543668D01*
X147093509Y-134678516D01*
X147087100Y-134738130D01*
X147087100Y-136533869D01*
X147093509Y-136593484D01*
X147104777Y-136623695D01*
X147143804Y-136728331D01*
X147230054Y-136843546D01*
X147345269Y-136929796D01*
X147480117Y-136980091D01*
X147539727Y-136986500D01*
X149335472Y-136986499D01*
X149395083Y-136980091D01*
X149529931Y-136929796D01*
X149645146Y-136843546D01*
X149731396Y-136728331D01*
X149780410Y-136596916D01*
X149815389Y-136546537D01*
X149870234Y-136519084D01*
X149931527Y-136521273D01*
X149984273Y-136552569D01*
X150106199Y-136674495D01*
X150299770Y-136810035D01*
X150513937Y-136909903D01*
X150742192Y-136971063D01*
X150977600Y-136991659D01*
X151213008Y-136971063D01*
X151441263Y-136909903D01*
X151655430Y-136810035D01*
X151849001Y-136674495D01*
X152016095Y-136507401D01*
X152146026Y-136321839D01*
X152190343Y-136282975D01*
X152247600Y-136268964D01*
X152304857Y-136282975D01*
X152349173Y-136321839D01*
X152455949Y-136474331D01*
X152479105Y-136507401D01*
X152646199Y-136674495D01*
X152814224Y-136792149D01*
X152853090Y-136836467D01*
X152867100Y-136893723D01*
X152867100Y-136940792D01*
X152857661Y-136988245D01*
X152830781Y-137028473D01*
X152522473Y-137336781D01*
X152482245Y-137363661D01*
X152434792Y-137373100D01*
X141420945Y-137373100D01*
X141365346Y-137359936D01*
X141321551Y-137323241D01*
X141298859Y-137270804D01*
X141302088Y-137213759D01*
X141330552Y-137164217D01*
X141337138Y-137157203D01*
X141337140Y-137157202D01*
X141385097Y-137106131D01*
X141387746Y-137103398D01*
X141408111Y-137083035D01*
X141410811Y-137079552D01*
X141418387Y-137070681D01*
X141449648Y-137037393D01*
X141459875Y-137018787D01*
X141470548Y-137002539D01*
X141483562Y-136985764D01*
X141501695Y-136943857D01*
X141506825Y-136933387D01*
X141528827Y-136893368D01*
X141534103Y-136872813D01*
X141540406Y-136854402D01*
X141548835Y-136834927D01*
X141548835Y-136834925D01*
X141555058Y-136820547D01*
X141555221Y-136820617D01*
X141565385Y-136793428D01*
X141599419Y-136757562D01*
X141790601Y-136623695D01*
X141957695Y-136456601D01*
X142093235Y-136263030D01*
X142193103Y-136048863D01*
X142254263Y-135820608D01*
X142274859Y-135585200D01*
X142254263Y-135349792D01*
X142193103Y-135121537D01*
X142093235Y-134907371D01*
X141957695Y-134713799D01*
X141790601Y-134546705D01*
X141597030Y-134411165D01*
X141382863Y-134311297D01*
X141310505Y-134291909D01*
X141154607Y-134250136D01*
X140919200Y-134229540D01*
X140683792Y-134250136D01*
X140455536Y-134311297D01*
X140241370Y-134411165D01*
X140047801Y-134546703D01*
X139925873Y-134668631D01*
X139873126Y-134699926D01*
X139811834Y-134702115D01*
X139756989Y-134674662D01*
X139722010Y-134624282D01*
X139709743Y-134591394D01*
X139672996Y-134492869D01*
X139586746Y-134377654D01*
X139471531Y-134291404D01*
X139336683Y-134241109D01*
X139277073Y-134234700D01*
X139277069Y-134234700D01*
X137481330Y-134234700D01*
X137421715Y-134241109D01*
X137286869Y-134291404D01*
X137171654Y-134377654D01*
X137085404Y-134492868D01*
X137035109Y-134627716D01*
X137034839Y-134630227D01*
X137029648Y-134678517D01*
X137028700Y-134687331D01*
X137028700Y-134858526D01*
X137014589Y-134915975D01*
X136975469Y-134960348D01*
X136920242Y-134981548D01*
X136861478Y-134974749D01*
X136812551Y-134941499D01*
X136728428Y-134848072D01*
X136583796Y-134742989D01*
X136420464Y-134670269D01*
X136245593Y-134633100D01*
X136245591Y-134633100D01*
X136066809Y-134633100D01*
X136066807Y-134633100D01*
X135891935Y-134670269D01*
X135728608Y-134742987D01*
X135583968Y-134848074D01*
X135464340Y-134980934D01*
X135374949Y-135135764D01*
X135319703Y-135305795D01*
X135301015Y-135483600D01*
X135319703Y-135661404D01*
X135374949Y-135831435D01*
X135464340Y-135986265D01*
X135583971Y-136119127D01*
X135728603Y-136224210D01*
X135728606Y-136224211D01*
X135728607Y-136224212D01*
X135815794Y-136263030D01*
X135891935Y-136296930D01*
X136066807Y-136334100D01*
X136066809Y-136334100D01*
X136245591Y-136334100D01*
X136245593Y-136334100D01*
X136420464Y-136296930D01*
X136420465Y-136296929D01*
X136420467Y-136296929D01*
X136583793Y-136224212D01*
X136728430Y-136119126D01*
X136812553Y-136025697D01*
X136861477Y-135992449D01*
X136920241Y-135985650D01*
X136975468Y-136006849D01*
X137014589Y-136051223D01*
X137028700Y-136108672D01*
X137028700Y-136483069D01*
X137035109Y-136542684D01*
X137055337Y-136596917D01*
X137085404Y-136677531D01*
X137171654Y-136792746D01*
X137286869Y-136878996D01*
X137421717Y-136929291D01*
X137481327Y-136935700D01*
X137485784Y-136935699D01*
X137542078Y-136949210D01*
X137586105Y-136986808D01*
X137608264Y-137040297D01*
X137603723Y-137098015D01*
X137573472Y-137147380D01*
X133828073Y-140892781D01*
X133787845Y-140919661D01*
X133740392Y-140929100D01*
X119871905Y-140929100D01*
X119850694Y-140926758D01*
X119778124Y-140929039D01*
X119774229Y-140929100D01*
X119745474Y-140929100D01*
X119741101Y-140929652D01*
X119729469Y-140930567D01*
X119683828Y-140932001D01*
X119663443Y-140937924D01*
X119644394Y-140941869D01*
X119623343Y-140944528D01*
X119580889Y-140961336D01*
X119569843Y-140965118D01*
X119525999Y-140977856D01*
X119507730Y-140988661D01*
X119490262Y-140997218D01*
X119478863Y-141001732D01*
X119470526Y-141005033D01*
X119433591Y-141031866D01*
X119423835Y-141038275D01*
X119384535Y-141061518D01*
X119369525Y-141076528D01*
X119354736Y-141089158D01*
X119337564Y-141101634D01*
X119308457Y-141136818D01*
X119300596Y-141145456D01*
X116491284Y-143954768D01*
X116474631Y-143968110D01*
X116424933Y-144021033D01*
X116422227Y-144023826D01*
X116401883Y-144044171D01*
X116399176Y-144047660D01*
X116391607Y-144056521D01*
X116360351Y-144089807D01*
X116350122Y-144108412D01*
X116339445Y-144124667D01*
X116326436Y-144141438D01*
X116308306Y-144183332D01*
X116303170Y-144193816D01*
X116281172Y-144233832D01*
X116275891Y-144254399D01*
X116269591Y-144272800D01*
X116261164Y-144292274D01*
X116254023Y-144337361D01*
X116251655Y-144348793D01*
X116245468Y-144372897D01*
X116240300Y-144393024D01*
X116240300Y-144414245D01*
X116238773Y-144433644D01*
X116236131Y-144450327D01*
X116235453Y-144454605D01*
X116238259Y-144484287D01*
X116239750Y-144500061D01*
X116240300Y-144511730D01*
X116240300Y-148929592D01*
X116230861Y-148977045D01*
X116203981Y-149017273D01*
X115387673Y-149833581D01*
X115347445Y-149860461D01*
X115299992Y-149869900D01*
X106460704Y-149869900D01*
X106439494Y-149867558D01*
X106366937Y-149869839D01*
X106363042Y-149869900D01*
X106334271Y-149869900D01*
X106329890Y-149870453D01*
X106318259Y-149871368D01*
X106272630Y-149872802D01*
X106252251Y-149878723D01*
X106233207Y-149882667D01*
X106218839Y-149884482D01*
X106212141Y-149885329D01*
X106169690Y-149902136D01*
X106158643Y-149905918D01*
X106114798Y-149918656D01*
X106096530Y-149929460D01*
X106079064Y-149938017D01*
X106059329Y-149945831D01*
X106022402Y-149972660D01*
X106012642Y-149979071D01*
X105973336Y-150002317D01*
X105958325Y-150017328D01*
X105943536Y-150029958D01*
X105926364Y-150042434D01*
X105897257Y-150077618D01*
X105889396Y-150086256D01*
X102738473Y-153237181D01*
X102698245Y-153264061D01*
X102650792Y-153273500D01*
X99416478Y-153273500D01*
X99350507Y-153254494D01*
X99297006Y-153220877D01*
X99132057Y-153163158D01*
X98958400Y-153143592D01*
X98784742Y-153163158D01*
X98619793Y-153220877D01*
X98471823Y-153313852D01*
X98348252Y-153437423D01*
X98255277Y-153585393D01*
X98197558Y-153750342D01*
X98177992Y-153923999D01*
X70087229Y-153923999D01*
X70107903Y-153879663D01*
X70169063Y-153651408D01*
X70189659Y-153416000D01*
X70169063Y-153180592D01*
X70107903Y-152952337D01*
X70008035Y-152738171D01*
X69872495Y-152544599D01*
X69705401Y-152377505D01*
X69519839Y-152247573D01*
X69480975Y-152203257D01*
X69466964Y-152146000D01*
X69480975Y-152088743D01*
X69519839Y-152044426D01*
X69705401Y-151914495D01*
X69868697Y-151751199D01*
X86171522Y-151751199D01*
X86190592Y-151969174D01*
X86247225Y-152180531D01*
X86283881Y-152259140D01*
X86339698Y-152378839D01*
X86465202Y-152558077D01*
X86619923Y-152712798D01*
X86799161Y-152838302D01*
X86997470Y-152930775D01*
X87208823Y-152987407D01*
X87426800Y-153006477D01*
X87644777Y-152987407D01*
X87856130Y-152930775D01*
X88054439Y-152838302D01*
X88233677Y-152712798D01*
X88388398Y-152558077D01*
X88513902Y-152378839D01*
X88606375Y-152180530D01*
X88663007Y-151969177D01*
X88682077Y-151751200D01*
X88663007Y-151533223D01*
X88606375Y-151321870D01*
X88513902Y-151123562D01*
X88388398Y-150944323D01*
X88233677Y-150789602D01*
X88054439Y-150664098D01*
X87918216Y-150600576D01*
X87856131Y-150571625D01*
X87644774Y-150514992D01*
X87426800Y-150495922D01*
X87208825Y-150514992D01*
X86997468Y-150571625D01*
X86799161Y-150664098D01*
X86619922Y-150789602D01*
X86465202Y-150944322D01*
X86339698Y-151123561D01*
X86247225Y-151321868D01*
X86190592Y-151533225D01*
X86171522Y-151751199D01*
X69868697Y-151751199D01*
X69872495Y-151747401D01*
X70008035Y-151553830D01*
X70107903Y-151339663D01*
X70169063Y-151111408D01*
X70189659Y-150876000D01*
X70169063Y-150640592D01*
X70107903Y-150412337D01*
X70008035Y-150198171D01*
X69872495Y-150004599D01*
X69705401Y-149837505D01*
X69519839Y-149707573D01*
X69480976Y-149663257D01*
X69466965Y-149606000D01*
X69480976Y-149548743D01*
X69519839Y-149504426D01*
X69705401Y-149374495D01*
X69872495Y-149207401D01*
X70008035Y-149013830D01*
X70107903Y-148799663D01*
X70169063Y-148571408D01*
X70189659Y-148336000D01*
X70169063Y-148100592D01*
X70107903Y-147872337D01*
X70008035Y-147658171D01*
X69872495Y-147464599D01*
X69750569Y-147342673D01*
X69719273Y-147289927D01*
X69717084Y-147228634D01*
X69744537Y-147173789D01*
X69794916Y-147138810D01*
X69926331Y-147089796D01*
X70041546Y-147003546D01*
X70127796Y-146888331D01*
X70134185Y-146871200D01*
X86171522Y-146871200D01*
X86190592Y-147089174D01*
X86247225Y-147300531D01*
X86279745Y-147370269D01*
X86339698Y-147498839D01*
X86465202Y-147678077D01*
X86619923Y-147832798D01*
X86799161Y-147958302D01*
X86997470Y-148050775D01*
X87208823Y-148107407D01*
X87426800Y-148126477D01*
X87644777Y-148107407D01*
X87856130Y-148050775D01*
X88054439Y-147958302D01*
X88233677Y-147832798D01*
X88388398Y-147678077D01*
X88513902Y-147498839D01*
X88606375Y-147300530D01*
X88663007Y-147089177D01*
X88682077Y-146871200D01*
X88663007Y-146653223D01*
X88606375Y-146441870D01*
X88513902Y-146243562D01*
X88388398Y-146064323D01*
X88233677Y-145909602D01*
X88054439Y-145784098D01*
X87963005Y-145741461D01*
X87856131Y-145691625D01*
X87644774Y-145634992D01*
X87426800Y-145615922D01*
X87208825Y-145634992D01*
X86997468Y-145691625D01*
X86799161Y-145784098D01*
X86619922Y-145909602D01*
X86465202Y-146064322D01*
X86339698Y-146243561D01*
X86247225Y-146441868D01*
X86190592Y-146653225D01*
X86171522Y-146871200D01*
X70134185Y-146871200D01*
X70178091Y-146753483D01*
X70184500Y-146693873D01*
X70184499Y-144898128D01*
X70178091Y-144838517D01*
X70127796Y-144703669D01*
X70041546Y-144588454D01*
X69926331Y-144502204D01*
X69791483Y-144451909D01*
X69731873Y-144445500D01*
X69731869Y-144445500D01*
X67936130Y-144445500D01*
X67876515Y-144451909D01*
X67741669Y-144502204D01*
X67626454Y-144588454D01*
X67540204Y-144703668D01*
X67489909Y-144838515D01*
X67489909Y-144838517D01*
X67485372Y-144880722D01*
X67483500Y-144898130D01*
X67483500Y-146693869D01*
X67489909Y-146753484D01*
X67505182Y-146794432D01*
X67540204Y-146888331D01*
X67626454Y-147003546D01*
X67741669Y-147089796D01*
X67831383Y-147123257D01*
X67873082Y-147138810D01*
X67923462Y-147173789D01*
X67950915Y-147228634D01*
X67948726Y-147289926D01*
X67917431Y-147342673D01*
X67795503Y-147464601D01*
X67659965Y-147658170D01*
X67560097Y-147872336D01*
X67498936Y-148100592D01*
X67478340Y-148336000D01*
X67498936Y-148571407D01*
X67514020Y-148627700D01*
X67560097Y-148799663D01*
X67659965Y-149013830D01*
X67795505Y-149207401D01*
X67962599Y-149374495D01*
X68148160Y-149504426D01*
X68187024Y-149548743D01*
X68201035Y-149606000D01*
X68187024Y-149663257D01*
X68148158Y-149707575D01*
X67999249Y-149811843D01*
X67962595Y-149837508D01*
X67795505Y-150004598D01*
X67659965Y-150198170D01*
X67560097Y-150412336D01*
X67498936Y-150640592D01*
X67478340Y-150876000D01*
X67498936Y-151111407D01*
X67540464Y-151266392D01*
X67560097Y-151339663D01*
X67659965Y-151553830D01*
X67795505Y-151747401D01*
X67962599Y-151914495D01*
X68148160Y-152044426D01*
X68187024Y-152088743D01*
X68201035Y-152146000D01*
X68187024Y-152203257D01*
X68148158Y-152247575D01*
X68021311Y-152336395D01*
X67962595Y-152377508D01*
X67795505Y-152544598D01*
X67659965Y-152738170D01*
X67560097Y-152952336D01*
X67498936Y-153180592D01*
X67478340Y-153416000D01*
X67498936Y-153651407D01*
X67536873Y-153792988D01*
X67560097Y-153879663D01*
X67659965Y-154093830D01*
X67795505Y-154287401D01*
X67962599Y-154454495D01*
X68148160Y-154584426D01*
X68187024Y-154628743D01*
X68201035Y-154686000D01*
X68187024Y-154743257D01*
X68148159Y-154787575D01*
X67962595Y-154917508D01*
X67795505Y-155084598D01*
X67659965Y-155278170D01*
X67560097Y-155492336D01*
X67498936Y-155720592D01*
X67478340Y-155955999D01*
X67498936Y-156191407D01*
X67532571Y-156316934D01*
X67560097Y-156419663D01*
X67659965Y-156633830D01*
X67795505Y-156827401D01*
X67962599Y-156994495D01*
X68148160Y-157124426D01*
X68187024Y-157168743D01*
X68201035Y-157226000D01*
X68187024Y-157283257D01*
X68148158Y-157327575D01*
X68003779Y-157428671D01*
X67962595Y-157457508D01*
X67795505Y-157624598D01*
X67659965Y-157818170D01*
X67560097Y-158032336D01*
X67498936Y-158260592D01*
X67478340Y-158496000D01*
X53184361Y-158496000D01*
X53177555Y-158470600D01*
X53194169Y-158408599D01*
X53206849Y-158386637D01*
X53215311Y-158360594D01*
X53262097Y-158216603D01*
X53280785Y-158038800D01*
X53262097Y-157860997D01*
X53227464Y-157754409D01*
X53206850Y-157690964D01*
X53117459Y-157536134D01*
X53000833Y-157406609D01*
X52997830Y-157403274D01*
X52997829Y-157403273D01*
X52997828Y-157403272D01*
X52853196Y-157298189D01*
X52689864Y-157225469D01*
X52514993Y-157188300D01*
X52514991Y-157188300D01*
X52336209Y-157188300D01*
X52336207Y-157188300D01*
X52161335Y-157225469D01*
X51998008Y-157298187D01*
X51853368Y-157403274D01*
X51733740Y-157536134D01*
X51644349Y-157690964D01*
X51589103Y-157860995D01*
X51570415Y-158038800D01*
X51589103Y-158216604D01*
X51644350Y-158386636D01*
X51657030Y-158408598D01*
X51673644Y-158470597D01*
X51657032Y-158532597D01*
X51644350Y-158554563D01*
X51589103Y-158724595D01*
X51570415Y-158902400D01*
X36672500Y-158902400D01*
X36672500Y-154432000D01*
X51011615Y-154432000D01*
X51030303Y-154609804D01*
X51085549Y-154779835D01*
X51174940Y-154934665D01*
X51294571Y-155067527D01*
X51439203Y-155172610D01*
X51602535Y-155245330D01*
X51719678Y-155270229D01*
X51766415Y-155280163D01*
X51813520Y-155301135D01*
X51848022Y-155339453D01*
X51936940Y-155493465D01*
X52056571Y-155626327D01*
X52201203Y-155731410D01*
X52364535Y-155804130D01*
X52539407Y-155841300D01*
X52539409Y-155841300D01*
X52718191Y-155841300D01*
X52718193Y-155841300D01*
X52893064Y-155804130D01*
X52893065Y-155804129D01*
X52893067Y-155804129D01*
X53056393Y-155731412D01*
X53165514Y-155652129D01*
X53212619Y-155631158D01*
X53264181Y-155631158D01*
X53311285Y-155652129D01*
X53405515Y-155720592D01*
X53420407Y-155731412D01*
X53583735Y-155804130D01*
X53758607Y-155841300D01*
X53758609Y-155841300D01*
X53937391Y-155841300D01*
X53937393Y-155841300D01*
X54112264Y-155804130D01*
X54112265Y-155804129D01*
X54112267Y-155804129D01*
X54275593Y-155731412D01*
X54420230Y-155626326D01*
X54539859Y-155493465D01*
X54629250Y-155338635D01*
X54629250Y-155338634D01*
X54634513Y-155329519D01*
X54669015Y-155291201D01*
X54716120Y-155270229D01*
X54767679Y-155270229D01*
X54825409Y-155282500D01*
X55004191Y-155282500D01*
X55004193Y-155282500D01*
X55179064Y-155245330D01*
X55179065Y-155245329D01*
X55179067Y-155245329D01*
X55342393Y-155172612D01*
X55487030Y-155067526D01*
X55606659Y-154934665D01*
X55696050Y-154779835D01*
X55751297Y-154609803D01*
X55769985Y-154432000D01*
X55751297Y-154254197D01*
X55718276Y-154152570D01*
X55696050Y-154084164D01*
X55606659Y-153929334D01*
X55487028Y-153796472D01*
X55342396Y-153691389D01*
X55179064Y-153618669D01*
X55004193Y-153581500D01*
X55004191Y-153581500D01*
X54825409Y-153581500D01*
X54825407Y-153581500D01*
X54650535Y-153618669D01*
X54487208Y-153691387D01*
X54342568Y-153796474D01*
X54222940Y-153929334D01*
X54128287Y-154093280D01*
X54093786Y-154131598D01*
X54046681Y-154152570D01*
X53995119Y-154152570D01*
X53937393Y-154140300D01*
X53937391Y-154140300D01*
X53758609Y-154140300D01*
X53758607Y-154140300D01*
X53583735Y-154177469D01*
X53420405Y-154250188D01*
X53311285Y-154329469D01*
X53264181Y-154350441D01*
X53212619Y-154350441D01*
X53165514Y-154329469D01*
X53056393Y-154250187D01*
X52893064Y-154177469D01*
X52729183Y-154142636D01*
X52682079Y-154121664D01*
X52647577Y-154083346D01*
X52558659Y-153929334D01*
X52439028Y-153796472D01*
X52294396Y-153691389D01*
X52131064Y-153618669D01*
X51956193Y-153581500D01*
X51956191Y-153581500D01*
X51777409Y-153581500D01*
X51777407Y-153581500D01*
X51602535Y-153618669D01*
X51439208Y-153691387D01*
X51294568Y-153796474D01*
X51174940Y-153929334D01*
X51085549Y-154084164D01*
X51030303Y-154254195D01*
X51011615Y-154432000D01*
X36672500Y-154432000D01*
X36672500Y-150723600D01*
X50984792Y-150723600D01*
X51004358Y-150897257D01*
X51062077Y-151062206D01*
X51155052Y-151210176D01*
X51278623Y-151333747D01*
X51426593Y-151426722D01*
X51587215Y-151482927D01*
X51633941Y-151512287D01*
X52362364Y-152240710D01*
X52375712Y-152257369D01*
X52428631Y-152307064D01*
X52431428Y-152309775D01*
X52451761Y-152330108D01*
X52455242Y-152332808D01*
X52464128Y-152340397D01*
X52497407Y-152371648D01*
X52516006Y-152381873D01*
X52532266Y-152392554D01*
X52549036Y-152405562D01*
X52568846Y-152414134D01*
X52590929Y-152423691D01*
X52601420Y-152428830D01*
X52641432Y-152450827D01*
X52661996Y-152456106D01*
X52680401Y-152462408D01*
X52699874Y-152470835D01*
X52744971Y-152477977D01*
X52756386Y-152480341D01*
X52800623Y-152491700D01*
X52821845Y-152491700D01*
X52841244Y-152493227D01*
X52843599Y-152493599D01*
X52862205Y-152496547D01*
X52904119Y-152492584D01*
X52907661Y-152492250D01*
X52919330Y-152491700D01*
X63770095Y-152491700D01*
X63791304Y-152494041D01*
X63793894Y-152493959D01*
X63793896Y-152493960D01*
X63863862Y-152491760D01*
X63867757Y-152491700D01*
X63896520Y-152491700D01*
X63896525Y-152491700D01*
X63900902Y-152491146D01*
X63912541Y-152490230D01*
X63958169Y-152488797D01*
X63978549Y-152482875D01*
X63997589Y-152478932D01*
X64018658Y-152476271D01*
X64061120Y-152459458D01*
X64072157Y-152455680D01*
X64115998Y-152442944D01*
X64134270Y-152432136D01*
X64151736Y-152423580D01*
X64171471Y-152415768D01*
X64208416Y-152388925D01*
X64218148Y-152382532D01*
X64257465Y-152359281D01*
X64272474Y-152344271D01*
X64287263Y-152331639D01*
X64304437Y-152319163D01*
X64333546Y-152283974D01*
X64341390Y-152275354D01*
X66134710Y-150482033D01*
X66151364Y-150468692D01*
X66153137Y-150466803D01*
X66153140Y-150466802D01*
X66201113Y-150415714D01*
X66203761Y-150412982D01*
X66224111Y-150392634D01*
X66226815Y-150389146D01*
X66234384Y-150380284D01*
X66265648Y-150346993D01*
X66275869Y-150328399D01*
X66286555Y-150312132D01*
X66299561Y-150295365D01*
X66299563Y-150295363D01*
X66317698Y-150253452D01*
X66322833Y-150242974D01*
X66344826Y-150202970D01*
X66346059Y-150198170D01*
X66350104Y-150182412D01*
X66356408Y-150163999D01*
X66364836Y-150144526D01*
X66371978Y-150099424D01*
X66374343Y-150088005D01*
X66385700Y-150043777D01*
X66385700Y-150022555D01*
X66387227Y-150003156D01*
X66388828Y-149993045D01*
X66390547Y-149982195D01*
X66386250Y-149936739D01*
X66385700Y-149925070D01*
X66385700Y-145695278D01*
X66404706Y-145629307D01*
X66438322Y-145575806D01*
X66496041Y-145410857D01*
X66515607Y-145237200D01*
X66496041Y-145063542D01*
X66438322Y-144898593D01*
X66345347Y-144750623D01*
X66221776Y-144627052D01*
X66073806Y-144534077D01*
X65908857Y-144476358D01*
X65735200Y-144456792D01*
X65561542Y-144476358D01*
X65396593Y-144534077D01*
X65248622Y-144627053D01*
X65237572Y-144638103D01*
X65184219Y-144669574D01*
X65122299Y-144671311D01*
X65067266Y-144642880D01*
X65032852Y-144591375D01*
X65015922Y-144542993D01*
X64922947Y-144395023D01*
X64799376Y-144271452D01*
X64651406Y-144178477D01*
X64486457Y-144120758D01*
X64312799Y-144101192D01*
X64170110Y-144117269D01*
X64115491Y-144111167D01*
X64068874Y-144082057D01*
X64039417Y-144035659D01*
X64032906Y-143981093D01*
X64050385Y-143814800D01*
X64031697Y-143636997D01*
X63990661Y-143510701D01*
X63976450Y-143466964D01*
X63971967Y-143459200D01*
X78162792Y-143459200D01*
X78182358Y-143632857D01*
X78240077Y-143797806D01*
X78333052Y-143945776D01*
X78456623Y-144069347D01*
X78604593Y-144162322D01*
X78769542Y-144220041D01*
X78943200Y-144239607D01*
X79116857Y-144220041D01*
X79221764Y-144183332D01*
X79267126Y-144167459D01*
X79308081Y-144160500D01*
X94526300Y-144160500D01*
X94588300Y-144177113D01*
X94633687Y-144222500D01*
X94650300Y-144284500D01*
X94650300Y-150079295D01*
X94647958Y-150100504D01*
X94650239Y-150173062D01*
X94650300Y-150176957D01*
X94650300Y-150205726D01*
X94650853Y-150210107D01*
X94651768Y-150221740D01*
X94653202Y-150267369D01*
X94659123Y-150287750D01*
X94663067Y-150306795D01*
X94665728Y-150327859D01*
X94682537Y-150370315D01*
X94686320Y-150381363D01*
X94699056Y-150425200D01*
X94709861Y-150443470D01*
X94718421Y-150460943D01*
X94726232Y-150480671D01*
X94737312Y-150495922D01*
X94753067Y-150517608D01*
X94759473Y-150527360D01*
X94782719Y-150566665D01*
X94782721Y-150566667D01*
X94797725Y-150581671D01*
X94810364Y-150596469D01*
X94822837Y-150613637D01*
X94858012Y-150642736D01*
X94866654Y-150650600D01*
X94996686Y-150780632D01*
X95025527Y-150825902D01*
X95032533Y-150879120D01*
X95016392Y-150930313D01*
X94925949Y-151086964D01*
X94870703Y-151256995D01*
X94852015Y-151434800D01*
X94870703Y-151612604D01*
X94925949Y-151782635D01*
X95015340Y-151937465D01*
X95134971Y-152070327D01*
X95279603Y-152175410D01*
X95279606Y-152175411D01*
X95279607Y-152175412D01*
X95291105Y-152180531D01*
X95442935Y-152248130D01*
X95617807Y-152285300D01*
X95617809Y-152285300D01*
X95796591Y-152285300D01*
X95796593Y-152285300D01*
X95971464Y-152248130D01*
X95971465Y-152248129D01*
X95971467Y-152248129D01*
X96134793Y-152175412D01*
X96228078Y-152107636D01*
X96269679Y-152077411D01*
X96332373Y-152054148D01*
X96398032Y-152066825D01*
X96447559Y-152111757D01*
X96519452Y-152226176D01*
X96643023Y-152349747D01*
X96790993Y-152442722D01*
X96955942Y-152500441D01*
X97129600Y-152520007D01*
X97303257Y-152500441D01*
X97468206Y-152442722D01*
X97616176Y-152349747D01*
X97739747Y-152226176D01*
X97832722Y-152078206D01*
X97890441Y-151913257D01*
X97910007Y-151739600D01*
X97895157Y-151607796D01*
X97890441Y-151565942D01*
X97863257Y-151488255D01*
X97857516Y-151429966D01*
X97879168Y-151375545D01*
X97923384Y-151337133D01*
X97980298Y-151323300D01*
X100244495Y-151323300D01*
X100265704Y-151325641D01*
X100268294Y-151325559D01*
X100268296Y-151325560D01*
X100338262Y-151323360D01*
X100342157Y-151323300D01*
X100370920Y-151323300D01*
X100370925Y-151323300D01*
X100375302Y-151322746D01*
X100386941Y-151321830D01*
X100432569Y-151320397D01*
X100452949Y-151314475D01*
X100471989Y-151310532D01*
X100493058Y-151307871D01*
X100535520Y-151291058D01*
X100546557Y-151287280D01*
X100590398Y-151274544D01*
X100608670Y-151263736D01*
X100626136Y-151255180D01*
X100645871Y-151247368D01*
X100682816Y-151220525D01*
X100692548Y-151214132D01*
X100731865Y-151190881D01*
X100746874Y-151175871D01*
X100761663Y-151163239D01*
X100778837Y-151150763D01*
X100807946Y-151115574D01*
X100815790Y-151106954D01*
X101020059Y-150902685D01*
X101066782Y-150873327D01*
X101227406Y-150817122D01*
X101375376Y-150724147D01*
X101498947Y-150600576D01*
X101591922Y-150452606D01*
X101649641Y-150287657D01*
X101669207Y-150114000D01*
X101661144Y-150042434D01*
X101649641Y-149940342D01*
X101591922Y-149775393D01*
X101498947Y-149627423D01*
X101375376Y-149503852D01*
X101227406Y-149410877D01*
X101062456Y-149353158D01*
X100964739Y-149342148D01*
X100901310Y-149315875D01*
X100861582Y-149259883D01*
X100855323Y-149241996D01*
X100844988Y-149225548D01*
X100778585Y-149119867D01*
X100759580Y-149053897D01*
X100778586Y-148987925D01*
X100829779Y-148942177D01*
X100897463Y-148930677D01*
X101056600Y-148948607D01*
X101230257Y-148929041D01*
X101395206Y-148871322D01*
X101543176Y-148778347D01*
X101666747Y-148654776D01*
X101719131Y-148571407D01*
X101759722Y-148506806D01*
X101814453Y-148350394D01*
X101843807Y-148303678D01*
X102091670Y-148055816D01*
X102131896Y-148028939D01*
X102179349Y-148019500D01*
X106951895Y-148019500D01*
X106973104Y-148021841D01*
X106975694Y-148021759D01*
X106975696Y-148021760D01*
X107045662Y-148019560D01*
X107049557Y-148019500D01*
X107078320Y-148019500D01*
X107078325Y-148019500D01*
X107082702Y-148018946D01*
X107094341Y-148018030D01*
X107139969Y-148016597D01*
X107160349Y-148010675D01*
X107179389Y-148006732D01*
X107200458Y-148004071D01*
X107242920Y-147987258D01*
X107253957Y-147983480D01*
X107297798Y-147970744D01*
X107316070Y-147959936D01*
X107333536Y-147951380D01*
X107353271Y-147943568D01*
X107390216Y-147916725D01*
X107399948Y-147910332D01*
X107439265Y-147887081D01*
X107454274Y-147872071D01*
X107469063Y-147859439D01*
X107486237Y-147846963D01*
X107515346Y-147811774D01*
X107523190Y-147803154D01*
X109009913Y-146316431D01*
X109026562Y-146303094D01*
X109028336Y-146301204D01*
X109028340Y-146301202D01*
X109076298Y-146250130D01*
X109078946Y-146247398D01*
X109099311Y-146227035D01*
X109102011Y-146223552D01*
X109109587Y-146214681D01*
X109140848Y-146181393D01*
X109151075Y-146162787D01*
X109161748Y-146146539D01*
X109174762Y-146129764D01*
X109192899Y-146087849D01*
X109198017Y-146077401D01*
X109220027Y-146037368D01*
X109225305Y-146016807D01*
X109231607Y-145998403D01*
X109240036Y-145978926D01*
X109247178Y-145933824D01*
X109249544Y-145922401D01*
X109260900Y-145878177D01*
X109260900Y-145856955D01*
X109262427Y-145837556D01*
X109264356Y-145825376D01*
X109265747Y-145816595D01*
X109261450Y-145771139D01*
X109260900Y-145759470D01*
X109260900Y-144686267D01*
X109278097Y-144623266D01*
X109324919Y-144577739D01*
X109388377Y-144562316D01*
X109450871Y-144581273D01*
X109592593Y-144670322D01*
X109757542Y-144728041D01*
X109931200Y-144747607D01*
X110104857Y-144728041D01*
X110269806Y-144670322D01*
X110417776Y-144577347D01*
X110541347Y-144453776D01*
X110592166Y-144372896D01*
X110637177Y-144330342D01*
X110697158Y-144314869D01*
X110757140Y-144330341D01*
X110802153Y-144372897D01*
X110821054Y-144402978D01*
X110944623Y-144526547D01*
X111092593Y-144619522D01*
X111257542Y-144677241D01*
X111431200Y-144696807D01*
X111604857Y-144677241D01*
X111769806Y-144619522D01*
X111917776Y-144526547D01*
X112041347Y-144402976D01*
X112134322Y-144255006D01*
X112192041Y-144090057D01*
X112211607Y-143916400D01*
X112192041Y-143742743D01*
X112176560Y-143698502D01*
X112134322Y-143577793D01*
X112041347Y-143429823D01*
X111917776Y-143306252D01*
X111769806Y-143213277D01*
X111604857Y-143155558D01*
X111431200Y-143135992D01*
X111257542Y-143155558D01*
X111092593Y-143213277D01*
X110944623Y-143306252D01*
X110821054Y-143429821D01*
X110770234Y-143510702D01*
X110725221Y-143553258D01*
X110665240Y-143568730D01*
X110605258Y-143553257D01*
X110560246Y-143510701D01*
X110541347Y-143480623D01*
X110417776Y-143357052D01*
X110269806Y-143264077D01*
X110104857Y-143206358D01*
X109931200Y-143186792D01*
X109757542Y-143206358D01*
X109592593Y-143264077D01*
X109450871Y-143353127D01*
X109388377Y-143372084D01*
X109324919Y-143356661D01*
X109278097Y-143311134D01*
X109260900Y-143248133D01*
X109260900Y-140173208D01*
X109270339Y-140125755D01*
X109297219Y-140085527D01*
X111281927Y-138100819D01*
X111322155Y-138073939D01*
X111369608Y-138064500D01*
X112317922Y-138064500D01*
X112383893Y-138083506D01*
X112437393Y-138117122D01*
X112602342Y-138174841D01*
X112776000Y-138194407D01*
X112939370Y-138176000D01*
X124170531Y-138176000D01*
X124190364Y-138402689D01*
X124249261Y-138622497D01*
X124345432Y-138828735D01*
X124475953Y-139015140D01*
X124636859Y-139176046D01*
X124823264Y-139306567D01*
X124823265Y-139306567D01*
X124823266Y-139306568D01*
X125029504Y-139402739D01*
X125249308Y-139461635D01*
X125334261Y-139469067D01*
X125419214Y-139476500D01*
X125419216Y-139476500D01*
X125532784Y-139476500D01*
X125532786Y-139476500D01*
X125600747Y-139470553D01*
X125702692Y-139461635D01*
X125922496Y-139402739D01*
X126128734Y-139306568D01*
X126315139Y-139176047D01*
X126476047Y-139015139D01*
X126606568Y-138828734D01*
X126702739Y-138622496D01*
X126761635Y-138402692D01*
X126781468Y-138176000D01*
X126761635Y-137949308D01*
X126702739Y-137729504D01*
X126606568Y-137523266D01*
X126592355Y-137502968D01*
X126476046Y-137336859D01*
X126315140Y-137175953D01*
X126128735Y-137045432D01*
X125922497Y-136949261D01*
X125702689Y-136890364D01*
X125532786Y-136875500D01*
X125532784Y-136875500D01*
X125419216Y-136875500D01*
X125419214Y-136875500D01*
X125249310Y-136890364D01*
X125029502Y-136949261D01*
X124823264Y-137045432D01*
X124636859Y-137175953D01*
X124475953Y-137336859D01*
X124345432Y-137523264D01*
X124249261Y-137729502D01*
X124190364Y-137949310D01*
X124170531Y-138176000D01*
X112939370Y-138176000D01*
X112949657Y-138174841D01*
X113114606Y-138117122D01*
X113262576Y-138024147D01*
X113386147Y-137900576D01*
X113479122Y-137752606D01*
X113536841Y-137587657D01*
X113556407Y-137414000D01*
X113547715Y-137336859D01*
X113536841Y-137240342D01*
X113479122Y-137075393D01*
X113386147Y-136927423D01*
X113262576Y-136803852D01*
X113114606Y-136710877D01*
X112949657Y-136653158D01*
X112776000Y-136633592D01*
X112602342Y-136653158D01*
X112437393Y-136710877D01*
X112383893Y-136744494D01*
X112317922Y-136763500D01*
X111134304Y-136763500D01*
X111113094Y-136761158D01*
X111040537Y-136763439D01*
X111036642Y-136763500D01*
X111007871Y-136763500D01*
X111003490Y-136764053D01*
X110991859Y-136764968D01*
X110946230Y-136766402D01*
X110925851Y-136772323D01*
X110906807Y-136776267D01*
X110892439Y-136778082D01*
X110885741Y-136778929D01*
X110843290Y-136795736D01*
X110832243Y-136799518D01*
X110788398Y-136812256D01*
X110770130Y-136823060D01*
X110752664Y-136831617D01*
X110732929Y-136839431D01*
X110696002Y-136866260D01*
X110686242Y-136872671D01*
X110646936Y-136895917D01*
X110631925Y-136910928D01*
X110617136Y-136923558D01*
X110599964Y-136936034D01*
X110570857Y-136971218D01*
X110562996Y-136979856D01*
X108210884Y-139331968D01*
X108194231Y-139345310D01*
X108144533Y-139398233D01*
X108141827Y-139401026D01*
X108121483Y-139421371D01*
X108118776Y-139424860D01*
X108111207Y-139433721D01*
X108079951Y-139467007D01*
X108069722Y-139485612D01*
X108059045Y-139501867D01*
X108046036Y-139518638D01*
X108027906Y-139560532D01*
X108022770Y-139571016D01*
X108000772Y-139611032D01*
X107995491Y-139631599D01*
X107989191Y-139650000D01*
X107980764Y-139669474D01*
X107973623Y-139714561D01*
X107971255Y-139725993D01*
X107965185Y-139749641D01*
X107959900Y-139770224D01*
X107959900Y-139791445D01*
X107958373Y-139810844D01*
X107955053Y-139831803D01*
X107959350Y-139877261D01*
X107959900Y-139888930D01*
X107959900Y-145475192D01*
X107950461Y-145522645D01*
X107923581Y-145562873D01*
X106804273Y-146682181D01*
X106764045Y-146709061D01*
X106716592Y-146718500D01*
X101944045Y-146718500D01*
X101922835Y-146716158D01*
X101850278Y-146718439D01*
X101846383Y-146718500D01*
X101817612Y-146718500D01*
X101813231Y-146719053D01*
X101801600Y-146719968D01*
X101755971Y-146721402D01*
X101735592Y-146727323D01*
X101716548Y-146731267D01*
X101702180Y-146733082D01*
X101695482Y-146733929D01*
X101653031Y-146750736D01*
X101641984Y-146754518D01*
X101598139Y-146767256D01*
X101579871Y-146778060D01*
X101562405Y-146786617D01*
X101542670Y-146794431D01*
X101505743Y-146821260D01*
X101495983Y-146827671D01*
X101456677Y-146850917D01*
X101441666Y-146865928D01*
X101426877Y-146878558D01*
X101409705Y-146891034D01*
X101380598Y-146926218D01*
X101372737Y-146934856D01*
X100929556Y-147378037D01*
X100882831Y-147407397D01*
X100717992Y-147465078D01*
X100570023Y-147558052D01*
X100446452Y-147681623D01*
X100353477Y-147829593D01*
X100295758Y-147994542D01*
X100276192Y-148168200D01*
X100295758Y-148341857D01*
X100353477Y-148506806D01*
X100430213Y-148628931D01*
X100449219Y-148694902D01*
X100430213Y-148760874D01*
X100379021Y-148806622D01*
X100311336Y-148818122D01*
X100152200Y-148800192D01*
X99978542Y-148819758D01*
X99813593Y-148877477D01*
X99665623Y-148970452D01*
X99542054Y-149094021D01*
X99505956Y-149151472D01*
X99460943Y-149194028D01*
X99400962Y-149209500D01*
X97091300Y-149209500D01*
X97029300Y-149192887D01*
X96983913Y-149147500D01*
X96967300Y-149085500D01*
X96967300Y-148100800D01*
X97739592Y-148100800D01*
X97759158Y-148274457D01*
X97816877Y-148439406D01*
X97909852Y-148587376D01*
X98033423Y-148710947D01*
X98181393Y-148803922D01*
X98346342Y-148861641D01*
X98520000Y-148881207D01*
X98693657Y-148861641D01*
X98858606Y-148803922D01*
X99006576Y-148710947D01*
X99130147Y-148587376D01*
X99223122Y-148439406D01*
X99280841Y-148274457D01*
X99300407Y-148100800D01*
X99283977Y-147954972D01*
X99280841Y-147927142D01*
X99223122Y-147762193D01*
X99130147Y-147614223D01*
X99006576Y-147490652D01*
X98858606Y-147397677D01*
X98693657Y-147339958D01*
X98520000Y-147320392D01*
X98346342Y-147339958D01*
X98181393Y-147397677D01*
X98033423Y-147490652D01*
X97909852Y-147614223D01*
X97816877Y-147762193D01*
X97759158Y-147927142D01*
X97739592Y-148100800D01*
X96967300Y-148100800D01*
X96967300Y-143595505D01*
X96969641Y-143574295D01*
X96969466Y-143568730D01*
X96967360Y-143501737D01*
X96967300Y-143497843D01*
X96967300Y-143469081D01*
X96967300Y-143469075D01*
X96966746Y-143464695D01*
X96965830Y-143453054D01*
X96964397Y-143407431D01*
X96958475Y-143387048D01*
X96954532Y-143368011D01*
X96951871Y-143346942D01*
X96935063Y-143304491D01*
X96931280Y-143293442D01*
X96918544Y-143249602D01*
X96907737Y-143231329D01*
X96899182Y-143213866D01*
X96891368Y-143194129D01*
X96864533Y-143157193D01*
X96858125Y-143147436D01*
X96834884Y-143108138D01*
X96834881Y-143108135D01*
X96819868Y-143093122D01*
X96807235Y-143078330D01*
X96794763Y-143061163D01*
X96759579Y-143032056D01*
X96750940Y-143024194D01*
X95770434Y-142043688D01*
X95757091Y-142027033D01*
X95704166Y-141977334D01*
X95701369Y-141974623D01*
X95681034Y-141954288D01*
X95677547Y-141951583D01*
X95668671Y-141944001D01*
X95635394Y-141912752D01*
X95616793Y-141902526D01*
X95600532Y-141891845D01*
X95583764Y-141878838D01*
X95541870Y-141860708D01*
X95531379Y-141855569D01*
X95491367Y-141833572D01*
X95470800Y-141828291D01*
X95452398Y-141821991D01*
X95432924Y-141813564D01*
X95387837Y-141806423D01*
X95376398Y-141804054D01*
X95332178Y-141792700D01*
X95332177Y-141792700D01*
X95310955Y-141792700D01*
X95291556Y-141791173D01*
X95270596Y-141787853D01*
X95270595Y-141787853D01*
X95248558Y-141789936D01*
X95225139Y-141792150D01*
X95213470Y-141792700D01*
X91707354Y-141792700D01*
X91649140Y-141778186D01*
X91604553Y-141738040D01*
X91584033Y-141681662D01*
X91583984Y-141681202D01*
X91583985Y-141681200D01*
X91565297Y-141503397D01*
X91510050Y-141333365D01*
X91510050Y-141333364D01*
X91420659Y-141178534D01*
X91301028Y-141045672D01*
X91156396Y-140940589D01*
X90993064Y-140867869D01*
X90818193Y-140830700D01*
X90818191Y-140830700D01*
X90639409Y-140830700D01*
X90639407Y-140830700D01*
X90464535Y-140867869D01*
X90301208Y-140940587D01*
X90156568Y-141045674D01*
X90036940Y-141178534D01*
X89947549Y-141333364D01*
X89892303Y-141503395D01*
X89892302Y-141503397D01*
X89892303Y-141503397D01*
X89873615Y-141681200D01*
X89873615Y-141681202D01*
X89873567Y-141681662D01*
X89853047Y-141738040D01*
X89808460Y-141778186D01*
X89750246Y-141792700D01*
X79502878Y-141792700D01*
X79436907Y-141773694D01*
X79383406Y-141740077D01*
X79218457Y-141682358D01*
X79044800Y-141662792D01*
X78871142Y-141682358D01*
X78706193Y-141740077D01*
X78558223Y-141833052D01*
X78434652Y-141956623D01*
X78341677Y-142104593D01*
X78283958Y-142269542D01*
X78264392Y-142443199D01*
X78283958Y-142616857D01*
X78341676Y-142781803D01*
X78359372Y-142809966D01*
X78377597Y-142862053D01*
X78371419Y-142916890D01*
X78342061Y-142963616D01*
X78333053Y-142972624D01*
X78240076Y-143120596D01*
X78182358Y-143285542D01*
X78162792Y-143459200D01*
X63971967Y-143459200D01*
X63887059Y-143312134D01*
X63789098Y-143203339D01*
X63767430Y-143179274D01*
X63767429Y-143179273D01*
X63767428Y-143179272D01*
X63622796Y-143074189D01*
X63459464Y-143001469D01*
X63284593Y-142964300D01*
X63284591Y-142964300D01*
X63105809Y-142964300D01*
X63105807Y-142964300D01*
X62930935Y-143001469D01*
X62767608Y-143074187D01*
X62622968Y-143179274D01*
X62503340Y-143312134D01*
X62413949Y-143466964D01*
X62358703Y-143636995D01*
X62340015Y-143814799D01*
X62358703Y-143992604D01*
X62413949Y-144162635D01*
X62503340Y-144317465D01*
X62622971Y-144450327D01*
X62767603Y-144555410D01*
X62767606Y-144555411D01*
X62767607Y-144555412D01*
X62848656Y-144591497D01*
X62930935Y-144628130D01*
X63105807Y-144665300D01*
X63105809Y-144665300D01*
X63284591Y-144665300D01*
X63284593Y-144665300D01*
X63395180Y-144641794D01*
X63453278Y-144643369D01*
X63504277Y-144671245D01*
X63536972Y-144719296D01*
X63544181Y-144776967D01*
X63532392Y-144881599D01*
X63551958Y-145055257D01*
X63609677Y-145220206D01*
X63643294Y-145273707D01*
X63662300Y-145339678D01*
X63662300Y-149132792D01*
X63652861Y-149180245D01*
X63625981Y-149220473D01*
X62606473Y-150239981D01*
X62566245Y-150266861D01*
X62518792Y-150276300D01*
X55783598Y-150276300D01*
X55723617Y-150260828D01*
X55678604Y-150218272D01*
X55626546Y-150135422D01*
X55502976Y-150011852D01*
X55355006Y-149918877D01*
X55190057Y-149861158D01*
X55016400Y-149841592D01*
X54842742Y-149861158D01*
X54677793Y-149918877D01*
X54529823Y-150011852D01*
X54406252Y-150135423D01*
X54313277Y-150283393D01*
X54255558Y-150448342D01*
X54235992Y-150622000D01*
X54255558Y-150795657D01*
X54313277Y-150960606D01*
X54338488Y-151000729D01*
X54357445Y-151063223D01*
X54342021Y-151126682D01*
X54296495Y-151173503D01*
X54233494Y-151190700D01*
X54142184Y-151190700D01*
X54084243Y-151176330D01*
X54039730Y-151136552D01*
X54018964Y-151080584D01*
X53999241Y-150905543D01*
X53941522Y-150740593D01*
X53848547Y-150592623D01*
X53724976Y-150469052D01*
X53577006Y-150376077D01*
X53412057Y-150318358D01*
X53238400Y-150298792D01*
X53064742Y-150318358D01*
X52899793Y-150376077D01*
X52751823Y-150469052D01*
X52703141Y-150517734D01*
X52649788Y-150549206D01*
X52587868Y-150550943D01*
X52532834Y-150522512D01*
X52498420Y-150471007D01*
X52468322Y-150384993D01*
X52375347Y-150237023D01*
X52251776Y-150113452D01*
X52103806Y-150020477D01*
X51938857Y-149962758D01*
X51765200Y-149943192D01*
X51591542Y-149962758D01*
X51426593Y-150020477D01*
X51278623Y-150113452D01*
X51155052Y-150237023D01*
X51062077Y-150384993D01*
X51004358Y-150549942D01*
X50984792Y-150723600D01*
X36672500Y-150723600D01*
X36672500Y-147777200D01*
X49284415Y-147777200D01*
X49303103Y-147955004D01*
X49358349Y-148125035D01*
X49447740Y-148279865D01*
X49567371Y-148412727D01*
X49712003Y-148517810D01*
X49875335Y-148590530D01*
X50050207Y-148627700D01*
X50050209Y-148627700D01*
X50228991Y-148627700D01*
X50228993Y-148627700D01*
X50403864Y-148590530D01*
X50403865Y-148590529D01*
X50403867Y-148590529D01*
X50567193Y-148517812D01*
X50711830Y-148412726D01*
X50831459Y-148279865D01*
X50920850Y-148125035D01*
X50976097Y-147955003D01*
X50994785Y-147777200D01*
X56447215Y-147777200D01*
X56465903Y-147955004D01*
X56521149Y-148125035D01*
X56610540Y-148279865D01*
X56730171Y-148412727D01*
X56874803Y-148517810D01*
X57038135Y-148590530D01*
X57213007Y-148627700D01*
X57213009Y-148627700D01*
X57391791Y-148627700D01*
X57391793Y-148627700D01*
X57566664Y-148590530D01*
X57566665Y-148590529D01*
X57566667Y-148590529D01*
X57729993Y-148517812D01*
X57874630Y-148412726D01*
X57994259Y-148279865D01*
X58083650Y-148125035D01*
X58138897Y-147955003D01*
X58157585Y-147777200D01*
X58138897Y-147599397D01*
X58103564Y-147490653D01*
X58083650Y-147429364D01*
X57994259Y-147274534D01*
X57874628Y-147141672D01*
X57729996Y-147036589D01*
X57566664Y-146963869D01*
X57391793Y-146926700D01*
X57391791Y-146926700D01*
X57213009Y-146926700D01*
X57213007Y-146926700D01*
X57038135Y-146963869D01*
X56874808Y-147036587D01*
X56730168Y-147141674D01*
X56610540Y-147274534D01*
X56521149Y-147429364D01*
X56465903Y-147599395D01*
X56447215Y-147777200D01*
X50994785Y-147777200D01*
X50976097Y-147599397D01*
X50940764Y-147490653D01*
X50920850Y-147429364D01*
X50831459Y-147274534D01*
X50711828Y-147141672D01*
X50567196Y-147036589D01*
X50403864Y-146963869D01*
X50228993Y-146926700D01*
X50228991Y-146926700D01*
X50050209Y-146926700D01*
X50050207Y-146926700D01*
X49875335Y-146963869D01*
X49712008Y-147036587D01*
X49567368Y-147141674D01*
X49447740Y-147274534D01*
X49358349Y-147429364D01*
X49303103Y-147599395D01*
X49284415Y-147777200D01*
X36672500Y-147777200D01*
X36672500Y-144145000D01*
X40016531Y-144145000D01*
X40036364Y-144371689D01*
X40095261Y-144591497D01*
X40191432Y-144797735D01*
X40321953Y-144984140D01*
X40482859Y-145145046D01*
X40669264Y-145275567D01*
X40669265Y-145275567D01*
X40669266Y-145275568D01*
X40875504Y-145371739D01*
X41095308Y-145430635D01*
X41180261Y-145438067D01*
X41265214Y-145445500D01*
X41265216Y-145445500D01*
X41378784Y-145445500D01*
X41378786Y-145445500D01*
X41446747Y-145439553D01*
X41548692Y-145430635D01*
X41768496Y-145371739D01*
X41974734Y-145275568D01*
X42161139Y-145145047D01*
X42322047Y-144984139D01*
X42452568Y-144797734D01*
X42548739Y-144591496D01*
X42607635Y-144371692D01*
X42627468Y-144145000D01*
X42607635Y-143918308D01*
X42548739Y-143698504D01*
X42452568Y-143492266D01*
X42444416Y-143480624D01*
X42322046Y-143305859D01*
X42161140Y-143144953D01*
X41974735Y-143014432D01*
X41768497Y-142918261D01*
X41548689Y-142859364D01*
X41378786Y-142844500D01*
X41378784Y-142844500D01*
X41265216Y-142844500D01*
X41265214Y-142844500D01*
X41095310Y-142859364D01*
X40875502Y-142918261D01*
X40669264Y-143014432D01*
X40482859Y-143144953D01*
X40321953Y-143305859D01*
X40191432Y-143492264D01*
X40095261Y-143698502D01*
X40036364Y-143918310D01*
X40016531Y-144145000D01*
X36672500Y-144145000D01*
X36672500Y-140411200D01*
X88221192Y-140411200D01*
X88240758Y-140584857D01*
X88298477Y-140749806D01*
X88391452Y-140897776D01*
X88515023Y-141021347D01*
X88662993Y-141114322D01*
X88827942Y-141172041D01*
X89001599Y-141191607D01*
X89001599Y-141191606D01*
X89001600Y-141191607D01*
X89175257Y-141172041D01*
X89340206Y-141114322D01*
X89488176Y-141021347D01*
X89611747Y-140897776D01*
X89704722Y-140749806D01*
X89762441Y-140584857D01*
X89782007Y-140411200D01*
X89762441Y-140237543D01*
X89721956Y-140121846D01*
X89704722Y-140072593D01*
X89611747Y-139924623D01*
X89488176Y-139801052D01*
X89340206Y-139708077D01*
X89175257Y-139650358D01*
X89001600Y-139630792D01*
X88827942Y-139650358D01*
X88662993Y-139708077D01*
X88515023Y-139801052D01*
X88391452Y-139924623D01*
X88298477Y-140072593D01*
X88240758Y-140237542D01*
X88221192Y-140411200D01*
X36672500Y-140411200D01*
X36672500Y-138175999D01*
X73878531Y-138175999D01*
X73898364Y-138402689D01*
X73957261Y-138622497D01*
X74053432Y-138828735D01*
X74183953Y-139015140D01*
X74344859Y-139176046D01*
X74531264Y-139306567D01*
X74531265Y-139306567D01*
X74531266Y-139306568D01*
X74737504Y-139402739D01*
X74957308Y-139461635D01*
X75042261Y-139469067D01*
X75127214Y-139476500D01*
X75127216Y-139476500D01*
X75240784Y-139476500D01*
X75240786Y-139476500D01*
X75308747Y-139470553D01*
X75410692Y-139461635D01*
X75630496Y-139402739D01*
X75836734Y-139306568D01*
X76023139Y-139176047D01*
X76184047Y-139015139D01*
X76314568Y-138828734D01*
X76410739Y-138622496D01*
X76469635Y-138402692D01*
X76489468Y-138176000D01*
X76469635Y-137949308D01*
X76410739Y-137729504D01*
X76314568Y-137523266D01*
X76300355Y-137502968D01*
X76184046Y-137336859D01*
X76159587Y-137312400D01*
X94039215Y-137312400D01*
X94041778Y-137336781D01*
X94057903Y-137490204D01*
X94113149Y-137660235D01*
X94202540Y-137815065D01*
X94322171Y-137947927D01*
X94466803Y-138053010D01*
X94630135Y-138125730D01*
X94805007Y-138162900D01*
X94805009Y-138162900D01*
X94983791Y-138162900D01*
X94983793Y-138162900D01*
X95158664Y-138125730D01*
X95158665Y-138125729D01*
X95158667Y-138125729D01*
X95321993Y-138053012D01*
X95466630Y-137947926D01*
X95586259Y-137815065D01*
X95675650Y-137660235D01*
X95730897Y-137490203D01*
X95749585Y-137312400D01*
X95730897Y-137134597D01*
X95696415Y-137028473D01*
X95675650Y-136964564D01*
X95586259Y-136809734D01*
X95488298Y-136700939D01*
X95466630Y-136676874D01*
X95466629Y-136676873D01*
X95466628Y-136676872D01*
X95321996Y-136571789D01*
X95158664Y-136499069D01*
X94983793Y-136461900D01*
X94983791Y-136461900D01*
X94805009Y-136461900D01*
X94805007Y-136461900D01*
X94630135Y-136499069D01*
X94466808Y-136571787D01*
X94322168Y-136676874D01*
X94202540Y-136809734D01*
X94113149Y-136964564D01*
X94057903Y-137134595D01*
X94039215Y-137312399D01*
X94039215Y-137312400D01*
X76159587Y-137312400D01*
X76023140Y-137175953D01*
X75836735Y-137045432D01*
X75630497Y-136949261D01*
X75410689Y-136890364D01*
X75240786Y-136875500D01*
X75240784Y-136875500D01*
X75127216Y-136875500D01*
X75127214Y-136875500D01*
X74957310Y-136890364D01*
X74737502Y-136949261D01*
X74531264Y-137045432D01*
X74344859Y-137175953D01*
X74183953Y-137336859D01*
X74053432Y-137523264D01*
X73957261Y-137729502D01*
X73898364Y-137949310D01*
X73878531Y-138175999D01*
X36672500Y-138175999D01*
X36672500Y-138098706D01*
X36672618Y-138093297D01*
X36689957Y-137696152D01*
X36690897Y-137685420D01*
X36742430Y-137293985D01*
X36744303Y-137283355D01*
X36829759Y-136897891D01*
X36832557Y-136887453D01*
X36951276Y-136510924D01*
X36954963Y-136500792D01*
X37046472Y-136279869D01*
X42083500Y-136279869D01*
X42089909Y-136339484D01*
X42111302Y-136396841D01*
X42140204Y-136474331D01*
X42226454Y-136589546D01*
X42341669Y-136675796D01*
X42476517Y-136726091D01*
X42536127Y-136732500D01*
X44331872Y-136732499D01*
X44391483Y-136726091D01*
X44526331Y-136675796D01*
X44641546Y-136589546D01*
X44727796Y-136474331D01*
X44776810Y-136342916D01*
X44811789Y-136292537D01*
X44866634Y-136265084D01*
X44927927Y-136267273D01*
X44980673Y-136298569D01*
X45102599Y-136420495D01*
X45296170Y-136556035D01*
X45510337Y-136655903D01*
X45738592Y-136717063D01*
X45974000Y-136737659D01*
X46209408Y-136717063D01*
X46437663Y-136655903D01*
X46651830Y-136556035D01*
X46845401Y-136420495D01*
X47012495Y-136253401D01*
X47142426Y-136067839D01*
X47186743Y-136028975D01*
X47244000Y-136014964D01*
X47301257Y-136028975D01*
X47345573Y-136067839D01*
X47475505Y-136253401D01*
X47642599Y-136420495D01*
X47836170Y-136556035D01*
X48050337Y-136655903D01*
X48278592Y-136717063D01*
X48514000Y-136737659D01*
X48749408Y-136717063D01*
X48977663Y-136655903D01*
X49191830Y-136556035D01*
X49385401Y-136420495D01*
X49552495Y-136253401D01*
X49682426Y-136067839D01*
X49726743Y-136028975D01*
X49784000Y-136014964D01*
X49841257Y-136028975D01*
X49885573Y-136067839D01*
X50015505Y-136253401D01*
X50182599Y-136420495D01*
X50376170Y-136556035D01*
X50590337Y-136655903D01*
X50818592Y-136717063D01*
X51054000Y-136737659D01*
X51289408Y-136717063D01*
X51517663Y-136655903D01*
X51731830Y-136556035D01*
X51925401Y-136420495D01*
X52092495Y-136253401D01*
X52228035Y-136059830D01*
X52327903Y-135845663D01*
X52384081Y-135636000D01*
X68358392Y-135636000D01*
X68377958Y-135809657D01*
X68435677Y-135974606D01*
X68528652Y-136122576D01*
X68652223Y-136246147D01*
X68800193Y-136339122D01*
X68965142Y-136396841D01*
X69138800Y-136416407D01*
X69312457Y-136396841D01*
X69477406Y-136339122D01*
X69625376Y-136246147D01*
X69748947Y-136122576D01*
X69841922Y-135974606D01*
X69899641Y-135809657D01*
X69919207Y-135636000D01*
X69899641Y-135462343D01*
X69888028Y-135429156D01*
X69841922Y-135297393D01*
X69748947Y-135149423D01*
X69625376Y-135025852D01*
X69477406Y-134932877D01*
X69312457Y-134875158D01*
X69138799Y-134855592D01*
X68965142Y-134875158D01*
X68800193Y-134932877D01*
X68652223Y-135025852D01*
X68528652Y-135149423D01*
X68435677Y-135297393D01*
X68377958Y-135462342D01*
X68358392Y-135636000D01*
X52384081Y-135636000D01*
X52389063Y-135617408D01*
X52409659Y-135382000D01*
X52389063Y-135146592D01*
X52327903Y-134918337D01*
X52228035Y-134704171D01*
X52092495Y-134510599D01*
X51925401Y-134343505D01*
X51731830Y-134207965D01*
X51517663Y-134108097D01*
X51456501Y-134091709D01*
X51289407Y-134046936D01*
X51054000Y-134026340D01*
X50818592Y-134046936D01*
X50590336Y-134108097D01*
X50376170Y-134207965D01*
X50182598Y-134343505D01*
X50015505Y-134510598D01*
X49885575Y-134696159D01*
X49841257Y-134735025D01*
X49784000Y-134749036D01*
X49726743Y-134735025D01*
X49682425Y-134696159D01*
X49634954Y-134628363D01*
X49552495Y-134510599D01*
X49385401Y-134343505D01*
X49191830Y-134207965D01*
X48977663Y-134108097D01*
X48916501Y-134091709D01*
X48749407Y-134046936D01*
X48514000Y-134026340D01*
X48278592Y-134046936D01*
X48050336Y-134108097D01*
X47836170Y-134207965D01*
X47642598Y-134343505D01*
X47475505Y-134510598D01*
X47345575Y-134696159D01*
X47301257Y-134735025D01*
X47244000Y-134749036D01*
X47186743Y-134735025D01*
X47142425Y-134696159D01*
X47094954Y-134628363D01*
X47012495Y-134510599D01*
X46845401Y-134343505D01*
X46651830Y-134207965D01*
X46437663Y-134108097D01*
X46376501Y-134091709D01*
X46209407Y-134046936D01*
X45974000Y-134026340D01*
X45738592Y-134046936D01*
X45510336Y-134108097D01*
X45296170Y-134207965D01*
X45102601Y-134343503D01*
X44980673Y-134465431D01*
X44927926Y-134496726D01*
X44866634Y-134498915D01*
X44811789Y-134471462D01*
X44776810Y-134421082D01*
X44754810Y-134362097D01*
X44727796Y-134289669D01*
X44641546Y-134174454D01*
X44526331Y-134088204D01*
X44391483Y-134037909D01*
X44331873Y-134031500D01*
X44331869Y-134031500D01*
X42536130Y-134031500D01*
X42476515Y-134037909D01*
X42341669Y-134088204D01*
X42226454Y-134174454D01*
X42140204Y-134289668D01*
X42089909Y-134424516D01*
X42083500Y-134484130D01*
X42083500Y-136279869D01*
X37046472Y-136279869D01*
X37106057Y-136136019D01*
X37110615Y-136126245D01*
X37292918Y-135776045D01*
X37298313Y-135766700D01*
X37510453Y-135433707D01*
X37516643Y-135424867D01*
X37756989Y-135111642D01*
X37763927Y-135103373D01*
X38030659Y-134812287D01*
X38038287Y-134804659D01*
X38329373Y-134537927D01*
X38337642Y-134530989D01*
X38650867Y-134290643D01*
X38659707Y-134284453D01*
X38992700Y-134072313D01*
X39002045Y-134066918D01*
X39352245Y-133884615D01*
X39362019Y-133880057D01*
X39726792Y-133728963D01*
X39736924Y-133725276D01*
X40113462Y-133606554D01*
X40123891Y-133603759D01*
X40509355Y-133518303D01*
X40519985Y-133516430D01*
X40911420Y-133464897D01*
X40922152Y-133463957D01*
X41319297Y-133446617D01*
X41324706Y-133446500D01*
X41377514Y-133446500D01*
X87102614Y-133446500D01*
X87158909Y-133460015D01*
G37*
G04 #@! TD.AperFunction*
G04 #@! TA.AperFunction,Conductor*
G36*
X118265861Y-169584508D02*
G01*
X118321590Y-169596353D01*
X118346230Y-169604359D01*
X118398281Y-169627534D01*
X118420730Y-169640495D01*
X118466817Y-169673979D01*
X118486080Y-169691323D01*
X118524200Y-169733658D01*
X118539436Y-169754627D01*
X118567922Y-169803967D01*
X118578465Y-169827647D01*
X118596068Y-169881823D01*
X118601458Y-169907181D01*
X118607412Y-169963838D01*
X118607412Y-169989758D01*
X118601458Y-170046413D01*
X118596068Y-170071771D01*
X118578464Y-170125951D01*
X118567920Y-170149633D01*
X118539436Y-170198969D01*
X118524199Y-170219941D01*
X118486083Y-170262273D01*
X118466818Y-170279619D01*
X118420731Y-170313103D01*
X118398280Y-170326065D01*
X118346240Y-170349234D01*
X118321590Y-170357244D01*
X118289542Y-170364056D01*
X118265862Y-170369090D01*
X118240082Y-170371800D01*
X118183116Y-170371800D01*
X118157337Y-170369090D01*
X118119235Y-170360991D01*
X118101610Y-170357245D01*
X118076958Y-170349235D01*
X118076238Y-170348914D01*
X118024913Y-170326063D01*
X118002468Y-170313104D01*
X117956379Y-170279618D01*
X117937115Y-170262273D01*
X117898997Y-170219939D01*
X117883760Y-170198967D01*
X117855272Y-170149624D01*
X117844733Y-170125951D01*
X117827129Y-170071771D01*
X117821740Y-170046416D01*
X117815786Y-169989757D01*
X117815786Y-169963839D01*
X117821740Y-169907181D01*
X117821741Y-169907174D01*
X117827128Y-169881827D01*
X117844735Y-169827641D01*
X117855276Y-169803967D01*
X117883760Y-169754631D01*
X117898997Y-169733658D01*
X117937117Y-169691321D01*
X117956379Y-169673979D01*
X118002469Y-169640492D01*
X118024916Y-169627534D01*
X118076959Y-169604363D01*
X118101615Y-169596352D01*
X118101625Y-169596350D01*
X118106109Y-169595396D01*
X118157336Y-169584509D01*
X118183115Y-169581800D01*
X118240088Y-169581800D01*
X118265861Y-169584508D01*
G37*
G04 #@! TD.AperFunction*
G04 #@! TA.AperFunction,Conductor*
G36*
X94943408Y-136970109D02*
G01*
X94970247Y-136975813D01*
X94988845Y-136979765D01*
X95013500Y-136987775D01*
X95055948Y-137006674D01*
X95078385Y-137019628D01*
X95115982Y-137046944D01*
X95135236Y-137064281D01*
X95166327Y-137098811D01*
X95166328Y-137098812D01*
X95181565Y-137119784D01*
X95204792Y-137160014D01*
X95215336Y-137183696D01*
X95229691Y-137227876D01*
X95235081Y-137253233D01*
X95239937Y-137299438D01*
X95239937Y-137325361D01*
X95235081Y-137371562D01*
X95229691Y-137396917D01*
X95215335Y-137441101D01*
X95204790Y-137464785D01*
X95181562Y-137505016D01*
X95166325Y-137525988D01*
X95135237Y-137560514D01*
X95115976Y-137577858D01*
X95115975Y-137577859D01*
X95078391Y-137605165D01*
X95055942Y-137618125D01*
X95013499Y-137637021D01*
X94988850Y-137645031D01*
X94957774Y-137651637D01*
X94943412Y-137654690D01*
X94917630Y-137657400D01*
X94871172Y-137657400D01*
X94845391Y-137654690D01*
X94820674Y-137649436D01*
X94799946Y-137645030D01*
X94775297Y-137637021D01*
X94732856Y-137618126D01*
X94710404Y-137605163D01*
X94672823Y-137577859D01*
X94653559Y-137560514D01*
X94622468Y-137525984D01*
X94607233Y-137505014D01*
X94584005Y-137464782D01*
X94573461Y-137441099D01*
X94559107Y-137396921D01*
X94553717Y-137371564D01*
X94548861Y-137325358D01*
X94548861Y-137299438D01*
X94553717Y-137253233D01*
X94553718Y-137253226D01*
X94559107Y-137227874D01*
X94573464Y-137183690D01*
X94583999Y-137160025D01*
X94607236Y-137119777D01*
X94622470Y-137098811D01*
X94634244Y-137085733D01*
X94653557Y-137064284D01*
X94672817Y-137046942D01*
X94710407Y-137019631D01*
X94732854Y-137006673D01*
X94775297Y-136987776D01*
X94799946Y-136979767D01*
X94822668Y-136974937D01*
X94845389Y-136970109D01*
X94871168Y-136967400D01*
X94917631Y-136967400D01*
X94943408Y-136970109D01*
G37*
G04 #@! TD.AperFunction*
M02*
