G04 #@! TF.GenerationSoftware,KiCad,Pcbnew,7.0.1*
G04 #@! TF.CreationDate,2023-11-28T21:34:11+01:00*
G04 #@! TF.ProjectId,Gruzik2.0,4772757a-696b-4322-9e30-2e6b69636164,rev?*
G04 #@! TF.SameCoordinates,Original*
G04 #@! TF.FileFunction,Copper,L4,Bot*
G04 #@! TF.FilePolarity,Positive*
%FSLAX46Y46*%
G04 Gerber Fmt 4.6, Leading zero omitted, Abs format (unit mm)*
G04 Created by KiCad (PCBNEW 7.0.1) date 2023-11-28 21:34:11*
%MOMM*%
%LPD*%
G01*
G04 APERTURE LIST*
G04 Aperture macros list*
%AMRoundRect*
0 Rectangle with rounded corners*
0 $1 Rounding radius*
0 $2 $3 $4 $5 $6 $7 $8 $9 X,Y pos of 4 corners*
0 Add a 4 corners polygon primitive as box body*
4,1,4,$2,$3,$4,$5,$6,$7,$8,$9,$2,$3,0*
0 Add four circle primitives for the rounded corners*
1,1,$1+$1,$2,$3*
1,1,$1+$1,$4,$5*
1,1,$1+$1,$6,$7*
1,1,$1+$1,$8,$9*
0 Add four rect primitives between the rounded corners*
20,1,$1+$1,$2,$3,$4,$5,0*
20,1,$1+$1,$4,$5,$6,$7,0*
20,1,$1+$1,$6,$7,$8,$9,0*
20,1,$1+$1,$8,$9,$2,$3,0*%
G04 Aperture macros list end*
G04 #@! TA.AperFunction,ComponentPad*
%ADD10C,1.500000*%
G04 #@! TD*
G04 #@! TA.AperFunction,ComponentPad*
%ADD11R,1.700000X1.700000*%
G04 #@! TD*
G04 #@! TA.AperFunction,ComponentPad*
%ADD12O,1.700000X1.700000*%
G04 #@! TD*
G04 #@! TA.AperFunction,SMDPad,CuDef*
%ADD13R,1.500000X2.000000*%
G04 #@! TD*
G04 #@! TA.AperFunction,SMDPad,CuDef*
%ADD14R,3.800000X2.000000*%
G04 #@! TD*
G04 #@! TA.AperFunction,SMDPad,CuDef*
%ADD15RoundRect,0.225000X0.250000X-0.225000X0.250000X0.225000X-0.250000X0.225000X-0.250000X-0.225000X0*%
G04 #@! TD*
G04 #@! TA.AperFunction,SMDPad,CuDef*
%ADD16RoundRect,0.225000X0.225000X0.250000X-0.225000X0.250000X-0.225000X-0.250000X0.225000X-0.250000X0*%
G04 #@! TD*
G04 #@! TA.AperFunction,SMDPad,CuDef*
%ADD17R,0.450000X1.750000*%
G04 #@! TD*
G04 #@! TA.AperFunction,SMDPad,CuDef*
%ADD18RoundRect,0.225000X-0.225000X-0.250000X0.225000X-0.250000X0.225000X0.250000X-0.225000X0.250000X0*%
G04 #@! TD*
G04 #@! TA.AperFunction,SMDPad,CuDef*
%ADD19RoundRect,0.200000X-0.275000X0.200000X-0.275000X-0.200000X0.275000X-0.200000X0.275000X0.200000X0*%
G04 #@! TD*
G04 #@! TA.AperFunction,SMDPad,CuDef*
%ADD20RoundRect,0.218750X-0.256250X0.218750X-0.256250X-0.218750X0.256250X-0.218750X0.256250X0.218750X0*%
G04 #@! TD*
G04 #@! TA.AperFunction,SMDPad,CuDef*
%ADD21RoundRect,0.075000X-0.662500X-0.075000X0.662500X-0.075000X0.662500X0.075000X-0.662500X0.075000X0*%
G04 #@! TD*
G04 #@! TA.AperFunction,SMDPad,CuDef*
%ADD22RoundRect,0.075000X-0.075000X-0.662500X0.075000X-0.662500X0.075000X0.662500X-0.075000X0.662500X0*%
G04 #@! TD*
G04 #@! TA.AperFunction,SMDPad,CuDef*
%ADD23R,0.400000X1.000000*%
G04 #@! TD*
G04 #@! TA.AperFunction,SMDPad,CuDef*
%ADD24R,2.000000X1.300000*%
G04 #@! TD*
G04 #@! TA.AperFunction,ViaPad*
%ADD25C,0.700000*%
G04 #@! TD*
G04 #@! TA.AperFunction,ViaPad*
%ADD26C,0.550000*%
G04 #@! TD*
G04 #@! TA.AperFunction,ViaPad*
%ADD27C,0.800000*%
G04 #@! TD*
G04 #@! TA.AperFunction,Conductor*
%ADD28C,0.300000*%
G04 #@! TD*
G04 #@! TA.AperFunction,Conductor*
%ADD29C,0.450000*%
G04 #@! TD*
G04 #@! TA.AperFunction,Conductor*
%ADD30C,0.500000*%
G04 #@! TD*
G04 #@! TA.AperFunction,Conductor*
%ADD31C,0.800000*%
G04 #@! TD*
G04 #@! TA.AperFunction,Conductor*
%ADD32C,0.400000*%
G04 #@! TD*
G04 #@! TA.AperFunction,Conductor*
%ADD33C,1.000000*%
G04 #@! TD*
G04 #@! TA.AperFunction,Conductor*
%ADD34C,1.500000*%
G04 #@! TD*
G04 #@! TA.AperFunction,Conductor*
%ADD35C,0.250000*%
G04 #@! TD*
G04 APERTURE END LIST*
D10*
X87426800Y-151751200D03*
X87426800Y-146871200D03*
D11*
X138379200Y-135585200D03*
D12*
X140919200Y-135585200D03*
D11*
X49885600Y-170688000D03*
D12*
X52425600Y-170688000D03*
D11*
X43434000Y-135382000D03*
D12*
X45974000Y-135382000D03*
X48514000Y-135382000D03*
X51054000Y-135382000D03*
D11*
X150774400Y-170992800D03*
D12*
X148234400Y-170992800D03*
D11*
X148437600Y-135636000D03*
D12*
X150977600Y-135636000D03*
X153517600Y-135636000D03*
X156057600Y-135636000D03*
X158597600Y-135636000D03*
D11*
X131666000Y-158496000D03*
D12*
X131666000Y-155956000D03*
X131666000Y-153416000D03*
X131666000Y-150876000D03*
X131666000Y-148336000D03*
X131666000Y-145796000D03*
D11*
X68834000Y-145796000D03*
D12*
X68834000Y-148336000D03*
X68834000Y-150876000D03*
X68834000Y-153416000D03*
X68834000Y-155956000D03*
X68834000Y-158496000D03*
D11*
X133604000Y-169722800D03*
D12*
X136144000Y-169722800D03*
D13*
X110984000Y-164744000D03*
X113284000Y-164744000D03*
D14*
X113284000Y-171044000D03*
D13*
X115584000Y-164744000D03*
D15*
X105460800Y-153479800D03*
X105460800Y-151929800D03*
D13*
X100366800Y-164794400D03*
X102666800Y-164794400D03*
D14*
X102666800Y-171094400D03*
D13*
X104966800Y-164794400D03*
D16*
X87376000Y-145389600D03*
X85826000Y-145389600D03*
D17*
X151142000Y-156806000D03*
X150492000Y-156806000D03*
X149842000Y-156806000D03*
X149192000Y-156806000D03*
X148542000Y-156806000D03*
X147892000Y-156806000D03*
X147242000Y-156806000D03*
X146592000Y-156806000D03*
X145942000Y-156806000D03*
X145292000Y-156806000D03*
X144642000Y-156806000D03*
X143992000Y-156806000D03*
X143992000Y-149606000D03*
X144642000Y-149606000D03*
X145292000Y-149606000D03*
X145942000Y-149606000D03*
X146592000Y-149606000D03*
X147242000Y-149606000D03*
X147892000Y-149606000D03*
X148542000Y-149606000D03*
X149192000Y-149606000D03*
X149842000Y-149606000D03*
X150492000Y-149606000D03*
X151142000Y-149606000D03*
D15*
X113182400Y-162573000D03*
X113182400Y-161023000D03*
D18*
X94221000Y-157022800D03*
X95771000Y-157022800D03*
X60362476Y-145860000D03*
X61912476Y-145860000D03*
D19*
X107188000Y-164110400D03*
X107188000Y-165760400D03*
D15*
X82753200Y-138049600D03*
X82753200Y-136499600D03*
X102285800Y-146418600D03*
X102285800Y-144868600D03*
D16*
X86830200Y-148742400D03*
X85280200Y-148742400D03*
D18*
X60362476Y-147638000D03*
X61912476Y-147638000D03*
D20*
X86055200Y-153619200D03*
X86055200Y-155194200D03*
D17*
X56956000Y-156552000D03*
X56306000Y-156552000D03*
X55656000Y-156552000D03*
X55006000Y-156552000D03*
X54356000Y-156552000D03*
X53706000Y-156552000D03*
X53056000Y-156552000D03*
X52406000Y-156552000D03*
X51756000Y-156552000D03*
X51106000Y-156552000D03*
X50456000Y-156552000D03*
X49806000Y-156552000D03*
X49806000Y-149352000D03*
X50456000Y-149352000D03*
X51106000Y-149352000D03*
X51756000Y-149352000D03*
X52406000Y-149352000D03*
X53056000Y-149352000D03*
X53706000Y-149352000D03*
X54356000Y-149352000D03*
X55006000Y-149352000D03*
X55656000Y-149352000D03*
X56306000Y-149352000D03*
X56956000Y-149352000D03*
D15*
X89611200Y-155169200D03*
X89611200Y-153619200D03*
D16*
X101968600Y-162458400D03*
X100418600Y-162458400D03*
D15*
X116840000Y-162573000D03*
X116840000Y-161023000D03*
D19*
X108762800Y-164073800D03*
X108762800Y-165723800D03*
D18*
X94221000Y-158597600D03*
X95771000Y-158597600D03*
D16*
X139261476Y-147320000D03*
X137711476Y-147320000D03*
D15*
X118668800Y-162573000D03*
X118668800Y-161023000D03*
D21*
X94107500Y-153781500D03*
X94107500Y-153281500D03*
X94107500Y-152781500D03*
X94107500Y-152281500D03*
X94107500Y-151781500D03*
X94107500Y-151281500D03*
X94107500Y-150781500D03*
X94107500Y-150281500D03*
X94107500Y-149781500D03*
X94107500Y-149281500D03*
X94107500Y-148781500D03*
X94107500Y-148281500D03*
D22*
X95520000Y-146869000D03*
X96020000Y-146869000D03*
X96520000Y-146869000D03*
X97020000Y-146869000D03*
X97520000Y-146869000D03*
X98020000Y-146869000D03*
X98520000Y-146869000D03*
X99020000Y-146869000D03*
X99520000Y-146869000D03*
X100020000Y-146869000D03*
X100520000Y-146869000D03*
X101020000Y-146869000D03*
D21*
X102432500Y-148281500D03*
X102432500Y-148781500D03*
X102432500Y-149281500D03*
X102432500Y-149781500D03*
X102432500Y-150281500D03*
X102432500Y-150781500D03*
X102432500Y-151281500D03*
X102432500Y-151781500D03*
X102432500Y-152281500D03*
X102432500Y-152781500D03*
X102432500Y-153281500D03*
X102432500Y-153781500D03*
D22*
X101020000Y-155194000D03*
X100520000Y-155194000D03*
X100020000Y-155194000D03*
X99520000Y-155194000D03*
X99020000Y-155194000D03*
X98520000Y-155194000D03*
X98020000Y-155194000D03*
X97520000Y-155194000D03*
X97020000Y-155194000D03*
X96520000Y-155194000D03*
X96020000Y-155194000D03*
X95520000Y-155194000D03*
D16*
X131064000Y-170738800D03*
X129514000Y-170738800D03*
D15*
X87833200Y-155169200D03*
X87833200Y-153619200D03*
D23*
X92867200Y-138836400D03*
X93867200Y-138836400D03*
X94867200Y-138836400D03*
X95867200Y-138836400D03*
X96867200Y-138836400D03*
X97867200Y-138836400D03*
X98867200Y-138836400D03*
X99867200Y-138836400D03*
X100867200Y-138836400D03*
X101867200Y-138836400D03*
X102867200Y-138836400D03*
X103867200Y-138836400D03*
X104867200Y-138836400D03*
X105867200Y-138836400D03*
X106867200Y-138836400D03*
X107867200Y-138836400D03*
D24*
X90067200Y-136136400D03*
X110667200Y-136136400D03*
D16*
X139274476Y-145288000D03*
X137724476Y-145288000D03*
D15*
X114960400Y-162573000D03*
X114960400Y-161023000D03*
X104063800Y-146418600D03*
X104063800Y-144868600D03*
D25*
X51866800Y-154432000D03*
X136156200Y-135483600D03*
X147015200Y-155194000D03*
X146202400Y-154533600D03*
X53848000Y-154990800D03*
X91948000Y-157937200D03*
X91897200Y-156819600D03*
X52628800Y-154990800D03*
D26*
X53238400Y-151079200D03*
D25*
X90728800Y-141681200D03*
X106514600Y-151929800D03*
X95707200Y-151434800D03*
X147980400Y-155143200D03*
X107289600Y-166928800D03*
X105156000Y-144868600D03*
X95771000Y-159499000D03*
X149148800Y-154533600D03*
D26*
X146862800Y-151536400D03*
D25*
X54914800Y-154432000D03*
D26*
X98958400Y-153924000D03*
D25*
X84734400Y-153619200D03*
X145796000Y-135991600D03*
X94221000Y-159512000D03*
X91694000Y-140817600D03*
D27*
X97536000Y-170383200D03*
D25*
X119634000Y-162458400D03*
X100787200Y-153162000D03*
D26*
X54356000Y-148052000D03*
X148538700Y-148233900D03*
D25*
X105156000Y-146418600D03*
X106476800Y-153479800D03*
D27*
X90754200Y-155169200D03*
D26*
X97129600Y-151739600D03*
D25*
X63195200Y-143814800D03*
D26*
X108712000Y-166725600D03*
X115570000Y-166878000D03*
D27*
X118211600Y-169976800D03*
D25*
X94894400Y-137312400D03*
X144272000Y-148183600D03*
X151460200Y-147599400D03*
X50139600Y-147777200D03*
X57302400Y-147777200D03*
D26*
X112776000Y-137414000D03*
X101056600Y-148168200D03*
D25*
X52425600Y-158038800D03*
X52425600Y-158902400D03*
D26*
X111581700Y-151144900D03*
X140055600Y-138988800D03*
X104190800Y-154272698D03*
X109270800Y-162509200D03*
X98520000Y-148100800D03*
D25*
X148234400Y-158242000D03*
X148234400Y-159105600D03*
D26*
X87782400Y-135229600D03*
X99161600Y-145338800D03*
X100330000Y-144490100D03*
X87782400Y-134162800D03*
X79044800Y-142443200D03*
X100152200Y-149580600D03*
X55016400Y-150622000D03*
X64312800Y-144881600D03*
X100888800Y-150114000D03*
X51765200Y-150723600D03*
X78943200Y-143459200D03*
X65735200Y-145237200D03*
X109931200Y-143967200D03*
X111431200Y-143916400D03*
X95554800Y-160629600D03*
X98958400Y-158699200D03*
X95504000Y-161493200D03*
X98145600Y-157429200D03*
X89001600Y-140411200D03*
X69138800Y-135636000D03*
D28*
X95771000Y-157022800D02*
X95771000Y-156451000D01*
X102285800Y-144868600D02*
X101308200Y-144868600D01*
D29*
X53848000Y-154990800D02*
X54744800Y-154990800D01*
D30*
X102285800Y-144868600D02*
X104063800Y-144868600D01*
D28*
X95771000Y-156451000D02*
X96020000Y-156202000D01*
D29*
X51866800Y-154432000D02*
X54914800Y-154432000D01*
X145292000Y-156806000D02*
X145292000Y-155248800D01*
D30*
X113182400Y-161023000D02*
X114960400Y-161023000D01*
X107188000Y-166827200D02*
X107289600Y-166928800D01*
D28*
X104864200Y-151929800D02*
X103512500Y-153281500D01*
X147242000Y-149606000D02*
X147242000Y-151157200D01*
D30*
X95771000Y-158597600D02*
X95771000Y-159499000D01*
X105156000Y-144868600D02*
X104063800Y-144868600D01*
D28*
X105460800Y-151929800D02*
X104864200Y-151929800D01*
X95707200Y-150672800D02*
X95707200Y-151434800D01*
D29*
X146229000Y-155194000D02*
X147015200Y-155194000D01*
X146202400Y-154533600D02*
X149148800Y-154533600D01*
X149192000Y-155506000D02*
X149192000Y-156806000D01*
D28*
X100520000Y-145656800D02*
X100520000Y-146869000D01*
X101308200Y-144868600D02*
X100520000Y-145656800D01*
D30*
X100366800Y-162510200D02*
X100418600Y-162458400D01*
D29*
X51106000Y-156552000D02*
X51106000Y-154941200D01*
X51756000Y-156552000D02*
X51756000Y-155227000D01*
X148031200Y-155194000D02*
X148880000Y-155194000D01*
X147015200Y-155194000D02*
X147929600Y-155194000D01*
D30*
X118668800Y-161023000D02*
X116840000Y-161023000D01*
D28*
X53056000Y-150896800D02*
X53238400Y-151079200D01*
D29*
X149250400Y-154533600D02*
X149842000Y-155125200D01*
X148880000Y-155194000D02*
X149192000Y-155506000D01*
X145288000Y-155244800D02*
X145999200Y-154533600D01*
D30*
X107188000Y-165760400D02*
X107188000Y-166827200D01*
D29*
X51612800Y-154432000D02*
X51866800Y-154432000D01*
D30*
X106514600Y-151929800D02*
X105460800Y-151929800D01*
D28*
X94107500Y-150281500D02*
X95315900Y-150281500D01*
X147242000Y-151157200D02*
X146862800Y-151536400D01*
D30*
X114960400Y-161023000D02*
X116840000Y-161023000D01*
X87833200Y-153619200D02*
X89611200Y-153619200D01*
D28*
X103512500Y-153281500D02*
X102432500Y-153281500D01*
X95707200Y-151434800D02*
X95707200Y-151384000D01*
D29*
X54914800Y-154432000D02*
X54965600Y-154432000D01*
X145999200Y-154533600D02*
X146202400Y-154533600D01*
X147980400Y-155143200D02*
X148031200Y-155194000D01*
X51756000Y-155227000D02*
X51992200Y-154990800D01*
X147929600Y-155194000D02*
X147980400Y-155143200D01*
D28*
X53056000Y-149352000D02*
X53056000Y-150896800D01*
D29*
X54744800Y-154990800D02*
X55006000Y-155252000D01*
X145942000Y-155481000D02*
X146229000Y-155194000D01*
X54965600Y-154432000D02*
X55656000Y-155122400D01*
X145942000Y-156806000D02*
X145942000Y-155481000D01*
X51104800Y-154940000D02*
X51612800Y-154432000D01*
X51106000Y-154941200D02*
X51104800Y-154940000D01*
X52628800Y-154990800D02*
X53848000Y-154990800D01*
X145292000Y-155248800D02*
X145288000Y-155244800D01*
D28*
X96020000Y-156202000D02*
X96020000Y-155194000D01*
D29*
X149148800Y-154533600D02*
X149250400Y-154533600D01*
X51992200Y-154990800D02*
X52628800Y-154990800D01*
D30*
X100366800Y-164794400D02*
X100366800Y-162510200D01*
D29*
X55006000Y-155252000D02*
X55006000Y-156552000D01*
X55656000Y-155122400D02*
X55656000Y-156552000D01*
X149842000Y-155125200D02*
X149842000Y-156806000D01*
D30*
X95771000Y-157022800D02*
X95771000Y-158597600D01*
X137711476Y-145301000D02*
X137724476Y-145288000D01*
D28*
X95315900Y-150281500D02*
X95707200Y-150672800D01*
X97951459Y-153924000D02*
X98958400Y-153924000D01*
X97520000Y-155194000D02*
X97520000Y-154355459D01*
X97520000Y-154355459D02*
X97951459Y-153924000D01*
X94843600Y-155194000D02*
X94221000Y-155816600D01*
X103798114Y-153781500D02*
X104099814Y-153479800D01*
X101406700Y-153781500D02*
X100787200Y-153162000D01*
D29*
X148538700Y-148233900D02*
X148538700Y-148302700D01*
D28*
X101752400Y-145897600D02*
X101142800Y-145897600D01*
X102273400Y-146418600D02*
X102285800Y-146418600D01*
X102432500Y-153781500D02*
X103798114Y-153781500D01*
X104099814Y-153479800D02*
X105460800Y-153479800D01*
X102432500Y-153781500D02*
X101406700Y-153781500D01*
D30*
X94221000Y-159512000D02*
X94221000Y-158597600D01*
D28*
X94221000Y-155816600D02*
X94221000Y-157022800D01*
D29*
X148542000Y-148306000D02*
X148542000Y-149606000D01*
D31*
X102666800Y-171094400D02*
X98247200Y-171094400D01*
D30*
X119519400Y-162573000D02*
X119634000Y-162458400D01*
X84734400Y-153619200D02*
X86055200Y-153619200D01*
D29*
X148538700Y-148302700D02*
X148542000Y-148306000D01*
D30*
X106476800Y-153479800D02*
X105460800Y-153479800D01*
X102666800Y-163156600D02*
X101968600Y-162458400D01*
D28*
X95520000Y-155194000D02*
X94843600Y-155194000D01*
X95520000Y-155194000D02*
X95520000Y-154143200D01*
D31*
X98247200Y-171094400D02*
X97536000Y-170383200D01*
D30*
X104063800Y-146418600D02*
X102285800Y-146418600D01*
D29*
X54356000Y-148052000D02*
X54356000Y-149352000D01*
D28*
X95158300Y-153781500D02*
X94107500Y-153781500D01*
X101020000Y-146020400D02*
X101020000Y-146869000D01*
D30*
X116840000Y-162573000D02*
X118668800Y-162573000D01*
D28*
X95520000Y-154143200D02*
X95158300Y-153781500D01*
X101752400Y-145897600D02*
X102273400Y-146418600D01*
D30*
X118668800Y-162573000D02*
X119519400Y-162573000D01*
X94221000Y-157022800D02*
X94221000Y-158597600D01*
X102666800Y-171094400D02*
X102666800Y-164794400D01*
D28*
X101142800Y-145897600D02*
X101020000Y-146020400D01*
D30*
X102666800Y-164794400D02*
X102666800Y-163156600D01*
X105156000Y-146418600D02*
X104063800Y-146418600D01*
D28*
X94107500Y-151781500D02*
X90991700Y-151781500D01*
X88188800Y-148742400D02*
X87223600Y-148742400D01*
X88595200Y-149148800D02*
X88188800Y-148742400D01*
X90991700Y-151781500D02*
X90990800Y-151782400D01*
X87413800Y-151700400D02*
X87413800Y-148932600D01*
X89302494Y-151782400D02*
X88595200Y-151075106D01*
X88595200Y-151075106D02*
X88595200Y-149148800D01*
X90990800Y-151782400D02*
X89302494Y-151782400D01*
X89509600Y-151282400D02*
X90017600Y-151282400D01*
X89103200Y-150876000D02*
X89509600Y-151282400D01*
X87426800Y-145440400D02*
X87376000Y-145389600D01*
X88395907Y-148242400D02*
X87630000Y-148242400D01*
X87376000Y-147980400D02*
X87376000Y-146922000D01*
X89103200Y-150876000D02*
X89103200Y-148949694D01*
X90018500Y-151281500D02*
X90017600Y-151282400D01*
X87426800Y-146871200D02*
X87426800Y-145440400D01*
X89103200Y-148949694D02*
X88395907Y-148242400D01*
X87630000Y-148242400D02*
X87630000Y-148234400D01*
X87630000Y-148234400D02*
X87376000Y-147980400D01*
X94107500Y-151281500D02*
X90018500Y-151281500D01*
D30*
X90754200Y-155169200D02*
X89611200Y-155169200D01*
D32*
X97129600Y-150215600D02*
X97129600Y-151739600D01*
D30*
X87833200Y-155169200D02*
X86080200Y-155169200D01*
D28*
X97129600Y-150215600D02*
X96695500Y-149781500D01*
X96695500Y-149781500D02*
X94107500Y-149781500D01*
D30*
X89611200Y-155169200D02*
X87833200Y-155169200D01*
D28*
X115584000Y-164744000D02*
X115584000Y-166864000D01*
X115584000Y-166864000D02*
X115570000Y-166878000D01*
D31*
X131064000Y-170738800D02*
X132588000Y-170738800D01*
X132588000Y-170738800D02*
X133604000Y-169722800D01*
D33*
X65836800Y-148336000D02*
X63906400Y-146405600D01*
X63195200Y-145694400D02*
X63195200Y-145643600D01*
X63195200Y-145643600D02*
X63195200Y-143814800D01*
D34*
X131216000Y-164744000D02*
X115584000Y-164744000D01*
X133604000Y-169722800D02*
X133604000Y-167132000D01*
X133604000Y-167132000D02*
X131216000Y-164744000D01*
D28*
X108712000Y-166725600D02*
X108712000Y-165774600D01*
D33*
X68834000Y-148336000D02*
X65836800Y-148336000D01*
X63906400Y-146405600D02*
X63195200Y-145694400D01*
D28*
X108712000Y-165774600D02*
X108762800Y-165723800D01*
X95758000Y-137972800D02*
X95867200Y-138082000D01*
D30*
X104966800Y-167095200D02*
X105918000Y-168046400D01*
D28*
X94867200Y-137972800D02*
X94867200Y-137339600D01*
X94867200Y-137339600D02*
X94894400Y-137312400D01*
D30*
X113284000Y-167335200D02*
X113284000Y-164744000D01*
X113284000Y-162674600D02*
X113182400Y-162573000D01*
D28*
X94867200Y-138836400D02*
X94867200Y-137972800D01*
D30*
X113284000Y-171044000D02*
X113284000Y-168859200D01*
D28*
X93867200Y-138238000D02*
X93867200Y-138836400D01*
D30*
X113284000Y-168859200D02*
X112522000Y-168097200D01*
D28*
X94132400Y-137972800D02*
X93867200Y-138238000D01*
X94867200Y-137972800D02*
X94132400Y-137972800D01*
D30*
X104966800Y-164794400D02*
X104966800Y-167095200D01*
X112522000Y-168097200D02*
X113284000Y-167335200D01*
D28*
X94867200Y-137972800D02*
X95758000Y-137972800D01*
D31*
X117144400Y-171044000D02*
X118211600Y-169976800D01*
D30*
X105918000Y-168046400D02*
X112471200Y-168046400D01*
D28*
X95867200Y-138082000D02*
X95867200Y-138836400D01*
D30*
X113182400Y-162573000D02*
X114960400Y-162573000D01*
X112471200Y-168046400D02*
X112522000Y-168097200D01*
X113284000Y-164744000D02*
X113284000Y-162674600D01*
D31*
X113284000Y-171044000D02*
X117144400Y-171044000D01*
D29*
X144642000Y-148553600D02*
X144642000Y-149606000D01*
X143992000Y-149606000D02*
X143992000Y-148463600D01*
D30*
X144272000Y-148183600D02*
X144272000Y-147675600D01*
X143916400Y-147320000D02*
X139261476Y-147320000D01*
D29*
X151142000Y-147917600D02*
X151460200Y-147599400D01*
X151142000Y-149606000D02*
X151142000Y-147917600D01*
X144272000Y-148183600D02*
X144642000Y-148553600D01*
D30*
X144272000Y-147675600D02*
X143916400Y-147320000D01*
X139274476Y-145288000D02*
X139274476Y-147307000D01*
D29*
X143992000Y-148463600D02*
X144272000Y-148183600D01*
D30*
X139274476Y-147307000D02*
X139261476Y-147320000D01*
D29*
X49806000Y-148110800D02*
X50139600Y-147777200D01*
D30*
X57441600Y-147638000D02*
X57302400Y-147777200D01*
D29*
X56956000Y-149352000D02*
X56956000Y-148123600D01*
X50139600Y-147777200D02*
X50456000Y-148093600D01*
X49806000Y-149352000D02*
X49806000Y-148110800D01*
D30*
X60362476Y-147638000D02*
X57441600Y-147638000D01*
D29*
X50456000Y-148093600D02*
X50456000Y-149352000D01*
X56956000Y-148123600D02*
X57302400Y-147777200D01*
D30*
X60362476Y-145860000D02*
X60362476Y-147638000D01*
D28*
X101056600Y-148168200D02*
X100243800Y-148168200D01*
X100243800Y-148168200D02*
X99212400Y-149199600D01*
X99212400Y-152755600D02*
X98686500Y-153281500D01*
X98686500Y-153281500D02*
X94107500Y-153281500D01*
X99212400Y-149199600D02*
X99212400Y-152755600D01*
X104867200Y-138836400D02*
X104867200Y-143189200D01*
X98020000Y-145566000D02*
X98020000Y-146869000D01*
X99720400Y-143865600D02*
X98020000Y-145566000D01*
X104190800Y-143865600D02*
X99720400Y-143865600D01*
X104867200Y-143189200D02*
X104190800Y-143865600D01*
X99568000Y-143103600D02*
X97520000Y-145151600D01*
X103867200Y-142258800D02*
X103022400Y-143103600D01*
X97520000Y-145151600D02*
X97520000Y-146869000D01*
X103867200Y-138836400D02*
X103867200Y-142258800D01*
X103022400Y-143103600D02*
X99568000Y-143103600D01*
X99568000Y-142189200D02*
X97020000Y-144737200D01*
X97020000Y-144737200D02*
X97020000Y-146869000D01*
X102867200Y-138836400D02*
X102867200Y-141887200D01*
X102867200Y-141887200D02*
X102565200Y-142189200D01*
X102565200Y-142189200D02*
X99568000Y-142189200D01*
X101867200Y-138836400D02*
X101867200Y-141363200D01*
X96520000Y-144221200D02*
X96520000Y-146869000D01*
X101650800Y-141579600D02*
X99161600Y-141579600D01*
X101867200Y-141363200D02*
X101650800Y-141579600D01*
X99161600Y-141579600D02*
X96520000Y-144221200D01*
X100867200Y-138836400D02*
X100867200Y-140686800D01*
X100867200Y-140686800D02*
X100584000Y-140970000D01*
X96020000Y-143812103D02*
X96020000Y-146869000D01*
X98862103Y-140970000D02*
X96020000Y-143812103D01*
X100584000Y-140970000D02*
X98862103Y-140970000D01*
X95520000Y-143392400D02*
X95520000Y-146869000D01*
X99867200Y-139959600D02*
X99517200Y-140309600D01*
X98602800Y-140309600D02*
X95520000Y-143392400D01*
X99517200Y-140309600D02*
X98602800Y-140309600D01*
X99867200Y-138836400D02*
X99867200Y-139959600D01*
X96570800Y-141630400D02*
X94488000Y-141630400D01*
X94488000Y-141630400D02*
X93726000Y-142392400D01*
X98867200Y-139334000D02*
X96570800Y-141630400D01*
X93726000Y-142392400D02*
X93726000Y-146608800D01*
X94132400Y-148256600D02*
X94107500Y-148281500D01*
X98867200Y-138836400D02*
X98867200Y-139334000D01*
X93726000Y-146608800D02*
X94132400Y-147015200D01*
X94132400Y-147015200D02*
X94132400Y-148256600D01*
X93268959Y-148781500D02*
X94107500Y-148781500D01*
X97867200Y-139419600D02*
X96367600Y-140919200D01*
X96367600Y-140919200D02*
X94081600Y-140919200D01*
X93020000Y-148532541D02*
X93268959Y-148781500D01*
X94081600Y-140919200D02*
X93020000Y-141980800D01*
X93020000Y-141980800D02*
X93020000Y-148532541D01*
X97867200Y-138836400D02*
X97867200Y-139419600D01*
X96867200Y-139136400D02*
X96867200Y-139428350D01*
X92151200Y-141681200D02*
X92151200Y-148742400D01*
D35*
X96867200Y-138836400D02*
X96867200Y-139136400D01*
D28*
X92690300Y-149281500D02*
X94107500Y-149281500D01*
X96087550Y-140208000D02*
X93624400Y-140208000D01*
X92151200Y-148742400D02*
X92690300Y-149281500D01*
X96867200Y-139428350D02*
X96087550Y-140208000D01*
X93624400Y-140208000D02*
X92151200Y-141681200D01*
D33*
X56057800Y-159283400D02*
X56692800Y-158648400D01*
X54711600Y-160629600D02*
X56057800Y-159283400D01*
X49885600Y-160629600D02*
X54711600Y-160629600D01*
D29*
X49806000Y-156552000D02*
X49806000Y-158416400D01*
D33*
X49885600Y-160629600D02*
X49885600Y-158496000D01*
D29*
X56956000Y-158080400D02*
X56956000Y-156552000D01*
X56692800Y-158343600D02*
X56306000Y-157956800D01*
X56306000Y-157956800D02*
X56306000Y-156552000D01*
D33*
X56692800Y-158648400D02*
X56692800Y-158343600D01*
D29*
X56692800Y-158343600D02*
X56956000Y-158080400D01*
X50456000Y-156552000D02*
X50456000Y-157925600D01*
X49806000Y-158416400D02*
X49885600Y-158496000D01*
X50456000Y-157925600D02*
X49885600Y-158496000D01*
D33*
X49885600Y-170688000D02*
X49885600Y-160629600D01*
D29*
X53706000Y-157723600D02*
X53706000Y-156552000D01*
X52984400Y-158038800D02*
X53056000Y-157967200D01*
X53056000Y-157967200D02*
X53056000Y-156552000D01*
X53949600Y-158038800D02*
X54356000Y-157632400D01*
X52425600Y-158038800D02*
X52984400Y-158038800D01*
X52425600Y-156571600D02*
X52406000Y-156552000D01*
X53390800Y-158038800D02*
X53706000Y-157723600D01*
X54356000Y-157632400D02*
X54356000Y-156552000D01*
X52425600Y-158038800D02*
X52425600Y-158902400D01*
X52425600Y-158038800D02*
X53390800Y-158038800D01*
X52425600Y-158038800D02*
X52425600Y-156571600D01*
X52425600Y-158038800D02*
X53949600Y-158038800D01*
D28*
X151142000Y-156806000D02*
X151142000Y-158128400D01*
D29*
X144642000Y-156806000D02*
X144642000Y-158380000D01*
D28*
X150492000Y-158213600D02*
X150774400Y-158496000D01*
D33*
X146456400Y-160731200D02*
X144373600Y-158648400D01*
D29*
X143992000Y-156806000D02*
X143992000Y-158266800D01*
X144642000Y-158380000D02*
X144373600Y-158648400D01*
D33*
X150774400Y-160020000D02*
X150774400Y-158851600D01*
X150774400Y-158851600D02*
X150774400Y-158496000D01*
D28*
X150492000Y-156806000D02*
X150492000Y-158213600D01*
X151142000Y-158128400D02*
X150774400Y-158496000D01*
D33*
X150774400Y-170992800D02*
X150774400Y-160020000D01*
X150774400Y-160731200D02*
X146456400Y-160731200D01*
D29*
X143992000Y-158266800D02*
X144373600Y-158648400D01*
D28*
X105532141Y-150520400D02*
X103271041Y-152781500D01*
X110957200Y-150520400D02*
X105532141Y-150520400D01*
X111581700Y-151144900D02*
X110957200Y-150520400D01*
X103271041Y-152781500D02*
X102432500Y-152781500D01*
X104082298Y-154381200D02*
X101832800Y-154381200D01*
X104190800Y-154272698D02*
X104082298Y-154381200D01*
X101832800Y-154381200D02*
X101020000Y-155194000D01*
X108762800Y-163017200D02*
X109270800Y-162509200D01*
X98520000Y-148100800D02*
X98520000Y-146869000D01*
X108762800Y-163271200D02*
X108762800Y-163017200D01*
X107492800Y-163271200D02*
X108762800Y-163271200D01*
X107188000Y-163576000D02*
X107492800Y-163271200D01*
X107188000Y-164110400D02*
X107188000Y-163576000D01*
X108762800Y-164073800D02*
X108762800Y-163271200D01*
D29*
X147242000Y-158062400D02*
X147242000Y-156806000D01*
X146592000Y-157920400D02*
X146592000Y-156806000D01*
X148234400Y-158242000D02*
X147421600Y-158242000D01*
X148234400Y-158242000D02*
X148082000Y-158242000D01*
X148234400Y-158242000D02*
X146913600Y-158242000D01*
X148234400Y-158242000D02*
X148234400Y-159054800D01*
X147892000Y-158052000D02*
X147892000Y-156806000D01*
X148234400Y-158242000D02*
X148336000Y-158242000D01*
X148542000Y-158036000D02*
X148542000Y-156806000D01*
X148082000Y-158242000D02*
X147892000Y-158052000D01*
X146913600Y-158242000D02*
X146592000Y-157920400D01*
X148336000Y-158242000D02*
X148542000Y-158036000D01*
X147421600Y-158242000D02*
X147242000Y-158062400D01*
D28*
X99520000Y-145697200D02*
X99161600Y-145338800D01*
X99520000Y-146869000D02*
X99520000Y-145697200D01*
X100330000Y-144490100D02*
X100020000Y-144800100D01*
X100020000Y-144800100D02*
X100020000Y-146869000D01*
X55016400Y-149362400D02*
X55006000Y-149352000D01*
X52406000Y-147796800D02*
X52406000Y-149352000D01*
X55006000Y-147716000D02*
X54610000Y-147320000D01*
X55016400Y-150622000D02*
X55016400Y-149362400D01*
X100152200Y-149580600D02*
X100451300Y-149281500D01*
X55006000Y-149352000D02*
X55006000Y-147716000D01*
X66446400Y-142443200D02*
X64312800Y-144576800D01*
X100451300Y-149281500D02*
X102432500Y-149281500D01*
X52882800Y-147320000D02*
X52406000Y-147796800D01*
X79044800Y-142443200D02*
X66446400Y-142443200D01*
X64312800Y-144576800D02*
X64312800Y-144881600D01*
X54610000Y-147320000D02*
X52882800Y-147320000D01*
X51756000Y-149352000D02*
X51756000Y-147380000D01*
X67106800Y-143459200D02*
X65735200Y-144830800D01*
X101221300Y-149781500D02*
X100888800Y-150114000D01*
X51756000Y-149352000D02*
X51756000Y-150714400D01*
X52578000Y-146558000D02*
X55270400Y-146558000D01*
X102432500Y-149781500D02*
X101221300Y-149781500D01*
X55270400Y-146558000D02*
X55656000Y-146943600D01*
X78943200Y-143459200D02*
X67106800Y-143459200D01*
X65735200Y-144830800D02*
X65735200Y-145237200D01*
X51756000Y-150714400D02*
X51765200Y-150723600D01*
X55656000Y-146943600D02*
X55656000Y-149352000D01*
X51756000Y-147380000D02*
X52578000Y-146558000D01*
X103520000Y-150532541D02*
X103271041Y-150781500D01*
X104597200Y-149047200D02*
X103520000Y-150124400D01*
X109931200Y-143967200D02*
X109931200Y-148640800D01*
X109931200Y-148640800D02*
X109524800Y-149047200D01*
X103271041Y-150781500D02*
X102432500Y-150781500D01*
X109524800Y-149047200D02*
X104597200Y-149047200D01*
X103520000Y-150124400D02*
X103520000Y-150532541D01*
X105003600Y-149809200D02*
X103531300Y-151281500D01*
X103531300Y-151281500D02*
X102432500Y-151281500D01*
X110134400Y-149809200D02*
X105003600Y-149809200D01*
X111431200Y-143916400D02*
X111431200Y-148512400D01*
X111431200Y-148512400D02*
X110134400Y-149809200D01*
X125222000Y-156565600D02*
X100053059Y-156565600D01*
X149402800Y-147015200D02*
X149842000Y-147454400D01*
X134112000Y-160731200D02*
X129387600Y-160731200D01*
X145942000Y-150756000D02*
X145568000Y-151130000D01*
X145942000Y-149606000D02*
X145942000Y-147682000D01*
X145942000Y-147682000D02*
X146608800Y-147015200D01*
X149842000Y-147454400D02*
X149842000Y-149606000D01*
X129387600Y-160731200D02*
X125222000Y-156565600D01*
X138226800Y-151130000D02*
X134975600Y-154381200D01*
X134975600Y-159867600D02*
X134112000Y-160731200D01*
X134975600Y-154381200D02*
X134975600Y-159867600D01*
X99520000Y-156032541D02*
X99520000Y-155194000D01*
X145568000Y-151130000D02*
X138226800Y-151130000D01*
X100053059Y-156565600D02*
X99520000Y-156032541D01*
X145942000Y-149606000D02*
X145942000Y-150756000D01*
X146608800Y-147015200D02*
X149402800Y-147015200D01*
X146929000Y-147609400D02*
X148798084Y-147609400D01*
X135991600Y-160223200D02*
X135991600Y-154736800D01*
X146592000Y-149606000D02*
X146592000Y-147946400D01*
X148798084Y-147609400D02*
X149192000Y-148003316D01*
X99020000Y-156525600D02*
X99923600Y-157429200D01*
X134721600Y-161493200D02*
X135991600Y-160223200D01*
X99923600Y-157429200D02*
X124358400Y-157429200D01*
X145665506Y-151739600D02*
X146592000Y-150813106D01*
X138988800Y-151739600D02*
X145665506Y-151739600D01*
X128422400Y-161493200D02*
X134721600Y-161493200D01*
X149192000Y-148003316D02*
X149192000Y-149606000D01*
X124358400Y-157429200D02*
X128422400Y-161493200D01*
X99020000Y-155194000D02*
X99020000Y-156525600D01*
X146592000Y-147946400D02*
X146929000Y-147609400D01*
X135991600Y-154736800D02*
X138988800Y-151739600D01*
X146592000Y-150813106D02*
X146592000Y-149606000D01*
X124155200Y-158699200D02*
X127863600Y-162407600D01*
X62636400Y-160070800D02*
X63246000Y-160680400D01*
X54740400Y-151536400D02*
X57962800Y-151536400D01*
X136906000Y-160883600D02*
X136906000Y-155346400D01*
X61315600Y-151536400D02*
X62534800Y-152755600D01*
X53706000Y-149352000D02*
X53706000Y-150502000D01*
X98958400Y-158699200D02*
X124155200Y-158699200D01*
X63296800Y-160680400D02*
X95554800Y-160629600D01*
X62534800Y-159969200D02*
X62636400Y-160070800D01*
X62534800Y-152755600D02*
X62534800Y-159969200D01*
X135382000Y-162407600D02*
X136906000Y-160883600D01*
X63246000Y-160680400D02*
X63296800Y-160680400D01*
X98958400Y-158699200D02*
X98958400Y-157358116D01*
X139801600Y-152450800D02*
X147167600Y-152450800D01*
X127863600Y-162407600D02*
X135382000Y-162407600D01*
X53706000Y-150502000D02*
X54740400Y-151536400D01*
X147892000Y-151726400D02*
X147892000Y-149606000D01*
X98958400Y-157358116D02*
X98520000Y-156919716D01*
X136906000Y-155346400D02*
X139801600Y-152450800D01*
X98520000Y-156919716D02*
X98520000Y-155194000D01*
X57962800Y-151536400D02*
X61315600Y-151536400D01*
X147167600Y-152450800D02*
X147892000Y-151726400D01*
X60502800Y-152196800D02*
X61417200Y-153111200D01*
X98020000Y-157303600D02*
X98145600Y-157429200D01*
X51106000Y-150948284D02*
X52354516Y-152196800D01*
X52222400Y-145796000D02*
X55778400Y-145796000D01*
X52354516Y-152196800D02*
X60502800Y-152196800D01*
X51106000Y-149352000D02*
X51106000Y-150948284D01*
X61417200Y-153111200D02*
X61417200Y-160578800D01*
X61417200Y-160578800D02*
X62331600Y-161493200D01*
X56381000Y-146398600D02*
X56381000Y-149148800D01*
X55778400Y-145796000D02*
X56381000Y-146398600D01*
X51106000Y-149352000D02*
X51106000Y-146912400D01*
X98020000Y-155194000D02*
X98020000Y-157303600D01*
X51106000Y-146912400D02*
X52222400Y-145796000D01*
X62331600Y-161493200D02*
X95504000Y-161493200D01*
X97028000Y-156540541D02*
X97028000Y-159613600D01*
X127101600Y-163322000D02*
X135686800Y-163322000D01*
X137922000Y-161086800D02*
X137922000Y-155905200D01*
X123748800Y-159969200D02*
X127101600Y-163322000D01*
X150492000Y-147088400D02*
X149860000Y-146456400D01*
X97028000Y-159613600D02*
X97383600Y-159969200D01*
X150492000Y-149606000D02*
X150492000Y-147088400D01*
X140614400Y-153212800D02*
X149504400Y-153212800D01*
X96520000Y-155194000D02*
X96520000Y-156032541D01*
X149504400Y-153212800D02*
X150492000Y-152225200D01*
X97383600Y-159969200D02*
X123748800Y-159969200D01*
X145292000Y-147112800D02*
X145292000Y-149606000D01*
X150492000Y-152225200D02*
X150492000Y-149606000D01*
X137922000Y-155905200D02*
X140614400Y-153212800D01*
X135686800Y-163322000D02*
X137922000Y-161086800D01*
X96520000Y-156032541D02*
X97028000Y-156540541D01*
X145948400Y-146456400D02*
X145292000Y-147112800D01*
X149860000Y-146456400D02*
X145948400Y-146456400D01*
X82753200Y-135636000D02*
X69138800Y-135636000D01*
X89865200Y-149504400D02*
X89865200Y-141274800D01*
X84226400Y-135636000D02*
X82753200Y-135636000D01*
X91142300Y-150781500D02*
X89865200Y-149504400D01*
X94107500Y-150781500D02*
X91142300Y-150781500D01*
X82753200Y-136499600D02*
X82753200Y-135636000D01*
X89865200Y-141274800D02*
X84226400Y-135636000D01*
G04 #@! TA.AperFunction,Conductor*
G36*
X149704501Y-156597613D02*
G01*
X149749888Y-156643000D01*
X149766500Y-156704997D01*
X149766501Y-156809987D01*
X149766501Y-156907000D01*
X149749888Y-156969000D01*
X149704501Y-157014387D01*
X149642501Y-157031000D01*
X149391500Y-157031000D01*
X149329500Y-157014387D01*
X149284113Y-156969000D01*
X149267500Y-156907000D01*
X149267500Y-156751471D01*
X149267499Y-156751461D01*
X149267499Y-156705000D01*
X149284112Y-156643000D01*
X149329499Y-156597613D01*
X149391499Y-156581000D01*
X149642501Y-156581000D01*
X149704501Y-156597613D01*
G37*
G04 #@! TD.AperFunction*
G04 #@! TA.AperFunction,Conductor*
G36*
X145804500Y-156597613D02*
G01*
X145849887Y-156643000D01*
X145866500Y-156705000D01*
X145866500Y-156907000D01*
X145849887Y-156969000D01*
X145804500Y-157014387D01*
X145742500Y-157031000D01*
X145491500Y-157031000D01*
X145429500Y-157014387D01*
X145384113Y-156969000D01*
X145367500Y-156907000D01*
X145367500Y-156751471D01*
X145367499Y-156751461D01*
X145367499Y-156705000D01*
X145384112Y-156643000D01*
X145429499Y-156597613D01*
X145491499Y-156581000D01*
X145742500Y-156581000D01*
X145804500Y-156597613D01*
G37*
G04 #@! TD.AperFunction*
G04 #@! TA.AperFunction,Conductor*
G36*
X55518500Y-156343613D02*
G01*
X55563887Y-156389000D01*
X55580500Y-156451000D01*
X55580500Y-156653000D01*
X55563887Y-156715000D01*
X55518500Y-156760387D01*
X55456500Y-156777000D01*
X55205500Y-156777000D01*
X55143500Y-156760387D01*
X55098113Y-156715000D01*
X55081500Y-156653000D01*
X55081500Y-156497471D01*
X55081499Y-156497461D01*
X55081499Y-156451000D01*
X55098112Y-156389000D01*
X55143499Y-156343613D01*
X55205499Y-156327000D01*
X55456500Y-156327000D01*
X55518500Y-156343613D01*
G37*
G04 #@! TD.AperFunction*
G04 #@! TA.AperFunction,Conductor*
G36*
X51618500Y-156343613D02*
G01*
X51663887Y-156389000D01*
X51680500Y-156451000D01*
X51680500Y-156490112D01*
X51679191Y-156508079D01*
X51678294Y-156514204D01*
X51675870Y-156530756D01*
X51680028Y-156578288D01*
X51680500Y-156589094D01*
X51680500Y-156653000D01*
X51663887Y-156715000D01*
X51618500Y-156760387D01*
X51556500Y-156777000D01*
X51305500Y-156777000D01*
X51243500Y-156760387D01*
X51198113Y-156715000D01*
X51181500Y-156653000D01*
X51181500Y-156497471D01*
X51181499Y-156497461D01*
X51181499Y-156451000D01*
X51198112Y-156389000D01*
X51243499Y-156343613D01*
X51305499Y-156327000D01*
X51556500Y-156327000D01*
X51618500Y-156343613D01*
G37*
G04 #@! TD.AperFunction*
G04 #@! TA.AperFunction,Conductor*
G36*
X87158909Y-133460015D02*
G01*
X87202932Y-133497615D01*
X87225087Y-133551102D01*
X87220545Y-133608818D01*
X87190295Y-133658181D01*
X87172252Y-133676223D01*
X87079277Y-133824193D01*
X87021558Y-133989142D01*
X87001992Y-134162800D01*
X87021558Y-134336457D01*
X87079276Y-134501403D01*
X87160221Y-134630227D01*
X87179227Y-134696199D01*
X87160222Y-134762170D01*
X87079276Y-134890997D01*
X87021558Y-135055942D01*
X87001992Y-135229599D01*
X87021558Y-135403257D01*
X87079277Y-135568206D01*
X87172252Y-135716176D01*
X87295823Y-135839747D01*
X87443793Y-135932722D01*
X87608742Y-135990441D01*
X87782400Y-136010007D01*
X87956057Y-135990441D01*
X88121006Y-135932722D01*
X88195364Y-135886000D01*
X88268973Y-135839749D01*
X88268973Y-135839748D01*
X88268976Y-135839747D01*
X88355020Y-135753702D01*
X88404381Y-135723454D01*
X88462097Y-135718912D01*
X88515585Y-135741067D01*
X88553185Y-135785090D01*
X88566700Y-135841385D01*
X88566700Y-136834269D01*
X88573109Y-136893884D01*
X88585619Y-136927424D01*
X88623404Y-137028731D01*
X88709654Y-137143946D01*
X88824869Y-137230196D01*
X88959717Y-137280491D01*
X89019327Y-137286900D01*
X91115072Y-137286899D01*
X91174683Y-137280491D01*
X91309531Y-137230196D01*
X91424746Y-137143946D01*
X91510996Y-137028731D01*
X91561291Y-136893883D01*
X91567700Y-136834273D01*
X91567699Y-135438528D01*
X91561291Y-135378917D01*
X91510996Y-135244069D01*
X91424746Y-135128854D01*
X91309531Y-135042604D01*
X91174683Y-134992309D01*
X91115073Y-134985900D01*
X91115069Y-134985900D01*
X89019330Y-134985900D01*
X88959715Y-134992309D01*
X88824867Y-135042604D01*
X88733463Y-135111029D01*
X88680547Y-135133903D01*
X88623006Y-135130377D01*
X88573279Y-135101214D01*
X88542112Y-135052717D01*
X88532893Y-135026372D01*
X88500178Y-134932877D01*
X88485522Y-134890993D01*
X88404578Y-134762170D01*
X88385572Y-134696199D01*
X88404577Y-134630230D01*
X88485522Y-134501406D01*
X88543241Y-134336457D01*
X88562807Y-134162800D01*
X88552003Y-134066912D01*
X88543241Y-133989142D01*
X88485522Y-133824193D01*
X88392547Y-133676223D01*
X88374505Y-133658181D01*
X88344255Y-133608818D01*
X88339713Y-133551102D01*
X88361868Y-133497615D01*
X88405891Y-133460015D01*
X88462186Y-133446500D01*
X159282486Y-133446500D01*
X159335294Y-133446500D01*
X159340702Y-133446617D01*
X159737845Y-133463957D01*
X159748581Y-133464897D01*
X160140010Y-133516429D01*
X160150648Y-133518304D01*
X160536102Y-133603758D01*
X160546542Y-133606556D01*
X160923068Y-133725273D01*
X160933214Y-133728966D01*
X161297971Y-133880054D01*
X161307762Y-133884620D01*
X161657942Y-134066912D01*
X161667309Y-134072319D01*
X161724209Y-134108569D01*
X162000281Y-134284446D01*
X162009142Y-134290651D01*
X162322348Y-134530982D01*
X162330635Y-134537936D01*
X162621701Y-134804649D01*
X162629350Y-134812298D01*
X162896063Y-135103364D01*
X162903017Y-135111651D01*
X163143348Y-135424857D01*
X163149553Y-135433718D01*
X163361679Y-135766689D01*
X163367087Y-135776057D01*
X163549376Y-136126230D01*
X163553948Y-136136034D01*
X163705029Y-136500775D01*
X163708729Y-136510941D01*
X163827442Y-136887453D01*
X163830242Y-136897901D01*
X163915693Y-137283343D01*
X163917571Y-137293997D01*
X163969100Y-137685399D01*
X163970043Y-137696175D01*
X163987382Y-138093297D01*
X163987500Y-138098706D01*
X163987500Y-167971294D01*
X163987382Y-167976703D01*
X163970043Y-168373824D01*
X163969100Y-168384600D01*
X163917571Y-168776002D01*
X163915693Y-168786656D01*
X163830242Y-169172098D01*
X163827442Y-169182546D01*
X163708729Y-169559058D01*
X163705029Y-169569224D01*
X163553948Y-169933965D01*
X163549376Y-169943769D01*
X163367087Y-170293942D01*
X163361679Y-170303310D01*
X163149553Y-170636281D01*
X163143348Y-170645142D01*
X162903017Y-170958348D01*
X162896063Y-170966635D01*
X162629350Y-171257701D01*
X162621701Y-171265350D01*
X162330635Y-171532063D01*
X162322348Y-171539017D01*
X162009142Y-171779348D01*
X162000281Y-171785553D01*
X161667310Y-171997679D01*
X161657942Y-172003087D01*
X161307769Y-172185376D01*
X161297965Y-172189948D01*
X160933224Y-172341029D01*
X160923058Y-172344729D01*
X160546546Y-172463442D01*
X160536098Y-172466242D01*
X160150656Y-172551693D01*
X160140002Y-172553571D01*
X159748600Y-172605100D01*
X159737824Y-172606043D01*
X159340703Y-172623382D01*
X159335294Y-172623500D01*
X115617611Y-172623500D01*
X115558184Y-172608332D01*
X115513296Y-172566540D01*
X115493927Y-172508347D01*
X115504816Y-172447989D01*
X115532445Y-172413702D01*
X115541543Y-172401547D01*
X115541546Y-172401546D01*
X115627796Y-172286331D01*
X115678091Y-172151483D01*
X115684500Y-172091873D01*
X115684500Y-172068500D01*
X115701113Y-172006500D01*
X115746500Y-171961113D01*
X115808500Y-171944500D01*
X117063774Y-171944500D01*
X117083171Y-171946026D01*
X117097012Y-171948219D01*
X117164736Y-171944670D01*
X117171226Y-171944500D01*
X117191596Y-171944500D01*
X117211848Y-171942371D01*
X117218306Y-171941862D01*
X117286046Y-171938313D01*
X117299593Y-171934682D01*
X117318709Y-171931139D01*
X117332656Y-171929674D01*
X117397186Y-171908706D01*
X117403351Y-171906880D01*
X117468888Y-171889320D01*
X117481374Y-171882956D01*
X117499353Y-171875509D01*
X117512684Y-171871179D01*
X117571451Y-171837248D01*
X117577077Y-171834193D01*
X117637549Y-171803383D01*
X117648442Y-171794560D01*
X117664474Y-171783542D01*
X117676616Y-171776533D01*
X117727039Y-171731131D01*
X117731921Y-171726961D01*
X117747780Y-171714119D01*
X117762201Y-171699696D01*
X117766872Y-171695264D01*
X117817288Y-171649871D01*
X117825529Y-171638526D01*
X117838160Y-171623737D01*
X118473098Y-170988800D01*
X128564001Y-170988800D01*
X128564001Y-171037115D01*
X128574143Y-171136405D01*
X128627453Y-171297286D01*
X128716426Y-171441532D01*
X128836267Y-171561373D01*
X128980513Y-171650346D01*
X129141393Y-171703656D01*
X129240685Y-171713800D01*
X129264000Y-171713800D01*
X129264000Y-170988800D01*
X128564001Y-170988800D01*
X118473098Y-170988800D01*
X118791342Y-170670556D01*
X118806127Y-170657929D01*
X118817471Y-170649688D01*
X118862856Y-170599281D01*
X118867288Y-170594610D01*
X118881720Y-170580180D01*
X118894538Y-170564349D01*
X118898752Y-170559416D01*
X118944129Y-170509020D01*
X118944133Y-170509016D01*
X118951144Y-170496871D01*
X118956692Y-170488800D01*
X128564000Y-170488800D01*
X129264000Y-170488800D01*
X129264000Y-169763801D01*
X129240685Y-169763801D01*
X129141394Y-169773943D01*
X128980513Y-169827253D01*
X128836267Y-169916226D01*
X128716426Y-170036067D01*
X128627453Y-170180313D01*
X128574143Y-170341193D01*
X128564000Y-170440485D01*
X128564000Y-170488800D01*
X118956692Y-170488800D01*
X118962164Y-170480839D01*
X118970983Y-170469949D01*
X119001785Y-170409493D01*
X119004848Y-170403851D01*
X119038779Y-170345084D01*
X119043109Y-170331753D01*
X119050556Y-170313774D01*
X119056920Y-170301288D01*
X119074475Y-170235770D01*
X119076307Y-170229582D01*
X119097274Y-170165056D01*
X119098740Y-170151105D01*
X119102283Y-170131990D01*
X119105913Y-170118445D01*
X119109462Y-170050698D01*
X119109967Y-170044277D01*
X119117060Y-169976800D01*
X119115593Y-169962851D01*
X119115084Y-169943419D01*
X119115819Y-169929412D01*
X119105208Y-169862421D01*
X119104366Y-169856030D01*
X119097274Y-169788544D01*
X119092940Y-169775205D01*
X119088398Y-169756287D01*
X119086207Y-169742450D01*
X119061892Y-169679106D01*
X119059737Y-169673019D01*
X119058904Y-169670456D01*
X119052097Y-169649505D01*
X119038780Y-169608517D01*
X119031775Y-169596385D01*
X119023397Y-169578820D01*
X119018373Y-169565733D01*
X119018372Y-169565730D01*
X118981408Y-169508811D01*
X118978055Y-169503338D01*
X118944133Y-169444584D01*
X118934750Y-169434164D01*
X118922904Y-169418723D01*
X118915274Y-169406974D01*
X118867315Y-169359015D01*
X118862864Y-169354326D01*
X118817471Y-169303912D01*
X118806130Y-169295672D01*
X118791340Y-169283040D01*
X118781425Y-169273125D01*
X118781422Y-169273123D01*
X118781421Y-169273122D01*
X118724531Y-169236177D01*
X118719181Y-169232500D01*
X118675669Y-169200887D01*
X118664330Y-169192649D01*
X118651527Y-169186948D01*
X118634430Y-169177665D01*
X118622667Y-169170026D01*
X118559356Y-169145724D01*
X118553358Y-169143240D01*
X118491401Y-169115655D01*
X118477687Y-169112740D01*
X118459032Y-169107214D01*
X118445949Y-169102192D01*
X118378974Y-169091584D01*
X118372592Y-169090402D01*
X118356196Y-169086917D01*
X118306246Y-169076300D01*
X118306244Y-169076300D01*
X118292226Y-169076300D01*
X118272828Y-169074773D01*
X118258988Y-169072581D01*
X118191264Y-169076130D01*
X118184775Y-169076300D01*
X118116954Y-169076300D01*
X118107906Y-169078222D01*
X118103242Y-169079214D01*
X118083961Y-169081752D01*
X118069955Y-169082486D01*
X118004439Y-169100041D01*
X117998128Y-169101556D01*
X117931795Y-169115655D01*
X117918987Y-169121358D01*
X117900658Y-169127849D01*
X117887111Y-169131479D01*
X117826681Y-169162270D01*
X117820825Y-169165064D01*
X117758867Y-169192650D01*
X117747530Y-169200887D01*
X117730949Y-169211048D01*
X117718450Y-169217416D01*
X117665735Y-169260103D01*
X117660589Y-169264052D01*
X117605730Y-169303910D01*
X117560351Y-169354308D01*
X117555883Y-169359015D01*
X116807720Y-170107181D01*
X116767492Y-170134061D01*
X116720039Y-170143500D01*
X115808499Y-170143500D01*
X115746499Y-170126887D01*
X115701112Y-170081500D01*
X115684499Y-170019500D01*
X115684499Y-169996130D01*
X115683509Y-169986917D01*
X115678091Y-169936517D01*
X115627796Y-169801669D01*
X115541546Y-169686454D01*
X115426331Y-169600204D01*
X115291483Y-169549909D01*
X115231873Y-169543500D01*
X115231869Y-169543500D01*
X114158500Y-169543500D01*
X114096500Y-169526887D01*
X114051113Y-169481500D01*
X114034500Y-169419500D01*
X114034500Y-168922906D01*
X114035809Y-168904936D01*
X114036338Y-168901318D01*
X114039289Y-168881177D01*
X114034972Y-168831831D01*
X114034500Y-168821024D01*
X114034500Y-168815489D01*
X114030903Y-168784721D01*
X114030536Y-168781129D01*
X114029153Y-168765316D01*
X114023999Y-168706403D01*
X114023998Y-168706401D01*
X114023889Y-168705149D01*
X114019672Y-168686130D01*
X113993592Y-168614474D01*
X113992408Y-168611068D01*
X113979672Y-168572633D01*
X113968814Y-168539866D01*
X113968812Y-168539863D01*
X113968415Y-168538664D01*
X113959929Y-168521136D01*
X113959237Y-168520084D01*
X113959237Y-168520083D01*
X113918001Y-168457388D01*
X113916086Y-168454381D01*
X113912995Y-168449369D01*
X113876712Y-168390545D01*
X113876711Y-168390544D01*
X113876048Y-168389469D01*
X113863748Y-168374370D01*
X113808273Y-168322032D01*
X113805686Y-168319519D01*
X113671048Y-168184881D01*
X113638954Y-168129294D01*
X113638954Y-168065107D01*
X113671045Y-168009521D01*
X113769648Y-167910918D01*
X113783260Y-167899155D01*
X113790185Y-167894000D01*
X124170531Y-167894000D01*
X124190364Y-168120689D01*
X124249261Y-168340497D01*
X124345432Y-168546735D01*
X124475953Y-168733140D01*
X124636859Y-168894046D01*
X124823264Y-169024567D01*
X124823265Y-169024567D01*
X124823266Y-169024568D01*
X125029504Y-169120739D01*
X125249308Y-169179635D01*
X125332896Y-169186948D01*
X125419214Y-169194500D01*
X125419216Y-169194500D01*
X125532784Y-169194500D01*
X125532786Y-169194500D01*
X125600747Y-169188553D01*
X125702692Y-169179635D01*
X125922496Y-169120739D01*
X126128734Y-169024568D01*
X126315139Y-168894047D01*
X126476047Y-168733139D01*
X126606568Y-168546734D01*
X126702739Y-168340496D01*
X126761635Y-168120692D01*
X126781468Y-167894000D01*
X126761635Y-167667308D01*
X126702739Y-167447504D01*
X126606568Y-167241266D01*
X126586199Y-167212176D01*
X126476046Y-167054859D01*
X126315140Y-166893953D01*
X126128735Y-166763432D01*
X125922497Y-166667261D01*
X125702689Y-166608364D01*
X125532786Y-166593500D01*
X125532784Y-166593500D01*
X125419216Y-166593500D01*
X125419214Y-166593500D01*
X125249310Y-166608364D01*
X125029502Y-166667261D01*
X124823264Y-166763432D01*
X124636859Y-166893953D01*
X124475953Y-167054859D01*
X124345432Y-167241264D01*
X124249261Y-167447502D01*
X124190364Y-167667310D01*
X124170531Y-167894000D01*
X113790185Y-167894000D01*
X113802530Y-167884810D01*
X113834376Y-167846856D01*
X113841662Y-167838904D01*
X113845591Y-167834977D01*
X113864833Y-167810639D01*
X113867090Y-167807870D01*
X113881853Y-167790275D01*
X113915302Y-167750414D01*
X113915303Y-167750411D01*
X113916115Y-167749444D01*
X113926573Y-167733027D01*
X113927106Y-167731882D01*
X113927111Y-167731877D01*
X113958833Y-167663846D01*
X113960362Y-167660688D01*
X113994040Y-167593633D01*
X113994040Y-167593632D01*
X113994612Y-167592494D01*
X114001000Y-167574115D01*
X114001255Y-167572875D01*
X114001257Y-167572873D01*
X114016435Y-167499357D01*
X114017200Y-167495908D01*
X114034500Y-167422921D01*
X114034500Y-167422919D01*
X114034791Y-167421691D01*
X114036770Y-167402320D01*
X114036733Y-167401058D01*
X114036734Y-167401055D01*
X114034552Y-167326068D01*
X114034500Y-167322462D01*
X114034500Y-166360976D01*
X114048969Y-166302847D01*
X114088999Y-166258284D01*
X114127177Y-166244303D01*
X114126890Y-166243534D01*
X114144848Y-166236836D01*
X114276331Y-166187796D01*
X114359692Y-166125391D01*
X114407640Y-166103494D01*
X114460357Y-166103494D01*
X114508308Y-166125392D01*
X114591669Y-166187796D01*
X114726517Y-166238091D01*
X114786127Y-166244500D01*
X114809500Y-166244500D01*
X114871500Y-166261113D01*
X114916887Y-166306500D01*
X114933500Y-166368500D01*
X114933500Y-166397641D01*
X114914494Y-166463612D01*
X114866877Y-166539393D01*
X114809158Y-166704342D01*
X114789592Y-166878000D01*
X114809158Y-167051657D01*
X114866877Y-167216606D01*
X114959852Y-167364576D01*
X115083423Y-167488147D01*
X115231393Y-167581122D01*
X115396342Y-167638841D01*
X115570000Y-167658407D01*
X115743657Y-167638841D01*
X115908606Y-167581122D01*
X116056576Y-167488147D01*
X116180147Y-167364576D01*
X116273122Y-167216606D01*
X116330841Y-167051657D01*
X116350407Y-166878000D01*
X116350406Y-166877999D01*
X116330841Y-166704342D01*
X116273122Y-166539393D01*
X116253506Y-166508174D01*
X116234500Y-166442203D01*
X116234500Y-166368499D01*
X116251113Y-166306499D01*
X116296500Y-166261112D01*
X116358500Y-166244499D01*
X116381870Y-166244499D01*
X116381872Y-166244499D01*
X116441483Y-166238091D01*
X116576331Y-166187796D01*
X116691546Y-166101546D01*
X116703304Y-166085840D01*
X116734485Y-166044189D01*
X116778247Y-166007616D01*
X116833751Y-165994500D01*
X130646664Y-165994500D01*
X130694117Y-166003939D01*
X130734345Y-166030819D01*
X132317181Y-167613655D01*
X132344061Y-167653883D01*
X132353500Y-167701336D01*
X132353500Y-168531361D01*
X132347155Y-168570520D01*
X132328768Y-168605671D01*
X132310204Y-168630469D01*
X132260998Y-168762398D01*
X132259909Y-168765317D01*
X132254807Y-168812778D01*
X132253500Y-168824931D01*
X132253500Y-169714300D01*
X132236887Y-169776300D01*
X132191500Y-169821687D01*
X132129500Y-169838300D01*
X131651513Y-169838300D01*
X131612792Y-169827320D01*
X131611455Y-169831356D01*
X131436707Y-169773450D01*
X131342239Y-169763800D01*
X131337344Y-169763300D01*
X130790655Y-169763300D01*
X130691292Y-169773450D01*
X130530300Y-169826797D01*
X130385954Y-169915831D01*
X130376325Y-169925461D01*
X130320738Y-169957553D01*
X130256551Y-169957553D01*
X130200965Y-169925459D01*
X130191732Y-169916226D01*
X130047486Y-169827253D01*
X129886606Y-169773943D01*
X129787315Y-169763800D01*
X129764000Y-169763800D01*
X129764000Y-171713799D01*
X129787315Y-171713799D01*
X129886605Y-171703656D01*
X130047484Y-171650346D01*
X130191732Y-171561372D01*
X130200963Y-171552141D01*
X130256551Y-171520045D01*
X130320741Y-171520045D01*
X130376329Y-171552141D01*
X130385957Y-171561769D01*
X130530300Y-171650802D01*
X130530302Y-171650802D01*
X130530303Y-171650803D01*
X130691292Y-171704149D01*
X130790655Y-171714300D01*
X131337344Y-171714299D01*
X131436708Y-171704149D01*
X131597697Y-171650803D01*
X131597697Y-171650802D01*
X131611455Y-171646244D01*
X131612792Y-171650279D01*
X131651513Y-171639300D01*
X132507374Y-171639300D01*
X132526771Y-171640826D01*
X132540612Y-171643019D01*
X132608336Y-171639470D01*
X132614826Y-171639300D01*
X132635196Y-171639300D01*
X132655448Y-171637171D01*
X132661906Y-171636662D01*
X132729646Y-171633113D01*
X132743193Y-171629482D01*
X132762309Y-171625939D01*
X132776256Y-171624474D01*
X132840786Y-171603506D01*
X132846951Y-171601680D01*
X132912488Y-171584120D01*
X132924974Y-171577756D01*
X132942953Y-171570309D01*
X132956284Y-171565979D01*
X133015051Y-171532048D01*
X133020677Y-171528993D01*
X133081149Y-171498183D01*
X133092042Y-171489360D01*
X133108074Y-171478342D01*
X133120216Y-171471333D01*
X133170639Y-171425931D01*
X133175521Y-171421761D01*
X133191380Y-171408919D01*
X133205801Y-171394496D01*
X133210472Y-171390064D01*
X133260888Y-171344671D01*
X133269129Y-171333326D01*
X133281760Y-171318537D01*
X133490679Y-171109618D01*
X133530908Y-171082738D01*
X133578361Y-171073299D01*
X134501870Y-171073299D01*
X134501872Y-171073299D01*
X134561483Y-171066891D01*
X134696331Y-171016596D01*
X134811546Y-170930346D01*
X134897796Y-170815131D01*
X134947003Y-170683198D01*
X134981981Y-170632821D01*
X135036826Y-170605368D01*
X135098119Y-170607557D01*
X135150865Y-170638853D01*
X135272918Y-170760906D01*
X135466423Y-170896400D01*
X135680507Y-170996230D01*
X135893999Y-171053435D01*
X135894000Y-171053436D01*
X135894000Y-169972800D01*
X136394000Y-169972800D01*
X136394000Y-171053435D01*
X136607492Y-170996230D01*
X136821576Y-170896400D01*
X137015081Y-170760906D01*
X137182106Y-170593881D01*
X137317600Y-170400376D01*
X137417430Y-170186292D01*
X137474636Y-169972800D01*
X136394000Y-169972800D01*
X135894000Y-169972800D01*
X135894000Y-168392164D01*
X136394000Y-168392164D01*
X136394000Y-169472800D01*
X137474636Y-169472800D01*
X137474635Y-169472799D01*
X137417430Y-169259307D01*
X137317599Y-169045221D01*
X137182109Y-168851721D01*
X137015081Y-168684693D01*
X136821576Y-168549199D01*
X136607492Y-168449369D01*
X136394000Y-168392164D01*
X135894000Y-168392164D01*
X135893999Y-168392164D01*
X135680507Y-168449369D01*
X135466421Y-168549200D01*
X135272924Y-168684688D01*
X135150865Y-168806747D01*
X135098118Y-168838042D01*
X135036825Y-168840231D01*
X134981981Y-168812778D01*
X134947002Y-168762398D01*
X134897796Y-168630469D01*
X134879231Y-168605669D01*
X134860845Y-168570520D01*
X134854500Y-168531361D01*
X134854500Y-167209186D01*
X134855280Y-167195302D01*
X134859238Y-167160173D01*
X134854781Y-167094068D01*
X134854500Y-167085726D01*
X134854500Y-167075850D01*
X134853452Y-167064206D01*
X134850839Y-167035178D01*
X134850630Y-167032516D01*
X134844096Y-166935588D01*
X134843028Y-166931352D01*
X134839768Y-166912169D01*
X134839377Y-166907812D01*
X134813527Y-166814152D01*
X134812832Y-166811514D01*
X134789097Y-166717322D01*
X134789096Y-166717317D01*
X134787285Y-166713331D01*
X134780656Y-166695046D01*
X134779493Y-166690830D01*
X134740689Y-166610252D01*
X134737351Y-166603320D01*
X134736199Y-166600861D01*
X134696007Y-166512374D01*
X134693517Y-166508780D01*
X134683724Y-166491962D01*
X134683343Y-166491172D01*
X134681829Y-166488027D01*
X134624740Y-166409450D01*
X134623162Y-166407228D01*
X134567820Y-166327346D01*
X134564733Y-166324259D01*
X134552091Y-166309458D01*
X134549522Y-166305922D01*
X134479299Y-166238782D01*
X134477310Y-166236836D01*
X132424655Y-164184181D01*
X132394405Y-164134818D01*
X132389863Y-164077102D01*
X132412018Y-164023615D01*
X132456041Y-163986015D01*
X132512336Y-163972500D01*
X135601295Y-163972500D01*
X135622504Y-163974841D01*
X135625094Y-163974759D01*
X135625096Y-163974760D01*
X135695062Y-163972560D01*
X135698957Y-163972500D01*
X135727720Y-163972500D01*
X135727725Y-163972500D01*
X135732102Y-163971946D01*
X135743741Y-163971030D01*
X135789369Y-163969597D01*
X135809749Y-163963675D01*
X135828789Y-163959732D01*
X135849858Y-163957071D01*
X135892320Y-163940258D01*
X135903357Y-163936480D01*
X135947198Y-163923744D01*
X135965470Y-163912936D01*
X135982936Y-163904380D01*
X136002671Y-163896568D01*
X136039616Y-163869725D01*
X136049348Y-163863332D01*
X136088665Y-163840081D01*
X136103674Y-163825071D01*
X136118463Y-163812439D01*
X136135637Y-163799963D01*
X136164746Y-163764774D01*
X136172590Y-163756154D01*
X138321513Y-161607231D01*
X138338162Y-161593894D01*
X138339936Y-161592004D01*
X138339940Y-161592002D01*
X138387898Y-161540930D01*
X138390546Y-161538198D01*
X138410911Y-161517835D01*
X138413611Y-161514352D01*
X138421187Y-161505481D01*
X138452448Y-161472193D01*
X138462675Y-161453587D01*
X138473348Y-161437339D01*
X138486362Y-161420564D01*
X138504495Y-161378657D01*
X138509625Y-161368187D01*
X138531627Y-161328168D01*
X138536903Y-161307613D01*
X138543206Y-161289202D01*
X138551635Y-161269727D01*
X138558777Y-161224625D01*
X138561140Y-161213218D01*
X138572500Y-161168977D01*
X138572500Y-161147749D01*
X138574027Y-161128350D01*
X138577346Y-161107395D01*
X138573050Y-161061948D01*
X138572500Y-161050279D01*
X138572500Y-158245556D01*
X143261870Y-158245556D01*
X143266028Y-158293084D01*
X143266500Y-158303891D01*
X143266500Y-158309056D01*
X143266666Y-158310479D01*
X143269971Y-158338756D01*
X143270337Y-158342341D01*
X143276785Y-158416045D01*
X143280721Y-158433800D01*
X143306018Y-158503304D01*
X143307202Y-158506708D01*
X143330481Y-158576960D01*
X143338405Y-158593326D01*
X143351503Y-158613241D01*
X143367134Y-158647323D01*
X143371862Y-158684520D01*
X143370842Y-158724761D01*
X143406742Y-158925054D01*
X143482223Y-159114019D01*
X143594196Y-159283918D01*
X145738832Y-161428552D01*
X145741025Y-161430801D01*
X145800197Y-161493050D01*
X145801342Y-161494254D01*
X145849762Y-161527955D01*
X145857271Y-161533616D01*
X145902993Y-161570898D01*
X145929962Y-161584985D01*
X145943382Y-161593116D01*
X145968349Y-161610494D01*
X145968350Y-161610494D01*
X145968351Y-161610495D01*
X146014129Y-161630140D01*
X146022563Y-161633759D01*
X146031063Y-161637795D01*
X146083350Y-161665108D01*
X146083351Y-161665109D01*
X146112596Y-161673477D01*
X146127386Y-161678743D01*
X146134864Y-161681952D01*
X146155342Y-161690740D01*
X146213137Y-161702616D01*
X146222254Y-161704854D01*
X146278982Y-161721087D01*
X146309316Y-161723396D01*
X146324853Y-161725574D01*
X146354659Y-161731700D01*
X146413642Y-161731700D01*
X146423056Y-161732058D01*
X146481876Y-161736537D01*
X146512051Y-161732693D01*
X146527717Y-161731700D01*
X149649900Y-161731700D01*
X149711900Y-161748313D01*
X149757287Y-161793700D01*
X149773900Y-161855700D01*
X149773900Y-169578658D01*
X149763888Y-169627470D01*
X149735471Y-169668400D01*
X149693235Y-169694839D01*
X149682071Y-169699003D01*
X149682070Y-169699003D01*
X149682069Y-169699004D01*
X149593345Y-169765423D01*
X149566854Y-169785254D01*
X149480604Y-169900469D01*
X149431589Y-170031883D01*
X149396609Y-170082262D01*
X149341765Y-170109715D01*
X149280472Y-170107526D01*
X149227726Y-170076230D01*
X149105804Y-169954308D01*
X149105801Y-169954305D01*
X148912230Y-169818765D01*
X148698063Y-169718897D01*
X148636902Y-169702509D01*
X148469807Y-169657736D01*
X148234400Y-169637140D01*
X147998992Y-169657736D01*
X147770736Y-169718897D01*
X147556570Y-169818765D01*
X147362998Y-169954305D01*
X147195905Y-170121398D01*
X147060365Y-170314970D01*
X146960497Y-170529136D01*
X146899336Y-170757392D01*
X146878740Y-170992800D01*
X146899336Y-171228207D01*
X146930543Y-171344671D01*
X146960497Y-171456463D01*
X147060365Y-171670630D01*
X147195905Y-171864201D01*
X147362999Y-172031295D01*
X147556570Y-172166835D01*
X147770737Y-172266703D01*
X147998991Y-172327862D01*
X147998992Y-172327863D01*
X148234399Y-172348459D01*
X148234399Y-172348458D01*
X148234400Y-172348459D01*
X148469808Y-172327863D01*
X148698063Y-172266703D01*
X148912230Y-172166835D01*
X149105801Y-172031295D01*
X149227729Y-171909366D01*
X149280472Y-171878073D01*
X149341765Y-171875884D01*
X149396609Y-171903337D01*
X149431589Y-171953716D01*
X149453146Y-172011513D01*
X149480604Y-172085131D01*
X149566854Y-172200346D01*
X149682069Y-172286596D01*
X149816917Y-172336891D01*
X149876527Y-172343300D01*
X151672272Y-172343299D01*
X151731883Y-172336891D01*
X151866731Y-172286596D01*
X151981946Y-172200346D01*
X152068196Y-172085131D01*
X152118491Y-171950283D01*
X152124900Y-171890673D01*
X152124899Y-170094928D01*
X152118491Y-170035317D01*
X152068196Y-169900469D01*
X151981946Y-169785254D01*
X151866731Y-169699004D01*
X151863707Y-169697876D01*
X151855565Y-169694839D01*
X151813329Y-169668400D01*
X151784912Y-169627470D01*
X151774900Y-169578658D01*
X151774900Y-161925000D01*
X158032531Y-161925000D01*
X158052364Y-162151689D01*
X158111261Y-162371497D01*
X158207432Y-162577735D01*
X158337953Y-162764140D01*
X158498859Y-162925046D01*
X158685264Y-163055567D01*
X158685265Y-163055567D01*
X158685266Y-163055568D01*
X158891504Y-163151739D01*
X159111308Y-163210635D01*
X159192702Y-163217756D01*
X159281214Y-163225500D01*
X159281216Y-163225500D01*
X159394784Y-163225500D01*
X159394786Y-163225500D01*
X159483298Y-163217756D01*
X159564692Y-163210635D01*
X159784496Y-163151739D01*
X159990734Y-163055568D01*
X160177139Y-162925047D01*
X160338047Y-162764139D01*
X160468568Y-162577734D01*
X160564739Y-162371496D01*
X160623635Y-162151692D01*
X160643468Y-161925000D01*
X160623635Y-161698308D01*
X160564739Y-161478504D01*
X160468568Y-161272266D01*
X160466790Y-161269727D01*
X160338046Y-161085859D01*
X160177140Y-160924953D01*
X159990735Y-160794432D01*
X159784497Y-160698261D01*
X159564689Y-160639364D01*
X159394786Y-160624500D01*
X159394784Y-160624500D01*
X159281216Y-160624500D01*
X159281214Y-160624500D01*
X159111310Y-160639364D01*
X158891502Y-160698261D01*
X158685264Y-160794432D01*
X158498859Y-160924953D01*
X158337953Y-161085859D01*
X158207432Y-161272264D01*
X158111261Y-161478502D01*
X158052364Y-161698310D01*
X158032531Y-161925000D01*
X151774900Y-161925000D01*
X151774900Y-160759700D01*
X151775059Y-160753420D01*
X151775645Y-160741858D01*
X151778769Y-160680264D01*
X151776329Y-160664340D01*
X151774900Y-160645567D01*
X151774900Y-158445260D01*
X151774583Y-158442146D01*
X151766518Y-158362846D01*
X151772028Y-158327253D01*
X151769185Y-158326803D01*
X151771994Y-158309064D01*
X151778778Y-158266224D01*
X151781143Y-158254805D01*
X151792500Y-158210577D01*
X151792500Y-158189355D01*
X151794027Y-158169956D01*
X151794807Y-158165031D01*
X151797347Y-158148995D01*
X151793050Y-158103539D01*
X151792500Y-158091870D01*
X151792500Y-157989042D01*
X151798846Y-157949881D01*
X151805976Y-157936250D01*
X151810793Y-157923334D01*
X151810796Y-157923331D01*
X151861091Y-157788483D01*
X151867500Y-157728873D01*
X151867499Y-155883128D01*
X151861091Y-155823517D01*
X151810796Y-155688669D01*
X151724546Y-155573454D01*
X151609331Y-155487204D01*
X151474483Y-155436909D01*
X151414873Y-155430500D01*
X151414869Y-155430500D01*
X150869126Y-155430500D01*
X150830252Y-155434679D01*
X150803749Y-155434679D01*
X150777847Y-155431894D01*
X150764873Y-155430500D01*
X150764871Y-155430500D01*
X150219126Y-155430500D01*
X150177904Y-155434931D01*
X150151403Y-155434931D01*
X150114829Y-155431000D01*
X150067000Y-155431000D01*
X150055379Y-155442620D01*
X150053884Y-155448949D01*
X150017311Y-155492712D01*
X149909454Y-155573453D01*
X149885654Y-155605246D01*
X149840264Y-155665878D01*
X149792511Y-155704360D01*
X149732154Y-155715250D01*
X149673961Y-155695881D01*
X149632168Y-155650993D01*
X149617000Y-155591566D01*
X149617000Y-155431000D01*
X149569175Y-155431000D01*
X149530254Y-155435184D01*
X149503746Y-155435184D01*
X149464825Y-155431000D01*
X149417000Y-155431000D01*
X149417000Y-155591566D01*
X149401832Y-155650993D01*
X149360039Y-155695881D01*
X149301846Y-155715250D01*
X149241489Y-155704360D01*
X149193735Y-155665878D01*
X149124546Y-155573454D01*
X149119284Y-155569515D01*
X149016689Y-155492712D01*
X148980116Y-155448949D01*
X148978620Y-155442620D01*
X148967000Y-155431000D01*
X148919172Y-155431000D01*
X148882598Y-155434931D01*
X148856095Y-155434931D01*
X148818857Y-155430928D01*
X148814872Y-155430500D01*
X148269126Y-155430500D01*
X148230252Y-155434679D01*
X148203749Y-155434679D01*
X148177847Y-155431894D01*
X148164873Y-155430500D01*
X148164871Y-155430500D01*
X147619126Y-155430500D01*
X147580252Y-155434679D01*
X147553749Y-155434679D01*
X147527847Y-155431894D01*
X147514873Y-155430500D01*
X147514871Y-155430500D01*
X146969126Y-155430500D01*
X146930252Y-155434679D01*
X146903749Y-155434679D01*
X146877847Y-155431894D01*
X146864873Y-155430500D01*
X146864871Y-155430500D01*
X146319126Y-155430500D01*
X146277904Y-155434931D01*
X146251403Y-155434931D01*
X146214829Y-155431000D01*
X146167000Y-155431000D01*
X146155379Y-155442620D01*
X146153884Y-155448949D01*
X146117311Y-155492712D01*
X146009454Y-155573453D01*
X145985654Y-155605246D01*
X145940264Y-155665878D01*
X145892511Y-155704360D01*
X145832154Y-155715250D01*
X145773961Y-155695881D01*
X145732168Y-155650993D01*
X145717000Y-155591566D01*
X145717000Y-155431000D01*
X145669175Y-155431000D01*
X145630254Y-155435184D01*
X145603746Y-155435184D01*
X145564825Y-155431000D01*
X145517000Y-155431000D01*
X145517000Y-155591566D01*
X145501832Y-155650993D01*
X145460039Y-155695881D01*
X145401846Y-155715250D01*
X145341489Y-155704360D01*
X145293735Y-155665878D01*
X145224546Y-155573454D01*
X145219284Y-155569515D01*
X145116689Y-155492712D01*
X145080116Y-155448949D01*
X145078620Y-155442620D01*
X145067000Y-155431000D01*
X145019172Y-155431000D01*
X144982598Y-155434931D01*
X144956095Y-155434931D01*
X144918857Y-155430928D01*
X144914872Y-155430500D01*
X144369126Y-155430500D01*
X144330252Y-155434679D01*
X144303749Y-155434679D01*
X144277847Y-155431894D01*
X144264873Y-155430500D01*
X144264871Y-155430500D01*
X143719130Y-155430500D01*
X143659515Y-155436909D01*
X143524669Y-155487204D01*
X143409454Y-155573454D01*
X143323204Y-155688668D01*
X143272909Y-155823515D01*
X143272909Y-155823517D01*
X143268762Y-155862093D01*
X143266500Y-155883131D01*
X143266500Y-158204913D01*
X143265191Y-158222883D01*
X143261870Y-158245556D01*
X138572500Y-158245556D01*
X138572500Y-156226008D01*
X138581939Y-156178555D01*
X138608819Y-156138327D01*
X140847527Y-153899619D01*
X140887755Y-153872739D01*
X140935208Y-153863300D01*
X149418895Y-153863300D01*
X149440104Y-153865641D01*
X149442694Y-153865559D01*
X149442696Y-153865560D01*
X149512662Y-153863360D01*
X149516557Y-153863300D01*
X149545320Y-153863300D01*
X149545325Y-153863300D01*
X149549702Y-153862746D01*
X149561341Y-153861830D01*
X149606969Y-153860397D01*
X149627349Y-153854475D01*
X149646389Y-153850532D01*
X149667458Y-153847871D01*
X149709920Y-153831058D01*
X149720957Y-153827280D01*
X149764798Y-153814544D01*
X149783070Y-153803736D01*
X149800536Y-153795180D01*
X149820271Y-153787368D01*
X149857216Y-153760525D01*
X149866948Y-153754132D01*
X149906265Y-153730881D01*
X149921274Y-153715871D01*
X149936063Y-153703239D01*
X149953237Y-153690763D01*
X149982346Y-153655574D01*
X149990190Y-153646954D01*
X150891513Y-152745631D01*
X150908162Y-152732294D01*
X150909936Y-152730404D01*
X150909940Y-152730402D01*
X150957898Y-152679330D01*
X150960546Y-152676598D01*
X150980911Y-152656235D01*
X150983611Y-152652752D01*
X150991187Y-152643881D01*
X151022448Y-152610593D01*
X151032675Y-152591987D01*
X151043348Y-152575739D01*
X151056362Y-152558964D01*
X151074495Y-152517057D01*
X151079625Y-152506587D01*
X151101627Y-152466568D01*
X151106903Y-152446013D01*
X151113206Y-152427602D01*
X151121635Y-152408127D01*
X151128777Y-152363025D01*
X151131140Y-152351618D01*
X151142500Y-152307377D01*
X151142500Y-152286149D01*
X151144027Y-152266750D01*
X151146523Y-152250990D01*
X151147346Y-152245795D01*
X151143050Y-152200348D01*
X151142500Y-152188679D01*
X151142500Y-151105499D01*
X151159113Y-151043499D01*
X151204500Y-150998112D01*
X151266500Y-150981499D01*
X151414870Y-150981499D01*
X151414872Y-150981499D01*
X151474483Y-150975091D01*
X151609331Y-150924796D01*
X151724546Y-150838546D01*
X151810796Y-150723331D01*
X151861091Y-150588483D01*
X151867500Y-150528873D01*
X151867500Y-149606587D01*
X151867500Y-148417937D01*
X151881015Y-148361643D01*
X151918614Y-148317620D01*
X151998057Y-148259900D01*
X152032430Y-148234926D01*
X152152059Y-148102065D01*
X152241450Y-147947235D01*
X152296697Y-147777203D01*
X152315385Y-147599400D01*
X152296697Y-147421597D01*
X152257360Y-147300530D01*
X152241450Y-147251564D01*
X152152059Y-147096734D01*
X152032428Y-146963872D01*
X151887796Y-146858789D01*
X151724464Y-146786069D01*
X151549593Y-146748900D01*
X151549591Y-146748900D01*
X151370809Y-146748900D01*
X151370807Y-146748900D01*
X151183185Y-146788780D01*
X151183065Y-146788215D01*
X151142581Y-146796082D01*
X151088697Y-146781641D01*
X151046597Y-146745040D01*
X151039736Y-146735596D01*
X151033325Y-146725836D01*
X151010084Y-146686538D01*
X151005311Y-146681765D01*
X150995068Y-146671522D01*
X150982435Y-146656730D01*
X150981515Y-146655464D01*
X150969963Y-146639563D01*
X150962402Y-146633308D01*
X150934779Y-146610456D01*
X150926140Y-146602594D01*
X150380434Y-146056888D01*
X150367091Y-146040233D01*
X150314166Y-145990534D01*
X150311369Y-145987823D01*
X150291034Y-145967488D01*
X150287547Y-145964783D01*
X150278671Y-145957201D01*
X150245394Y-145925952D01*
X150226793Y-145915726D01*
X150210532Y-145905045D01*
X150193764Y-145892038D01*
X150151870Y-145873908D01*
X150141379Y-145868769D01*
X150101367Y-145846772D01*
X150080800Y-145841491D01*
X150062398Y-145835191D01*
X150042924Y-145826764D01*
X149997837Y-145819623D01*
X149986398Y-145817254D01*
X149942178Y-145805900D01*
X149942177Y-145805900D01*
X149920955Y-145805900D01*
X149901556Y-145804373D01*
X149880596Y-145801053D01*
X149880595Y-145801053D01*
X149858558Y-145803136D01*
X149835139Y-145805350D01*
X149823470Y-145805900D01*
X146033905Y-145805900D01*
X146012694Y-145803558D01*
X145940124Y-145805839D01*
X145936229Y-145805900D01*
X145907474Y-145805900D01*
X145903101Y-145806452D01*
X145891469Y-145807367D01*
X145845828Y-145808801D01*
X145825443Y-145814724D01*
X145806394Y-145818669D01*
X145785343Y-145821328D01*
X145742889Y-145838136D01*
X145731843Y-145841918D01*
X145687999Y-145854656D01*
X145669730Y-145865461D01*
X145652262Y-145874018D01*
X145640863Y-145878532D01*
X145632526Y-145881833D01*
X145595591Y-145908666D01*
X145585835Y-145915075D01*
X145546535Y-145938318D01*
X145531525Y-145953328D01*
X145516736Y-145965958D01*
X145499564Y-145978434D01*
X145470457Y-146013618D01*
X145462596Y-146022256D01*
X144892484Y-146592368D01*
X144875831Y-146605710D01*
X144826133Y-146658633D01*
X144823427Y-146661426D01*
X144803083Y-146681771D01*
X144800376Y-146685260D01*
X144792807Y-146694121D01*
X144761551Y-146727407D01*
X144751322Y-146746012D01*
X144740645Y-146762266D01*
X144739689Y-146763500D01*
X144727638Y-146779035D01*
X144712258Y-146814576D01*
X144675986Y-146862102D01*
X144621691Y-146887131D01*
X144561995Y-146883845D01*
X144510776Y-146853008D01*
X144492128Y-146834360D01*
X144480346Y-146820727D01*
X144468085Y-146804258D01*
X144466010Y-146801470D01*
X144450213Y-146788215D01*
X144428066Y-146769631D01*
X144420091Y-146762323D01*
X144416182Y-146758414D01*
X144416177Y-146758409D01*
X144391823Y-146739152D01*
X144389047Y-146736890D01*
X144346330Y-146701046D01*
X144331614Y-146688698D01*
X144331613Y-146688697D01*
X144330651Y-146687890D01*
X144314221Y-146677422D01*
X144245091Y-146645186D01*
X144241847Y-146643615D01*
X144173706Y-146609394D01*
X144155303Y-146602997D01*
X144153351Y-146602594D01*
X144080606Y-146587572D01*
X144077092Y-146586794D01*
X144002890Y-146569208D01*
X143983521Y-146567229D01*
X143907269Y-146569448D01*
X143903663Y-146569500D01*
X140148976Y-146569500D01*
X140086976Y-146552887D01*
X140041589Y-146507500D01*
X140024976Y-146445500D01*
X140024976Y-146089875D01*
X140034415Y-146042422D01*
X140061295Y-146002194D01*
X140072444Y-145991044D01*
X140161478Y-145846699D01*
X140163063Y-145841918D01*
X140214825Y-145685708D01*
X140224976Y-145586345D01*
X140224975Y-144989656D01*
X140224411Y-144984139D01*
X140214825Y-144890292D01*
X140161478Y-144729300D01*
X140072444Y-144584955D01*
X139952520Y-144465031D01*
X139808175Y-144375997D01*
X139647183Y-144322650D01*
X139552715Y-144313000D01*
X139547820Y-144312500D01*
X139001131Y-144312500D01*
X138901768Y-144322650D01*
X138740776Y-144375997D01*
X138596430Y-144465031D01*
X138586801Y-144474661D01*
X138531214Y-144506753D01*
X138467027Y-144506753D01*
X138411441Y-144474659D01*
X138402208Y-144465426D01*
X138257962Y-144376453D01*
X138097082Y-144323143D01*
X137997791Y-144313000D01*
X137974476Y-144313000D01*
X137974476Y-145414000D01*
X137957863Y-145476000D01*
X137912476Y-145521387D01*
X137850476Y-145538000D01*
X136774477Y-145538000D01*
X136774477Y-145586315D01*
X136784619Y-145685605D01*
X136837929Y-145846486D01*
X136926902Y-145990732D01*
X137046743Y-146110573D01*
X137182731Y-146194452D01*
X137225911Y-146239558D01*
X137241634Y-146299990D01*
X137225912Y-146360421D01*
X137182732Y-146405528D01*
X137033742Y-146497427D01*
X136913902Y-146617267D01*
X136824929Y-146761513D01*
X136771619Y-146922393D01*
X136761476Y-147021685D01*
X136761476Y-147070000D01*
X137837476Y-147070000D01*
X137899476Y-147086613D01*
X137944863Y-147132000D01*
X137961476Y-147194000D01*
X137961476Y-148294999D01*
X137984791Y-148294999D01*
X138084081Y-148284856D01*
X138244960Y-148231546D01*
X138389208Y-148142572D01*
X138398439Y-148133341D01*
X138454027Y-148101245D01*
X138518217Y-148101245D01*
X138573805Y-148133341D01*
X138583433Y-148142969D01*
X138727776Y-148232002D01*
X138727778Y-148232002D01*
X138727779Y-148232003D01*
X138888768Y-148285349D01*
X138988131Y-148295500D01*
X139534820Y-148295499D01*
X139634184Y-148285349D01*
X139795173Y-148232003D01*
X139796799Y-148231000D01*
X139939519Y-148142969D01*
X139975668Y-148106820D01*
X140015897Y-148079939D01*
X140063350Y-148070500D01*
X143180166Y-148070500D01*
X143239854Y-148085811D01*
X143284802Y-148127963D01*
X143303911Y-148186546D01*
X143297795Y-148218879D01*
X143301566Y-148219658D01*
X143283985Y-148304789D01*
X143283206Y-148308304D01*
X143266142Y-148380308D01*
X143264295Y-148398385D01*
X143264340Y-148399937D01*
X143264340Y-148399938D01*
X143265563Y-148441954D01*
X143266448Y-148472382D01*
X143266500Y-148475988D01*
X143266500Y-149648256D01*
X143266500Y-149648260D01*
X143266500Y-150054534D01*
X143266501Y-150355500D01*
X143249888Y-150417500D01*
X143204501Y-150462887D01*
X143142501Y-150479500D01*
X138312304Y-150479500D01*
X138291094Y-150477158D01*
X138218537Y-150479439D01*
X138214642Y-150479500D01*
X138185871Y-150479500D01*
X138181490Y-150480053D01*
X138169859Y-150480968D01*
X138124228Y-150482402D01*
X138103852Y-150488322D01*
X138084806Y-150492267D01*
X138063739Y-150494928D01*
X138021292Y-150511734D01*
X138010245Y-150515516D01*
X137966401Y-150528255D01*
X137948130Y-150539060D01*
X137930664Y-150547617D01*
X137910929Y-150555431D01*
X137874002Y-150582260D01*
X137864242Y-150588671D01*
X137824936Y-150611917D01*
X137809925Y-150626928D01*
X137795136Y-150639558D01*
X137777964Y-150652034D01*
X137748857Y-150687218D01*
X137740996Y-150695856D01*
X134576084Y-153860768D01*
X134559431Y-153874110D01*
X134509733Y-153927033D01*
X134507027Y-153929826D01*
X134486683Y-153950171D01*
X134483976Y-153953660D01*
X134476407Y-153962521D01*
X134445151Y-153995807D01*
X134434922Y-154014412D01*
X134424245Y-154030667D01*
X134411236Y-154047438D01*
X134393106Y-154089332D01*
X134387970Y-154099816D01*
X134365972Y-154139832D01*
X134360691Y-154160399D01*
X134354391Y-154178800D01*
X134345964Y-154198274D01*
X134338823Y-154243361D01*
X134336455Y-154254793D01*
X134326614Y-154293129D01*
X134325100Y-154299024D01*
X134325100Y-154320245D01*
X134323573Y-154339644D01*
X134320253Y-154360603D01*
X134324550Y-154406061D01*
X134325100Y-154417730D01*
X134325100Y-159546792D01*
X134315661Y-159594245D01*
X134288781Y-159634473D01*
X133878873Y-160044381D01*
X133838645Y-160071261D01*
X133791192Y-160080700D01*
X132665671Y-160080700D01*
X132600128Y-160061962D01*
X132554394Y-160011411D01*
X132542290Y-159944325D01*
X132567475Y-159880979D01*
X132622338Y-159840518D01*
X132647688Y-159831063D01*
X132758331Y-159789796D01*
X132873546Y-159703546D01*
X132959796Y-159588331D01*
X133010091Y-159453483D01*
X133016500Y-159393873D01*
X133016499Y-157598128D01*
X133010091Y-157538517D01*
X132959796Y-157403669D01*
X132873546Y-157288454D01*
X132758331Y-157202204D01*
X132667797Y-157168437D01*
X132626916Y-157153189D01*
X132576537Y-157118209D01*
X132549084Y-157063365D01*
X132551273Y-157002072D01*
X132582566Y-156949329D01*
X132704495Y-156827401D01*
X132840035Y-156633830D01*
X132939903Y-156419663D01*
X133001063Y-156191408D01*
X133021659Y-155956000D01*
X133001063Y-155720592D01*
X132939903Y-155492337D01*
X132840035Y-155278171D01*
X132704495Y-155084599D01*
X132537401Y-154917505D01*
X132351839Y-154787573D01*
X132312975Y-154743257D01*
X132298964Y-154686000D01*
X132312975Y-154628743D01*
X132351839Y-154584426D01*
X132537401Y-154454495D01*
X132704495Y-154287401D01*
X132840035Y-154093830D01*
X132939903Y-153879663D01*
X133001063Y-153651408D01*
X133021659Y-153416000D01*
X133001063Y-153180592D01*
X132939903Y-152952337D01*
X132840035Y-152738171D01*
X132704495Y-152544599D01*
X132537401Y-152377505D01*
X132351402Y-152247267D01*
X132312539Y-152202951D01*
X132298528Y-152145694D01*
X132312539Y-152088437D01*
X132351405Y-152044119D01*
X132537078Y-151914109D01*
X132704106Y-151747081D01*
X132839600Y-151553576D01*
X132939430Y-151339492D01*
X132996636Y-151126000D01*
X130335364Y-151126000D01*
X130392569Y-151339492D01*
X130492399Y-151553576D01*
X130627893Y-151747081D01*
X130794918Y-151914106D01*
X130980595Y-152044119D01*
X131019460Y-152088437D01*
X131033471Y-152145694D01*
X131019460Y-152202951D01*
X130980595Y-152247269D01*
X130857078Y-152333757D01*
X130805268Y-152370035D01*
X130794595Y-152377508D01*
X130627505Y-152544598D01*
X130491965Y-152738170D01*
X130392097Y-152952336D01*
X130330936Y-153180592D01*
X130310340Y-153415999D01*
X130330936Y-153651407D01*
X130372681Y-153807200D01*
X130392097Y-153879663D01*
X130491965Y-154093830D01*
X130627505Y-154287401D01*
X130794599Y-154454495D01*
X130980160Y-154584426D01*
X131019024Y-154628743D01*
X131033035Y-154686000D01*
X131019024Y-154743257D01*
X130980159Y-154787575D01*
X130794595Y-154917508D01*
X130627505Y-155084598D01*
X130491965Y-155278170D01*
X130392097Y-155492336D01*
X130330936Y-155720592D01*
X130310340Y-155956000D01*
X130330936Y-156191407D01*
X130351178Y-156266951D01*
X130392097Y-156419663D01*
X130491965Y-156633830D01*
X130627505Y-156827401D01*
X130627507Y-156827403D01*
X130627508Y-156827404D01*
X130749430Y-156949326D01*
X130780726Y-157002072D01*
X130782915Y-157063365D01*
X130755462Y-157118209D01*
X130705083Y-157153189D01*
X130573669Y-157202204D01*
X130458454Y-157288454D01*
X130372204Y-157403668D01*
X130321909Y-157538515D01*
X130321909Y-157538517D01*
X130315901Y-157594403D01*
X130315500Y-157598130D01*
X130315500Y-159393869D01*
X130321909Y-159453484D01*
X130339532Y-159500732D01*
X130372204Y-159588331D01*
X130458454Y-159703546D01*
X130573669Y-159789796D01*
X130681899Y-159830163D01*
X130709662Y-159840518D01*
X130764524Y-159880980D01*
X130789709Y-159944326D01*
X130777605Y-160011411D01*
X130731871Y-160061962D01*
X130666328Y-160080700D01*
X129708408Y-160080700D01*
X129660955Y-160071261D01*
X129620727Y-160044381D01*
X125742434Y-156166088D01*
X125729091Y-156149433D01*
X125676166Y-156099734D01*
X125673369Y-156097023D01*
X125653034Y-156076688D01*
X125649547Y-156073983D01*
X125640671Y-156066401D01*
X125607394Y-156035152D01*
X125588793Y-156024926D01*
X125572532Y-156014245D01*
X125555764Y-156001238D01*
X125513870Y-155983108D01*
X125503379Y-155977969D01*
X125463367Y-155955972D01*
X125442800Y-155950691D01*
X125424398Y-155944391D01*
X125404924Y-155935964D01*
X125359837Y-155928823D01*
X125348398Y-155926454D01*
X125304178Y-155915100D01*
X125304177Y-155915100D01*
X125282955Y-155915100D01*
X125263556Y-155913573D01*
X125242596Y-155910253D01*
X125242595Y-155910253D01*
X125220558Y-155912336D01*
X125197139Y-155914550D01*
X125185470Y-155915100D01*
X101794500Y-155915100D01*
X101732500Y-155898487D01*
X101687113Y-155853100D01*
X101670500Y-155791100D01*
X101670500Y-155514808D01*
X101679939Y-155467355D01*
X101706819Y-155427127D01*
X102065926Y-155068019D01*
X102106154Y-155041139D01*
X102153607Y-155031700D01*
X103993857Y-155031700D01*
X104007738Y-155032479D01*
X104013668Y-155033147D01*
X104023046Y-155034718D01*
X104029958Y-155034982D01*
X104190800Y-155053105D01*
X104364457Y-155033539D01*
X104529406Y-154975820D01*
X104677376Y-154882845D01*
X104800947Y-154759274D01*
X104893922Y-154611304D01*
X104932028Y-154502402D01*
X104961083Y-154455985D01*
X105007303Y-154426607D01*
X105061670Y-154420004D01*
X105083259Y-154422209D01*
X105162455Y-154430300D01*
X105759144Y-154430299D01*
X105858508Y-154420149D01*
X106019497Y-154366803D01*
X106115517Y-154307576D01*
X106159437Y-154290937D01*
X106206395Y-154291825D01*
X106387407Y-154330300D01*
X106387409Y-154330300D01*
X106566191Y-154330300D01*
X106566193Y-154330300D01*
X106741064Y-154293130D01*
X106741065Y-154293129D01*
X106741067Y-154293129D01*
X106904393Y-154220412D01*
X106906750Y-154218700D01*
X107009582Y-154143987D01*
X107049030Y-154115326D01*
X107168659Y-153982465D01*
X107258050Y-153827635D01*
X107313297Y-153657603D01*
X107331985Y-153479800D01*
X107313297Y-153301997D01*
X107275815Y-153186639D01*
X107258050Y-153131964D01*
X107168659Y-152977134D01*
X107061371Y-152857980D01*
X107049030Y-152844274D01*
X107049029Y-152844273D01*
X107049028Y-152844272D01*
X106904396Y-152739189D01*
X106741064Y-152666469D01*
X106566193Y-152629300D01*
X106566191Y-152629300D01*
X106489055Y-152629300D01*
X106432600Y-152615703D01*
X106388525Y-152577893D01*
X106366498Y-152524163D01*
X106371349Y-152466296D01*
X106425656Y-152302406D01*
X106435800Y-152203115D01*
X106435800Y-152179800D01*
X105334800Y-152179800D01*
X105272800Y-152163187D01*
X105227413Y-152117800D01*
X105210800Y-152055800D01*
X105210800Y-151813049D01*
X105220239Y-151765596D01*
X105247119Y-151725368D01*
X105256368Y-151716119D01*
X105296596Y-151689239D01*
X105344049Y-151679800D01*
X106435799Y-151679800D01*
X106435799Y-151656485D01*
X106425656Y-151557194D01*
X106372347Y-151396316D01*
X106349945Y-151359997D01*
X106331514Y-151297605D01*
X106347207Y-151234468D01*
X106392705Y-151187967D01*
X106455484Y-151170900D01*
X110636392Y-151170900D01*
X110683845Y-151180339D01*
X110724073Y-151207219D01*
X110793012Y-151276158D01*
X110822372Y-151322883D01*
X110878578Y-151483507D01*
X110971552Y-151631476D01*
X111095123Y-151755047D01*
X111243093Y-151848022D01*
X111408042Y-151905741D01*
X111581700Y-151925307D01*
X111755357Y-151905741D01*
X111891245Y-151858190D01*
X111949533Y-151852449D01*
X112003955Y-151874102D01*
X112042367Y-151918318D01*
X112056200Y-151975232D01*
X112056200Y-155397200D01*
X118956200Y-155397200D01*
X118956200Y-148586000D01*
X130335364Y-148586000D01*
X130392569Y-148799492D01*
X130492399Y-149013576D01*
X130627893Y-149207081D01*
X130794918Y-149374106D01*
X130981031Y-149504425D01*
X131019896Y-149548743D01*
X131033907Y-149606000D01*
X131019896Y-149663257D01*
X130981031Y-149707575D01*
X130794918Y-149837893D01*
X130627890Y-150004921D01*
X130492400Y-150198421D01*
X130392569Y-150412507D01*
X130335364Y-150625999D01*
X130335364Y-150626000D01*
X131416000Y-150626000D01*
X131416000Y-148586000D01*
X131916000Y-148586000D01*
X131916000Y-150626000D01*
X132996636Y-150626000D01*
X132996635Y-150625999D01*
X132939430Y-150412507D01*
X132839599Y-150198421D01*
X132704109Y-150004921D01*
X132537081Y-149837893D01*
X132350968Y-149707575D01*
X132312103Y-149663257D01*
X132298092Y-149606000D01*
X132312103Y-149548743D01*
X132350968Y-149504425D01*
X132537081Y-149374106D01*
X132704106Y-149207081D01*
X132839600Y-149013576D01*
X132939430Y-148799492D01*
X132996636Y-148586000D01*
X131916000Y-148586000D01*
X131416000Y-148586000D01*
X130335364Y-148586000D01*
X118956200Y-148586000D01*
X118956200Y-145796000D01*
X130310340Y-145796000D01*
X130330936Y-146031407D01*
X130364949Y-146158344D01*
X130392097Y-146259663D01*
X130491965Y-146473830D01*
X130627505Y-146667401D01*
X130794599Y-146834495D01*
X130980597Y-146964732D01*
X131019460Y-147009048D01*
X131033471Y-147066305D01*
X131019461Y-147123561D01*
X130980595Y-147167880D01*
X130794919Y-147297892D01*
X130627890Y-147464921D01*
X130492400Y-147658421D01*
X130392569Y-147872507D01*
X130335364Y-148085999D01*
X130335364Y-148086000D01*
X132996636Y-148086000D01*
X132996635Y-148085999D01*
X132939430Y-147872507D01*
X132839599Y-147658421D01*
X132777686Y-147570000D01*
X136761477Y-147570000D01*
X136761477Y-147618315D01*
X136771619Y-147717605D01*
X136824929Y-147878486D01*
X136913902Y-148022732D01*
X137033743Y-148142573D01*
X137177989Y-148231546D01*
X137338869Y-148284856D01*
X137438161Y-148295000D01*
X137461476Y-148295000D01*
X137461476Y-147570000D01*
X136761477Y-147570000D01*
X132777686Y-147570000D01*
X132704109Y-147464921D01*
X132537081Y-147297893D01*
X132351404Y-147167880D01*
X132312539Y-147123562D01*
X132298528Y-147066305D01*
X132312539Y-147009048D01*
X132351402Y-146964732D01*
X132537401Y-146834495D01*
X132704495Y-146667401D01*
X132840035Y-146473830D01*
X132939903Y-146259663D01*
X133001063Y-146031408D01*
X133021659Y-145796000D01*
X133012009Y-145685708D01*
X133001063Y-145560592D01*
X132996044Y-145541859D01*
X132939903Y-145332337D01*
X132840035Y-145118171D01*
X132783899Y-145038000D01*
X136774476Y-145038000D01*
X137474476Y-145038000D01*
X137474476Y-144313001D01*
X137451161Y-144313001D01*
X137351870Y-144323143D01*
X137190989Y-144376453D01*
X137046743Y-144465426D01*
X136926902Y-144585267D01*
X136837929Y-144729513D01*
X136784619Y-144890393D01*
X136774476Y-144989685D01*
X136774476Y-145038000D01*
X132783899Y-145038000D01*
X132704495Y-144924599D01*
X132537401Y-144757505D01*
X132343830Y-144621965D01*
X132129663Y-144522097D01*
X132064191Y-144504554D01*
X131901407Y-144460936D01*
X131666000Y-144440340D01*
X131430592Y-144460936D01*
X131202336Y-144522097D01*
X130988170Y-144621965D01*
X130794598Y-144757505D01*
X130627505Y-144924598D01*
X130491965Y-145118170D01*
X130392097Y-145332336D01*
X130330936Y-145560592D01*
X130310340Y-145796000D01*
X118956200Y-145796000D01*
X118956200Y-144145000D01*
X158032531Y-144145000D01*
X158052364Y-144371689D01*
X158111261Y-144591497D01*
X158207432Y-144797735D01*
X158337953Y-144984140D01*
X158498859Y-145145046D01*
X158685264Y-145275567D01*
X158685265Y-145275567D01*
X158685266Y-145275568D01*
X158891504Y-145371739D01*
X159111308Y-145430635D01*
X159196261Y-145438067D01*
X159281214Y-145445500D01*
X159281216Y-145445500D01*
X159394784Y-145445500D01*
X159394786Y-145445500D01*
X159462747Y-145439553D01*
X159564692Y-145430635D01*
X159784496Y-145371739D01*
X159990734Y-145275568D01*
X160177139Y-145145047D01*
X160338047Y-144984139D01*
X160468568Y-144797734D01*
X160564739Y-144591496D01*
X160623635Y-144371692D01*
X160643468Y-144145000D01*
X160623635Y-143918308D01*
X160564739Y-143698504D01*
X160468568Y-143492266D01*
X160460729Y-143481071D01*
X160338046Y-143305859D01*
X160177140Y-143144953D01*
X159990735Y-143014432D01*
X159784497Y-142918261D01*
X159564689Y-142859364D01*
X159394786Y-142844500D01*
X159394784Y-142844500D01*
X159281216Y-142844500D01*
X159281214Y-142844500D01*
X159111310Y-142859364D01*
X158891502Y-142918261D01*
X158685264Y-143014432D01*
X158498859Y-143144953D01*
X158337953Y-143305859D01*
X158207432Y-143492264D01*
X158111261Y-143698502D01*
X158052364Y-143918310D01*
X158032531Y-144145000D01*
X118956200Y-144145000D01*
X118956200Y-142697200D01*
X112056200Y-142697200D01*
X112056200Y-143168869D01*
X112039003Y-143231870D01*
X111992182Y-143277396D01*
X111928723Y-143292820D01*
X111866229Y-143273863D01*
X111769806Y-143213277D01*
X111604857Y-143155558D01*
X111431200Y-143135992D01*
X111257542Y-143155558D01*
X111092593Y-143213277D01*
X110944623Y-143306252D01*
X110821054Y-143429821D01*
X110770234Y-143510702D01*
X110725221Y-143553258D01*
X110665240Y-143568730D01*
X110605258Y-143553257D01*
X110560246Y-143510701D01*
X110541347Y-143480623D01*
X110417776Y-143357052D01*
X110269806Y-143264077D01*
X110104857Y-143206358D01*
X109931200Y-143186792D01*
X109757542Y-143206358D01*
X109592593Y-143264077D01*
X109444623Y-143357052D01*
X109321052Y-143480623D01*
X109228077Y-143628593D01*
X109170358Y-143793542D01*
X109150792Y-143967200D01*
X109170358Y-144140857D01*
X109228077Y-144305806D01*
X109261694Y-144359307D01*
X109280700Y-144425278D01*
X109280700Y-148272700D01*
X109264087Y-148334700D01*
X109218700Y-148380087D01*
X109156700Y-148396700D01*
X104682705Y-148396700D01*
X104661495Y-148394358D01*
X104588938Y-148396639D01*
X104585043Y-148396700D01*
X104556271Y-148396700D01*
X104551890Y-148397253D01*
X104540259Y-148398168D01*
X104494628Y-148399602D01*
X104474252Y-148405522D01*
X104455206Y-148409467D01*
X104434139Y-148412128D01*
X104391687Y-148428936D01*
X104380639Y-148432719D01*
X104336800Y-148445456D01*
X104318530Y-148456261D01*
X104301062Y-148464818D01*
X104289663Y-148469332D01*
X104281326Y-148472633D01*
X104244391Y-148499466D01*
X104234635Y-148505875D01*
X104195335Y-148529118D01*
X104180325Y-148544128D01*
X104165536Y-148556758D01*
X104148364Y-148569234D01*
X104119257Y-148604418D01*
X104111396Y-148613056D01*
X103882181Y-148842272D01*
X103832818Y-148872522D01*
X103775102Y-148877064D01*
X103721615Y-148854909D01*
X103684015Y-148810886D01*
X103670500Y-148754591D01*
X103670500Y-148668780D01*
X103662619Y-148608917D01*
X103655687Y-148556264D01*
X103655686Y-148556262D01*
X103654557Y-148547685D01*
X103654557Y-148515313D01*
X103655685Y-148506738D01*
X103655687Y-148506736D01*
X103670500Y-148394220D01*
X103670500Y-148168780D01*
X103660498Y-148092811D01*
X103655687Y-148056264D01*
X103643776Y-148027508D01*
X103597698Y-147916267D01*
X103505451Y-147796049D01*
X103385233Y-147703802D01*
X103385231Y-147703801D01*
X103245235Y-147645812D01*
X103132721Y-147631000D01*
X103132720Y-147631000D01*
X101794500Y-147631000D01*
X101732500Y-147614387D01*
X101687113Y-147569000D01*
X101670500Y-147507000D01*
X101670500Y-147458566D01*
X101684097Y-147402110D01*
X101721907Y-147358036D01*
X101775637Y-147336009D01*
X101833502Y-147340859D01*
X101888092Y-147358949D01*
X101987455Y-147369100D01*
X102584144Y-147369099D01*
X102683508Y-147358949D01*
X102844497Y-147305603D01*
X102856999Y-147297892D01*
X102988844Y-147216568D01*
X102999994Y-147205419D01*
X103040222Y-147178539D01*
X103087675Y-147169100D01*
X103261925Y-147169100D01*
X103309378Y-147178539D01*
X103349606Y-147205419D01*
X103360755Y-147216568D01*
X103505100Y-147305602D01*
X103505102Y-147305602D01*
X103505103Y-147305603D01*
X103666092Y-147358949D01*
X103765455Y-147369100D01*
X104362144Y-147369099D01*
X104461508Y-147358949D01*
X104622497Y-147305603D01*
X104749015Y-147227564D01*
X104805820Y-147209381D01*
X104864546Y-147219825D01*
X104891733Y-147231929D01*
X105066607Y-147269100D01*
X105066609Y-147269100D01*
X105245391Y-147269100D01*
X105245393Y-147269100D01*
X105420264Y-147231930D01*
X105420265Y-147231929D01*
X105420267Y-147231929D01*
X105583593Y-147159212D01*
X105601090Y-147146500D01*
X105624659Y-147129374D01*
X105728230Y-147054126D01*
X105847859Y-146921265D01*
X105937250Y-146766435D01*
X105992497Y-146596403D01*
X106011185Y-146418600D01*
X105992497Y-146240797D01*
X105950496Y-146111531D01*
X105937250Y-146070764D01*
X105847859Y-145915934D01*
X105732042Y-145787308D01*
X105728230Y-145783074D01*
X105728229Y-145783073D01*
X105728228Y-145783072D01*
X105583596Y-145677989D01*
X105420264Y-145605269D01*
X105245393Y-145568100D01*
X105245391Y-145568100D01*
X105092055Y-145568100D01*
X105035600Y-145554503D01*
X104991525Y-145516693D01*
X104969498Y-145462963D01*
X104974349Y-145405096D01*
X105028656Y-145241206D01*
X105038800Y-145141915D01*
X105038800Y-145118600D01*
X101310801Y-145118600D01*
X101310801Y-145121335D01*
X101294832Y-145182207D01*
X101251037Y-145227400D01*
X101190696Y-145245273D01*
X101134537Y-145247039D01*
X101130642Y-145247100D01*
X101101871Y-145247100D01*
X101097490Y-145247653D01*
X101085859Y-145248568D01*
X101040230Y-145250002D01*
X101019851Y-145255923D01*
X101000802Y-145259867D01*
X100995760Y-145260504D01*
X100966556Y-145264195D01*
X100906092Y-145256751D01*
X100856470Y-145221409D01*
X100829668Y-145166701D01*
X100832155Y-145105831D01*
X100863329Y-145053493D01*
X100940147Y-144976676D01*
X101033122Y-144828706D01*
X101090841Y-144663757D01*
X101090840Y-144663757D01*
X101094384Y-144653632D01*
X101128798Y-144602127D01*
X101183833Y-144573696D01*
X101245753Y-144575433D01*
X101299106Y-144606906D01*
X101310800Y-144618600D01*
X105038799Y-144618600D01*
X105038799Y-144595285D01*
X105028656Y-144495994D01*
X104975347Y-144335116D01*
X104899353Y-144211911D01*
X104881597Y-144160015D01*
X104887964Y-144105535D01*
X104917209Y-144059135D01*
X105266713Y-143709631D01*
X105283362Y-143696294D01*
X105285136Y-143694404D01*
X105285140Y-143694402D01*
X105333098Y-143643330D01*
X105335746Y-143640598D01*
X105356111Y-143620235D01*
X105358811Y-143616752D01*
X105366387Y-143607881D01*
X105397648Y-143574593D01*
X105407875Y-143555987D01*
X105418548Y-143539739D01*
X105431562Y-143522964D01*
X105449691Y-143481068D01*
X105454831Y-143470577D01*
X105464240Y-143453463D01*
X105476827Y-143430568D01*
X105482106Y-143410005D01*
X105488404Y-143391606D01*
X105496835Y-143372126D01*
X105503977Y-143327024D01*
X105506345Y-143315597D01*
X105508745Y-143306253D01*
X105514063Y-143285542D01*
X105517700Y-143271378D01*
X105517700Y-143250155D01*
X105519227Y-143230756D01*
X105519536Y-143228802D01*
X105522547Y-143209795D01*
X105518250Y-143164339D01*
X105517700Y-143152670D01*
X105517700Y-139960400D01*
X105534313Y-139898400D01*
X105579700Y-139853013D01*
X105641700Y-139836400D01*
X105667200Y-139836400D01*
X105667200Y-139036400D01*
X106067200Y-139036400D01*
X106067200Y-139836400D01*
X106115024Y-139836400D01*
X106174575Y-139829997D01*
X106323866Y-139774315D01*
X106367200Y-139766497D01*
X106410534Y-139774315D01*
X106559824Y-139829997D01*
X106619376Y-139836400D01*
X106667200Y-139836400D01*
X106667200Y-139036400D01*
X107067200Y-139036400D01*
X107067200Y-139836400D01*
X107115024Y-139836400D01*
X107174575Y-139829997D01*
X107323866Y-139774315D01*
X107367200Y-139766497D01*
X107410534Y-139774315D01*
X107559824Y-139829997D01*
X107619376Y-139836400D01*
X107667200Y-139836400D01*
X107667200Y-139036400D01*
X108067200Y-139036400D01*
X108067200Y-139836400D01*
X108115024Y-139836400D01*
X108174575Y-139829997D01*
X108309289Y-139779752D01*
X108424388Y-139693588D01*
X108510552Y-139578489D01*
X108560797Y-139443775D01*
X108567200Y-139384224D01*
X108567200Y-139036400D01*
X108067200Y-139036400D01*
X107667200Y-139036400D01*
X107067200Y-139036400D01*
X106667200Y-139036400D01*
X106067200Y-139036400D01*
X105667200Y-139036400D01*
X105667200Y-137836400D01*
X106067200Y-137836400D01*
X106067200Y-138636400D01*
X106667200Y-138636400D01*
X106667200Y-137836400D01*
X107067200Y-137836400D01*
X107067200Y-138636400D01*
X107667200Y-138636400D01*
X107667200Y-137836400D01*
X108067200Y-137836400D01*
X108067200Y-138636400D01*
X108567200Y-138636400D01*
X108567200Y-138288576D01*
X108560797Y-138229024D01*
X108510552Y-138094310D01*
X108424388Y-137979211D01*
X108309289Y-137893047D01*
X108174575Y-137842802D01*
X108115024Y-137836400D01*
X108067200Y-137836400D01*
X107667200Y-137836400D01*
X107619376Y-137836400D01*
X107559820Y-137842802D01*
X107410531Y-137898483D01*
X107367199Y-137906301D01*
X107323866Y-137898483D01*
X107174577Y-137842802D01*
X107115024Y-137836400D01*
X107067200Y-137836400D01*
X106667200Y-137836400D01*
X106619376Y-137836400D01*
X106559820Y-137842802D01*
X106410531Y-137898483D01*
X106367199Y-137906301D01*
X106323866Y-137898483D01*
X106174577Y-137842802D01*
X106115024Y-137836400D01*
X106067200Y-137836400D01*
X105667200Y-137836400D01*
X105619376Y-137836400D01*
X105559822Y-137842802D01*
X105411247Y-137898218D01*
X105367914Y-137906036D01*
X105324580Y-137898218D01*
X105309533Y-137892605D01*
X105309531Y-137892604D01*
X105174683Y-137842309D01*
X105115073Y-137835900D01*
X105115069Y-137835900D01*
X104619330Y-137835900D01*
X104559715Y-137842309D01*
X104410533Y-137897951D01*
X104367200Y-137905769D01*
X104323867Y-137897951D01*
X104174685Y-137842309D01*
X104154812Y-137840172D01*
X104115073Y-137835900D01*
X104115069Y-137835900D01*
X103619330Y-137835900D01*
X103559715Y-137842309D01*
X103410533Y-137897951D01*
X103367200Y-137905769D01*
X103323867Y-137897951D01*
X103174685Y-137842309D01*
X103154812Y-137840172D01*
X103115073Y-137835900D01*
X103115069Y-137835900D01*
X102619330Y-137835900D01*
X102559715Y-137842309D01*
X102410533Y-137897951D01*
X102367200Y-137905769D01*
X102323867Y-137897951D01*
X102174685Y-137842309D01*
X102154812Y-137840172D01*
X102115073Y-137835900D01*
X102115069Y-137835900D01*
X101619330Y-137835900D01*
X101559715Y-137842309D01*
X101410533Y-137897951D01*
X101367200Y-137905769D01*
X101323867Y-137897951D01*
X101174685Y-137842309D01*
X101154812Y-137840172D01*
X101115073Y-137835900D01*
X101115069Y-137835900D01*
X100619330Y-137835900D01*
X100559715Y-137842309D01*
X100410533Y-137897951D01*
X100367200Y-137905769D01*
X100323867Y-137897951D01*
X100174685Y-137842309D01*
X100154812Y-137840172D01*
X100115073Y-137835900D01*
X100115069Y-137835900D01*
X99619330Y-137835900D01*
X99559715Y-137842309D01*
X99410533Y-137897951D01*
X99367200Y-137905769D01*
X99323867Y-137897951D01*
X99174685Y-137842309D01*
X99154812Y-137840172D01*
X99115073Y-137835900D01*
X99115069Y-137835900D01*
X98619330Y-137835900D01*
X98559715Y-137842309D01*
X98410533Y-137897951D01*
X98367200Y-137905769D01*
X98323867Y-137897951D01*
X98174685Y-137842309D01*
X98154812Y-137840172D01*
X98115073Y-137835900D01*
X98115069Y-137835900D01*
X97619330Y-137835900D01*
X97559715Y-137842309D01*
X97410533Y-137897951D01*
X97367200Y-137905769D01*
X97323867Y-137897951D01*
X97174685Y-137842309D01*
X97154812Y-137840172D01*
X97115073Y-137835900D01*
X97115069Y-137835900D01*
X96619328Y-137835900D01*
X96569324Y-137841276D01*
X96516296Y-137835433D01*
X96470630Y-137807850D01*
X96451006Y-137778781D01*
X96450976Y-137778804D01*
X96441769Y-137766132D01*
X96441768Y-137766129D01*
X96414923Y-137729180D01*
X96408532Y-137719451D01*
X96385281Y-137680135D01*
X96370268Y-137665122D01*
X96357635Y-137650330D01*
X96345163Y-137633163D01*
X96309979Y-137604056D01*
X96301340Y-137596194D01*
X96278434Y-137573288D01*
X96265091Y-137556633D01*
X96212166Y-137506934D01*
X96209369Y-137504223D01*
X96189034Y-137483888D01*
X96185547Y-137481183D01*
X96176671Y-137473601D01*
X96143394Y-137442352D01*
X96124793Y-137432126D01*
X96108532Y-137421445D01*
X96091764Y-137408438D01*
X96068177Y-137398231D01*
X96049869Y-137390308D01*
X96039379Y-137385169D01*
X95999367Y-137363172D01*
X95978800Y-137357891D01*
X95960398Y-137351591D01*
X95940924Y-137343164D01*
X95895837Y-137336023D01*
X95884402Y-137333655D01*
X95859725Y-137327319D01*
X95831614Y-137320101D01*
X95786794Y-137298240D01*
X95754210Y-137260491D01*
X95739133Y-137212963D01*
X95730897Y-137134597D01*
X95697983Y-137033299D01*
X95675650Y-136964564D01*
X95600424Y-136834269D01*
X109166700Y-136834269D01*
X109173109Y-136893884D01*
X109185619Y-136927424D01*
X109223404Y-137028731D01*
X109309654Y-137143946D01*
X109424869Y-137230196D01*
X109559717Y-137280491D01*
X109619327Y-137286900D01*
X111715072Y-137286899D01*
X111774683Y-137280491D01*
X111831829Y-137259176D01*
X111894057Y-137252806D01*
X111951479Y-137277626D01*
X111989478Y-137327319D01*
X111998382Y-137389239D01*
X111995592Y-137414001D01*
X112015158Y-137587657D01*
X112072877Y-137752606D01*
X112165852Y-137900576D01*
X112289423Y-138024147D01*
X112437393Y-138117122D01*
X112602342Y-138174841D01*
X112776000Y-138194407D01*
X112939370Y-138176000D01*
X124170531Y-138176000D01*
X124190364Y-138402689D01*
X124249261Y-138622497D01*
X124345432Y-138828735D01*
X124475953Y-139015140D01*
X124636859Y-139176046D01*
X124823264Y-139306567D01*
X124823265Y-139306567D01*
X124823266Y-139306568D01*
X125029504Y-139402739D01*
X125249308Y-139461635D01*
X125334261Y-139469067D01*
X125419214Y-139476500D01*
X125419216Y-139476500D01*
X125532784Y-139476500D01*
X125532786Y-139476500D01*
X125600747Y-139470553D01*
X125702692Y-139461635D01*
X125922496Y-139402739D01*
X126128734Y-139306568D01*
X126315139Y-139176047D01*
X126476047Y-139015139D01*
X126494490Y-138988799D01*
X139275192Y-138988799D01*
X139294758Y-139162457D01*
X139352477Y-139327406D01*
X139445452Y-139475376D01*
X139569023Y-139598947D01*
X139716993Y-139691922D01*
X139881942Y-139749641D01*
X140055600Y-139769207D01*
X140229257Y-139749641D01*
X140394206Y-139691922D01*
X140542176Y-139598947D01*
X140665747Y-139475376D01*
X140758722Y-139327406D01*
X140816441Y-139162457D01*
X140836007Y-138988800D01*
X140820050Y-138847173D01*
X140816441Y-138815142D01*
X140758722Y-138650193D01*
X140665747Y-138502223D01*
X140542176Y-138378652D01*
X140394206Y-138285677D01*
X140229257Y-138227958D01*
X140055600Y-138208392D01*
X139881942Y-138227958D01*
X139716993Y-138285677D01*
X139569023Y-138378652D01*
X139445452Y-138502223D01*
X139352477Y-138650193D01*
X139294758Y-138815142D01*
X139275192Y-138988799D01*
X126494490Y-138988799D01*
X126606568Y-138828734D01*
X126702739Y-138622496D01*
X126761635Y-138402692D01*
X126781468Y-138176000D01*
X126761635Y-137949308D01*
X126702739Y-137729504D01*
X126606568Y-137523266D01*
X126601559Y-137516113D01*
X126476046Y-137336859D01*
X126315140Y-137175953D01*
X126128735Y-137045432D01*
X125922497Y-136949261D01*
X125702689Y-136890364D01*
X125532786Y-136875500D01*
X125532784Y-136875500D01*
X125419216Y-136875500D01*
X125419214Y-136875500D01*
X125249310Y-136890364D01*
X125029502Y-136949261D01*
X124823264Y-137045432D01*
X124636859Y-137175953D01*
X124475953Y-137336859D01*
X124345432Y-137523264D01*
X124249261Y-137729502D01*
X124190364Y-137949310D01*
X124170531Y-138176000D01*
X112939370Y-138176000D01*
X112949657Y-138174841D01*
X113114606Y-138117122D01*
X113262576Y-138024147D01*
X113386147Y-137900576D01*
X113479122Y-137752606D01*
X113536841Y-137587657D01*
X113556407Y-137414000D01*
X113554630Y-137398232D01*
X113536841Y-137240342D01*
X113479122Y-137075393D01*
X113386147Y-136927423D01*
X113262576Y-136803852D01*
X113114606Y-136710877D01*
X112949657Y-136653158D01*
X112776000Y-136633592D01*
X112602342Y-136653158D01*
X112437397Y-136710876D01*
X112357670Y-136760971D01*
X112295176Y-136779927D01*
X112231717Y-136764503D01*
X112184896Y-136718977D01*
X112167699Y-136655979D01*
X112167699Y-135835200D01*
X137029200Y-135835200D01*
X137029200Y-136483024D01*
X137035602Y-136542575D01*
X137085847Y-136677289D01*
X137172011Y-136792388D01*
X137287110Y-136878552D01*
X137421824Y-136928797D01*
X137481376Y-136935200D01*
X138129200Y-136935200D01*
X138629200Y-136935200D01*
X139277024Y-136935200D01*
X139336575Y-136928797D01*
X139471289Y-136878552D01*
X139586388Y-136792388D01*
X139672552Y-136677289D01*
X139721622Y-136545728D01*
X139756601Y-136495349D01*
X139811446Y-136467896D01*
X139872739Y-136470085D01*
X139925485Y-136501381D01*
X140047799Y-136623695D01*
X140241370Y-136759235D01*
X140455537Y-136859103D01*
X140683792Y-136920263D01*
X140919200Y-136940859D01*
X141154608Y-136920263D01*
X141382863Y-136859103D01*
X141597030Y-136759235D01*
X141790601Y-136623695D01*
X141957695Y-136456601D01*
X142093235Y-136263030D01*
X142193103Y-136048863D01*
X142208446Y-135991600D01*
X144940815Y-135991600D01*
X144959503Y-136169404D01*
X145014749Y-136339435D01*
X145104140Y-136494265D01*
X145223771Y-136627127D01*
X145368403Y-136732210D01*
X145368406Y-136732211D01*
X145368407Y-136732212D01*
X145429102Y-136759235D01*
X145531735Y-136804930D01*
X145706607Y-136842100D01*
X145706609Y-136842100D01*
X145885391Y-136842100D01*
X145885393Y-136842100D01*
X146060264Y-136804930D01*
X146060265Y-136804929D01*
X146060267Y-136804929D01*
X146223593Y-136732212D01*
X146252957Y-136710878D01*
X146301242Y-136675796D01*
X146368230Y-136627126D01*
X146487859Y-136494265D01*
X146577250Y-136339435D01*
X146632497Y-136169403D01*
X146651185Y-135991600D01*
X146640086Y-135886000D01*
X147087600Y-135886000D01*
X147087600Y-136533824D01*
X147094002Y-136593375D01*
X147144247Y-136728089D01*
X147230411Y-136843188D01*
X147345510Y-136929352D01*
X147480224Y-136979597D01*
X147539776Y-136986000D01*
X148187600Y-136986000D01*
X148687600Y-136986000D01*
X149335424Y-136986000D01*
X149394975Y-136979597D01*
X149529689Y-136929352D01*
X149644788Y-136843188D01*
X149730952Y-136728089D01*
X149780022Y-136596528D01*
X149815001Y-136546149D01*
X149869846Y-136518696D01*
X149931139Y-136520885D01*
X149983885Y-136552181D01*
X150106199Y-136674495D01*
X150299770Y-136810035D01*
X150513937Y-136909903D01*
X150742192Y-136971063D01*
X150977600Y-136991659D01*
X151213008Y-136971063D01*
X151441263Y-136909903D01*
X151655430Y-136810035D01*
X151849001Y-136674495D01*
X152016095Y-136507401D01*
X152146026Y-136321839D01*
X152190343Y-136282975D01*
X152247600Y-136268964D01*
X152304857Y-136282975D01*
X152349173Y-136321839D01*
X152479105Y-136507401D01*
X152646199Y-136674495D01*
X152839770Y-136810035D01*
X153053937Y-136909903D01*
X153282192Y-136971063D01*
X153517600Y-136991659D01*
X153753008Y-136971063D01*
X153981263Y-136909903D01*
X154195430Y-136810035D01*
X154389001Y-136674495D01*
X154556095Y-136507401D01*
X154686026Y-136321839D01*
X154730343Y-136282975D01*
X154787600Y-136268964D01*
X154844857Y-136282975D01*
X154889173Y-136321839D01*
X155019105Y-136507401D01*
X155186199Y-136674495D01*
X155379770Y-136810035D01*
X155593937Y-136909903D01*
X155822192Y-136971063D01*
X156057600Y-136991659D01*
X156293008Y-136971063D01*
X156521263Y-136909903D01*
X156735430Y-136810035D01*
X156929001Y-136674495D01*
X157096095Y-136507401D01*
X157226026Y-136321839D01*
X157270343Y-136282975D01*
X157327600Y-136268964D01*
X157384857Y-136282975D01*
X157429173Y-136321839D01*
X157559105Y-136507401D01*
X157726199Y-136674495D01*
X157919770Y-136810035D01*
X158133937Y-136909903D01*
X158362192Y-136971063D01*
X158597600Y-136991659D01*
X158833008Y-136971063D01*
X159061263Y-136909903D01*
X159275430Y-136810035D01*
X159469001Y-136674495D01*
X159636095Y-136507401D01*
X159771635Y-136313830D01*
X159871503Y-136099663D01*
X159932663Y-135871408D01*
X159953259Y-135636000D01*
X159948814Y-135585200D01*
X159932663Y-135400592D01*
X159926855Y-135378915D01*
X159871503Y-135172337D01*
X159771635Y-134958171D01*
X159636095Y-134764599D01*
X159469001Y-134597505D01*
X159275430Y-134461965D01*
X159061263Y-134362097D01*
X158991876Y-134343505D01*
X158833007Y-134300936D01*
X158597600Y-134280340D01*
X158362192Y-134300936D01*
X158133936Y-134362097D01*
X157919770Y-134461965D01*
X157726198Y-134597505D01*
X157559105Y-134764598D01*
X157429175Y-134950159D01*
X157384857Y-134989025D01*
X157327600Y-135003036D01*
X157270343Y-134989025D01*
X157226025Y-134950159D01*
X157129494Y-134812298D01*
X157096095Y-134764599D01*
X156929001Y-134597505D01*
X156735430Y-134461965D01*
X156521263Y-134362097D01*
X156451876Y-134343505D01*
X156293007Y-134300936D01*
X156057600Y-134280340D01*
X155822192Y-134300936D01*
X155593936Y-134362097D01*
X155379770Y-134461965D01*
X155186198Y-134597505D01*
X155019105Y-134764598D01*
X154889175Y-134950159D01*
X154844857Y-134989025D01*
X154787600Y-135003036D01*
X154730343Y-134989025D01*
X154686025Y-134950159D01*
X154589494Y-134812298D01*
X154556095Y-134764599D01*
X154389001Y-134597505D01*
X154195430Y-134461965D01*
X153981263Y-134362097D01*
X153911876Y-134343505D01*
X153753007Y-134300936D01*
X153517600Y-134280340D01*
X153282192Y-134300936D01*
X153053936Y-134362097D01*
X152839770Y-134461965D01*
X152646198Y-134597505D01*
X152479105Y-134764598D01*
X152349175Y-134950159D01*
X152304857Y-134989025D01*
X152247600Y-135003036D01*
X152190343Y-134989025D01*
X152146025Y-134950159D01*
X152049494Y-134812298D01*
X152016095Y-134764599D01*
X151849001Y-134597505D01*
X151655430Y-134461965D01*
X151441263Y-134362097D01*
X151371876Y-134343505D01*
X151213007Y-134300936D01*
X150977600Y-134280340D01*
X150742192Y-134300936D01*
X150513936Y-134362097D01*
X150299770Y-134461965D01*
X150106201Y-134597503D01*
X149983885Y-134719819D01*
X149931139Y-134751114D01*
X149869846Y-134753303D01*
X149815001Y-134725850D01*
X149780022Y-134675471D01*
X149730952Y-134543911D01*
X149644788Y-134428811D01*
X149529689Y-134342647D01*
X149394975Y-134292402D01*
X149335424Y-134286000D01*
X148687600Y-134286000D01*
X148687600Y-136986000D01*
X148187600Y-136986000D01*
X148187600Y-135886000D01*
X147087600Y-135886000D01*
X146640086Y-135886000D01*
X146632497Y-135813797D01*
X146577250Y-135643765D01*
X146577250Y-135643764D01*
X146487859Y-135488934D01*
X146395176Y-135386000D01*
X147087600Y-135386000D01*
X148187600Y-135386000D01*
X148187600Y-134286000D01*
X147539776Y-134286000D01*
X147480224Y-134292402D01*
X147345510Y-134342647D01*
X147230411Y-134428811D01*
X147144247Y-134543910D01*
X147094002Y-134678624D01*
X147087600Y-134738176D01*
X147087600Y-135386000D01*
X146395176Y-135386000D01*
X146368228Y-135356072D01*
X146223596Y-135250989D01*
X146060264Y-135178269D01*
X145885393Y-135141100D01*
X145885391Y-135141100D01*
X145706609Y-135141100D01*
X145706607Y-135141100D01*
X145531735Y-135178269D01*
X145368408Y-135250987D01*
X145223768Y-135356074D01*
X145104140Y-135488934D01*
X145014749Y-135643764D01*
X144959503Y-135813795D01*
X144940815Y-135991600D01*
X142208446Y-135991600D01*
X142254263Y-135820608D01*
X142274859Y-135585200D01*
X142254263Y-135349792D01*
X142193103Y-135121537D01*
X142093235Y-134907371D01*
X141957695Y-134713799D01*
X141790601Y-134546705D01*
X141597030Y-134411165D01*
X141382863Y-134311297D01*
X141305810Y-134290651D01*
X141154607Y-134250136D01*
X140919200Y-134229540D01*
X140683792Y-134250136D01*
X140455536Y-134311297D01*
X140241370Y-134411165D01*
X140047801Y-134546703D01*
X139925485Y-134669019D01*
X139872739Y-134700314D01*
X139811446Y-134702503D01*
X139756601Y-134675050D01*
X139721622Y-134624671D01*
X139672552Y-134493111D01*
X139586388Y-134378011D01*
X139471289Y-134291847D01*
X139336575Y-134241602D01*
X139277024Y-134235200D01*
X138629200Y-134235200D01*
X138629200Y-136935200D01*
X138129200Y-136935200D01*
X138129200Y-135835200D01*
X137029200Y-135835200D01*
X112167699Y-135835200D01*
X112167699Y-135438528D01*
X112161291Y-135378917D01*
X112144986Y-135335200D01*
X137029200Y-135335200D01*
X138129200Y-135335200D01*
X138129200Y-134235200D01*
X137481376Y-134235200D01*
X137421824Y-134241602D01*
X137287110Y-134291847D01*
X137172011Y-134378011D01*
X137085847Y-134493110D01*
X137035602Y-134627824D01*
X137029200Y-134687376D01*
X137029200Y-135335200D01*
X112144986Y-135335200D01*
X112110996Y-135244069D01*
X112024746Y-135128854D01*
X111909531Y-135042604D01*
X111774683Y-134992309D01*
X111715073Y-134985900D01*
X111715069Y-134985900D01*
X109619330Y-134985900D01*
X109559715Y-134992309D01*
X109424869Y-135042604D01*
X109309654Y-135128854D01*
X109223404Y-135244068D01*
X109173109Y-135378916D01*
X109166700Y-135438530D01*
X109166700Y-136834269D01*
X95600424Y-136834269D01*
X95586259Y-136809734D01*
X95488298Y-136700939D01*
X95466630Y-136676874D01*
X95466629Y-136676873D01*
X95466628Y-136676872D01*
X95321996Y-136571789D01*
X95158664Y-136499069D01*
X94983793Y-136461900D01*
X94983791Y-136461900D01*
X94805009Y-136461900D01*
X94805007Y-136461900D01*
X94630135Y-136499069D01*
X94466808Y-136571787D01*
X94322168Y-136676874D01*
X94202540Y-136809734D01*
X94113149Y-136964564D01*
X94057903Y-137134595D01*
X94047321Y-137235278D01*
X94022768Y-137297288D01*
X93969644Y-137337610D01*
X93969344Y-137337728D01*
X93969342Y-137337729D01*
X93955612Y-137343165D01*
X93926890Y-137354536D01*
X93915843Y-137358318D01*
X93871998Y-137371056D01*
X93853730Y-137381860D01*
X93836264Y-137390417D01*
X93816529Y-137398231D01*
X93779602Y-137425060D01*
X93769842Y-137431471D01*
X93730536Y-137454717D01*
X93715525Y-137469728D01*
X93700736Y-137482358D01*
X93683564Y-137494834D01*
X93654457Y-137530018D01*
X93646596Y-137538656D01*
X93467684Y-137717568D01*
X93451031Y-137730910D01*
X93401334Y-137783832D01*
X93398626Y-137786627D01*
X93378287Y-137806966D01*
X93375586Y-137810449D01*
X93368001Y-137819330D01*
X93358331Y-137829628D01*
X93319128Y-137857686D01*
X93272187Y-137868673D01*
X93224604Y-137860928D01*
X93174685Y-137842309D01*
X93154812Y-137840172D01*
X93115073Y-137835900D01*
X93115069Y-137835900D01*
X92619330Y-137835900D01*
X92559715Y-137842309D01*
X92424869Y-137892604D01*
X92309654Y-137978854D01*
X92223404Y-138094068D01*
X92173466Y-138227958D01*
X92173109Y-138228917D01*
X92167007Y-138285678D01*
X92166700Y-138288530D01*
X92166700Y-139384269D01*
X92168686Y-139402738D01*
X92173109Y-139443883D01*
X92223404Y-139578731D01*
X92309654Y-139693946D01*
X92424869Y-139780196D01*
X92559717Y-139830491D01*
X92619327Y-139836900D01*
X92776192Y-139836899D01*
X92832485Y-139850414D01*
X92876509Y-139888013D01*
X92898664Y-139941501D01*
X92894122Y-139999217D01*
X92863872Y-140048580D01*
X92577600Y-140334852D01*
X92529779Y-140364590D01*
X92473736Y-140370110D01*
X92421031Y-140350275D01*
X92395894Y-140323438D01*
X92394581Y-140324621D01*
X92266228Y-140182072D01*
X92121596Y-140076989D01*
X91958264Y-140004269D01*
X91783393Y-139967100D01*
X91783391Y-139967100D01*
X91604609Y-139967100D01*
X91604607Y-139967100D01*
X91429735Y-140004269D01*
X91266408Y-140076987D01*
X91121768Y-140182074D01*
X91002140Y-140314934D01*
X90912749Y-140469764D01*
X90857503Y-140639795D01*
X90838815Y-140817600D01*
X90857503Y-140995404D01*
X90912749Y-141165435D01*
X91002140Y-141320265D01*
X91121771Y-141453127D01*
X91266403Y-141558210D01*
X91266406Y-141558211D01*
X91266407Y-141558212D01*
X91427136Y-141629772D01*
X91465898Y-141656914D01*
X91491671Y-141696601D01*
X91500700Y-141743052D01*
X91500700Y-148656895D01*
X91498358Y-148678104D01*
X91500639Y-148750662D01*
X91500700Y-148754557D01*
X91500700Y-148783326D01*
X91501253Y-148787707D01*
X91502168Y-148799340D01*
X91503602Y-148844969D01*
X91509523Y-148865350D01*
X91513467Y-148884395D01*
X91516128Y-148905459D01*
X91532937Y-148947915D01*
X91536720Y-148958963D01*
X91549456Y-149002800D01*
X91560261Y-149021070D01*
X91568821Y-149038543D01*
X91574666Y-149053307D01*
X91576632Y-149058271D01*
X91583362Y-149067534D01*
X91603467Y-149095208D01*
X91609873Y-149104960D01*
X91633119Y-149144265D01*
X91633121Y-149144267D01*
X91648125Y-149159271D01*
X91660762Y-149174067D01*
X91664349Y-149179003D01*
X91673237Y-149191237D01*
X91708412Y-149220336D01*
X91717054Y-149228200D01*
X92169864Y-149681010D01*
X92183212Y-149697669D01*
X92236131Y-149747364D01*
X92238928Y-149750075D01*
X92259262Y-149770409D01*
X92262743Y-149773109D01*
X92271626Y-149780695D01*
X92304907Y-149811948D01*
X92323498Y-149822168D01*
X92339762Y-149832851D01*
X92356535Y-149845862D01*
X92398438Y-149863995D01*
X92408926Y-149869133D01*
X92448932Y-149891127D01*
X92448934Y-149891127D01*
X92462050Y-149898338D01*
X92508645Y-149943210D01*
X92526302Y-150005442D01*
X92510215Y-150068098D01*
X92464761Y-150114127D01*
X92402312Y-150131000D01*
X91463108Y-150131000D01*
X91415655Y-150121561D01*
X91375427Y-150094681D01*
X90552019Y-149271273D01*
X90525139Y-149231045D01*
X90515700Y-149183592D01*
X90515700Y-141360304D01*
X90518041Y-141339094D01*
X90517449Y-141320265D01*
X90515760Y-141266536D01*
X90515700Y-141262642D01*
X90515700Y-141233881D01*
X90515700Y-141233875D01*
X90515146Y-141229495D01*
X90514230Y-141217854D01*
X90512797Y-141172230D01*
X90506875Y-141151847D01*
X90502932Y-141132810D01*
X90500271Y-141111742D01*
X90483466Y-141069298D01*
X90479681Y-141058244D01*
X90466944Y-141014402D01*
X90466944Y-141014401D01*
X90456134Y-140996122D01*
X90447580Y-140978662D01*
X90439768Y-140958929D01*
X90412923Y-140921980D01*
X90406532Y-140912251D01*
X90383281Y-140872935D01*
X90368268Y-140857922D01*
X90355635Y-140843130D01*
X90343163Y-140825963D01*
X90307979Y-140796856D01*
X90299340Y-140788994D01*
X89790287Y-140279941D01*
X89760927Y-140233215D01*
X89704722Y-140072593D01*
X89611747Y-139924623D01*
X89488176Y-139801052D01*
X89340207Y-139708078D01*
X89179583Y-139651872D01*
X89132858Y-139622512D01*
X84746834Y-135236488D01*
X84733491Y-135219833D01*
X84680566Y-135170134D01*
X84677769Y-135167423D01*
X84657434Y-135147088D01*
X84653947Y-135144383D01*
X84645071Y-135136801D01*
X84611794Y-135105552D01*
X84593193Y-135095326D01*
X84576932Y-135084645D01*
X84560164Y-135071638D01*
X84523893Y-135055942D01*
X84518269Y-135053508D01*
X84507779Y-135048369D01*
X84467767Y-135026372D01*
X84447200Y-135021091D01*
X84428798Y-135014791D01*
X84409324Y-135006364D01*
X84364237Y-134999223D01*
X84352798Y-134996854D01*
X84308578Y-134985500D01*
X84308577Y-134985500D01*
X84287355Y-134985500D01*
X84267956Y-134983973D01*
X84246996Y-134980653D01*
X84246995Y-134980653D01*
X84224958Y-134982736D01*
X84201539Y-134984950D01*
X84189870Y-134985500D01*
X82835377Y-134985500D01*
X82826412Y-134985500D01*
X82803178Y-134983304D01*
X82794369Y-134981623D01*
X82739430Y-134985080D01*
X82736656Y-134985255D01*
X82728871Y-134985500D01*
X69596878Y-134985500D01*
X69530907Y-134966494D01*
X69477406Y-134932877D01*
X69312457Y-134875158D01*
X69138799Y-134855592D01*
X68965142Y-134875158D01*
X68800193Y-134932877D01*
X68652223Y-135025852D01*
X68528652Y-135149423D01*
X68435677Y-135297393D01*
X68377958Y-135462342D01*
X68358392Y-135636000D01*
X68377958Y-135809657D01*
X68435677Y-135974606D01*
X68528652Y-136122576D01*
X68652223Y-136246147D01*
X68800193Y-136339122D01*
X68965142Y-136396841D01*
X69138800Y-136416407D01*
X69312457Y-136396841D01*
X69477406Y-136339122D01*
X69477406Y-136339121D01*
X69530907Y-136305506D01*
X69596878Y-136286500D01*
X81653700Y-136286500D01*
X81715700Y-136303113D01*
X81761087Y-136348500D01*
X81777700Y-136410500D01*
X81777700Y-136772944D01*
X81787850Y-136872307D01*
X81841197Y-137033299D01*
X81930231Y-137177644D01*
X81939859Y-137187272D01*
X81971953Y-137242858D01*
X81971953Y-137307045D01*
X81939861Y-137362632D01*
X81930626Y-137371866D01*
X81841653Y-137516113D01*
X81788343Y-137676993D01*
X81778200Y-137776285D01*
X81778200Y-137799600D01*
X83728199Y-137799600D01*
X83728199Y-137776285D01*
X83718056Y-137676994D01*
X83664746Y-137516113D01*
X83575774Y-137371869D01*
X83566541Y-137362636D01*
X83534445Y-137307048D01*
X83534445Y-137242858D01*
X83566539Y-137187272D01*
X83576168Y-137177644D01*
X83665203Y-137033297D01*
X83718549Y-136872308D01*
X83728700Y-136772945D01*
X83728699Y-136410499D01*
X83745312Y-136348500D01*
X83790699Y-136303113D01*
X83852699Y-136286500D01*
X83905592Y-136286500D01*
X83953045Y-136295939D01*
X83993273Y-136322819D01*
X88212912Y-140542458D01*
X88242272Y-140589183D01*
X88298478Y-140749807D01*
X88391452Y-140897776D01*
X88515023Y-141021347D01*
X88662993Y-141114322D01*
X88823615Y-141170527D01*
X88870341Y-141199887D01*
X89178381Y-141507927D01*
X89205261Y-141548155D01*
X89214700Y-141595608D01*
X89214700Y-147841885D01*
X89201185Y-147898180D01*
X89163585Y-147942203D01*
X89110098Y-147964358D01*
X89052382Y-147959816D01*
X89003019Y-147929566D01*
X88916341Y-147842888D01*
X88902998Y-147826233D01*
X88850073Y-147776534D01*
X88847276Y-147773823D01*
X88826941Y-147753488D01*
X88823454Y-147750783D01*
X88814578Y-147743201D01*
X88781301Y-147711952D01*
X88762700Y-147701726D01*
X88746439Y-147691045D01*
X88729721Y-147678077D01*
X88729671Y-147678038D01*
X88729669Y-147678037D01*
X88687774Y-147659907D01*
X88677284Y-147654768D01*
X88637273Y-147632771D01*
X88616714Y-147627493D01*
X88598403Y-147621233D01*
X88598075Y-147621091D01*
X88597721Y-147620938D01*
X88546678Y-147580154D01*
X88523451Y-147519087D01*
X88534487Y-147454693D01*
X88606375Y-147300530D01*
X88663007Y-147089177D01*
X88682077Y-146871200D01*
X88663007Y-146653223D01*
X88606375Y-146441870D01*
X88513902Y-146243562D01*
X88388398Y-146064323D01*
X88319417Y-145995342D01*
X88286440Y-145936257D01*
X88289391Y-145868658D01*
X88316349Y-145787308D01*
X88326500Y-145687945D01*
X88326499Y-145091256D01*
X88316349Y-144991892D01*
X88263003Y-144830903D01*
X88263002Y-144830902D01*
X88263002Y-144830900D01*
X88173968Y-144686555D01*
X88054044Y-144566631D01*
X87909699Y-144477597D01*
X87748707Y-144424250D01*
X87654239Y-144414600D01*
X87649344Y-144414100D01*
X87102655Y-144414100D01*
X87003292Y-144424250D01*
X86842300Y-144477597D01*
X86697954Y-144566631D01*
X86688325Y-144576261D01*
X86632738Y-144608353D01*
X86568551Y-144608353D01*
X86512965Y-144576259D01*
X86503732Y-144567026D01*
X86359486Y-144478053D01*
X86198606Y-144424743D01*
X86099315Y-144414600D01*
X86076000Y-144414600D01*
X86076000Y-146364599D01*
X86105631Y-146364599D01*
X86105631Y-146366859D01*
X86152472Y-146373422D01*
X86200721Y-146408089D01*
X86227305Y-146461220D01*
X86226124Y-146520619D01*
X86190592Y-146653225D01*
X86171522Y-146871200D01*
X86190592Y-147089174D01*
X86247225Y-147300531D01*
X86339698Y-147498839D01*
X86424465Y-147619899D01*
X86445581Y-147673050D01*
X86440596Y-147730025D01*
X86410572Y-147778703D01*
X86361895Y-147808728D01*
X86296499Y-147830398D01*
X86152154Y-147919431D01*
X86142525Y-147929061D01*
X86086938Y-147961153D01*
X86022751Y-147961153D01*
X85967165Y-147929059D01*
X85957932Y-147919826D01*
X85813686Y-147830853D01*
X85652806Y-147777543D01*
X85553515Y-147767400D01*
X85530200Y-147767400D01*
X85530200Y-149717399D01*
X85553515Y-149717399D01*
X85652805Y-149707256D01*
X85813684Y-149653946D01*
X85957932Y-149564972D01*
X85967163Y-149555741D01*
X86022751Y-149523645D01*
X86086941Y-149523645D01*
X86142529Y-149555741D01*
X86152157Y-149565369D01*
X86296500Y-149654402D01*
X86296502Y-149654402D01*
X86296503Y-149654403D01*
X86457492Y-149707749D01*
X86556855Y-149717900D01*
X86639300Y-149717900D01*
X86701300Y-149734513D01*
X86746687Y-149779900D01*
X86763300Y-149841900D01*
X86763300Y-150624659D01*
X86749289Y-150681916D01*
X86710423Y-150726233D01*
X86667079Y-150756582D01*
X86619921Y-150789603D01*
X86465202Y-150944322D01*
X86339698Y-151123561D01*
X86247225Y-151321868D01*
X86190592Y-151533225D01*
X86171522Y-151751199D01*
X86190592Y-151969174D01*
X86247225Y-152180531D01*
X86277659Y-152245796D01*
X86339698Y-152378839D01*
X86414787Y-152486078D01*
X86436947Y-152549090D01*
X86423201Y-152614457D01*
X86377540Y-152663209D01*
X86313212Y-152681200D01*
X85751026Y-152681200D01*
X85652514Y-152691263D01*
X85492914Y-152744150D01*
X85349549Y-152832579D01*
X85309618Y-152859261D01*
X85262165Y-152868700D01*
X85166141Y-152868700D01*
X85115706Y-152857980D01*
X84998664Y-152805869D01*
X84823793Y-152768700D01*
X84823791Y-152768700D01*
X84645009Y-152768700D01*
X84645007Y-152768700D01*
X84470135Y-152805869D01*
X84306808Y-152878587D01*
X84162168Y-152983674D01*
X84042540Y-153116534D01*
X83953149Y-153271364D01*
X83897903Y-153441395D01*
X83879215Y-153619200D01*
X83897903Y-153797004D01*
X83953149Y-153967035D01*
X84042540Y-154121865D01*
X84162171Y-154254727D01*
X84306803Y-154359810D01*
X84306806Y-154359811D01*
X84306807Y-154359812D01*
X84363491Y-154385049D01*
X84470135Y-154432530D01*
X84645007Y-154469700D01*
X84645009Y-154469700D01*
X84823791Y-154469700D01*
X84823793Y-154469700D01*
X84998664Y-154432530D01*
X84998665Y-154432529D01*
X84998667Y-154432529D01*
X85031886Y-154417738D01*
X85093415Y-154407515D01*
X85152139Y-154428540D01*
X85193197Y-154475495D01*
X85206201Y-154536498D01*
X85187861Y-154596114D01*
X85142651Y-154669411D01*
X85089763Y-154829014D01*
X85079700Y-154927526D01*
X85079700Y-155460874D01*
X85089763Y-155559385D01*
X85142650Y-155718985D01*
X85142651Y-155718987D01*
X85177228Y-155775044D01*
X85230920Y-155862093D01*
X85349806Y-155980979D01*
X85349808Y-155980980D01*
X85349809Y-155980981D01*
X85492913Y-156069249D01*
X85543603Y-156086046D01*
X85652514Y-156122136D01*
X85751026Y-156132200D01*
X86359374Y-156132200D01*
X86457885Y-156122136D01*
X86457885Y-156122135D01*
X86617487Y-156069249D01*
X86760591Y-155980981D01*
X86763603Y-155977969D01*
X86785554Y-155956019D01*
X86825782Y-155929139D01*
X86873235Y-155919700D01*
X87031325Y-155919700D01*
X87078778Y-155929139D01*
X87119006Y-155956019D01*
X87130155Y-155967168D01*
X87274500Y-156056202D01*
X87274502Y-156056202D01*
X87274503Y-156056203D01*
X87435492Y-156109549D01*
X87534855Y-156119700D01*
X88131544Y-156119699D01*
X88230908Y-156109549D01*
X88391897Y-156056203D01*
X88395865Y-156053756D01*
X88536244Y-155967168D01*
X88547394Y-155956019D01*
X88587622Y-155929139D01*
X88635075Y-155919700D01*
X88809325Y-155919700D01*
X88856778Y-155929139D01*
X88897006Y-155956019D01*
X88908155Y-155967168D01*
X89052500Y-156056202D01*
X89052502Y-156056202D01*
X89052503Y-156056203D01*
X89213492Y-156109549D01*
X89312855Y-156119700D01*
X89909544Y-156119699D01*
X90008908Y-156109549D01*
X90169897Y-156056203D01*
X90266176Y-155996816D01*
X90322984Y-155978632D01*
X90381710Y-155989076D01*
X90474398Y-156030345D01*
X90659552Y-156069700D01*
X90659554Y-156069700D01*
X90848846Y-156069700D01*
X90848848Y-156069700D01*
X90972284Y-156043462D01*
X91034003Y-156030344D01*
X91206930Y-155953351D01*
X91303580Y-155883131D01*
X91360070Y-155842089D01*
X91360636Y-155841461D01*
X91486733Y-155701416D01*
X91581379Y-155537484D01*
X91639874Y-155357456D01*
X91659660Y-155169200D01*
X91639874Y-154980944D01*
X91581379Y-154800916D01*
X91581379Y-154800915D01*
X91486733Y-154636983D01*
X91360070Y-154496310D01*
X91206930Y-154385048D01*
X91034002Y-154308055D01*
X90848848Y-154268700D01*
X90848846Y-154268700D01*
X90659554Y-154268700D01*
X90656023Y-154268700D01*
X90599567Y-154255103D01*
X90555493Y-154217293D01*
X90533466Y-154163563D01*
X90538317Y-154105696D01*
X90576056Y-153991806D01*
X90586200Y-153892515D01*
X90586200Y-153869200D01*
X87707200Y-153869200D01*
X87645200Y-153852587D01*
X87599813Y-153807200D01*
X87583200Y-153745200D01*
X87583200Y-153493200D01*
X87599813Y-153431200D01*
X87645200Y-153385813D01*
X87707200Y-153369200D01*
X90586199Y-153369200D01*
X90586199Y-153345885D01*
X90576056Y-153246594D01*
X90522746Y-153085713D01*
X90433773Y-152941467D01*
X90313932Y-152821626D01*
X90169686Y-152732653D01*
X89995915Y-152675072D01*
X89996774Y-152672477D01*
X89959480Y-152658647D01*
X89919013Y-152611474D01*
X89906519Y-152550590D01*
X89925137Y-152491292D01*
X89970189Y-152448476D01*
X90030358Y-152432900D01*
X90905295Y-152432900D01*
X90926504Y-152435241D01*
X90929094Y-152435159D01*
X90929096Y-152435160D01*
X90999062Y-152432960D01*
X91002957Y-152432900D01*
X91032346Y-152432900D01*
X91046650Y-152432000D01*
X92759277Y-152432000D01*
X92825902Y-152451419D01*
X92871659Y-152503595D01*
X92882216Y-152572184D01*
X92869500Y-152668777D01*
X92869500Y-152894223D01*
X92885441Y-153015316D01*
X92885441Y-153047684D01*
X92869500Y-153168777D01*
X92869500Y-153394221D01*
X92885442Y-153515312D01*
X92885442Y-153547682D01*
X92869500Y-153668779D01*
X92869500Y-153894221D01*
X92884312Y-154006735D01*
X92942301Y-154146731D01*
X92942302Y-154146733D01*
X93034549Y-154266951D01*
X93154767Y-154359198D01*
X93267904Y-154406061D01*
X93294764Y-154417187D01*
X93407279Y-154432000D01*
X93407280Y-154432000D01*
X94025323Y-154432000D01*
X94400911Y-154432000D01*
X94462686Y-154448483D01*
X94508037Y-154493550D01*
X94524909Y-154555220D01*
X94508815Y-154617097D01*
X94464034Y-154662731D01*
X94441735Y-154675918D01*
X94426725Y-154690928D01*
X94411936Y-154703558D01*
X94394764Y-154716034D01*
X94365657Y-154751218D01*
X94357796Y-154759856D01*
X93821484Y-155296168D01*
X93804831Y-155309510D01*
X93755133Y-155362433D01*
X93752427Y-155365226D01*
X93732083Y-155385571D01*
X93729376Y-155389060D01*
X93721807Y-155397921D01*
X93690551Y-155431207D01*
X93680322Y-155449812D01*
X93669645Y-155466067D01*
X93656636Y-155482838D01*
X93638506Y-155524732D01*
X93633370Y-155535216D01*
X93611372Y-155575232D01*
X93606091Y-155595799D01*
X93599791Y-155614200D01*
X93591364Y-155633674D01*
X93584223Y-155678761D01*
X93581855Y-155690198D01*
X93570500Y-155734424D01*
X93570500Y-155755645D01*
X93568973Y-155775044D01*
X93565653Y-155796003D01*
X93569950Y-155841461D01*
X93570500Y-155853130D01*
X93570500Y-156120926D01*
X93561061Y-156168379D01*
X93534183Y-156208604D01*
X93478604Y-156264183D01*
X93423029Y-156319758D01*
X93333997Y-156464100D01*
X93280650Y-156625092D01*
X93270500Y-156724455D01*
X93270500Y-157321144D01*
X93280650Y-157420507D01*
X93333997Y-157581499D01*
X93430640Y-157738180D01*
X93429244Y-157739040D01*
X93451800Y-157778106D01*
X93451800Y-157842294D01*
X93429244Y-157881359D01*
X93430640Y-157882220D01*
X93333997Y-158038900D01*
X93280650Y-158199892D01*
X93270500Y-158299255D01*
X93270500Y-158895944D01*
X93280650Y-158995307D01*
X93333997Y-159156299D01*
X93374811Y-159222467D01*
X93392392Y-159272807D01*
X93387206Y-159325877D01*
X93384503Y-159334194D01*
X93378231Y-159393869D01*
X93365815Y-159512000D01*
X93374459Y-159594245D01*
X93384503Y-159689804D01*
X93426909Y-159820316D01*
X93431459Y-159877984D01*
X93409353Y-159931441D01*
X93365403Y-159969052D01*
X93309173Y-159982634D01*
X69304723Y-160020437D01*
X69247415Y-160006501D01*
X69203027Y-159967666D01*
X69181601Y-159912718D01*
X69187984Y-159854086D01*
X69220732Y-159805035D01*
X69272436Y-159776662D01*
X69297663Y-159769903D01*
X69511830Y-159670035D01*
X69705401Y-159534495D01*
X69872495Y-159367401D01*
X70008035Y-159173830D01*
X70107903Y-158959663D01*
X70169063Y-158731408D01*
X70189659Y-158496000D01*
X70169063Y-158260592D01*
X70107903Y-158032337D01*
X70008035Y-157818171D01*
X69872495Y-157624599D01*
X69705401Y-157457505D01*
X69519402Y-157327267D01*
X69480539Y-157282951D01*
X69466528Y-157225694D01*
X69480539Y-157168437D01*
X69519405Y-157124119D01*
X69705078Y-156994109D01*
X69872106Y-156827081D01*
X70007600Y-156633576D01*
X70107430Y-156419492D01*
X70164636Y-156206000D01*
X67503364Y-156206000D01*
X67560569Y-156419492D01*
X67660399Y-156633576D01*
X67795893Y-156827081D01*
X67962918Y-156994106D01*
X68148595Y-157124119D01*
X68187460Y-157168437D01*
X68201471Y-157225694D01*
X68187460Y-157282951D01*
X68148595Y-157327269D01*
X67962595Y-157457508D01*
X67795505Y-157624598D01*
X67659965Y-157818170D01*
X67560097Y-158032336D01*
X67498936Y-158260592D01*
X67478340Y-158496000D01*
X67498936Y-158731407D01*
X67534381Y-158863689D01*
X67560097Y-158959663D01*
X67659965Y-159173830D01*
X67795505Y-159367401D01*
X67962599Y-159534495D01*
X68156170Y-159670035D01*
X68370337Y-159769903D01*
X68401062Y-159778135D01*
X68452717Y-159806465D01*
X68485468Y-159855437D01*
X68491921Y-159913998D01*
X68470619Y-159968926D01*
X68426370Y-160007824D01*
X68369164Y-160021910D01*
X63566576Y-160029473D01*
X63519018Y-160020071D01*
X63478700Y-159993154D01*
X63221619Y-159736073D01*
X63194739Y-159695845D01*
X63185300Y-159648392D01*
X63185300Y-153666000D01*
X67503364Y-153666000D01*
X67560569Y-153879492D01*
X67660399Y-154093576D01*
X67795893Y-154287081D01*
X67962918Y-154454106D01*
X68149031Y-154584425D01*
X68187896Y-154628743D01*
X68201907Y-154686000D01*
X68187896Y-154743257D01*
X68149031Y-154787575D01*
X67962918Y-154917893D01*
X67795890Y-155084921D01*
X67660400Y-155278421D01*
X67560569Y-155492507D01*
X67503364Y-155705999D01*
X67503364Y-155706000D01*
X68584000Y-155706000D01*
X68584000Y-153666000D01*
X69084000Y-153666000D01*
X69084000Y-155706000D01*
X70164636Y-155706000D01*
X70164635Y-155705999D01*
X70107430Y-155492507D01*
X70007599Y-155278421D01*
X69872109Y-155084921D01*
X69705081Y-154917893D01*
X69518968Y-154787575D01*
X69480103Y-154743257D01*
X69466092Y-154686000D01*
X69480103Y-154628743D01*
X69518968Y-154584425D01*
X69705081Y-154454106D01*
X69872106Y-154287081D01*
X70007600Y-154093576D01*
X70107430Y-153879492D01*
X70164636Y-153666000D01*
X69084000Y-153666000D01*
X68584000Y-153666000D01*
X67503364Y-153666000D01*
X63185300Y-153666000D01*
X63185300Y-152841104D01*
X63187641Y-152819894D01*
X63187229Y-152806797D01*
X63185360Y-152747336D01*
X63185300Y-152743442D01*
X63185300Y-152714681D01*
X63185300Y-152714675D01*
X63184746Y-152710295D01*
X63183830Y-152698654D01*
X63182397Y-152653031D01*
X63176475Y-152632648D01*
X63172532Y-152613611D01*
X63169871Y-152592542D01*
X63153064Y-152550092D01*
X63149283Y-152539048D01*
X63136545Y-152495204D01*
X63136544Y-152495203D01*
X63136544Y-152495201D01*
X63125734Y-152476922D01*
X63117180Y-152459462D01*
X63109368Y-152439729D01*
X63082523Y-152402780D01*
X63076132Y-152393051D01*
X63052881Y-152353735D01*
X63037868Y-152338722D01*
X63025235Y-152323930D01*
X63016204Y-152311500D01*
X63012763Y-152306763D01*
X62977579Y-152277656D01*
X62968940Y-152269794D01*
X61836034Y-151136888D01*
X61822691Y-151120233D01*
X61769766Y-151070534D01*
X61766969Y-151067823D01*
X61746634Y-151047488D01*
X61743147Y-151044783D01*
X61734271Y-151037201D01*
X61700994Y-151005952D01*
X61682393Y-150995726D01*
X61666132Y-150985045D01*
X61649364Y-150972038D01*
X61622565Y-150960441D01*
X61607469Y-150953908D01*
X61596979Y-150948769D01*
X61556967Y-150926772D01*
X61536400Y-150921491D01*
X61517998Y-150915191D01*
X61498524Y-150906764D01*
X61453437Y-150899623D01*
X61441998Y-150897254D01*
X61397778Y-150885900D01*
X61397777Y-150885900D01*
X61376555Y-150885900D01*
X61357156Y-150884373D01*
X61336196Y-150881053D01*
X61336195Y-150881053D01*
X61314158Y-150883136D01*
X61290739Y-150885350D01*
X61279070Y-150885900D01*
X58044977Y-150885900D01*
X57508546Y-150885900D01*
X57449119Y-150870732D01*
X57404231Y-150828940D01*
X57384862Y-150770746D01*
X57395751Y-150710389D01*
X57434235Y-150662633D01*
X57447623Y-150652611D01*
X57538546Y-150584546D01*
X57624796Y-150469331D01*
X57675091Y-150334483D01*
X57681500Y-150274873D01*
X57681500Y-149352027D01*
X57681500Y-148616225D01*
X57695015Y-148559930D01*
X57732612Y-148515908D01*
X57874630Y-148412726D01*
X57874631Y-148412724D01*
X57875378Y-148412182D01*
X57909946Y-148394569D01*
X57948264Y-148388500D01*
X59560602Y-148388500D01*
X59608055Y-148397939D01*
X59648284Y-148424820D01*
X59684432Y-148460969D01*
X59828776Y-148550002D01*
X59828778Y-148550002D01*
X59828779Y-148550003D01*
X59989768Y-148603349D01*
X60089131Y-148613500D01*
X60635820Y-148613499D01*
X60735184Y-148603349D01*
X60896173Y-148550003D01*
X61040520Y-148460968D01*
X61050148Y-148451339D01*
X61105734Y-148419245D01*
X61169924Y-148419245D01*
X61225512Y-148451341D01*
X61234745Y-148460574D01*
X61378989Y-148549546D01*
X61539869Y-148602856D01*
X61639161Y-148613000D01*
X61662476Y-148613000D01*
X61662476Y-147888000D01*
X62162476Y-147888000D01*
X62162476Y-148612999D01*
X62185791Y-148612999D01*
X62285081Y-148602856D01*
X62445962Y-148549546D01*
X62590208Y-148460573D01*
X62710049Y-148340732D01*
X62799022Y-148196486D01*
X62852332Y-148035606D01*
X62862476Y-147936315D01*
X62862476Y-147888000D01*
X62162476Y-147888000D01*
X61662476Y-147888000D01*
X61662476Y-147388000D01*
X62162476Y-147388000D01*
X62862475Y-147388000D01*
X62862475Y-147339685D01*
X62852332Y-147240394D01*
X62799022Y-147079513D01*
X62766227Y-147026345D01*
X62748051Y-146969658D01*
X62758388Y-146911033D01*
X62794856Y-146863981D01*
X62849049Y-146839346D01*
X62908479Y-146842808D01*
X62959446Y-146873567D01*
X63126998Y-147041119D01*
X65119231Y-149033351D01*
X65121424Y-149035600D01*
X65181742Y-149099054D01*
X65230162Y-149132755D01*
X65237671Y-149138416D01*
X65283393Y-149175698D01*
X65310362Y-149189785D01*
X65323782Y-149197916D01*
X65348749Y-149215294D01*
X65348750Y-149215294D01*
X65348751Y-149215295D01*
X65378823Y-149228200D01*
X65402963Y-149238559D01*
X65411463Y-149242595D01*
X65463750Y-149269908D01*
X65463751Y-149269909D01*
X65492996Y-149278277D01*
X65507786Y-149283543D01*
X65514220Y-149286304D01*
X65535742Y-149295540D01*
X65593537Y-149307416D01*
X65602654Y-149309654D01*
X65659382Y-149325887D01*
X65689716Y-149328196D01*
X65705253Y-149330374D01*
X65735059Y-149336500D01*
X65794042Y-149336500D01*
X65803456Y-149336858D01*
X65862276Y-149341337D01*
X65892451Y-149337493D01*
X65908117Y-149336500D01*
X67873242Y-149336500D01*
X67920695Y-149345939D01*
X67960923Y-149372819D01*
X67962599Y-149374495D01*
X68148160Y-149504426D01*
X68187024Y-149548743D01*
X68201035Y-149606000D01*
X68187024Y-149663257D01*
X68148158Y-149707575D01*
X67984506Y-149822166D01*
X67962595Y-149837508D01*
X67795505Y-150004598D01*
X67659965Y-150198170D01*
X67560097Y-150412336D01*
X67498936Y-150640592D01*
X67478340Y-150876000D01*
X67498936Y-151111407D01*
X67525401Y-151210176D01*
X67560097Y-151339663D01*
X67659965Y-151553830D01*
X67795505Y-151747401D01*
X67962599Y-151914495D01*
X68148597Y-152044732D01*
X68187460Y-152089048D01*
X68201471Y-152146305D01*
X68187461Y-152203561D01*
X68148595Y-152247880D01*
X67962919Y-152377892D01*
X67795890Y-152544921D01*
X67660400Y-152738421D01*
X67560569Y-152952507D01*
X67503364Y-153165999D01*
X67503364Y-153166000D01*
X70164636Y-153166000D01*
X70164635Y-153165999D01*
X70107430Y-152952507D01*
X70007599Y-152738421D01*
X69872109Y-152544921D01*
X69705081Y-152377893D01*
X69519404Y-152247880D01*
X69480539Y-152203562D01*
X69466528Y-152146305D01*
X69480539Y-152089048D01*
X69519402Y-152044732D01*
X69705401Y-151914495D01*
X69872495Y-151747401D01*
X70008035Y-151553830D01*
X70107903Y-151339663D01*
X70169063Y-151111408D01*
X70189659Y-150876000D01*
X70187515Y-150851500D01*
X70169063Y-150640592D01*
X70155151Y-150588671D01*
X70107903Y-150412337D01*
X70008035Y-150198171D01*
X69872495Y-150004599D01*
X69705401Y-149837505D01*
X69519839Y-149707573D01*
X69480976Y-149663257D01*
X69466965Y-149606000D01*
X69480976Y-149548743D01*
X69519839Y-149504426D01*
X69705401Y-149374495D01*
X69872495Y-149207401D01*
X70008035Y-149013830D01*
X70018028Y-148992400D01*
X84330201Y-148992400D01*
X84330201Y-149040715D01*
X84340343Y-149140005D01*
X84393653Y-149300886D01*
X84482626Y-149445132D01*
X84602467Y-149564973D01*
X84746713Y-149653946D01*
X84907593Y-149707256D01*
X85006885Y-149717400D01*
X85030200Y-149717400D01*
X85030200Y-148992400D01*
X84330201Y-148992400D01*
X70018028Y-148992400D01*
X70107903Y-148799663D01*
X70169063Y-148571408D01*
X70175975Y-148492400D01*
X84330200Y-148492400D01*
X85030200Y-148492400D01*
X85030200Y-147767401D01*
X85006885Y-147767401D01*
X84907594Y-147777543D01*
X84746713Y-147830853D01*
X84602467Y-147919826D01*
X84482626Y-148039667D01*
X84393653Y-148183913D01*
X84340343Y-148344793D01*
X84330200Y-148444085D01*
X84330200Y-148492400D01*
X70175975Y-148492400D01*
X70189659Y-148336000D01*
X70169063Y-148100592D01*
X70107903Y-147872337D01*
X70008035Y-147658171D01*
X69872495Y-147464599D01*
X69750569Y-147342673D01*
X69719273Y-147289927D01*
X69717084Y-147228634D01*
X69744537Y-147173789D01*
X69794916Y-147138810D01*
X69926331Y-147089796D01*
X70041546Y-147003546D01*
X70127796Y-146888331D01*
X70178091Y-146753483D01*
X70184500Y-146693873D01*
X70184499Y-145639600D01*
X84876001Y-145639600D01*
X84876001Y-145687915D01*
X84886143Y-145787205D01*
X84939453Y-145948086D01*
X85028426Y-146092332D01*
X85148267Y-146212173D01*
X85292513Y-146301146D01*
X85453393Y-146354456D01*
X85552685Y-146364600D01*
X85576000Y-146364600D01*
X85576000Y-145639600D01*
X84876001Y-145639600D01*
X70184499Y-145639600D01*
X70184499Y-145139600D01*
X84876000Y-145139600D01*
X85576000Y-145139600D01*
X85576000Y-144414601D01*
X85552685Y-144414601D01*
X85453394Y-144424743D01*
X85292513Y-144478053D01*
X85148267Y-144567026D01*
X85028426Y-144686867D01*
X84939453Y-144831113D01*
X84886143Y-144991993D01*
X84876000Y-145091285D01*
X84876000Y-145139600D01*
X70184499Y-145139600D01*
X70184499Y-144898128D01*
X70178091Y-144838517D01*
X70127796Y-144703669D01*
X70041546Y-144588454D01*
X69926331Y-144502204D01*
X69791483Y-144451909D01*
X69731873Y-144445500D01*
X69731869Y-144445500D01*
X67936130Y-144445500D01*
X67876515Y-144451909D01*
X67741669Y-144502204D01*
X67626454Y-144588454D01*
X67540204Y-144703668D01*
X67489909Y-144838515D01*
X67489909Y-144838517D01*
X67484343Y-144890292D01*
X67483500Y-144898130D01*
X67483500Y-146693869D01*
X67489909Y-146753484D01*
X67512695Y-146814576D01*
X67540204Y-146888331D01*
X67626454Y-147003546D01*
X67741669Y-147089796D01*
X67756477Y-147095319D01*
X67811338Y-147135780D01*
X67836523Y-147199126D01*
X67824419Y-147266211D01*
X67778685Y-147316762D01*
X67713142Y-147335500D01*
X66302582Y-147335500D01*
X66255129Y-147326061D01*
X66214901Y-147299181D01*
X64668644Y-145752924D01*
X64639283Y-145706197D01*
X64633105Y-145651359D01*
X64651332Y-145599270D01*
X64690349Y-145560252D01*
X64799376Y-145491747D01*
X64810423Y-145480699D01*
X64863776Y-145449226D01*
X64925696Y-145447487D01*
X64980731Y-145475918D01*
X65015147Y-145527423D01*
X65032078Y-145575806D01*
X65125052Y-145723776D01*
X65248623Y-145847347D01*
X65396593Y-145940322D01*
X65561542Y-145998041D01*
X65735200Y-146017607D01*
X65908857Y-145998041D01*
X66073806Y-145940322D01*
X66221776Y-145847347D01*
X66345347Y-145723776D01*
X66438322Y-145575806D01*
X66496041Y-145410857D01*
X66515607Y-145237200D01*
X66496041Y-145063543D01*
X66495270Y-145056700D01*
X66501448Y-145001861D01*
X66530807Y-144955137D01*
X67339926Y-144146019D01*
X67380155Y-144119139D01*
X67427608Y-144109700D01*
X78485122Y-144109700D01*
X78551093Y-144128706D01*
X78604593Y-144162322D01*
X78769542Y-144220041D01*
X78943200Y-144239607D01*
X79116857Y-144220041D01*
X79281806Y-144162322D01*
X79429776Y-144069347D01*
X79553347Y-143945776D01*
X79646322Y-143797806D01*
X79704041Y-143632857D01*
X79723607Y-143459200D01*
X79716999Y-143400553D01*
X79704041Y-143285542D01*
X79646322Y-143120593D01*
X79628628Y-143092433D01*
X79610401Y-143040344D01*
X79616581Y-142985505D01*
X79645939Y-142938783D01*
X79654947Y-142929776D01*
X79747922Y-142781806D01*
X79805641Y-142616857D01*
X79825207Y-142443200D01*
X79805641Y-142269543D01*
X79747922Y-142104594D01*
X79747922Y-142104593D01*
X79654947Y-141956623D01*
X79531376Y-141833052D01*
X79383406Y-141740077D01*
X79218457Y-141682358D01*
X79044800Y-141662792D01*
X78871142Y-141682358D01*
X78706193Y-141740077D01*
X78652693Y-141773694D01*
X78586722Y-141792700D01*
X66531905Y-141792700D01*
X66510695Y-141790358D01*
X66438138Y-141792639D01*
X66434243Y-141792700D01*
X66405471Y-141792700D01*
X66401090Y-141793253D01*
X66389459Y-141794168D01*
X66343828Y-141795602D01*
X66323452Y-141801522D01*
X66304406Y-141805467D01*
X66283339Y-141808128D01*
X66240887Y-141824936D01*
X66229839Y-141828719D01*
X66186000Y-141841456D01*
X66167730Y-141852261D01*
X66150262Y-141860818D01*
X66138863Y-141865332D01*
X66130526Y-141868633D01*
X66093591Y-141895466D01*
X66083835Y-141901875D01*
X66044535Y-141925118D01*
X66029525Y-141940128D01*
X66014736Y-141952758D01*
X65997564Y-141965234D01*
X65968457Y-142000418D01*
X65960596Y-142009056D01*
X64367273Y-143602380D01*
X64312948Y-143634128D01*
X64250034Y-143635125D01*
X64194731Y-143605113D01*
X64161279Y-143551820D01*
X64148378Y-143510702D01*
X64119359Y-143418212D01*
X64020609Y-143240298D01*
X63888066Y-143085905D01*
X63758361Y-142985505D01*
X63727157Y-142961351D01*
X63544472Y-142871740D01*
X63439263Y-142844500D01*
X63347485Y-142820737D01*
X63326871Y-142819691D01*
X63144262Y-142810430D01*
X62943128Y-142841243D01*
X62752313Y-142911913D01*
X62579631Y-143019545D01*
X62509823Y-143085904D01*
X62432147Y-143159741D01*
X62411086Y-143190000D01*
X62315905Y-143326750D01*
X62236964Y-143510702D01*
X62235660Y-143513742D01*
X62195404Y-143709636D01*
X62194700Y-143713061D01*
X62194700Y-144801414D01*
X62185261Y-144848867D01*
X62162476Y-144882967D01*
X62162476Y-147388000D01*
X61662476Y-147388000D01*
X61662476Y-144885001D01*
X61639161Y-144885001D01*
X61539870Y-144895143D01*
X61378989Y-144948453D01*
X61234742Y-145037426D01*
X61225508Y-145046661D01*
X61169921Y-145078753D01*
X61105734Y-145078753D01*
X61050148Y-145046659D01*
X61040520Y-145037031D01*
X60896175Y-144947997D01*
X60735183Y-144894650D01*
X60640725Y-144885001D01*
X60635820Y-144884500D01*
X60089131Y-144884500D01*
X59989768Y-144894650D01*
X59828776Y-144947997D01*
X59684431Y-145037031D01*
X59564507Y-145156955D01*
X59475473Y-145301300D01*
X59422126Y-145462292D01*
X59411976Y-145561655D01*
X59411976Y-146158344D01*
X59422126Y-146257707D01*
X59475473Y-146418699D01*
X59564507Y-146563044D01*
X59575657Y-146574194D01*
X59602537Y-146614422D01*
X59611976Y-146661875D01*
X59611976Y-146763500D01*
X59595363Y-146825500D01*
X59549976Y-146870887D01*
X59487976Y-146887500D01*
X57505307Y-146887500D01*
X57487338Y-146886191D01*
X57463577Y-146882711D01*
X57414231Y-146887028D01*
X57403424Y-146887500D01*
X57397891Y-146887500D01*
X57367101Y-146891098D01*
X57363517Y-146891464D01*
X57287561Y-146898109D01*
X57268521Y-146902330D01*
X57197907Y-146928030D01*
X57139312Y-146934446D01*
X57084375Y-146913081D01*
X57045510Y-146868763D01*
X57031500Y-146811507D01*
X57031500Y-146484104D01*
X57033841Y-146462894D01*
X57033294Y-146445500D01*
X57031560Y-146390336D01*
X57031500Y-146386442D01*
X57031500Y-146357681D01*
X57031500Y-146357675D01*
X57030946Y-146353295D01*
X57030030Y-146341654D01*
X57029835Y-146335445D01*
X57028597Y-146296031D01*
X57022675Y-146275648D01*
X57018732Y-146256611D01*
X57016071Y-146235542D01*
X56999264Y-146193092D01*
X56995483Y-146182048D01*
X56982745Y-146138204D01*
X56982744Y-146138203D01*
X56982744Y-146138201D01*
X56971934Y-146119922D01*
X56963380Y-146102462D01*
X56955568Y-146082729D01*
X56928723Y-146045780D01*
X56922332Y-146036051D01*
X56899081Y-145996735D01*
X56884068Y-145981722D01*
X56871435Y-145966930D01*
X56858963Y-145949763D01*
X56823779Y-145920656D01*
X56815140Y-145912794D01*
X56298834Y-145396488D01*
X56285491Y-145379833D01*
X56232566Y-145330134D01*
X56229769Y-145327423D01*
X56209434Y-145307088D01*
X56205947Y-145304383D01*
X56197071Y-145296801D01*
X56163794Y-145265552D01*
X56145193Y-145255326D01*
X56128932Y-145244645D01*
X56112164Y-145231638D01*
X56070270Y-145213508D01*
X56059779Y-145208369D01*
X56019767Y-145186372D01*
X55999200Y-145181091D01*
X55980798Y-145174791D01*
X55961324Y-145166364D01*
X55916237Y-145159223D01*
X55904798Y-145156854D01*
X55860578Y-145145500D01*
X55860577Y-145145500D01*
X55839355Y-145145500D01*
X55819956Y-145143973D01*
X55798996Y-145140653D01*
X55798995Y-145140653D01*
X55776958Y-145142736D01*
X55753539Y-145144950D01*
X55741870Y-145145500D01*
X52307905Y-145145500D01*
X52286695Y-145143158D01*
X52214138Y-145145439D01*
X52210243Y-145145500D01*
X52181471Y-145145500D01*
X52177090Y-145146053D01*
X52165459Y-145146968D01*
X52119828Y-145148402D01*
X52099452Y-145154322D01*
X52080406Y-145158267D01*
X52059339Y-145160928D01*
X52016887Y-145177736D01*
X52005839Y-145181519D01*
X51962000Y-145194256D01*
X51943730Y-145205061D01*
X51926262Y-145213618D01*
X51914863Y-145218132D01*
X51906526Y-145221433D01*
X51869591Y-145248266D01*
X51859835Y-145254675D01*
X51820535Y-145277918D01*
X51805525Y-145292928D01*
X51790736Y-145305558D01*
X51773564Y-145318034D01*
X51744457Y-145353218D01*
X51736596Y-145361856D01*
X50706484Y-146391968D01*
X50689831Y-146405310D01*
X50640133Y-146458233D01*
X50637427Y-146461026D01*
X50617083Y-146481371D01*
X50614376Y-146484860D01*
X50606807Y-146493721D01*
X50575551Y-146527007D01*
X50565322Y-146545612D01*
X50554645Y-146561867D01*
X50541636Y-146578638D01*
X50523506Y-146620532D01*
X50518370Y-146631016D01*
X50496372Y-146671032D01*
X50491091Y-146691599D01*
X50484791Y-146710000D01*
X50476364Y-146729474D01*
X50469223Y-146774561D01*
X50466855Y-146785993D01*
X50456071Y-146828002D01*
X50451605Y-146845395D01*
X50450223Y-146845040D01*
X50443421Y-146875102D01*
X50409536Y-146918085D01*
X50360447Y-146942293D01*
X50305719Y-146943009D01*
X50228992Y-146926700D01*
X50228991Y-146926700D01*
X50050209Y-146926700D01*
X50050207Y-146926700D01*
X49875335Y-146963869D01*
X49712008Y-147036587D01*
X49567368Y-147141674D01*
X49447739Y-147274536D01*
X49358350Y-147429364D01*
X49320064Y-147547190D01*
X49297125Y-147588574D01*
X49274068Y-147616053D01*
X49266763Y-147624025D01*
X49263114Y-147627674D01*
X49244584Y-147651108D01*
X49242310Y-147653900D01*
X49194738Y-147710595D01*
X49184961Y-147725941D01*
X49153699Y-147792982D01*
X49152129Y-147796226D01*
X49118919Y-147862354D01*
X49112947Y-147879538D01*
X49097985Y-147951989D01*
X49097206Y-147955504D01*
X49080142Y-148027508D01*
X49078295Y-148045585D01*
X49078340Y-148047137D01*
X49078340Y-148047138D01*
X49079914Y-148101245D01*
X49080448Y-148119582D01*
X49080500Y-148123188D01*
X49080500Y-150274869D01*
X49083307Y-150300975D01*
X49086909Y-150334483D01*
X49137204Y-150469331D01*
X49223454Y-150584546D01*
X49338669Y-150670796D01*
X49473517Y-150721091D01*
X49533127Y-150727500D01*
X50078872Y-150727499D01*
X50078875Y-150727499D01*
X50117745Y-150723320D01*
X50144252Y-150723320D01*
X50183127Y-150727500D01*
X50331500Y-150727500D01*
X50393500Y-150744113D01*
X50438887Y-150789500D01*
X50455500Y-150851500D01*
X50455500Y-150862779D01*
X50453158Y-150883988D01*
X50455439Y-150956546D01*
X50455500Y-150960441D01*
X50455500Y-150989210D01*
X50456053Y-150993591D01*
X50456968Y-151005224D01*
X50458402Y-151050853D01*
X50464323Y-151071234D01*
X50468267Y-151090279D01*
X50470928Y-151111343D01*
X50487737Y-151153799D01*
X50491520Y-151164847D01*
X50504256Y-151208684D01*
X50515061Y-151226954D01*
X50523621Y-151244427D01*
X50527383Y-151253930D01*
X50531432Y-151264155D01*
X50544648Y-151282346D01*
X50558267Y-151301092D01*
X50564673Y-151310844D01*
X50587919Y-151350149D01*
X50587921Y-151350151D01*
X50602925Y-151365155D01*
X50615562Y-151379951D01*
X50627452Y-151396316D01*
X50628037Y-151397121D01*
X50663212Y-151426220D01*
X50671854Y-151434084D01*
X51834080Y-152596310D01*
X51847428Y-152612969D01*
X51900347Y-152662664D01*
X51903144Y-152665375D01*
X51923477Y-152685708D01*
X51926958Y-152688408D01*
X51935841Y-152695994D01*
X51969123Y-152727248D01*
X51978302Y-152732294D01*
X51987720Y-152737472D01*
X52003980Y-152748152D01*
X52020752Y-152761162D01*
X52062656Y-152779295D01*
X52073136Y-152784429D01*
X52113148Y-152806427D01*
X52133711Y-152811706D01*
X52152114Y-152818007D01*
X52171589Y-152826435D01*
X52216691Y-152833578D01*
X52228086Y-152835937D01*
X52272339Y-152847300D01*
X52293567Y-152847300D01*
X52312965Y-152848826D01*
X52333921Y-152852146D01*
X52379367Y-152847850D01*
X52391037Y-152847300D01*
X60181992Y-152847300D01*
X60229445Y-152856739D01*
X60269673Y-152883619D01*
X60730381Y-153344327D01*
X60757261Y-153384555D01*
X60766700Y-153432008D01*
X60766700Y-160493295D01*
X60764358Y-160514504D01*
X60766639Y-160587062D01*
X60766700Y-160590957D01*
X60766700Y-160619726D01*
X60767253Y-160624107D01*
X60768168Y-160635740D01*
X60769602Y-160681369D01*
X60775523Y-160701750D01*
X60779467Y-160720795D01*
X60782128Y-160741859D01*
X60798937Y-160784315D01*
X60802720Y-160795363D01*
X60815456Y-160839200D01*
X60826261Y-160857470D01*
X60834821Y-160874943D01*
X60842631Y-160894669D01*
X60869467Y-160931608D01*
X60875873Y-160941360D01*
X60899119Y-160980665D01*
X60899121Y-160980667D01*
X60914125Y-160995671D01*
X60926764Y-161010469D01*
X60939237Y-161027637D01*
X60974412Y-161056736D01*
X60983054Y-161064600D01*
X61811164Y-161892710D01*
X61824512Y-161909369D01*
X61877431Y-161959064D01*
X61880228Y-161961775D01*
X61900561Y-161982108D01*
X61904042Y-161984808D01*
X61912925Y-161992394D01*
X61946207Y-162023648D01*
X61964799Y-162033869D01*
X61981062Y-162044552D01*
X61997834Y-162057562D01*
X61997835Y-162057562D01*
X61997836Y-162057563D01*
X62039747Y-162075699D01*
X62050228Y-162080834D01*
X62090232Y-162102827D01*
X62110783Y-162108103D01*
X62129194Y-162114406D01*
X62148674Y-162122836D01*
X62193778Y-162129979D01*
X62205197Y-162132344D01*
X62249423Y-162143700D01*
X62270645Y-162143700D01*
X62290043Y-162145226D01*
X62311005Y-162148547D01*
X62352919Y-162144584D01*
X62356461Y-162144250D01*
X62368130Y-162143700D01*
X95045922Y-162143700D01*
X95111893Y-162162706D01*
X95165393Y-162196322D01*
X95330342Y-162254041D01*
X95504000Y-162273607D01*
X95677657Y-162254041D01*
X95808090Y-162208400D01*
X99468600Y-162208400D01*
X100168600Y-162208400D01*
X100168600Y-161483401D01*
X100145285Y-161483401D01*
X100045994Y-161493543D01*
X99885113Y-161546853D01*
X99740867Y-161635826D01*
X99621026Y-161755667D01*
X99532053Y-161899913D01*
X99478743Y-162060793D01*
X99468600Y-162160085D01*
X99468600Y-162208400D01*
X95808090Y-162208400D01*
X95842606Y-162196322D01*
X95990576Y-162103347D01*
X96114147Y-161979776D01*
X96207122Y-161831806D01*
X96264841Y-161666857D01*
X96284407Y-161493200D01*
X96283247Y-161482901D01*
X96264841Y-161319542D01*
X96203124Y-161143168D01*
X96196945Y-161088329D01*
X96215170Y-161036244D01*
X96257922Y-160968206D01*
X96270729Y-160931608D01*
X96315641Y-160803257D01*
X96326022Y-160711117D01*
X96335207Y-160629600D01*
X96334637Y-160624545D01*
X96315641Y-160455942D01*
X96257922Y-160290993D01*
X96164947Y-160143023D01*
X96041376Y-160019452D01*
X95893406Y-159926477D01*
X95728457Y-159868758D01*
X95554800Y-159849192D01*
X95381142Y-159868758D01*
X95216193Y-159926477D01*
X95209742Y-159930531D01*
X95152667Y-159949215D01*
X95093506Y-159938887D01*
X95046136Y-159901971D01*
X95021669Y-159847125D01*
X95025843Y-159787221D01*
X95057497Y-159689803D01*
X95065803Y-159610775D01*
X95083490Y-159558797D01*
X95121891Y-159519550D01*
X95173475Y-159500732D01*
X95228127Y-159506035D01*
X95398393Y-159562456D01*
X95497685Y-159572600D01*
X95521000Y-159572600D01*
X95521000Y-156896800D01*
X95537613Y-156834800D01*
X95583000Y-156789413D01*
X95645000Y-156772800D01*
X95897000Y-156772800D01*
X95959000Y-156789413D01*
X96004387Y-156834800D01*
X96021000Y-156896800D01*
X96021000Y-159572599D01*
X96044315Y-159572599D01*
X96143607Y-159562456D01*
X96214497Y-159538966D01*
X96272364Y-159534115D01*
X96326093Y-159556142D01*
X96363903Y-159600217D01*
X96375162Y-159646966D01*
X96376524Y-159646795D01*
X96378053Y-159658907D01*
X96378968Y-159670540D01*
X96380402Y-159716169D01*
X96386323Y-159736550D01*
X96390267Y-159755595D01*
X96392928Y-159776659D01*
X96409737Y-159819115D01*
X96413520Y-159830163D01*
X96426256Y-159874000D01*
X96437061Y-159892270D01*
X96445621Y-159909743D01*
X96452246Y-159926477D01*
X96453432Y-159929471D01*
X96466648Y-159947662D01*
X96480267Y-159966408D01*
X96486673Y-159976160D01*
X96509919Y-160015465D01*
X96509921Y-160015467D01*
X96524925Y-160030471D01*
X96537564Y-160045269D01*
X96550037Y-160062437D01*
X96585212Y-160091536D01*
X96593854Y-160099400D01*
X96863164Y-160368710D01*
X96876512Y-160385369D01*
X96929431Y-160435064D01*
X96932228Y-160437775D01*
X96952561Y-160458108D01*
X96956042Y-160460808D01*
X96964925Y-160468394D01*
X96998207Y-160499648D01*
X97008851Y-160505499D01*
X97016804Y-160509872D01*
X97033064Y-160520552D01*
X97049836Y-160533562D01*
X97091740Y-160551695D01*
X97102220Y-160556829D01*
X97142232Y-160578827D01*
X97162795Y-160584106D01*
X97181198Y-160590407D01*
X97200673Y-160598835D01*
X97245775Y-160605978D01*
X97257170Y-160608337D01*
X97301423Y-160619700D01*
X97322651Y-160619700D01*
X97342049Y-160621226D01*
X97363005Y-160624546D01*
X97408451Y-160620250D01*
X97420121Y-160619700D01*
X112083400Y-160619700D01*
X112145400Y-160636313D01*
X112190787Y-160681700D01*
X112207400Y-160743700D01*
X112207400Y-160773000D01*
X119643799Y-160773000D01*
X119643799Y-160743700D01*
X119660412Y-160681700D01*
X119705799Y-160636313D01*
X119767799Y-160619700D01*
X123427992Y-160619700D01*
X123475445Y-160629139D01*
X123515673Y-160656019D01*
X126141473Y-163281819D01*
X126171723Y-163331182D01*
X126176265Y-163388898D01*
X126154110Y-163442385D01*
X126110087Y-163479985D01*
X126053792Y-163493500D01*
X119983536Y-163493500D01*
X119919301Y-163475565D01*
X119873647Y-163426949D01*
X119859781Y-163361714D01*
X119881714Y-163298731D01*
X119933101Y-163256220D01*
X119937189Y-163254400D01*
X120061593Y-163199012D01*
X120073162Y-163190607D01*
X120124204Y-163153522D01*
X120206230Y-163093926D01*
X120325859Y-162961065D01*
X120415250Y-162806235D01*
X120470497Y-162636203D01*
X120489185Y-162458400D01*
X120470497Y-162280597D01*
X120427591Y-162148546D01*
X120415250Y-162110564D01*
X120325859Y-161955734D01*
X120206228Y-161822872D01*
X120061596Y-161717789D01*
X119898264Y-161645069D01*
X119710643Y-161605190D01*
X119711282Y-161602180D01*
X119678573Y-161594303D01*
X119634499Y-161556493D01*
X119612472Y-161502763D01*
X119617323Y-161444896D01*
X119633656Y-161395605D01*
X119643800Y-161296315D01*
X119643800Y-161273000D01*
X112207401Y-161273000D01*
X112207401Y-161296315D01*
X112217543Y-161395605D01*
X112270853Y-161556486D01*
X112359826Y-161700732D01*
X112369059Y-161709965D01*
X112401153Y-161765551D01*
X112401153Y-161829738D01*
X112369061Y-161885325D01*
X112359431Y-161894954D01*
X112270397Y-162039300D01*
X112217050Y-162200292D01*
X112206900Y-162299655D01*
X112206900Y-162846344D01*
X112217050Y-162945707D01*
X112270397Y-163106698D01*
X112299278Y-163153522D01*
X112317523Y-163211300D01*
X112306213Y-163270825D01*
X112268049Y-163317885D01*
X112207892Y-163362918D01*
X112159940Y-163384817D01*
X112107223Y-163384817D01*
X112059271Y-163362918D01*
X111976088Y-163300647D01*
X111841375Y-163250402D01*
X111781824Y-163244000D01*
X111234000Y-163244000D01*
X111234000Y-166244000D01*
X111781824Y-166244000D01*
X111841375Y-166237597D01*
X111976089Y-166187352D01*
X112059270Y-166125082D01*
X112107223Y-166103182D01*
X112159940Y-166103182D01*
X112207892Y-166125080D01*
X112291669Y-166187796D01*
X112375991Y-166219246D01*
X112441110Y-166243534D01*
X112440822Y-166244304D01*
X112479000Y-166258284D01*
X112519031Y-166302847D01*
X112533500Y-166360976D01*
X112533500Y-166972971D01*
X112524061Y-167020424D01*
X112497181Y-167060652D01*
X112298251Y-167259581D01*
X112258023Y-167286461D01*
X112210570Y-167295900D01*
X109493900Y-167295900D01*
X109430899Y-167278703D01*
X109385372Y-167231881D01*
X109369949Y-167168422D01*
X109388905Y-167105929D01*
X109415122Y-167064206D01*
X109472841Y-166899257D01*
X109492407Y-166725600D01*
X109472841Y-166551943D01*
X109472840Y-166551940D01*
X109472182Y-166546100D01*
X109478361Y-166491261D01*
X109507720Y-166444536D01*
X109593272Y-166358985D01*
X109681278Y-166213406D01*
X109694407Y-166171269D01*
X109724629Y-166120964D01*
X109774602Y-166090188D01*
X109833130Y-166085840D01*
X109887102Y-166108894D01*
X109991908Y-166187351D01*
X110126624Y-166237597D01*
X110186176Y-166244000D01*
X110734000Y-166244000D01*
X110734000Y-163244000D01*
X110186176Y-163244000D01*
X110126624Y-163250402D01*
X109991910Y-163300647D01*
X109876810Y-163386811D01*
X109812849Y-163472253D01*
X109766329Y-163510164D01*
X109707455Y-163521791D01*
X109650016Y-163504410D01*
X109607466Y-163462093D01*
X109593272Y-163438614D01*
X109569363Y-163414705D01*
X109537889Y-163361348D01*
X109536155Y-163299424D01*
X109564592Y-163244389D01*
X109598727Y-163221585D01*
X109597577Y-163219755D01*
X109757376Y-163119347D01*
X109880947Y-162995776D01*
X109973922Y-162847806D01*
X110031641Y-162682857D01*
X110036897Y-162636204D01*
X110051207Y-162509200D01*
X110031641Y-162335543D01*
X110030126Y-162331214D01*
X109973922Y-162170593D01*
X109880947Y-162022623D01*
X109757376Y-161899052D01*
X109609406Y-161806077D01*
X109444457Y-161748358D01*
X109270799Y-161728792D01*
X109097142Y-161748358D01*
X108932193Y-161806077D01*
X108784223Y-161899052D01*
X108660652Y-162022623D01*
X108567678Y-162170592D01*
X108511473Y-162331214D01*
X108482113Y-162377939D01*
X108363284Y-162496768D01*
X108346631Y-162510110D01*
X108296933Y-162563033D01*
X108294228Y-162565825D01*
X108275674Y-162584379D01*
X108235448Y-162611260D01*
X108187992Y-162620700D01*
X107578304Y-162620700D01*
X107557094Y-162618358D01*
X107484537Y-162620639D01*
X107480642Y-162620700D01*
X107451871Y-162620700D01*
X107447490Y-162621253D01*
X107435859Y-162622168D01*
X107390230Y-162623602D01*
X107369851Y-162629523D01*
X107350807Y-162633467D01*
X107336439Y-162635282D01*
X107329741Y-162636129D01*
X107287290Y-162652936D01*
X107276243Y-162656718D01*
X107232398Y-162669456D01*
X107214130Y-162680260D01*
X107196664Y-162688817D01*
X107176929Y-162696631D01*
X107140002Y-162723460D01*
X107130242Y-162729871D01*
X107090936Y-162753117D01*
X107075925Y-162768128D01*
X107061136Y-162780758D01*
X107043964Y-162793234D01*
X107014857Y-162828418D01*
X107006996Y-162837056D01*
X106788484Y-163055568D01*
X106771831Y-163068910D01*
X106722133Y-163121833D01*
X106719427Y-163124626D01*
X106699083Y-163144971D01*
X106696376Y-163148460D01*
X106688807Y-163157321D01*
X106657551Y-163190607D01*
X106647322Y-163209212D01*
X106636645Y-163225467D01*
X106620291Y-163246551D01*
X106604601Y-163271406D01*
X106575346Y-163295967D01*
X106477815Y-163354928D01*
X106357525Y-163475217D01*
X106338997Y-163505867D01*
X106296446Y-163548184D01*
X106239007Y-163565565D01*
X106180133Y-163553938D01*
X106133614Y-163516026D01*
X106122866Y-163501669D01*
X106078487Y-163442385D01*
X106074347Y-163436855D01*
X106061114Y-163426949D01*
X105959131Y-163350604D01*
X105824283Y-163300309D01*
X105764673Y-163293900D01*
X105764669Y-163293900D01*
X104168930Y-163293900D01*
X104109315Y-163300309D01*
X103974469Y-163350603D01*
X103974469Y-163350604D01*
X103928767Y-163384817D01*
X103891111Y-163413006D01*
X103843158Y-163434905D01*
X103790442Y-163434905D01*
X103742489Y-163413006D01*
X103704833Y-163384817D01*
X103659131Y-163350604D01*
X103607058Y-163331182D01*
X103509690Y-163294866D01*
X103510295Y-163293242D01*
X103480016Y-163282647D01*
X103440541Y-163242376D01*
X103422982Y-163188789D01*
X103421563Y-163172571D01*
X103417772Y-163129230D01*
X103417300Y-163118424D01*
X103417300Y-163112889D01*
X103413703Y-163082121D01*
X103413336Y-163078529D01*
X103412660Y-163070798D01*
X103406799Y-163003803D01*
X103406798Y-163003801D01*
X103406689Y-163002549D01*
X103402472Y-162983530D01*
X103381186Y-162925047D01*
X103376391Y-162911873D01*
X103375208Y-162908468D01*
X103351614Y-162837266D01*
X103351612Y-162837263D01*
X103351215Y-162836064D01*
X103342729Y-162818536D01*
X103342037Y-162817484D01*
X103342037Y-162817483D01*
X103300801Y-162754788D01*
X103298886Y-162751781D01*
X103285372Y-162729871D01*
X103259512Y-162687945D01*
X103259511Y-162687944D01*
X103258848Y-162686869D01*
X103246548Y-162671770D01*
X103191073Y-162619432D01*
X103188486Y-162616919D01*
X102955418Y-162383850D01*
X102928538Y-162343622D01*
X102919099Y-162296169D01*
X102919099Y-162160055D01*
X102908949Y-162060692D01*
X102876171Y-161961775D01*
X102855603Y-161899703D01*
X102855602Y-161899702D01*
X102855602Y-161899700D01*
X102766568Y-161755355D01*
X102646644Y-161635431D01*
X102502299Y-161546397D01*
X102341307Y-161493050D01*
X102246839Y-161483400D01*
X102241944Y-161482900D01*
X101695255Y-161482900D01*
X101595892Y-161493050D01*
X101434900Y-161546397D01*
X101290554Y-161635431D01*
X101280925Y-161645061D01*
X101225338Y-161677153D01*
X101161151Y-161677153D01*
X101105565Y-161645059D01*
X101096332Y-161635826D01*
X100952086Y-161546853D01*
X100791206Y-161493543D01*
X100691915Y-161483400D01*
X100668600Y-161483400D01*
X100668600Y-163370238D01*
X100659161Y-163417691D01*
X100632281Y-163457919D01*
X100616800Y-163473400D01*
X100616800Y-166294400D01*
X101164624Y-166294400D01*
X101224175Y-166287997D01*
X101358889Y-166237752D01*
X101442070Y-166175482D01*
X101490023Y-166153582D01*
X101542740Y-166153582D01*
X101590692Y-166175480D01*
X101674469Y-166238196D01*
X101792248Y-166282125D01*
X101823910Y-166293934D01*
X101823622Y-166294704D01*
X101861800Y-166308684D01*
X101901831Y-166353247D01*
X101916300Y-166411376D01*
X101916300Y-169469901D01*
X101899687Y-169531901D01*
X101854300Y-169577288D01*
X101792300Y-169593901D01*
X100718928Y-169593901D01*
X100689122Y-169597104D01*
X100659315Y-169600309D01*
X100524469Y-169650604D01*
X100409254Y-169736854D01*
X100323004Y-169852068D01*
X100272709Y-169986916D01*
X100271719Y-169996127D01*
X100267506Y-170035317D01*
X100266300Y-170046531D01*
X100266300Y-170069900D01*
X100249687Y-170131900D01*
X100204300Y-170177287D01*
X100142300Y-170193900D01*
X98671562Y-170193900D01*
X98624109Y-170184461D01*
X98583881Y-170157581D01*
X98191724Y-169765425D01*
X98187255Y-169760716D01*
X98141871Y-169710311D01*
X98087013Y-169670456D01*
X98081860Y-169666502D01*
X98029148Y-169623816D01*
X98016656Y-169617451D01*
X98000063Y-169607283D01*
X97988729Y-169599048D01*
X97953483Y-169583355D01*
X97926775Y-169571464D01*
X97920930Y-169568676D01*
X97860489Y-169537880D01*
X97846945Y-169534251D01*
X97828610Y-169527758D01*
X97815803Y-169522056D01*
X97749468Y-169507955D01*
X97743159Y-169506440D01*
X97677646Y-169488886D01*
X97663639Y-169488152D01*
X97644358Y-169485614D01*
X97637158Y-169484084D01*
X97630646Y-169482700D01*
X97630645Y-169482700D01*
X97562826Y-169482700D01*
X97556337Y-169482530D01*
X97551375Y-169482269D01*
X97488612Y-169478981D01*
X97488611Y-169478981D01*
X97481076Y-169480174D01*
X97474771Y-169481173D01*
X97455374Y-169482700D01*
X97441352Y-169482700D01*
X97375011Y-169496801D01*
X97368628Y-169497984D01*
X97301648Y-169508592D01*
X97288557Y-169513617D01*
X97269915Y-169519139D01*
X97256196Y-169522055D01*
X97194235Y-169549642D01*
X97188240Y-169552126D01*
X97124928Y-169576429D01*
X97113174Y-169584063D01*
X97096081Y-169593344D01*
X97083271Y-169599047D01*
X97028394Y-169638917D01*
X97023048Y-169642591D01*
X96966175Y-169679526D01*
X96956258Y-169689442D01*
X96941469Y-169702072D01*
X96930128Y-169710311D01*
X96884743Y-169760716D01*
X96880277Y-169765423D01*
X96832321Y-169813379D01*
X96824687Y-169825135D01*
X96812850Y-169840562D01*
X96803469Y-169850981D01*
X96769557Y-169909716D01*
X96766168Y-169915245D01*
X96729229Y-169972130D01*
X96724204Y-169985219D01*
X96715832Y-170002771D01*
X96708822Y-170014913D01*
X96687854Y-170079441D01*
X96685689Y-170085552D01*
X96682091Y-170094928D01*
X96661391Y-170148855D01*
X96659199Y-170162694D01*
X96654660Y-170181603D01*
X96650325Y-170194945D01*
X96643234Y-170262403D01*
X96642388Y-170268834D01*
X96631780Y-170335814D01*
X96632514Y-170349809D01*
X96632005Y-170369254D01*
X96630539Y-170383198D01*
X96637628Y-170450645D01*
X96638137Y-170457115D01*
X96641686Y-170524846D01*
X96645315Y-170538387D01*
X96648860Y-170557515D01*
X96650325Y-170571454D01*
X96671282Y-170635954D01*
X96673125Y-170642176D01*
X96690679Y-170707687D01*
X96697042Y-170720174D01*
X96704489Y-170738153D01*
X96708820Y-170751483D01*
X96742725Y-170810208D01*
X96745823Y-170815913D01*
X96776617Y-170876349D01*
X96785439Y-170887243D01*
X96796458Y-170903276D01*
X96803466Y-170915415D01*
X96848855Y-170965826D01*
X96853066Y-170970756D01*
X96865883Y-170986582D01*
X96880274Y-171000973D01*
X96884743Y-171005682D01*
X96913045Y-171037115D01*
X96930129Y-171056088D01*
X96941467Y-171064325D01*
X96956265Y-171076964D01*
X97553436Y-171674136D01*
X97566069Y-171688926D01*
X97574312Y-171700271D01*
X97606192Y-171728976D01*
X97624707Y-171745647D01*
X97629415Y-171750115D01*
X97643820Y-171764520D01*
X97659637Y-171777328D01*
X97664575Y-171781545D01*
X97714981Y-171826931D01*
X97714983Y-171826932D01*
X97714984Y-171826933D01*
X97727122Y-171833941D01*
X97743154Y-171844959D01*
X97754051Y-171853783D01*
X97814479Y-171884571D01*
X97820174Y-171887664D01*
X97878912Y-171921577D01*
X97878913Y-171921577D01*
X97878916Y-171921579D01*
X97892253Y-171925912D01*
X97910220Y-171933355D01*
X97922712Y-171939720D01*
X97988228Y-171957274D01*
X97994437Y-171959114D01*
X98058944Y-171980074D01*
X98072890Y-171981539D01*
X98092003Y-171985081D01*
X98105555Y-171988713D01*
X98173298Y-171992262D01*
X98179752Y-171992771D01*
X98200004Y-171994900D01*
X98200008Y-171994900D01*
X98220375Y-171994900D01*
X98226864Y-171995070D01*
X98294588Y-171998619D01*
X98308428Y-171996426D01*
X98327826Y-171994900D01*
X100142301Y-171994900D01*
X100204301Y-172011513D01*
X100249688Y-172056900D01*
X100266301Y-172118900D01*
X100266301Y-172142272D01*
X100270573Y-172182012D01*
X100271203Y-172187878D01*
X100272709Y-172201883D01*
X100323004Y-172336731D01*
X100331784Y-172348459D01*
X100389224Y-172425189D01*
X100413463Y-172488447D01*
X100400841Y-172555004D01*
X100355124Y-172604995D01*
X100289957Y-172623500D01*
X41324706Y-172623500D01*
X41319297Y-172623382D01*
X40922175Y-172606043D01*
X40911399Y-172605100D01*
X40519997Y-172553571D01*
X40509343Y-172551693D01*
X40123901Y-172466242D01*
X40113453Y-172463442D01*
X39736941Y-172344729D01*
X39726775Y-172341029D01*
X39362034Y-172189948D01*
X39352230Y-172185376D01*
X39002057Y-172003087D01*
X38992689Y-171997679D01*
X38659718Y-171785553D01*
X38650857Y-171779348D01*
X38398710Y-171585869D01*
X48535100Y-171585869D01*
X48541509Y-171645484D01*
X48557713Y-171688928D01*
X48591804Y-171780331D01*
X48678054Y-171895546D01*
X48793269Y-171981796D01*
X48928117Y-172032091D01*
X48987727Y-172038500D01*
X50783472Y-172038499D01*
X50843083Y-172032091D01*
X50977931Y-171981796D01*
X51093146Y-171895546D01*
X51179396Y-171780331D01*
X51228410Y-171648916D01*
X51263389Y-171598537D01*
X51318234Y-171571084D01*
X51379527Y-171573273D01*
X51432273Y-171604569D01*
X51554199Y-171726495D01*
X51747770Y-171862035D01*
X51961937Y-171961903D01*
X52190192Y-172023063D01*
X52425600Y-172043659D01*
X52661008Y-172023063D01*
X52889263Y-171961903D01*
X53103430Y-171862035D01*
X53297001Y-171726495D01*
X53464095Y-171559401D01*
X53599635Y-171365830D01*
X53699503Y-171151663D01*
X53760663Y-170923408D01*
X53781259Y-170688000D01*
X53760663Y-170452592D01*
X53699503Y-170224337D01*
X53599635Y-170010171D01*
X53464095Y-169816599D01*
X53297001Y-169649505D01*
X53103430Y-169513965D01*
X52889263Y-169414097D01*
X52828102Y-169397709D01*
X52661007Y-169352936D01*
X52425600Y-169332340D01*
X52190192Y-169352936D01*
X51961936Y-169414097D01*
X51747770Y-169513965D01*
X51554201Y-169649503D01*
X51432273Y-169771431D01*
X51379526Y-169802726D01*
X51318234Y-169804915D01*
X51263389Y-169777462D01*
X51228410Y-169727082D01*
X51214371Y-169689442D01*
X51179396Y-169595669D01*
X51093146Y-169480454D01*
X50977931Y-169394204D01*
X50974907Y-169393076D01*
X50966765Y-169390039D01*
X50924529Y-169363600D01*
X50896112Y-169322670D01*
X50886100Y-169273858D01*
X50886100Y-167893999D01*
X73878531Y-167893999D01*
X73898364Y-168120689D01*
X73957261Y-168340497D01*
X74053432Y-168546735D01*
X74183953Y-168733140D01*
X74344859Y-168894046D01*
X74531264Y-169024567D01*
X74531265Y-169024567D01*
X74531266Y-169024568D01*
X74737504Y-169120739D01*
X74957308Y-169179635D01*
X75040896Y-169186948D01*
X75127214Y-169194500D01*
X75127216Y-169194500D01*
X75240784Y-169194500D01*
X75240786Y-169194500D01*
X75308747Y-169188553D01*
X75410692Y-169179635D01*
X75630496Y-169120739D01*
X75836734Y-169024568D01*
X76023139Y-168894047D01*
X76184047Y-168733139D01*
X76314568Y-168546734D01*
X76410739Y-168340496D01*
X76469635Y-168120692D01*
X76489468Y-167894000D01*
X76469635Y-167667308D01*
X76410739Y-167447504D01*
X76314568Y-167241266D01*
X76294199Y-167212176D01*
X76184046Y-167054859D01*
X76023140Y-166893953D01*
X75836735Y-166763432D01*
X75630497Y-166667261D01*
X75410689Y-166608364D01*
X75240786Y-166593500D01*
X75240784Y-166593500D01*
X75127216Y-166593500D01*
X75127214Y-166593500D01*
X74957310Y-166608364D01*
X74737502Y-166667261D01*
X74531264Y-166763432D01*
X74344859Y-166893953D01*
X74183953Y-167054859D01*
X74053432Y-167241264D01*
X73957261Y-167447502D01*
X73898364Y-167667310D01*
X73878531Y-167893999D01*
X50886100Y-167893999D01*
X50886100Y-165044400D01*
X99116800Y-165044400D01*
X99116800Y-165842224D01*
X99123202Y-165901775D01*
X99173447Y-166036489D01*
X99259611Y-166151588D01*
X99374710Y-166237752D01*
X99509424Y-166287997D01*
X99568976Y-166294400D01*
X100116800Y-166294400D01*
X100116800Y-165044400D01*
X99116800Y-165044400D01*
X50886100Y-165044400D01*
X50886100Y-164544400D01*
X99116800Y-164544400D01*
X100116800Y-164544400D01*
X100116800Y-163357562D01*
X100126239Y-163310109D01*
X100153119Y-163269881D01*
X100168600Y-163254400D01*
X100168600Y-162708400D01*
X99468601Y-162708400D01*
X99468601Y-162756715D01*
X99478743Y-162856005D01*
X99532052Y-163016883D01*
X99591645Y-163113497D01*
X99609960Y-163172571D01*
X99597463Y-163233143D01*
X99557264Y-163280145D01*
X99523124Y-163292962D01*
X99524018Y-163295359D01*
X99374710Y-163351047D01*
X99259611Y-163437211D01*
X99173447Y-163552310D01*
X99123202Y-163687024D01*
X99116800Y-163746576D01*
X99116800Y-164544400D01*
X50886100Y-164544400D01*
X50886100Y-161754100D01*
X50902713Y-161692100D01*
X50948100Y-161646713D01*
X51010100Y-161630100D01*
X54697321Y-161630100D01*
X54700462Y-161630139D01*
X54787963Y-161632357D01*
X54846032Y-161621948D01*
X54855336Y-161620643D01*
X54914038Y-161614674D01*
X54943067Y-161605565D01*
X54958300Y-161601826D01*
X54988253Y-161596458D01*
X55043026Y-161574578D01*
X55051901Y-161571419D01*
X55069275Y-161565967D01*
X55108188Y-161553759D01*
X55134794Y-161538990D01*
X55148962Y-161532262D01*
X55177217Y-161520977D01*
X55226479Y-161488509D01*
X55234510Y-161483643D01*
X55286102Y-161455009D01*
X55309187Y-161435189D01*
X55321714Y-161425744D01*
X55347119Y-161409002D01*
X55388851Y-161367268D01*
X55395723Y-161360900D01*
X55440495Y-161322466D01*
X55459119Y-161298403D01*
X55469480Y-161286639D01*
X56801140Y-159954981D01*
X56801140Y-159954980D01*
X57390209Y-159365910D01*
X57392379Y-159363794D01*
X57455853Y-159303459D01*
X57489565Y-159255022D01*
X57495208Y-159247538D01*
X57532498Y-159201807D01*
X57546586Y-159174835D01*
X57554711Y-159161424D01*
X57572095Y-159136449D01*
X57595368Y-159082215D01*
X57599398Y-159073731D01*
X57618165Y-159037806D01*
X57626709Y-159021449D01*
X57635078Y-158992197D01*
X57640334Y-158977432D01*
X57652340Y-158949458D01*
X57664218Y-158891656D01*
X57666451Y-158882556D01*
X57682687Y-158825818D01*
X57684997Y-158795477D01*
X57687176Y-158779935D01*
X57693300Y-158750141D01*
X57693300Y-158691157D01*
X57693658Y-158681743D01*
X57695941Y-158651759D01*
X57698137Y-158622923D01*
X57694293Y-158592747D01*
X57693300Y-158577082D01*
X57693300Y-158292860D01*
X57690517Y-158265497D01*
X57682135Y-158183073D01*
X57681500Y-158170529D01*
X57681500Y-158167192D01*
X57683704Y-158145614D01*
X57683659Y-158144066D01*
X57683660Y-158144062D01*
X57681552Y-158071618D01*
X57681500Y-158068012D01*
X57681500Y-156497471D01*
X57681499Y-156497461D01*
X57681499Y-155629130D01*
X57679894Y-155614200D01*
X57675091Y-155569517D01*
X57624796Y-155434669D01*
X57538546Y-155319454D01*
X57423331Y-155233204D01*
X57288483Y-155182909D01*
X57228873Y-155176500D01*
X57228869Y-155176500D01*
X56683126Y-155176500D01*
X56644252Y-155180679D01*
X56617749Y-155180679D01*
X56591847Y-155177894D01*
X56578873Y-155176500D01*
X56578871Y-155176500D01*
X56033126Y-155176500D01*
X55991904Y-155180931D01*
X55965403Y-155180931D01*
X55928829Y-155177000D01*
X55881000Y-155177000D01*
X55869379Y-155188620D01*
X55867884Y-155194949D01*
X55831311Y-155238712D01*
X55723454Y-155319453D01*
X55709895Y-155337566D01*
X55654264Y-155411878D01*
X55606511Y-155450360D01*
X55546154Y-155461250D01*
X55487961Y-155441881D01*
X55446168Y-155396993D01*
X55431000Y-155337566D01*
X55431000Y-155177000D01*
X55383174Y-155177000D01*
X55344252Y-155181184D01*
X55317745Y-155181184D01*
X55278825Y-155177000D01*
X55231000Y-155177000D01*
X55231000Y-155337566D01*
X55215832Y-155396993D01*
X55174039Y-155441881D01*
X55115846Y-155461250D01*
X55055489Y-155450360D01*
X55007735Y-155411878D01*
X54938546Y-155319454D01*
X54830689Y-155238712D01*
X54794116Y-155194949D01*
X54792620Y-155188620D01*
X54781000Y-155177000D01*
X54733172Y-155177000D01*
X54696598Y-155180931D01*
X54670095Y-155180931D01*
X54632857Y-155176928D01*
X54628872Y-155176500D01*
X54083126Y-155176500D01*
X54044252Y-155180679D01*
X54017749Y-155180679D01*
X53991847Y-155177894D01*
X53978873Y-155176500D01*
X53978871Y-155176500D01*
X53433126Y-155176500D01*
X53394252Y-155180679D01*
X53367749Y-155180679D01*
X53341847Y-155177894D01*
X53328873Y-155176500D01*
X53328871Y-155176500D01*
X52783126Y-155176500D01*
X52744252Y-155180679D01*
X52717749Y-155180679D01*
X52691847Y-155177894D01*
X52678873Y-155176500D01*
X52678871Y-155176500D01*
X52133126Y-155176500D01*
X52091904Y-155180931D01*
X52065403Y-155180931D01*
X52028829Y-155177000D01*
X51981000Y-155177000D01*
X51969379Y-155188620D01*
X51967884Y-155194949D01*
X51931311Y-155238712D01*
X51823454Y-155319453D01*
X51809895Y-155337566D01*
X51754264Y-155411878D01*
X51706511Y-155450360D01*
X51646154Y-155461250D01*
X51587961Y-155441881D01*
X51546168Y-155396993D01*
X51531000Y-155337566D01*
X51531000Y-155177000D01*
X51483174Y-155177000D01*
X51444252Y-155181184D01*
X51417745Y-155181184D01*
X51378825Y-155177000D01*
X51331000Y-155177000D01*
X51331000Y-155337566D01*
X51315832Y-155396993D01*
X51274039Y-155441881D01*
X51215846Y-155461250D01*
X51155489Y-155450360D01*
X51107735Y-155411878D01*
X51038546Y-155319454D01*
X50930689Y-155238712D01*
X50894116Y-155194949D01*
X50892620Y-155188620D01*
X50881000Y-155177000D01*
X50833172Y-155177000D01*
X50796598Y-155180931D01*
X50770095Y-155180931D01*
X50732857Y-155176928D01*
X50728872Y-155176500D01*
X50183126Y-155176500D01*
X50144252Y-155180679D01*
X50117749Y-155180679D01*
X50091847Y-155177894D01*
X50078873Y-155176500D01*
X50078871Y-155176500D01*
X49533130Y-155176500D01*
X49473515Y-155182909D01*
X49338669Y-155233204D01*
X49223454Y-155319454D01*
X49137204Y-155434668D01*
X49086909Y-155569516D01*
X49080500Y-155629131D01*
X49080500Y-157862447D01*
X49074813Y-157899568D01*
X49058275Y-157933282D01*
X49047631Y-157948576D01*
X49006305Y-158007950D01*
X48926060Y-158194941D01*
X48916103Y-158243396D01*
X48885993Y-158389917D01*
X48885100Y-158394261D01*
X48885100Y-160601099D01*
X48884941Y-160607380D01*
X48881230Y-160680535D01*
X48883670Y-160696456D01*
X48885100Y-160715235D01*
X48885100Y-169273858D01*
X48875088Y-169322670D01*
X48846671Y-169363600D01*
X48804435Y-169390039D01*
X48793271Y-169394203D01*
X48793270Y-169394203D01*
X48793269Y-169394204D01*
X48739887Y-169434166D01*
X48678054Y-169480454D01*
X48591804Y-169595668D01*
X48547557Y-169714300D01*
X48541509Y-169730517D01*
X48535271Y-169788544D01*
X48535100Y-169790130D01*
X48535100Y-171585869D01*
X38398710Y-171585869D01*
X38337651Y-171539017D01*
X38329364Y-171532063D01*
X38038298Y-171265350D01*
X38030649Y-171257701D01*
X37763936Y-170966635D01*
X37756982Y-170958348D01*
X37516651Y-170645142D01*
X37510446Y-170636281D01*
X37411418Y-170480839D01*
X37298319Y-170303309D01*
X37292912Y-170293942D01*
X37234432Y-170181603D01*
X37110620Y-169943762D01*
X37106051Y-169933965D01*
X37104165Y-169929412D01*
X36954966Y-169569214D01*
X36951270Y-169559058D01*
X36949084Y-169552126D01*
X36832556Y-169182542D01*
X36829757Y-169172098D01*
X36828198Y-169165064D01*
X36744304Y-168786648D01*
X36742428Y-168776002D01*
X36690897Y-168384581D01*
X36689957Y-168373845D01*
X36672617Y-167976702D01*
X36672500Y-167971294D01*
X36672500Y-161925000D01*
X40016531Y-161925000D01*
X40036364Y-162151689D01*
X40095261Y-162371497D01*
X40191432Y-162577735D01*
X40321953Y-162764140D01*
X40482859Y-162925046D01*
X40669264Y-163055567D01*
X40669265Y-163055567D01*
X40669266Y-163055568D01*
X40875504Y-163151739D01*
X41095308Y-163210635D01*
X41176702Y-163217756D01*
X41265214Y-163225500D01*
X41265216Y-163225500D01*
X41378784Y-163225500D01*
X41378786Y-163225500D01*
X41467298Y-163217756D01*
X41548692Y-163210635D01*
X41768496Y-163151739D01*
X41974734Y-163055568D01*
X42161139Y-162925047D01*
X42322047Y-162764139D01*
X42452568Y-162577734D01*
X42548739Y-162371496D01*
X42607635Y-162151692D01*
X42627468Y-161925000D01*
X42607635Y-161698308D01*
X42548739Y-161478504D01*
X42452568Y-161272266D01*
X42450790Y-161269727D01*
X42322046Y-161085859D01*
X42161140Y-160924953D01*
X41974735Y-160794432D01*
X41768497Y-160698261D01*
X41548689Y-160639364D01*
X41378786Y-160624500D01*
X41378784Y-160624500D01*
X41265216Y-160624500D01*
X41265214Y-160624500D01*
X41095310Y-160639364D01*
X40875502Y-160698261D01*
X40669264Y-160794432D01*
X40482859Y-160924953D01*
X40321953Y-161085859D01*
X40191432Y-161272264D01*
X40095261Y-161478502D01*
X40036364Y-161698310D01*
X40016531Y-161925000D01*
X36672500Y-161925000D01*
X36672500Y-144145000D01*
X40016531Y-144145000D01*
X40036364Y-144371689D01*
X40095261Y-144591497D01*
X40191432Y-144797735D01*
X40321953Y-144984140D01*
X40482859Y-145145046D01*
X40669264Y-145275567D01*
X40669265Y-145275567D01*
X40669266Y-145275568D01*
X40875504Y-145371739D01*
X41095308Y-145430635D01*
X41180261Y-145438067D01*
X41265214Y-145445500D01*
X41265216Y-145445500D01*
X41378784Y-145445500D01*
X41378786Y-145445500D01*
X41446747Y-145439553D01*
X41548692Y-145430635D01*
X41768496Y-145371739D01*
X41974734Y-145275568D01*
X42161139Y-145145047D01*
X42322047Y-144984139D01*
X42452568Y-144797734D01*
X42548739Y-144591496D01*
X42607635Y-144371692D01*
X42627468Y-144145000D01*
X42607635Y-143918308D01*
X42548739Y-143698504D01*
X42452568Y-143492266D01*
X42444729Y-143481071D01*
X42322046Y-143305859D01*
X42161140Y-143144953D01*
X41974735Y-143014432D01*
X41768497Y-142918261D01*
X41548689Y-142859364D01*
X41378786Y-142844500D01*
X41378784Y-142844500D01*
X41265216Y-142844500D01*
X41265214Y-142844500D01*
X41095310Y-142859364D01*
X40875502Y-142918261D01*
X40669264Y-143014432D01*
X40482859Y-143144953D01*
X40321953Y-143305859D01*
X40191432Y-143492264D01*
X40095261Y-143698502D01*
X40036364Y-143918310D01*
X40016531Y-144145000D01*
X36672500Y-144145000D01*
X36672500Y-138175999D01*
X73878531Y-138175999D01*
X73898364Y-138402689D01*
X73957261Y-138622497D01*
X74053432Y-138828735D01*
X74183953Y-139015140D01*
X74344859Y-139176046D01*
X74531264Y-139306567D01*
X74531265Y-139306567D01*
X74531266Y-139306568D01*
X74737504Y-139402739D01*
X74957308Y-139461635D01*
X75042261Y-139469067D01*
X75127214Y-139476500D01*
X75127216Y-139476500D01*
X75240784Y-139476500D01*
X75240786Y-139476500D01*
X75308747Y-139470553D01*
X75410692Y-139461635D01*
X75630496Y-139402739D01*
X75836734Y-139306568D01*
X76023139Y-139176047D01*
X76184047Y-139015139D01*
X76314568Y-138828734D01*
X76410739Y-138622496D01*
X76469635Y-138402692D01*
X76478654Y-138299600D01*
X81778201Y-138299600D01*
X81778201Y-138322915D01*
X81788343Y-138422205D01*
X81841653Y-138583086D01*
X81930626Y-138727332D01*
X82050467Y-138847173D01*
X82194713Y-138936146D01*
X82355593Y-138989456D01*
X82454885Y-138999600D01*
X82503200Y-138999600D01*
X82503200Y-138299600D01*
X83003200Y-138299600D01*
X83003200Y-138999599D01*
X83051515Y-138999599D01*
X83150805Y-138989456D01*
X83311686Y-138936146D01*
X83455932Y-138847173D01*
X83575773Y-138727332D01*
X83664746Y-138583086D01*
X83718056Y-138422206D01*
X83728200Y-138322915D01*
X83728200Y-138299600D01*
X83003200Y-138299600D01*
X82503200Y-138299600D01*
X81778201Y-138299600D01*
X76478654Y-138299600D01*
X76489468Y-138176000D01*
X76469635Y-137949308D01*
X76410739Y-137729504D01*
X76314568Y-137523266D01*
X76309559Y-137516113D01*
X76184046Y-137336859D01*
X76023140Y-137175953D01*
X75836735Y-137045432D01*
X75630497Y-136949261D01*
X75410689Y-136890364D01*
X75240786Y-136875500D01*
X75240784Y-136875500D01*
X75127216Y-136875500D01*
X75127214Y-136875500D01*
X74957310Y-136890364D01*
X74737502Y-136949261D01*
X74531264Y-137045432D01*
X74344859Y-137175953D01*
X74183953Y-137336859D01*
X74053432Y-137523264D01*
X73957261Y-137729502D01*
X73898364Y-137949310D01*
X73878531Y-138175999D01*
X36672500Y-138175999D01*
X36672500Y-138098706D01*
X36672618Y-138093297D01*
X36677599Y-137979211D01*
X36689957Y-137696152D01*
X36690897Y-137685420D01*
X36742430Y-137293985D01*
X36744303Y-137283355D01*
X36829759Y-136897891D01*
X36832557Y-136887453D01*
X36951276Y-136510924D01*
X36954963Y-136500792D01*
X37046472Y-136279869D01*
X42083500Y-136279869D01*
X42089909Y-136339484D01*
X42093272Y-136348500D01*
X42140204Y-136474331D01*
X42226454Y-136589546D01*
X42341669Y-136675796D01*
X42476517Y-136726091D01*
X42536127Y-136732500D01*
X44331872Y-136732499D01*
X44391483Y-136726091D01*
X44526331Y-136675796D01*
X44641546Y-136589546D01*
X44727796Y-136474331D01*
X44776810Y-136342916D01*
X44811789Y-136292537D01*
X44866634Y-136265084D01*
X44927927Y-136267273D01*
X44980673Y-136298569D01*
X45102599Y-136420495D01*
X45296170Y-136556035D01*
X45510337Y-136655903D01*
X45738592Y-136717063D01*
X45974000Y-136737659D01*
X46209408Y-136717063D01*
X46437663Y-136655903D01*
X46651830Y-136556035D01*
X46845401Y-136420495D01*
X47012495Y-136253401D01*
X47142426Y-136067839D01*
X47186743Y-136028975D01*
X47244000Y-136014964D01*
X47301257Y-136028975D01*
X47345573Y-136067839D01*
X47475505Y-136253401D01*
X47642599Y-136420495D01*
X47836170Y-136556035D01*
X48050337Y-136655903D01*
X48278592Y-136717063D01*
X48514000Y-136737659D01*
X48749408Y-136717063D01*
X48977663Y-136655903D01*
X49191830Y-136556035D01*
X49385401Y-136420495D01*
X49552495Y-136253401D01*
X49682732Y-136067402D01*
X49727048Y-136028539D01*
X49784305Y-136014528D01*
X49841562Y-136028539D01*
X49885880Y-136067404D01*
X50015893Y-136253081D01*
X50182918Y-136420106D01*
X50376423Y-136555600D01*
X50590507Y-136655430D01*
X50803999Y-136712635D01*
X50804000Y-136712636D01*
X50804000Y-135632000D01*
X51304000Y-135632000D01*
X51304000Y-136712635D01*
X51517492Y-136655430D01*
X51731576Y-136555600D01*
X51925081Y-136420106D01*
X52092106Y-136253081D01*
X52227600Y-136059576D01*
X52327430Y-135845492D01*
X52384636Y-135632000D01*
X51304000Y-135632000D01*
X50804000Y-135632000D01*
X50804000Y-134051364D01*
X51304000Y-134051364D01*
X51304000Y-135132000D01*
X52384636Y-135132000D01*
X52384635Y-135131999D01*
X52327430Y-134918507D01*
X52227599Y-134704421D01*
X52092109Y-134510921D01*
X51925081Y-134343893D01*
X51731576Y-134208399D01*
X51517492Y-134108569D01*
X51304000Y-134051364D01*
X50804000Y-134051364D01*
X50803999Y-134051364D01*
X50590507Y-134108569D01*
X50376421Y-134208400D01*
X50182921Y-134343890D01*
X50015893Y-134510918D01*
X49885880Y-134696596D01*
X49841562Y-134735461D01*
X49784305Y-134749472D01*
X49727048Y-134735461D01*
X49682730Y-134696595D01*
X49552495Y-134510599D01*
X49385401Y-134343505D01*
X49191830Y-134207965D01*
X48977663Y-134108097D01*
X48916501Y-134091709D01*
X48749407Y-134046936D01*
X48514000Y-134026340D01*
X48278592Y-134046936D01*
X48050336Y-134108097D01*
X47836170Y-134207965D01*
X47642598Y-134343505D01*
X47475505Y-134510598D01*
X47345575Y-134696159D01*
X47301257Y-134735025D01*
X47244000Y-134749036D01*
X47186743Y-134735025D01*
X47142425Y-134696159D01*
X47073347Y-134597505D01*
X47012495Y-134510599D01*
X46845401Y-134343505D01*
X46651830Y-134207965D01*
X46437663Y-134108097D01*
X46376501Y-134091709D01*
X46209407Y-134046936D01*
X45974000Y-134026340D01*
X45738592Y-134046936D01*
X45510336Y-134108097D01*
X45296170Y-134207965D01*
X45102601Y-134343503D01*
X44980673Y-134465431D01*
X44927926Y-134496726D01*
X44866634Y-134498915D01*
X44811789Y-134471462D01*
X44776810Y-134421082D01*
X44748019Y-134343890D01*
X44727796Y-134289669D01*
X44641546Y-134174454D01*
X44526331Y-134088204D01*
X44391483Y-134037909D01*
X44331873Y-134031500D01*
X44331869Y-134031500D01*
X42536130Y-134031500D01*
X42476515Y-134037909D01*
X42341669Y-134088204D01*
X42226454Y-134174454D01*
X42140204Y-134289668D01*
X42089909Y-134424516D01*
X42083500Y-134484130D01*
X42083500Y-136279869D01*
X37046472Y-136279869D01*
X37106057Y-136136019D01*
X37110615Y-136126245D01*
X37292918Y-135776045D01*
X37298313Y-135766700D01*
X37510453Y-135433707D01*
X37516643Y-135424867D01*
X37756989Y-135111642D01*
X37763927Y-135103373D01*
X38030659Y-134812287D01*
X38038287Y-134804659D01*
X38329373Y-134537927D01*
X38337642Y-134530989D01*
X38650867Y-134290643D01*
X38659707Y-134284453D01*
X38992700Y-134072313D01*
X39002045Y-134066918D01*
X39352245Y-133884615D01*
X39362019Y-133880057D01*
X39726792Y-133728963D01*
X39736924Y-133725276D01*
X40113462Y-133606554D01*
X40123891Y-133603759D01*
X40509355Y-133518303D01*
X40519985Y-133516430D01*
X40911420Y-133464897D01*
X40922152Y-133463957D01*
X41319297Y-133446617D01*
X41324706Y-133446500D01*
X41377514Y-133446500D01*
X87102614Y-133446500D01*
X87158909Y-133460015D01*
G37*
G04 #@! TD.AperFunction*
G04 #@! TA.AperFunction,Conductor*
G36*
X107376000Y-165527013D02*
G01*
X107421387Y-165572400D01*
X107438000Y-165634400D01*
X107438000Y-166660399D01*
X107519579Y-166660399D01*
X107590104Y-166653991D01*
X107766773Y-166598939D01*
X107767751Y-166602077D01*
X107809629Y-166590689D01*
X107874904Y-166610252D01*
X107919986Y-166661352D01*
X107928463Y-166711892D01*
X107930028Y-166711716D01*
X107951158Y-166899257D01*
X108008876Y-167064203D01*
X108008878Y-167064206D01*
X108035094Y-167105929D01*
X108054051Y-167168422D01*
X108038628Y-167231881D01*
X107993101Y-167278703D01*
X107930100Y-167295900D01*
X106280229Y-167295900D01*
X106232776Y-167286461D01*
X106192548Y-167259581D01*
X105753619Y-166820651D01*
X105726739Y-166780423D01*
X105717300Y-166732970D01*
X105717300Y-166411376D01*
X105731769Y-166353247D01*
X105771799Y-166308684D01*
X105809977Y-166294703D01*
X105809690Y-166293934D01*
X105841351Y-166282125D01*
X105959131Y-166238196D01*
X106067766Y-166156871D01*
X106121736Y-166133818D01*
X106180263Y-166138165D01*
X106230237Y-166168939D01*
X106260461Y-166219246D01*
X106269981Y-166249798D01*
X106357925Y-166395275D01*
X106478124Y-166515474D01*
X106623603Y-166603419D01*
X106785893Y-166653990D01*
X106856424Y-166660400D01*
X106938000Y-166660400D01*
X106938000Y-165634400D01*
X106954613Y-165572400D01*
X107000000Y-165527013D01*
X107062000Y-165510400D01*
X107314000Y-165510400D01*
X107376000Y-165527013D01*
G37*
G04 #@! TD.AperFunction*
G04 #@! TA.AperFunction,Conductor*
G36*
X96367100Y-150448613D02*
G01*
X96412487Y-150494000D01*
X96429100Y-150556000D01*
X96429100Y-151372432D01*
X96422141Y-151413387D01*
X96368758Y-151565942D01*
X96349192Y-151739600D01*
X96368758Y-151913257D01*
X96426477Y-152078206D01*
X96519452Y-152226176D01*
X96643021Y-152349745D01*
X96643023Y-152349746D01*
X96643024Y-152349747D01*
X96670826Y-152367216D01*
X96726194Y-152402006D01*
X96769416Y-152448240D01*
X96784191Y-152509782D01*
X96766670Y-152570599D01*
X96721417Y-152614848D01*
X96660222Y-152631000D01*
X95455722Y-152631000D01*
X95389097Y-152611581D01*
X95343340Y-152559405D01*
X95332783Y-152490815D01*
X95345500Y-152394221D01*
X95345500Y-152168780D01*
X95338788Y-152117800D01*
X95330687Y-152056264D01*
X95330686Y-152056262D01*
X95329557Y-152047685D01*
X95329557Y-152015313D01*
X95330685Y-152006738D01*
X95330687Y-152006736D01*
X95345500Y-151894220D01*
X95345500Y-151668780D01*
X95330687Y-151556264D01*
X95330686Y-151556261D01*
X95329557Y-151547686D01*
X95329557Y-151515314D01*
X95330686Y-151506738D01*
X95330687Y-151506736D01*
X95345500Y-151394220D01*
X95345500Y-151168780D01*
X95330687Y-151056264D01*
X95330686Y-151056261D01*
X95329557Y-151047686D01*
X95329557Y-151015314D01*
X95330686Y-151006738D01*
X95330687Y-151006736D01*
X95345500Y-150894220D01*
X95345500Y-150668780D01*
X95332783Y-150572184D01*
X95343340Y-150503595D01*
X95389097Y-150451419D01*
X95455722Y-150432000D01*
X96305100Y-150432000D01*
X96367100Y-150448613D01*
G37*
G04 #@! TD.AperFunction*
G04 #@! TA.AperFunction,Conductor*
G36*
X147189118Y-151283682D02*
G01*
X147227629Y-151327921D01*
X147241500Y-151384909D01*
X147241500Y-151405592D01*
X147232061Y-151453045D01*
X147205181Y-151493273D01*
X146934473Y-151763981D01*
X146894245Y-151790861D01*
X146846792Y-151800300D01*
X146824114Y-151800300D01*
X146767819Y-151786785D01*
X146723796Y-151749186D01*
X146701641Y-151695698D01*
X146706183Y-151637982D01*
X146736431Y-151588620D01*
X146991517Y-151333533D01*
X147008166Y-151320196D01*
X147009937Y-151318309D01*
X147009940Y-151318308D01*
X147022483Y-151304950D01*
X147027107Y-151300027D01*
X147076229Y-151267979D01*
X147134585Y-151262092D01*
X147189118Y-151283682D01*
G37*
G04 #@! TD.AperFunction*
G04 #@! TA.AperFunction,Conductor*
G36*
X53005693Y-150632559D02*
G01*
X53055078Y-150659879D01*
X53087240Y-150706257D01*
X53087748Y-150707541D01*
X53091520Y-150718563D01*
X53104256Y-150762400D01*
X53115061Y-150780670D01*
X53123621Y-150798143D01*
X53131431Y-150817869D01*
X53158267Y-150854808D01*
X53164673Y-150864560D01*
X53187919Y-150903865D01*
X53187921Y-150903867D01*
X53202925Y-150918871D01*
X53215564Y-150933669D01*
X53228037Y-150950837D01*
X53263212Y-150979936D01*
X53271854Y-150987800D01*
X53618673Y-151334619D01*
X53648923Y-151383982D01*
X53653465Y-151441698D01*
X53631310Y-151495185D01*
X53587287Y-151532785D01*
X53530992Y-151546300D01*
X52675324Y-151546300D01*
X52627871Y-151536861D01*
X52587643Y-151509981D01*
X52411502Y-151333840D01*
X52382141Y-151287114D01*
X52375963Y-151232275D01*
X52394187Y-151180191D01*
X52468322Y-151062206D01*
X52526041Y-150897257D01*
X52526041Y-150897256D01*
X52526042Y-150897254D01*
X52532761Y-150837616D01*
X52553527Y-150781648D01*
X52598040Y-150741869D01*
X52655981Y-150727499D01*
X52678868Y-150727499D01*
X52678872Y-150727499D01*
X52720101Y-150723067D01*
X52746606Y-150723068D01*
X52783171Y-150727000D01*
X52831000Y-150727000D01*
X52842619Y-150715380D01*
X52844115Y-150709052D01*
X52880686Y-150665290D01*
X52887914Y-150659879D01*
X52897624Y-150652609D01*
X52949314Y-150629957D01*
X53005693Y-150632559D01*
G37*
G04 #@! TD.AperFunction*
M02*
