G04 #@! TF.GenerationSoftware,KiCad,Pcbnew,7.0.1*
G04 #@! TF.CreationDate,2023-11-28T21:34:11+01:00*
G04 #@! TF.ProjectId,Gruzik2.0,4772757a-696b-4322-9e30-2e6b69636164,rev?*
G04 #@! TF.SameCoordinates,Original*
G04 #@! TF.FileFunction,Soldermask,Top*
G04 #@! TF.FilePolarity,Negative*
%FSLAX46Y46*%
G04 Gerber Fmt 4.6, Leading zero omitted, Abs format (unit mm)*
G04 Created by KiCad (PCBNEW 7.0.1) date 2023-11-28 21:34:11*
%MOMM*%
%LPD*%
G01*
G04 APERTURE LIST*
G04 Aperture macros list*
%AMRoundRect*
0 Rectangle with rounded corners*
0 $1 Rounding radius*
0 $2 $3 $4 $5 $6 $7 $8 $9 X,Y pos of 4 corners*
0 Add a 4 corners polygon primitive as box body*
4,1,4,$2,$3,$4,$5,$6,$7,$8,$9,$2,$3,0*
0 Add four circle primitives for the rounded corners*
1,1,$1+$1,$2,$3*
1,1,$1+$1,$4,$5*
1,1,$1+$1,$6,$7*
1,1,$1+$1,$8,$9*
0 Add four rect primitives between the rounded corners*
20,1,$1+$1,$2,$3,$4,$5,0*
20,1,$1+$1,$4,$5,$6,$7,0*
20,1,$1+$1,$6,$7,$8,$9,0*
20,1,$1+$1,$8,$9,$2,$3,0*%
%AMFreePoly0*
4,1,19,0.500000,-0.750000,0.000000,-0.750000,0.000000,-0.744911,-0.071157,-0.744911,-0.207708,-0.704816,-0.327430,-0.627875,-0.420627,-0.520320,-0.479746,-0.390866,-0.500000,-0.250000,-0.500000,0.250000,-0.479746,0.390866,-0.420627,0.520320,-0.327430,0.627875,-0.207708,0.704816,-0.071157,0.744911,0.000000,0.744911,0.000000,0.750000,0.500000,0.750000,0.500000,-0.750000,0.500000,-0.750000,
$1*%
%AMFreePoly1*
4,1,19,0.000000,0.744911,0.071157,0.744911,0.207708,0.704816,0.327430,0.627875,0.420627,0.520320,0.479746,0.390866,0.500000,0.250000,0.500000,-0.250000,0.479746,-0.390866,0.420627,-0.520320,0.327430,-0.627875,0.207708,-0.704816,0.071157,-0.744911,0.000000,-0.744911,0.000000,-0.750000,-0.500000,-0.750000,-0.500000,0.750000,0.000000,0.750000,0.000000,0.744911,0.000000,0.744911,
$1*%
G04 Aperture macros list end*
%ADD10C,1.500000*%
%ADD11C,2.100000*%
%ADD12R,1.700000X1.700000*%
%ADD13O,1.700000X1.700000*%
%ADD14FreePoly0,180.000000*%
%ADD15FreePoly1,180.000000*%
%ADD16FreePoly0,0.000000*%
%ADD17FreePoly1,0.000000*%
%ADD18RoundRect,0.200000X-0.200000X-0.275000X0.200000X-0.275000X0.200000X0.275000X-0.200000X0.275000X0*%
%ADD19RoundRect,0.102000X-0.500000X0.650000X-0.500000X-0.650000X0.500000X-0.650000X0.500000X0.650000X0*%
%ADD20RoundRect,0.102000X-0.650000X-0.500000X0.650000X-0.500000X0.650000X0.500000X-0.650000X0.500000X0*%
%ADD21RoundRect,0.102000X0.500000X-0.650000X0.500000X0.650000X-0.500000X0.650000X-0.500000X-0.650000X0*%
%ADD22R,1.500000X1.500000*%
%ADD23RoundRect,0.218750X0.218750X0.256250X-0.218750X0.256250X-0.218750X-0.256250X0.218750X-0.256250X0*%
G04 APERTURE END LIST*
D10*
X87426800Y-151751200D03*
X87426800Y-146871200D03*
D11*
X75184000Y-167894000D03*
D12*
X138379200Y-135585200D03*
D13*
X140919200Y-135585200D03*
D14*
X145846800Y-140208000D03*
D15*
X144546800Y-140208000D03*
D16*
X144526000Y-143002000D03*
D17*
X145826000Y-143002000D03*
D16*
X54580000Y-139903200D03*
D17*
X55880000Y-139903200D03*
D12*
X49885600Y-170688000D03*
D13*
X52425600Y-170688000D03*
D12*
X43434000Y-135382000D03*
D13*
X45974000Y-135382000D03*
X48514000Y-135382000D03*
X51054000Y-135382000D03*
D12*
X150774400Y-170992800D03*
D13*
X148234400Y-170992800D03*
D11*
X41322000Y-144145000D03*
D14*
X55880000Y-142748000D03*
D15*
X54580000Y-142748000D03*
D11*
X125476000Y-138176000D03*
X159338000Y-161925000D03*
D12*
X148437600Y-135636000D03*
D13*
X150977600Y-135636000D03*
X153517600Y-135636000D03*
X156057600Y-135636000D03*
X158597600Y-135636000D03*
D18*
X143560800Y-134569200D03*
X145210800Y-134569200D03*
X133350000Y-135483600D03*
X135000000Y-135483600D03*
D11*
X159338000Y-144145000D03*
D19*
X111431200Y-142697200D03*
X109931200Y-142697200D03*
X108431200Y-142697200D03*
X106931200Y-142697200D03*
X105431200Y-142697200D03*
X103931200Y-142697200D03*
X102431200Y-142697200D03*
X100931200Y-142697200D03*
X99431200Y-142697200D03*
X97931200Y-142697200D03*
X96431200Y-142697200D03*
X94931200Y-142697200D03*
X93431200Y-142697200D03*
D20*
X91931200Y-143797200D03*
X91931200Y-145297200D03*
X91931200Y-146797200D03*
X91931200Y-148297200D03*
X91931200Y-149797200D03*
X91931200Y-151297200D03*
X91931200Y-152797200D03*
X91931200Y-154297200D03*
D21*
X93431200Y-155397200D03*
X94931200Y-155397200D03*
X96431200Y-155397200D03*
X97931200Y-155397200D03*
X99431200Y-155397200D03*
X100931200Y-155397200D03*
X102431200Y-155397200D03*
X103931200Y-155397200D03*
X105431200Y-155397200D03*
X106931200Y-155397200D03*
X108431200Y-155397200D03*
X109931200Y-155397200D03*
X111431200Y-155397200D03*
D11*
X75184000Y-138176000D03*
D12*
X131666000Y-158496000D03*
D13*
X131666000Y-155956000D03*
X131666000Y-153416000D03*
X131666000Y-150876000D03*
X131666000Y-148336000D03*
X131666000Y-145796000D03*
D12*
X68834000Y-145796000D03*
D13*
X68834000Y-148336000D03*
X68834000Y-150876000D03*
X68834000Y-153416000D03*
X68834000Y-155956000D03*
X68834000Y-158496000D03*
D11*
X41322000Y-161925000D03*
D12*
X133604000Y-169722800D03*
D13*
X136144000Y-169722800D03*
D22*
X58494000Y-135636000D03*
X66294000Y-135636000D03*
D23*
X130924000Y-135483600D03*
X129349000Y-135483600D03*
D11*
X125476000Y-167894000D03*
M02*
