M48
; DRILL file {KiCad 7.0.1} date Tue Nov 28 21:34:18 2023
; FORMAT={-:-/ absolute / metric / decimal}
; #@! TF.CreationDate,2023-11-28T21:34:18+01:00
; #@! TF.GenerationSoftware,Kicad,Pcbnew,7.0.1
; #@! TF.FileFunction,Plated,1,4,PTH
FMAT,2
METRIC
; #@! TA.AperFunction,Plated,PTH,ViaDrill
T1C0.200
; #@! TA.AperFunction,Plated,PTH,ViaDrill
T2C0.250
; #@! TA.AperFunction,Plated,PTH,ViaDrill
T3C0.300
; #@! TA.AperFunction,Plated,PTH,ViaDrill
T4C0.400
; #@! TA.AperFunction,Plated,PTH,ComponentDrill
T5C0.800
; #@! TA.AperFunction,Plated,PTH,ComponentDrill
T6C1.000
%
G90
G05
T1
X51.765Y-150.724
X53.238Y-151.079
X54.356Y-148.052
X55.016Y-150.622
X64.313Y-144.882
X65.735Y-145.237
X69.139Y-135.636
X78.943Y-143.459
X79.045Y-142.443
X87.782Y-134.163
X87.782Y-135.23
X89.002Y-140.411
X95.504Y-161.493
X95.555Y-160.63
X97.13Y-151.74
X98.146Y-157.429
X98.52Y-148.101
X98.958Y-153.924
X99.162Y-145.339
X100.152Y-149.581
X100.33Y-144.49
X100.889Y-150.114
X101.057Y-148.168
X104.191Y-154.273
X109.271Y-162.509
X111.582Y-151.145
X112.776Y-137.414
X140.056Y-138.989
X146.863Y-151.536
X148.539Y-148.234
T2
X98.958Y-158.699
X108.712Y-166.726
X109.931Y-143.967
X111.431Y-143.916
X115.57Y-166.878
T3
X50.14Y-147.777
X51.867Y-154.432
X52.426Y-158.039
X52.426Y-158.902
X52.629Y-154.991
X53.848Y-154.991
X54.915Y-154.432
X57.302Y-147.777
X63.195Y-143.815
X84.734Y-153.619
X90.729Y-141.681
X91.694Y-140.818
X91.897Y-156.82
X91.948Y-157.937
X94.221Y-159.512
X94.894Y-137.312
X95.707Y-151.435
X95.771Y-159.499
X100.787Y-153.162
X105.156Y-144.869
X105.156Y-146.419
X106.477Y-153.48
X106.515Y-151.93
X107.29Y-166.929
X119.634Y-162.458
X136.156Y-135.484
X144.272Y-148.184
X145.796Y-135.992
X146.202Y-154.534
X147.015Y-155.194
X147.98Y-155.143
X148.234Y-158.242
X148.234Y-159.106
X149.149Y-154.534
X151.46Y-147.599
T4
X90.754Y-155.169
X97.536Y-170.383
X118.212Y-169.977
T5
X87.427Y-146.871
X87.427Y-151.751
T6
X43.434Y-135.382
X45.974Y-135.382
X48.514Y-135.382
X49.886Y-170.688
X51.054Y-135.382
X52.426Y-170.688
X68.834Y-145.796
X68.834Y-148.336
X68.834Y-150.876
X68.834Y-153.416
X68.834Y-155.956
X68.834Y-158.496
X131.666Y-145.796
X131.666Y-148.336
X131.666Y-150.876
X131.666Y-153.416
X131.666Y-155.956
X131.666Y-158.496
X133.604Y-169.723
X136.144Y-169.723
X138.379Y-135.585
X140.919Y-135.585
X148.234Y-170.993
X148.438Y-135.636
X150.774Y-170.993
X150.978Y-135.636
X153.518Y-135.636
X156.058Y-135.636
X158.598Y-135.636
T0
M30
