G04 #@! TF.GenerationSoftware,KiCad,Pcbnew,7.0.1*
G04 #@! TF.CreationDate,2023-11-29T16:19:33+01:00*
G04 #@! TF.ProjectId,Gruzik2.0,4772757a-696b-4322-9e30-2e6b69636164,rev?*
G04 #@! TF.SameCoordinates,Original*
G04 #@! TF.FileFunction,Paste,Top*
G04 #@! TF.FilePolarity,Positive*
%FSLAX46Y46*%
G04 Gerber Fmt 4.6, Leading zero omitted, Abs format (unit mm)*
G04 Created by KiCad (PCBNEW 7.0.1) date 2023-11-29 16:19:33*
%MOMM*%
%LPD*%
G01*
G04 APERTURE LIST*
G04 Aperture macros list*
%AMRoundRect*
0 Rectangle with rounded corners*
0 $1 Rounding radius*
0 $2 $3 $4 $5 $6 $7 $8 $9 X,Y pos of 4 corners*
0 Add a 4 corners polygon primitive as box body*
4,1,4,$2,$3,$4,$5,$6,$7,$8,$9,$2,$3,0*
0 Add four circle primitives for the rounded corners*
1,1,$1+$1,$2,$3*
1,1,$1+$1,$4,$5*
1,1,$1+$1,$6,$7*
1,1,$1+$1,$8,$9*
0 Add four rect primitives between the rounded corners*
20,1,$1+$1,$2,$3,$4,$5,0*
20,1,$1+$1,$4,$5,$6,$7,0*
20,1,$1+$1,$6,$7,$8,$9,0*
20,1,$1+$1,$8,$9,$2,$3,0*%
G04 Aperture macros list end*
%ADD10RoundRect,0.200000X-0.200000X-0.275000X0.200000X-0.275000X0.200000X0.275000X-0.200000X0.275000X0*%
%ADD11R,1.000000X1.300000*%
%ADD12R,1.300000X1.000000*%
%ADD13R,1.500000X1.500000*%
%ADD14RoundRect,0.218750X0.218750X0.256250X-0.218750X0.256250X-0.218750X-0.256250X0.218750X-0.256250X0*%
G04 APERTURE END LIST*
D10*
X143560800Y-134569200D03*
X145210800Y-134569200D03*
X133350000Y-135483600D03*
X135000000Y-135483600D03*
D11*
X111431200Y-142697200D03*
X109931200Y-142697200D03*
X108431200Y-142697200D03*
X106931200Y-142697200D03*
X105431200Y-142697200D03*
X103931200Y-142697200D03*
X102431200Y-142697200D03*
X100931200Y-142697200D03*
X99431200Y-142697200D03*
X97931200Y-142697200D03*
X96431200Y-142697200D03*
X94931200Y-142697200D03*
X93431200Y-142697200D03*
D12*
X91931200Y-143797200D03*
X91931200Y-145297200D03*
X91931200Y-146797200D03*
X91931200Y-148297200D03*
X91931200Y-149797200D03*
X91931200Y-151297200D03*
X91931200Y-152797200D03*
X91931200Y-154297200D03*
D11*
X93431200Y-155397200D03*
X94931200Y-155397200D03*
X96431200Y-155397200D03*
X97931200Y-155397200D03*
X99431200Y-155397200D03*
X100931200Y-155397200D03*
X102431200Y-155397200D03*
X103931200Y-155397200D03*
X105431200Y-155397200D03*
X106931200Y-155397200D03*
X108431200Y-155397200D03*
X109931200Y-155397200D03*
X111431200Y-155397200D03*
D13*
X58494000Y-135636000D03*
X66294000Y-135636000D03*
D14*
X130924000Y-135483600D03*
X129349000Y-135483600D03*
M02*
