G04 #@! TF.GenerationSoftware,KiCad,Pcbnew,7.0.1*
G04 #@! TF.CreationDate,2024-03-29T16:00:37+01:00*
G04 #@! TF.ProjectId,Qtr-8-SN,5174722d-382d-4534-9e2e-6b696361645f,rev?*
G04 #@! TF.SameCoordinates,Original*
G04 #@! TF.FileFunction,Copper,L1,Top*
G04 #@! TF.FilePolarity,Positive*
%FSLAX46Y46*%
G04 Gerber Fmt 4.6, Leading zero omitted, Abs format (unit mm)*
G04 Created by KiCad (PCBNEW 7.0.1) date 2024-03-29 16:00:37*
%MOMM*%
%LPD*%
G01*
G04 APERTURE LIST*
G04 Aperture macros list*
%AMRoundRect*
0 Rectangle with rounded corners*
0 $1 Rounding radius*
0 $2 $3 $4 $5 $6 $7 $8 $9 X,Y pos of 4 corners*
0 Add a 4 corners polygon primitive as box body*
4,1,4,$2,$3,$4,$5,$6,$7,$8,$9,$2,$3,0*
0 Add four circle primitives for the rounded corners*
1,1,$1+$1,$2,$3*
1,1,$1+$1,$4,$5*
1,1,$1+$1,$6,$7*
1,1,$1+$1,$8,$9*
0 Add four rect primitives between the rounded corners*
20,1,$1+$1,$2,$3,$4,$5,0*
20,1,$1+$1,$4,$5,$6,$7,0*
20,1,$1+$1,$6,$7,$8,$9,0*
20,1,$1+$1,$8,$9,$2,$3,0*%
G04 Aperture macros list end*
G04 #@! TA.AperFunction,SMDPad,CuDef*
%ADD10RoundRect,0.200000X0.200000X0.275000X-0.200000X0.275000X-0.200000X-0.275000X0.200000X-0.275000X0*%
G04 #@! TD*
G04 #@! TA.AperFunction,SMDPad,CuDef*
%ADD11RoundRect,0.225000X0.250000X-0.225000X0.250000X0.225000X-0.250000X0.225000X-0.250000X-0.225000X0*%
G04 #@! TD*
G04 #@! TA.AperFunction,SMDPad,CuDef*
%ADD12RoundRect,0.200000X-0.200000X-0.275000X0.200000X-0.275000X0.200000X0.275000X-0.200000X0.275000X0*%
G04 #@! TD*
G04 #@! TA.AperFunction,SMDPad,CuDef*
%ADD13RoundRect,0.225000X-0.250000X0.225000X-0.250000X-0.225000X0.250000X-0.225000X0.250000X0.225000X0*%
G04 #@! TD*
G04 #@! TA.AperFunction,SMDPad,CuDef*
%ADD14RoundRect,0.200000X-0.275000X0.200000X-0.275000X-0.200000X0.275000X-0.200000X0.275000X0.200000X0*%
G04 #@! TD*
G04 #@! TA.AperFunction,SMDPad,CuDef*
%ADD15RoundRect,0.150000X-0.587500X-0.150000X0.587500X-0.150000X0.587500X0.150000X-0.587500X0.150000X0*%
G04 #@! TD*
G04 #@! TA.AperFunction,ViaPad*
%ADD16C,0.550000*%
G04 #@! TD*
G04 #@! TA.AperFunction,Conductor*
%ADD17C,0.300000*%
G04 #@! TD*
G04 APERTURE END LIST*
D10*
X140205000Y-86750000D03*
X138555000Y-86750000D03*
D11*
X125910000Y-84650000D03*
X125910000Y-83100000D03*
D10*
X102840000Y-82040000D03*
X101190000Y-82040000D03*
D12*
X128780000Y-90040000D03*
X130430000Y-90040000D03*
D10*
X160030000Y-82040000D03*
X158380000Y-82040000D03*
X140970000Y-82020000D03*
X139320000Y-82020000D03*
D11*
X145110000Y-84660000D03*
X145110000Y-83110000D03*
D10*
X121860000Y-82040000D03*
X120210000Y-82040000D03*
D13*
X117620000Y-83570000D03*
X117620000Y-85120000D03*
D10*
X155465000Y-84980000D03*
X153815000Y-84980000D03*
D14*
X129720000Y-84910000D03*
X129720000Y-86560000D03*
D12*
X98870000Y-86170000D03*
X100520000Y-86170000D03*
D11*
X140130000Y-85120000D03*
X140130000Y-83570000D03*
X102010000Y-85110000D03*
X102010000Y-83560000D03*
D15*
X146215000Y-87880000D03*
X144340000Y-86930000D03*
X144340000Y-88830000D03*
D11*
X121070000Y-85110000D03*
X121070000Y-83560000D03*
X107020000Y-84650000D03*
X107020000Y-83100000D03*
D12*
X121080000Y-86620000D03*
X122730000Y-86620000D03*
D11*
X159180000Y-85090000D03*
X159180000Y-83540000D03*
X164190000Y-84660000D03*
X164190000Y-83110000D03*
D14*
X148890000Y-84900000D03*
X148890000Y-86550000D03*
D10*
X164185000Y-86160000D03*
X162535000Y-86160000D03*
D14*
X110660000Y-84920000D03*
X110660000Y-86570000D03*
D13*
X115615000Y-83570000D03*
X115615000Y-85120000D03*
D16*
X125370000Y-89765500D03*
X103415000Y-83355000D03*
X140990000Y-83600000D03*
X160970000Y-83110000D03*
X122220000Y-83570000D03*
X142000000Y-86210000D03*
X151570000Y-85950000D03*
X147120000Y-85925500D03*
X139070000Y-88960000D03*
X123020000Y-84930000D03*
X132300000Y-84940000D03*
X143020000Y-88820000D03*
X116610000Y-85160000D03*
X165230000Y-84010000D03*
X154670000Y-84000000D03*
X138750000Y-85710500D03*
X146140000Y-84660000D03*
X119650000Y-84910000D03*
X127070000Y-84910000D03*
X97635000Y-85590000D03*
X108000000Y-84790000D03*
X166070000Y-81970000D03*
X152880000Y-81790000D03*
X145010000Y-81670000D03*
X135500000Y-81820000D03*
X125874500Y-81810000D03*
X118520000Y-82040000D03*
X107000000Y-81690000D03*
X98120000Y-81700000D03*
X149040000Y-89220000D03*
X135117250Y-89837250D03*
X147630000Y-87220500D03*
X148900000Y-88210000D03*
X113755500Y-88760000D03*
X113360000Y-88080000D03*
X123730000Y-86620000D03*
X130131469Y-87378531D03*
X131895000Y-87375000D03*
X141999000Y-84979721D03*
D17*
X140130000Y-83570000D02*
X140960000Y-83570000D01*
X128765000Y-90170000D02*
X125774500Y-90170000D01*
X164190000Y-83110000D02*
X160970000Y-83110000D01*
X103670000Y-83100000D02*
X103415000Y-83355000D01*
X159180000Y-83540000D02*
X160540000Y-83540000D01*
X122690000Y-83100000D02*
X122220000Y-83570000D01*
X121070000Y-83560000D02*
X122210000Y-83560000D01*
X107020000Y-83100000D02*
X103670000Y-83100000D01*
X103415000Y-83355000D02*
X103210000Y-83560000D01*
X122210000Y-83560000D02*
X122220000Y-83570000D01*
X145110000Y-83110000D02*
X141480000Y-83110000D01*
X103210000Y-83560000D02*
X102010000Y-83560000D01*
X125774500Y-90170000D02*
X125370000Y-89765500D01*
X141480000Y-83110000D02*
X140990000Y-83600000D01*
X125910000Y-83100000D02*
X122690000Y-83100000D01*
X140960000Y-83570000D02*
X140990000Y-83600000D01*
X160540000Y-83540000D02*
X160970000Y-83110000D01*
X147144500Y-85950000D02*
X147810000Y-85950000D01*
X150010000Y-85950000D02*
X151550000Y-85950000D01*
X143020000Y-88820000D02*
X143030000Y-88830000D01*
X143030000Y-88830000D02*
X144340000Y-88830000D01*
X142000000Y-86770000D02*
X139810000Y-88960000D01*
X131580000Y-85660000D02*
X132300000Y-84940000D01*
X123020000Y-84930000D02*
X123750000Y-85660000D01*
X147810000Y-85950000D02*
X148050000Y-85710000D01*
X115615000Y-85120000D02*
X116570000Y-85120000D01*
X123750000Y-85660000D02*
X130750000Y-85660000D01*
X130750000Y-85660000D02*
X131580000Y-85660000D01*
X139810000Y-88960000D02*
X139070000Y-88960000D01*
X148050000Y-85710000D02*
X149770000Y-85710000D01*
X116650000Y-85120000D02*
X117620000Y-85120000D01*
X116610000Y-85160000D02*
X116650000Y-85120000D01*
X130750000Y-87113884D02*
X130750000Y-85660000D01*
X147120000Y-85925500D02*
X147144500Y-85950000D01*
X149770000Y-85710000D02*
X150010000Y-85950000D01*
X142000000Y-86210000D02*
X142000000Y-86770000D01*
X132596116Y-88960000D02*
X130750000Y-87113884D01*
X116570000Y-85120000D02*
X116610000Y-85160000D01*
X139070000Y-88960000D02*
X132596116Y-88960000D01*
X164840000Y-84010000D02*
X164190000Y-84660000D01*
X164185000Y-86160000D02*
X164185000Y-84665000D01*
X164185000Y-84665000D02*
X164190000Y-84660000D01*
X165230000Y-84010000D02*
X164840000Y-84010000D01*
X156530000Y-84770000D02*
X156320000Y-84980000D01*
X154670000Y-84000000D02*
X155270000Y-84000000D01*
X157790000Y-84770000D02*
X156530000Y-84770000D01*
X159180000Y-85090000D02*
X158110000Y-85090000D01*
X155465000Y-84195000D02*
X155465000Y-84980000D01*
X155270000Y-84000000D02*
X155465000Y-84195000D01*
X156320000Y-84980000D02*
X155465000Y-84980000D01*
X158110000Y-85090000D02*
X157790000Y-84770000D01*
X139340500Y-85120000D02*
X140130000Y-85120000D01*
X141090000Y-86400000D02*
X141090000Y-85410000D01*
X140210000Y-86660000D02*
X140830000Y-86660000D01*
X138750000Y-85710500D02*
X139340500Y-85120000D01*
X140800000Y-85120000D02*
X140130000Y-85120000D01*
X141090000Y-85410000D02*
X140800000Y-85120000D01*
X140830000Y-86660000D02*
X141090000Y-86400000D01*
X145110000Y-84660000D02*
X146140000Y-84660000D01*
X146140000Y-84660000D02*
X148650000Y-84660000D01*
X148650000Y-84660000D02*
X148890000Y-84900000D01*
X121080000Y-85120000D02*
X121070000Y-85110000D01*
X120190000Y-84910000D02*
X120390000Y-85110000D01*
X121080000Y-86620000D02*
X121080000Y-85120000D01*
X120390000Y-85110000D02*
X121070000Y-85110000D01*
X119650000Y-84910000D02*
X120190000Y-84910000D01*
X126810000Y-84650000D02*
X127070000Y-84910000D01*
X129720000Y-84910000D02*
X127070000Y-84910000D01*
X125910000Y-84650000D02*
X126810000Y-84650000D01*
X97635000Y-85925000D02*
X97880000Y-86170000D01*
X101810000Y-84910000D02*
X97950000Y-84910000D01*
X97635000Y-85590000D02*
X97635000Y-85925000D01*
X97635000Y-85225000D02*
X97635000Y-85590000D01*
X97880000Y-86170000D02*
X98870000Y-86170000D01*
X97950000Y-84910000D02*
X97635000Y-85225000D01*
X108000000Y-84790000D02*
X107860000Y-84650000D01*
X107860000Y-84650000D02*
X107020000Y-84650000D01*
X108130000Y-84920000D02*
X110660000Y-84920000D01*
X108000000Y-84790000D02*
X108130000Y-84920000D01*
X162800000Y-81500000D02*
X162260000Y-82040000D01*
X166070000Y-81970000D02*
X165600000Y-81500000D01*
X162260000Y-82040000D02*
X160030000Y-82040000D01*
X165600000Y-81500000D02*
X162800000Y-81500000D01*
X152880000Y-81790000D02*
X157170000Y-81790000D01*
X157170000Y-81790000D02*
X157420000Y-82040000D01*
X157420000Y-82040000D02*
X158380000Y-82040000D01*
X142030000Y-81670000D02*
X141680000Y-82020000D01*
X145010000Y-81670000D02*
X142030000Y-81670000D01*
X141680000Y-82020000D02*
X140970000Y-82020000D01*
X135500000Y-81820000D02*
X137280000Y-81820000D01*
X137480000Y-82020000D02*
X139320000Y-82020000D01*
X137280000Y-81820000D02*
X137480000Y-82020000D01*
X123110000Y-82040000D02*
X121860000Y-82040000D01*
X123340000Y-81810000D02*
X123110000Y-82040000D01*
X125874500Y-81810000D02*
X123340000Y-81810000D01*
X118520000Y-82040000D02*
X120210000Y-82040000D01*
X104590000Y-81700000D02*
X104250000Y-82040000D01*
X107000000Y-81690000D02*
X106990000Y-81700000D01*
X104250000Y-82040000D02*
X102840000Y-82040000D01*
X106990000Y-81700000D02*
X104590000Y-81700000D01*
X98120000Y-81700000D02*
X99830000Y-81700000D01*
X100170000Y-82040000D02*
X101190000Y-82040000D01*
X99830000Y-81700000D02*
X100170000Y-82040000D01*
X146530000Y-89220000D02*
X146215000Y-88905000D01*
X149040000Y-89220000D02*
X146530000Y-89220000D01*
X146215000Y-88905000D02*
X146215000Y-87880000D01*
X142790000Y-86930000D02*
X144340000Y-86930000D01*
X135117250Y-89837250D02*
X134784500Y-90170000D01*
X135117250Y-89837250D02*
X135670000Y-90390000D01*
X135670000Y-90390000D02*
X139330000Y-90390000D01*
X139330000Y-90390000D02*
X142790000Y-86930000D01*
X134784500Y-90170000D02*
X130415000Y-90170000D01*
X151495000Y-87300000D02*
X153815000Y-84980000D01*
X147709500Y-87300000D02*
X151495000Y-87300000D01*
X147630000Y-87220500D02*
X147709500Y-87300000D01*
X148900000Y-88210000D02*
X151820000Y-88210000D01*
X153870000Y-86160000D02*
X162580000Y-86160000D01*
X151820000Y-88210000D02*
X153870000Y-86160000D01*
X113725500Y-88790000D02*
X109030000Y-88790000D01*
X107330000Y-87090000D02*
X103214987Y-87090000D01*
X103214987Y-87090000D02*
X102294987Y-86170000D01*
X113755500Y-88760000D02*
X113725500Y-88790000D01*
X102294987Y-86170000D02*
X100520000Y-86170000D01*
X109030000Y-88790000D02*
X107330000Y-87090000D01*
X110660000Y-87840000D02*
X110660000Y-86570000D01*
X110900000Y-88080000D02*
X110660000Y-87840000D01*
X113360000Y-88080000D02*
X110900000Y-88080000D01*
X122730000Y-86620000D02*
X123730000Y-86620000D01*
X130131469Y-87378531D02*
X129720000Y-86967062D01*
X129720000Y-86967062D02*
X129720000Y-86560000D01*
X131895000Y-87375000D02*
X132520000Y-86750000D01*
X132520000Y-86750000D02*
X138555000Y-86750000D01*
X145711827Y-86550000D02*
X148890000Y-86550000D01*
X144141827Y-84980000D02*
X145711827Y-86550000D01*
X141999279Y-84980000D02*
X144141827Y-84980000D01*
X141999000Y-84979721D02*
X141999279Y-84980000D01*
G04 #@! TA.AperFunction,Conductor*
G36*
X97302842Y-81364333D02*
G01*
X97347058Y-81402746D01*
X97368711Y-81457168D01*
X97362969Y-81515453D01*
X97362658Y-81516345D01*
X97359158Y-81526346D01*
X97339592Y-81700000D01*
X97359158Y-81873657D01*
X97416877Y-82038606D01*
X97509852Y-82186576D01*
X97633423Y-82310147D01*
X97781393Y-82403122D01*
X97946342Y-82460841D01*
X98120000Y-82480407D01*
X98293657Y-82460841D01*
X98458606Y-82403122D01*
X98474521Y-82393122D01*
X98512107Y-82369506D01*
X98578078Y-82350500D01*
X99509192Y-82350500D01*
X99556645Y-82359939D01*
X99596873Y-82386819D01*
X99649564Y-82439510D01*
X99662912Y-82456169D01*
X99715831Y-82505864D01*
X99718628Y-82508575D01*
X99738962Y-82528909D01*
X99742443Y-82531609D01*
X99751326Y-82539195D01*
X99784607Y-82570448D01*
X99803198Y-82580668D01*
X99819462Y-82591351D01*
X99836235Y-82604362D01*
X99836236Y-82604362D01*
X99836237Y-82604363D01*
X99843798Y-82607635D01*
X99878138Y-82622495D01*
X99888622Y-82627631D01*
X99928632Y-82649627D01*
X99949197Y-82654906D01*
X99967593Y-82661205D01*
X99987074Y-82669636D01*
X100032178Y-82676779D01*
X100043597Y-82679144D01*
X100087823Y-82690500D01*
X100109045Y-82690500D01*
X100128443Y-82692026D01*
X100149405Y-82695347D01*
X100194863Y-82691049D01*
X100206531Y-82690500D01*
X100328511Y-82690500D01*
X100389428Y-82706495D01*
X100423685Y-82739734D01*
X100423881Y-82739539D01*
X100554813Y-82870471D01*
X100554815Y-82870472D01*
X100700394Y-82958478D01*
X100862804Y-83009086D01*
X100912399Y-83013593D01*
X100938984Y-83016009D01*
X100938845Y-83017538D01*
X100986838Y-83029097D01*
X101030912Y-83066906D01*
X101052940Y-83120635D01*
X101048090Y-83178501D01*
X101045143Y-83187392D01*
X101035000Y-83286685D01*
X101035000Y-83310000D01*
X102984999Y-83310000D01*
X102984999Y-83286685D01*
X102974856Y-83187396D01*
X102971910Y-83178505D01*
X102967059Y-83120638D01*
X102989086Y-83066907D01*
X103033160Y-83029097D01*
X103089616Y-83015500D01*
X103096617Y-83015500D01*
X103117601Y-83013593D01*
X103167196Y-83009086D01*
X103329606Y-82958478D01*
X103475185Y-82870472D01*
X103534316Y-82811341D01*
X103606119Y-82739539D01*
X103606314Y-82739734D01*
X103640572Y-82706495D01*
X103701489Y-82690500D01*
X104164495Y-82690500D01*
X104185704Y-82692841D01*
X104188294Y-82692759D01*
X104188296Y-82692760D01*
X104258262Y-82690560D01*
X104262157Y-82690500D01*
X104290920Y-82690500D01*
X104290925Y-82690500D01*
X104295302Y-82689946D01*
X104306941Y-82689030D01*
X104352569Y-82687597D01*
X104372949Y-82681675D01*
X104391989Y-82677732D01*
X104413058Y-82675071D01*
X104455520Y-82658258D01*
X104466557Y-82654480D01*
X104510398Y-82641744D01*
X104528670Y-82630936D01*
X104546136Y-82622380D01*
X104565871Y-82614568D01*
X104602816Y-82587725D01*
X104612548Y-82581332D01*
X104651865Y-82558081D01*
X104666874Y-82543071D01*
X104681663Y-82530439D01*
X104698837Y-82517963D01*
X104727942Y-82482779D01*
X104735797Y-82474148D01*
X104823129Y-82386818D01*
X104863357Y-82359939D01*
X104910809Y-82350500D01*
X106019518Y-82350500D01*
X106082297Y-82367566D01*
X106127795Y-82414068D01*
X106143488Y-82477205D01*
X106125057Y-82539597D01*
X106108452Y-82566516D01*
X106055143Y-82727393D01*
X106045000Y-82826685D01*
X106045000Y-82850000D01*
X107994999Y-82850000D01*
X107994999Y-82826685D01*
X107984856Y-82727394D01*
X107949270Y-82620000D01*
X115865000Y-82620000D01*
X115865000Y-83320000D01*
X117370000Y-83320000D01*
X117370000Y-82620001D01*
X117321685Y-82620001D01*
X117222394Y-82630143D01*
X117061513Y-82683453D01*
X116917267Y-82772426D01*
X116797426Y-82892267D01*
X116723038Y-83012869D01*
X116677932Y-83056050D01*
X116617500Y-83071772D01*
X116557068Y-83056050D01*
X116511962Y-83012869D01*
X116437573Y-82892267D01*
X116317732Y-82772426D01*
X116173486Y-82683453D01*
X116012606Y-82630143D01*
X115913315Y-82620000D01*
X115865000Y-82620000D01*
X107949270Y-82620000D01*
X107931546Y-82566513D01*
X107842573Y-82422267D01*
X107722732Y-82302426D01*
X107691022Y-82282867D01*
X107646811Y-82235877D01*
X107632193Y-82173035D01*
X107651124Y-82111359D01*
X107703122Y-82028606D01*
X107760841Y-81863657D01*
X107780407Y-81690000D01*
X107760841Y-81516343D01*
X107760528Y-81515451D01*
X107754790Y-81457164D01*
X107776443Y-81402743D01*
X107820659Y-81364332D01*
X107877572Y-81350500D01*
X117813414Y-81350500D01*
X117869709Y-81364015D01*
X117913732Y-81401615D01*
X117935887Y-81455102D01*
X117931345Y-81512818D01*
X117914705Y-81539971D01*
X117917286Y-81541593D01*
X117816877Y-81701393D01*
X117759158Y-81866342D01*
X117739592Y-82039999D01*
X117759158Y-82213657D01*
X117816877Y-82378606D01*
X117877914Y-82475746D01*
X117896140Y-82527833D01*
X117889962Y-82582670D01*
X117870000Y-82614441D01*
X117870000Y-83320000D01*
X118594999Y-83320000D01*
X118594999Y-83296685D01*
X118584856Y-83197394D01*
X118531546Y-83036515D01*
X118508813Y-82999659D01*
X118490505Y-82940742D01*
X118502855Y-82880296D01*
X118542806Y-82833283D01*
X118600468Y-82811341D01*
X118671445Y-82803343D01*
X118693657Y-82800841D01*
X118858606Y-82743122D01*
X118867724Y-82737393D01*
X118912107Y-82709506D01*
X118978078Y-82690500D01*
X119348511Y-82690500D01*
X119409428Y-82706495D01*
X119443685Y-82739734D01*
X119443881Y-82739539D01*
X119574813Y-82870471D01*
X119574815Y-82870472D01*
X119720394Y-82958478D01*
X119882804Y-83009086D01*
X119929857Y-83013362D01*
X119953383Y-83015500D01*
X119990383Y-83015500D01*
X120046838Y-83029097D01*
X120090912Y-83066906D01*
X120112940Y-83120635D01*
X120108090Y-83178501D01*
X120105143Y-83187392D01*
X120095000Y-83286685D01*
X120095000Y-83310000D01*
X122044999Y-83310000D01*
X122044999Y-83286685D01*
X122034856Y-83187394D01*
X122031110Y-83176090D01*
X122025862Y-83121004D01*
X122045100Y-83069120D01*
X122084992Y-83030770D01*
X122137591Y-83013593D01*
X122187196Y-83009086D01*
X122349606Y-82958478D01*
X122495185Y-82870472D01*
X122554316Y-82811341D01*
X122626119Y-82739539D01*
X122626314Y-82739734D01*
X122660572Y-82706495D01*
X122721489Y-82690500D01*
X123024495Y-82690500D01*
X123045704Y-82692841D01*
X123048294Y-82692759D01*
X123048296Y-82692760D01*
X123118262Y-82690560D01*
X123122157Y-82690500D01*
X123150920Y-82690500D01*
X123150925Y-82690500D01*
X123155302Y-82689946D01*
X123166941Y-82689030D01*
X123212569Y-82687597D01*
X123232949Y-82681675D01*
X123251989Y-82677732D01*
X123273058Y-82675071D01*
X123315520Y-82658258D01*
X123326557Y-82654480D01*
X123370398Y-82641744D01*
X123388670Y-82630936D01*
X123406136Y-82622380D01*
X123425871Y-82614568D01*
X123462816Y-82587725D01*
X123472548Y-82581332D01*
X123511865Y-82558081D01*
X123526874Y-82543071D01*
X123541663Y-82530439D01*
X123558837Y-82517963D01*
X123569180Y-82505459D01*
X123611927Y-82472302D01*
X123664724Y-82460500D01*
X124861863Y-82460500D01*
X124918318Y-82474097D01*
X124962393Y-82511907D01*
X124984420Y-82565637D01*
X124979569Y-82623504D01*
X124945143Y-82727393D01*
X124935000Y-82826685D01*
X124935000Y-82850000D01*
X126884999Y-82850000D01*
X126884999Y-82826685D01*
X126874856Y-82727394D01*
X126821546Y-82566513D01*
X126732573Y-82422267D01*
X126602484Y-82292178D01*
X126605272Y-82289389D01*
X126579948Y-82262442D01*
X126565366Y-82199593D01*
X126576604Y-82163051D01*
X126573008Y-82161793D01*
X126635341Y-81983657D01*
X126654907Y-81809999D01*
X126635341Y-81636342D01*
X126593040Y-81515455D01*
X126587298Y-81457166D01*
X126608951Y-81402745D01*
X126653167Y-81364333D01*
X126710081Y-81350500D01*
X134667918Y-81350500D01*
X134724832Y-81364333D01*
X134769048Y-81402745D01*
X134790701Y-81457166D01*
X134784959Y-81515455D01*
X134739158Y-81646342D01*
X134719592Y-81819999D01*
X134739158Y-81993657D01*
X134796877Y-82158606D01*
X134889852Y-82306576D01*
X135013423Y-82430147D01*
X135161393Y-82523122D01*
X135326342Y-82580841D01*
X135500000Y-82600407D01*
X135673657Y-82580841D01*
X135838606Y-82523122D01*
X135846818Y-82517962D01*
X135892107Y-82489506D01*
X135958078Y-82470500D01*
X136959191Y-82470500D01*
X137006644Y-82479939D01*
X137046872Y-82506819D01*
X137048962Y-82508909D01*
X137052443Y-82511609D01*
X137061326Y-82519195D01*
X137094607Y-82550448D01*
X137113198Y-82560668D01*
X137129462Y-82571351D01*
X137146235Y-82584362D01*
X137188138Y-82602495D01*
X137198626Y-82607633D01*
X137238632Y-82629627D01*
X137259197Y-82634906D01*
X137277593Y-82641205D01*
X137297074Y-82649636D01*
X137342178Y-82656779D01*
X137353597Y-82659144D01*
X137397823Y-82670500D01*
X137419045Y-82670500D01*
X137438443Y-82672026D01*
X137459405Y-82675347D01*
X137504863Y-82671049D01*
X137516531Y-82670500D01*
X138458511Y-82670500D01*
X138519428Y-82686495D01*
X138553685Y-82719734D01*
X138553881Y-82719539D01*
X138684813Y-82850471D01*
X138684815Y-82850472D01*
X138830394Y-82938478D01*
X138992804Y-82989086D01*
X139042541Y-82993605D01*
X139068984Y-82996009D01*
X139068843Y-82997551D01*
X139116781Y-83009097D01*
X139160855Y-83046907D01*
X139182882Y-83100638D01*
X139178031Y-83158505D01*
X139165143Y-83197395D01*
X139155000Y-83296685D01*
X139155000Y-83320000D01*
X141104999Y-83320000D01*
X141104999Y-83296685D01*
X141094856Y-83197394D01*
X141081969Y-83158504D01*
X141077118Y-83100637D01*
X141099145Y-83046907D01*
X141143219Y-83009097D01*
X141199675Y-82995500D01*
X141226617Y-82995500D01*
X141244260Y-82993896D01*
X141297196Y-82989086D01*
X141459606Y-82938478D01*
X141605185Y-82850472D01*
X141725472Y-82730185D01*
X141733869Y-82716293D01*
X141772408Y-82676475D01*
X141824443Y-82657422D01*
X141843058Y-82655071D01*
X141885520Y-82638258D01*
X141896557Y-82634480D01*
X141940398Y-82621744D01*
X141958670Y-82610936D01*
X141976136Y-82602380D01*
X141995871Y-82594568D01*
X142032816Y-82567725D01*
X142042548Y-82561332D01*
X142081865Y-82538081D01*
X142096875Y-82523070D01*
X142111664Y-82510439D01*
X142128837Y-82497963D01*
X142157943Y-82462778D01*
X142165798Y-82454147D01*
X142263129Y-82356818D01*
X142303357Y-82329939D01*
X142350809Y-82320500D01*
X144134191Y-82320500D01*
X144196970Y-82337567D01*
X144242469Y-82384069D01*
X144258161Y-82447205D01*
X144239729Y-82509597D01*
X144198453Y-82576513D01*
X144145143Y-82737393D01*
X144135000Y-82836685D01*
X144135000Y-82860000D01*
X146084999Y-82860000D01*
X146084999Y-82836685D01*
X146074856Y-82737394D01*
X146021546Y-82576513D01*
X145932573Y-82432267D01*
X145812731Y-82312425D01*
X145709782Y-82248925D01*
X145665571Y-82201934D01*
X145650953Y-82139093D01*
X145669884Y-82077418D01*
X145713122Y-82008606D01*
X145770841Y-81843657D01*
X145790407Y-81670000D01*
X145770841Y-81496343D01*
X145770840Y-81496341D01*
X145769944Y-81488384D01*
X145781444Y-81420699D01*
X145827192Y-81369506D01*
X145893164Y-81350500D01*
X152037420Y-81350500D01*
X152094334Y-81364333D01*
X152138550Y-81402745D01*
X152160202Y-81457166D01*
X152154462Y-81515454D01*
X152119159Y-81616343D01*
X152119158Y-81616346D01*
X152099592Y-81789999D01*
X152119158Y-81963657D01*
X152176877Y-82128606D01*
X152269852Y-82276576D01*
X152393423Y-82400147D01*
X152541393Y-82493122D01*
X152706342Y-82550841D01*
X152880000Y-82570407D01*
X153053657Y-82550841D01*
X153218606Y-82493122D01*
X153235048Y-82482791D01*
X153272107Y-82459506D01*
X153338078Y-82440500D01*
X156847131Y-82440500D01*
X156892779Y-82449208D01*
X156932016Y-82474109D01*
X156965832Y-82505865D01*
X156968628Y-82508575D01*
X156988961Y-82528908D01*
X156992442Y-82531608D01*
X157001325Y-82539194D01*
X157034607Y-82570448D01*
X157036250Y-82571351D01*
X157053204Y-82580672D01*
X157069464Y-82591352D01*
X157086236Y-82604362D01*
X157128140Y-82622495D01*
X157138620Y-82627629D01*
X157178632Y-82649627D01*
X157199195Y-82654906D01*
X157217598Y-82661207D01*
X157237073Y-82669635D01*
X157282175Y-82676778D01*
X157293570Y-82679137D01*
X157337823Y-82690500D01*
X157359051Y-82690500D01*
X157378449Y-82692026D01*
X157399405Y-82695346D01*
X157444851Y-82691050D01*
X157456521Y-82690500D01*
X157518511Y-82690500D01*
X157579428Y-82706495D01*
X157613685Y-82739734D01*
X157613881Y-82739539D01*
X157744813Y-82870471D01*
X157744815Y-82870472D01*
X157890394Y-82958478D01*
X158052804Y-83009086D01*
X158105679Y-83013891D01*
X158158274Y-83031065D01*
X158198164Y-83069405D01*
X158217407Y-83121279D01*
X158214329Y-83153658D01*
X158216524Y-83153883D01*
X158205000Y-83266685D01*
X158205000Y-83290000D01*
X160154999Y-83290000D01*
X160154999Y-83266685D01*
X160143476Y-83153883D01*
X160146446Y-83153579D01*
X160143691Y-83120614D01*
X160165723Y-83066894D01*
X160209795Y-83029094D01*
X160266244Y-83015500D01*
X160286617Y-83015500D01*
X160307601Y-83013593D01*
X160357196Y-83009086D01*
X160519606Y-82958478D01*
X160665185Y-82870472D01*
X160724316Y-82811341D01*
X160796119Y-82739539D01*
X160796314Y-82739734D01*
X160830572Y-82706495D01*
X160891489Y-82690500D01*
X162174495Y-82690500D01*
X162195704Y-82692841D01*
X162198294Y-82692759D01*
X162198296Y-82692760D01*
X162268262Y-82690560D01*
X162272157Y-82690500D01*
X162300920Y-82690500D01*
X162300925Y-82690500D01*
X162305302Y-82689946D01*
X162316941Y-82689030D01*
X162362569Y-82687597D01*
X162382949Y-82681675D01*
X162401989Y-82677732D01*
X162423058Y-82675071D01*
X162465520Y-82658258D01*
X162476557Y-82654480D01*
X162520398Y-82641744D01*
X162538670Y-82630936D01*
X162556136Y-82622380D01*
X162575871Y-82614568D01*
X162612816Y-82587725D01*
X162622548Y-82581332D01*
X162661865Y-82558081D01*
X162676874Y-82543071D01*
X162691663Y-82530439D01*
X162708837Y-82517963D01*
X162737946Y-82482774D01*
X162745780Y-82474164D01*
X163033129Y-82186816D01*
X163073355Y-82159939D01*
X163120808Y-82150500D01*
X163349832Y-82150500D01*
X163406127Y-82164015D01*
X163450150Y-82201615D01*
X163472305Y-82255102D01*
X163467763Y-82312818D01*
X163437513Y-82362181D01*
X163367426Y-82432267D01*
X163278453Y-82576513D01*
X163225143Y-82737393D01*
X163215000Y-82836685D01*
X163215000Y-82860000D01*
X165164999Y-82860000D01*
X165164999Y-82836685D01*
X165154856Y-82737394D01*
X165101546Y-82576513D01*
X165012573Y-82432267D01*
X164942487Y-82362181D01*
X164912237Y-82312818D01*
X164907695Y-82255102D01*
X164929850Y-82201615D01*
X164973873Y-82164015D01*
X165030168Y-82150500D01*
X165223572Y-82150500D01*
X165273159Y-82160846D01*
X165314471Y-82190159D01*
X165340612Y-82233542D01*
X165363918Y-82300147D01*
X165366879Y-82308608D01*
X165459852Y-82456576D01*
X165583423Y-82580147D01*
X165731393Y-82673122D01*
X165896342Y-82730841D01*
X166070000Y-82750407D01*
X166243657Y-82730841D01*
X166408606Y-82673122D01*
X166556576Y-82580147D01*
X166680147Y-82456576D01*
X166773122Y-82308606D01*
X166830841Y-82143657D01*
X166850407Y-81970000D01*
X166833506Y-81820000D01*
X166830841Y-81796342D01*
X166773123Y-81631396D01*
X166725508Y-81555616D01*
X166715991Y-81540470D01*
X166697035Y-81477978D01*
X166712458Y-81414519D01*
X166757985Y-81367697D01*
X166820986Y-81350500D01*
X168114486Y-81350500D01*
X168157789Y-81350500D01*
X168181972Y-81352881D01*
X168203018Y-81357067D01*
X168247719Y-81375584D01*
X168255206Y-81380587D01*
X168289412Y-81414793D01*
X168294415Y-81422280D01*
X168312931Y-81466979D01*
X168317117Y-81488022D01*
X168319500Y-81512211D01*
X168319500Y-81574856D01*
X168319544Y-81575138D01*
X168320873Y-83790000D01*
X168320999Y-84000280D01*
X168320855Y-84240494D01*
X168319544Y-86425218D01*
X168319500Y-86425506D01*
X168319500Y-86487789D01*
X168317117Y-86511976D01*
X168312933Y-86533014D01*
X168312932Y-86533020D01*
X168294415Y-86577719D01*
X168289412Y-86585206D01*
X168255206Y-86619412D01*
X168247719Y-86624415D01*
X168203020Y-86642931D01*
X168181976Y-86647117D01*
X168157789Y-86649500D01*
X165206932Y-86649500D01*
X165141717Y-86630966D01*
X165095997Y-86580903D01*
X165083441Y-86514279D01*
X165085500Y-86491620D01*
X165085500Y-85828383D01*
X165081834Y-85788044D01*
X165079086Y-85757804D01*
X165028478Y-85595394D01*
X164975931Y-85508471D01*
X164958677Y-85456788D01*
X164965245Y-85402696D01*
X164994365Y-85356645D01*
X165012968Y-85338044D01*
X165102003Y-85193697D01*
X165155349Y-85032708D01*
X165165500Y-84933345D01*
X165165499Y-84908487D01*
X165179868Y-84850548D01*
X165219647Y-84806034D01*
X165275614Y-84785267D01*
X165403657Y-84770841D01*
X165568606Y-84713122D01*
X165716576Y-84620147D01*
X165840147Y-84496576D01*
X165933122Y-84348606D01*
X165990841Y-84183657D01*
X166010407Y-84010000D01*
X165991543Y-83842574D01*
X165990841Y-83836342D01*
X165933122Y-83671393D01*
X165840147Y-83523423D01*
X165716576Y-83399852D01*
X165568606Y-83306877D01*
X165403657Y-83249158D01*
X165230000Y-83229592D01*
X165056342Y-83249158D01*
X164891393Y-83306877D01*
X164837097Y-83340994D01*
X164771126Y-83360000D01*
X163215001Y-83360000D01*
X163215001Y-83383315D01*
X163225143Y-83482605D01*
X163278453Y-83643486D01*
X163367426Y-83787732D01*
X163376659Y-83796965D01*
X163408753Y-83852551D01*
X163408753Y-83916738D01*
X163376661Y-83972325D01*
X163367031Y-83981954D01*
X163277997Y-84126300D01*
X163224650Y-84287292D01*
X163214500Y-84386655D01*
X163214500Y-84933344D01*
X163224651Y-85032709D01*
X163255599Y-85126107D01*
X163260169Y-85185713D01*
X163236319Y-85240531D01*
X163189592Y-85277819D01*
X163130849Y-85288910D01*
X163073744Y-85271227D01*
X163024606Y-85241522D01*
X162862196Y-85190914D01*
X162862193Y-85190913D01*
X162791617Y-85184500D01*
X162791616Y-85184500D01*
X162278384Y-85184500D01*
X162278383Y-85184500D01*
X162207806Y-85190913D01*
X162143983Y-85210801D01*
X162045394Y-85241522D01*
X162045392Y-85241522D01*
X162045392Y-85241523D01*
X161899813Y-85329528D01*
X161768881Y-85460461D01*
X161768685Y-85460265D01*
X161734428Y-85493505D01*
X161673511Y-85509500D01*
X160277882Y-85509500D01*
X160212274Y-85490722D01*
X160166537Y-85440074D01*
X160154524Y-85372898D01*
X160155500Y-85363345D01*
X160155499Y-84816656D01*
X160151103Y-84773626D01*
X160145349Y-84717292D01*
X160098075Y-84574626D01*
X160092003Y-84556303D01*
X160092002Y-84556302D01*
X160092002Y-84556300D01*
X160002969Y-84411957D01*
X159993341Y-84402329D01*
X159961245Y-84346741D01*
X159961245Y-84282551D01*
X159993341Y-84226963D01*
X160002572Y-84217732D01*
X160091546Y-84073484D01*
X160144856Y-83912606D01*
X160155000Y-83813315D01*
X160155000Y-83790000D01*
X158205001Y-83790000D01*
X158205001Y-83813315D01*
X158215143Y-83912607D01*
X158256737Y-84038129D01*
X158261820Y-84094418D01*
X158241394Y-84147116D01*
X158199703Y-84185275D01*
X158145407Y-84200968D01*
X158089786Y-84190934D01*
X158081871Y-84187509D01*
X158071379Y-84182369D01*
X158031367Y-84160372D01*
X158010800Y-84155091D01*
X157992398Y-84148791D01*
X157972924Y-84140364D01*
X157927837Y-84133223D01*
X157916398Y-84130854D01*
X157872178Y-84119500D01*
X157872177Y-84119500D01*
X157850955Y-84119500D01*
X157831556Y-84117973D01*
X157810596Y-84114653D01*
X157810595Y-84114653D01*
X157793173Y-84116300D01*
X157765139Y-84118950D01*
X157753470Y-84119500D01*
X156615505Y-84119500D01*
X156594295Y-84117158D01*
X156521738Y-84119439D01*
X156517843Y-84119500D01*
X156489071Y-84119500D01*
X156484690Y-84120053D01*
X156473059Y-84120968D01*
X156427428Y-84122402D01*
X156407052Y-84128322D01*
X156388006Y-84132267D01*
X156366939Y-84134928D01*
X156324487Y-84151736D01*
X156313439Y-84155519D01*
X156264211Y-84169822D01*
X156200039Y-84171167D01*
X156143791Y-84140247D01*
X156110540Y-84085347D01*
X156106674Y-84072043D01*
X156102731Y-84053004D01*
X156100071Y-84031942D01*
X156083267Y-83989501D01*
X156079484Y-83978452D01*
X156077597Y-83971956D01*
X156066745Y-83934602D01*
X156063593Y-83929272D01*
X156055937Y-83916326D01*
X156047376Y-83898850D01*
X156039568Y-83879129D01*
X156012731Y-83842191D01*
X156006317Y-83832425D01*
X155983081Y-83793135D01*
X155968074Y-83778128D01*
X155955436Y-83763331D01*
X155953448Y-83760595D01*
X155942963Y-83746163D01*
X155907779Y-83717056D01*
X155899140Y-83709194D01*
X155790434Y-83600488D01*
X155777091Y-83583833D01*
X155724166Y-83534134D01*
X155721369Y-83531423D01*
X155701034Y-83511088D01*
X155697547Y-83508383D01*
X155688671Y-83500801D01*
X155655394Y-83469552D01*
X155636793Y-83459326D01*
X155620532Y-83448645D01*
X155603764Y-83435638D01*
X155561870Y-83417508D01*
X155551379Y-83412369D01*
X155511367Y-83390372D01*
X155490800Y-83385091D01*
X155472398Y-83378791D01*
X155452924Y-83370364D01*
X155407837Y-83363223D01*
X155396398Y-83360854D01*
X155352178Y-83349500D01*
X155352177Y-83349500D01*
X155330955Y-83349500D01*
X155311556Y-83347973D01*
X155290596Y-83344653D01*
X155290595Y-83344653D01*
X155268558Y-83346736D01*
X155245139Y-83348950D01*
X155233470Y-83349500D01*
X155128078Y-83349500D01*
X155062107Y-83330494D01*
X155008606Y-83296877D01*
X154843657Y-83239158D01*
X154670000Y-83219592D01*
X154496342Y-83239158D01*
X154331393Y-83296877D01*
X154183423Y-83389852D01*
X154059852Y-83513423D01*
X153966877Y-83661393D01*
X153909158Y-83826343D01*
X153901492Y-83894384D01*
X153880725Y-83950352D01*
X153836213Y-83990130D01*
X153778272Y-84004500D01*
X153558383Y-84004500D01*
X153487806Y-84010913D01*
X153420331Y-84031939D01*
X153325394Y-84061522D01*
X153325392Y-84061522D01*
X153325392Y-84061523D01*
X153179813Y-84149528D01*
X153059528Y-84269813D01*
X152972469Y-84413827D01*
X152971522Y-84415394D01*
X152948166Y-84490347D01*
X152920913Y-84577806D01*
X152914500Y-84648383D01*
X152914500Y-84909192D01*
X152905061Y-84956645D01*
X152878181Y-84996873D01*
X152379419Y-85495633D01*
X152332692Y-85524994D01*
X152277853Y-85531172D01*
X152225764Y-85512944D01*
X152186743Y-85473922D01*
X152180147Y-85463424D01*
X152180145Y-85463422D01*
X152180144Y-85463420D01*
X152056576Y-85339852D01*
X151908606Y-85246877D01*
X151743657Y-85189158D01*
X151570000Y-85169592D01*
X151396342Y-85189158D01*
X151231393Y-85246877D01*
X151177893Y-85280494D01*
X151111922Y-85299500D01*
X150332220Y-85299500D01*
X150286573Y-85290792D01*
X150247336Y-85265892D01*
X150224166Y-85244134D01*
X150221369Y-85241423D01*
X150201034Y-85221088D01*
X150197547Y-85218383D01*
X150188671Y-85210801D01*
X150155394Y-85179552D01*
X150136793Y-85169326D01*
X150120532Y-85158645D01*
X150118579Y-85157130D01*
X150103764Y-85145638D01*
X150061870Y-85127508D01*
X150051379Y-85122369D01*
X150011367Y-85100372D01*
X149990800Y-85095091D01*
X149972399Y-85088791D01*
X149940257Y-85074883D01*
X149900907Y-85047840D01*
X149874692Y-85007933D01*
X149865500Y-84961080D01*
X149865500Y-84643383D01*
X149860904Y-84592806D01*
X149859086Y-84572804D01*
X149808478Y-84410394D01*
X149734060Y-84287292D01*
X149720471Y-84264813D01*
X149600186Y-84144528D01*
X149504819Y-84086877D01*
X149454606Y-84056522D01*
X149303704Y-84009500D01*
X149292193Y-84005913D01*
X149221617Y-83999500D01*
X149221616Y-83999500D01*
X148558384Y-83999500D01*
X148558383Y-83999500D01*
X148548172Y-84000428D01*
X148487804Y-84005914D01*
X148487803Y-84005914D01*
X148474700Y-84007105D01*
X148474679Y-84006873D01*
X148457425Y-84009500D01*
X146598078Y-84009500D01*
X146532107Y-83990494D01*
X146478606Y-83956877D01*
X146313657Y-83899158D01*
X146139998Y-83879592D01*
X146109359Y-83883044D01*
X146041906Y-83871655D01*
X145990757Y-83826230D01*
X145971479Y-83760595D01*
X145989940Y-83694725D01*
X146021546Y-83643484D01*
X146074856Y-83482606D01*
X146085000Y-83383315D01*
X146085000Y-83360000D01*
X144135001Y-83360000D01*
X144135001Y-83383315D01*
X144145143Y-83482605D01*
X144198453Y-83643486D01*
X144287426Y-83787732D01*
X144296659Y-83796965D01*
X144328753Y-83852551D01*
X144328753Y-83916738D01*
X144296661Y-83972325D01*
X144287031Y-83981954D01*
X144197997Y-84126301D01*
X144175090Y-84195432D01*
X144160471Y-84239552D01*
X144158830Y-84244503D01*
X144132952Y-84288829D01*
X144091340Y-84318877D01*
X144041124Y-84329500D01*
X142457522Y-84329500D01*
X142391551Y-84310494D01*
X142337606Y-84276598D01*
X142172657Y-84218879D01*
X141999000Y-84199313D01*
X141825342Y-84218879D01*
X141660393Y-84276598D01*
X141512423Y-84369573D01*
X141388854Y-84493142D01*
X141353823Y-84548895D01*
X141308891Y-84591406D01*
X141249014Y-84606923D01*
X141189091Y-84591585D01*
X141166794Y-84579327D01*
X141150532Y-84568645D01*
X141134617Y-84556300D01*
X141133764Y-84555638D01*
X141110177Y-84545431D01*
X141091869Y-84537508D01*
X141081379Y-84532369D01*
X141041368Y-84510373D01*
X141034912Y-84508715D01*
X140992227Y-84488459D01*
X140960217Y-84453708D01*
X140952968Y-84441955D01*
X140943341Y-84432329D01*
X140911245Y-84376741D01*
X140911245Y-84312551D01*
X140943341Y-84256963D01*
X140952572Y-84247732D01*
X141041546Y-84103484D01*
X141094856Y-83942606D01*
X141105000Y-83843315D01*
X141105000Y-83820000D01*
X139155001Y-83820000D01*
X139155001Y-83843315D01*
X139165143Y-83942605D01*
X139218453Y-84103486D01*
X139307426Y-84247732D01*
X139316659Y-84256965D01*
X139348754Y-84312557D01*
X139348750Y-84376749D01*
X139316649Y-84432338D01*
X139312543Y-84436443D01*
X139274120Y-84462552D01*
X139252765Y-84467326D01*
X139252971Y-84468033D01*
X139217552Y-84478322D01*
X139198506Y-84482267D01*
X139177439Y-84484928D01*
X139134992Y-84501734D01*
X139123945Y-84505516D01*
X139080101Y-84518255D01*
X139061830Y-84529060D01*
X139044364Y-84537617D01*
X139024629Y-84545431D01*
X138987702Y-84572260D01*
X138977942Y-84578671D01*
X138938636Y-84601917D01*
X138923625Y-84616928D01*
X138908836Y-84629558D01*
X138891664Y-84642034D01*
X138862557Y-84677218D01*
X138854696Y-84685856D01*
X138618739Y-84921813D01*
X138572014Y-84951173D01*
X138411392Y-85007378D01*
X138263423Y-85100352D01*
X138139852Y-85223923D01*
X138046877Y-85371893D01*
X137989158Y-85536842D01*
X137969592Y-85710500D01*
X137979576Y-85799110D01*
X137967609Y-85867754D01*
X137930162Y-85908584D01*
X137930461Y-85908883D01*
X137923545Y-85915798D01*
X137920512Y-85919106D01*
X137919818Y-85919525D01*
X137788881Y-86050462D01*
X137788685Y-86050266D01*
X137754428Y-86083505D01*
X137693511Y-86099500D01*
X132605504Y-86099500D01*
X132584294Y-86097158D01*
X132511737Y-86099439D01*
X132507842Y-86099500D01*
X132479071Y-86099500D01*
X132474690Y-86100053D01*
X132463059Y-86100968D01*
X132417430Y-86102402D01*
X132397051Y-86108323D01*
X132378007Y-86112267D01*
X132359231Y-86114639D01*
X132298768Y-86107196D01*
X132249146Y-86071855D01*
X132222343Y-86017147D01*
X132224830Y-85956276D01*
X132256004Y-85903939D01*
X132431258Y-85728685D01*
X132477976Y-85699329D01*
X132638606Y-85643122D01*
X132786576Y-85550147D01*
X132910147Y-85426576D01*
X133003122Y-85278606D01*
X133060841Y-85113657D01*
X133080407Y-84940000D01*
X133062973Y-84785267D01*
X133060841Y-84766342D01*
X133003122Y-84601393D01*
X132910147Y-84453423D01*
X132786576Y-84329852D01*
X132638606Y-84236877D01*
X132473657Y-84179158D01*
X132300000Y-84159592D01*
X132126342Y-84179158D01*
X131961393Y-84236877D01*
X131813423Y-84329852D01*
X131689852Y-84453423D01*
X131596878Y-84601392D01*
X131540673Y-84762014D01*
X131511313Y-84808739D01*
X131346870Y-84973183D01*
X131306645Y-85000061D01*
X131259192Y-85009500D01*
X130832177Y-85009500D01*
X130823212Y-85009500D01*
X130799980Y-85007304D01*
X130796268Y-85006596D01*
X130744531Y-84983563D01*
X130708432Y-84939928D01*
X130695500Y-84884792D01*
X130695500Y-84653383D01*
X130689868Y-84591406D01*
X130689086Y-84582804D01*
X130638478Y-84420394D01*
X130565608Y-84299853D01*
X130550471Y-84274813D01*
X130430186Y-84154528D01*
X130329206Y-84093484D01*
X130284606Y-84066522D01*
X130122196Y-84015914D01*
X130122193Y-84015913D01*
X130051617Y-84009500D01*
X130051616Y-84009500D01*
X129388384Y-84009500D01*
X129388383Y-84009500D01*
X129317806Y-84015913D01*
X129246512Y-84038129D01*
X129155394Y-84066522D01*
X129155392Y-84066522D01*
X129155392Y-84066523D01*
X129009815Y-84154527D01*
X128987266Y-84177077D01*
X128941159Y-84223183D01*
X128900934Y-84250061D01*
X128853481Y-84259500D01*
X127528078Y-84259500D01*
X127462107Y-84240494D01*
X127408607Y-84206878D01*
X127241765Y-84148496D01*
X127197838Y-84121848D01*
X127195392Y-84119551D01*
X127176793Y-84109326D01*
X127160532Y-84098645D01*
X127155083Y-84094418D01*
X127143764Y-84085638D01*
X127143089Y-84085346D01*
X127101869Y-84067508D01*
X127091379Y-84062369D01*
X127051367Y-84040372D01*
X127030800Y-84035091D01*
X127012398Y-84028791D01*
X126992924Y-84020364D01*
X126947837Y-84013223D01*
X126936398Y-84010854D01*
X126892178Y-83999500D01*
X126892177Y-83999500D01*
X126870955Y-83999500D01*
X126851556Y-83997973D01*
X126830595Y-83994653D01*
X126825666Y-83995119D01*
X126766183Y-83986080D01*
X126717957Y-83950106D01*
X126692341Y-83895667D01*
X126695366Y-83835578D01*
X126726318Y-83783985D01*
X126732574Y-83777729D01*
X126821546Y-83633484D01*
X126874856Y-83472606D01*
X126885000Y-83373315D01*
X126885000Y-83350000D01*
X124935001Y-83350000D01*
X124935001Y-83373315D01*
X124945143Y-83472605D01*
X124998453Y-83633486D01*
X125087426Y-83777732D01*
X125096659Y-83786965D01*
X125128753Y-83842551D01*
X125128753Y-83906738D01*
X125096661Y-83962325D01*
X125087031Y-83971954D01*
X124997997Y-84116300D01*
X124944650Y-84277292D01*
X124935223Y-84369574D01*
X124934500Y-84376655D01*
X124934500Y-84648384D01*
X124934501Y-84885500D01*
X124917888Y-84947500D01*
X124872501Y-84992887D01*
X124810501Y-85009500D01*
X124070808Y-85009500D01*
X124023355Y-85000061D01*
X123983127Y-84973181D01*
X123808687Y-84798741D01*
X123779327Y-84752015D01*
X123723122Y-84591393D01*
X123630147Y-84443423D01*
X123506576Y-84319852D01*
X123358606Y-84226877D01*
X123193657Y-84169158D01*
X123020000Y-84149592D01*
X122846342Y-84169158D01*
X122681393Y-84226877D01*
X122533423Y-84319852D01*
X122409852Y-84443423D01*
X122316878Y-84591392D01*
X122267686Y-84731972D01*
X122233999Y-84782821D01*
X122180142Y-84811456D01*
X122119149Y-84810949D01*
X122065776Y-84781422D01*
X122032939Y-84730019D01*
X122015443Y-84677218D01*
X121982003Y-84576303D01*
X121978975Y-84571394D01*
X121892969Y-84431957D01*
X121883341Y-84422329D01*
X121851245Y-84366741D01*
X121851245Y-84302551D01*
X121883341Y-84246963D01*
X121892572Y-84237732D01*
X121981546Y-84093484D01*
X122034856Y-83932606D01*
X122045000Y-83833315D01*
X122045000Y-83810000D01*
X120095001Y-83810000D01*
X120095001Y-83833315D01*
X120105143Y-83932607D01*
X120143933Y-84049667D01*
X120146765Y-84117768D01*
X120113176Y-84177077D01*
X120053317Y-84209675D01*
X119985272Y-84205711D01*
X119823657Y-84149158D01*
X119650000Y-84129592D01*
X119476342Y-84149158D01*
X119311393Y-84206877D01*
X119163423Y-84299852D01*
X119039852Y-84423423D01*
X118946877Y-84571393D01*
X118889158Y-84736342D01*
X118869592Y-84910000D01*
X118889158Y-85083657D01*
X118946877Y-85248606D01*
X119039852Y-85396576D01*
X119163423Y-85520147D01*
X119311393Y-85613122D01*
X119476342Y-85670841D01*
X119650000Y-85690407D01*
X119823657Y-85670841D01*
X119915799Y-85638598D01*
X119967037Y-85632067D01*
X120016490Y-85646980D01*
X120023209Y-85650674D01*
X120039462Y-85661351D01*
X120056235Y-85674362D01*
X120098138Y-85692495D01*
X120108626Y-85697633D01*
X120148632Y-85719627D01*
X120166961Y-85724332D01*
X120209646Y-85744584D01*
X120241660Y-85779335D01*
X120247028Y-85788038D01*
X120247033Y-85788045D01*
X120272515Y-85813527D01*
X120301638Y-85859581D01*
X120308206Y-85913673D01*
X120290951Y-85965358D01*
X120239504Y-86050462D01*
X120236522Y-86055394D01*
X120213430Y-86129500D01*
X120185913Y-86217806D01*
X120179500Y-86288383D01*
X120179500Y-86951617D01*
X120185913Y-87022193D01*
X120185914Y-87022196D01*
X120236522Y-87184606D01*
X120248963Y-87205186D01*
X120324528Y-87330186D01*
X120444813Y-87450471D01*
X120475246Y-87468868D01*
X120590394Y-87538478D01*
X120752804Y-87589086D01*
X120799857Y-87593362D01*
X120823383Y-87595500D01*
X120823384Y-87595500D01*
X121336616Y-87595500D01*
X121336617Y-87595500D01*
X121359471Y-87593423D01*
X121407196Y-87589086D01*
X121569606Y-87538478D01*
X121715185Y-87450472D01*
X121765250Y-87400407D01*
X121817319Y-87348339D01*
X121872906Y-87316245D01*
X121937094Y-87316245D01*
X121992681Y-87348339D01*
X122094813Y-87450471D01*
X122125246Y-87468868D01*
X122240394Y-87538478D01*
X122402804Y-87589086D01*
X122449857Y-87593362D01*
X122473383Y-87595500D01*
X122473384Y-87595500D01*
X122986616Y-87595500D01*
X122986617Y-87595500D01*
X123009471Y-87593423D01*
X123057196Y-87589086D01*
X123219606Y-87538478D01*
X123365185Y-87450472D01*
X123411223Y-87404433D01*
X123471311Y-87371223D01*
X123539859Y-87375072D01*
X123556343Y-87380841D01*
X123730000Y-87400407D01*
X123903657Y-87380841D01*
X124068606Y-87323122D01*
X124216576Y-87230147D01*
X124340147Y-87106576D01*
X124433122Y-86958606D01*
X124490841Y-86793657D01*
X124510407Y-86620000D01*
X124491071Y-86448384D01*
X124502571Y-86380698D01*
X124548319Y-86329506D01*
X124614291Y-86310500D01*
X128620500Y-86310500D01*
X128682500Y-86327113D01*
X128727887Y-86372500D01*
X128744500Y-86434500D01*
X128744500Y-86816617D01*
X128750913Y-86887193D01*
X128750914Y-86887196D01*
X128801522Y-87049606D01*
X128807568Y-87059607D01*
X128889528Y-87195186D01*
X129009813Y-87315471D01*
X129025407Y-87324898D01*
X129155394Y-87403478D01*
X129243990Y-87431085D01*
X129294781Y-87461789D01*
X129342781Y-87509789D01*
X129372141Y-87556514D01*
X129428347Y-87717138D01*
X129521321Y-87865107D01*
X129644892Y-87988678D01*
X129792862Y-88081653D01*
X129957811Y-88139372D01*
X130131469Y-88158938D01*
X130305126Y-88139372D01*
X130470075Y-88081653D01*
X130587626Y-88007791D01*
X130639710Y-87989566D01*
X130694548Y-87995744D01*
X130741275Y-88025105D01*
X132023989Y-89307819D01*
X132054239Y-89357182D01*
X132058781Y-89414898D01*
X132036626Y-89468385D01*
X131992603Y-89505985D01*
X131936308Y-89519500D01*
X131370077Y-89519500D01*
X131309161Y-89503506D01*
X131263960Y-89459650D01*
X131253771Y-89442796D01*
X131185472Y-89329815D01*
X131185471Y-89329813D01*
X131065186Y-89209528D01*
X130920365Y-89121981D01*
X130919606Y-89121522D01*
X130758785Y-89071409D01*
X130757193Y-89070913D01*
X130686617Y-89064500D01*
X130686616Y-89064500D01*
X130173384Y-89064500D01*
X130173383Y-89064500D01*
X130102806Y-89070913D01*
X130021598Y-89096218D01*
X129940394Y-89121522D01*
X129940392Y-89121522D01*
X129940392Y-89121523D01*
X129794813Y-89209528D01*
X129692327Y-89312015D01*
X129636740Y-89344109D01*
X129572552Y-89344109D01*
X129516965Y-89312015D01*
X129414875Y-89209925D01*
X129269396Y-89121980D01*
X129107106Y-89071409D01*
X129036576Y-89065000D01*
X129030000Y-89065000D01*
X129030000Y-90166000D01*
X129013387Y-90228000D01*
X128968000Y-90273387D01*
X128906000Y-90290000D01*
X127880001Y-90290000D01*
X127880001Y-90371579D01*
X127882972Y-90404281D01*
X127870415Y-90470905D01*
X127824695Y-90520966D01*
X127759481Y-90539500D01*
X123273711Y-90539500D01*
X123063760Y-90572752D01*
X122861587Y-90638443D01*
X122672180Y-90734951D01*
X122500208Y-90859895D01*
X122349895Y-91010208D01*
X122224951Y-91182180D01*
X122128443Y-91371587D01*
X122062752Y-91573760D01*
X122029500Y-91783711D01*
X122029500Y-93733040D01*
X122028720Y-93746924D01*
X122014780Y-93870643D01*
X122008601Y-93897714D01*
X121969793Y-94008620D01*
X121957746Y-94033636D01*
X121895233Y-94133126D01*
X121877920Y-94154836D01*
X121794836Y-94237920D01*
X121773126Y-94255233D01*
X121673636Y-94317746D01*
X121648620Y-94329793D01*
X121537714Y-94368601D01*
X121510643Y-94374780D01*
X121423106Y-94384643D01*
X121386921Y-94388720D01*
X121373040Y-94389500D01*
X119886960Y-94389500D01*
X119873078Y-94388720D01*
X119825085Y-94383312D01*
X119749356Y-94374780D01*
X119722285Y-94368601D01*
X119611379Y-94329793D01*
X119586363Y-94317746D01*
X119486873Y-94255233D01*
X119465163Y-94237920D01*
X119382079Y-94154836D01*
X119364766Y-94133126D01*
X119316458Y-94056243D01*
X119302251Y-94033632D01*
X119290208Y-94008624D01*
X119251397Y-93897710D01*
X119245220Y-93870646D01*
X119231279Y-93746922D01*
X119230500Y-93733040D01*
X119230500Y-90633711D01*
X119197247Y-90423760D01*
X119164121Y-90321810D01*
X119131557Y-90221588D01*
X119035051Y-90032184D01*
X118910104Y-89860208D01*
X118839896Y-89790000D01*
X127880000Y-89790000D01*
X128530000Y-89790000D01*
X128530000Y-89065001D01*
X128523421Y-89065001D01*
X128452895Y-89071408D01*
X128290602Y-89121981D01*
X128145124Y-89209925D01*
X128024925Y-89330124D01*
X127936980Y-89475603D01*
X127886409Y-89637893D01*
X127880000Y-89708424D01*
X127880000Y-89790000D01*
X118839896Y-89790000D01*
X118759792Y-89709896D01*
X118753240Y-89705136D01*
X118587819Y-89584951D01*
X118587818Y-89584950D01*
X118587816Y-89584949D01*
X118398412Y-89488443D01*
X118358895Y-89475603D01*
X118196239Y-89422752D01*
X117986289Y-89389500D01*
X117986287Y-89389500D01*
X117938488Y-89389500D01*
X114500203Y-89389500D01*
X114437202Y-89372303D01*
X114391675Y-89325481D01*
X114376252Y-89262023D01*
X114395209Y-89199529D01*
X114458622Y-89098606D01*
X114516341Y-88933657D01*
X114535907Y-88760000D01*
X114516341Y-88586342D01*
X114458622Y-88421393D01*
X114365647Y-88273423D01*
X114242077Y-88149853D01*
X114191693Y-88118195D01*
X114152671Y-88079173D01*
X114134445Y-88027084D01*
X114120841Y-87906343D01*
X114063122Y-87741393D01*
X113970147Y-87593423D01*
X113846576Y-87469852D01*
X113698606Y-87376877D01*
X113533657Y-87319158D01*
X113360000Y-87299592D01*
X113186342Y-87319158D01*
X113021393Y-87376877D01*
X112967893Y-87410494D01*
X112901922Y-87429500D01*
X111565520Y-87429500D01*
X111509225Y-87415985D01*
X111465202Y-87378385D01*
X111443047Y-87324898D01*
X111447589Y-87267182D01*
X111477839Y-87217819D01*
X111490471Y-87205186D01*
X111490472Y-87205185D01*
X111578478Y-87059606D01*
X111629086Y-86897196D01*
X111635500Y-86826616D01*
X111635500Y-86313384D01*
X111635243Y-86310561D01*
X111632113Y-86276111D01*
X111629086Y-86242804D01*
X111578478Y-86080394D01*
X111490472Y-85934815D01*
X111388336Y-85832679D01*
X111356244Y-85777094D01*
X111356244Y-85712906D01*
X111388336Y-85657320D01*
X111490472Y-85555185D01*
X111578478Y-85409606D01*
X111583545Y-85393344D01*
X114639500Y-85393344D01*
X114649650Y-85492707D01*
X114702997Y-85653699D01*
X114792031Y-85798044D01*
X114911955Y-85917968D01*
X115056300Y-86007002D01*
X115056302Y-86007002D01*
X115056303Y-86007003D01*
X115217292Y-86060349D01*
X115316655Y-86070500D01*
X115913344Y-86070499D01*
X116012708Y-86060349D01*
X116173697Y-86007003D01*
X116307608Y-85924404D01*
X116359332Y-85906667D01*
X116413657Y-85912902D01*
X116436343Y-85920841D01*
X116610000Y-85940407D01*
X116783657Y-85920841D01*
X116815914Y-85909553D01*
X116870236Y-85903318D01*
X116921963Y-85921057D01*
X117061300Y-86007002D01*
X117061302Y-86007002D01*
X117061303Y-86007003D01*
X117222292Y-86060349D01*
X117321655Y-86070500D01*
X117918344Y-86070499D01*
X118017708Y-86060349D01*
X118178697Y-86007003D01*
X118243257Y-85967182D01*
X118323044Y-85917968D01*
X118442968Y-85798044D01*
X118532002Y-85653699D01*
X118532567Y-85651996D01*
X118585349Y-85492708D01*
X118595500Y-85393345D01*
X118595499Y-84846656D01*
X118591349Y-84806034D01*
X118585349Y-84747292D01*
X118532002Y-84586300D01*
X118442969Y-84441957D01*
X118433341Y-84432329D01*
X118401245Y-84376741D01*
X118401245Y-84312551D01*
X118433341Y-84256963D01*
X118442572Y-84247732D01*
X118531546Y-84103484D01*
X118584856Y-83942606D01*
X118595000Y-83843315D01*
X118595000Y-83820000D01*
X114640001Y-83820000D01*
X114640001Y-83843315D01*
X114650143Y-83942605D01*
X114703453Y-84103486D01*
X114792426Y-84247732D01*
X114801659Y-84256965D01*
X114833753Y-84312551D01*
X114833753Y-84376738D01*
X114801661Y-84432325D01*
X114792031Y-84441954D01*
X114702997Y-84586300D01*
X114649650Y-84747292D01*
X114639500Y-84846655D01*
X114639500Y-85393344D01*
X111583545Y-85393344D01*
X111629086Y-85247196D01*
X111635500Y-85176616D01*
X111635500Y-84663384D01*
X111633682Y-84643384D01*
X111629914Y-84601917D01*
X111629086Y-84592804D01*
X111578478Y-84430394D01*
X111492899Y-84288829D01*
X111490471Y-84284813D01*
X111370186Y-84164528D01*
X111269206Y-84103484D01*
X111224606Y-84076522D01*
X111062196Y-84025914D01*
X111062193Y-84025913D01*
X110991617Y-84019500D01*
X110991616Y-84019500D01*
X110328384Y-84019500D01*
X110328383Y-84019500D01*
X110257806Y-84025913D01*
X110181576Y-84049667D01*
X110095394Y-84076522D01*
X110095392Y-84076522D01*
X110095392Y-84076523D01*
X109949815Y-84164527D01*
X109931974Y-84182369D01*
X109881159Y-84233183D01*
X109840934Y-84260061D01*
X109793481Y-84269500D01*
X108627585Y-84269500D01*
X108580132Y-84260061D01*
X108539906Y-84233183D01*
X108486576Y-84179853D01*
X108486575Y-84179852D01*
X108486573Y-84179850D01*
X108338606Y-84086877D01*
X108173656Y-84029158D01*
X107986120Y-84008029D01*
X107986252Y-84006853D01*
X107965064Y-84005376D01*
X107942177Y-83999500D01*
X107942176Y-83999500D01*
X107921875Y-83999500D01*
X107874456Y-83990075D01*
X107834245Y-83963233D01*
X107834244Y-83963232D01*
X107833388Y-83962376D01*
X107801257Y-83906785D01*
X107801239Y-83842574D01*
X107833341Y-83786963D01*
X107842572Y-83777732D01*
X107931546Y-83633484D01*
X107984856Y-83472606D01*
X107995000Y-83373315D01*
X107995000Y-83350000D01*
X106045001Y-83350000D01*
X106045001Y-83373315D01*
X106055143Y-83472605D01*
X106108453Y-83633486D01*
X106197426Y-83777732D01*
X106206659Y-83786965D01*
X106238753Y-83842551D01*
X106238753Y-83906738D01*
X106206661Y-83962325D01*
X106197031Y-83971954D01*
X106107997Y-84116300D01*
X106054650Y-84277292D01*
X106044500Y-84376655D01*
X106044500Y-84923344D01*
X106054650Y-85022707D01*
X106107997Y-85183699D01*
X106197031Y-85328044D01*
X106316955Y-85447968D01*
X106461300Y-85537002D01*
X106461302Y-85537002D01*
X106461303Y-85537003D01*
X106622292Y-85590349D01*
X106721655Y-85600500D01*
X107318344Y-85600499D01*
X107417708Y-85590349D01*
X107578697Y-85537003D01*
X107603733Y-85521559D01*
X107655460Y-85503820D01*
X107709787Y-85510056D01*
X107826342Y-85550841D01*
X107999995Y-85570407D01*
X107999997Y-85570406D01*
X108000000Y-85570407D01*
X108010335Y-85569242D01*
X108032157Y-85570763D01*
X108032157Y-85570500D01*
X108047823Y-85570500D01*
X108069045Y-85570500D01*
X108088443Y-85572026D01*
X108109405Y-85575347D01*
X108151319Y-85571384D01*
X108154861Y-85571050D01*
X108166530Y-85570500D01*
X109793481Y-85570500D01*
X109840934Y-85579939D01*
X109881163Y-85606820D01*
X109931662Y-85657320D01*
X109963755Y-85712907D01*
X109963755Y-85777094D01*
X109931661Y-85832681D01*
X109829528Y-85934813D01*
X109747503Y-86070500D01*
X109741522Y-86080394D01*
X109732819Y-86108323D01*
X109690913Y-86242806D01*
X109684500Y-86313383D01*
X109684500Y-86826617D01*
X109690913Y-86897193D01*
X109690914Y-86897196D01*
X109741522Y-87059606D01*
X109776326Y-87117179D01*
X109829528Y-87205186D01*
X109960461Y-87336119D01*
X109960265Y-87336314D01*
X109993505Y-87370572D01*
X110009500Y-87431489D01*
X110009500Y-87754495D01*
X110007158Y-87775704D01*
X110009439Y-87848262D01*
X110009500Y-87852157D01*
X110009500Y-87880926D01*
X110010053Y-87885307D01*
X110010968Y-87896940D01*
X110012402Y-87942569D01*
X110018323Y-87962950D01*
X110022266Y-87981991D01*
X110024536Y-87999951D01*
X110013716Y-88068292D01*
X109967960Y-88120195D01*
X109901515Y-88139500D01*
X109350808Y-88139500D01*
X109303355Y-88130061D01*
X109263127Y-88103181D01*
X107850434Y-86690488D01*
X107837091Y-86673833D01*
X107784166Y-86624134D01*
X107781369Y-86621423D01*
X107761034Y-86601088D01*
X107757547Y-86598383D01*
X107748671Y-86590801D01*
X107715394Y-86559552D01*
X107696793Y-86549326D01*
X107680532Y-86538645D01*
X107663764Y-86525638D01*
X107637515Y-86514279D01*
X107621869Y-86507508D01*
X107611379Y-86502369D01*
X107571367Y-86480372D01*
X107550800Y-86475091D01*
X107532398Y-86468791D01*
X107512924Y-86460364D01*
X107467837Y-86453223D01*
X107456398Y-86450854D01*
X107412178Y-86439500D01*
X107412177Y-86439500D01*
X107390955Y-86439500D01*
X107371556Y-86437973D01*
X107350596Y-86434653D01*
X107350595Y-86434653D01*
X107329724Y-86436626D01*
X107305139Y-86438950D01*
X107293470Y-86439500D01*
X103535795Y-86439500D01*
X103488342Y-86430061D01*
X103448114Y-86403181D01*
X102902300Y-85857367D01*
X102873053Y-85810964D01*
X102866686Y-85756484D01*
X102884442Y-85704590D01*
X102922003Y-85643697D01*
X102975349Y-85482708D01*
X102985500Y-85383345D01*
X102985499Y-84836656D01*
X102976370Y-84747292D01*
X102975349Y-84737292D01*
X102930317Y-84601392D01*
X102922003Y-84576303D01*
X102922002Y-84576301D01*
X102922002Y-84576300D01*
X102832969Y-84431957D01*
X102823341Y-84422329D01*
X102791245Y-84366741D01*
X102791245Y-84302551D01*
X102823341Y-84246963D01*
X102832572Y-84237732D01*
X102921546Y-84093484D01*
X102974856Y-83932606D01*
X102985000Y-83833315D01*
X102985000Y-83810000D01*
X101035001Y-83810000D01*
X101035001Y-83833315D01*
X101045143Y-83932606D01*
X101099451Y-84096497D01*
X101104302Y-84154363D01*
X101082275Y-84208093D01*
X101038200Y-84245903D01*
X100981745Y-84259500D01*
X98035504Y-84259500D01*
X98014294Y-84257158D01*
X97941737Y-84259439D01*
X97937842Y-84259500D01*
X97909071Y-84259500D01*
X97904690Y-84260053D01*
X97893059Y-84260968D01*
X97847430Y-84262402D01*
X97827051Y-84268323D01*
X97808007Y-84272267D01*
X97793639Y-84274082D01*
X97786941Y-84274929D01*
X97744490Y-84291736D01*
X97733443Y-84295518D01*
X97689598Y-84308256D01*
X97671330Y-84319060D01*
X97653864Y-84327617D01*
X97634129Y-84335431D01*
X97597202Y-84362260D01*
X97587442Y-84368671D01*
X97548136Y-84391917D01*
X97533125Y-84406928D01*
X97518336Y-84419558D01*
X97501164Y-84432034D01*
X97472057Y-84467218D01*
X97464196Y-84475856D01*
X97235484Y-84704568D01*
X97218831Y-84717910D01*
X97169133Y-84770833D01*
X97166427Y-84773626D01*
X97146083Y-84793971D01*
X97143376Y-84797460D01*
X97135807Y-84806321D01*
X97104551Y-84839607D01*
X97094322Y-84858212D01*
X97083645Y-84874467D01*
X97070636Y-84891238D01*
X97052506Y-84933132D01*
X97047370Y-84943616D01*
X97025372Y-84983632D01*
X97020091Y-85004199D01*
X97013791Y-85022600D01*
X97005364Y-85042074D01*
X96998223Y-85087161D01*
X96995855Y-85098593D01*
X96989029Y-85125186D01*
X96980605Y-85157995D01*
X96977237Y-85157130D01*
X96965494Y-85197893D01*
X96931877Y-85251393D01*
X96874158Y-85416342D01*
X96854592Y-85589999D01*
X96874158Y-85763657D01*
X96931877Y-85928606D01*
X96972439Y-85993160D01*
X96986523Y-86024541D01*
X96993323Y-86047950D01*
X96997267Y-86066995D01*
X96999928Y-86088059D01*
X97016737Y-86130515D01*
X97020520Y-86141563D01*
X97033256Y-86185400D01*
X97044061Y-86203670D01*
X97052621Y-86221143D01*
X97056887Y-86231919D01*
X97060432Y-86240871D01*
X97061838Y-86242806D01*
X97087267Y-86277808D01*
X97093673Y-86287560D01*
X97116919Y-86326865D01*
X97116921Y-86326867D01*
X97131925Y-86341871D01*
X97144564Y-86356669D01*
X97157037Y-86373837D01*
X97192212Y-86402936D01*
X97200854Y-86410800D01*
X97227873Y-86437819D01*
X97258123Y-86487182D01*
X97262665Y-86544898D01*
X97240510Y-86598385D01*
X97196487Y-86635985D01*
X97140192Y-86649500D01*
X93512211Y-86649500D01*
X93488022Y-86647117D01*
X93466979Y-86642931D01*
X93422280Y-86624415D01*
X93414793Y-86619412D01*
X93380587Y-86585206D01*
X93375584Y-86577719D01*
X93357067Y-86533018D01*
X93352881Y-86511972D01*
X93350500Y-86487789D01*
X93350500Y-83320000D01*
X114640000Y-83320000D01*
X115365000Y-83320000D01*
X115365000Y-82620001D01*
X115316685Y-82620001D01*
X115217394Y-82630143D01*
X115056513Y-82683453D01*
X114912267Y-82772426D01*
X114792426Y-82892267D01*
X114703453Y-83036513D01*
X114650143Y-83197393D01*
X114640000Y-83296685D01*
X114640000Y-83320000D01*
X93350500Y-83320000D01*
X93350500Y-81512211D01*
X93352882Y-81488023D01*
X93357068Y-81466980D01*
X93375584Y-81422280D01*
X93380587Y-81414793D01*
X93414793Y-81380587D01*
X93422280Y-81375584D01*
X93466981Y-81357067D01*
X93488026Y-81352881D01*
X93512211Y-81350500D01*
X93555514Y-81350500D01*
X97245928Y-81350500D01*
X97302842Y-81364333D01*
G37*
G04 #@! TD.AperFunction*
M02*
