M48
; DRILL file {KiCad 7.0.1} date Fri Mar 29 16:02:15 2024
; FORMAT={-:-/ absolute / metric / decimal}
; #@! TF.CreationDate,2024-03-29T16:02:15+01:00
; #@! TF.GenerationSoftware,Kicad,Pcbnew,7.0.1
; #@! TF.FileFunction,Plated,1,2,PTH
FMAT,2
METRIC
; #@! TA.AperFunction,Plated,PTH,ViaDrill
T1C0.250
%
G90
G05
T1
X97.635Y-85.59
X98.12Y-81.7
X103.415Y-83.355
X107.0Y-81.69
X108.0Y-84.79
X113.36Y-88.08
X113.755Y-88.76
X116.61Y-85.16
X118.52Y-82.04
X119.65Y-84.91
X122.22Y-83.57
X123.02Y-84.93
X123.73Y-86.62
X125.37Y-89.766
X125.874Y-81.81
X127.07Y-84.91
X130.131Y-87.379
X131.895Y-87.375
X132.3Y-84.94
X135.117Y-89.837
X135.5Y-81.82
X138.75Y-85.71
X139.07Y-88.96
X140.99Y-83.6
X141.999Y-84.98
X142.0Y-86.21
X143.02Y-88.82
X145.01Y-81.67
X146.14Y-84.66
X147.12Y-85.925
X147.63Y-87.221
X148.9Y-88.21
X149.04Y-89.22
X151.57Y-85.95
X152.88Y-81.79
X154.67Y-84.0
X160.97Y-83.11
X165.23Y-84.01
X166.07Y-81.97
T0
M30
