%TF.GenerationSoftware,KiCad,Pcbnew,7.0.1*%
%TF.CreationDate,2024-03-29T16:02:35+01:00*%
%TF.ProjectId,Qtr-8-SN,5174722d-382d-4534-9e2e-6b696361645f,rev?*%
%TF.SameCoordinates,Original*%
%TF.FileFunction,Drillmap*%
%TF.FilePolarity,Positive*%
%FSLAX45Y45*%
G04 Gerber Fmt 4.5, Leading zero omitted, Abs format (unit mm)*
G04 Created by KiCad (PCBNEW 7.0.1) date 2024-03-29 16:02:35*
%MOMM*%
%LPD*%
G01*
G04 APERTURE LIST*
%ADD10C,0.100000*%
%ADD11C,0.200000*%
%ADD12C,0.210000*%
G04 APERTURE END LIST*
D10*
X11988000Y-9474000D02*
X12138000Y-9474000D01*
X15329250Y-8992000D02*
X14379000Y-8992000D01*
X13929000Y-9374000D02*
X13929000Y-9189000D01*
X16867150Y-8400000D02*
X16867000Y-8150000D01*
X11888000Y-9374000D02*
G75*
G03*
X11988000Y-9474000I100000J0D01*
G01*
X10838000Y-8974000D02*
X11788000Y-8974000D01*
X14278000Y-9092711D02*
X14279000Y-9374000D01*
X9350000Y-8700000D02*
X10200000Y-8700000D01*
X13929000Y-9189000D02*
G75*
G03*
X13829000Y-9089000I-100000J0D01*
G01*
X16867150Y-8400000D02*
X16867000Y-8650000D01*
X10300000Y-8974000D02*
G75*
G03*
X10838000Y-8974000I269000J0D01*
G01*
X12338000Y-9089000D02*
G75*
G03*
X12238000Y-9189000I0J-100000D01*
G01*
X10300000Y-8800000D02*
X10300000Y-8974000D01*
X13929000Y-9374000D02*
G75*
G03*
X14029000Y-9474000I100000J0D01*
G01*
X9350000Y-8100000D02*
X16817000Y-8100000D01*
X16817000Y-8700000D02*
X15968000Y-8700000D01*
X16817000Y-8700000D02*
G75*
G03*
X16867000Y-8650000I0J50000D01*
G01*
X14179000Y-9474000D02*
G75*
G03*
X14279000Y-9374000I0J100000D01*
G01*
X16867000Y-8150000D02*
G75*
G03*
X16817000Y-8100000I-50000J0D01*
G01*
X13829000Y-9089000D02*
X12338000Y-9089000D01*
X11888000Y-9074000D02*
X11888000Y-9374000D01*
X9300000Y-8150000D02*
X9300000Y-8650000D01*
X15968000Y-8700000D02*
G75*
G03*
X15868000Y-8800000I0J-100000D01*
G01*
X14179000Y-9474000D02*
X14029000Y-9474000D01*
X9350000Y-8100000D02*
G75*
G03*
X9300000Y-8150000I0J-50000D01*
G01*
X12138000Y-9474000D02*
G75*
G03*
X12238000Y-9374000I0J100000D01*
G01*
X11888000Y-9074000D02*
G75*
G03*
X11788000Y-8974000I-100000J0D01*
G01*
X15329250Y-8992000D02*
G75*
G03*
X15867752Y-8974000I268950J18000D01*
G01*
X10300000Y-8800000D02*
G75*
G03*
X10200000Y-8700000I-100000J0D01*
G01*
X14379000Y-8992000D02*
G75*
G03*
X14278000Y-9092711I-290J-100710D01*
G01*
X15868000Y-8800000D02*
X15867150Y-8974000D01*
X12238000Y-9374000D02*
X12238000Y-9189000D01*
X9300000Y-8650000D02*
G75*
G03*
X9350000Y-8700000I50000J0D01*
G01*
D11*
D12*
X10464000Y-8869000D02*
X10674000Y-9079000D01*
X10674000Y-8869000D02*
X10464000Y-9079000D01*
X15493200Y-8869000D02*
X15703200Y-9079000D01*
X15703200Y-8869000D02*
X15493200Y-9079000D01*
D11*
X9542619Y-9791524D02*
X9542619Y-9591524D01*
X9542619Y-9591524D02*
X9590238Y-9591524D01*
X9590238Y-9591524D02*
X9618810Y-9601048D01*
X9618810Y-9601048D02*
X9637857Y-9620095D01*
X9637857Y-9620095D02*
X9647381Y-9639143D01*
X9647381Y-9639143D02*
X9656905Y-9677238D01*
X9656905Y-9677238D02*
X9656905Y-9705810D01*
X9656905Y-9705810D02*
X9647381Y-9743905D01*
X9647381Y-9743905D02*
X9637857Y-9762952D01*
X9637857Y-9762952D02*
X9618810Y-9782000D01*
X9618810Y-9782000D02*
X9590238Y-9791524D01*
X9590238Y-9791524D02*
X9542619Y-9791524D01*
X9742619Y-9791524D02*
X9742619Y-9658190D01*
X9742619Y-9696286D02*
X9752143Y-9677238D01*
X9752143Y-9677238D02*
X9761667Y-9667714D01*
X9761667Y-9667714D02*
X9780714Y-9658190D01*
X9780714Y-9658190D02*
X9799762Y-9658190D01*
X9866429Y-9791524D02*
X9866429Y-9658190D01*
X9866429Y-9591524D02*
X9856905Y-9601048D01*
X9856905Y-9601048D02*
X9866429Y-9610571D01*
X9866429Y-9610571D02*
X9875952Y-9601048D01*
X9875952Y-9601048D02*
X9866429Y-9591524D01*
X9866429Y-9591524D02*
X9866429Y-9610571D01*
X9990238Y-9791524D02*
X9971190Y-9782000D01*
X9971190Y-9782000D02*
X9961667Y-9762952D01*
X9961667Y-9762952D02*
X9961667Y-9591524D01*
X10095000Y-9791524D02*
X10075952Y-9782000D01*
X10075952Y-9782000D02*
X10066429Y-9762952D01*
X10066429Y-9762952D02*
X10066429Y-9591524D01*
X10323571Y-9791524D02*
X10323571Y-9591524D01*
X10323571Y-9591524D02*
X10390238Y-9734381D01*
X10390238Y-9734381D02*
X10456905Y-9591524D01*
X10456905Y-9591524D02*
X10456905Y-9791524D01*
X10637857Y-9791524D02*
X10637857Y-9686762D01*
X10637857Y-9686762D02*
X10628333Y-9667714D01*
X10628333Y-9667714D02*
X10609286Y-9658190D01*
X10609286Y-9658190D02*
X10571190Y-9658190D01*
X10571190Y-9658190D02*
X10552143Y-9667714D01*
X10637857Y-9782000D02*
X10618810Y-9791524D01*
X10618810Y-9791524D02*
X10571190Y-9791524D01*
X10571190Y-9791524D02*
X10552143Y-9782000D01*
X10552143Y-9782000D02*
X10542619Y-9762952D01*
X10542619Y-9762952D02*
X10542619Y-9743905D01*
X10542619Y-9743905D02*
X10552143Y-9724857D01*
X10552143Y-9724857D02*
X10571190Y-9715333D01*
X10571190Y-9715333D02*
X10618810Y-9715333D01*
X10618810Y-9715333D02*
X10637857Y-9705810D01*
X10733095Y-9658190D02*
X10733095Y-9858190D01*
X10733095Y-9667714D02*
X10752143Y-9658190D01*
X10752143Y-9658190D02*
X10790238Y-9658190D01*
X10790238Y-9658190D02*
X10809286Y-9667714D01*
X10809286Y-9667714D02*
X10818810Y-9677238D01*
X10818810Y-9677238D02*
X10828333Y-9696286D01*
X10828333Y-9696286D02*
X10828333Y-9753429D01*
X10828333Y-9753429D02*
X10818810Y-9772476D01*
X10818810Y-9772476D02*
X10809286Y-9782000D01*
X10809286Y-9782000D02*
X10790238Y-9791524D01*
X10790238Y-9791524D02*
X10752143Y-9791524D01*
X10752143Y-9791524D02*
X10733095Y-9782000D01*
X10914048Y-9772476D02*
X10923571Y-9782000D01*
X10923571Y-9782000D02*
X10914048Y-9791524D01*
X10914048Y-9791524D02*
X10904524Y-9782000D01*
X10904524Y-9782000D02*
X10914048Y-9772476D01*
X10914048Y-9772476D02*
X10914048Y-9791524D01*
X10914048Y-9667714D02*
X10923571Y-9677238D01*
X10923571Y-9677238D02*
X10914048Y-9686762D01*
X10914048Y-9686762D02*
X10904524Y-9677238D01*
X10904524Y-9677238D02*
X10914048Y-9667714D01*
X10914048Y-9667714D02*
X10914048Y-9686762D01*
X9095000Y-10019000D02*
X9295000Y-10219000D01*
X9295000Y-10019000D02*
X9095000Y-10219000D01*
X9533095Y-10030571D02*
X9542619Y-10021048D01*
X9542619Y-10021048D02*
X9561667Y-10011524D01*
X9561667Y-10011524D02*
X9609286Y-10011524D01*
X9609286Y-10011524D02*
X9628333Y-10021048D01*
X9628333Y-10021048D02*
X9637857Y-10030571D01*
X9637857Y-10030571D02*
X9647381Y-10049619D01*
X9647381Y-10049619D02*
X9647381Y-10068667D01*
X9647381Y-10068667D02*
X9637857Y-10097238D01*
X9637857Y-10097238D02*
X9523571Y-10211524D01*
X9523571Y-10211524D02*
X9647381Y-10211524D01*
X9733095Y-10192476D02*
X9742619Y-10202000D01*
X9742619Y-10202000D02*
X9733095Y-10211524D01*
X9733095Y-10211524D02*
X9723571Y-10202000D01*
X9723571Y-10202000D02*
X9733095Y-10192476D01*
X9733095Y-10192476D02*
X9733095Y-10211524D01*
X9933095Y-10211524D02*
X9818810Y-10211524D01*
X9875952Y-10211524D02*
X9875952Y-10011524D01*
X9875952Y-10011524D02*
X9856905Y-10040095D01*
X9856905Y-10040095D02*
X9837857Y-10059143D01*
X9837857Y-10059143D02*
X9818810Y-10068667D01*
X10056905Y-10011524D02*
X10075952Y-10011524D01*
X10075952Y-10011524D02*
X10095000Y-10021048D01*
X10095000Y-10021048D02*
X10104524Y-10030571D01*
X10104524Y-10030571D02*
X10114048Y-10049619D01*
X10114048Y-10049619D02*
X10123571Y-10087714D01*
X10123571Y-10087714D02*
X10123571Y-10135333D01*
X10123571Y-10135333D02*
X10114048Y-10173429D01*
X10114048Y-10173429D02*
X10104524Y-10192476D01*
X10104524Y-10192476D02*
X10095000Y-10202000D01*
X10095000Y-10202000D02*
X10075952Y-10211524D01*
X10075952Y-10211524D02*
X10056905Y-10211524D01*
X10056905Y-10211524D02*
X10037857Y-10202000D01*
X10037857Y-10202000D02*
X10028333Y-10192476D01*
X10028333Y-10192476D02*
X10018810Y-10173429D01*
X10018810Y-10173429D02*
X10009286Y-10135333D01*
X10009286Y-10135333D02*
X10009286Y-10087714D01*
X10009286Y-10087714D02*
X10018810Y-10049619D01*
X10018810Y-10049619D02*
X10028333Y-10030571D01*
X10028333Y-10030571D02*
X10037857Y-10021048D01*
X10037857Y-10021048D02*
X10056905Y-10011524D01*
X10247381Y-10011524D02*
X10266429Y-10011524D01*
X10266429Y-10011524D02*
X10285476Y-10021048D01*
X10285476Y-10021048D02*
X10295000Y-10030571D01*
X10295000Y-10030571D02*
X10304524Y-10049619D01*
X10304524Y-10049619D02*
X10314048Y-10087714D01*
X10314048Y-10087714D02*
X10314048Y-10135333D01*
X10314048Y-10135333D02*
X10304524Y-10173429D01*
X10304524Y-10173429D02*
X10295000Y-10192476D01*
X10295000Y-10192476D02*
X10285476Y-10202000D01*
X10285476Y-10202000D02*
X10266429Y-10211524D01*
X10266429Y-10211524D02*
X10247381Y-10211524D01*
X10247381Y-10211524D02*
X10228333Y-10202000D01*
X10228333Y-10202000D02*
X10218810Y-10192476D01*
X10218810Y-10192476D02*
X10209286Y-10173429D01*
X10209286Y-10173429D02*
X10199762Y-10135333D01*
X10199762Y-10135333D02*
X10199762Y-10087714D01*
X10199762Y-10087714D02*
X10209286Y-10049619D01*
X10209286Y-10049619D02*
X10218810Y-10030571D01*
X10218810Y-10030571D02*
X10228333Y-10021048D01*
X10228333Y-10021048D02*
X10247381Y-10011524D01*
X10399762Y-10211524D02*
X10399762Y-10078190D01*
X10399762Y-10097238D02*
X10409286Y-10087714D01*
X10409286Y-10087714D02*
X10428333Y-10078190D01*
X10428333Y-10078190D02*
X10456905Y-10078190D01*
X10456905Y-10078190D02*
X10475952Y-10087714D01*
X10475952Y-10087714D02*
X10485476Y-10106762D01*
X10485476Y-10106762D02*
X10485476Y-10211524D01*
X10485476Y-10106762D02*
X10495000Y-10087714D01*
X10495000Y-10087714D02*
X10514048Y-10078190D01*
X10514048Y-10078190D02*
X10542619Y-10078190D01*
X10542619Y-10078190D02*
X10561667Y-10087714D01*
X10561667Y-10087714D02*
X10571191Y-10106762D01*
X10571191Y-10106762D02*
X10571191Y-10211524D01*
X10666429Y-10211524D02*
X10666429Y-10078190D01*
X10666429Y-10097238D02*
X10675952Y-10087714D01*
X10675952Y-10087714D02*
X10695000Y-10078190D01*
X10695000Y-10078190D02*
X10723572Y-10078190D01*
X10723572Y-10078190D02*
X10742619Y-10087714D01*
X10742619Y-10087714D02*
X10752143Y-10106762D01*
X10752143Y-10106762D02*
X10752143Y-10211524D01*
X10752143Y-10106762D02*
X10761667Y-10087714D01*
X10761667Y-10087714D02*
X10780714Y-10078190D01*
X10780714Y-10078190D02*
X10809286Y-10078190D01*
X10809286Y-10078190D02*
X10828333Y-10087714D01*
X10828333Y-10087714D02*
X10837857Y-10106762D01*
X10837857Y-10106762D02*
X10837857Y-10211524D01*
X11228333Y-10002000D02*
X11056905Y-10259143D01*
X11485476Y-10011524D02*
X11504524Y-10011524D01*
X11504524Y-10011524D02*
X11523572Y-10021048D01*
X11523572Y-10021048D02*
X11533095Y-10030571D01*
X11533095Y-10030571D02*
X11542619Y-10049619D01*
X11542619Y-10049619D02*
X11552143Y-10087714D01*
X11552143Y-10087714D02*
X11552143Y-10135333D01*
X11552143Y-10135333D02*
X11542619Y-10173429D01*
X11542619Y-10173429D02*
X11533095Y-10192476D01*
X11533095Y-10192476D02*
X11523572Y-10202000D01*
X11523572Y-10202000D02*
X11504524Y-10211524D01*
X11504524Y-10211524D02*
X11485476Y-10211524D01*
X11485476Y-10211524D02*
X11466429Y-10202000D01*
X11466429Y-10202000D02*
X11456905Y-10192476D01*
X11456905Y-10192476D02*
X11447381Y-10173429D01*
X11447381Y-10173429D02*
X11437857Y-10135333D01*
X11437857Y-10135333D02*
X11437857Y-10087714D01*
X11437857Y-10087714D02*
X11447381Y-10049619D01*
X11447381Y-10049619D02*
X11456905Y-10030571D01*
X11456905Y-10030571D02*
X11466429Y-10021048D01*
X11466429Y-10021048D02*
X11485476Y-10011524D01*
X11637857Y-10192476D02*
X11647381Y-10202000D01*
X11647381Y-10202000D02*
X11637857Y-10211524D01*
X11637857Y-10211524D02*
X11628333Y-10202000D01*
X11628333Y-10202000D02*
X11637857Y-10192476D01*
X11637857Y-10192476D02*
X11637857Y-10211524D01*
X11771191Y-10011524D02*
X11790238Y-10011524D01*
X11790238Y-10011524D02*
X11809286Y-10021048D01*
X11809286Y-10021048D02*
X11818810Y-10030571D01*
X11818810Y-10030571D02*
X11828333Y-10049619D01*
X11828333Y-10049619D02*
X11837857Y-10087714D01*
X11837857Y-10087714D02*
X11837857Y-10135333D01*
X11837857Y-10135333D02*
X11828333Y-10173429D01*
X11828333Y-10173429D02*
X11818810Y-10192476D01*
X11818810Y-10192476D02*
X11809286Y-10202000D01*
X11809286Y-10202000D02*
X11790238Y-10211524D01*
X11790238Y-10211524D02*
X11771191Y-10211524D01*
X11771191Y-10211524D02*
X11752143Y-10202000D01*
X11752143Y-10202000D02*
X11742619Y-10192476D01*
X11742619Y-10192476D02*
X11733095Y-10173429D01*
X11733095Y-10173429D02*
X11723572Y-10135333D01*
X11723572Y-10135333D02*
X11723572Y-10087714D01*
X11723572Y-10087714D02*
X11733095Y-10049619D01*
X11733095Y-10049619D02*
X11742619Y-10030571D01*
X11742619Y-10030571D02*
X11752143Y-10021048D01*
X11752143Y-10021048D02*
X11771191Y-10011524D01*
X11952143Y-10097238D02*
X11933095Y-10087714D01*
X11933095Y-10087714D02*
X11923572Y-10078190D01*
X11923572Y-10078190D02*
X11914048Y-10059143D01*
X11914048Y-10059143D02*
X11914048Y-10049619D01*
X11914048Y-10049619D02*
X11923572Y-10030571D01*
X11923572Y-10030571D02*
X11933095Y-10021048D01*
X11933095Y-10021048D02*
X11952143Y-10011524D01*
X11952143Y-10011524D02*
X11990238Y-10011524D01*
X11990238Y-10011524D02*
X12009286Y-10021048D01*
X12009286Y-10021048D02*
X12018810Y-10030571D01*
X12018810Y-10030571D02*
X12028333Y-10049619D01*
X12028333Y-10049619D02*
X12028333Y-10059143D01*
X12028333Y-10059143D02*
X12018810Y-10078190D01*
X12018810Y-10078190D02*
X12009286Y-10087714D01*
X12009286Y-10087714D02*
X11990238Y-10097238D01*
X11990238Y-10097238D02*
X11952143Y-10097238D01*
X11952143Y-10097238D02*
X11933095Y-10106762D01*
X11933095Y-10106762D02*
X11923572Y-10116286D01*
X11923572Y-10116286D02*
X11914048Y-10135333D01*
X11914048Y-10135333D02*
X11914048Y-10173429D01*
X11914048Y-10173429D02*
X11923572Y-10192476D01*
X11923572Y-10192476D02*
X11933095Y-10202000D01*
X11933095Y-10202000D02*
X11952143Y-10211524D01*
X11952143Y-10211524D02*
X11990238Y-10211524D01*
X11990238Y-10211524D02*
X12009286Y-10202000D01*
X12009286Y-10202000D02*
X12018810Y-10192476D01*
X12018810Y-10192476D02*
X12028333Y-10173429D01*
X12028333Y-10173429D02*
X12028333Y-10135333D01*
X12028333Y-10135333D02*
X12018810Y-10116286D01*
X12018810Y-10116286D02*
X12009286Y-10106762D01*
X12009286Y-10106762D02*
X11990238Y-10097238D01*
X12104524Y-10030571D02*
X12114048Y-10021048D01*
X12114048Y-10021048D02*
X12133095Y-10011524D01*
X12133095Y-10011524D02*
X12180714Y-10011524D01*
X12180714Y-10011524D02*
X12199762Y-10021048D01*
X12199762Y-10021048D02*
X12209286Y-10030571D01*
X12209286Y-10030571D02*
X12218810Y-10049619D01*
X12218810Y-10049619D02*
X12218810Y-10068667D01*
X12218810Y-10068667D02*
X12209286Y-10097238D01*
X12209286Y-10097238D02*
X12095000Y-10211524D01*
X12095000Y-10211524D02*
X12218810Y-10211524D01*
X12285476Y-10011524D02*
X12418810Y-10011524D01*
X12418810Y-10011524D02*
X12333095Y-10211524D01*
X12485476Y-10011524D02*
X12485476Y-10049619D01*
X12561667Y-10011524D02*
X12561667Y-10049619D01*
X12856905Y-10287714D02*
X12847381Y-10278190D01*
X12847381Y-10278190D02*
X12828334Y-10249619D01*
X12828334Y-10249619D02*
X12818810Y-10230571D01*
X12818810Y-10230571D02*
X12809286Y-10202000D01*
X12809286Y-10202000D02*
X12799762Y-10154381D01*
X12799762Y-10154381D02*
X12799762Y-10116286D01*
X12799762Y-10116286D02*
X12809286Y-10068667D01*
X12809286Y-10068667D02*
X12818810Y-10040095D01*
X12818810Y-10040095D02*
X12828334Y-10021048D01*
X12828334Y-10021048D02*
X12847381Y-9992476D01*
X12847381Y-9992476D02*
X12856905Y-9982952D01*
X12923572Y-10030571D02*
X12933095Y-10021048D01*
X12933095Y-10021048D02*
X12952143Y-10011524D01*
X12952143Y-10011524D02*
X12999762Y-10011524D01*
X12999762Y-10011524D02*
X13018810Y-10021048D01*
X13018810Y-10021048D02*
X13028334Y-10030571D01*
X13028334Y-10030571D02*
X13037857Y-10049619D01*
X13037857Y-10049619D02*
X13037857Y-10068667D01*
X13037857Y-10068667D02*
X13028334Y-10097238D01*
X13028334Y-10097238D02*
X12914048Y-10211524D01*
X12914048Y-10211524D02*
X13037857Y-10211524D01*
X13275953Y-10211524D02*
X13275953Y-10011524D01*
X13361667Y-10211524D02*
X13361667Y-10106762D01*
X13361667Y-10106762D02*
X13352143Y-10087714D01*
X13352143Y-10087714D02*
X13333096Y-10078190D01*
X13333096Y-10078190D02*
X13304524Y-10078190D01*
X13304524Y-10078190D02*
X13285476Y-10087714D01*
X13285476Y-10087714D02*
X13275953Y-10097238D01*
X13485476Y-10211524D02*
X13466429Y-10202000D01*
X13466429Y-10202000D02*
X13456905Y-10192476D01*
X13456905Y-10192476D02*
X13447381Y-10173429D01*
X13447381Y-10173429D02*
X13447381Y-10116286D01*
X13447381Y-10116286D02*
X13456905Y-10097238D01*
X13456905Y-10097238D02*
X13466429Y-10087714D01*
X13466429Y-10087714D02*
X13485476Y-10078190D01*
X13485476Y-10078190D02*
X13514048Y-10078190D01*
X13514048Y-10078190D02*
X13533096Y-10087714D01*
X13533096Y-10087714D02*
X13542619Y-10097238D01*
X13542619Y-10097238D02*
X13552143Y-10116286D01*
X13552143Y-10116286D02*
X13552143Y-10173429D01*
X13552143Y-10173429D02*
X13542619Y-10192476D01*
X13542619Y-10192476D02*
X13533096Y-10202000D01*
X13533096Y-10202000D02*
X13514048Y-10211524D01*
X13514048Y-10211524D02*
X13485476Y-10211524D01*
X13666429Y-10211524D02*
X13647381Y-10202000D01*
X13647381Y-10202000D02*
X13637857Y-10182952D01*
X13637857Y-10182952D02*
X13637857Y-10011524D01*
X13818810Y-10202000D02*
X13799762Y-10211524D01*
X13799762Y-10211524D02*
X13761667Y-10211524D01*
X13761667Y-10211524D02*
X13742619Y-10202000D01*
X13742619Y-10202000D02*
X13733096Y-10182952D01*
X13733096Y-10182952D02*
X13733096Y-10106762D01*
X13733096Y-10106762D02*
X13742619Y-10087714D01*
X13742619Y-10087714D02*
X13761667Y-10078190D01*
X13761667Y-10078190D02*
X13799762Y-10078190D01*
X13799762Y-10078190D02*
X13818810Y-10087714D01*
X13818810Y-10087714D02*
X13828334Y-10106762D01*
X13828334Y-10106762D02*
X13828334Y-10125810D01*
X13828334Y-10125810D02*
X13733096Y-10144857D01*
X13904524Y-10202000D02*
X13923572Y-10211524D01*
X13923572Y-10211524D02*
X13961667Y-10211524D01*
X13961667Y-10211524D02*
X13980715Y-10202000D01*
X13980715Y-10202000D02*
X13990238Y-10182952D01*
X13990238Y-10182952D02*
X13990238Y-10173429D01*
X13990238Y-10173429D02*
X13980715Y-10154381D01*
X13980715Y-10154381D02*
X13961667Y-10144857D01*
X13961667Y-10144857D02*
X13933096Y-10144857D01*
X13933096Y-10144857D02*
X13914048Y-10135333D01*
X13914048Y-10135333D02*
X13904524Y-10116286D01*
X13904524Y-10116286D02*
X13904524Y-10106762D01*
X13904524Y-10106762D02*
X13914048Y-10087714D01*
X13914048Y-10087714D02*
X13933096Y-10078190D01*
X13933096Y-10078190D02*
X13961667Y-10078190D01*
X13961667Y-10078190D02*
X13980715Y-10087714D01*
X14056905Y-10287714D02*
X14066429Y-10278190D01*
X14066429Y-10278190D02*
X14085477Y-10249619D01*
X14085477Y-10249619D02*
X14095000Y-10230571D01*
X14095000Y-10230571D02*
X14104524Y-10202000D01*
X14104524Y-10202000D02*
X14114048Y-10154381D01*
X14114048Y-10154381D02*
X14114048Y-10116286D01*
X14114048Y-10116286D02*
X14104524Y-10068667D01*
X14104524Y-10068667D02*
X14095000Y-10040095D01*
X14095000Y-10040095D02*
X14085477Y-10021048D01*
X14085477Y-10021048D02*
X14066429Y-9992476D01*
X14066429Y-9992476D02*
X14056905Y-9982952D01*
X14418810Y-10287714D02*
X14409286Y-10278190D01*
X14409286Y-10278190D02*
X14390238Y-10249619D01*
X14390238Y-10249619D02*
X14380715Y-10230571D01*
X14380715Y-10230571D02*
X14371191Y-10202000D01*
X14371191Y-10202000D02*
X14361667Y-10154381D01*
X14361667Y-10154381D02*
X14361667Y-10116286D01*
X14361667Y-10116286D02*
X14371191Y-10068667D01*
X14371191Y-10068667D02*
X14380715Y-10040095D01*
X14380715Y-10040095D02*
X14390238Y-10021048D01*
X14390238Y-10021048D02*
X14409286Y-9992476D01*
X14409286Y-9992476D02*
X14418810Y-9982952D01*
X14495000Y-10078190D02*
X14495000Y-10211524D01*
X14495000Y-10097238D02*
X14504524Y-10087714D01*
X14504524Y-10087714D02*
X14523572Y-10078190D01*
X14523572Y-10078190D02*
X14552143Y-10078190D01*
X14552143Y-10078190D02*
X14571191Y-10087714D01*
X14571191Y-10087714D02*
X14580715Y-10106762D01*
X14580715Y-10106762D02*
X14580715Y-10211524D01*
X14704524Y-10211524D02*
X14685477Y-10202000D01*
X14685477Y-10202000D02*
X14675953Y-10192476D01*
X14675953Y-10192476D02*
X14666429Y-10173429D01*
X14666429Y-10173429D02*
X14666429Y-10116286D01*
X14666429Y-10116286D02*
X14675953Y-10097238D01*
X14675953Y-10097238D02*
X14685477Y-10087714D01*
X14685477Y-10087714D02*
X14704524Y-10078190D01*
X14704524Y-10078190D02*
X14733096Y-10078190D01*
X14733096Y-10078190D02*
X14752143Y-10087714D01*
X14752143Y-10087714D02*
X14761667Y-10097238D01*
X14761667Y-10097238D02*
X14771191Y-10116286D01*
X14771191Y-10116286D02*
X14771191Y-10173429D01*
X14771191Y-10173429D02*
X14761667Y-10192476D01*
X14761667Y-10192476D02*
X14752143Y-10202000D01*
X14752143Y-10202000D02*
X14733096Y-10211524D01*
X14733096Y-10211524D02*
X14704524Y-10211524D01*
X14828334Y-10078190D02*
X14904524Y-10078190D01*
X14856905Y-10011524D02*
X14856905Y-10182952D01*
X14856905Y-10182952D02*
X14866429Y-10202000D01*
X14866429Y-10202000D02*
X14885477Y-10211524D01*
X14885477Y-10211524D02*
X14904524Y-10211524D01*
X15123572Y-10078190D02*
X15123572Y-10278190D01*
X15123572Y-10087714D02*
X15142619Y-10078190D01*
X15142619Y-10078190D02*
X15180715Y-10078190D01*
X15180715Y-10078190D02*
X15199762Y-10087714D01*
X15199762Y-10087714D02*
X15209286Y-10097238D01*
X15209286Y-10097238D02*
X15218810Y-10116286D01*
X15218810Y-10116286D02*
X15218810Y-10173429D01*
X15218810Y-10173429D02*
X15209286Y-10192476D01*
X15209286Y-10192476D02*
X15199762Y-10202000D01*
X15199762Y-10202000D02*
X15180715Y-10211524D01*
X15180715Y-10211524D02*
X15142619Y-10211524D01*
X15142619Y-10211524D02*
X15123572Y-10202000D01*
X15333096Y-10211524D02*
X15314048Y-10202000D01*
X15314048Y-10202000D02*
X15304524Y-10182952D01*
X15304524Y-10182952D02*
X15304524Y-10011524D01*
X15495000Y-10211524D02*
X15495000Y-10106762D01*
X15495000Y-10106762D02*
X15485477Y-10087714D01*
X15485477Y-10087714D02*
X15466429Y-10078190D01*
X15466429Y-10078190D02*
X15428334Y-10078190D01*
X15428334Y-10078190D02*
X15409286Y-10087714D01*
X15495000Y-10202000D02*
X15475953Y-10211524D01*
X15475953Y-10211524D02*
X15428334Y-10211524D01*
X15428334Y-10211524D02*
X15409286Y-10202000D01*
X15409286Y-10202000D02*
X15399762Y-10182952D01*
X15399762Y-10182952D02*
X15399762Y-10163905D01*
X15399762Y-10163905D02*
X15409286Y-10144857D01*
X15409286Y-10144857D02*
X15428334Y-10135333D01*
X15428334Y-10135333D02*
X15475953Y-10135333D01*
X15475953Y-10135333D02*
X15495000Y-10125810D01*
X15561667Y-10078190D02*
X15637858Y-10078190D01*
X15590239Y-10011524D02*
X15590239Y-10182952D01*
X15590239Y-10182952D02*
X15599762Y-10202000D01*
X15599762Y-10202000D02*
X15618810Y-10211524D01*
X15618810Y-10211524D02*
X15637858Y-10211524D01*
X15780715Y-10202000D02*
X15761667Y-10211524D01*
X15761667Y-10211524D02*
X15723572Y-10211524D01*
X15723572Y-10211524D02*
X15704524Y-10202000D01*
X15704524Y-10202000D02*
X15695000Y-10182952D01*
X15695000Y-10182952D02*
X15695000Y-10106762D01*
X15695000Y-10106762D02*
X15704524Y-10087714D01*
X15704524Y-10087714D02*
X15723572Y-10078190D01*
X15723572Y-10078190D02*
X15761667Y-10078190D01*
X15761667Y-10078190D02*
X15780715Y-10087714D01*
X15780715Y-10087714D02*
X15790239Y-10106762D01*
X15790239Y-10106762D02*
X15790239Y-10125810D01*
X15790239Y-10125810D02*
X15695000Y-10144857D01*
X15961667Y-10211524D02*
X15961667Y-10011524D01*
X15961667Y-10202000D02*
X15942620Y-10211524D01*
X15942620Y-10211524D02*
X15904524Y-10211524D01*
X15904524Y-10211524D02*
X15885477Y-10202000D01*
X15885477Y-10202000D02*
X15875953Y-10192476D01*
X15875953Y-10192476D02*
X15866429Y-10173429D01*
X15866429Y-10173429D02*
X15866429Y-10116286D01*
X15866429Y-10116286D02*
X15875953Y-10097238D01*
X15875953Y-10097238D02*
X15885477Y-10087714D01*
X15885477Y-10087714D02*
X15904524Y-10078190D01*
X15904524Y-10078190D02*
X15942620Y-10078190D01*
X15942620Y-10078190D02*
X15961667Y-10087714D01*
X16037858Y-10287714D02*
X16047381Y-10278190D01*
X16047381Y-10278190D02*
X16066429Y-10249619D01*
X16066429Y-10249619D02*
X16075953Y-10230571D01*
X16075953Y-10230571D02*
X16085477Y-10202000D01*
X16085477Y-10202000D02*
X16095000Y-10154381D01*
X16095000Y-10154381D02*
X16095000Y-10116286D01*
X16095000Y-10116286D02*
X16085477Y-10068667D01*
X16085477Y-10068667D02*
X16075953Y-10040095D01*
X16075953Y-10040095D02*
X16066429Y-10021048D01*
X16066429Y-10021048D02*
X16047381Y-9992476D01*
X16047381Y-9992476D02*
X16037858Y-9982952D01*
M02*
