G04 #@! TF.GenerationSoftware,KiCad,Pcbnew,7.0.1*
G04 #@! TF.CreationDate,2024-03-29T16:00:37+01:00*
G04 #@! TF.ProjectId,Qtr-8-SN,5174722d-382d-4534-9e2e-6b696361645f,rev?*
G04 #@! TF.SameCoordinates,Original*
G04 #@! TF.FileFunction,Soldermask,Top*
G04 #@! TF.FilePolarity,Negative*
%FSLAX46Y46*%
G04 Gerber Fmt 4.6, Leading zero omitted, Abs format (unit mm)*
G04 Created by KiCad (PCBNEW 7.0.1) date 2024-03-29 16:00:37*
%MOMM*%
%LPD*%
G01*
G04 APERTURE LIST*
G04 Aperture macros list*
%AMRoundRect*
0 Rectangle with rounded corners*
0 $1 Rounding radius*
0 $2 $3 $4 $5 $6 $7 $8 $9 X,Y pos of 4 corners*
0 Add a 4 corners polygon primitive as box body*
4,1,4,$2,$3,$4,$5,$6,$7,$8,$9,$2,$3,0*
0 Add four circle primitives for the rounded corners*
1,1,$1+$1,$2,$3*
1,1,$1+$1,$4,$5*
1,1,$1+$1,$6,$7*
1,1,$1+$1,$8,$9*
0 Add four rect primitives between the rounded corners*
20,1,$1+$1,$2,$3,$4,$5,0*
20,1,$1+$1,$4,$5,$6,$7,0*
20,1,$1+$1,$6,$7,$8,$9,0*
20,1,$1+$1,$8,$9,$2,$3,0*%
G04 Aperture macros list end*
%ADD10RoundRect,0.200000X0.200000X0.275000X-0.200000X0.275000X-0.200000X-0.275000X0.200000X-0.275000X0*%
%ADD11RoundRect,0.225000X0.250000X-0.225000X0.250000X0.225000X-0.250000X0.225000X-0.250000X-0.225000X0*%
%ADD12RoundRect,0.200000X-0.200000X-0.275000X0.200000X-0.275000X0.200000X0.275000X-0.200000X0.275000X0*%
%ADD13RoundRect,0.225000X-0.250000X0.225000X-0.250000X-0.225000X0.250000X-0.225000X0.250000X0.225000X0*%
%ADD14RoundRect,0.200000X-0.275000X0.200000X-0.275000X-0.200000X0.275000X-0.200000X0.275000X0.200000X0*%
%ADD15RoundRect,0.150000X-0.587500X-0.150000X0.587500X-0.150000X0.587500X0.150000X-0.587500X0.150000X0*%
%ADD16C,2.100000*%
G04 APERTURE END LIST*
D10*
X140205000Y-86750000D03*
X138555000Y-86750000D03*
D11*
X125910000Y-84650000D03*
X125910000Y-83100000D03*
D10*
X102840000Y-82040000D03*
X101190000Y-82040000D03*
D12*
X128780000Y-90040000D03*
X130430000Y-90040000D03*
D10*
X160030000Y-82040000D03*
X158380000Y-82040000D03*
X140970000Y-82020000D03*
X139320000Y-82020000D03*
D11*
X145110000Y-84660000D03*
X145110000Y-83110000D03*
D10*
X121860000Y-82040000D03*
X120210000Y-82040000D03*
D13*
X117620000Y-83570000D03*
X117620000Y-85120000D03*
D10*
X155465000Y-84980000D03*
X153815000Y-84980000D03*
D14*
X129720000Y-84910000D03*
X129720000Y-86560000D03*
D12*
X98870000Y-86170000D03*
X100520000Y-86170000D03*
D11*
X140130000Y-85120000D03*
X140130000Y-83570000D03*
X102010000Y-85110000D03*
X102010000Y-83560000D03*
D15*
X146215000Y-87880000D03*
X144340000Y-86930000D03*
X144340000Y-88830000D03*
D11*
X121070000Y-85110000D03*
X121070000Y-83560000D03*
X107020000Y-84650000D03*
X107020000Y-83100000D03*
D16*
X155982000Y-89740000D03*
D12*
X121080000Y-86620000D03*
X122730000Y-86620000D03*
D16*
X105690000Y-89740000D03*
D11*
X159180000Y-85090000D03*
X159180000Y-83540000D03*
X164190000Y-84660000D03*
X164190000Y-83110000D03*
D14*
X148890000Y-84900000D03*
X148890000Y-86550000D03*
D10*
X164185000Y-86160000D03*
X162535000Y-86160000D03*
D14*
X110660000Y-84920000D03*
X110660000Y-86570000D03*
D13*
X115615000Y-83570000D03*
X115615000Y-85120000D03*
M02*
