G04 #@! TF.GenerationSoftware,KiCad,Pcbnew,7.0.1*
G04 #@! TF.CreationDate,2024-03-29T16:00:37+01:00*
G04 #@! TF.ProjectId,Qtr-8-SN,5174722d-382d-4534-9e2e-6b696361645f,rev?*
G04 #@! TF.SameCoordinates,Original*
G04 #@! TF.FileFunction,Legend,Top*
G04 #@! TF.FilePolarity,Positive*
%FSLAX46Y46*%
G04 Gerber Fmt 4.6, Leading zero omitted, Abs format (unit mm)*
G04 Created by KiCad (PCBNEW 7.0.1) date 2024-03-29 16:00:37*
%MOMM*%
%LPD*%
G01*
G04 APERTURE LIST*
G04 Aperture macros list*
%AMRoundRect*
0 Rectangle with rounded corners*
0 $1 Rounding radius*
0 $2 $3 $4 $5 $6 $7 $8 $9 X,Y pos of 4 corners*
0 Add a 4 corners polygon primitive as box body*
4,1,4,$2,$3,$4,$5,$6,$7,$8,$9,$2,$3,0*
0 Add four circle primitives for the rounded corners*
1,1,$1+$1,$2,$3*
1,1,$1+$1,$4,$5*
1,1,$1+$1,$6,$7*
1,1,$1+$1,$8,$9*
0 Add four rect primitives between the rounded corners*
20,1,$1+$1,$2,$3,$4,$5,0*
20,1,$1+$1,$4,$5,$6,$7,0*
20,1,$1+$1,$6,$7,$8,$9,0*
20,1,$1+$1,$8,$9,$2,$3,0*%
G04 Aperture macros list end*
%ADD10C,0.170000*%
%ADD11C,0.150000*%
%ADD12C,0.120000*%
%ADD13RoundRect,0.200000X0.200000X0.275000X-0.200000X0.275000X-0.200000X-0.275000X0.200000X-0.275000X0*%
%ADD14RoundRect,0.225000X0.250000X-0.225000X0.250000X0.225000X-0.250000X0.225000X-0.250000X-0.225000X0*%
%ADD15RoundRect,0.200000X-0.200000X-0.275000X0.200000X-0.275000X0.200000X0.275000X-0.200000X0.275000X0*%
%ADD16RoundRect,0.225000X-0.250000X0.225000X-0.250000X-0.225000X0.250000X-0.225000X0.250000X0.225000X0*%
%ADD17RoundRect,0.200000X-0.275000X0.200000X-0.275000X-0.200000X0.275000X-0.200000X0.275000X0.200000X0*%
%ADD18RoundRect,0.150000X-0.587500X-0.150000X0.587500X-0.150000X0.587500X0.150000X-0.587500X0.150000X0*%
%ADD19C,2.100000*%
G04 APERTURE END LIST*
D10*
X136723333Y-87212619D02*
X136390000Y-86736428D01*
X136151905Y-87212619D02*
X136151905Y-86212619D01*
X136151905Y-86212619D02*
X136532857Y-86212619D01*
X136532857Y-86212619D02*
X136628095Y-86260238D01*
X136628095Y-86260238D02*
X136675714Y-86307857D01*
X136675714Y-86307857D02*
X136723333Y-86403095D01*
X136723333Y-86403095D02*
X136723333Y-86545952D01*
X136723333Y-86545952D02*
X136675714Y-86641190D01*
X136675714Y-86641190D02*
X136628095Y-86688809D01*
X136628095Y-86688809D02*
X136532857Y-86736428D01*
X136532857Y-86736428D02*
X136151905Y-86736428D01*
X137580476Y-86212619D02*
X137390000Y-86212619D01*
X137390000Y-86212619D02*
X137294762Y-86260238D01*
X137294762Y-86260238D02*
X137247143Y-86307857D01*
X137247143Y-86307857D02*
X137151905Y-86450714D01*
X137151905Y-86450714D02*
X137104286Y-86641190D01*
X137104286Y-86641190D02*
X137104286Y-87022142D01*
X137104286Y-87022142D02*
X137151905Y-87117380D01*
X137151905Y-87117380D02*
X137199524Y-87165000D01*
X137199524Y-87165000D02*
X137294762Y-87212619D01*
X137294762Y-87212619D02*
X137485238Y-87212619D01*
X137485238Y-87212619D02*
X137580476Y-87165000D01*
X137580476Y-87165000D02*
X137628095Y-87117380D01*
X137628095Y-87117380D02*
X137675714Y-87022142D01*
X137675714Y-87022142D02*
X137675714Y-86784047D01*
X137675714Y-86784047D02*
X137628095Y-86688809D01*
X137628095Y-86688809D02*
X137580476Y-86641190D01*
X137580476Y-86641190D02*
X137485238Y-86593571D01*
X137485238Y-86593571D02*
X137294762Y-86593571D01*
X137294762Y-86593571D02*
X137199524Y-86641190D01*
X137199524Y-86641190D02*
X137151905Y-86688809D01*
X137151905Y-86688809D02*
X137104286Y-86784047D01*
X126377380Y-86526666D02*
X126425000Y-86574285D01*
X126425000Y-86574285D02*
X126472619Y-86717142D01*
X126472619Y-86717142D02*
X126472619Y-86812380D01*
X126472619Y-86812380D02*
X126425000Y-86955237D01*
X126425000Y-86955237D02*
X126329761Y-87050475D01*
X126329761Y-87050475D02*
X126234523Y-87098094D01*
X126234523Y-87098094D02*
X126044047Y-87145713D01*
X126044047Y-87145713D02*
X125901190Y-87145713D01*
X125901190Y-87145713D02*
X125710714Y-87098094D01*
X125710714Y-87098094D02*
X125615476Y-87050475D01*
X125615476Y-87050475D02*
X125520238Y-86955237D01*
X125520238Y-86955237D02*
X125472619Y-86812380D01*
X125472619Y-86812380D02*
X125472619Y-86717142D01*
X125472619Y-86717142D02*
X125520238Y-86574285D01*
X125520238Y-86574285D02*
X125567857Y-86526666D01*
X125901190Y-85955237D02*
X125853571Y-86050475D01*
X125853571Y-86050475D02*
X125805952Y-86098094D01*
X125805952Y-86098094D02*
X125710714Y-86145713D01*
X125710714Y-86145713D02*
X125663095Y-86145713D01*
X125663095Y-86145713D02*
X125567857Y-86098094D01*
X125567857Y-86098094D02*
X125520238Y-86050475D01*
X125520238Y-86050475D02*
X125472619Y-85955237D01*
X125472619Y-85955237D02*
X125472619Y-85764761D01*
X125472619Y-85764761D02*
X125520238Y-85669523D01*
X125520238Y-85669523D02*
X125567857Y-85621904D01*
X125567857Y-85621904D02*
X125663095Y-85574285D01*
X125663095Y-85574285D02*
X125710714Y-85574285D01*
X125710714Y-85574285D02*
X125805952Y-85621904D01*
X125805952Y-85621904D02*
X125853571Y-85669523D01*
X125853571Y-85669523D02*
X125901190Y-85764761D01*
X125901190Y-85764761D02*
X125901190Y-85955237D01*
X125901190Y-85955237D02*
X125948809Y-86050475D01*
X125948809Y-86050475D02*
X125996428Y-86098094D01*
X125996428Y-86098094D02*
X126091666Y-86145713D01*
X126091666Y-86145713D02*
X126282142Y-86145713D01*
X126282142Y-86145713D02*
X126377380Y-86098094D01*
X126377380Y-86098094D02*
X126425000Y-86050475D01*
X126425000Y-86050475D02*
X126472619Y-85955237D01*
X126472619Y-85955237D02*
X126472619Y-85764761D01*
X126472619Y-85764761D02*
X126425000Y-85669523D01*
X126425000Y-85669523D02*
X126377380Y-85621904D01*
X126377380Y-85621904D02*
X126282142Y-85574285D01*
X126282142Y-85574285D02*
X126091666Y-85574285D01*
X126091666Y-85574285D02*
X125996428Y-85621904D01*
X125996428Y-85621904D02*
X125948809Y-85669523D01*
X125948809Y-85669523D02*
X125901190Y-85764761D01*
X98497142Y-82502619D02*
X98163809Y-82026428D01*
X97925714Y-82502619D02*
X97925714Y-81502619D01*
X97925714Y-81502619D02*
X98306666Y-81502619D01*
X98306666Y-81502619D02*
X98401904Y-81550238D01*
X98401904Y-81550238D02*
X98449523Y-81597857D01*
X98449523Y-81597857D02*
X98497142Y-81693095D01*
X98497142Y-81693095D02*
X98497142Y-81835952D01*
X98497142Y-81835952D02*
X98449523Y-81931190D01*
X98449523Y-81931190D02*
X98401904Y-81978809D01*
X98401904Y-81978809D02*
X98306666Y-82026428D01*
X98306666Y-82026428D02*
X97925714Y-82026428D01*
X99449523Y-82502619D02*
X98878095Y-82502619D01*
X99163809Y-82502619D02*
X99163809Y-81502619D01*
X99163809Y-81502619D02*
X99068571Y-81645476D01*
X99068571Y-81645476D02*
X98973333Y-81740714D01*
X98973333Y-81740714D02*
X98878095Y-81788333D01*
X100068571Y-81502619D02*
X100163809Y-81502619D01*
X100163809Y-81502619D02*
X100259047Y-81550238D01*
X100259047Y-81550238D02*
X100306666Y-81597857D01*
X100306666Y-81597857D02*
X100354285Y-81693095D01*
X100354285Y-81693095D02*
X100401904Y-81883571D01*
X100401904Y-81883571D02*
X100401904Y-82121666D01*
X100401904Y-82121666D02*
X100354285Y-82312142D01*
X100354285Y-82312142D02*
X100306666Y-82407380D01*
X100306666Y-82407380D02*
X100259047Y-82455000D01*
X100259047Y-82455000D02*
X100163809Y-82502619D01*
X100163809Y-82502619D02*
X100068571Y-82502619D01*
X100068571Y-82502619D02*
X99973333Y-82455000D01*
X99973333Y-82455000D02*
X99925714Y-82407380D01*
X99925714Y-82407380D02*
X99878095Y-82312142D01*
X99878095Y-82312142D02*
X99830476Y-82121666D01*
X99830476Y-82121666D02*
X99830476Y-81883571D01*
X99830476Y-81883571D02*
X99878095Y-81693095D01*
X99878095Y-81693095D02*
X99925714Y-81597857D01*
X99925714Y-81597857D02*
X99973333Y-81550238D01*
X99973333Y-81550238D02*
X100068571Y-81502619D01*
X128932142Y-89162619D02*
X128598809Y-88686428D01*
X128360714Y-89162619D02*
X128360714Y-88162619D01*
X128360714Y-88162619D02*
X128741666Y-88162619D01*
X128741666Y-88162619D02*
X128836904Y-88210238D01*
X128836904Y-88210238D02*
X128884523Y-88257857D01*
X128884523Y-88257857D02*
X128932142Y-88353095D01*
X128932142Y-88353095D02*
X128932142Y-88495952D01*
X128932142Y-88495952D02*
X128884523Y-88591190D01*
X128884523Y-88591190D02*
X128836904Y-88638809D01*
X128836904Y-88638809D02*
X128741666Y-88686428D01*
X128741666Y-88686428D02*
X128360714Y-88686428D01*
X129884523Y-89162619D02*
X129313095Y-89162619D01*
X129598809Y-89162619D02*
X129598809Y-88162619D01*
X129598809Y-88162619D02*
X129503571Y-88305476D01*
X129503571Y-88305476D02*
X129408333Y-88400714D01*
X129408333Y-88400714D02*
X129313095Y-88448333D01*
X130789285Y-88162619D02*
X130313095Y-88162619D01*
X130313095Y-88162619D02*
X130265476Y-88638809D01*
X130265476Y-88638809D02*
X130313095Y-88591190D01*
X130313095Y-88591190D02*
X130408333Y-88543571D01*
X130408333Y-88543571D02*
X130646428Y-88543571D01*
X130646428Y-88543571D02*
X130741666Y-88591190D01*
X130741666Y-88591190D02*
X130789285Y-88638809D01*
X130789285Y-88638809D02*
X130836904Y-88734047D01*
X130836904Y-88734047D02*
X130836904Y-88972142D01*
X130836904Y-88972142D02*
X130789285Y-89067380D01*
X130789285Y-89067380D02*
X130741666Y-89115000D01*
X130741666Y-89115000D02*
X130646428Y-89162619D01*
X130646428Y-89162619D02*
X130408333Y-89162619D01*
X130408333Y-89162619D02*
X130313095Y-89115000D01*
X130313095Y-89115000D02*
X130265476Y-89067380D01*
X156603333Y-82452619D02*
X156270000Y-81976428D01*
X156031905Y-82452619D02*
X156031905Y-81452619D01*
X156031905Y-81452619D02*
X156412857Y-81452619D01*
X156412857Y-81452619D02*
X156508095Y-81500238D01*
X156508095Y-81500238D02*
X156555714Y-81547857D01*
X156555714Y-81547857D02*
X156603333Y-81643095D01*
X156603333Y-81643095D02*
X156603333Y-81785952D01*
X156603333Y-81785952D02*
X156555714Y-81881190D01*
X156555714Y-81881190D02*
X156508095Y-81928809D01*
X156508095Y-81928809D02*
X156412857Y-81976428D01*
X156412857Y-81976428D02*
X156031905Y-81976428D01*
X157555714Y-82452619D02*
X156984286Y-82452619D01*
X157270000Y-82452619D02*
X157270000Y-81452619D01*
X157270000Y-81452619D02*
X157174762Y-81595476D01*
X157174762Y-81595476D02*
X157079524Y-81690714D01*
X157079524Y-81690714D02*
X156984286Y-81738333D01*
X137413333Y-82482619D02*
X137080000Y-82006428D01*
X136841905Y-82482619D02*
X136841905Y-81482619D01*
X136841905Y-81482619D02*
X137222857Y-81482619D01*
X137222857Y-81482619D02*
X137318095Y-81530238D01*
X137318095Y-81530238D02*
X137365714Y-81577857D01*
X137365714Y-81577857D02*
X137413333Y-81673095D01*
X137413333Y-81673095D02*
X137413333Y-81815952D01*
X137413333Y-81815952D02*
X137365714Y-81911190D01*
X137365714Y-81911190D02*
X137318095Y-81958809D01*
X137318095Y-81958809D02*
X137222857Y-82006428D01*
X137222857Y-82006428D02*
X136841905Y-82006428D01*
X138270476Y-81815952D02*
X138270476Y-82482619D01*
X138032381Y-81435000D02*
X137794286Y-82149285D01*
X137794286Y-82149285D02*
X138413333Y-82149285D01*
X144047380Y-84051666D02*
X144095000Y-84099285D01*
X144095000Y-84099285D02*
X144142619Y-84242142D01*
X144142619Y-84242142D02*
X144142619Y-84337380D01*
X144142619Y-84337380D02*
X144095000Y-84480237D01*
X144095000Y-84480237D02*
X143999761Y-84575475D01*
X143999761Y-84575475D02*
X143904523Y-84623094D01*
X143904523Y-84623094D02*
X143714047Y-84670713D01*
X143714047Y-84670713D02*
X143571190Y-84670713D01*
X143571190Y-84670713D02*
X143380714Y-84623094D01*
X143380714Y-84623094D02*
X143285476Y-84575475D01*
X143285476Y-84575475D02*
X143190238Y-84480237D01*
X143190238Y-84480237D02*
X143142619Y-84337380D01*
X143142619Y-84337380D02*
X143142619Y-84242142D01*
X143142619Y-84242142D02*
X143190238Y-84099285D01*
X143190238Y-84099285D02*
X143237857Y-84051666D01*
X143142619Y-83194523D02*
X143142619Y-83384999D01*
X143142619Y-83384999D02*
X143190238Y-83480237D01*
X143190238Y-83480237D02*
X143237857Y-83527856D01*
X143237857Y-83527856D02*
X143380714Y-83623094D01*
X143380714Y-83623094D02*
X143571190Y-83670713D01*
X143571190Y-83670713D02*
X143952142Y-83670713D01*
X143952142Y-83670713D02*
X144047380Y-83623094D01*
X144047380Y-83623094D02*
X144095000Y-83575475D01*
X144095000Y-83575475D02*
X144142619Y-83480237D01*
X144142619Y-83480237D02*
X144142619Y-83289761D01*
X144142619Y-83289761D02*
X144095000Y-83194523D01*
X144095000Y-83194523D02*
X144047380Y-83146904D01*
X144047380Y-83146904D02*
X143952142Y-83099285D01*
X143952142Y-83099285D02*
X143714047Y-83099285D01*
X143714047Y-83099285D02*
X143618809Y-83146904D01*
X143618809Y-83146904D02*
X143571190Y-83194523D01*
X143571190Y-83194523D02*
X143523571Y-83289761D01*
X143523571Y-83289761D02*
X143523571Y-83480237D01*
X143523571Y-83480237D02*
X143571190Y-83575475D01*
X143571190Y-83575475D02*
X143618809Y-83623094D01*
X143618809Y-83623094D02*
X143714047Y-83670713D01*
X118403333Y-82362619D02*
X118070000Y-81886428D01*
X117831905Y-82362619D02*
X117831905Y-81362619D01*
X117831905Y-81362619D02*
X118212857Y-81362619D01*
X118212857Y-81362619D02*
X118308095Y-81410238D01*
X118308095Y-81410238D02*
X118355714Y-81457857D01*
X118355714Y-81457857D02*
X118403333Y-81553095D01*
X118403333Y-81553095D02*
X118403333Y-81695952D01*
X118403333Y-81695952D02*
X118355714Y-81791190D01*
X118355714Y-81791190D02*
X118308095Y-81838809D01*
X118308095Y-81838809D02*
X118212857Y-81886428D01*
X118212857Y-81886428D02*
X117831905Y-81886428D01*
X118736667Y-81362619D02*
X119403333Y-81362619D01*
X119403333Y-81362619D02*
X118974762Y-82362619D01*
X117847380Y-86756666D02*
X117895000Y-86804285D01*
X117895000Y-86804285D02*
X117942619Y-86947142D01*
X117942619Y-86947142D02*
X117942619Y-87042380D01*
X117942619Y-87042380D02*
X117895000Y-87185237D01*
X117895000Y-87185237D02*
X117799761Y-87280475D01*
X117799761Y-87280475D02*
X117704523Y-87328094D01*
X117704523Y-87328094D02*
X117514047Y-87375713D01*
X117514047Y-87375713D02*
X117371190Y-87375713D01*
X117371190Y-87375713D02*
X117180714Y-87328094D01*
X117180714Y-87328094D02*
X117085476Y-87280475D01*
X117085476Y-87280475D02*
X116990238Y-87185237D01*
X116990238Y-87185237D02*
X116942619Y-87042380D01*
X116942619Y-87042380D02*
X116942619Y-86947142D01*
X116942619Y-86947142D02*
X116990238Y-86804285D01*
X116990238Y-86804285D02*
X117037857Y-86756666D01*
X117942619Y-85804285D02*
X117942619Y-86375713D01*
X117942619Y-86089999D02*
X116942619Y-86089999D01*
X116942619Y-86089999D02*
X117085476Y-86185237D01*
X117085476Y-86185237D02*
X117180714Y-86280475D01*
X117180714Y-86280475D02*
X117228333Y-86375713D01*
X151913333Y-85482619D02*
X151580000Y-85006428D01*
X151341905Y-85482619D02*
X151341905Y-84482619D01*
X151341905Y-84482619D02*
X151722857Y-84482619D01*
X151722857Y-84482619D02*
X151818095Y-84530238D01*
X151818095Y-84530238D02*
X151865714Y-84577857D01*
X151865714Y-84577857D02*
X151913333Y-84673095D01*
X151913333Y-84673095D02*
X151913333Y-84815952D01*
X151913333Y-84815952D02*
X151865714Y-84911190D01*
X151865714Y-84911190D02*
X151818095Y-84958809D01*
X151818095Y-84958809D02*
X151722857Y-85006428D01*
X151722857Y-85006428D02*
X151341905Y-85006428D01*
X152294286Y-84577857D02*
X152341905Y-84530238D01*
X152341905Y-84530238D02*
X152437143Y-84482619D01*
X152437143Y-84482619D02*
X152675238Y-84482619D01*
X152675238Y-84482619D02*
X152770476Y-84530238D01*
X152770476Y-84530238D02*
X152818095Y-84577857D01*
X152818095Y-84577857D02*
X152865714Y-84673095D01*
X152865714Y-84673095D02*
X152865714Y-84768333D01*
X152865714Y-84768333D02*
X152818095Y-84911190D01*
X152818095Y-84911190D02*
X152246667Y-85482619D01*
X152246667Y-85482619D02*
X152865714Y-85482619D01*
X130272619Y-83376666D02*
X129796428Y-83709999D01*
X130272619Y-83948094D02*
X129272619Y-83948094D01*
X129272619Y-83948094D02*
X129272619Y-83567142D01*
X129272619Y-83567142D02*
X129320238Y-83471904D01*
X129320238Y-83471904D02*
X129367857Y-83424285D01*
X129367857Y-83424285D02*
X129463095Y-83376666D01*
X129463095Y-83376666D02*
X129605952Y-83376666D01*
X129605952Y-83376666D02*
X129701190Y-83424285D01*
X129701190Y-83424285D02*
X129748809Y-83471904D01*
X129748809Y-83471904D02*
X129796428Y-83567142D01*
X129796428Y-83567142D02*
X129796428Y-83948094D01*
X129701190Y-82805237D02*
X129653571Y-82900475D01*
X129653571Y-82900475D02*
X129605952Y-82948094D01*
X129605952Y-82948094D02*
X129510714Y-82995713D01*
X129510714Y-82995713D02*
X129463095Y-82995713D01*
X129463095Y-82995713D02*
X129367857Y-82948094D01*
X129367857Y-82948094D02*
X129320238Y-82900475D01*
X129320238Y-82900475D02*
X129272619Y-82805237D01*
X129272619Y-82805237D02*
X129272619Y-82614761D01*
X129272619Y-82614761D02*
X129320238Y-82519523D01*
X129320238Y-82519523D02*
X129367857Y-82471904D01*
X129367857Y-82471904D02*
X129463095Y-82424285D01*
X129463095Y-82424285D02*
X129510714Y-82424285D01*
X129510714Y-82424285D02*
X129605952Y-82471904D01*
X129605952Y-82471904D02*
X129653571Y-82519523D01*
X129653571Y-82519523D02*
X129701190Y-82614761D01*
X129701190Y-82614761D02*
X129701190Y-82805237D01*
X129701190Y-82805237D02*
X129748809Y-82900475D01*
X129748809Y-82900475D02*
X129796428Y-82948094D01*
X129796428Y-82948094D02*
X129891666Y-82995713D01*
X129891666Y-82995713D02*
X130082142Y-82995713D01*
X130082142Y-82995713D02*
X130177380Y-82948094D01*
X130177380Y-82948094D02*
X130225000Y-82900475D01*
X130225000Y-82900475D02*
X130272619Y-82805237D01*
X130272619Y-82805237D02*
X130272619Y-82614761D01*
X130272619Y-82614761D02*
X130225000Y-82519523D01*
X130225000Y-82519523D02*
X130177380Y-82471904D01*
X130177380Y-82471904D02*
X130082142Y-82424285D01*
X130082142Y-82424285D02*
X129891666Y-82424285D01*
X129891666Y-82424285D02*
X129796428Y-82471904D01*
X129796428Y-82471904D02*
X129748809Y-82519523D01*
X129748809Y-82519523D02*
X129701190Y-82614761D01*
X96077142Y-86642619D02*
X95743809Y-86166428D01*
X95505714Y-86642619D02*
X95505714Y-85642619D01*
X95505714Y-85642619D02*
X95886666Y-85642619D01*
X95886666Y-85642619D02*
X95981904Y-85690238D01*
X95981904Y-85690238D02*
X96029523Y-85737857D01*
X96029523Y-85737857D02*
X96077142Y-85833095D01*
X96077142Y-85833095D02*
X96077142Y-85975952D01*
X96077142Y-85975952D02*
X96029523Y-86071190D01*
X96029523Y-86071190D02*
X95981904Y-86118809D01*
X95981904Y-86118809D02*
X95886666Y-86166428D01*
X95886666Y-86166428D02*
X95505714Y-86166428D01*
X97029523Y-86642619D02*
X96458095Y-86642619D01*
X96743809Y-86642619D02*
X96743809Y-85642619D01*
X96743809Y-85642619D02*
X96648571Y-85785476D01*
X96648571Y-85785476D02*
X96553333Y-85880714D01*
X96553333Y-85880714D02*
X96458095Y-85928333D01*
X97410476Y-85737857D02*
X97458095Y-85690238D01*
X97458095Y-85690238D02*
X97553333Y-85642619D01*
X97553333Y-85642619D02*
X97791428Y-85642619D01*
X97791428Y-85642619D02*
X97886666Y-85690238D01*
X97886666Y-85690238D02*
X97934285Y-85737857D01*
X97934285Y-85737857D02*
X97981904Y-85833095D01*
X97981904Y-85833095D02*
X97981904Y-85928333D01*
X97981904Y-85928333D02*
X97934285Y-86071190D01*
X97934285Y-86071190D02*
X97362857Y-86642619D01*
X97362857Y-86642619D02*
X97981904Y-86642619D01*
X139037380Y-84616666D02*
X139085000Y-84664285D01*
X139085000Y-84664285D02*
X139132619Y-84807142D01*
X139132619Y-84807142D02*
X139132619Y-84902380D01*
X139132619Y-84902380D02*
X139085000Y-85045237D01*
X139085000Y-85045237D02*
X138989761Y-85140475D01*
X138989761Y-85140475D02*
X138894523Y-85188094D01*
X138894523Y-85188094D02*
X138704047Y-85235713D01*
X138704047Y-85235713D02*
X138561190Y-85235713D01*
X138561190Y-85235713D02*
X138370714Y-85188094D01*
X138370714Y-85188094D02*
X138275476Y-85140475D01*
X138275476Y-85140475D02*
X138180238Y-85045237D01*
X138180238Y-85045237D02*
X138132619Y-84902380D01*
X138132619Y-84902380D02*
X138132619Y-84807142D01*
X138132619Y-84807142D02*
X138180238Y-84664285D01*
X138180238Y-84664285D02*
X138227857Y-84616666D01*
X138132619Y-83711904D02*
X138132619Y-84188094D01*
X138132619Y-84188094D02*
X138608809Y-84235713D01*
X138608809Y-84235713D02*
X138561190Y-84188094D01*
X138561190Y-84188094D02*
X138513571Y-84092856D01*
X138513571Y-84092856D02*
X138513571Y-83854761D01*
X138513571Y-83854761D02*
X138561190Y-83759523D01*
X138561190Y-83759523D02*
X138608809Y-83711904D01*
X138608809Y-83711904D02*
X138704047Y-83664285D01*
X138704047Y-83664285D02*
X138942142Y-83664285D01*
X138942142Y-83664285D02*
X139037380Y-83711904D01*
X139037380Y-83711904D02*
X139085000Y-83759523D01*
X139085000Y-83759523D02*
X139132619Y-83854761D01*
X139132619Y-83854761D02*
X139132619Y-84092856D01*
X139132619Y-84092856D02*
X139085000Y-84188094D01*
X139085000Y-84188094D02*
X139037380Y-84235713D01*
X100917380Y-84306666D02*
X100965000Y-84354285D01*
X100965000Y-84354285D02*
X101012619Y-84497142D01*
X101012619Y-84497142D02*
X101012619Y-84592380D01*
X101012619Y-84592380D02*
X100965000Y-84735237D01*
X100965000Y-84735237D02*
X100869761Y-84830475D01*
X100869761Y-84830475D02*
X100774523Y-84878094D01*
X100774523Y-84878094D02*
X100584047Y-84925713D01*
X100584047Y-84925713D02*
X100441190Y-84925713D01*
X100441190Y-84925713D02*
X100250714Y-84878094D01*
X100250714Y-84878094D02*
X100155476Y-84830475D01*
X100155476Y-84830475D02*
X100060238Y-84735237D01*
X100060238Y-84735237D02*
X100012619Y-84592380D01*
X100012619Y-84592380D02*
X100012619Y-84497142D01*
X100012619Y-84497142D02*
X100060238Y-84354285D01*
X100060238Y-84354285D02*
X100107857Y-84306666D01*
X101012619Y-83830475D02*
X101012619Y-83639999D01*
X101012619Y-83639999D02*
X100965000Y-83544761D01*
X100965000Y-83544761D02*
X100917380Y-83497142D01*
X100917380Y-83497142D02*
X100774523Y-83401904D01*
X100774523Y-83401904D02*
X100584047Y-83354285D01*
X100584047Y-83354285D02*
X100203095Y-83354285D01*
X100203095Y-83354285D02*
X100107857Y-83401904D01*
X100107857Y-83401904D02*
X100060238Y-83449523D01*
X100060238Y-83449523D02*
X100012619Y-83544761D01*
X100012619Y-83544761D02*
X100012619Y-83735237D01*
X100012619Y-83735237D02*
X100060238Y-83830475D01*
X100060238Y-83830475D02*
X100107857Y-83878094D01*
X100107857Y-83878094D02*
X100203095Y-83925713D01*
X100203095Y-83925713D02*
X100441190Y-83925713D01*
X100441190Y-83925713D02*
X100536428Y-83878094D01*
X100536428Y-83878094D02*
X100584047Y-83830475D01*
X100584047Y-83830475D02*
X100631666Y-83735237D01*
X100631666Y-83735237D02*
X100631666Y-83544761D01*
X100631666Y-83544761D02*
X100584047Y-83449523D01*
X100584047Y-83449523D02*
X100536428Y-83401904D01*
X100536428Y-83401904D02*
X100441190Y-83354285D01*
X142505238Y-87186142D02*
X142600476Y-87233761D01*
X142600476Y-87233761D02*
X142695714Y-87329000D01*
X142695714Y-87329000D02*
X142838571Y-87471857D01*
X142838571Y-87471857D02*
X142933809Y-87519476D01*
X142933809Y-87519476D02*
X143029047Y-87519476D01*
X142981428Y-87281380D02*
X143076666Y-87329000D01*
X143076666Y-87329000D02*
X143171904Y-87424238D01*
X143171904Y-87424238D02*
X143219523Y-87614714D01*
X143219523Y-87614714D02*
X143219523Y-87948047D01*
X143219523Y-87948047D02*
X143171904Y-88138523D01*
X143171904Y-88138523D02*
X143076666Y-88233761D01*
X143076666Y-88233761D02*
X142981428Y-88281380D01*
X142981428Y-88281380D02*
X142790952Y-88281380D01*
X142790952Y-88281380D02*
X142695714Y-88233761D01*
X142695714Y-88233761D02*
X142600476Y-88138523D01*
X142600476Y-88138523D02*
X142552857Y-87948047D01*
X142552857Y-87948047D02*
X142552857Y-87614714D01*
X142552857Y-87614714D02*
X142600476Y-87424238D01*
X142600476Y-87424238D02*
X142695714Y-87329000D01*
X142695714Y-87329000D02*
X142790952Y-87281380D01*
X142790952Y-87281380D02*
X142981428Y-87281380D01*
X141600476Y-87281380D02*
X142171904Y-87281380D01*
X141886190Y-87281380D02*
X141886190Y-88281380D01*
X141886190Y-88281380D02*
X141981428Y-88138523D01*
X141981428Y-88138523D02*
X142076666Y-88043285D01*
X142076666Y-88043285D02*
X142171904Y-87995666D01*
X120057380Y-84316666D02*
X120105000Y-84364285D01*
X120105000Y-84364285D02*
X120152619Y-84507142D01*
X120152619Y-84507142D02*
X120152619Y-84602380D01*
X120152619Y-84602380D02*
X120105000Y-84745237D01*
X120105000Y-84745237D02*
X120009761Y-84840475D01*
X120009761Y-84840475D02*
X119914523Y-84888094D01*
X119914523Y-84888094D02*
X119724047Y-84935713D01*
X119724047Y-84935713D02*
X119581190Y-84935713D01*
X119581190Y-84935713D02*
X119390714Y-84888094D01*
X119390714Y-84888094D02*
X119295476Y-84840475D01*
X119295476Y-84840475D02*
X119200238Y-84745237D01*
X119200238Y-84745237D02*
X119152619Y-84602380D01*
X119152619Y-84602380D02*
X119152619Y-84507142D01*
X119152619Y-84507142D02*
X119200238Y-84364285D01*
X119200238Y-84364285D02*
X119247857Y-84316666D01*
X119152619Y-83983332D02*
X119152619Y-83316666D01*
X119152619Y-83316666D02*
X120152619Y-83745237D01*
X105957380Y-84517857D02*
X106005000Y-84565476D01*
X106005000Y-84565476D02*
X106052619Y-84708333D01*
X106052619Y-84708333D02*
X106052619Y-84803571D01*
X106052619Y-84803571D02*
X106005000Y-84946428D01*
X106005000Y-84946428D02*
X105909761Y-85041666D01*
X105909761Y-85041666D02*
X105814523Y-85089285D01*
X105814523Y-85089285D02*
X105624047Y-85136904D01*
X105624047Y-85136904D02*
X105481190Y-85136904D01*
X105481190Y-85136904D02*
X105290714Y-85089285D01*
X105290714Y-85089285D02*
X105195476Y-85041666D01*
X105195476Y-85041666D02*
X105100238Y-84946428D01*
X105100238Y-84946428D02*
X105052619Y-84803571D01*
X105052619Y-84803571D02*
X105052619Y-84708333D01*
X105052619Y-84708333D02*
X105100238Y-84565476D01*
X105100238Y-84565476D02*
X105147857Y-84517857D01*
X106052619Y-83565476D02*
X106052619Y-84136904D01*
X106052619Y-83851190D02*
X105052619Y-83851190D01*
X105052619Y-83851190D02*
X105195476Y-83946428D01*
X105195476Y-83946428D02*
X105290714Y-84041666D01*
X105290714Y-84041666D02*
X105338333Y-84136904D01*
X105052619Y-82946428D02*
X105052619Y-82851190D01*
X105052619Y-82851190D02*
X105100238Y-82755952D01*
X105100238Y-82755952D02*
X105147857Y-82708333D01*
X105147857Y-82708333D02*
X105243095Y-82660714D01*
X105243095Y-82660714D02*
X105433571Y-82613095D01*
X105433571Y-82613095D02*
X105671666Y-82613095D01*
X105671666Y-82613095D02*
X105862142Y-82660714D01*
X105862142Y-82660714D02*
X105957380Y-82708333D01*
X105957380Y-82708333D02*
X106005000Y-82755952D01*
X106005000Y-82755952D02*
X106052619Y-82851190D01*
X106052619Y-82851190D02*
X106052619Y-82946428D01*
X106052619Y-82946428D02*
X106005000Y-83041666D01*
X106005000Y-83041666D02*
X105957380Y-83089285D01*
X105957380Y-83089285D02*
X105862142Y-83136904D01*
X105862142Y-83136904D02*
X105671666Y-83184523D01*
X105671666Y-83184523D02*
X105433571Y-83184523D01*
X105433571Y-83184523D02*
X105243095Y-83136904D01*
X105243095Y-83136904D02*
X105147857Y-83089285D01*
X105147857Y-83089285D02*
X105100238Y-83041666D01*
X105100238Y-83041666D02*
X105052619Y-82946428D01*
D11*
D10*
X119363333Y-87162619D02*
X119030000Y-86686428D01*
X118791905Y-87162619D02*
X118791905Y-86162619D01*
X118791905Y-86162619D02*
X119172857Y-86162619D01*
X119172857Y-86162619D02*
X119268095Y-86210238D01*
X119268095Y-86210238D02*
X119315714Y-86257857D01*
X119315714Y-86257857D02*
X119363333Y-86353095D01*
X119363333Y-86353095D02*
X119363333Y-86495952D01*
X119363333Y-86495952D02*
X119315714Y-86591190D01*
X119315714Y-86591190D02*
X119268095Y-86638809D01*
X119268095Y-86638809D02*
X119172857Y-86686428D01*
X119172857Y-86686428D02*
X118791905Y-86686428D01*
X119839524Y-87162619D02*
X120030000Y-87162619D01*
X120030000Y-87162619D02*
X120125238Y-87115000D01*
X120125238Y-87115000D02*
X120172857Y-87067380D01*
X120172857Y-87067380D02*
X120268095Y-86924523D01*
X120268095Y-86924523D02*
X120315714Y-86734047D01*
X120315714Y-86734047D02*
X120315714Y-86353095D01*
X120315714Y-86353095D02*
X120268095Y-86257857D01*
X120268095Y-86257857D02*
X120220476Y-86210238D01*
X120220476Y-86210238D02*
X120125238Y-86162619D01*
X120125238Y-86162619D02*
X119934762Y-86162619D01*
X119934762Y-86162619D02*
X119839524Y-86210238D01*
X119839524Y-86210238D02*
X119791905Y-86257857D01*
X119791905Y-86257857D02*
X119744286Y-86353095D01*
X119744286Y-86353095D02*
X119744286Y-86591190D01*
X119744286Y-86591190D02*
X119791905Y-86686428D01*
X119791905Y-86686428D02*
X119839524Y-86734047D01*
X119839524Y-86734047D02*
X119934762Y-86781666D01*
X119934762Y-86781666D02*
X120125238Y-86781666D01*
X120125238Y-86781666D02*
X120220476Y-86734047D01*
X120220476Y-86734047D02*
X120268095Y-86686428D01*
X120268095Y-86686428D02*
X120315714Y-86591190D01*
D11*
D10*
X158117380Y-84481666D02*
X158165000Y-84529285D01*
X158165000Y-84529285D02*
X158212619Y-84672142D01*
X158212619Y-84672142D02*
X158212619Y-84767380D01*
X158212619Y-84767380D02*
X158165000Y-84910237D01*
X158165000Y-84910237D02*
X158069761Y-85005475D01*
X158069761Y-85005475D02*
X157974523Y-85053094D01*
X157974523Y-85053094D02*
X157784047Y-85100713D01*
X157784047Y-85100713D02*
X157641190Y-85100713D01*
X157641190Y-85100713D02*
X157450714Y-85053094D01*
X157450714Y-85053094D02*
X157355476Y-85005475D01*
X157355476Y-85005475D02*
X157260238Y-84910237D01*
X157260238Y-84910237D02*
X157212619Y-84767380D01*
X157212619Y-84767380D02*
X157212619Y-84672142D01*
X157212619Y-84672142D02*
X157260238Y-84529285D01*
X157260238Y-84529285D02*
X157307857Y-84481666D01*
X157545952Y-83624523D02*
X158212619Y-83624523D01*
X157165000Y-83862618D02*
X157879285Y-84100713D01*
X157879285Y-84100713D02*
X157879285Y-83481666D01*
X163177380Y-84156666D02*
X163225000Y-84204285D01*
X163225000Y-84204285D02*
X163272619Y-84347142D01*
X163272619Y-84347142D02*
X163272619Y-84442380D01*
X163272619Y-84442380D02*
X163225000Y-84585237D01*
X163225000Y-84585237D02*
X163129761Y-84680475D01*
X163129761Y-84680475D02*
X163034523Y-84728094D01*
X163034523Y-84728094D02*
X162844047Y-84775713D01*
X162844047Y-84775713D02*
X162701190Y-84775713D01*
X162701190Y-84775713D02*
X162510714Y-84728094D01*
X162510714Y-84728094D02*
X162415476Y-84680475D01*
X162415476Y-84680475D02*
X162320238Y-84585237D01*
X162320238Y-84585237D02*
X162272619Y-84442380D01*
X162272619Y-84442380D02*
X162272619Y-84347142D01*
X162272619Y-84347142D02*
X162320238Y-84204285D01*
X162320238Y-84204285D02*
X162367857Y-84156666D01*
X162272619Y-83823332D02*
X162272619Y-83204285D01*
X162272619Y-83204285D02*
X162653571Y-83537618D01*
X162653571Y-83537618D02*
X162653571Y-83394761D01*
X162653571Y-83394761D02*
X162701190Y-83299523D01*
X162701190Y-83299523D02*
X162748809Y-83251904D01*
X162748809Y-83251904D02*
X162844047Y-83204285D01*
X162844047Y-83204285D02*
X163082142Y-83204285D01*
X163082142Y-83204285D02*
X163177380Y-83251904D01*
X163177380Y-83251904D02*
X163225000Y-83299523D01*
X163225000Y-83299523D02*
X163272619Y-83394761D01*
X163272619Y-83394761D02*
X163272619Y-83680475D01*
X163272619Y-83680475D02*
X163225000Y-83775713D01*
X163225000Y-83775713D02*
X163177380Y-83823332D01*
X149332619Y-83456666D02*
X148856428Y-83789999D01*
X149332619Y-84028094D02*
X148332619Y-84028094D01*
X148332619Y-84028094D02*
X148332619Y-83647142D01*
X148332619Y-83647142D02*
X148380238Y-83551904D01*
X148380238Y-83551904D02*
X148427857Y-83504285D01*
X148427857Y-83504285D02*
X148523095Y-83456666D01*
X148523095Y-83456666D02*
X148665952Y-83456666D01*
X148665952Y-83456666D02*
X148761190Y-83504285D01*
X148761190Y-83504285D02*
X148808809Y-83551904D01*
X148808809Y-83551904D02*
X148856428Y-83647142D01*
X148856428Y-83647142D02*
X148856428Y-84028094D01*
X148332619Y-82551904D02*
X148332619Y-83028094D01*
X148332619Y-83028094D02*
X148808809Y-83075713D01*
X148808809Y-83075713D02*
X148761190Y-83028094D01*
X148761190Y-83028094D02*
X148713571Y-82932856D01*
X148713571Y-82932856D02*
X148713571Y-82694761D01*
X148713571Y-82694761D02*
X148761190Y-82599523D01*
X148761190Y-82599523D02*
X148808809Y-82551904D01*
X148808809Y-82551904D02*
X148904047Y-82504285D01*
X148904047Y-82504285D02*
X149142142Y-82504285D01*
X149142142Y-82504285D02*
X149237380Y-82551904D01*
X149237380Y-82551904D02*
X149285000Y-82599523D01*
X149285000Y-82599523D02*
X149332619Y-82694761D01*
X149332619Y-82694761D02*
X149332619Y-82932856D01*
X149332619Y-82932856D02*
X149285000Y-83028094D01*
X149285000Y-83028094D02*
X149237380Y-83075713D01*
X160668333Y-86752619D02*
X160335000Y-86276428D01*
X160096905Y-86752619D02*
X160096905Y-85752619D01*
X160096905Y-85752619D02*
X160477857Y-85752619D01*
X160477857Y-85752619D02*
X160573095Y-85800238D01*
X160573095Y-85800238D02*
X160620714Y-85847857D01*
X160620714Y-85847857D02*
X160668333Y-85943095D01*
X160668333Y-85943095D02*
X160668333Y-86085952D01*
X160668333Y-86085952D02*
X160620714Y-86181190D01*
X160620714Y-86181190D02*
X160573095Y-86228809D01*
X160573095Y-86228809D02*
X160477857Y-86276428D01*
X160477857Y-86276428D02*
X160096905Y-86276428D01*
X161001667Y-85752619D02*
X161620714Y-85752619D01*
X161620714Y-85752619D02*
X161287381Y-86133571D01*
X161287381Y-86133571D02*
X161430238Y-86133571D01*
X161430238Y-86133571D02*
X161525476Y-86181190D01*
X161525476Y-86181190D02*
X161573095Y-86228809D01*
X161573095Y-86228809D02*
X161620714Y-86324047D01*
X161620714Y-86324047D02*
X161620714Y-86562142D01*
X161620714Y-86562142D02*
X161573095Y-86657380D01*
X161573095Y-86657380D02*
X161525476Y-86705000D01*
X161525476Y-86705000D02*
X161430238Y-86752619D01*
X161430238Y-86752619D02*
X161144524Y-86752619D01*
X161144524Y-86752619D02*
X161049286Y-86705000D01*
X161049286Y-86705000D02*
X161001667Y-86657380D01*
X112572619Y-86342857D02*
X112096428Y-86676190D01*
X112572619Y-86914285D02*
X111572619Y-86914285D01*
X111572619Y-86914285D02*
X111572619Y-86533333D01*
X111572619Y-86533333D02*
X111620238Y-86438095D01*
X111620238Y-86438095D02*
X111667857Y-86390476D01*
X111667857Y-86390476D02*
X111763095Y-86342857D01*
X111763095Y-86342857D02*
X111905952Y-86342857D01*
X111905952Y-86342857D02*
X112001190Y-86390476D01*
X112001190Y-86390476D02*
X112048809Y-86438095D01*
X112048809Y-86438095D02*
X112096428Y-86533333D01*
X112096428Y-86533333D02*
X112096428Y-86914285D01*
X112572619Y-85390476D02*
X112572619Y-85961904D01*
X112572619Y-85676190D02*
X111572619Y-85676190D01*
X111572619Y-85676190D02*
X111715476Y-85771428D01*
X111715476Y-85771428D02*
X111810714Y-85866666D01*
X111810714Y-85866666D02*
X111858333Y-85961904D01*
X112572619Y-84438095D02*
X112572619Y-85009523D01*
X112572619Y-84723809D02*
X111572619Y-84723809D01*
X111572619Y-84723809D02*
X111715476Y-84819047D01*
X111715476Y-84819047D02*
X111810714Y-84914285D01*
X111810714Y-84914285D02*
X111858333Y-85009523D01*
X116007380Y-86886666D02*
X116055000Y-86934285D01*
X116055000Y-86934285D02*
X116102619Y-87077142D01*
X116102619Y-87077142D02*
X116102619Y-87172380D01*
X116102619Y-87172380D02*
X116055000Y-87315237D01*
X116055000Y-87315237D02*
X115959761Y-87410475D01*
X115959761Y-87410475D02*
X115864523Y-87458094D01*
X115864523Y-87458094D02*
X115674047Y-87505713D01*
X115674047Y-87505713D02*
X115531190Y-87505713D01*
X115531190Y-87505713D02*
X115340714Y-87458094D01*
X115340714Y-87458094D02*
X115245476Y-87410475D01*
X115245476Y-87410475D02*
X115150238Y-87315237D01*
X115150238Y-87315237D02*
X115102619Y-87172380D01*
X115102619Y-87172380D02*
X115102619Y-87077142D01*
X115102619Y-87077142D02*
X115150238Y-86934285D01*
X115150238Y-86934285D02*
X115197857Y-86886666D01*
X115197857Y-86505713D02*
X115150238Y-86458094D01*
X115150238Y-86458094D02*
X115102619Y-86362856D01*
X115102619Y-86362856D02*
X115102619Y-86124761D01*
X115102619Y-86124761D02*
X115150238Y-86029523D01*
X115150238Y-86029523D02*
X115197857Y-85981904D01*
X115197857Y-85981904D02*
X115293095Y-85934285D01*
X115293095Y-85934285D02*
X115388333Y-85934285D01*
X115388333Y-85934285D02*
X115531190Y-85981904D01*
X115531190Y-85981904D02*
X116102619Y-86553332D01*
X116102619Y-86553332D02*
X116102619Y-85934285D01*
D12*
X139617258Y-87272500D02*
X139142742Y-87272500D01*
X139617258Y-86227500D02*
X139142742Y-86227500D01*
X125400000Y-84015580D02*
X125400000Y-83734420D01*
X126420000Y-84015580D02*
X126420000Y-83734420D01*
X102252258Y-82562500D02*
X101777742Y-82562500D01*
X102252258Y-81517500D02*
X101777742Y-81517500D01*
X129367742Y-89517500D02*
X129842258Y-89517500D01*
X129367742Y-90562500D02*
X129842258Y-90562500D01*
X159442258Y-82562500D02*
X158967742Y-82562500D01*
X159442258Y-81517500D02*
X158967742Y-81517500D01*
X140382258Y-82542500D02*
X139907742Y-82542500D01*
X140382258Y-81497500D02*
X139907742Y-81497500D01*
X144600000Y-84025580D02*
X144600000Y-83744420D01*
X145620000Y-84025580D02*
X145620000Y-83744420D01*
X121272258Y-82562500D02*
X120797742Y-82562500D01*
X121272258Y-81517500D02*
X120797742Y-81517500D01*
X118130000Y-84204420D02*
X118130000Y-84485580D01*
X117110000Y-84204420D02*
X117110000Y-84485580D01*
X154877258Y-85502500D02*
X154402742Y-85502500D01*
X154877258Y-84457500D02*
X154402742Y-84457500D01*
X130242500Y-85497742D02*
X130242500Y-85972258D01*
X129197500Y-85497742D02*
X129197500Y-85972258D01*
X99457742Y-85647500D02*
X99932258Y-85647500D01*
X99457742Y-86692500D02*
X99932258Y-86692500D01*
X139620000Y-84485580D02*
X139620000Y-84204420D01*
X140640000Y-84485580D02*
X140640000Y-84204420D01*
X101500000Y-84475580D02*
X101500000Y-84194420D01*
X102520000Y-84475580D02*
X102520000Y-84194420D01*
X145277500Y-86320000D02*
X143602500Y-86320000D01*
X145277500Y-86320000D02*
X145927500Y-86320000D01*
X145277500Y-89440000D02*
X144627500Y-89440000D01*
X145277500Y-89440000D02*
X145927500Y-89440000D01*
X120560000Y-84475580D02*
X120560000Y-84194420D01*
X121580000Y-84475580D02*
X121580000Y-84194420D01*
X106510000Y-84015580D02*
X106510000Y-83734420D01*
X107530000Y-84015580D02*
X107530000Y-83734420D01*
X121667742Y-86097500D02*
X122142258Y-86097500D01*
X121667742Y-87142500D02*
X122142258Y-87142500D01*
X158670000Y-84455580D02*
X158670000Y-84174420D01*
X159690000Y-84455580D02*
X159690000Y-84174420D01*
X163680000Y-84025580D02*
X163680000Y-83744420D01*
X164700000Y-84025580D02*
X164700000Y-83744420D01*
X149412500Y-85487742D02*
X149412500Y-85962258D01*
X148367500Y-85487742D02*
X148367500Y-85962258D01*
X163597258Y-86682500D02*
X163122742Y-86682500D01*
X163597258Y-85637500D02*
X163122742Y-85637500D01*
X111182500Y-85507742D02*
X111182500Y-85982258D01*
X110137500Y-85507742D02*
X110137500Y-85982258D01*
X116125000Y-84204420D02*
X116125000Y-84485580D01*
X115105000Y-84204420D02*
X115105000Y-84485580D01*
%LPC*%
D13*
X140205000Y-86750000D03*
X138555000Y-86750000D03*
D14*
X125910000Y-84650000D03*
X125910000Y-83100000D03*
D13*
X102840000Y-82040000D03*
X101190000Y-82040000D03*
D15*
X128780000Y-90040000D03*
X130430000Y-90040000D03*
D13*
X160030000Y-82040000D03*
X158380000Y-82040000D03*
X140970000Y-82020000D03*
X139320000Y-82020000D03*
D14*
X145110000Y-84660000D03*
X145110000Y-83110000D03*
D13*
X121860000Y-82040000D03*
X120210000Y-82040000D03*
D16*
X117620000Y-83570000D03*
X117620000Y-85120000D03*
D13*
X155465000Y-84980000D03*
X153815000Y-84980000D03*
D17*
X129720000Y-84910000D03*
X129720000Y-86560000D03*
D15*
X98870000Y-86170000D03*
X100520000Y-86170000D03*
D14*
X140130000Y-85120000D03*
X140130000Y-83570000D03*
X102010000Y-85110000D03*
X102010000Y-83560000D03*
D18*
X146215000Y-87880000D03*
X144340000Y-86930000D03*
X144340000Y-88830000D03*
D14*
X121070000Y-85110000D03*
X121070000Y-83560000D03*
X107020000Y-84650000D03*
X107020000Y-83100000D03*
D19*
X155982000Y-89740000D03*
D15*
X121080000Y-86620000D03*
X122730000Y-86620000D03*
D19*
X105690000Y-89740000D03*
D14*
X159180000Y-85090000D03*
X159180000Y-83540000D03*
X164190000Y-84660000D03*
X164190000Y-83110000D03*
D17*
X148890000Y-84900000D03*
X148890000Y-86550000D03*
D13*
X164185000Y-86160000D03*
X162535000Y-86160000D03*
D17*
X110660000Y-84920000D03*
X110660000Y-86570000D03*
D16*
X115615000Y-83570000D03*
X115615000Y-85120000D03*
M02*
