G04 #@! TF.GenerationSoftware,KiCad,Pcbnew,7.0.1*
G04 #@! TF.CreationDate,2024-03-29T16:00:37+01:00*
G04 #@! TF.ProjectId,Qtr-8-SN,5174722d-382d-4534-9e2e-6b696361645f,rev?*
G04 #@! TF.SameCoordinates,Original*
G04 #@! TF.FileFunction,Copper,L2,Bot*
G04 #@! TF.FilePolarity,Positive*
%FSLAX46Y46*%
G04 Gerber Fmt 4.6, Leading zero omitted, Abs format (unit mm)*
G04 Created by KiCad (PCBNEW 7.0.1) date 2024-03-29 16:00:37*
%MOMM*%
%LPD*%
G01*
G04 APERTURE LIST*
G04 Aperture macros list*
%AMRoundRect*
0 Rectangle with rounded corners*
0 $1 Rounding radius*
0 $2 $3 $4 $5 $6 $7 $8 $9 X,Y pos of 4 corners*
0 Add a 4 corners polygon primitive as box body*
4,1,4,$2,$3,$4,$5,$6,$7,$8,$9,$2,$3,0*
0 Add four circle primitives for the rounded corners*
1,1,$1+$1,$2,$3*
1,1,$1+$1,$4,$5*
1,1,$1+$1,$6,$7*
1,1,$1+$1,$8,$9*
0 Add four rect primitives between the rounded corners*
20,1,$1+$1,$2,$3,$4,$5,0*
20,1,$1+$1,$4,$5,$6,$7,0*
20,1,$1+$1,$6,$7,$8,$9,0*
20,1,$1+$1,$8,$9,$2,$3,0*%
G04 Aperture macros list end*
G04 #@! TA.AperFunction,SMDPad,CuDef*
%ADD10R,1.000000X1.000000*%
G04 #@! TD*
G04 #@! TA.AperFunction,SMDPad,CuDef*
%ADD11RoundRect,0.200000X-0.275000X0.200000X-0.275000X-0.200000X0.275000X-0.200000X0.275000X0.200000X0*%
G04 #@! TD*
G04 #@! TA.AperFunction,SMDPad,CuDef*
%ADD12R,0.400000X1.000000*%
G04 #@! TD*
G04 #@! TA.AperFunction,SMDPad,CuDef*
%ADD13R,2.000000X1.300000*%
G04 #@! TD*
G04 #@! TA.AperFunction,ViaPad*
%ADD14C,0.550000*%
G04 #@! TD*
G04 #@! TA.AperFunction,Conductor*
%ADD15C,0.300000*%
G04 #@! TD*
G04 APERTURE END LIST*
D10*
X133448500Y-83110000D03*
X133448500Y-84910000D03*
X137748500Y-84910000D03*
X137748500Y-83110000D03*
X104873500Y-83110000D03*
X104873500Y-84910000D03*
X109173500Y-84910000D03*
X109173500Y-83110000D03*
X95348500Y-83110000D03*
X95348500Y-84910000D03*
X99648500Y-84910000D03*
X99648500Y-83110000D03*
X142973500Y-83110000D03*
X142973500Y-84910000D03*
X147273500Y-84910000D03*
X147273500Y-83110000D03*
D11*
X150500000Y-87460000D03*
X150500000Y-89110000D03*
D12*
X138370000Y-88930000D03*
X137370000Y-88930000D03*
X136370000Y-88930000D03*
X135370000Y-88930000D03*
X134370000Y-88930000D03*
X133370000Y-88930000D03*
X132370000Y-88930000D03*
X131370000Y-88930000D03*
X130370000Y-88930000D03*
X129370000Y-88930000D03*
X128370000Y-88930000D03*
X127370000Y-88930000D03*
X126370000Y-88930000D03*
X125370000Y-88930000D03*
X124370000Y-88930000D03*
X123370000Y-88930000D03*
D13*
X141170000Y-91630000D03*
X120570000Y-91630000D03*
D10*
X152498500Y-83110000D03*
X152498500Y-84910000D03*
X156798500Y-84910000D03*
X156798500Y-83110000D03*
X162023500Y-83110000D03*
X162023500Y-84910000D03*
X166323500Y-84910000D03*
X166323500Y-83110000D03*
X114398500Y-83110000D03*
X114398500Y-84910000D03*
X118698500Y-84910000D03*
X118698500Y-83110000D03*
X123923500Y-83110000D03*
X123923500Y-84910000D03*
X128223500Y-84910000D03*
X128223500Y-83110000D03*
D11*
X152090000Y-87450000D03*
X152090000Y-89100000D03*
D14*
X125370000Y-89765500D03*
X103415000Y-83355000D03*
X140990000Y-83600000D03*
X160970000Y-83110000D03*
X122220000Y-83570000D03*
X142000000Y-86210000D03*
X151570000Y-85950000D03*
X147120000Y-85925500D03*
X139070000Y-88960000D03*
X123020000Y-84930000D03*
X132300000Y-84940000D03*
X143020000Y-88820000D03*
X116610000Y-85160000D03*
X165230000Y-84010000D03*
X154670000Y-84000000D03*
X138750000Y-85710500D03*
X146140000Y-84660000D03*
X119650000Y-84910000D03*
X127070000Y-84910000D03*
X97635000Y-85590000D03*
X108000000Y-84790000D03*
X166070000Y-81970000D03*
X152880000Y-81790000D03*
X145010000Y-81670000D03*
X135500000Y-81820000D03*
X125874500Y-81810000D03*
X118520000Y-82040000D03*
X107000000Y-81690000D03*
X98120000Y-81700000D03*
X149040000Y-89220000D03*
X135117250Y-89837250D03*
X147630000Y-87220500D03*
X148900000Y-88210000D03*
X113755500Y-88760000D03*
X113360000Y-88080000D03*
X123730000Y-86620000D03*
X130131469Y-87378531D03*
X131895000Y-87375000D03*
X141999000Y-84979721D03*
D15*
X103660000Y-83110000D02*
X104873500Y-83110000D01*
X125370000Y-88930000D02*
X126370000Y-88930000D01*
X125370000Y-89765500D02*
X125370000Y-88930000D01*
X142973500Y-83110000D02*
X141480000Y-83110000D01*
X160970000Y-83110000D02*
X162023500Y-83110000D01*
X124370000Y-88930000D02*
X125370000Y-88930000D01*
X122680000Y-83110000D02*
X122220000Y-83570000D01*
X141480000Y-83110000D02*
X140990000Y-83600000D01*
X123923500Y-83110000D02*
X122680000Y-83110000D01*
X103415000Y-83355000D02*
X103660000Y-83110000D01*
X136370000Y-88930000D02*
X137370000Y-88930000D01*
X142973500Y-84910000D02*
X142973500Y-85156500D01*
X151570000Y-85950000D02*
X151560000Y-85940000D01*
X142050000Y-88820000D02*
X141850000Y-88620000D01*
X144650000Y-85950000D02*
X143610000Y-84910000D01*
X152498500Y-84910000D02*
X152498500Y-85501500D01*
X123020000Y-84930000D02*
X123000000Y-84910000D01*
X139920000Y-88960000D02*
X139070000Y-88960000D01*
X143610000Y-84910000D02*
X142973500Y-84910000D01*
X123923500Y-84910000D02*
X123040000Y-84910000D01*
X133448500Y-84910000D02*
X132330000Y-84910000D01*
X147095500Y-85950000D02*
X144650000Y-85950000D01*
X142000000Y-86210000D02*
X142420000Y-86210000D01*
X142420000Y-86210000D02*
X142973500Y-85656500D01*
X140260000Y-88620000D02*
X139920000Y-88960000D01*
X123040000Y-84910000D02*
X123020000Y-84930000D01*
X143020000Y-88820000D02*
X142050000Y-88820000D01*
X152060000Y-85940000D02*
X151570000Y-85950000D01*
X152200000Y-85800000D02*
X152060000Y-85940000D01*
X138370000Y-88930000D02*
X139040000Y-88930000D01*
X152498500Y-85501500D02*
X152200000Y-85800000D01*
X138370000Y-88930000D02*
X137370000Y-88930000D01*
X132300000Y-84940000D02*
X132270000Y-84910000D01*
X141850000Y-88620000D02*
X140260000Y-88620000D01*
X132330000Y-84910000D02*
X132300000Y-84940000D01*
X142973500Y-85656500D02*
X142973500Y-84910000D01*
X147120000Y-85925500D02*
X147095500Y-85950000D01*
X139040000Y-88930000D02*
X139070000Y-88960000D01*
X165230000Y-84690000D02*
X165450000Y-84910000D01*
X165450000Y-84910000D02*
X166323500Y-84910000D01*
X165230000Y-84010000D02*
X165230000Y-84690000D01*
X154840000Y-84910000D02*
X156798500Y-84910000D01*
X154670000Y-84000000D02*
X154670000Y-84740000D01*
X154670000Y-84740000D02*
X154840000Y-84910000D01*
X137748500Y-85478500D02*
X137748500Y-84910000D01*
X137980500Y-85710500D02*
X137748500Y-85478500D01*
X138750000Y-85710500D02*
X137980500Y-85710500D01*
X146140000Y-84660000D02*
X146390000Y-84910000D01*
X146390000Y-84910000D02*
X147273500Y-84910000D01*
X119650000Y-84910000D02*
X118698500Y-84910000D01*
X128223500Y-84910000D02*
X127070000Y-84910000D01*
X97635000Y-85590000D02*
X97635000Y-85225000D01*
X97950000Y-84910000D02*
X99648500Y-84910000D01*
X97635000Y-85225000D02*
X97950000Y-84910000D01*
X108120000Y-84910000D02*
X109173500Y-84910000D01*
X108000000Y-84790000D02*
X108120000Y-84910000D01*
X166070000Y-81970000D02*
X166323500Y-82223500D01*
X166323500Y-82223500D02*
X166323500Y-83110000D01*
X152498500Y-82171500D02*
X152498500Y-83110000D01*
X152880000Y-81790000D02*
X152498500Y-82171500D01*
X136898500Y-83960000D02*
X137748500Y-83110000D01*
X156798500Y-83110000D02*
X157730000Y-83110000D01*
X103020000Y-84060000D02*
X116190000Y-84060000D01*
X122938500Y-84195000D02*
X123173500Y-83960000D01*
X139028500Y-84390000D02*
X141793500Y-84390000D01*
X158080000Y-83460000D02*
X158080000Y-86650000D01*
X150540000Y-84410000D02*
X150540000Y-87490000D01*
X137748500Y-83110000D02*
X139028500Y-84390000D01*
X99648500Y-83110000D02*
X101930000Y-83110000D01*
X157730000Y-83110000D02*
X158080000Y-83460000D01*
X153990000Y-87070000D02*
X153570000Y-87490000D01*
X101930000Y-83110000D02*
X102950000Y-84130000D01*
X142148500Y-84035000D02*
X150165000Y-84035000D01*
X158080000Y-86650000D02*
X157660000Y-87070000D01*
X157660000Y-87070000D02*
X153990000Y-87070000D01*
X123173500Y-83960000D02*
X136898500Y-83960000D01*
X119783500Y-84195000D02*
X122938500Y-84195000D01*
X118698500Y-83110000D02*
X119783500Y-84195000D01*
X116400000Y-84270000D02*
X117538500Y-84270000D01*
X141793500Y-84390000D02*
X142148500Y-84035000D01*
X117538500Y-84270000D02*
X118698500Y-83110000D01*
X153570000Y-87490000D02*
X152100000Y-87490000D01*
X150540000Y-87490000D02*
X152100000Y-87490000D01*
X102950000Y-84130000D02*
X103020000Y-84060000D01*
X116190000Y-84060000D02*
X116400000Y-84270000D01*
X150165000Y-84035000D02*
X150540000Y-84410000D01*
X145010000Y-81670000D02*
X146680000Y-81670000D01*
X146680000Y-81670000D02*
X147273500Y-82263500D01*
X147273500Y-82263500D02*
X147273500Y-83110000D01*
X133448500Y-83110000D02*
X133448500Y-82221500D01*
X133448500Y-82221500D02*
X133850000Y-81820000D01*
X133850000Y-81820000D02*
X135500000Y-81820000D01*
X127720000Y-81810000D02*
X128223500Y-82313500D01*
X125874500Y-81810000D02*
X127720000Y-81810000D01*
X128223500Y-82313500D02*
X128223500Y-83110000D01*
X114580000Y-82040000D02*
X114398500Y-82221500D01*
X114398500Y-82221500D02*
X114398500Y-83110000D01*
X118520000Y-82040000D02*
X114580000Y-82040000D01*
X107000000Y-81690000D02*
X107020000Y-81710000D01*
X109173500Y-82093500D02*
X109173500Y-83110000D01*
X107020000Y-81710000D02*
X108790000Y-81710000D01*
X108790000Y-81710000D02*
X109173500Y-82093500D01*
X95348500Y-82381500D02*
X95348500Y-83110000D01*
X96030000Y-81700000D02*
X95348500Y-82381500D01*
X98120000Y-81700000D02*
X96030000Y-81700000D01*
X149040000Y-89220000D02*
X149140000Y-89120000D01*
X150540000Y-89140000D02*
X152100000Y-89140000D01*
X149140000Y-89120000D02*
X150520000Y-89120000D01*
X135370000Y-89584500D02*
X135370000Y-88930000D01*
X135117250Y-89837250D02*
X135370000Y-89584500D01*
X133370000Y-88100000D02*
X133370000Y-88930000D01*
X144547107Y-87274000D02*
X143226893Y-87274000D01*
X147630000Y-87220500D02*
X144600607Y-87220500D01*
X143226893Y-87274000D02*
X143172893Y-87220000D01*
X134250000Y-87220000D02*
X133370000Y-88100000D01*
X143172893Y-87220000D02*
X134250000Y-87220000D01*
X144600607Y-87220500D02*
X144547107Y-87274000D01*
X134725000Y-87845000D02*
X134370000Y-88200000D01*
X134370000Y-88200000D02*
X134370000Y-88930000D01*
X144625000Y-87845000D02*
X134725000Y-87845000D01*
X148900000Y-88210000D02*
X148500000Y-88610000D01*
X148500000Y-88610000D02*
X145390000Y-88610000D01*
X145390000Y-88610000D02*
X144625000Y-87845000D01*
X127370000Y-90100000D02*
X127370000Y-88930000D01*
X118370000Y-88760000D02*
X120000000Y-90390000D01*
X120000000Y-90390000D02*
X127080000Y-90390000D01*
X127080000Y-90390000D02*
X127370000Y-90100000D01*
X113755500Y-88760000D02*
X118370000Y-88760000D01*
X127920000Y-88080000D02*
X128370000Y-88530000D01*
X113360000Y-88080000D02*
X127920000Y-88080000D01*
X128370000Y-88530000D02*
X128370000Y-88930000D01*
X129050000Y-87580000D02*
X129370000Y-87900000D01*
X124690000Y-87580000D02*
X129050000Y-87580000D01*
X123730000Y-86620000D02*
X124690000Y-87580000D01*
X129370000Y-87900000D02*
X129370000Y-88930000D01*
X130370000Y-87617062D02*
X130370000Y-88930000D01*
X130131469Y-87378531D02*
X130370000Y-87617062D01*
X131895000Y-87375000D02*
X131370000Y-87900000D01*
X131370000Y-87900000D02*
X131370000Y-88930000D01*
X133770000Y-86600000D02*
X132370000Y-88000000D01*
X139820000Y-86600000D02*
X133770000Y-86600000D01*
X141440279Y-84979721D02*
X139820000Y-86600000D01*
X132370000Y-88000000D02*
X132370000Y-88930000D01*
X141999000Y-84979721D02*
X141440279Y-84979721D01*
G04 #@! TA.AperFunction,Conductor*
G36*
X95216487Y-81364015D02*
G01*
X95260510Y-81401615D01*
X95282665Y-81455102D01*
X95278123Y-81512818D01*
X95247875Y-81562178D01*
X95020054Y-81789999D01*
X94948985Y-81861068D01*
X94932332Y-81874409D01*
X94882633Y-81927333D01*
X94879927Y-81930126D01*
X94859583Y-81950471D01*
X94856876Y-81953960D01*
X94849307Y-81962821D01*
X94818051Y-81996107D01*
X94807822Y-82014712D01*
X94797145Y-82030966D01*
X94790139Y-82040000D01*
X94784136Y-82047739D01*
X94778234Y-82061377D01*
X94749832Y-82102035D01*
X94707768Y-82128310D01*
X94606169Y-82166204D01*
X94490954Y-82252454D01*
X94404704Y-82367668D01*
X94354409Y-82502515D01*
X94354409Y-82502517D01*
X94348375Y-82558645D01*
X94348000Y-82562130D01*
X94348000Y-83657869D01*
X94354409Y-83717484D01*
X94395011Y-83826343D01*
X94404704Y-83852331D01*
X94467418Y-83936106D01*
X94489317Y-83984057D01*
X94489317Y-84036774D01*
X94467418Y-84084726D01*
X94405148Y-84167908D01*
X94354902Y-84302624D01*
X94348500Y-84362176D01*
X94348500Y-84660000D01*
X96348500Y-84660000D01*
X96348500Y-84362176D01*
X96342097Y-84302624D01*
X96291852Y-84167911D01*
X96229581Y-84084727D01*
X96207682Y-84036774D01*
X96207682Y-83984057D01*
X96229579Y-83936109D01*
X96292296Y-83852331D01*
X96342591Y-83717483D01*
X96349000Y-83657873D01*
X96348999Y-82562128D01*
X96342591Y-82502517D01*
X96342591Y-82502516D01*
X96341004Y-82487753D01*
X96352758Y-82420318D01*
X96398501Y-82369394D01*
X96464294Y-82350500D01*
X97661922Y-82350500D01*
X97727893Y-82369506D01*
X97781393Y-82403122D01*
X97946342Y-82460841D01*
X98120000Y-82480407D01*
X98293657Y-82460841D01*
X98458606Y-82403122D01*
X98463445Y-82400081D01*
X98529257Y-82381073D01*
X98595121Y-82399910D01*
X98640932Y-82450843D01*
X98652709Y-82518327D01*
X98652194Y-82523122D01*
X98648375Y-82558645D01*
X98648000Y-82562129D01*
X98648000Y-83657869D01*
X98654409Y-83717484D01*
X98679556Y-83784906D01*
X98704704Y-83852331D01*
X98767106Y-83935689D01*
X98789005Y-83983642D01*
X98789005Y-84036358D01*
X98767106Y-84084310D01*
X98747502Y-84110499D01*
X98704703Y-84167671D01*
X98700539Y-84178835D01*
X98674100Y-84221071D01*
X98633170Y-84249488D01*
X98584358Y-84259500D01*
X98035504Y-84259500D01*
X98014294Y-84257158D01*
X97941737Y-84259439D01*
X97937842Y-84259500D01*
X97909071Y-84259500D01*
X97904690Y-84260053D01*
X97893059Y-84260968D01*
X97847430Y-84262402D01*
X97827051Y-84268323D01*
X97808007Y-84272267D01*
X97793639Y-84274082D01*
X97786941Y-84274929D01*
X97744490Y-84291736D01*
X97733443Y-84295518D01*
X97689598Y-84308256D01*
X97671330Y-84319060D01*
X97653864Y-84327617D01*
X97634129Y-84335431D01*
X97597202Y-84362260D01*
X97587442Y-84368671D01*
X97548136Y-84391917D01*
X97533125Y-84406928D01*
X97518336Y-84419558D01*
X97501164Y-84432034D01*
X97472057Y-84467218D01*
X97464196Y-84475856D01*
X97235484Y-84704568D01*
X97218831Y-84717910D01*
X97169133Y-84770833D01*
X97166427Y-84773626D01*
X97146083Y-84793971D01*
X97143376Y-84797460D01*
X97135807Y-84806321D01*
X97104551Y-84839607D01*
X97094322Y-84858212D01*
X97083645Y-84874467D01*
X97070636Y-84891238D01*
X97052506Y-84933132D01*
X97047370Y-84943616D01*
X97025372Y-84983632D01*
X97020091Y-85004199D01*
X97013791Y-85022600D01*
X97005364Y-85042074D01*
X96998223Y-85087161D01*
X96995855Y-85098593D01*
X96984746Y-85141867D01*
X96980605Y-85157995D01*
X96977237Y-85157130D01*
X96965494Y-85197893D01*
X96931877Y-85251393D01*
X96874158Y-85416342D01*
X96854592Y-85589999D01*
X96874158Y-85763657D01*
X96931877Y-85928606D01*
X97024852Y-86076576D01*
X97148423Y-86200147D01*
X97296393Y-86293122D01*
X97461342Y-86350841D01*
X97635000Y-86370407D01*
X97808657Y-86350841D01*
X97973606Y-86293122D01*
X98121576Y-86200147D01*
X98245147Y-86076576D01*
X98338122Y-85928606D01*
X98395841Y-85763657D01*
X98404946Y-85682843D01*
X98406324Y-85670617D01*
X98427090Y-85614649D01*
X98471603Y-85574870D01*
X98529544Y-85560500D01*
X98584358Y-85560500D01*
X98633170Y-85570512D01*
X98674100Y-85598929D01*
X98700539Y-85641165D01*
X98704704Y-85652331D01*
X98790954Y-85767546D01*
X98906169Y-85853796D01*
X99041017Y-85904091D01*
X99100627Y-85910500D01*
X100196372Y-85910499D01*
X100255983Y-85904091D01*
X100390831Y-85853796D01*
X100506046Y-85767546D01*
X100592296Y-85652331D01*
X100642591Y-85517483D01*
X100649000Y-85457873D01*
X100649000Y-85160000D01*
X103873500Y-85160000D01*
X103873500Y-85457824D01*
X103879902Y-85517375D01*
X103930147Y-85652089D01*
X104016311Y-85767188D01*
X104131410Y-85853352D01*
X104266124Y-85903597D01*
X104325676Y-85910000D01*
X104623500Y-85910000D01*
X104623500Y-85160000D01*
X105123500Y-85160000D01*
X105123500Y-85910000D01*
X105421324Y-85910000D01*
X105480875Y-85903597D01*
X105615589Y-85853352D01*
X105730688Y-85767188D01*
X105816852Y-85652089D01*
X105867097Y-85517375D01*
X105873500Y-85457824D01*
X105873500Y-85160000D01*
X105123500Y-85160000D01*
X104623500Y-85160000D01*
X103873500Y-85160000D01*
X100649000Y-85160000D01*
X100648999Y-84362128D01*
X100642591Y-84302517D01*
X100592296Y-84167669D01*
X100529892Y-84084308D01*
X100507994Y-84036357D01*
X100507994Y-83983640D01*
X100529891Y-83935692D01*
X100592296Y-83852331D01*
X100596461Y-83841165D01*
X100622900Y-83798929D01*
X100663830Y-83770512D01*
X100712642Y-83760500D01*
X101609192Y-83760500D01*
X101656645Y-83769939D01*
X101696873Y-83796819D01*
X102438256Y-84538201D01*
X102453131Y-84556181D01*
X102458172Y-84563599D01*
X102501569Y-84601859D01*
X102507232Y-84607177D01*
X102518966Y-84618911D01*
X102532076Y-84629080D01*
X102538071Y-84634040D01*
X102581459Y-84672292D01*
X102589446Y-84676361D01*
X102609154Y-84688869D01*
X102612123Y-84691172D01*
X102616237Y-84694363D01*
X102669346Y-84717344D01*
X102676349Y-84720640D01*
X102712965Y-84739298D01*
X102727900Y-84746908D01*
X102736642Y-84748862D01*
X102758852Y-84756078D01*
X102764847Y-84758672D01*
X102767074Y-84759636D01*
X102824216Y-84768685D01*
X102831854Y-84770143D01*
X102888296Y-84782760D01*
X102897256Y-84782478D01*
X102920546Y-84783943D01*
X102929405Y-84785347D01*
X102987018Y-84779900D01*
X102994757Y-84779413D01*
X103052569Y-84777597D01*
X103061183Y-84775094D01*
X103084092Y-84770723D01*
X103093029Y-84769879D01*
X103147462Y-84750281D01*
X103154854Y-84747879D01*
X103210398Y-84731744D01*
X103217121Y-84727767D01*
X103280242Y-84710500D01*
X107099822Y-84710500D01*
X107157763Y-84724870D01*
X107202276Y-84764648D01*
X107223042Y-84820616D01*
X107239158Y-84963657D01*
X107296877Y-85128606D01*
X107389852Y-85276576D01*
X107513423Y-85400147D01*
X107661393Y-85493122D01*
X107826342Y-85550841D01*
X107999997Y-85570407D01*
X107999998Y-85570406D01*
X108000000Y-85570407D01*
X108060065Y-85563639D01*
X108093343Y-85564386D01*
X108099405Y-85565347D01*
X108099408Y-85565346D01*
X108100117Y-85565459D01*
X108152521Y-85571978D01*
X108197973Y-85600458D01*
X108227144Y-85645470D01*
X108229701Y-85652327D01*
X108229704Y-85652331D01*
X108315954Y-85767546D01*
X108431169Y-85853796D01*
X108566017Y-85904091D01*
X108625627Y-85910500D01*
X109721372Y-85910499D01*
X109780983Y-85904091D01*
X109915831Y-85853796D01*
X110031046Y-85767546D01*
X110117296Y-85652331D01*
X110167591Y-85517483D01*
X110174000Y-85457873D01*
X110174000Y-85160000D01*
X113398500Y-85160000D01*
X113398500Y-85457824D01*
X113404902Y-85517375D01*
X113455147Y-85652089D01*
X113541311Y-85767188D01*
X113656410Y-85853352D01*
X113791124Y-85903597D01*
X113850676Y-85910000D01*
X114148500Y-85910000D01*
X114148500Y-85160000D01*
X114648500Y-85160000D01*
X114648500Y-85910000D01*
X114946324Y-85910000D01*
X115005875Y-85903597D01*
X115140589Y-85853352D01*
X115255688Y-85767188D01*
X115341852Y-85652089D01*
X115392097Y-85517375D01*
X115398500Y-85457824D01*
X115398500Y-85160000D01*
X114648500Y-85160000D01*
X114148500Y-85160000D01*
X113398500Y-85160000D01*
X110174000Y-85160000D01*
X110173999Y-84834499D01*
X110190612Y-84772500D01*
X110235999Y-84727113D01*
X110297999Y-84710500D01*
X115869192Y-84710500D01*
X115916646Y-84719940D01*
X115956872Y-84746818D01*
X115968965Y-84758911D01*
X115968969Y-84758914D01*
X115968971Y-84758916D01*
X115972448Y-84761614D01*
X115981326Y-84769196D01*
X116009462Y-84795617D01*
X116014607Y-84800448D01*
X116033198Y-84810668D01*
X116049462Y-84821351D01*
X116066235Y-84834362D01*
X116066236Y-84834362D01*
X116066237Y-84834363D01*
X116085018Y-84842490D01*
X116108138Y-84852495D01*
X116118626Y-84857633D01*
X116158632Y-84879627D01*
X116179197Y-84884906D01*
X116197593Y-84891205D01*
X116217074Y-84899636D01*
X116262178Y-84906779D01*
X116273597Y-84909144D01*
X116317823Y-84920500D01*
X116339045Y-84920500D01*
X116358443Y-84922026D01*
X116379405Y-84925347D01*
X116421319Y-84921384D01*
X116424861Y-84921050D01*
X116436530Y-84920500D01*
X117452995Y-84920500D01*
X117474204Y-84922841D01*
X117476794Y-84922759D01*
X117476796Y-84922760D01*
X117546762Y-84920560D01*
X117550657Y-84920500D01*
X117574000Y-84920500D01*
X117636000Y-84937113D01*
X117681387Y-84982500D01*
X117698000Y-85044500D01*
X117698000Y-85457869D01*
X117704409Y-85517484D01*
X117724734Y-85571978D01*
X117754704Y-85652331D01*
X117840954Y-85767546D01*
X117956169Y-85853796D01*
X118091017Y-85904091D01*
X118150627Y-85910500D01*
X119246372Y-85910499D01*
X119305983Y-85904091D01*
X119440831Y-85853796D01*
X119556046Y-85767546D01*
X119578337Y-85737768D01*
X119615966Y-85704484D01*
X119663716Y-85688861D01*
X119823657Y-85670841D01*
X119988606Y-85613122D01*
X120136576Y-85520147D01*
X120260147Y-85396576D01*
X120353122Y-85248606D01*
X120410841Y-85083657D01*
X120415253Y-85044500D01*
X120425268Y-84955616D01*
X120446034Y-84899648D01*
X120490547Y-84859870D01*
X120548488Y-84845500D01*
X122852995Y-84845500D01*
X122874204Y-84847841D01*
X122876794Y-84847759D01*
X122876796Y-84847760D01*
X122946762Y-84845560D01*
X122950657Y-84845500D01*
X122979420Y-84845500D01*
X122979425Y-84845500D01*
X122983802Y-84844946D01*
X122995441Y-84844030D01*
X123041069Y-84842597D01*
X123061449Y-84836675D01*
X123080489Y-84832732D01*
X123101558Y-84830071D01*
X123144020Y-84813258D01*
X123155057Y-84809480D01*
X123198898Y-84796744D01*
X123217170Y-84785936D01*
X123234636Y-84777380D01*
X123254371Y-84769568D01*
X123291316Y-84742725D01*
X123301048Y-84736332D01*
X123340365Y-84713081D01*
X123355374Y-84698071D01*
X123370183Y-84685425D01*
X123372613Y-84683659D01*
X123407167Y-84666064D01*
X123445468Y-84660000D01*
X124923500Y-84660000D01*
X124936681Y-84646819D01*
X124976909Y-84619939D01*
X125024362Y-84610500D01*
X126184582Y-84610500D01*
X126250554Y-84629506D01*
X126296302Y-84680698D01*
X126307802Y-84748384D01*
X126289592Y-84909999D01*
X126309158Y-85083657D01*
X126366877Y-85248606D01*
X126459852Y-85396576D01*
X126583423Y-85520147D01*
X126731393Y-85613122D01*
X126896342Y-85670841D01*
X127069999Y-85690407D01*
X127069999Y-85690406D01*
X127070000Y-85690407D01*
X127219096Y-85673608D01*
X127282179Y-85683006D01*
X127332246Y-85722518D01*
X127365952Y-85767544D01*
X127365953Y-85767544D01*
X127365954Y-85767546D01*
X127481169Y-85853796D01*
X127616017Y-85904091D01*
X127675627Y-85910500D01*
X128771372Y-85910499D01*
X128830983Y-85904091D01*
X128965831Y-85853796D01*
X129081046Y-85767546D01*
X129167296Y-85652331D01*
X129217591Y-85517483D01*
X129224000Y-85457873D01*
X129223999Y-84734499D01*
X129240612Y-84672500D01*
X129285999Y-84627113D01*
X129347999Y-84610500D01*
X132347638Y-84610500D01*
X132395091Y-84619939D01*
X132435319Y-84646819D01*
X132448500Y-84660000D01*
X134448500Y-84660000D01*
X134461681Y-84646819D01*
X134501909Y-84619939D01*
X134549362Y-84610500D01*
X136624000Y-84610500D01*
X136686000Y-84627113D01*
X136731387Y-84672500D01*
X136748000Y-84734500D01*
X136748000Y-85457869D01*
X136754409Y-85517484D01*
X136774734Y-85571978D01*
X136804704Y-85652331D01*
X136857246Y-85722518D01*
X136878709Y-85751189D01*
X136902948Y-85814448D01*
X136890326Y-85881004D01*
X136844609Y-85930995D01*
X136779442Y-85949500D01*
X134416933Y-85949500D01*
X134351766Y-85930995D01*
X134306049Y-85881004D01*
X134293427Y-85814447D01*
X134317666Y-85751189D01*
X134391852Y-85652088D01*
X134442097Y-85517375D01*
X134448500Y-85457824D01*
X134448500Y-85160000D01*
X132448500Y-85160000D01*
X132448500Y-85457824D01*
X132454902Y-85517375D01*
X132505147Y-85652089D01*
X132591311Y-85767188D01*
X132706410Y-85853352D01*
X132841124Y-85903597D01*
X132900676Y-85910000D01*
X133233062Y-85910000D01*
X133299505Y-85929304D01*
X133345261Y-85981205D01*
X133356084Y-86049544D01*
X133328603Y-86113043D01*
X133292056Y-86157218D01*
X133284196Y-86165856D01*
X132621069Y-86828983D01*
X132565482Y-86861077D01*
X132501294Y-86861077D01*
X132445707Y-86828983D01*
X132381576Y-86764852D01*
X132233606Y-86671877D01*
X132068657Y-86614158D01*
X131895000Y-86594592D01*
X131721342Y-86614158D01*
X131556393Y-86671877D01*
X131408423Y-86764852D01*
X131284852Y-86888423D01*
X131191878Y-87036392D01*
X131135673Y-87197014D01*
X131106313Y-87243739D01*
X131097400Y-87252652D01*
X131044047Y-87284125D01*
X130982127Y-87285862D01*
X130927092Y-87257431D01*
X130892678Y-87205926D01*
X130834591Y-87039924D01*
X130741616Y-86891954D01*
X130618045Y-86768383D01*
X130470075Y-86675408D01*
X130305126Y-86617689D01*
X130131469Y-86598123D01*
X129957811Y-86617689D01*
X129792862Y-86675408D01*
X129644892Y-86768383D01*
X129521321Y-86891954D01*
X129487889Y-86945161D01*
X129442958Y-86987671D01*
X129383081Y-87003188D01*
X129323159Y-86987850D01*
X129291367Y-86970372D01*
X129270800Y-86965091D01*
X129252398Y-86958791D01*
X129251970Y-86958606D01*
X129232926Y-86950365D01*
X129232924Y-86950364D01*
X129187837Y-86943223D01*
X129176398Y-86940854D01*
X129132178Y-86929500D01*
X129132177Y-86929500D01*
X129110955Y-86929500D01*
X129091556Y-86927973D01*
X129070596Y-86924653D01*
X129070595Y-86924653D01*
X129048558Y-86926736D01*
X129025139Y-86928950D01*
X129013470Y-86929500D01*
X125010808Y-86929500D01*
X124963355Y-86920061D01*
X124923127Y-86893181D01*
X124518687Y-86488741D01*
X124489327Y-86442015D01*
X124433122Y-86281393D01*
X124340147Y-86133423D01*
X124328405Y-86121681D01*
X124298155Y-86072318D01*
X124293613Y-86014602D01*
X124315768Y-85961115D01*
X124359791Y-85923515D01*
X124416086Y-85910000D01*
X124471324Y-85910000D01*
X124530875Y-85903597D01*
X124665589Y-85853352D01*
X124780688Y-85767188D01*
X124866852Y-85652089D01*
X124917097Y-85517375D01*
X124923500Y-85457824D01*
X124923500Y-85160000D01*
X122923500Y-85160000D01*
X122923500Y-85457824D01*
X122929902Y-85517375D01*
X122980147Y-85652089D01*
X123066310Y-85767188D01*
X123191816Y-85861141D01*
X123233687Y-85917074D01*
X123238671Y-85986766D01*
X123205187Y-86048089D01*
X123119850Y-86133425D01*
X123026877Y-86281393D01*
X122969158Y-86446342D01*
X122949592Y-86620000D01*
X122969158Y-86793657D01*
X123026877Y-86958606D01*
X123119852Y-87106576D01*
X123231095Y-87217819D01*
X123261345Y-87267182D01*
X123265887Y-87324898D01*
X123243732Y-87378385D01*
X123199709Y-87415985D01*
X123143414Y-87429500D01*
X113818078Y-87429500D01*
X113752107Y-87410494D01*
X113698606Y-87376877D01*
X113533657Y-87319158D01*
X113360000Y-87299592D01*
X113186342Y-87319158D01*
X113021393Y-87376877D01*
X112873423Y-87469852D01*
X112749852Y-87593423D01*
X112656877Y-87741393D01*
X112599158Y-87906342D01*
X112579592Y-88080000D01*
X112599158Y-88253657D01*
X112656877Y-88418606D01*
X112749852Y-88566576D01*
X112873421Y-88690145D01*
X112923806Y-88721804D01*
X112962828Y-88760826D01*
X112981054Y-88812914D01*
X112994658Y-88933656D01*
X113052377Y-89098606D01*
X113115791Y-89199529D01*
X113134748Y-89262023D01*
X113119325Y-89325481D01*
X113073798Y-89372303D01*
X113010797Y-89389500D01*
X108324483Y-89389500D01*
X108305316Y-89395727D01*
X108287414Y-89400103D01*
X108264620Y-89403906D01*
X108251240Y-89411148D01*
X108230546Y-89420022D01*
X108218891Y-89423809D01*
X108199401Y-89437969D01*
X108185540Y-89446702D01*
X108161743Y-89459580D01*
X108154113Y-89467869D01*
X108135778Y-89484195D01*
X108129069Y-89489069D01*
X108112596Y-89511742D01*
X108103512Y-89522834D01*
X108082516Y-89545642D01*
X108079582Y-89552331D01*
X108066354Y-89575389D01*
X108063809Y-89578892D01*
X108053930Y-89609296D01*
X108049555Y-89620786D01*
X108035526Y-89652767D01*
X108035252Y-89656082D01*
X108029609Y-89684149D01*
X108029500Y-89684485D01*
X108029500Y-89720376D01*
X108029077Y-89730613D01*
X108026258Y-89764644D01*
X108024871Y-89781379D01*
X108026078Y-89794381D01*
X108011542Y-90025425D01*
X108009591Y-90040874D01*
X107957461Y-90314149D01*
X107953588Y-90329232D01*
X107867624Y-90593802D01*
X107861892Y-90608281D01*
X107743438Y-90860008D01*
X107735936Y-90873654D01*
X107586877Y-91108533D01*
X107577724Y-91121130D01*
X107400392Y-91335489D01*
X107389732Y-91346841D01*
X107186938Y-91537277D01*
X107174939Y-91547203D01*
X106949881Y-91710717D01*
X106936733Y-91719061D01*
X106692942Y-91853086D01*
X106678853Y-91859716D01*
X106420199Y-91962125D01*
X106405388Y-91966937D01*
X106135936Y-92036120D01*
X106120641Y-92039038D01*
X105912589Y-92065321D01*
X105844638Y-92073906D01*
X105829099Y-92074884D01*
X105550901Y-92074884D01*
X105535361Y-92073906D01*
X105453087Y-92063512D01*
X105259358Y-92039038D01*
X105244063Y-92036120D01*
X104974611Y-91966937D01*
X104959806Y-91962127D01*
X104769514Y-91886785D01*
X104701146Y-91859716D01*
X104687057Y-91853086D01*
X104443266Y-91719061D01*
X104430118Y-91710717D01*
X104410509Y-91696470D01*
X104205056Y-91547200D01*
X104193065Y-91537280D01*
X103990261Y-91346835D01*
X103979607Y-91335489D01*
X103802275Y-91121130D01*
X103793122Y-91108533D01*
X103749947Y-91040500D01*
X103644058Y-90873644D01*
X103636561Y-90860008D01*
X103630762Y-90847684D01*
X103518105Y-90608276D01*
X103512375Y-90593802D01*
X103426408Y-90329223D01*
X103422540Y-90314157D01*
X103370406Y-90040863D01*
X103368458Y-90025436D01*
X103350745Y-89743894D01*
X103350622Y-89740000D01*
X104384531Y-89740000D01*
X104404364Y-89966689D01*
X104463261Y-90186497D01*
X104559432Y-90392735D01*
X104689953Y-90579140D01*
X104850859Y-90740046D01*
X105037264Y-90870567D01*
X105037265Y-90870567D01*
X105037266Y-90870568D01*
X105243504Y-90966739D01*
X105463308Y-91025635D01*
X105548262Y-91033067D01*
X105633214Y-91040500D01*
X105633216Y-91040500D01*
X105746784Y-91040500D01*
X105746786Y-91040500D01*
X105814747Y-91034553D01*
X105916692Y-91025635D01*
X106136496Y-90966739D01*
X106342734Y-90870568D01*
X106529139Y-90740047D01*
X106690047Y-90579139D01*
X106820568Y-90392734D01*
X106916739Y-90186496D01*
X106975635Y-89966692D01*
X106995468Y-89740000D01*
X106975635Y-89513308D01*
X106916739Y-89293504D01*
X106820568Y-89087266D01*
X106812584Y-89075864D01*
X106690046Y-88900859D01*
X106529140Y-88739953D01*
X106342735Y-88609432D01*
X106136497Y-88513261D01*
X105916689Y-88454364D01*
X105746786Y-88439500D01*
X105746784Y-88439500D01*
X105633216Y-88439500D01*
X105633214Y-88439500D01*
X105463310Y-88454364D01*
X105243502Y-88513261D01*
X105037264Y-88609432D01*
X104850859Y-88739953D01*
X104689953Y-88900859D01*
X104559432Y-89087264D01*
X104463261Y-89293502D01*
X104404364Y-89513310D01*
X104384531Y-89740000D01*
X103350622Y-89740000D01*
X103350500Y-89736108D01*
X103350500Y-87893711D01*
X103317247Y-87683760D01*
X103304512Y-87644567D01*
X103251557Y-87481588D01*
X103155051Y-87292184D01*
X103030104Y-87120208D01*
X102879792Y-86969896D01*
X102873178Y-86965091D01*
X102707819Y-86844951D01*
X102707818Y-86844950D01*
X102707816Y-86844949D01*
X102518412Y-86748443D01*
X102517301Y-86748082D01*
X102316239Y-86682752D01*
X102106289Y-86649500D01*
X102106287Y-86649500D01*
X102058488Y-86649500D01*
X93512211Y-86649500D01*
X93488022Y-86647117D01*
X93466979Y-86642931D01*
X93422280Y-86624415D01*
X93414793Y-86619412D01*
X93380587Y-86585206D01*
X93375584Y-86577719D01*
X93357067Y-86533018D01*
X93352881Y-86511972D01*
X93350500Y-86487789D01*
X93350500Y-85160000D01*
X94348500Y-85160000D01*
X94348500Y-85457824D01*
X94354902Y-85517375D01*
X94405147Y-85652089D01*
X94491311Y-85767188D01*
X94606410Y-85853352D01*
X94741124Y-85903597D01*
X94800676Y-85910000D01*
X95098500Y-85910000D01*
X95098500Y-85160000D01*
X95598500Y-85160000D01*
X95598500Y-85910000D01*
X95896324Y-85910000D01*
X95955875Y-85903597D01*
X96090589Y-85853352D01*
X96205688Y-85767188D01*
X96291852Y-85652089D01*
X96342097Y-85517375D01*
X96348500Y-85457824D01*
X96348500Y-85160000D01*
X95598500Y-85160000D01*
X95098500Y-85160000D01*
X94348500Y-85160000D01*
X93350500Y-85160000D01*
X93350500Y-81512211D01*
X93352882Y-81488023D01*
X93357068Y-81466980D01*
X93375584Y-81422280D01*
X93380587Y-81414793D01*
X93414793Y-81380587D01*
X93422280Y-81375584D01*
X93466981Y-81357067D01*
X93488026Y-81352881D01*
X93512211Y-81350500D01*
X93555514Y-81350500D01*
X95160192Y-81350500D01*
X95216487Y-81364015D01*
G37*
G04 #@! TD.AperFunction*
G04 #@! TA.AperFunction,Conductor*
G36*
X144351645Y-88504939D02*
G01*
X144391873Y-88531819D01*
X144869564Y-89009510D01*
X144882912Y-89026169D01*
X144935831Y-89075864D01*
X144938628Y-89078575D01*
X144958961Y-89098908D01*
X144962442Y-89101608D01*
X144971325Y-89109194D01*
X145004607Y-89140448D01*
X145015251Y-89146299D01*
X145023204Y-89150672D01*
X145039464Y-89161352D01*
X145056236Y-89174362D01*
X145098140Y-89192495D01*
X145108620Y-89197629D01*
X145148632Y-89219627D01*
X145169195Y-89224906D01*
X145187598Y-89231207D01*
X145207073Y-89239635D01*
X145252175Y-89246778D01*
X145263570Y-89249137D01*
X145307823Y-89260500D01*
X145329051Y-89260500D01*
X145348449Y-89262026D01*
X145369405Y-89265346D01*
X145414851Y-89261050D01*
X145426521Y-89260500D01*
X148153343Y-89260500D01*
X148211285Y-89274870D01*
X148255797Y-89314649D01*
X148276563Y-89370618D01*
X148278690Y-89389500D01*
X148279159Y-89393657D01*
X148282969Y-89404546D01*
X148288711Y-89462832D01*
X148267058Y-89517254D01*
X148222842Y-89555667D01*
X148165928Y-89569500D01*
X143790278Y-89569500D01*
X143683967Y-89569209D01*
X143683963Y-89569209D01*
X143472435Y-89602150D01*
X143268676Y-89667836D01*
X143077732Y-89764644D01*
X142904316Y-89890182D01*
X142752722Y-90041340D01*
X142626687Y-90214396D01*
X142529332Y-90405061D01*
X142518636Y-90437918D01*
X142482339Y-90492888D01*
X142423011Y-90521512D01*
X142357394Y-90515713D01*
X142277485Y-90485909D01*
X142257613Y-90483772D01*
X142217873Y-90479500D01*
X142217869Y-90479500D01*
X140122130Y-90479500D01*
X140062515Y-90485909D01*
X139927669Y-90536204D01*
X139812454Y-90622454D01*
X139726204Y-90737668D01*
X139675909Y-90872516D01*
X139669500Y-90932131D01*
X139669500Y-91109479D01*
X139654162Y-91169217D01*
X139611942Y-91214176D01*
X139553286Y-91233234D01*
X139492703Y-91221677D01*
X139445182Y-91182364D01*
X139320104Y-91010208D01*
X139169791Y-90859895D01*
X138997819Y-90734951D01*
X138997818Y-90734950D01*
X138997816Y-90734949D01*
X138808412Y-90638443D01*
X138808411Y-90638442D01*
X138606239Y-90572752D01*
X138396289Y-90539500D01*
X138396287Y-90539500D01*
X138348488Y-90539500D01*
X135811086Y-90539500D01*
X135754791Y-90525985D01*
X135710768Y-90488385D01*
X135688613Y-90434898D01*
X135693155Y-90377182D01*
X135723405Y-90327819D01*
X135727397Y-90323826D01*
X135760804Y-90270658D01*
X135820372Y-90175856D01*
X135878091Y-90010907D01*
X135878091Y-90010900D01*
X135879013Y-90008268D01*
X135893692Y-89984073D01*
X135892894Y-89983634D01*
X135897542Y-89975177D01*
X135902155Y-89970125D01*
X135905673Y-89964328D01*
X135911181Y-89958464D01*
X135912055Y-89959285D01*
X135936896Y-89932085D01*
X135991602Y-89911766D01*
X136049544Y-89918720D01*
X136062621Y-89923597D01*
X136122176Y-89930000D01*
X136170000Y-89930000D01*
X136170000Y-89130000D01*
X136570000Y-89130000D01*
X136570000Y-89930000D01*
X136617824Y-89930000D01*
X136677375Y-89923597D01*
X136826666Y-89867915D01*
X136870000Y-89860097D01*
X136913334Y-89867915D01*
X137062624Y-89923597D01*
X137122176Y-89930000D01*
X137170000Y-89930000D01*
X137170000Y-89130000D01*
X137570000Y-89130000D01*
X137570000Y-89930000D01*
X137617824Y-89930000D01*
X137677375Y-89923597D01*
X137826666Y-89867915D01*
X137870000Y-89860097D01*
X137913334Y-89867915D01*
X138062624Y-89923597D01*
X138122176Y-89930000D01*
X138170000Y-89930000D01*
X138170000Y-89130000D01*
X138570000Y-89130000D01*
X138570000Y-89930000D01*
X138617824Y-89930000D01*
X138677375Y-89923597D01*
X138812089Y-89873352D01*
X138927188Y-89787188D01*
X139013352Y-89672089D01*
X139063597Y-89537375D01*
X139070000Y-89477824D01*
X139070000Y-89130000D01*
X138570000Y-89130000D01*
X138170000Y-89130000D01*
X137570000Y-89130000D01*
X137170000Y-89130000D01*
X136570000Y-89130000D01*
X136170000Y-89130000D01*
X136170000Y-88854000D01*
X136186613Y-88792000D01*
X136232000Y-88746613D01*
X136294000Y-88730000D01*
X139070000Y-88730000D01*
X139070000Y-88619500D01*
X139086613Y-88557500D01*
X139132000Y-88512113D01*
X139194000Y-88495500D01*
X144304192Y-88495500D01*
X144351645Y-88504939D01*
G37*
G04 #@! TD.AperFunction*
G04 #@! TA.AperFunction,Conductor*
G36*
X145309595Y-84699870D02*
G01*
X145354107Y-84739649D01*
X145374873Y-84795617D01*
X145379158Y-84833657D01*
X145436877Y-84998606D01*
X145529852Y-85146576D01*
X145653423Y-85270147D01*
X145801393Y-85363122D01*
X145969267Y-85421864D01*
X145990024Y-85434457D01*
X145990880Y-85432902D01*
X146023204Y-85450672D01*
X146039464Y-85461352D01*
X146056236Y-85474362D01*
X146098140Y-85492495D01*
X146108620Y-85497629D01*
X146148632Y-85519627D01*
X146169195Y-85524906D01*
X146187598Y-85531207D01*
X146207073Y-85539635D01*
X146221239Y-85541878D01*
X146280335Y-85568357D01*
X146318024Y-85621017D01*
X146325539Y-85641165D01*
X146329704Y-85652331D01*
X146415954Y-85767546D01*
X146531169Y-85853796D01*
X146666017Y-85904091D01*
X146725627Y-85910500D01*
X147821372Y-85910499D01*
X147880983Y-85904091D01*
X148015831Y-85853796D01*
X148131046Y-85767546D01*
X148217296Y-85652331D01*
X148267591Y-85517483D01*
X148274000Y-85457873D01*
X148273999Y-84809499D01*
X148290612Y-84747500D01*
X148335999Y-84702113D01*
X148397999Y-84685500D01*
X149765500Y-84685500D01*
X149827500Y-84702113D01*
X149872887Y-84747500D01*
X149889500Y-84809500D01*
X149889500Y-86574330D01*
X149873506Y-86635246D01*
X149829649Y-86680447D01*
X149789814Y-86704527D01*
X149669528Y-86824813D01*
X149581523Y-86970392D01*
X149581522Y-86970394D01*
X149576083Y-86987850D01*
X149530913Y-87132806D01*
X149524500Y-87203383D01*
X149524500Y-87462155D01*
X149507303Y-87525156D01*
X149460482Y-87570682D01*
X149397023Y-87586106D01*
X149334529Y-87567149D01*
X149238606Y-87506877D01*
X149073657Y-87449158D01*
X148900000Y-87429592D01*
X148726345Y-87449158D01*
X148556888Y-87508454D01*
X148495163Y-87513660D01*
X148438621Y-87488359D01*
X148401373Y-87438864D01*
X148392714Y-87377530D01*
X148410407Y-87220500D01*
X148408646Y-87204874D01*
X148390841Y-87046842D01*
X148333122Y-86881893D01*
X148240147Y-86733923D01*
X148116576Y-86610352D01*
X147968606Y-86517377D01*
X147803657Y-86459658D01*
X147630000Y-86440092D01*
X147456342Y-86459658D01*
X147291393Y-86517377D01*
X147237893Y-86550994D01*
X147171922Y-86570000D01*
X144686111Y-86570000D01*
X144664901Y-86567658D01*
X144592344Y-86569939D01*
X144588449Y-86570000D01*
X144559678Y-86570000D01*
X144555297Y-86570553D01*
X144543666Y-86571468D01*
X144498037Y-86572902D01*
X144477658Y-86578823D01*
X144458614Y-86582767D01*
X144450703Y-86583767D01*
X144437548Y-86585429D01*
X144395097Y-86602236D01*
X144384049Y-86606018D01*
X144340825Y-86618576D01*
X144306232Y-86623500D01*
X143469976Y-86623500D01*
X143429714Y-86613162D01*
X143429430Y-86614268D01*
X143393693Y-86605091D01*
X143375291Y-86598791D01*
X143355817Y-86590364D01*
X143310730Y-86583223D01*
X143299291Y-86580854D01*
X143255071Y-86569500D01*
X143255070Y-86569500D01*
X143233848Y-86569500D01*
X143214449Y-86567973D01*
X143193489Y-86564653D01*
X143193488Y-86564653D01*
X143171451Y-86566736D01*
X143148032Y-86568950D01*
X143136363Y-86569500D01*
X141069808Y-86569500D01*
X141013513Y-86555985D01*
X140969490Y-86518385D01*
X140947335Y-86464898D01*
X140951877Y-86407182D01*
X140982127Y-86357819D01*
X141602861Y-85737084D01*
X141662949Y-85703874D01*
X141731497Y-85707724D01*
X141825342Y-85740562D01*
X141998997Y-85760128D01*
X141998998Y-85760127D01*
X141999000Y-85760128D01*
X142043923Y-85755066D01*
X142090304Y-85758621D01*
X142132115Y-85779019D01*
X142231411Y-85853352D01*
X142366124Y-85903597D01*
X142425676Y-85910000D01*
X142723500Y-85910000D01*
X142723500Y-85278301D01*
X142730459Y-85237346D01*
X142751995Y-85175800D01*
X142757524Y-85160000D01*
X143223500Y-85160000D01*
X143223500Y-85910000D01*
X143521324Y-85910000D01*
X143580875Y-85903597D01*
X143715589Y-85853352D01*
X143830688Y-85767188D01*
X143916852Y-85652089D01*
X143967097Y-85517375D01*
X143973500Y-85457824D01*
X143973500Y-85160000D01*
X143223500Y-85160000D01*
X142757524Y-85160000D01*
X142759841Y-85153378D01*
X142779407Y-84979721D01*
X142776165Y-84950944D01*
X142761793Y-84823383D01*
X142773293Y-84755698D01*
X142819041Y-84704506D01*
X142885013Y-84685500D01*
X145251653Y-84685500D01*
X145309595Y-84699870D01*
G37*
G04 #@! TD.AperFunction*
G04 #@! TA.AperFunction,Conductor*
G36*
X152094334Y-81364333D02*
G01*
X152138550Y-81402745D01*
X152160203Y-81457167D01*
X152154461Y-81515456D01*
X152121933Y-81608412D01*
X152102019Y-81644543D01*
X152090912Y-81654538D01*
X152091279Y-81654883D01*
X152032633Y-81717333D01*
X152029927Y-81720126D01*
X152009583Y-81740471D01*
X152006876Y-81743960D01*
X151999307Y-81752821D01*
X151968051Y-81786107D01*
X151957822Y-81804712D01*
X151947145Y-81820967D01*
X151934136Y-81837738D01*
X151916006Y-81879632D01*
X151910870Y-81890116D01*
X151888872Y-81930132D01*
X151883591Y-81950699D01*
X151877291Y-81969100D01*
X151868864Y-81988574D01*
X151861723Y-82033661D01*
X151859355Y-82045093D01*
X151855416Y-82060442D01*
X151851999Y-82073749D01*
X151824085Y-82125840D01*
X151775230Y-82159094D01*
X151756169Y-82166203D01*
X151640954Y-82252453D01*
X151554704Y-82367668D01*
X151504409Y-82502515D01*
X151504409Y-82502517D01*
X151498375Y-82558645D01*
X151498000Y-82562130D01*
X151498000Y-83657869D01*
X151504409Y-83717484D01*
X151545011Y-83826343D01*
X151554704Y-83852331D01*
X151617418Y-83936106D01*
X151639317Y-83984057D01*
X151639317Y-84036774D01*
X151617418Y-84084726D01*
X151555148Y-84167908D01*
X151504902Y-84302624D01*
X151498500Y-84362176D01*
X151498500Y-84660000D01*
X153498500Y-84660000D01*
X153498500Y-84362176D01*
X153492097Y-84302624D01*
X153441852Y-84167911D01*
X153379581Y-84084727D01*
X153357682Y-84036774D01*
X153357682Y-83984057D01*
X153379579Y-83936109D01*
X153442296Y-83852331D01*
X153492591Y-83717483D01*
X153499000Y-83657873D01*
X153498999Y-82562128D01*
X153492591Y-82502517D01*
X153458397Y-82410838D01*
X153450614Y-82364552D01*
X153460592Y-82318689D01*
X153486896Y-82279826D01*
X153490147Y-82276576D01*
X153583122Y-82128606D01*
X153640841Y-81963657D01*
X153660407Y-81790000D01*
X153659020Y-81777694D01*
X153652534Y-81720126D01*
X153640841Y-81616343D01*
X153605537Y-81515454D01*
X153599798Y-81457166D01*
X153621450Y-81402745D01*
X153665666Y-81364333D01*
X153722580Y-81350500D01*
X165319014Y-81350500D01*
X165382015Y-81367697D01*
X165427542Y-81414519D01*
X165442965Y-81477978D01*
X165424008Y-81540470D01*
X165405394Y-81570094D01*
X165366876Y-81631396D01*
X165309158Y-81796342D01*
X165289592Y-81969999D01*
X165309158Y-82143653D01*
X165309158Y-82143655D01*
X165309159Y-82143657D01*
X165317049Y-82166204D01*
X165368948Y-82314522D01*
X165375900Y-82356741D01*
X165368088Y-82398809D01*
X165329409Y-82502512D01*
X165327096Y-82524028D01*
X165323375Y-82558645D01*
X165323000Y-82562131D01*
X165323000Y-83108301D01*
X165308630Y-83166242D01*
X165268852Y-83210755D01*
X165212883Y-83231521D01*
X165056343Y-83249158D01*
X164891393Y-83306877D01*
X164743423Y-83399852D01*
X164619852Y-83523423D01*
X164526877Y-83671393D01*
X164469158Y-83836342D01*
X164449592Y-84010000D01*
X164469158Y-84183657D01*
X164526877Y-84348606D01*
X164560494Y-84402107D01*
X164579500Y-84468078D01*
X164579500Y-84604495D01*
X164577158Y-84625704D01*
X164579439Y-84698262D01*
X164579500Y-84702157D01*
X164579500Y-84730926D01*
X164580053Y-84735307D01*
X164580968Y-84746940D01*
X164582402Y-84792569D01*
X164588323Y-84812950D01*
X164592267Y-84831995D01*
X164594928Y-84853059D01*
X164611737Y-84895515D01*
X164615520Y-84906563D01*
X164628256Y-84950400D01*
X164639061Y-84968670D01*
X164647621Y-84986143D01*
X164655431Y-85005869D01*
X164682267Y-85042808D01*
X164688673Y-85052560D01*
X164711919Y-85091865D01*
X164711921Y-85091867D01*
X164726925Y-85106871D01*
X164739562Y-85121667D01*
X164752037Y-85138837D01*
X164773836Y-85156871D01*
X164787212Y-85167936D01*
X164795854Y-85175800D01*
X164929564Y-85309510D01*
X164942912Y-85326169D01*
X164995831Y-85375864D01*
X164998628Y-85378575D01*
X165018961Y-85398908D01*
X165022442Y-85401608D01*
X165031325Y-85409194D01*
X165044817Y-85421864D01*
X165064607Y-85440448D01*
X165083206Y-85450673D01*
X165099466Y-85461354D01*
X165116236Y-85474362D01*
X165136046Y-85482934D01*
X165158129Y-85492491D01*
X165168620Y-85497630D01*
X165208632Y-85519627D01*
X165229196Y-85524906D01*
X165247601Y-85531208D01*
X165267074Y-85539635D01*
X165268435Y-85539850D01*
X165270613Y-85540196D01*
X165329708Y-85566675D01*
X165367396Y-85619334D01*
X165379702Y-85652328D01*
X165379703Y-85652330D01*
X165379704Y-85652331D01*
X165465954Y-85767546D01*
X165581169Y-85853796D01*
X165716017Y-85904091D01*
X165775627Y-85910500D01*
X166871372Y-85910499D01*
X166930983Y-85904091D01*
X167065831Y-85853796D01*
X167181046Y-85767546D01*
X167267296Y-85652331D01*
X167317591Y-85517483D01*
X167324000Y-85457873D01*
X167323999Y-84362128D01*
X167317591Y-84302517D01*
X167267296Y-84167669D01*
X167204892Y-84084308D01*
X167182994Y-84036357D01*
X167182994Y-83983640D01*
X167204891Y-83935692D01*
X167267296Y-83852331D01*
X167317591Y-83717483D01*
X167324000Y-83657873D01*
X167323999Y-82562128D01*
X167317591Y-82502517D01*
X167267296Y-82367669D01*
X167181046Y-82252454D01*
X167065831Y-82166204D01*
X167065830Y-82166203D01*
X167065828Y-82166202D01*
X167037574Y-82155664D01*
X166983690Y-82116455D01*
X166966005Y-82074347D01*
X166964338Y-82075008D01*
X166953730Y-82048215D01*
X166941764Y-82017992D01*
X166937983Y-82006948D01*
X166925245Y-81963104D01*
X166925244Y-81963103D01*
X166925244Y-81963101D01*
X166914434Y-81944822D01*
X166905880Y-81927362D01*
X166898068Y-81907629D01*
X166871223Y-81870680D01*
X166864822Y-81860934D01*
X166843204Y-81824378D01*
X166832896Y-81802214D01*
X166773123Y-81631396D01*
X166760833Y-81611836D01*
X166715991Y-81540470D01*
X166697035Y-81477978D01*
X166712458Y-81414519D01*
X166757985Y-81367697D01*
X166820986Y-81350500D01*
X168114486Y-81350500D01*
X168157789Y-81350500D01*
X168181972Y-81352881D01*
X168203018Y-81357067D01*
X168247719Y-81375584D01*
X168255206Y-81380587D01*
X168289412Y-81414793D01*
X168294415Y-81422280D01*
X168312931Y-81466979D01*
X168317117Y-81488022D01*
X168319500Y-81512211D01*
X168319500Y-81574856D01*
X168319544Y-81575138D01*
X168320976Y-83961163D01*
X168320999Y-84000280D01*
X168320895Y-84173657D01*
X168319544Y-86425218D01*
X168319500Y-86425506D01*
X168319500Y-86487789D01*
X168317117Y-86511976D01*
X168314388Y-86525700D01*
X168312932Y-86533020D01*
X168294415Y-86577719D01*
X168289412Y-86585206D01*
X168255206Y-86619412D01*
X168247719Y-86624415D01*
X168203020Y-86642931D01*
X168181976Y-86647117D01*
X168157789Y-86649500D01*
X159573711Y-86649500D01*
X159363760Y-86682752D01*
X159161587Y-86748443D01*
X158972181Y-86844950D01*
X158918123Y-86884226D01*
X158862323Y-86906724D01*
X158802501Y-86900309D01*
X158752740Y-86866490D01*
X158724756Y-86813229D01*
X158725135Y-86753067D01*
X158730500Y-86732177D01*
X158730500Y-86710955D01*
X158732027Y-86691556D01*
X158733421Y-86682752D01*
X158735347Y-86670595D01*
X158731049Y-86625136D01*
X158730500Y-86613469D01*
X158730500Y-85160000D01*
X161023500Y-85160000D01*
X161023500Y-85457824D01*
X161029902Y-85517375D01*
X161080147Y-85652089D01*
X161166311Y-85767188D01*
X161281410Y-85853352D01*
X161416124Y-85903597D01*
X161475676Y-85910000D01*
X161773500Y-85910000D01*
X161773500Y-85160000D01*
X162273500Y-85160000D01*
X162273500Y-85910000D01*
X162571324Y-85910000D01*
X162630875Y-85903597D01*
X162765589Y-85853352D01*
X162880688Y-85767188D01*
X162966852Y-85652089D01*
X163017097Y-85517375D01*
X163023500Y-85457824D01*
X163023500Y-85160000D01*
X162273500Y-85160000D01*
X161773500Y-85160000D01*
X161023500Y-85160000D01*
X158730500Y-85160000D01*
X158730500Y-83545505D01*
X158732841Y-83524294D01*
X158732537Y-83514626D01*
X158730561Y-83451724D01*
X158730500Y-83447829D01*
X158730500Y-83419082D01*
X158730500Y-83419075D01*
X158729947Y-83414700D01*
X158729031Y-83403063D01*
X158727598Y-83357431D01*
X158721675Y-83337045D01*
X158717731Y-83318004D01*
X158715071Y-83296942D01*
X158698267Y-83254501D01*
X158694484Y-83243452D01*
X158693237Y-83239159D01*
X158681745Y-83199602D01*
X158678594Y-83194275D01*
X158670937Y-83181326D01*
X158662376Y-83163850D01*
X158654568Y-83144129D01*
X158629771Y-83109999D01*
X160189592Y-83109999D01*
X160209158Y-83283657D01*
X160266877Y-83448606D01*
X160359852Y-83596576D01*
X160483423Y-83720147D01*
X160631393Y-83813122D01*
X160796342Y-83870841D01*
X160969998Y-83890407D01*
X160969999Y-83890406D01*
X160970000Y-83890407D01*
X161026872Y-83883999D01*
X161089956Y-83893397D01*
X161140023Y-83932907D01*
X161142417Y-83936105D01*
X161142418Y-83936106D01*
X161164317Y-83984059D01*
X161164317Y-84036775D01*
X161142418Y-84084728D01*
X161080147Y-84167910D01*
X161029902Y-84302624D01*
X161023500Y-84362176D01*
X161023500Y-84660000D01*
X163023500Y-84660000D01*
X163023500Y-84362176D01*
X163017097Y-84302624D01*
X162966852Y-84167911D01*
X162904581Y-84084727D01*
X162882682Y-84036774D01*
X162882682Y-83984057D01*
X162904579Y-83936109D01*
X162967296Y-83852331D01*
X163017591Y-83717483D01*
X163024000Y-83657873D01*
X163023999Y-82562128D01*
X163017591Y-82502517D01*
X162967296Y-82367669D01*
X162881046Y-82252454D01*
X162765831Y-82166204D01*
X162630983Y-82115909D01*
X162571373Y-82109500D01*
X162571369Y-82109500D01*
X161475630Y-82109500D01*
X161416015Y-82115909D01*
X161281169Y-82166204D01*
X161165952Y-82252454D01*
X161140023Y-82287092D01*
X161089956Y-82326602D01*
X161026874Y-82336000D01*
X160970000Y-82329592D01*
X160796342Y-82349158D01*
X160631393Y-82406877D01*
X160483423Y-82499852D01*
X160359852Y-82623423D01*
X160266877Y-82771393D01*
X160209158Y-82936342D01*
X160189592Y-83109999D01*
X158629771Y-83109999D01*
X158627731Y-83107191D01*
X158621317Y-83097425D01*
X158598081Y-83058135D01*
X158583074Y-83043128D01*
X158570436Y-83028331D01*
X158557963Y-83011163D01*
X158522779Y-82982056D01*
X158514140Y-82974194D01*
X158250434Y-82710488D01*
X158237091Y-82693833D01*
X158184166Y-82644134D01*
X158181369Y-82641423D01*
X158161034Y-82621088D01*
X158157547Y-82618383D01*
X158148671Y-82610801D01*
X158115394Y-82579552D01*
X158096793Y-82569326D01*
X158080532Y-82558645D01*
X158063764Y-82545638D01*
X158040177Y-82535431D01*
X158021869Y-82527508D01*
X158011379Y-82522369D01*
X157971367Y-82500372D01*
X157950800Y-82495091D01*
X157932398Y-82488791D01*
X157912924Y-82480364D01*
X157867837Y-82473223D01*
X157856406Y-82470856D01*
X157835486Y-82465484D01*
X157783397Y-82437569D01*
X157750144Y-82388712D01*
X157747295Y-82381073D01*
X157742296Y-82367669D01*
X157656046Y-82252454D01*
X157540831Y-82166204D01*
X157405983Y-82115909D01*
X157346373Y-82109500D01*
X157346369Y-82109500D01*
X156250630Y-82109500D01*
X156191015Y-82115909D01*
X156056169Y-82166204D01*
X155940954Y-82252454D01*
X155854704Y-82367668D01*
X155804409Y-82502515D01*
X155804409Y-82502517D01*
X155798375Y-82558645D01*
X155798000Y-82562130D01*
X155798000Y-83657869D01*
X155804409Y-83717484D01*
X155829556Y-83784906D01*
X155854704Y-83852331D01*
X155917106Y-83935689D01*
X155939005Y-83983642D01*
X155939005Y-84036358D01*
X155917106Y-84084310D01*
X155897502Y-84110499D01*
X155854703Y-84167671D01*
X155850539Y-84178835D01*
X155824100Y-84221071D01*
X155783170Y-84249488D01*
X155734358Y-84259500D01*
X155559925Y-84259500D01*
X155493953Y-84240494D01*
X155448205Y-84189302D01*
X155436705Y-84121617D01*
X155450407Y-84000000D01*
X155430841Y-83826342D01*
X155373122Y-83661393D01*
X155280147Y-83513423D01*
X155156576Y-83389852D01*
X155008606Y-83296877D01*
X154843657Y-83239158D01*
X154670000Y-83219592D01*
X154496342Y-83239158D01*
X154331393Y-83296877D01*
X154183423Y-83389852D01*
X154059852Y-83513423D01*
X153966877Y-83661393D01*
X153909158Y-83826342D01*
X153889592Y-84000000D01*
X153909158Y-84173657D01*
X153966877Y-84338606D01*
X154000494Y-84392107D01*
X154019500Y-84458078D01*
X154019500Y-84654495D01*
X154017158Y-84675704D01*
X154019439Y-84748262D01*
X154019500Y-84752157D01*
X154019500Y-84780926D01*
X154020053Y-84785307D01*
X154020968Y-84796940D01*
X154022402Y-84842569D01*
X154028323Y-84862950D01*
X154032267Y-84881995D01*
X154034928Y-84903059D01*
X154051737Y-84945515D01*
X154055520Y-84956563D01*
X154068256Y-85000400D01*
X154079061Y-85018670D01*
X154087621Y-85036143D01*
X154095431Y-85055869D01*
X154122267Y-85092808D01*
X154128673Y-85102560D01*
X154151919Y-85141865D01*
X154151921Y-85141867D01*
X154166925Y-85156871D01*
X154179564Y-85171669D01*
X154192037Y-85188837D01*
X154227212Y-85217936D01*
X154235854Y-85225800D01*
X154319564Y-85309510D01*
X154332912Y-85326169D01*
X154385831Y-85375864D01*
X154388628Y-85378575D01*
X154408961Y-85398908D01*
X154412442Y-85401608D01*
X154421325Y-85409194D01*
X154454607Y-85440448D01*
X154465251Y-85446299D01*
X154473204Y-85450672D01*
X154489464Y-85461352D01*
X154506236Y-85474362D01*
X154548140Y-85492495D01*
X154558620Y-85497629D01*
X154598632Y-85519627D01*
X154619195Y-85524906D01*
X154637598Y-85531207D01*
X154657073Y-85539635D01*
X154702175Y-85546778D01*
X154713570Y-85549137D01*
X154757823Y-85560500D01*
X154779051Y-85560500D01*
X154798449Y-85562026D01*
X154819405Y-85565346D01*
X154864851Y-85561050D01*
X154876521Y-85560500D01*
X155734358Y-85560500D01*
X155783170Y-85570512D01*
X155824100Y-85598929D01*
X155850539Y-85641165D01*
X155854704Y-85652331D01*
X155940954Y-85767546D01*
X156056169Y-85853796D01*
X156191017Y-85904091D01*
X156250627Y-85910500D01*
X157305500Y-85910499D01*
X157367500Y-85927112D01*
X157412887Y-85972499D01*
X157429500Y-86034499D01*
X157429500Y-86295500D01*
X157412887Y-86357500D01*
X157367500Y-86402887D01*
X157305500Y-86419500D01*
X154075505Y-86419500D01*
X154054294Y-86417158D01*
X153981724Y-86419439D01*
X153977829Y-86419500D01*
X153949074Y-86419500D01*
X153944701Y-86420052D01*
X153933069Y-86420967D01*
X153887428Y-86422401D01*
X153867041Y-86428324D01*
X153847998Y-86432268D01*
X153826942Y-86434928D01*
X153784496Y-86451733D01*
X153773450Y-86455514D01*
X153729602Y-86468254D01*
X153711324Y-86479063D01*
X153693861Y-86487618D01*
X153674130Y-86495431D01*
X153637187Y-86522270D01*
X153627428Y-86528680D01*
X153588135Y-86551918D01*
X153573125Y-86566928D01*
X153558336Y-86579558D01*
X153541162Y-86592036D01*
X153512055Y-86627219D01*
X153504195Y-86635857D01*
X153336870Y-86803183D01*
X153296645Y-86830061D01*
X153249192Y-86839500D01*
X152996519Y-86839500D01*
X152949066Y-86830061D01*
X152908840Y-86803183D01*
X152800185Y-86694528D01*
X152800184Y-86694527D01*
X152676901Y-86620000D01*
X152654606Y-86606522D01*
X152492196Y-86555914D01*
X152492193Y-86555913D01*
X152421617Y-86549500D01*
X152421616Y-86549500D01*
X151758384Y-86549500D01*
X151758383Y-86549500D01*
X151687806Y-86555913D01*
X151617828Y-86577719D01*
X151525394Y-86606522D01*
X151525392Y-86606522D01*
X151525392Y-86606523D01*
X151378650Y-86695232D01*
X151316373Y-86713101D01*
X151253584Y-86697121D01*
X151207426Y-86651655D01*
X151190500Y-86589115D01*
X151190500Y-85160000D01*
X151498500Y-85160000D01*
X151498500Y-85457824D01*
X151504902Y-85517375D01*
X151555147Y-85652089D01*
X151641311Y-85767188D01*
X151756410Y-85853352D01*
X151891124Y-85903597D01*
X151950676Y-85910000D01*
X152248500Y-85910000D01*
X152248500Y-85160000D01*
X152748500Y-85160000D01*
X152748500Y-85910000D01*
X153046324Y-85910000D01*
X153105875Y-85903597D01*
X153240589Y-85853352D01*
X153355688Y-85767188D01*
X153441852Y-85652089D01*
X153492097Y-85517375D01*
X153498500Y-85457824D01*
X153498500Y-85160000D01*
X152748500Y-85160000D01*
X152248500Y-85160000D01*
X151498500Y-85160000D01*
X151190500Y-85160000D01*
X151190500Y-84495504D01*
X151192841Y-84474294D01*
X151192331Y-84458078D01*
X151190560Y-84401736D01*
X151190500Y-84397842D01*
X151190500Y-84369081D01*
X151190500Y-84369075D01*
X151189946Y-84364695D01*
X151189030Y-84353054D01*
X151187597Y-84307431D01*
X151181675Y-84287048D01*
X151177732Y-84268011D01*
X151175071Y-84246942D01*
X151158263Y-84204491D01*
X151154480Y-84193442D01*
X151141744Y-84149602D01*
X151130937Y-84131329D01*
X151122382Y-84113866D01*
X151114568Y-84094129D01*
X151087733Y-84057193D01*
X151081325Y-84047436D01*
X151058084Y-84008138D01*
X151058081Y-84008135D01*
X151043068Y-83993122D01*
X151030435Y-83978330D01*
X151017963Y-83961163D01*
X150982779Y-83932056D01*
X150974140Y-83924194D01*
X150685434Y-83635488D01*
X150672091Y-83618833D01*
X150619166Y-83569134D01*
X150616369Y-83566423D01*
X150596034Y-83546088D01*
X150592547Y-83543383D01*
X150583671Y-83535801D01*
X150550394Y-83504552D01*
X150531793Y-83494326D01*
X150515532Y-83483645D01*
X150498764Y-83470638D01*
X150456870Y-83452508D01*
X150446379Y-83447369D01*
X150406367Y-83425372D01*
X150385800Y-83420091D01*
X150367398Y-83413791D01*
X150347924Y-83405364D01*
X150302837Y-83398223D01*
X150291398Y-83395854D01*
X150247178Y-83384500D01*
X150247177Y-83384500D01*
X150225955Y-83384500D01*
X150206556Y-83382973D01*
X150185596Y-83379653D01*
X150185595Y-83379653D01*
X150163558Y-83381736D01*
X150140139Y-83383950D01*
X150128470Y-83384500D01*
X148398000Y-83384500D01*
X148336000Y-83367887D01*
X148290613Y-83322500D01*
X148274000Y-83260500D01*
X148273999Y-82562130D01*
X148273999Y-82562127D01*
X148267591Y-82502517D01*
X148217296Y-82367669D01*
X148131046Y-82252454D01*
X148015831Y-82166204D01*
X147972194Y-82149928D01*
X147928727Y-82122299D01*
X147900237Y-82079394D01*
X147891767Y-82058001D01*
X147887984Y-82046952D01*
X147875245Y-82003102D01*
X147868047Y-81990931D01*
X147864437Y-81984826D01*
X147855876Y-81967350D01*
X147848068Y-81947629D01*
X147821231Y-81910691D01*
X147814817Y-81900925D01*
X147791581Y-81861635D01*
X147776574Y-81846628D01*
X147763936Y-81831831D01*
X147755340Y-81820000D01*
X147751463Y-81814663D01*
X147716279Y-81785556D01*
X147707640Y-81777694D01*
X147492127Y-81562181D01*
X147461877Y-81512818D01*
X147457335Y-81455102D01*
X147479490Y-81401615D01*
X147523513Y-81364015D01*
X147579808Y-81350500D01*
X152037420Y-81350500D01*
X152094334Y-81364333D01*
G37*
G04 #@! TD.AperFunction*
M02*
