%TF.GenerationSoftware,KiCad,Pcbnew,7.0.1*%
%TF.CreationDate,2023-11-28T21:46:45+01:00*%
%TF.ProjectId,Qtr-8-SN,5174722d-382d-4534-9e2e-6b696361645f,rev?*%
%TF.SameCoordinates,Original*%
%TF.FileFunction,Drillmap*%
%TF.FilePolarity,Positive*%
%FSLAX45Y45*%
G04 Gerber Fmt 4.5, Leading zero omitted, Abs format (unit mm)*
G04 Created by KiCad (PCBNEW 7.0.1) date 2023-11-28 21:46:45*
%MOMM*%
%LPD*%
G01*
G04 APERTURE LIST*
%ADD10C,0.150000*%
%ADD11C,0.200000*%
%ADD12C,0.210000*%
G04 APERTURE END LIST*
D10*
X5029200Y-12798120D02*
X5029260Y-13280560D01*
X5129200Y-12698120D02*
G75*
G03*
X5029200Y-12798120I0J-100000D01*
G01*
X5129200Y-12698120D02*
X13396760Y-12697120D01*
X12711360Y-13979560D02*
X13396760Y-13979560D01*
X5029260Y-13880560D02*
G75*
G03*
X5129260Y-13980560I100000J0D01*
G01*
X13496760Y-13279560D02*
X13496760Y-13879560D01*
X12477610Y-13979560D02*
G75*
G03*
X12127610Y-14329560I0J-350000D01*
G01*
X6048410Y-13979560D02*
X5814660Y-13979560D01*
X13396760Y-13979560D02*
G75*
G03*
X13496760Y-13879560I0J100000D01*
G01*
X6398410Y-14679560D02*
X6398410Y-14329560D01*
X12711360Y-13979560D02*
X12477610Y-13979560D01*
X6398410Y-14329560D02*
G75*
G03*
X6048410Y-13979560I-350000J0D01*
G01*
X13496760Y-12797120D02*
X13496760Y-13279560D01*
X6398410Y-14679560D02*
G75*
G03*
X7098410Y-14679560I350000J0D01*
G01*
X11427610Y-14679560D02*
X7098410Y-14679560D01*
X5029260Y-13280560D02*
X5029260Y-13880560D01*
X12127610Y-14679560D02*
X12127610Y-14329560D01*
X13496760Y-12797120D02*
G75*
G03*
X13396760Y-12697120I-100000J0D01*
G01*
X5814660Y-13979560D02*
X5129260Y-13980560D01*
X11427610Y-14679560D02*
G75*
G03*
X12127610Y-14679560I350000J0D01*
G01*
D11*
D12*
X6643410Y-14574560D02*
X6853410Y-14784560D01*
X6853410Y-14574560D02*
X6643410Y-14784560D01*
X11672610Y-14574560D02*
X11882610Y-14784560D01*
X11882610Y-14574560D02*
X11672610Y-14784560D01*
D11*
X5269319Y-15349584D02*
X5269319Y-15149584D01*
X5269319Y-15149584D02*
X5316938Y-15149584D01*
X5316938Y-15149584D02*
X5345510Y-15159108D01*
X5345510Y-15159108D02*
X5364557Y-15178155D01*
X5364557Y-15178155D02*
X5374081Y-15197203D01*
X5374081Y-15197203D02*
X5383605Y-15235298D01*
X5383605Y-15235298D02*
X5383605Y-15263869D01*
X5383605Y-15263869D02*
X5374081Y-15301965D01*
X5374081Y-15301965D02*
X5364557Y-15321012D01*
X5364557Y-15321012D02*
X5345510Y-15340060D01*
X5345510Y-15340060D02*
X5316938Y-15349584D01*
X5316938Y-15349584D02*
X5269319Y-15349584D01*
X5469319Y-15349584D02*
X5469319Y-15216250D01*
X5469319Y-15254346D02*
X5478843Y-15235298D01*
X5478843Y-15235298D02*
X5488367Y-15225774D01*
X5488367Y-15225774D02*
X5507414Y-15216250D01*
X5507414Y-15216250D02*
X5526462Y-15216250D01*
X5593128Y-15349584D02*
X5593128Y-15216250D01*
X5593128Y-15149584D02*
X5583605Y-15159108D01*
X5583605Y-15159108D02*
X5593128Y-15168631D01*
X5593128Y-15168631D02*
X5602652Y-15159108D01*
X5602652Y-15159108D02*
X5593128Y-15149584D01*
X5593128Y-15149584D02*
X5593128Y-15168631D01*
X5716938Y-15349584D02*
X5697890Y-15340060D01*
X5697890Y-15340060D02*
X5688367Y-15321012D01*
X5688367Y-15321012D02*
X5688367Y-15149584D01*
X5821700Y-15349584D02*
X5802652Y-15340060D01*
X5802652Y-15340060D02*
X5793128Y-15321012D01*
X5793128Y-15321012D02*
X5793128Y-15149584D01*
X6050271Y-15349584D02*
X6050271Y-15149584D01*
X6050271Y-15149584D02*
X6116938Y-15292441D01*
X6116938Y-15292441D02*
X6183605Y-15149584D01*
X6183605Y-15149584D02*
X6183605Y-15349584D01*
X6364557Y-15349584D02*
X6364557Y-15244822D01*
X6364557Y-15244822D02*
X6355033Y-15225774D01*
X6355033Y-15225774D02*
X6335986Y-15216250D01*
X6335986Y-15216250D02*
X6297890Y-15216250D01*
X6297890Y-15216250D02*
X6278843Y-15225774D01*
X6364557Y-15340060D02*
X6345509Y-15349584D01*
X6345509Y-15349584D02*
X6297890Y-15349584D01*
X6297890Y-15349584D02*
X6278843Y-15340060D01*
X6278843Y-15340060D02*
X6269319Y-15321012D01*
X6269319Y-15321012D02*
X6269319Y-15301965D01*
X6269319Y-15301965D02*
X6278843Y-15282917D01*
X6278843Y-15282917D02*
X6297890Y-15273393D01*
X6297890Y-15273393D02*
X6345509Y-15273393D01*
X6345509Y-15273393D02*
X6364557Y-15263869D01*
X6459795Y-15216250D02*
X6459795Y-15416250D01*
X6459795Y-15225774D02*
X6478843Y-15216250D01*
X6478843Y-15216250D02*
X6516938Y-15216250D01*
X6516938Y-15216250D02*
X6535986Y-15225774D01*
X6535986Y-15225774D02*
X6545509Y-15235298D01*
X6545509Y-15235298D02*
X6555033Y-15254346D01*
X6555033Y-15254346D02*
X6555033Y-15311488D01*
X6555033Y-15311488D02*
X6545509Y-15330536D01*
X6545509Y-15330536D02*
X6535986Y-15340060D01*
X6535986Y-15340060D02*
X6516938Y-15349584D01*
X6516938Y-15349584D02*
X6478843Y-15349584D01*
X6478843Y-15349584D02*
X6459795Y-15340060D01*
X6640748Y-15330536D02*
X6650271Y-15340060D01*
X6650271Y-15340060D02*
X6640748Y-15349584D01*
X6640748Y-15349584D02*
X6631224Y-15340060D01*
X6631224Y-15340060D02*
X6640748Y-15330536D01*
X6640748Y-15330536D02*
X6640748Y-15349584D01*
X6640748Y-15225774D02*
X6650271Y-15235298D01*
X6650271Y-15235298D02*
X6640748Y-15244822D01*
X6640748Y-15244822D02*
X6631224Y-15235298D01*
X6631224Y-15235298D02*
X6640748Y-15225774D01*
X6640748Y-15225774D02*
X6640748Y-15244822D01*
X4821700Y-15577060D02*
X5021700Y-15777060D01*
X5021700Y-15577060D02*
X4821700Y-15777060D01*
X5259795Y-15588631D02*
X5269319Y-15579108D01*
X5269319Y-15579108D02*
X5288367Y-15569584D01*
X5288367Y-15569584D02*
X5335986Y-15569584D01*
X5335986Y-15569584D02*
X5355033Y-15579108D01*
X5355033Y-15579108D02*
X5364557Y-15588631D01*
X5364557Y-15588631D02*
X5374081Y-15607679D01*
X5374081Y-15607679D02*
X5374081Y-15626727D01*
X5374081Y-15626727D02*
X5364557Y-15655298D01*
X5364557Y-15655298D02*
X5250271Y-15769584D01*
X5250271Y-15769584D02*
X5374081Y-15769584D01*
X5459795Y-15750536D02*
X5469319Y-15760060D01*
X5469319Y-15760060D02*
X5459795Y-15769584D01*
X5459795Y-15769584D02*
X5450271Y-15760060D01*
X5450271Y-15760060D02*
X5459795Y-15750536D01*
X5459795Y-15750536D02*
X5459795Y-15769584D01*
X5659795Y-15769584D02*
X5545510Y-15769584D01*
X5602652Y-15769584D02*
X5602652Y-15569584D01*
X5602652Y-15569584D02*
X5583605Y-15598155D01*
X5583605Y-15598155D02*
X5564557Y-15617203D01*
X5564557Y-15617203D02*
X5545510Y-15626727D01*
X5783605Y-15569584D02*
X5802652Y-15569584D01*
X5802652Y-15569584D02*
X5821700Y-15579108D01*
X5821700Y-15579108D02*
X5831224Y-15588631D01*
X5831224Y-15588631D02*
X5840748Y-15607679D01*
X5840748Y-15607679D02*
X5850271Y-15645774D01*
X5850271Y-15645774D02*
X5850271Y-15693393D01*
X5850271Y-15693393D02*
X5840748Y-15731488D01*
X5840748Y-15731488D02*
X5831224Y-15750536D01*
X5831224Y-15750536D02*
X5821700Y-15760060D01*
X5821700Y-15760060D02*
X5802652Y-15769584D01*
X5802652Y-15769584D02*
X5783605Y-15769584D01*
X5783605Y-15769584D02*
X5764557Y-15760060D01*
X5764557Y-15760060D02*
X5755033Y-15750536D01*
X5755033Y-15750536D02*
X5745509Y-15731488D01*
X5745509Y-15731488D02*
X5735986Y-15693393D01*
X5735986Y-15693393D02*
X5735986Y-15645774D01*
X5735986Y-15645774D02*
X5745509Y-15607679D01*
X5745509Y-15607679D02*
X5755033Y-15588631D01*
X5755033Y-15588631D02*
X5764557Y-15579108D01*
X5764557Y-15579108D02*
X5783605Y-15569584D01*
X5974081Y-15569584D02*
X5993129Y-15569584D01*
X5993129Y-15569584D02*
X6012176Y-15579108D01*
X6012176Y-15579108D02*
X6021700Y-15588631D01*
X6021700Y-15588631D02*
X6031224Y-15607679D01*
X6031224Y-15607679D02*
X6040748Y-15645774D01*
X6040748Y-15645774D02*
X6040748Y-15693393D01*
X6040748Y-15693393D02*
X6031224Y-15731488D01*
X6031224Y-15731488D02*
X6021700Y-15750536D01*
X6021700Y-15750536D02*
X6012176Y-15760060D01*
X6012176Y-15760060D02*
X5993129Y-15769584D01*
X5993129Y-15769584D02*
X5974081Y-15769584D01*
X5974081Y-15769584D02*
X5955033Y-15760060D01*
X5955033Y-15760060D02*
X5945509Y-15750536D01*
X5945509Y-15750536D02*
X5935986Y-15731488D01*
X5935986Y-15731488D02*
X5926462Y-15693393D01*
X5926462Y-15693393D02*
X5926462Y-15645774D01*
X5926462Y-15645774D02*
X5935986Y-15607679D01*
X5935986Y-15607679D02*
X5945509Y-15588631D01*
X5945509Y-15588631D02*
X5955033Y-15579108D01*
X5955033Y-15579108D02*
X5974081Y-15569584D01*
X6126462Y-15769584D02*
X6126462Y-15636250D01*
X6126462Y-15655298D02*
X6135986Y-15645774D01*
X6135986Y-15645774D02*
X6155033Y-15636250D01*
X6155033Y-15636250D02*
X6183605Y-15636250D01*
X6183605Y-15636250D02*
X6202652Y-15645774D01*
X6202652Y-15645774D02*
X6212176Y-15664822D01*
X6212176Y-15664822D02*
X6212176Y-15769584D01*
X6212176Y-15664822D02*
X6221700Y-15645774D01*
X6221700Y-15645774D02*
X6240748Y-15636250D01*
X6240748Y-15636250D02*
X6269319Y-15636250D01*
X6269319Y-15636250D02*
X6288367Y-15645774D01*
X6288367Y-15645774D02*
X6297890Y-15664822D01*
X6297890Y-15664822D02*
X6297890Y-15769584D01*
X6393129Y-15769584D02*
X6393129Y-15636250D01*
X6393129Y-15655298D02*
X6402652Y-15645774D01*
X6402652Y-15645774D02*
X6421700Y-15636250D01*
X6421700Y-15636250D02*
X6450271Y-15636250D01*
X6450271Y-15636250D02*
X6469319Y-15645774D01*
X6469319Y-15645774D02*
X6478843Y-15664822D01*
X6478843Y-15664822D02*
X6478843Y-15769584D01*
X6478843Y-15664822D02*
X6488367Y-15645774D01*
X6488367Y-15645774D02*
X6507414Y-15636250D01*
X6507414Y-15636250D02*
X6535986Y-15636250D01*
X6535986Y-15636250D02*
X6555033Y-15645774D01*
X6555033Y-15645774D02*
X6564557Y-15664822D01*
X6564557Y-15664822D02*
X6564557Y-15769584D01*
X6955033Y-15560060D02*
X6783605Y-15817203D01*
X7212176Y-15569584D02*
X7231224Y-15569584D01*
X7231224Y-15569584D02*
X7250272Y-15579108D01*
X7250272Y-15579108D02*
X7259795Y-15588631D01*
X7259795Y-15588631D02*
X7269319Y-15607679D01*
X7269319Y-15607679D02*
X7278843Y-15645774D01*
X7278843Y-15645774D02*
X7278843Y-15693393D01*
X7278843Y-15693393D02*
X7269319Y-15731488D01*
X7269319Y-15731488D02*
X7259795Y-15750536D01*
X7259795Y-15750536D02*
X7250272Y-15760060D01*
X7250272Y-15760060D02*
X7231224Y-15769584D01*
X7231224Y-15769584D02*
X7212176Y-15769584D01*
X7212176Y-15769584D02*
X7193129Y-15760060D01*
X7193129Y-15760060D02*
X7183605Y-15750536D01*
X7183605Y-15750536D02*
X7174081Y-15731488D01*
X7174081Y-15731488D02*
X7164557Y-15693393D01*
X7164557Y-15693393D02*
X7164557Y-15645774D01*
X7164557Y-15645774D02*
X7174081Y-15607679D01*
X7174081Y-15607679D02*
X7183605Y-15588631D01*
X7183605Y-15588631D02*
X7193129Y-15579108D01*
X7193129Y-15579108D02*
X7212176Y-15569584D01*
X7364557Y-15750536D02*
X7374081Y-15760060D01*
X7374081Y-15760060D02*
X7364557Y-15769584D01*
X7364557Y-15769584D02*
X7355033Y-15760060D01*
X7355033Y-15760060D02*
X7364557Y-15750536D01*
X7364557Y-15750536D02*
X7364557Y-15769584D01*
X7497891Y-15569584D02*
X7516938Y-15569584D01*
X7516938Y-15569584D02*
X7535986Y-15579108D01*
X7535986Y-15579108D02*
X7545510Y-15588631D01*
X7545510Y-15588631D02*
X7555033Y-15607679D01*
X7555033Y-15607679D02*
X7564557Y-15645774D01*
X7564557Y-15645774D02*
X7564557Y-15693393D01*
X7564557Y-15693393D02*
X7555033Y-15731488D01*
X7555033Y-15731488D02*
X7545510Y-15750536D01*
X7545510Y-15750536D02*
X7535986Y-15760060D01*
X7535986Y-15760060D02*
X7516938Y-15769584D01*
X7516938Y-15769584D02*
X7497891Y-15769584D01*
X7497891Y-15769584D02*
X7478843Y-15760060D01*
X7478843Y-15760060D02*
X7469319Y-15750536D01*
X7469319Y-15750536D02*
X7459795Y-15731488D01*
X7459795Y-15731488D02*
X7450272Y-15693393D01*
X7450272Y-15693393D02*
X7450272Y-15645774D01*
X7450272Y-15645774D02*
X7459795Y-15607679D01*
X7459795Y-15607679D02*
X7469319Y-15588631D01*
X7469319Y-15588631D02*
X7478843Y-15579108D01*
X7478843Y-15579108D02*
X7497891Y-15569584D01*
X7678843Y-15655298D02*
X7659795Y-15645774D01*
X7659795Y-15645774D02*
X7650272Y-15636250D01*
X7650272Y-15636250D02*
X7640748Y-15617203D01*
X7640748Y-15617203D02*
X7640748Y-15607679D01*
X7640748Y-15607679D02*
X7650272Y-15588631D01*
X7650272Y-15588631D02*
X7659795Y-15579108D01*
X7659795Y-15579108D02*
X7678843Y-15569584D01*
X7678843Y-15569584D02*
X7716938Y-15569584D01*
X7716938Y-15569584D02*
X7735986Y-15579108D01*
X7735986Y-15579108D02*
X7745510Y-15588631D01*
X7745510Y-15588631D02*
X7755033Y-15607679D01*
X7755033Y-15607679D02*
X7755033Y-15617203D01*
X7755033Y-15617203D02*
X7745510Y-15636250D01*
X7745510Y-15636250D02*
X7735986Y-15645774D01*
X7735986Y-15645774D02*
X7716938Y-15655298D01*
X7716938Y-15655298D02*
X7678843Y-15655298D01*
X7678843Y-15655298D02*
X7659795Y-15664822D01*
X7659795Y-15664822D02*
X7650272Y-15674346D01*
X7650272Y-15674346D02*
X7640748Y-15693393D01*
X7640748Y-15693393D02*
X7640748Y-15731488D01*
X7640748Y-15731488D02*
X7650272Y-15750536D01*
X7650272Y-15750536D02*
X7659795Y-15760060D01*
X7659795Y-15760060D02*
X7678843Y-15769584D01*
X7678843Y-15769584D02*
X7716938Y-15769584D01*
X7716938Y-15769584D02*
X7735986Y-15760060D01*
X7735986Y-15760060D02*
X7745510Y-15750536D01*
X7745510Y-15750536D02*
X7755033Y-15731488D01*
X7755033Y-15731488D02*
X7755033Y-15693393D01*
X7755033Y-15693393D02*
X7745510Y-15674346D01*
X7745510Y-15674346D02*
X7735986Y-15664822D01*
X7735986Y-15664822D02*
X7716938Y-15655298D01*
X7831224Y-15588631D02*
X7840748Y-15579108D01*
X7840748Y-15579108D02*
X7859795Y-15569584D01*
X7859795Y-15569584D02*
X7907414Y-15569584D01*
X7907414Y-15569584D02*
X7926462Y-15579108D01*
X7926462Y-15579108D02*
X7935986Y-15588631D01*
X7935986Y-15588631D02*
X7945510Y-15607679D01*
X7945510Y-15607679D02*
X7945510Y-15626727D01*
X7945510Y-15626727D02*
X7935986Y-15655298D01*
X7935986Y-15655298D02*
X7821700Y-15769584D01*
X7821700Y-15769584D02*
X7945510Y-15769584D01*
X8012176Y-15569584D02*
X8145510Y-15569584D01*
X8145510Y-15569584D02*
X8059795Y-15769584D01*
X8212176Y-15569584D02*
X8212176Y-15607679D01*
X8288367Y-15569584D02*
X8288367Y-15607679D01*
X8583605Y-15845774D02*
X8574081Y-15836250D01*
X8574081Y-15836250D02*
X8555034Y-15807679D01*
X8555034Y-15807679D02*
X8545510Y-15788631D01*
X8545510Y-15788631D02*
X8535986Y-15760060D01*
X8535986Y-15760060D02*
X8526462Y-15712441D01*
X8526462Y-15712441D02*
X8526462Y-15674346D01*
X8526462Y-15674346D02*
X8535986Y-15626727D01*
X8535986Y-15626727D02*
X8545510Y-15598155D01*
X8545510Y-15598155D02*
X8555034Y-15579108D01*
X8555034Y-15579108D02*
X8574081Y-15550536D01*
X8574081Y-15550536D02*
X8583605Y-15541012D01*
X8650272Y-15588631D02*
X8659796Y-15579108D01*
X8659796Y-15579108D02*
X8678843Y-15569584D01*
X8678843Y-15569584D02*
X8726462Y-15569584D01*
X8726462Y-15569584D02*
X8745510Y-15579108D01*
X8745510Y-15579108D02*
X8755034Y-15588631D01*
X8755034Y-15588631D02*
X8764557Y-15607679D01*
X8764557Y-15607679D02*
X8764557Y-15626727D01*
X8764557Y-15626727D02*
X8755034Y-15655298D01*
X8755034Y-15655298D02*
X8640748Y-15769584D01*
X8640748Y-15769584D02*
X8764557Y-15769584D01*
X9002653Y-15769584D02*
X9002653Y-15569584D01*
X9088367Y-15769584D02*
X9088367Y-15664822D01*
X9088367Y-15664822D02*
X9078843Y-15645774D01*
X9078843Y-15645774D02*
X9059796Y-15636250D01*
X9059796Y-15636250D02*
X9031224Y-15636250D01*
X9031224Y-15636250D02*
X9012177Y-15645774D01*
X9012177Y-15645774D02*
X9002653Y-15655298D01*
X9212177Y-15769584D02*
X9193129Y-15760060D01*
X9193129Y-15760060D02*
X9183605Y-15750536D01*
X9183605Y-15750536D02*
X9174081Y-15731488D01*
X9174081Y-15731488D02*
X9174081Y-15674346D01*
X9174081Y-15674346D02*
X9183605Y-15655298D01*
X9183605Y-15655298D02*
X9193129Y-15645774D01*
X9193129Y-15645774D02*
X9212177Y-15636250D01*
X9212177Y-15636250D02*
X9240748Y-15636250D01*
X9240748Y-15636250D02*
X9259796Y-15645774D01*
X9259796Y-15645774D02*
X9269319Y-15655298D01*
X9269319Y-15655298D02*
X9278843Y-15674346D01*
X9278843Y-15674346D02*
X9278843Y-15731488D01*
X9278843Y-15731488D02*
X9269319Y-15750536D01*
X9269319Y-15750536D02*
X9259796Y-15760060D01*
X9259796Y-15760060D02*
X9240748Y-15769584D01*
X9240748Y-15769584D02*
X9212177Y-15769584D01*
X9393129Y-15769584D02*
X9374081Y-15760060D01*
X9374081Y-15760060D02*
X9364558Y-15741012D01*
X9364558Y-15741012D02*
X9364558Y-15569584D01*
X9545510Y-15760060D02*
X9526462Y-15769584D01*
X9526462Y-15769584D02*
X9488367Y-15769584D01*
X9488367Y-15769584D02*
X9469319Y-15760060D01*
X9469319Y-15760060D02*
X9459796Y-15741012D01*
X9459796Y-15741012D02*
X9459796Y-15664822D01*
X9459796Y-15664822D02*
X9469319Y-15645774D01*
X9469319Y-15645774D02*
X9488367Y-15636250D01*
X9488367Y-15636250D02*
X9526462Y-15636250D01*
X9526462Y-15636250D02*
X9545510Y-15645774D01*
X9545510Y-15645774D02*
X9555034Y-15664822D01*
X9555034Y-15664822D02*
X9555034Y-15683869D01*
X9555034Y-15683869D02*
X9459796Y-15702917D01*
X9631224Y-15760060D02*
X9650272Y-15769584D01*
X9650272Y-15769584D02*
X9688367Y-15769584D01*
X9688367Y-15769584D02*
X9707415Y-15760060D01*
X9707415Y-15760060D02*
X9716939Y-15741012D01*
X9716939Y-15741012D02*
X9716939Y-15731488D01*
X9716939Y-15731488D02*
X9707415Y-15712441D01*
X9707415Y-15712441D02*
X9688367Y-15702917D01*
X9688367Y-15702917D02*
X9659796Y-15702917D01*
X9659796Y-15702917D02*
X9640748Y-15693393D01*
X9640748Y-15693393D02*
X9631224Y-15674346D01*
X9631224Y-15674346D02*
X9631224Y-15664822D01*
X9631224Y-15664822D02*
X9640748Y-15645774D01*
X9640748Y-15645774D02*
X9659796Y-15636250D01*
X9659796Y-15636250D02*
X9688367Y-15636250D01*
X9688367Y-15636250D02*
X9707415Y-15645774D01*
X9783605Y-15845774D02*
X9793129Y-15836250D01*
X9793129Y-15836250D02*
X9812177Y-15807679D01*
X9812177Y-15807679D02*
X9821700Y-15788631D01*
X9821700Y-15788631D02*
X9831224Y-15760060D01*
X9831224Y-15760060D02*
X9840748Y-15712441D01*
X9840748Y-15712441D02*
X9840748Y-15674346D01*
X9840748Y-15674346D02*
X9831224Y-15626727D01*
X9831224Y-15626727D02*
X9821700Y-15598155D01*
X9821700Y-15598155D02*
X9812177Y-15579108D01*
X9812177Y-15579108D02*
X9793129Y-15550536D01*
X9793129Y-15550536D02*
X9783605Y-15541012D01*
X10145510Y-15845774D02*
X10135986Y-15836250D01*
X10135986Y-15836250D02*
X10116939Y-15807679D01*
X10116939Y-15807679D02*
X10107415Y-15788631D01*
X10107415Y-15788631D02*
X10097891Y-15760060D01*
X10097891Y-15760060D02*
X10088367Y-15712441D01*
X10088367Y-15712441D02*
X10088367Y-15674346D01*
X10088367Y-15674346D02*
X10097891Y-15626727D01*
X10097891Y-15626727D02*
X10107415Y-15598155D01*
X10107415Y-15598155D02*
X10116939Y-15579108D01*
X10116939Y-15579108D02*
X10135986Y-15550536D01*
X10135986Y-15550536D02*
X10145510Y-15541012D01*
X10221700Y-15636250D02*
X10221700Y-15769584D01*
X10221700Y-15655298D02*
X10231224Y-15645774D01*
X10231224Y-15645774D02*
X10250272Y-15636250D01*
X10250272Y-15636250D02*
X10278843Y-15636250D01*
X10278843Y-15636250D02*
X10297891Y-15645774D01*
X10297891Y-15645774D02*
X10307415Y-15664822D01*
X10307415Y-15664822D02*
X10307415Y-15769584D01*
X10431224Y-15769584D02*
X10412177Y-15760060D01*
X10412177Y-15760060D02*
X10402653Y-15750536D01*
X10402653Y-15750536D02*
X10393129Y-15731488D01*
X10393129Y-15731488D02*
X10393129Y-15674346D01*
X10393129Y-15674346D02*
X10402653Y-15655298D01*
X10402653Y-15655298D02*
X10412177Y-15645774D01*
X10412177Y-15645774D02*
X10431224Y-15636250D01*
X10431224Y-15636250D02*
X10459796Y-15636250D01*
X10459796Y-15636250D02*
X10478843Y-15645774D01*
X10478843Y-15645774D02*
X10488367Y-15655298D01*
X10488367Y-15655298D02*
X10497891Y-15674346D01*
X10497891Y-15674346D02*
X10497891Y-15731488D01*
X10497891Y-15731488D02*
X10488367Y-15750536D01*
X10488367Y-15750536D02*
X10478843Y-15760060D01*
X10478843Y-15760060D02*
X10459796Y-15769584D01*
X10459796Y-15769584D02*
X10431224Y-15769584D01*
X10555034Y-15636250D02*
X10631224Y-15636250D01*
X10583605Y-15569584D02*
X10583605Y-15741012D01*
X10583605Y-15741012D02*
X10593129Y-15760060D01*
X10593129Y-15760060D02*
X10612177Y-15769584D01*
X10612177Y-15769584D02*
X10631224Y-15769584D01*
X10850272Y-15636250D02*
X10850272Y-15836250D01*
X10850272Y-15645774D02*
X10869320Y-15636250D01*
X10869320Y-15636250D02*
X10907415Y-15636250D01*
X10907415Y-15636250D02*
X10926462Y-15645774D01*
X10926462Y-15645774D02*
X10935986Y-15655298D01*
X10935986Y-15655298D02*
X10945510Y-15674346D01*
X10945510Y-15674346D02*
X10945510Y-15731488D01*
X10945510Y-15731488D02*
X10935986Y-15750536D01*
X10935986Y-15750536D02*
X10926462Y-15760060D01*
X10926462Y-15760060D02*
X10907415Y-15769584D01*
X10907415Y-15769584D02*
X10869320Y-15769584D01*
X10869320Y-15769584D02*
X10850272Y-15760060D01*
X11059796Y-15769584D02*
X11040748Y-15760060D01*
X11040748Y-15760060D02*
X11031224Y-15741012D01*
X11031224Y-15741012D02*
X11031224Y-15569584D01*
X11221700Y-15769584D02*
X11221700Y-15664822D01*
X11221700Y-15664822D02*
X11212177Y-15645774D01*
X11212177Y-15645774D02*
X11193129Y-15636250D01*
X11193129Y-15636250D02*
X11155034Y-15636250D01*
X11155034Y-15636250D02*
X11135986Y-15645774D01*
X11221700Y-15760060D02*
X11202653Y-15769584D01*
X11202653Y-15769584D02*
X11155034Y-15769584D01*
X11155034Y-15769584D02*
X11135986Y-15760060D01*
X11135986Y-15760060D02*
X11126462Y-15741012D01*
X11126462Y-15741012D02*
X11126462Y-15721965D01*
X11126462Y-15721965D02*
X11135986Y-15702917D01*
X11135986Y-15702917D02*
X11155034Y-15693393D01*
X11155034Y-15693393D02*
X11202653Y-15693393D01*
X11202653Y-15693393D02*
X11221700Y-15683869D01*
X11288367Y-15636250D02*
X11364558Y-15636250D01*
X11316939Y-15569584D02*
X11316939Y-15741012D01*
X11316939Y-15741012D02*
X11326462Y-15760060D01*
X11326462Y-15760060D02*
X11345510Y-15769584D01*
X11345510Y-15769584D02*
X11364558Y-15769584D01*
X11507415Y-15760060D02*
X11488367Y-15769584D01*
X11488367Y-15769584D02*
X11450272Y-15769584D01*
X11450272Y-15769584D02*
X11431224Y-15760060D01*
X11431224Y-15760060D02*
X11421700Y-15741012D01*
X11421700Y-15741012D02*
X11421700Y-15664822D01*
X11421700Y-15664822D02*
X11431224Y-15645774D01*
X11431224Y-15645774D02*
X11450272Y-15636250D01*
X11450272Y-15636250D02*
X11488367Y-15636250D01*
X11488367Y-15636250D02*
X11507415Y-15645774D01*
X11507415Y-15645774D02*
X11516939Y-15664822D01*
X11516939Y-15664822D02*
X11516939Y-15683869D01*
X11516939Y-15683869D02*
X11421700Y-15702917D01*
X11688367Y-15769584D02*
X11688367Y-15569584D01*
X11688367Y-15760060D02*
X11669320Y-15769584D01*
X11669320Y-15769584D02*
X11631224Y-15769584D01*
X11631224Y-15769584D02*
X11612177Y-15760060D01*
X11612177Y-15760060D02*
X11602653Y-15750536D01*
X11602653Y-15750536D02*
X11593129Y-15731488D01*
X11593129Y-15731488D02*
X11593129Y-15674346D01*
X11593129Y-15674346D02*
X11602653Y-15655298D01*
X11602653Y-15655298D02*
X11612177Y-15645774D01*
X11612177Y-15645774D02*
X11631224Y-15636250D01*
X11631224Y-15636250D02*
X11669320Y-15636250D01*
X11669320Y-15636250D02*
X11688367Y-15645774D01*
X11764558Y-15845774D02*
X11774081Y-15836250D01*
X11774081Y-15836250D02*
X11793129Y-15807679D01*
X11793129Y-15807679D02*
X11802653Y-15788631D01*
X11802653Y-15788631D02*
X11812177Y-15760060D01*
X11812177Y-15760060D02*
X11821700Y-15712441D01*
X11821700Y-15712441D02*
X11821700Y-15674346D01*
X11821700Y-15674346D02*
X11812177Y-15626727D01*
X11812177Y-15626727D02*
X11802653Y-15598155D01*
X11802653Y-15598155D02*
X11793129Y-15579108D01*
X11793129Y-15579108D02*
X11774081Y-15550536D01*
X11774081Y-15550536D02*
X11764558Y-15541012D01*
M02*
