G04 #@! TF.GenerationSoftware,KiCad,Pcbnew,7.0.1*
G04 #@! TF.CreationDate,2023-11-28T21:46:24+01:00*
G04 #@! TF.ProjectId,Qtr-8-SN,5174722d-382d-4534-9e2e-6b696361645f,rev?*
G04 #@! TF.SameCoordinates,Original*
G04 #@! TF.FileFunction,Profile,NP*
%FSLAX46Y46*%
G04 Gerber Fmt 4.6, Leading zero omitted, Abs format (unit mm)*
G04 Created by KiCad (PCBNEW 7.0.1) date 2023-11-28 21:46:24*
%MOMM*%
%LPD*%
G01*
G04 APERTURE LIST*
G04 #@! TA.AperFunction,Profile*
%ADD10C,0.150000*%
G04 #@! TD*
G04 APERTURE END LIST*
D10*
X50292000Y-127981200D02*
X50292600Y-132805600D01*
X51292000Y-126981200D02*
G75*
G03*
X50292000Y-127981200I0J-1000000D01*
G01*
X51292000Y-126981200D02*
X133967600Y-126971200D01*
X127113600Y-139795600D02*
X133967600Y-139795600D01*
X50292600Y-138805600D02*
G75*
G03*
X51292600Y-139805600I1000000J0D01*
G01*
X134967600Y-132795600D02*
X134967600Y-138795600D01*
X124776100Y-139795600D02*
G75*
G03*
X121276100Y-143295600I0J-3500000D01*
G01*
X60484100Y-139795600D02*
X58146600Y-139795600D01*
X133967600Y-139795600D02*
G75*
G03*
X134967600Y-138795600I0J1000000D01*
G01*
X63984100Y-146795600D02*
X63984100Y-143295600D01*
X127113600Y-139795600D02*
X124776100Y-139795600D01*
X63984100Y-143295600D02*
G75*
G03*
X60484100Y-139795600I-3500000J0D01*
G01*
X134967600Y-127971200D02*
X134967600Y-132795600D01*
X63984100Y-146795600D02*
G75*
G03*
X70984100Y-146795600I3500000J0D01*
G01*
X114276100Y-146795600D02*
X70984100Y-146795600D01*
X50292600Y-132805600D02*
X50292600Y-138805600D01*
X121276100Y-146795600D02*
X121276100Y-143295600D01*
X134967600Y-127971200D02*
G75*
G03*
X133967600Y-126971200I-1000000J0D01*
G01*
X58146600Y-139795600D02*
X51292600Y-139805600D01*
X114276100Y-146795600D02*
G75*
G03*
X121276100Y-146795600I3500000J0D01*
G01*
M02*
