G04 #@! TF.GenerationSoftware,KiCad,Pcbnew,7.0.1*
G04 #@! TF.CreationDate,2023-11-28T21:46:24+01:00*
G04 #@! TF.ProjectId,Qtr-8-SN,5174722d-382d-4534-9e2e-6b696361645f,rev?*
G04 #@! TF.SameCoordinates,Original*
G04 #@! TF.FileFunction,Copper,L2,Bot*
G04 #@! TF.FilePolarity,Positive*
%FSLAX46Y46*%
G04 Gerber Fmt 4.6, Leading zero omitted, Abs format (unit mm)*
G04 Created by KiCad (PCBNEW 7.0.1) date 2023-11-28 21:46:24*
%MOMM*%
%LPD*%
G01*
G04 APERTURE LIST*
G04 Aperture macros list*
%AMRoundRect*
0 Rectangle with rounded corners*
0 $1 Rounding radius*
0 $2 $3 $4 $5 $6 $7 $8 $9 X,Y pos of 4 corners*
0 Add a 4 corners polygon primitive as box body*
4,1,4,$2,$3,$4,$5,$6,$7,$8,$9,$2,$3,0*
0 Add four circle primitives for the rounded corners*
1,1,$1+$1,$2,$3*
1,1,$1+$1,$4,$5*
1,1,$1+$1,$6,$7*
1,1,$1+$1,$8,$9*
0 Add four rect primitives between the rounded corners*
20,1,$1+$1,$2,$3,$4,$5,0*
20,1,$1+$1,$4,$5,$6,$7,0*
20,1,$1+$1,$6,$7,$8,$9,0*
20,1,$1+$1,$8,$9,$2,$3,0*%
G04 Aperture macros list end*
G04 #@! TA.AperFunction,SMDPad,CuDef*
%ADD10RoundRect,0.200000X-0.275000X0.200000X-0.275000X-0.200000X0.275000X-0.200000X0.275000X0.200000X0*%
G04 #@! TD*
G04 #@! TA.AperFunction,SMDPad,CuDef*
%ADD11RoundRect,0.225000X-0.225000X-0.250000X0.225000X-0.250000X0.225000X0.250000X-0.225000X0.250000X0*%
G04 #@! TD*
G04 #@! TA.AperFunction,SMDPad,CuDef*
%ADD12R,1.000000X1.000000*%
G04 #@! TD*
G04 #@! TA.AperFunction,SMDPad,CuDef*
%ADD13RoundRect,0.200000X0.200000X0.275000X-0.200000X0.275000X-0.200000X-0.275000X0.200000X-0.275000X0*%
G04 #@! TD*
G04 #@! TA.AperFunction,SMDPad,CuDef*
%ADD14RoundRect,0.225000X0.225000X0.250000X-0.225000X0.250000X-0.225000X-0.250000X0.225000X-0.250000X0*%
G04 #@! TD*
G04 #@! TA.AperFunction,SMDPad,CuDef*
%ADD15RoundRect,0.150000X0.150000X-0.587500X0.150000X0.587500X-0.150000X0.587500X-0.150000X-0.587500X0*%
G04 #@! TD*
G04 #@! TA.AperFunction,ComponentPad*
%ADD16C,1.600000*%
G04 #@! TD*
G04 #@! TA.AperFunction,ComponentPad*
%ADD17O,1.600000X1.600000*%
G04 #@! TD*
G04 #@! TA.AperFunction,SMDPad,CuDef*
%ADD18R,0.400000X1.000000*%
G04 #@! TD*
G04 #@! TA.AperFunction,SMDPad,CuDef*
%ADD19R,2.000000X1.300000*%
G04 #@! TD*
G04 #@! TA.AperFunction,ViaPad*
%ADD20C,0.700000*%
G04 #@! TD*
G04 #@! TA.AperFunction,ViaPad*
%ADD21C,0.550000*%
G04 #@! TD*
G04 #@! TA.AperFunction,Conductor*
%ADD22C,0.450000*%
G04 #@! TD*
G04 #@! TA.AperFunction,Conductor*
%ADD23C,0.300000*%
G04 #@! TD*
G04 #@! TA.AperFunction,Conductor*
%ADD24C,0.250000*%
G04 #@! TD*
G04 APERTURE END LIST*
D10*
X119329200Y-137820400D03*
X119329200Y-139470400D03*
D11*
X81229200Y-136296400D03*
X82779200Y-136296400D03*
D12*
X95242600Y-131894600D03*
X95242600Y-133694600D03*
X99542600Y-133694600D03*
X99542600Y-131894600D03*
D11*
X109702000Y-136601200D03*
X111252000Y-136601200D03*
X62179200Y-136347200D03*
X63729200Y-136347200D03*
D13*
X121779800Y-129286000D03*
X120129800Y-129286000D03*
D10*
X68021200Y-137363200D03*
X68021200Y-139013200D03*
D12*
X123817600Y-131905600D03*
X123817600Y-133705600D03*
X128117600Y-133705600D03*
X128117600Y-131905600D03*
D14*
X108838400Y-144780000D03*
X107288400Y-144780000D03*
D10*
X108000800Y-137554200D03*
X108000800Y-139204200D03*
D11*
X128066800Y-136347200D03*
X129616800Y-136347200D03*
D15*
X75700400Y-143753600D03*
X76650400Y-145628600D03*
X74750400Y-145628600D03*
D13*
X126250200Y-138531600D03*
X124600200Y-138531600D03*
D10*
X98196400Y-137464800D03*
X98196400Y-139114800D03*
D16*
X52832000Y-137718800D03*
D17*
X52832000Y-130098800D03*
D10*
X64871600Y-138050000D03*
X64871600Y-139700000D03*
X81127600Y-137769600D03*
X81127600Y-139419600D03*
D14*
X108813600Y-143103600D03*
X107263600Y-143103600D03*
D13*
X102792800Y-129286000D03*
X101142800Y-129286000D03*
D10*
X89154000Y-137554200D03*
X89154000Y-139204200D03*
D11*
X90766600Y-136448800D03*
X92316600Y-136448800D03*
D13*
X83718400Y-129286000D03*
X82068400Y-129286000D03*
D12*
X114292600Y-131905600D03*
X114292600Y-133705600D03*
X118592600Y-133705600D03*
X118592600Y-131905600D03*
D16*
X132435600Y-137668000D03*
D17*
X132435600Y-130048000D03*
D10*
X66395600Y-137338800D03*
X66395600Y-138988800D03*
D12*
X57142600Y-131905600D03*
X57142600Y-133705600D03*
X61442600Y-133705600D03*
X61442600Y-131905600D03*
X85717600Y-131905600D03*
X85717600Y-133705600D03*
X90017600Y-133705600D03*
X90017600Y-131905600D03*
D11*
X71716600Y-136448800D03*
X73266600Y-136448800D03*
D13*
X64617600Y-129286000D03*
X62967600Y-129286000D03*
D10*
X79400400Y-144018000D03*
X79400400Y-145668000D03*
D18*
X101255600Y-140970000D03*
X100255600Y-140970000D03*
X99255600Y-140970000D03*
X98255600Y-140970000D03*
X97255600Y-140970000D03*
X96255600Y-140970000D03*
X95255600Y-140970000D03*
X94255600Y-140970000D03*
X93255600Y-140970000D03*
X92255600Y-140970000D03*
X91255600Y-140970000D03*
X90255600Y-140970000D03*
X89255600Y-140970000D03*
X88255600Y-140970000D03*
X87255600Y-140970000D03*
X86255600Y-140970000D03*
D19*
X104055600Y-143670000D03*
X83455600Y-143670000D03*
D11*
X100330000Y-136398000D03*
X101880000Y-136398000D03*
X119329200Y-136347200D03*
X120879200Y-136347200D03*
D12*
X76192600Y-131905600D03*
X76192600Y-133705600D03*
X80492600Y-133705600D03*
X80492600Y-131905600D03*
X66667600Y-131905600D03*
X66667600Y-133705600D03*
X70967600Y-133705600D03*
X70967600Y-131905600D03*
D10*
X71729600Y-138176000D03*
X71729600Y-139826000D03*
D12*
X104767600Y-131894600D03*
X104767600Y-133694600D03*
X109067600Y-133694600D03*
X109067600Y-131894600D03*
D20*
X122631200Y-131876800D03*
X112471200Y-136652000D03*
X92329600Y-135077200D03*
X65604800Y-131905600D03*
D21*
X79400400Y-143169300D03*
D20*
X103073200Y-136194800D03*
X129616800Y-137464800D03*
X103715800Y-131894600D03*
X64820800Y-136347200D03*
X88255600Y-142595600D03*
X83820000Y-136296400D03*
X84654800Y-131905600D03*
X122072400Y-136347200D03*
X108813600Y-145948400D03*
X74168000Y-136194800D03*
X73863200Y-140512800D03*
X72898000Y-144932400D03*
X77571600Y-130505200D03*
X74676000Y-130505200D03*
D21*
X77978000Y-134874000D03*
X116027200Y-134874000D03*
X97078800Y-134823200D03*
X69748400Y-137363200D03*
X117297200Y-139700000D03*
X91846400Y-142646400D03*
X91084400Y-143103600D03*
X119176800Y-142290800D03*
X68732400Y-142544800D03*
X67056000Y-142544800D03*
X93522800Y-142138400D03*
X96266000Y-139293600D03*
X92506800Y-142087600D03*
X105410000Y-139141200D03*
D22*
X84654800Y-131905600D02*
X85717600Y-131905600D01*
D23*
X89255600Y-140970000D02*
X89255600Y-141782800D01*
D22*
X108838400Y-145923600D02*
X108838400Y-144780000D01*
D23*
X87255600Y-140970000D02*
X87255600Y-141916400D01*
D22*
X108813600Y-145948400D02*
X108838400Y-145923600D01*
X92329600Y-135077200D02*
X92329600Y-136296400D01*
X111252000Y-136601200D02*
X112420400Y-136601200D01*
X122660000Y-131905600D02*
X123817600Y-131905600D01*
X65604800Y-131905600D02*
X66667600Y-131905600D01*
X122072400Y-136347200D02*
X120879200Y-136347200D01*
X103073200Y-136194800D02*
X101880000Y-136194800D01*
X74168000Y-136194800D02*
X73228800Y-136194800D01*
D23*
X79400400Y-143169300D02*
X79400400Y-144018000D01*
D22*
X108838400Y-144780000D02*
X108838400Y-143128400D01*
D23*
X88255600Y-140970000D02*
X88255600Y-142036800D01*
X87376000Y-142036800D02*
X88255600Y-142036800D01*
D22*
X103715800Y-131894600D02*
X104767600Y-131894600D01*
D23*
X87255600Y-141916400D02*
X87376000Y-142036800D01*
D22*
X83820000Y-136296400D02*
X82779200Y-136296400D01*
X108838400Y-143128400D02*
X108813600Y-143103600D01*
D23*
X88255600Y-142595600D02*
X88255600Y-142036800D01*
D22*
X129616800Y-137464800D02*
X129616800Y-136347200D01*
X122631200Y-131876800D02*
X122660000Y-131905600D01*
D23*
X89001600Y-142036800D02*
X88255600Y-142036800D01*
D22*
X112420400Y-136601200D02*
X112471200Y-136652000D01*
X64820800Y-136347200D02*
X63729200Y-136347200D01*
D23*
X89255600Y-141782800D02*
X89001600Y-142036800D01*
X127660400Y-138531600D02*
X128066800Y-138125200D01*
X128117600Y-133705600D02*
X128117600Y-134823200D01*
X128066800Y-138125200D02*
X128066800Y-136347200D01*
X128117600Y-134823200D02*
X128066800Y-134874000D01*
X128066800Y-134874000D02*
X128066800Y-136347200D01*
X126250200Y-138531600D02*
X127660400Y-138531600D01*
X119329200Y-136347200D02*
X119329200Y-138050000D01*
X119329200Y-135432800D02*
X119329200Y-136347200D01*
X118592600Y-134696200D02*
X119329200Y-135432800D01*
X118592600Y-133705600D02*
X118592600Y-134696200D01*
X100126800Y-137464800D02*
X100279200Y-137312400D01*
X99542600Y-133694600D02*
X99542600Y-134594600D01*
X99542600Y-134594600D02*
X100330000Y-135382000D01*
X100330000Y-135382000D02*
X100330000Y-136398000D01*
X98196400Y-137464800D02*
X100126800Y-137464800D01*
X100279200Y-137312400D02*
X100279200Y-136448800D01*
X109067600Y-133694600D02*
X109067600Y-134823200D01*
X109486200Y-137554200D02*
X109677200Y-137363200D01*
X108000800Y-137554200D02*
X109486200Y-137554200D01*
X109067600Y-134823200D02*
X109778800Y-135534400D01*
X109677200Y-137363200D02*
X109677200Y-136626000D01*
X109778800Y-135534400D02*
X109778800Y-136524400D01*
X81229200Y-136296400D02*
X81229200Y-137668000D01*
X80492600Y-134543800D02*
X81229200Y-135280400D01*
X81229200Y-135280400D02*
X81229200Y-136296400D01*
X80492600Y-133705600D02*
X80492600Y-134543800D01*
X89154000Y-137554200D02*
X90537800Y-137554200D01*
X90017600Y-133705600D02*
X90017600Y-134569200D01*
X90766600Y-137325400D02*
X90766600Y-136448800D01*
X90779600Y-135331200D02*
X90779600Y-136296400D01*
X90537800Y-137554200D02*
X90766600Y-137325400D01*
X90017600Y-134569200D02*
X90779600Y-135331200D01*
D24*
X62866000Y-138050000D02*
X62230000Y-137414000D01*
D23*
X62179200Y-135178800D02*
X62179200Y-136347200D01*
X61442600Y-134442200D02*
X62179200Y-135178800D01*
D24*
X64871600Y-138050000D02*
X62866000Y-138050000D01*
X62230000Y-137414000D02*
X62230000Y-136398000D01*
D23*
X61442600Y-133705600D02*
X61442600Y-134442200D01*
X71678800Y-135280400D02*
X71678800Y-136194800D01*
X70967600Y-133705600D02*
X70967600Y-134569200D01*
X70967600Y-134569200D02*
X71678800Y-135280400D01*
X71678800Y-136194800D02*
X71678800Y-138125200D01*
X71678800Y-138125200D02*
X71729600Y-138176000D01*
X128117600Y-131905600D02*
X128117600Y-129540000D01*
X127863600Y-129286000D02*
X121779800Y-129286000D01*
X128117600Y-129540000D02*
X127863600Y-129286000D01*
X114858800Y-129286000D02*
X120129800Y-129286000D01*
X114292600Y-129852200D02*
X114858800Y-129286000D01*
X114292600Y-131905600D02*
X114292600Y-129852200D01*
X116027200Y-132537200D02*
X116027200Y-134874000D01*
X63173200Y-131905600D02*
X63347600Y-132080000D01*
X97129600Y-132435600D02*
X97078800Y-132486400D01*
X63347600Y-134823200D02*
X63601600Y-135077200D01*
X78232000Y-132334000D02*
X77978000Y-132588000D01*
X118491000Y-131945400D02*
X116619000Y-131945400D01*
X77978000Y-132588000D02*
X77978000Y-134874000D01*
X63347600Y-132080000D02*
X63347600Y-134823200D01*
X80492600Y-131905600D02*
X78660400Y-131905600D01*
X78660400Y-131905600D02*
X78232000Y-132334000D01*
X99542600Y-131894600D02*
X97670600Y-131894600D01*
X116078000Y-132486400D02*
X116027200Y-132537200D01*
X66395600Y-137338800D02*
X67996800Y-137338800D01*
X61442600Y-131905600D02*
X63173200Y-131905600D01*
X68021200Y-137363200D02*
X69748400Y-137363200D01*
X66395600Y-135432800D02*
X66395600Y-137338800D01*
X63601600Y-135077200D02*
X66040000Y-135077200D01*
X116619000Y-131945400D02*
X116078000Y-132486400D01*
X97670600Y-131894600D02*
X97129600Y-132435600D01*
X97078800Y-132486400D02*
X97078800Y-134823200D01*
X66040000Y-135077200D02*
X66395600Y-135432800D01*
X109067600Y-131894600D02*
X109067600Y-129743200D01*
X109067600Y-129743200D02*
X108610400Y-129286000D01*
X108610400Y-129286000D02*
X102792800Y-129286000D01*
X95242600Y-131894600D02*
X95242600Y-130004600D01*
X95242600Y-130004600D02*
X95961200Y-129286000D01*
X95961200Y-129286000D02*
X101142800Y-129286000D01*
X90017600Y-129540000D02*
X89763600Y-129286000D01*
X90017600Y-131905600D02*
X90017600Y-129540000D01*
X83718400Y-129286000D02*
X89763600Y-129286000D01*
X76192600Y-131905600D02*
X76192600Y-129801400D01*
X82068400Y-129286000D02*
X76708000Y-129286000D01*
X76192600Y-129801400D02*
X76708000Y-129286000D01*
X70967600Y-131905600D02*
X70967600Y-129489200D01*
X70967600Y-129489200D02*
X70764400Y-129286000D01*
X70764400Y-129286000D02*
X64617600Y-129286000D01*
X57302400Y-129286000D02*
X57142600Y-129445800D01*
X57142600Y-129445800D02*
X57142600Y-131905600D01*
X62967600Y-129286000D02*
X57302400Y-129286000D01*
X75700400Y-143753600D02*
X68772800Y-143753600D01*
X68021200Y-139013200D02*
X66420000Y-139013200D01*
X68772800Y-143753600D02*
X68021200Y-143002000D01*
X68021200Y-143002000D02*
X68021200Y-139013200D01*
X98255600Y-145381200D02*
X97688400Y-145948400D01*
X98255600Y-140970000D02*
X98255600Y-145381200D01*
X79426800Y-145694400D02*
X79400400Y-145668000D01*
X97688400Y-145948400D02*
X82956400Y-145948400D01*
X76650400Y-145628600D02*
X79361000Y-145628600D01*
X82702400Y-145694400D02*
X79426800Y-145694400D01*
X82956400Y-145948400D02*
X82702400Y-145694400D01*
X91255600Y-142055600D02*
X91846400Y-142646400D01*
X91255600Y-140970000D02*
X91255600Y-142055600D01*
X118211600Y-139496800D02*
X119302800Y-139496800D01*
X117297200Y-139700000D02*
X118008400Y-139700000D01*
X118008400Y-139700000D02*
X118211600Y-139496800D01*
X119176800Y-142290800D02*
X119583200Y-142290800D01*
X90255600Y-140970000D02*
X90255600Y-142274800D01*
X119583200Y-142290800D02*
X123342400Y-138531600D01*
X90255600Y-142274800D02*
X91084400Y-143103600D01*
X123342400Y-138531600D02*
X124600200Y-138531600D01*
D24*
X64871600Y-139700000D02*
X64871600Y-140614400D01*
D23*
X68732400Y-142544800D02*
X81026000Y-142544800D01*
D24*
X65176400Y-140919200D02*
X66852800Y-140919200D01*
D23*
X81381600Y-144526000D02*
X81940400Y-145084800D01*
X81940400Y-145084800D02*
X96774000Y-145084800D01*
X81026000Y-142544800D02*
X81381600Y-142900400D01*
X96774000Y-145084800D02*
X97255600Y-144603200D01*
D24*
X67056000Y-141122400D02*
X67056000Y-142544800D01*
D23*
X97255600Y-144603200D02*
X97255600Y-140970000D01*
X81381600Y-142900400D02*
X81381600Y-144526000D01*
D24*
X66852800Y-140919200D02*
X67056000Y-141122400D01*
X64871600Y-140614400D02*
X65176400Y-140919200D01*
D23*
X81889600Y-142443200D02*
X84578800Y-142443200D01*
X81280000Y-141833600D02*
X81889600Y-142443200D01*
X72237600Y-141833600D02*
X81280000Y-141833600D01*
X85039200Y-142903600D02*
X85039200Y-144272000D01*
X96062800Y-144424400D02*
X96266000Y-144221200D01*
X71729600Y-141325600D02*
X72237600Y-141833600D01*
X71729600Y-139826000D02*
X71729600Y-141325600D01*
X96255600Y-144210800D02*
X96255600Y-140970000D01*
X85191600Y-144424400D02*
X96062800Y-144424400D01*
X85039200Y-144272000D02*
X85191600Y-144424400D01*
X84578800Y-142443200D02*
X85039200Y-142903600D01*
X96266000Y-144221200D02*
X96255600Y-144210800D01*
X94996000Y-143865600D02*
X85902800Y-143865600D01*
X85801200Y-143764000D02*
X85801200Y-142544800D01*
X85801200Y-142544800D02*
X84683600Y-141427200D01*
X95255600Y-140970000D02*
X95255600Y-143606000D01*
X81280000Y-140563600D02*
X81280000Y-139368800D01*
X84683600Y-141427200D02*
X82143600Y-141427200D01*
X95255600Y-143606000D02*
X94996000Y-143865600D01*
X82143600Y-141427200D02*
X81280000Y-140563600D01*
X85902800Y-143865600D02*
X85801200Y-143764000D01*
X94255600Y-139823200D02*
X94255600Y-140970000D01*
X89154000Y-139204200D02*
X93636600Y-139204200D01*
X93636600Y-139204200D02*
X94255600Y-139823200D01*
X93255600Y-141871200D02*
X93522800Y-142138400D01*
X96444800Y-139114800D02*
X96266000Y-139293600D01*
X93255600Y-140970000D02*
X93255600Y-141871200D01*
X98196400Y-139114800D02*
X96444800Y-139114800D01*
X107988600Y-139192000D02*
X108000800Y-139204200D01*
X92255600Y-140970000D02*
X92255600Y-141836400D01*
X92255600Y-141836400D02*
X92506800Y-142087600D01*
X105410000Y-139141200D02*
X105460800Y-139192000D01*
X105460800Y-139192000D02*
X107988600Y-139192000D01*
G04 #@! TA.AperFunction,Conductor*
G36*
X133974519Y-127322479D02*
G01*
X134098246Y-127336420D01*
X134125310Y-127342597D01*
X134236224Y-127381408D01*
X134261232Y-127393451D01*
X134355668Y-127452788D01*
X134360726Y-127455966D01*
X134382436Y-127473279D01*
X134465520Y-127556363D01*
X134482833Y-127578073D01*
X134545346Y-127677563D01*
X134557393Y-127702579D01*
X134596201Y-127813485D01*
X134602380Y-127840556D01*
X134616320Y-127964276D01*
X134617100Y-127978160D01*
X134617100Y-138788640D01*
X134616320Y-138802524D01*
X134602380Y-138926243D01*
X134596201Y-138953314D01*
X134557393Y-139064220D01*
X134545346Y-139089236D01*
X134482833Y-139188726D01*
X134465520Y-139210436D01*
X134382436Y-139293520D01*
X134360726Y-139310833D01*
X134261236Y-139373346D01*
X134236220Y-139385393D01*
X134125314Y-139424201D01*
X134098243Y-139430380D01*
X134023373Y-139438816D01*
X133974521Y-139444320D01*
X133960640Y-139445100D01*
X127172088Y-139445100D01*
X127101720Y-139445100D01*
X127045425Y-139431585D01*
X127001402Y-139393985D01*
X126979247Y-139340498D01*
X126983789Y-139282782D01*
X127000167Y-139256055D01*
X126997881Y-139254673D01*
X127005570Y-139241953D01*
X127013560Y-139234200D01*
X127014039Y-139233419D01*
X127016319Y-139231139D01*
X127016514Y-139231334D01*
X127050772Y-139198095D01*
X127111689Y-139182100D01*
X127574895Y-139182100D01*
X127596104Y-139184441D01*
X127598694Y-139184359D01*
X127598696Y-139184360D01*
X127668662Y-139182160D01*
X127672557Y-139182100D01*
X127701320Y-139182100D01*
X127701325Y-139182100D01*
X127705702Y-139181546D01*
X127717341Y-139180630D01*
X127762969Y-139179197D01*
X127783349Y-139173275D01*
X127802389Y-139169332D01*
X127823458Y-139166671D01*
X127865920Y-139149858D01*
X127876957Y-139146080D01*
X127920798Y-139133344D01*
X127939070Y-139122536D01*
X127956536Y-139113980D01*
X127976271Y-139106168D01*
X128013216Y-139079325D01*
X128022948Y-139072932D01*
X128062265Y-139049681D01*
X128077274Y-139034671D01*
X128092063Y-139022039D01*
X128109237Y-139009563D01*
X128138346Y-138974374D01*
X128146190Y-138965754D01*
X128466313Y-138645631D01*
X128482962Y-138632294D01*
X128484736Y-138630404D01*
X128484740Y-138630402D01*
X128532698Y-138579330D01*
X128535346Y-138576598D01*
X128555711Y-138556235D01*
X128558411Y-138552752D01*
X128565987Y-138543881D01*
X128597248Y-138510593D01*
X128607475Y-138491987D01*
X128618148Y-138475739D01*
X128631162Y-138458964D01*
X128649295Y-138417057D01*
X128654425Y-138406587D01*
X128676427Y-138366568D01*
X128681703Y-138346013D01*
X128688006Y-138327602D01*
X128696435Y-138308127D01*
X128703577Y-138263025D01*
X128705940Y-138251618D01*
X128717300Y-138207377D01*
X128717300Y-138186149D01*
X128718827Y-138166750D01*
X128720538Y-138155945D01*
X128722146Y-138145795D01*
X128717850Y-138100348D01*
X128717300Y-138088679D01*
X128717300Y-138059888D01*
X128731411Y-138002439D01*
X128770531Y-137958066D01*
X128825758Y-137936866D01*
X128884522Y-137943665D01*
X128933449Y-137976915D01*
X129023582Y-138077017D01*
X129044159Y-138099870D01*
X129044571Y-138100327D01*
X129189203Y-138205410D01*
X129189206Y-138205411D01*
X129189207Y-138205412D01*
X129251908Y-138233328D01*
X129352535Y-138278130D01*
X129527407Y-138315300D01*
X129527409Y-138315300D01*
X129706191Y-138315300D01*
X129706193Y-138315300D01*
X129881064Y-138278130D01*
X129881065Y-138278129D01*
X129881067Y-138278129D01*
X130044393Y-138205412D01*
X130048926Y-138202119D01*
X130101666Y-138163800D01*
X130189030Y-138100326D01*
X130308659Y-137967465D01*
X130398050Y-137812635D01*
X130445045Y-137667999D01*
X131130131Y-137667999D01*
X131149964Y-137894689D01*
X131208861Y-138114497D01*
X131305032Y-138320735D01*
X131435553Y-138507140D01*
X131596459Y-138668046D01*
X131782864Y-138798567D01*
X131782865Y-138798567D01*
X131782866Y-138798568D01*
X131989104Y-138894739D01*
X132208908Y-138953635D01*
X132435600Y-138973468D01*
X132662292Y-138953635D01*
X132882096Y-138894739D01*
X133088334Y-138798568D01*
X133274739Y-138668047D01*
X133435647Y-138507139D01*
X133566168Y-138320734D01*
X133662339Y-138114496D01*
X133721235Y-137894692D01*
X133741068Y-137668000D01*
X133739018Y-137644574D01*
X133728448Y-137523755D01*
X133721235Y-137441308D01*
X133662339Y-137221504D01*
X133566168Y-137015266D01*
X133565371Y-137014128D01*
X133435646Y-136828859D01*
X133274740Y-136667953D01*
X133088335Y-136537432D01*
X132882097Y-136441261D01*
X132662289Y-136382364D01*
X132435600Y-136362531D01*
X132208910Y-136382364D01*
X131989102Y-136441261D01*
X131782864Y-136537432D01*
X131596459Y-136667953D01*
X131435553Y-136828859D01*
X131305032Y-137015264D01*
X131208861Y-137221502D01*
X131149964Y-137441310D01*
X131130131Y-137667999D01*
X130445045Y-137667999D01*
X130453297Y-137642603D01*
X130471985Y-137464800D01*
X130453297Y-137286997D01*
X130407350Y-137145589D01*
X130402163Y-137092520D01*
X130419744Y-137042176D01*
X130503803Y-136905897D01*
X130557149Y-136744908D01*
X130567300Y-136645545D01*
X130567299Y-136048856D01*
X130557149Y-135949492D01*
X130503803Y-135788503D01*
X130503802Y-135788501D01*
X130503802Y-135788500D01*
X130414768Y-135644155D01*
X130294844Y-135524231D01*
X130150499Y-135435197D01*
X129989507Y-135381850D01*
X129890957Y-135371783D01*
X129890144Y-135371700D01*
X129343455Y-135371700D01*
X129244092Y-135381850D01*
X129083100Y-135435197D01*
X128938754Y-135524231D01*
X128929478Y-135533508D01*
X128873891Y-135565600D01*
X128809704Y-135565600D01*
X128754118Y-135533506D01*
X128753619Y-135533007D01*
X128726739Y-135492779D01*
X128717300Y-135445326D01*
X128717300Y-135114463D01*
X128726036Y-135080439D01*
X128723331Y-135079745D01*
X128729684Y-135054999D01*
X128732506Y-135044005D01*
X128738804Y-135025606D01*
X128747235Y-135006126D01*
X128754377Y-134961024D01*
X128756745Y-134949597D01*
X128757414Y-134946994D01*
X128765802Y-134914328D01*
X128768100Y-134905378D01*
X128768100Y-134884155D01*
X128769627Y-134864756D01*
X128770433Y-134859669D01*
X128772947Y-134843795D01*
X128768691Y-134798769D01*
X128768650Y-134798339D01*
X128768100Y-134786670D01*
X128768100Y-134769742D01*
X128778112Y-134720930D01*
X128806529Y-134680000D01*
X128848765Y-134653561D01*
X128851251Y-134652633D01*
X128859931Y-134649396D01*
X128975146Y-134563146D01*
X129061396Y-134447931D01*
X129111691Y-134313083D01*
X129118100Y-134253473D01*
X129118099Y-133157728D01*
X129111691Y-133098117D01*
X129061396Y-132963269D01*
X129053340Y-132952508D01*
X129002863Y-132885079D01*
X128998993Y-132879910D01*
X128977094Y-132831958D01*
X128977094Y-132779242D01*
X128998994Y-132731289D01*
X129007229Y-132720289D01*
X129061396Y-132647931D01*
X129111691Y-132513083D01*
X129118100Y-132453473D01*
X129118099Y-131357728D01*
X129111691Y-131298117D01*
X129061396Y-131163269D01*
X128975146Y-131048054D01*
X128859931Y-130961804D01*
X128856907Y-130960676D01*
X128848765Y-130957639D01*
X128806529Y-130931200D01*
X128778112Y-130890270D01*
X128768100Y-130841458D01*
X128768100Y-130047999D01*
X131130131Y-130047999D01*
X131149964Y-130274689D01*
X131208861Y-130494497D01*
X131305032Y-130700735D01*
X131435553Y-130887140D01*
X131596459Y-131048046D01*
X131782864Y-131178567D01*
X131782865Y-131178567D01*
X131782866Y-131178568D01*
X131989104Y-131274739D01*
X132208908Y-131333635D01*
X132435600Y-131353468D01*
X132662292Y-131333635D01*
X132882096Y-131274739D01*
X133088334Y-131178568D01*
X133274739Y-131048047D01*
X133435647Y-130887139D01*
X133566168Y-130700734D01*
X133662339Y-130494496D01*
X133721235Y-130274692D01*
X133741068Y-130048000D01*
X133721235Y-129821308D01*
X133662339Y-129601504D01*
X133566168Y-129395266D01*
X133565704Y-129394604D01*
X133435646Y-129208859D01*
X133274740Y-129047953D01*
X133088335Y-128917432D01*
X132882097Y-128821261D01*
X132662289Y-128762364D01*
X132435600Y-128742531D01*
X132208910Y-128762364D01*
X131989102Y-128821261D01*
X131782864Y-128917432D01*
X131596459Y-129047953D01*
X131435553Y-129208859D01*
X131305032Y-129395264D01*
X131208861Y-129601502D01*
X131149964Y-129821310D01*
X131130131Y-130047999D01*
X128768100Y-130047999D01*
X128768100Y-129625504D01*
X128770441Y-129604294D01*
X128770353Y-129601504D01*
X128768160Y-129531736D01*
X128768100Y-129527842D01*
X128768100Y-129499081D01*
X128768100Y-129499075D01*
X128767546Y-129494695D01*
X128766630Y-129483054D01*
X128766622Y-129482801D01*
X128765197Y-129437430D01*
X128759275Y-129417047D01*
X128755332Y-129398010D01*
X128752671Y-129376942D01*
X128735866Y-129334498D01*
X128732081Y-129323444D01*
X128727583Y-129307961D01*
X128719344Y-129279601D01*
X128708534Y-129261322D01*
X128699980Y-129243862D01*
X128692168Y-129224129D01*
X128665323Y-129187180D01*
X128658932Y-129177451D01*
X128635681Y-129138135D01*
X128620668Y-129123122D01*
X128608035Y-129108330D01*
X128595563Y-129091163D01*
X128560379Y-129062056D01*
X128551740Y-129054194D01*
X128384034Y-128886488D01*
X128370691Y-128869833D01*
X128317766Y-128820134D01*
X128314969Y-128817423D01*
X128294634Y-128797088D01*
X128291147Y-128794383D01*
X128282271Y-128786801D01*
X128248994Y-128755552D01*
X128230393Y-128745326D01*
X128214132Y-128734645D01*
X128197364Y-128721638D01*
X128173777Y-128711431D01*
X128155469Y-128703508D01*
X128144979Y-128698369D01*
X128104967Y-128676372D01*
X128084400Y-128671091D01*
X128065998Y-128664791D01*
X128046524Y-128656364D01*
X128001437Y-128649223D01*
X127989998Y-128646854D01*
X127945778Y-128635500D01*
X127945777Y-128635500D01*
X127924555Y-128635500D01*
X127905156Y-128633973D01*
X127884196Y-128630653D01*
X127884195Y-128630653D01*
X127862158Y-128632736D01*
X127838739Y-128634950D01*
X127827070Y-128635500D01*
X122641289Y-128635500D01*
X122580372Y-128619505D01*
X122546114Y-128586265D01*
X122545919Y-128586461D01*
X122414986Y-128455528D01*
X122326980Y-128402326D01*
X122269406Y-128367522D01*
X122106996Y-128316914D01*
X122106993Y-128316913D01*
X122036417Y-128310500D01*
X122036416Y-128310500D01*
X121523184Y-128310500D01*
X121523183Y-128310500D01*
X121452606Y-128316913D01*
X121371399Y-128342217D01*
X121290194Y-128367522D01*
X121290192Y-128367522D01*
X121290192Y-128367523D01*
X121144613Y-128455528D01*
X121042481Y-128557661D01*
X120986894Y-128589755D01*
X120922706Y-128589755D01*
X120867119Y-128557661D01*
X120764986Y-128455528D01*
X120676980Y-128402326D01*
X120619406Y-128367522D01*
X120456996Y-128316914D01*
X120456993Y-128316913D01*
X120386417Y-128310500D01*
X120386416Y-128310500D01*
X119873184Y-128310500D01*
X119873183Y-128310500D01*
X119802606Y-128316913D01*
X119721399Y-128342217D01*
X119640194Y-128367522D01*
X119640192Y-128367522D01*
X119640192Y-128367523D01*
X119494613Y-128455528D01*
X119363681Y-128586461D01*
X119363485Y-128586265D01*
X119329228Y-128619505D01*
X119268311Y-128635500D01*
X114944305Y-128635500D01*
X114923094Y-128633158D01*
X114850524Y-128635439D01*
X114846629Y-128635500D01*
X114817874Y-128635500D01*
X114813501Y-128636052D01*
X114801869Y-128636967D01*
X114756228Y-128638401D01*
X114735841Y-128644324D01*
X114716798Y-128648268D01*
X114695742Y-128650928D01*
X114653296Y-128667733D01*
X114642250Y-128671514D01*
X114598402Y-128684254D01*
X114580124Y-128695063D01*
X114562661Y-128703618D01*
X114542930Y-128711431D01*
X114505987Y-128738270D01*
X114496228Y-128744680D01*
X114456935Y-128767918D01*
X114441925Y-128782928D01*
X114427136Y-128795558D01*
X114409964Y-128808034D01*
X114380857Y-128843218D01*
X114372996Y-128851856D01*
X113893084Y-129331768D01*
X113876431Y-129345110D01*
X113826733Y-129398033D01*
X113824027Y-129400826D01*
X113803683Y-129421171D01*
X113800976Y-129424660D01*
X113793407Y-129433521D01*
X113762151Y-129466807D01*
X113751922Y-129485412D01*
X113741245Y-129501667D01*
X113728236Y-129518438D01*
X113710106Y-129560332D01*
X113704970Y-129570816D01*
X113682972Y-129610832D01*
X113677691Y-129631399D01*
X113671391Y-129649800D01*
X113662964Y-129669274D01*
X113655823Y-129714361D01*
X113653455Y-129725793D01*
X113644714Y-129759844D01*
X113642100Y-129770024D01*
X113642100Y-129791245D01*
X113640573Y-129810644D01*
X113637253Y-129831603D01*
X113641550Y-129877061D01*
X113642100Y-129888730D01*
X113642100Y-130841458D01*
X113632088Y-130890270D01*
X113603671Y-130931200D01*
X113561435Y-130957639D01*
X113550271Y-130961803D01*
X113550270Y-130961803D01*
X113550269Y-130961804D01*
X113464277Y-131026178D01*
X113435054Y-131048054D01*
X113348804Y-131163268D01*
X113298509Y-131298116D01*
X113297482Y-131307668D01*
X113292475Y-131354245D01*
X113292100Y-131357730D01*
X113292100Y-132453469D01*
X113298509Y-132513084D01*
X113344701Y-132636930D01*
X113348804Y-132647931D01*
X113411519Y-132731707D01*
X113433417Y-132779657D01*
X113433417Y-132832374D01*
X113411518Y-132880326D01*
X113349248Y-132963508D01*
X113299002Y-133098224D01*
X113292600Y-133157776D01*
X113292600Y-133455600D01*
X114418600Y-133455600D01*
X114480600Y-133472213D01*
X114525987Y-133517600D01*
X114542600Y-133579600D01*
X114542600Y-134705600D01*
X114840424Y-134705600D01*
X114899975Y-134699197D01*
X115034689Y-134648952D01*
X115064371Y-134626732D01*
X115116789Y-134603946D01*
X115173859Y-134607092D01*
X115223455Y-134635501D01*
X115255040Y-134683138D01*
X115261903Y-134739881D01*
X115246792Y-134873999D01*
X115266358Y-135047657D01*
X115324077Y-135212606D01*
X115417052Y-135360576D01*
X115540623Y-135484147D01*
X115688593Y-135577122D01*
X115853542Y-135634841D01*
X116027200Y-135654407D01*
X116200857Y-135634841D01*
X116365806Y-135577122D01*
X116513776Y-135484147D01*
X116637347Y-135360576D01*
X116730322Y-135212606D01*
X116788041Y-135047657D01*
X116807607Y-134874000D01*
X116799894Y-134805544D01*
X116788041Y-134700342D01*
X116730322Y-134535393D01*
X116696706Y-134481893D01*
X116677700Y-134415922D01*
X116677700Y-132858008D01*
X116687139Y-132810555D01*
X116714019Y-132770327D01*
X116852127Y-132632219D01*
X116892355Y-132605339D01*
X116939808Y-132595900D01*
X117547784Y-132595900D01*
X117603289Y-132609016D01*
X117647051Y-132645590D01*
X117711205Y-132731290D01*
X117733104Y-132779242D01*
X117733104Y-132831958D01*
X117711205Y-132879910D01*
X117648805Y-132963266D01*
X117598510Y-133098115D01*
X117598509Y-133098117D01*
X117593278Y-133146776D01*
X117592100Y-133157730D01*
X117592100Y-134253469D01*
X117598509Y-134313084D01*
X117607275Y-134336587D01*
X117648804Y-134447931D01*
X117729488Y-134555711D01*
X117735054Y-134563146D01*
X117850269Y-134649396D01*
X117863384Y-134654288D01*
X117904675Y-134679835D01*
X117932991Y-134719279D01*
X117943990Y-134766572D01*
X117945002Y-134798769D01*
X117950923Y-134819150D01*
X117954867Y-134838195D01*
X117957528Y-134859259D01*
X117974337Y-134901715D01*
X117978120Y-134912763D01*
X117990856Y-134956600D01*
X118001661Y-134974870D01*
X118010221Y-134992343D01*
X118013700Y-135001131D01*
X118018032Y-135012071D01*
X118022610Y-135018372D01*
X118044867Y-135049008D01*
X118051273Y-135058760D01*
X118074519Y-135098065D01*
X118074521Y-135098067D01*
X118089525Y-135113071D01*
X118102162Y-135127867D01*
X118114637Y-135145037D01*
X118149812Y-135174136D01*
X118158454Y-135182000D01*
X118495999Y-135519545D01*
X118525246Y-135565947D01*
X118531613Y-135620426D01*
X118513857Y-135672322D01*
X118442197Y-135788501D01*
X118388850Y-135949492D01*
X118378700Y-136048855D01*
X118378700Y-136645544D01*
X118388850Y-136744907D01*
X118442196Y-136905896D01*
X118518850Y-137030171D01*
X118536606Y-137082066D01*
X118530240Y-137136544D01*
X118500996Y-137182946D01*
X118498728Y-137185213D01*
X118415615Y-137322700D01*
X118410722Y-137330794D01*
X118390847Y-137394577D01*
X118360113Y-137493206D01*
X118353700Y-137563783D01*
X118353700Y-138077017D01*
X118360113Y-138147593D01*
X118360114Y-138147596D01*
X118410722Y-138310006D01*
X118417908Y-138321893D01*
X118498728Y-138455586D01*
X118600861Y-138557719D01*
X118632955Y-138613306D01*
X118632955Y-138677493D01*
X118600862Y-138733081D01*
X118523959Y-138809983D01*
X118483734Y-138836861D01*
X118436281Y-138846300D01*
X118297104Y-138846300D01*
X118275894Y-138843958D01*
X118203337Y-138846239D01*
X118199442Y-138846300D01*
X118170671Y-138846300D01*
X118166290Y-138846853D01*
X118154659Y-138847768D01*
X118109030Y-138849202D01*
X118088651Y-138855123D01*
X118069607Y-138859067D01*
X118055239Y-138860882D01*
X118048541Y-138861729D01*
X118006090Y-138878536D01*
X117995043Y-138882318D01*
X117951198Y-138895056D01*
X117932930Y-138905860D01*
X117915464Y-138914417D01*
X117895729Y-138922231D01*
X117858802Y-138949060D01*
X117849042Y-138955471D01*
X117809735Y-138978717D01*
X117801386Y-138987067D01*
X117754660Y-139016424D01*
X117699823Y-139022601D01*
X117647737Y-139004375D01*
X117641772Y-139000627D01*
X117635806Y-138996878D01*
X117635803Y-138996876D01*
X117470857Y-138939158D01*
X117297200Y-138919592D01*
X117123542Y-138939158D01*
X116958593Y-138996877D01*
X116810623Y-139089852D01*
X116687052Y-139213423D01*
X116594077Y-139361393D01*
X116536358Y-139526342D01*
X116516792Y-139700000D01*
X116536358Y-139873657D01*
X116594077Y-140038606D01*
X116687052Y-140186576D01*
X116810623Y-140310147D01*
X116958593Y-140403122D01*
X117123542Y-140460841D01*
X117297200Y-140480407D01*
X117470857Y-140460841D01*
X117635806Y-140403122D01*
X117641496Y-140399547D01*
X117689307Y-140369506D01*
X117755278Y-140350500D01*
X117922895Y-140350500D01*
X117944104Y-140352841D01*
X117946694Y-140352759D01*
X117946696Y-140352760D01*
X118016662Y-140350560D01*
X118020557Y-140350500D01*
X118049320Y-140350500D01*
X118049325Y-140350500D01*
X118053702Y-140349946D01*
X118065341Y-140349030D01*
X118110969Y-140347597D01*
X118131349Y-140341675D01*
X118150389Y-140337732D01*
X118171458Y-140335071D01*
X118213920Y-140318258D01*
X118224957Y-140314480D01*
X118268798Y-140301744D01*
X118287070Y-140290936D01*
X118304536Y-140282380D01*
X118324271Y-140274568D01*
X118361216Y-140247725D01*
X118370948Y-140241332D01*
X118410265Y-140218081D01*
X118423061Y-140205283D01*
X118478644Y-140173190D01*
X118542834Y-140173188D01*
X118598424Y-140205282D01*
X118619013Y-140225871D01*
X118622386Y-140227910D01*
X118764594Y-140313878D01*
X118927004Y-140364486D01*
X118974057Y-140368761D01*
X118997583Y-140370900D01*
X118997584Y-140370900D01*
X119660816Y-140370900D01*
X119660817Y-140370900D01*
X119678461Y-140369296D01*
X119731396Y-140364486D01*
X119893806Y-140313878D01*
X120039385Y-140225872D01*
X120159672Y-140105585D01*
X120247678Y-139960006D01*
X120298286Y-139797596D01*
X120304700Y-139727016D01*
X120304700Y-139213784D01*
X120298286Y-139143204D01*
X120247678Y-138980794D01*
X120168128Y-138849203D01*
X120159671Y-138835213D01*
X120057539Y-138733081D01*
X120025445Y-138677494D01*
X120025445Y-138613306D01*
X120057539Y-138557719D01*
X120159671Y-138455586D01*
X120159672Y-138455585D01*
X120247678Y-138310006D01*
X120298286Y-138147596D01*
X120303219Y-138093317D01*
X120304700Y-138077017D01*
X120304700Y-137563783D01*
X120303095Y-137546125D01*
X120298286Y-137493204D01*
X120283378Y-137445364D01*
X120281501Y-137378263D01*
X120314871Y-137320013D01*
X120373708Y-137287692D01*
X120440766Y-137290769D01*
X120506492Y-137312549D01*
X120605855Y-137322700D01*
X121152544Y-137322699D01*
X121251908Y-137312549D01*
X121412897Y-137259203D01*
X121557244Y-137170168D01*
X121580945Y-137146466D01*
X121622171Y-137119180D01*
X121670787Y-137110169D01*
X121719059Y-137120871D01*
X121808133Y-137160529D01*
X121983007Y-137197700D01*
X121983009Y-137197700D01*
X122161791Y-137197700D01*
X122161793Y-137197700D01*
X122336664Y-137160530D01*
X122336665Y-137160529D01*
X122336667Y-137160529D01*
X122499993Y-137087812D01*
X122529924Y-137066066D01*
X122551700Y-137050244D01*
X122644630Y-136982726D01*
X122764259Y-136849865D01*
X122853650Y-136695035D01*
X122908897Y-136525003D01*
X122927585Y-136347200D01*
X122908897Y-136169397D01*
X122869730Y-136048855D01*
X122853650Y-135999364D01*
X122764259Y-135844534D01*
X122644628Y-135711672D01*
X122499996Y-135606589D01*
X122336664Y-135533869D01*
X122161793Y-135496700D01*
X122161791Y-135496700D01*
X121983009Y-135496700D01*
X121983007Y-135496700D01*
X121808135Y-135533869D01*
X121719059Y-135573529D01*
X121670788Y-135584230D01*
X121622173Y-135575220D01*
X121580943Y-135547930D01*
X121557244Y-135524231D01*
X121412899Y-135435197D01*
X121251907Y-135381850D01*
X121153357Y-135371783D01*
X121152544Y-135371700D01*
X120605855Y-135371700D01*
X120506492Y-135381850D01*
X120345500Y-135435197D01*
X120201157Y-135524230D01*
X120192161Y-135533226D01*
X120143537Y-135563231D01*
X120086621Y-135568249D01*
X120033497Y-135547214D01*
X119995445Y-135504592D01*
X119980543Y-135449434D01*
X119979777Y-135425035D01*
X119979761Y-135424519D01*
X119979700Y-135420629D01*
X119979700Y-135391882D01*
X119979700Y-135391881D01*
X119979700Y-135391875D01*
X119979147Y-135387500D01*
X119978231Y-135375863D01*
X119978103Y-135371783D01*
X119976798Y-135330231D01*
X119970875Y-135309845D01*
X119966931Y-135290804D01*
X119964271Y-135269742D01*
X119947466Y-135227298D01*
X119943684Y-135216252D01*
X119938636Y-135198876D01*
X119930945Y-135172402D01*
X119926835Y-135165452D01*
X119920137Y-135154126D01*
X119911576Y-135136650D01*
X119903768Y-135116929D01*
X119876931Y-135079991D01*
X119870517Y-135070225D01*
X119847281Y-135030935D01*
X119832274Y-135015928D01*
X119819636Y-135001131D01*
X119813251Y-134992343D01*
X119807163Y-134983963D01*
X119775864Y-134958070D01*
X119771979Y-134954856D01*
X119763340Y-134946994D01*
X119495874Y-134679528D01*
X119465443Y-134629603D01*
X119461272Y-134571283D01*
X119484287Y-134517539D01*
X119536396Y-134447931D01*
X119586691Y-134313083D01*
X119593100Y-134253473D01*
X119593100Y-133955600D01*
X122817600Y-133955600D01*
X122817600Y-134253424D01*
X122824002Y-134312975D01*
X122874247Y-134447689D01*
X122960411Y-134562788D01*
X123075510Y-134648952D01*
X123210224Y-134699197D01*
X123269776Y-134705600D01*
X123567600Y-134705600D01*
X123567600Y-133955600D01*
X124067600Y-133955600D01*
X124067600Y-134705600D01*
X124365424Y-134705600D01*
X124424975Y-134699197D01*
X124559689Y-134648952D01*
X124674788Y-134562788D01*
X124760952Y-134447689D01*
X124811197Y-134312975D01*
X124817600Y-134253424D01*
X124817600Y-133955600D01*
X124067600Y-133955600D01*
X123567600Y-133955600D01*
X122817600Y-133955600D01*
X119593100Y-133955600D01*
X119593099Y-133157728D01*
X119586691Y-133098117D01*
X119536396Y-132963269D01*
X119528340Y-132952508D01*
X119477863Y-132885079D01*
X119473993Y-132879910D01*
X119452094Y-132831958D01*
X119452094Y-132779242D01*
X119473994Y-132731289D01*
X119482229Y-132720289D01*
X119536396Y-132647931D01*
X119586691Y-132513083D01*
X119593100Y-132453473D01*
X119593099Y-131876800D01*
X121776015Y-131876800D01*
X121794703Y-132054604D01*
X121849949Y-132224635D01*
X121939340Y-132379465D01*
X122058971Y-132512327D01*
X122203603Y-132617410D01*
X122203606Y-132617411D01*
X122203607Y-132617412D01*
X122272150Y-132647929D01*
X122366935Y-132690130D01*
X122541807Y-132727300D01*
X122541809Y-132727300D01*
X122720591Y-132727300D01*
X122720592Y-132727300D01*
X122790766Y-132712384D01*
X122850234Y-132714338D01*
X122901946Y-132743768D01*
X122933995Y-132793899D01*
X122939002Y-132853189D01*
X122915814Y-132907985D01*
X122874247Y-132963510D01*
X122824002Y-133098224D01*
X122817600Y-133157776D01*
X122817600Y-133455600D01*
X124817600Y-133455600D01*
X124817600Y-133157776D01*
X124811197Y-133098224D01*
X124760952Y-132963511D01*
X124698681Y-132880327D01*
X124676782Y-132832374D01*
X124676782Y-132779657D01*
X124698679Y-132731709D01*
X124761396Y-132647931D01*
X124811691Y-132513083D01*
X124818100Y-132453473D01*
X124818099Y-131357728D01*
X124811691Y-131298117D01*
X124761396Y-131163269D01*
X124675146Y-131048054D01*
X124559931Y-130961804D01*
X124425083Y-130911509D01*
X124365473Y-130905100D01*
X124365469Y-130905100D01*
X123269730Y-130905100D01*
X123210115Y-130911509D01*
X123075269Y-130961804D01*
X122974780Y-131037030D01*
X122927116Y-131058866D01*
X122874689Y-131059053D01*
X122720594Y-131026300D01*
X122720591Y-131026300D01*
X122541809Y-131026300D01*
X122541807Y-131026300D01*
X122366935Y-131063469D01*
X122203608Y-131136187D01*
X122058968Y-131241274D01*
X121939340Y-131374134D01*
X121849949Y-131528964D01*
X121794703Y-131698995D01*
X121776015Y-131876800D01*
X119593099Y-131876800D01*
X119593099Y-131357728D01*
X119586691Y-131298117D01*
X119536396Y-131163269D01*
X119450146Y-131048054D01*
X119334931Y-130961804D01*
X119200083Y-130911509D01*
X119140473Y-130905100D01*
X119140469Y-130905100D01*
X118044730Y-130905100D01*
X117985115Y-130911509D01*
X117850269Y-130961804D01*
X117735054Y-131048054D01*
X117648804Y-131163269D01*
X117629796Y-131214233D01*
X117603357Y-131256470D01*
X117562427Y-131284888D01*
X117513614Y-131294900D01*
X116704505Y-131294900D01*
X116683294Y-131292558D01*
X116610724Y-131294839D01*
X116606829Y-131294900D01*
X116578074Y-131294900D01*
X116573701Y-131295452D01*
X116562069Y-131296367D01*
X116516428Y-131297801D01*
X116496041Y-131303724D01*
X116476998Y-131307668D01*
X116455942Y-131310328D01*
X116413496Y-131327133D01*
X116402450Y-131330914D01*
X116358602Y-131343654D01*
X116340324Y-131354463D01*
X116322861Y-131363018D01*
X116303130Y-131370831D01*
X116266187Y-131397670D01*
X116256428Y-131404080D01*
X116217135Y-131427318D01*
X116202125Y-131442328D01*
X116187336Y-131454958D01*
X116170164Y-131467434D01*
X116141057Y-131502618D01*
X116133196Y-131511256D01*
X115627682Y-132016769D01*
X115611031Y-132030110D01*
X115561333Y-132083033D01*
X115558627Y-132085826D01*
X115538283Y-132106171D01*
X115535576Y-132109660D01*
X115528006Y-132118522D01*
X115507493Y-132140367D01*
X115458370Y-132172415D01*
X115400014Y-132178302D01*
X115345481Y-132156712D01*
X115306970Y-132112473D01*
X115293099Y-132055487D01*
X115293099Y-131357728D01*
X115286691Y-131298117D01*
X115236396Y-131163269D01*
X115150146Y-131048054D01*
X115034931Y-130961804D01*
X115031907Y-130960676D01*
X115023765Y-130957639D01*
X114981529Y-130931200D01*
X114953112Y-130890270D01*
X114943100Y-130841458D01*
X114943100Y-130173008D01*
X114952539Y-130125555D01*
X114979419Y-130085327D01*
X115091927Y-129972819D01*
X115132155Y-129945939D01*
X115179608Y-129936500D01*
X119268311Y-129936500D01*
X119329228Y-129952495D01*
X119363485Y-129985734D01*
X119363681Y-129985539D01*
X119494613Y-130116471D01*
X119494615Y-130116472D01*
X119640194Y-130204478D01*
X119802604Y-130255086D01*
X119849657Y-130259361D01*
X119873183Y-130261500D01*
X119873184Y-130261500D01*
X120386416Y-130261500D01*
X120386417Y-130261500D01*
X120404060Y-130259896D01*
X120456996Y-130255086D01*
X120619406Y-130204478D01*
X120764985Y-130116472D01*
X120810611Y-130070846D01*
X120867119Y-130014339D01*
X120922706Y-129982245D01*
X120986894Y-129982245D01*
X121042481Y-130014339D01*
X121144613Y-130116471D01*
X121144615Y-130116472D01*
X121290194Y-130204478D01*
X121452604Y-130255086D01*
X121499657Y-130259361D01*
X121523183Y-130261500D01*
X121523184Y-130261500D01*
X122036416Y-130261500D01*
X122036417Y-130261500D01*
X122054060Y-130259896D01*
X122106996Y-130255086D01*
X122269406Y-130204478D01*
X122414985Y-130116472D01*
X122470957Y-130060500D01*
X122545919Y-129985539D01*
X122546114Y-129985734D01*
X122580372Y-129952495D01*
X122641289Y-129936500D01*
X127343100Y-129936500D01*
X127405100Y-129953113D01*
X127450487Y-129998500D01*
X127467100Y-130060500D01*
X127467100Y-130841458D01*
X127457088Y-130890270D01*
X127428671Y-130931200D01*
X127386435Y-130957639D01*
X127375271Y-130961803D01*
X127375270Y-130961803D01*
X127375269Y-130961804D01*
X127289277Y-131026178D01*
X127260054Y-131048054D01*
X127173804Y-131163268D01*
X127123509Y-131298116D01*
X127122482Y-131307668D01*
X127117475Y-131354245D01*
X127117100Y-131357730D01*
X127117100Y-132453469D01*
X127123509Y-132513084D01*
X127147516Y-132577450D01*
X127173804Y-132647931D01*
X127227971Y-132720289D01*
X127236206Y-132731289D01*
X127258105Y-132779242D01*
X127258105Y-132831958D01*
X127236206Y-132879910D01*
X127232337Y-132885079D01*
X127173804Y-132963268D01*
X127123509Y-133098115D01*
X127123509Y-133098117D01*
X127118278Y-133146776D01*
X127117100Y-133157730D01*
X127117100Y-134253469D01*
X127123509Y-134313084D01*
X127132275Y-134336587D01*
X127173804Y-134447931D01*
X127260054Y-134563146D01*
X127364920Y-134641649D01*
X127373928Y-134648392D01*
X127406289Y-134684436D01*
X127422371Y-134730128D01*
X127419722Y-134778494D01*
X127416300Y-134791823D01*
X127416300Y-134813045D01*
X127414773Y-134832444D01*
X127411477Y-134853256D01*
X127411453Y-134853405D01*
X127412526Y-134864756D01*
X127415750Y-134898861D01*
X127416300Y-134910530D01*
X127416300Y-135445326D01*
X127406861Y-135492779D01*
X127379983Y-135533004D01*
X127352116Y-135560872D01*
X127268829Y-135644158D01*
X127179797Y-135788500D01*
X127126450Y-135949492D01*
X127116300Y-136048855D01*
X127116300Y-136645544D01*
X127126450Y-136744907D01*
X127179797Y-136905899D01*
X127268829Y-137050241D01*
X127268831Y-137050243D01*
X127268832Y-137050244D01*
X127379983Y-137161395D01*
X127406861Y-137201621D01*
X127416300Y-137249074D01*
X127416300Y-137757100D01*
X127399687Y-137819100D01*
X127354300Y-137864487D01*
X127292300Y-137881100D01*
X127111689Y-137881100D01*
X127050772Y-137865105D01*
X127016514Y-137831865D01*
X127016319Y-137832061D01*
X126885386Y-137701128D01*
X126788573Y-137642603D01*
X126739806Y-137613122D01*
X126581472Y-137563784D01*
X126577393Y-137562513D01*
X126506817Y-137556100D01*
X126506816Y-137556100D01*
X125993584Y-137556100D01*
X125993583Y-137556100D01*
X125923006Y-137562513D01*
X125854003Y-137584015D01*
X125760594Y-137613122D01*
X125760592Y-137613122D01*
X125760592Y-137613123D01*
X125615013Y-137701128D01*
X125512881Y-137803261D01*
X125457294Y-137835355D01*
X125393106Y-137835355D01*
X125337519Y-137803261D01*
X125235386Y-137701128D01*
X125138573Y-137642603D01*
X125089806Y-137613122D01*
X124931472Y-137563784D01*
X124927393Y-137562513D01*
X124856817Y-137556100D01*
X124856816Y-137556100D01*
X124343584Y-137556100D01*
X124343583Y-137556100D01*
X124273006Y-137562513D01*
X124204003Y-137584015D01*
X124110594Y-137613122D01*
X124110592Y-137613122D01*
X124110592Y-137613123D01*
X123965013Y-137701128D01*
X123834081Y-137832061D01*
X123833885Y-137831865D01*
X123799628Y-137865105D01*
X123738711Y-137881100D01*
X123427905Y-137881100D01*
X123406694Y-137878758D01*
X123334124Y-137881039D01*
X123330229Y-137881100D01*
X123301474Y-137881100D01*
X123297101Y-137881652D01*
X123285469Y-137882567D01*
X123239828Y-137884001D01*
X123219441Y-137889924D01*
X123200398Y-137893868D01*
X123179342Y-137896528D01*
X123136896Y-137913333D01*
X123125850Y-137917114D01*
X123082002Y-137929854D01*
X123063724Y-137940663D01*
X123046261Y-137949218D01*
X123026530Y-137957031D01*
X122989587Y-137983870D01*
X122979828Y-137990280D01*
X122940535Y-138013518D01*
X122925525Y-138028528D01*
X122910736Y-138041158D01*
X122893564Y-138053634D01*
X122864457Y-138088818D01*
X122856596Y-138097456D01*
X119458862Y-141495190D01*
X119412136Y-141524550D01*
X119357298Y-141530729D01*
X119176800Y-141510392D01*
X119003142Y-141529958D01*
X118838193Y-141587677D01*
X118690223Y-141680652D01*
X118566652Y-141804223D01*
X118473677Y-141952193D01*
X118415958Y-142117142D01*
X118396392Y-142290799D01*
X118415958Y-142464457D01*
X118473677Y-142629406D01*
X118566652Y-142777376D01*
X118690223Y-142900947D01*
X118838193Y-142993922D01*
X119003142Y-143051641D01*
X119176800Y-143071207D01*
X119350457Y-143051641D01*
X119515406Y-142993922D01*
X119569649Y-142959838D01*
X119620075Y-142941811D01*
X119624119Y-142941300D01*
X119624125Y-142941300D01*
X119628506Y-142940746D01*
X119640141Y-142939830D01*
X119685769Y-142938397D01*
X119706149Y-142932475D01*
X119725189Y-142928532D01*
X119746258Y-142925871D01*
X119788720Y-142909058D01*
X119799757Y-142905280D01*
X119843598Y-142892544D01*
X119861870Y-142881736D01*
X119879336Y-142873180D01*
X119899071Y-142865368D01*
X119936016Y-142838525D01*
X119945748Y-142832132D01*
X119985065Y-142808881D01*
X120000074Y-142793871D01*
X120014863Y-142781239D01*
X120032037Y-142768763D01*
X120061146Y-142733574D01*
X120068990Y-142724954D01*
X120952438Y-141841506D01*
X121011169Y-141808615D01*
X121078434Y-141811258D01*
X121134406Y-141848656D01*
X121162590Y-141909788D01*
X121154679Y-141976638D01*
X121146315Y-141996830D01*
X121036488Y-142358882D01*
X120962682Y-142729928D01*
X120925600Y-143106437D01*
X120925600Y-146792244D01*
X120925418Y-146798958D01*
X120907500Y-147129411D01*
X120906048Y-147142758D01*
X120853053Y-147466013D01*
X120850167Y-147479125D01*
X120762533Y-147794760D01*
X120758246Y-147807484D01*
X120636997Y-148111796D01*
X120631364Y-148123971D01*
X120477913Y-148413411D01*
X120471002Y-148424897D01*
X120339250Y-148619216D01*
X120287170Y-148696028D01*
X120279045Y-148706716D01*
X120066974Y-148956385D01*
X120057741Y-148966132D01*
X119819929Y-149191400D01*
X119809696Y-149200092D01*
X119548906Y-149398340D01*
X119537793Y-149405875D01*
X119257110Y-149574756D01*
X119245247Y-149581045D01*
X118947956Y-149718586D01*
X118935484Y-149723556D01*
X118625050Y-149828154D01*
X118612112Y-149831746D01*
X118292197Y-149902164D01*
X118278948Y-149904336D01*
X117953295Y-149939754D01*
X117939888Y-149940481D01*
X117612312Y-149940481D01*
X117598905Y-149939754D01*
X117273251Y-149904336D01*
X117260002Y-149902164D01*
X116940087Y-149831746D01*
X116927149Y-149828154D01*
X116616715Y-149723556D01*
X116604243Y-149718586D01*
X116306952Y-149581045D01*
X116295089Y-149574756D01*
X116014401Y-149405872D01*
X116003293Y-149398340D01*
X115742503Y-149200092D01*
X115732270Y-149191400D01*
X115494458Y-148966132D01*
X115485225Y-148956385D01*
X115273154Y-148706716D01*
X115265036Y-148696037D01*
X115081188Y-148424883D01*
X115074293Y-148413425D01*
X114920827Y-148123956D01*
X114915207Y-148111807D01*
X114793948Y-147807470D01*
X114789670Y-147794774D01*
X114702031Y-147479124D01*
X114699146Y-147466013D01*
X114646151Y-147142758D01*
X114644699Y-147129411D01*
X114627534Y-146812844D01*
X114627776Y-146795886D01*
X114627800Y-146795599D01*
X116470631Y-146795599D01*
X116490464Y-147022289D01*
X116549361Y-147242097D01*
X116645532Y-147448335D01*
X116776053Y-147634740D01*
X116936959Y-147795646D01*
X117123364Y-147926167D01*
X117123365Y-147926167D01*
X117123366Y-147926168D01*
X117329604Y-148022339D01*
X117549408Y-148081235D01*
X117634361Y-148088667D01*
X117719314Y-148096100D01*
X117719316Y-148096100D01*
X117832884Y-148096100D01*
X117832886Y-148096100D01*
X117900847Y-148090154D01*
X118002792Y-148081235D01*
X118222596Y-148022339D01*
X118428834Y-147926168D01*
X118615239Y-147795647D01*
X118776147Y-147634739D01*
X118906668Y-147448334D01*
X119002839Y-147242096D01*
X119061735Y-147022292D01*
X119081568Y-146795600D01*
X119061735Y-146568908D01*
X119002839Y-146349104D01*
X118906668Y-146142866D01*
X118895001Y-146126204D01*
X118776146Y-145956459D01*
X118615240Y-145795553D01*
X118428835Y-145665032D01*
X118222597Y-145568861D01*
X118002789Y-145509964D01*
X117832886Y-145495100D01*
X117832884Y-145495100D01*
X117719316Y-145495100D01*
X117719314Y-145495100D01*
X117549410Y-145509964D01*
X117329602Y-145568861D01*
X117123364Y-145665032D01*
X116936959Y-145795553D01*
X116776053Y-145956459D01*
X116645532Y-146142864D01*
X116549361Y-146349102D01*
X116490464Y-146568910D01*
X116470631Y-146795599D01*
X114627800Y-146795599D01*
X114630265Y-146765859D01*
X114627333Y-146742344D01*
X114626600Y-146740088D01*
X114626600Y-146740086D01*
X114616294Y-146708368D01*
X114614288Y-146702193D01*
X114612013Y-146694313D01*
X114600752Y-146649842D01*
X114595556Y-146638985D01*
X114566574Y-146599096D01*
X114563082Y-146594030D01*
X114534272Y-146549932D01*
X114527030Y-146544670D01*
X114488420Y-146516618D01*
X114485194Y-146514191D01*
X114464900Y-146498396D01*
X114445226Y-146483083D01*
X114445225Y-146483082D01*
X114442868Y-146481248D01*
X114388073Y-146463443D01*
X114386130Y-146462794D01*
X114334589Y-146445100D01*
X114334588Y-146445100D01*
X109717152Y-146445100D01*
X109660857Y-146431585D01*
X109616834Y-146393985D01*
X109594679Y-146340498D01*
X109599221Y-146282782D01*
X109599560Y-146281739D01*
X109650097Y-146126203D01*
X109668785Y-145948400D01*
X109650097Y-145770597D01*
X109599691Y-145615466D01*
X109597050Y-145548201D01*
X109629941Y-145489470D01*
X109636368Y-145483044D01*
X109725403Y-145338697D01*
X109778749Y-145177708D01*
X109788900Y-145078345D01*
X109788899Y-144481656D01*
X109778749Y-144382292D01*
X109725403Y-144221303D01*
X109725402Y-144221302D01*
X109725402Y-144221300D01*
X109636369Y-144076956D01*
X109600220Y-144040808D01*
X109573339Y-144000579D01*
X109563900Y-143953126D01*
X109563900Y-143905675D01*
X109573339Y-143858222D01*
X109600219Y-143817994D01*
X109611568Y-143806644D01*
X109700602Y-143662299D01*
X109744974Y-143528394D01*
X109753949Y-143501308D01*
X109764100Y-143401945D01*
X109764099Y-142805256D01*
X109753949Y-142705892D01*
X109700603Y-142544903D01*
X109700602Y-142544902D01*
X109700602Y-142544900D01*
X109611568Y-142400555D01*
X109491644Y-142280631D01*
X109347299Y-142191597D01*
X109186307Y-142138250D01*
X109091839Y-142128600D01*
X109086944Y-142128100D01*
X108540255Y-142128100D01*
X108440892Y-142138250D01*
X108279900Y-142191597D01*
X108135554Y-142280631D01*
X108125925Y-142290261D01*
X108070338Y-142322353D01*
X108006151Y-142322353D01*
X107950565Y-142290259D01*
X107941332Y-142281026D01*
X107797086Y-142192053D01*
X107636206Y-142138743D01*
X107536915Y-142128600D01*
X107513600Y-142128600D01*
X107513600Y-143770720D01*
X107528961Y-143793709D01*
X107538400Y-143841162D01*
X107538400Y-145754999D01*
X107561715Y-145754999D01*
X107661005Y-145744856D01*
X107808901Y-145695848D01*
X107869970Y-145691533D01*
X107925660Y-145716961D01*
X107962397Y-145765935D01*
X107971225Y-145826514D01*
X107964348Y-145891953D01*
X107958415Y-145948399D01*
X107977103Y-146126204D01*
X107982517Y-146142866D01*
X108026782Y-146279100D01*
X108027979Y-146282782D01*
X108032521Y-146340498D01*
X108010366Y-146393985D01*
X107966343Y-146431585D01*
X107910048Y-146445100D01*
X98411007Y-146445100D01*
X98354712Y-146431585D01*
X98310689Y-146393985D01*
X98288534Y-146340498D01*
X98293076Y-146282782D01*
X98323326Y-146233419D01*
X98430542Y-146126203D01*
X98655113Y-145901631D01*
X98671762Y-145888294D01*
X98673536Y-145886404D01*
X98673540Y-145886402D01*
X98721498Y-145835330D01*
X98724146Y-145832598D01*
X98744511Y-145812235D01*
X98747211Y-145808752D01*
X98754787Y-145799881D01*
X98786048Y-145766593D01*
X98796275Y-145747987D01*
X98806948Y-145731739D01*
X98819962Y-145714964D01*
X98838099Y-145673049D01*
X98843217Y-145662601D01*
X98865227Y-145622568D01*
X98870505Y-145602007D01*
X98876807Y-145583603D01*
X98885236Y-145564126D01*
X98892378Y-145519024D01*
X98894744Y-145507601D01*
X98906100Y-145463377D01*
X98906100Y-145442155D01*
X98907627Y-145422756D01*
X98910947Y-145401795D01*
X98906650Y-145356339D01*
X98906100Y-145344670D01*
X98906100Y-145030000D01*
X106338401Y-145030000D01*
X106338401Y-145078315D01*
X106348543Y-145177605D01*
X106401853Y-145338486D01*
X106490826Y-145482732D01*
X106610667Y-145602573D01*
X106754913Y-145691546D01*
X106915793Y-145744856D01*
X107015085Y-145755000D01*
X107038400Y-145755000D01*
X107038400Y-145030000D01*
X106338401Y-145030000D01*
X98906100Y-145030000D01*
X98906100Y-144367869D01*
X102555100Y-144367869D01*
X102561509Y-144427484D01*
X102575239Y-144464296D01*
X102611804Y-144562331D01*
X102698054Y-144677546D01*
X102813269Y-144763796D01*
X102948117Y-144814091D01*
X103007727Y-144820500D01*
X105103472Y-144820499D01*
X105163083Y-144814091D01*
X105297931Y-144763796D01*
X105413146Y-144677546D01*
X105499396Y-144562331D01*
X105549691Y-144427483D01*
X105556100Y-144367873D01*
X105556099Y-143353600D01*
X106313601Y-143353600D01*
X106313601Y-143401915D01*
X106323743Y-143501205D01*
X106377053Y-143662086D01*
X106466026Y-143806332D01*
X106526213Y-143866519D01*
X106558307Y-143922106D01*
X106558307Y-143986294D01*
X106526213Y-144041881D01*
X106490826Y-144077267D01*
X106401853Y-144221513D01*
X106348543Y-144382393D01*
X106338400Y-144481685D01*
X106338400Y-144530000D01*
X107038400Y-144530000D01*
X107038400Y-144112880D01*
X107023039Y-144089891D01*
X107013600Y-144042438D01*
X107013600Y-143353600D01*
X106313601Y-143353600D01*
X105556099Y-143353600D01*
X105556099Y-142972128D01*
X105549691Y-142912517D01*
X105527716Y-142853600D01*
X106313600Y-142853600D01*
X107013600Y-142853600D01*
X107013600Y-142128601D01*
X106990285Y-142128601D01*
X106890994Y-142138743D01*
X106730113Y-142192053D01*
X106585867Y-142281026D01*
X106466026Y-142400867D01*
X106377053Y-142545113D01*
X106323743Y-142705993D01*
X106313600Y-142805285D01*
X106313600Y-142853600D01*
X105527716Y-142853600D01*
X105499396Y-142777669D01*
X105413146Y-142662454D01*
X105297931Y-142576204D01*
X105163083Y-142525909D01*
X105103473Y-142519500D01*
X105103469Y-142519500D01*
X103007730Y-142519500D01*
X102948115Y-142525909D01*
X102813269Y-142576204D01*
X102698054Y-142662454D01*
X102611804Y-142777668D01*
X102561509Y-142912515D01*
X102561509Y-142912517D01*
X102558360Y-142941811D01*
X102555100Y-142972130D01*
X102555100Y-144367869D01*
X98906100Y-144367869D01*
X98906100Y-142094000D01*
X98922713Y-142032000D01*
X98968100Y-141986613D01*
X99030100Y-141970000D01*
X99055600Y-141970000D01*
X99055600Y-141170000D01*
X99455600Y-141170000D01*
X99455600Y-141970000D01*
X99503424Y-141970000D01*
X99562975Y-141963597D01*
X99712266Y-141907915D01*
X99755600Y-141900097D01*
X99798934Y-141907915D01*
X99948224Y-141963597D01*
X100007776Y-141970000D01*
X100055600Y-141970000D01*
X100055600Y-141170000D01*
X100455600Y-141170000D01*
X100455600Y-141970000D01*
X100503424Y-141970000D01*
X100562975Y-141963597D01*
X100712266Y-141907915D01*
X100755600Y-141900097D01*
X100798934Y-141907915D01*
X100948224Y-141963597D01*
X101007776Y-141970000D01*
X101055600Y-141970000D01*
X101055600Y-141170000D01*
X101455600Y-141170000D01*
X101455600Y-141970000D01*
X101503424Y-141970000D01*
X101562975Y-141963597D01*
X101697689Y-141913352D01*
X101812788Y-141827188D01*
X101898952Y-141712089D01*
X101949197Y-141577375D01*
X101955600Y-141517824D01*
X101955600Y-141170000D01*
X101455600Y-141170000D01*
X101055600Y-141170000D01*
X100455600Y-141170000D01*
X100055600Y-141170000D01*
X99455600Y-141170000D01*
X99055600Y-141170000D01*
X99055600Y-139970000D01*
X99455600Y-139970000D01*
X99455600Y-140770000D01*
X100055600Y-140770000D01*
X100055600Y-139970000D01*
X100455600Y-139970000D01*
X100455600Y-140770000D01*
X101055600Y-140770000D01*
X101055600Y-139970000D01*
X101455600Y-139970000D01*
X101455600Y-140770000D01*
X101955600Y-140770000D01*
X101955600Y-140422176D01*
X101949197Y-140362624D01*
X101898952Y-140227910D01*
X101812788Y-140112811D01*
X101697689Y-140026647D01*
X101562975Y-139976402D01*
X101503424Y-139970000D01*
X101455600Y-139970000D01*
X101055600Y-139970000D01*
X101007776Y-139970000D01*
X100948220Y-139976402D01*
X100798931Y-140032083D01*
X100755599Y-140039901D01*
X100712266Y-140032083D01*
X100562977Y-139976402D01*
X100503424Y-139970000D01*
X100455600Y-139970000D01*
X100055600Y-139970000D01*
X100007776Y-139970000D01*
X99948220Y-139976402D01*
X99798931Y-140032083D01*
X99755599Y-140039901D01*
X99712266Y-140032083D01*
X99562977Y-139976402D01*
X99503424Y-139970000D01*
X99455600Y-139970000D01*
X99055600Y-139970000D01*
X99019281Y-139933681D01*
X99021098Y-139931863D01*
X99005902Y-139918885D01*
X98983747Y-139865398D01*
X98988289Y-139807682D01*
X99018539Y-139758319D01*
X99026871Y-139749986D01*
X99026872Y-139749985D01*
X99114878Y-139604406D01*
X99165486Y-139441996D01*
X99171900Y-139371416D01*
X99171900Y-138858184D01*
X99170814Y-138846239D01*
X99169762Y-138834657D01*
X99165486Y-138787604D01*
X99114878Y-138625194D01*
X99041127Y-138503196D01*
X99026871Y-138479613D01*
X98924738Y-138377480D01*
X98892644Y-138321892D01*
X98892644Y-138257705D01*
X98924737Y-138202119D01*
X98975239Y-138151618D01*
X99015467Y-138124739D01*
X99062919Y-138115300D01*
X100041295Y-138115300D01*
X100062504Y-138117641D01*
X100065094Y-138117559D01*
X100065096Y-138117560D01*
X100135062Y-138115360D01*
X100138957Y-138115300D01*
X100167720Y-138115300D01*
X100167725Y-138115300D01*
X100172102Y-138114746D01*
X100183741Y-138113830D01*
X100229369Y-138112397D01*
X100249749Y-138106475D01*
X100268789Y-138102532D01*
X100289858Y-138099871D01*
X100332320Y-138083058D01*
X100343357Y-138079280D01*
X100387198Y-138066544D01*
X100405470Y-138055736D01*
X100422936Y-138047180D01*
X100442671Y-138039368D01*
X100479616Y-138012525D01*
X100489348Y-138006132D01*
X100528665Y-137982881D01*
X100543674Y-137967871D01*
X100558463Y-137955239D01*
X100575637Y-137942763D01*
X100604746Y-137907574D01*
X100612590Y-137898954D01*
X100678713Y-137832831D01*
X100695362Y-137819494D01*
X100697136Y-137817604D01*
X100697140Y-137817602D01*
X100745098Y-137766530D01*
X100747746Y-137763798D01*
X100768111Y-137743435D01*
X100770811Y-137739952D01*
X100778387Y-137731081D01*
X100809648Y-137697793D01*
X100819875Y-137679187D01*
X100830548Y-137662939D01*
X100843562Y-137646164D01*
X100861695Y-137604257D01*
X100866825Y-137593787D01*
X100888827Y-137553768D01*
X100894103Y-137533213D01*
X100900406Y-137514802D01*
X100908835Y-137495327D01*
X100915977Y-137450225D01*
X100918340Y-137438818D01*
X100929700Y-137394577D01*
X100929700Y-137373349D01*
X100931227Y-137353950D01*
X100936997Y-137317522D01*
X100941154Y-137318180D01*
X100948276Y-137279806D01*
X100994192Y-137229511D01*
X101008044Y-137220968D01*
X101017318Y-137211693D01*
X101072903Y-137179600D01*
X101137092Y-137179599D01*
X101192680Y-137211693D01*
X101201955Y-137220968D01*
X101346300Y-137310002D01*
X101346302Y-137310002D01*
X101346303Y-137310003D01*
X101507292Y-137363349D01*
X101606655Y-137373500D01*
X102153344Y-137373499D01*
X102252708Y-137363349D01*
X102413697Y-137310003D01*
X102424860Y-137303118D01*
X102558044Y-137220968D01*
X102677968Y-137101044D01*
X102697951Y-137068647D01*
X102732563Y-137032030D01*
X102778886Y-137012208D01*
X102829271Y-137012452D01*
X102983808Y-137045300D01*
X102983809Y-137045300D01*
X103162591Y-137045300D01*
X103162593Y-137045300D01*
X103337464Y-137008130D01*
X103337465Y-137008129D01*
X103337467Y-137008129D01*
X103500793Y-136935412D01*
X103541417Y-136905897D01*
X103577527Y-136879661D01*
X103645430Y-136830326D01*
X103765059Y-136697465D01*
X103854450Y-136542635D01*
X103909697Y-136372603D01*
X103928385Y-136194800D01*
X103909697Y-136016997D01*
X103871083Y-135898156D01*
X103854450Y-135846964D01*
X103765059Y-135692134D01*
X103645428Y-135559272D01*
X103500796Y-135454189D01*
X103337464Y-135381469D01*
X103162593Y-135344300D01*
X103162591Y-135344300D01*
X102983809Y-135344300D01*
X102983807Y-135344300D01*
X102808937Y-135381469D01*
X102784402Y-135392393D01*
X102645608Y-135454188D01*
X102645605Y-135454189D01*
X102635745Y-135458580D01*
X102585309Y-135469300D01*
X102383318Y-135469300D01*
X102344314Y-135463006D01*
X102252708Y-135432650D01*
X102162554Y-135423440D01*
X102153344Y-135422500D01*
X101606655Y-135422500D01*
X101507292Y-135432650D01*
X101346300Y-135485997D01*
X101201954Y-135575031D01*
X101192678Y-135584308D01*
X101137091Y-135616400D01*
X101072904Y-135616400D01*
X101017318Y-135584306D01*
X101016819Y-135583807D01*
X100989939Y-135543579D01*
X100980500Y-135496126D01*
X100980500Y-135467505D01*
X100982841Y-135446294D01*
X100982705Y-135441979D01*
X100980561Y-135373724D01*
X100980500Y-135369829D01*
X100980500Y-135341082D01*
X100980500Y-135341075D01*
X100979947Y-135336700D01*
X100979031Y-135325063D01*
X100978903Y-135320983D01*
X100977598Y-135279431D01*
X100971675Y-135259045D01*
X100967731Y-135240004D01*
X100965071Y-135218942D01*
X100948267Y-135176501D01*
X100944484Y-135165452D01*
X100943425Y-135161806D01*
X100931745Y-135121602D01*
X100925040Y-135110265D01*
X100920937Y-135103326D01*
X100912376Y-135085850D01*
X100904568Y-135066129D01*
X100877731Y-135029191D01*
X100871317Y-135019425D01*
X100848081Y-134980135D01*
X100833074Y-134965128D01*
X100820436Y-134950331D01*
X100818311Y-134947406D01*
X100807963Y-134933163D01*
X100776852Y-134907426D01*
X100772779Y-134904056D01*
X100764140Y-134896194D01*
X100484661Y-134616715D01*
X100454230Y-134566789D01*
X100450059Y-134508469D01*
X100473075Y-134454725D01*
X100486396Y-134436931D01*
X100536691Y-134302083D01*
X100543100Y-134242473D01*
X100543100Y-133944600D01*
X103767600Y-133944600D01*
X103767600Y-134242424D01*
X103774002Y-134301975D01*
X103824247Y-134436689D01*
X103910411Y-134551788D01*
X104025510Y-134637952D01*
X104160224Y-134688197D01*
X104219776Y-134694600D01*
X104517600Y-134694600D01*
X104517600Y-133944600D01*
X105017600Y-133944600D01*
X105017600Y-134694600D01*
X105315424Y-134694600D01*
X105374975Y-134688197D01*
X105509689Y-134637952D01*
X105624788Y-134551788D01*
X105710952Y-134436689D01*
X105761197Y-134301975D01*
X105767600Y-134242424D01*
X105767600Y-133944600D01*
X105017600Y-133944600D01*
X104517600Y-133944600D01*
X103767600Y-133944600D01*
X100543100Y-133944600D01*
X100543099Y-133146728D01*
X100536691Y-133087117D01*
X100486396Y-132952269D01*
X100458484Y-132914984D01*
X100432228Y-132879910D01*
X100423993Y-132868909D01*
X100402094Y-132820958D01*
X100402094Y-132768242D01*
X100423994Y-132720289D01*
X100423995Y-132720288D01*
X100486396Y-132636931D01*
X100536691Y-132502083D01*
X100543100Y-132442473D01*
X100543099Y-131894600D01*
X102860615Y-131894600D01*
X102879303Y-132072404D01*
X102934549Y-132242435D01*
X103023940Y-132397265D01*
X103143571Y-132530127D01*
X103288203Y-132635210D01*
X103288206Y-132635211D01*
X103288207Y-132635212D01*
X103316775Y-132647931D01*
X103451535Y-132707930D01*
X103626407Y-132745100D01*
X103731793Y-132745100D01*
X103796960Y-132763605D01*
X103842677Y-132813596D01*
X103855299Y-132880153D01*
X103831060Y-132943411D01*
X103824247Y-132952511D01*
X103774002Y-133087224D01*
X103767600Y-133146776D01*
X103767600Y-133444600D01*
X105767600Y-133444600D01*
X105767600Y-133146776D01*
X105761197Y-133087224D01*
X105710952Y-132952511D01*
X105648681Y-132869327D01*
X105626782Y-132821374D01*
X105626782Y-132768657D01*
X105648679Y-132720709D01*
X105711396Y-132636931D01*
X105761691Y-132502083D01*
X105768100Y-132442473D01*
X105768099Y-131346728D01*
X105761691Y-131287117D01*
X105711396Y-131152269D01*
X105625146Y-131037054D01*
X105509931Y-130950804D01*
X105375083Y-130900509D01*
X105315473Y-130894100D01*
X105315469Y-130894100D01*
X104219730Y-130894100D01*
X104160115Y-130900509D01*
X104025267Y-130950804D01*
X103924581Y-131026178D01*
X103876919Y-131048014D01*
X103824493Y-131048202D01*
X103805192Y-131044100D01*
X103805191Y-131044100D01*
X103626409Y-131044100D01*
X103626407Y-131044100D01*
X103451535Y-131081269D01*
X103288208Y-131153987D01*
X103143568Y-131259074D01*
X103023940Y-131391934D01*
X102934549Y-131546764D01*
X102879303Y-131716795D01*
X102860615Y-131894600D01*
X100543099Y-131894600D01*
X100543099Y-131346728D01*
X100536691Y-131287117D01*
X100486396Y-131152269D01*
X100400146Y-131037054D01*
X100284931Y-130950804D01*
X100150083Y-130900509D01*
X100090473Y-130894100D01*
X100090469Y-130894100D01*
X98994730Y-130894100D01*
X98935115Y-130900509D01*
X98834759Y-130937940D01*
X98800269Y-130950804D01*
X98685054Y-131037054D01*
X98610843Y-131136188D01*
X98598803Y-131152271D01*
X98594639Y-131163435D01*
X98568200Y-131205671D01*
X98527270Y-131234088D01*
X98478458Y-131244100D01*
X97756105Y-131244100D01*
X97734894Y-131241758D01*
X97662324Y-131244039D01*
X97658429Y-131244100D01*
X97629674Y-131244100D01*
X97625301Y-131244652D01*
X97613669Y-131245567D01*
X97568028Y-131247001D01*
X97547641Y-131252924D01*
X97528598Y-131256868D01*
X97507542Y-131259528D01*
X97465096Y-131276333D01*
X97454050Y-131280114D01*
X97410202Y-131292854D01*
X97391924Y-131303663D01*
X97374461Y-131312218D01*
X97354730Y-131320031D01*
X97317787Y-131346870D01*
X97308028Y-131353280D01*
X97268735Y-131376518D01*
X97253725Y-131391528D01*
X97238936Y-131404158D01*
X97221764Y-131416634D01*
X97192657Y-131451818D01*
X97184796Y-131460456D01*
X96727735Y-131917519D01*
X96727733Y-131917521D01*
X96679283Y-131965969D01*
X96662633Y-131979309D01*
X96612933Y-132032233D01*
X96610227Y-132035026D01*
X96589883Y-132055371D01*
X96587176Y-132058860D01*
X96579607Y-132067721D01*
X96548351Y-132101007D01*
X96538122Y-132119612D01*
X96527445Y-132135867D01*
X96514436Y-132152638D01*
X96496306Y-132194532D01*
X96491170Y-132205017D01*
X96475763Y-132233044D01*
X96430892Y-132279641D01*
X96368659Y-132297299D01*
X96306002Y-132281212D01*
X96259973Y-132235759D01*
X96243099Y-132173311D01*
X96243099Y-131346728D01*
X96236691Y-131287117D01*
X96186396Y-131152269D01*
X96100146Y-131037054D01*
X95984931Y-130950804D01*
X95981907Y-130949676D01*
X95973765Y-130946639D01*
X95931529Y-130920200D01*
X95903112Y-130879270D01*
X95893100Y-130830458D01*
X95893100Y-130325408D01*
X95902539Y-130277955D01*
X95929419Y-130237727D01*
X96194327Y-129972819D01*
X96234555Y-129945939D01*
X96282008Y-129936500D01*
X100281311Y-129936500D01*
X100342228Y-129952495D01*
X100376485Y-129985734D01*
X100376681Y-129985539D01*
X100507613Y-130116471D01*
X100507615Y-130116472D01*
X100653194Y-130204478D01*
X100815604Y-130255086D01*
X100862657Y-130259361D01*
X100886183Y-130261500D01*
X100886184Y-130261500D01*
X101399416Y-130261500D01*
X101399417Y-130261500D01*
X101417060Y-130259896D01*
X101469996Y-130255086D01*
X101632406Y-130204478D01*
X101777985Y-130116472D01*
X101823611Y-130070846D01*
X101880119Y-130014339D01*
X101935706Y-129982245D01*
X101999894Y-129982245D01*
X102055481Y-130014339D01*
X102157613Y-130116471D01*
X102157615Y-130116472D01*
X102303194Y-130204478D01*
X102465604Y-130255086D01*
X102512657Y-130259361D01*
X102536183Y-130261500D01*
X102536184Y-130261500D01*
X103049416Y-130261500D01*
X103049417Y-130261500D01*
X103067060Y-130259896D01*
X103119996Y-130255086D01*
X103282406Y-130204478D01*
X103427985Y-130116472D01*
X103483957Y-130060500D01*
X103558919Y-129985539D01*
X103559114Y-129985734D01*
X103593372Y-129952495D01*
X103654289Y-129936500D01*
X108289592Y-129936500D01*
X108337045Y-129945939D01*
X108377273Y-129972819D01*
X108380781Y-129976327D01*
X108407661Y-130016555D01*
X108417100Y-130064008D01*
X108417100Y-130830458D01*
X108407088Y-130879270D01*
X108378671Y-130920200D01*
X108336435Y-130946639D01*
X108325271Y-130950803D01*
X108325270Y-130950803D01*
X108325269Y-130950804D01*
X108210086Y-131037030D01*
X108210054Y-131037054D01*
X108123804Y-131152268D01*
X108073509Y-131287115D01*
X108073509Y-131287117D01*
X108067431Y-131343655D01*
X108067100Y-131346730D01*
X108067100Y-132442469D01*
X108073509Y-132502084D01*
X108123162Y-132635210D01*
X108123804Y-132636931D01*
X108186206Y-132720289D01*
X108208105Y-132768240D01*
X108208105Y-132820957D01*
X108186206Y-132868909D01*
X108123805Y-132952266D01*
X108073509Y-133087116D01*
X108067100Y-133146730D01*
X108067100Y-134242469D01*
X108073509Y-134302084D01*
X108086379Y-134336589D01*
X108123804Y-134436931D01*
X108210054Y-134552146D01*
X108325269Y-134638396D01*
X108333999Y-134641652D01*
X108375287Y-134667196D01*
X108403603Y-134706641D01*
X108414602Y-134753936D01*
X108417039Y-134831461D01*
X108417100Y-134835357D01*
X108417100Y-134864126D01*
X108417653Y-134868507D01*
X108418568Y-134880140D01*
X108420002Y-134925769D01*
X108425923Y-134946150D01*
X108429867Y-134965195D01*
X108432528Y-134986259D01*
X108449337Y-135028715D01*
X108453120Y-135039763D01*
X108465856Y-135083600D01*
X108476661Y-135101870D01*
X108485221Y-135119343D01*
X108492763Y-135138393D01*
X108493032Y-135139071D01*
X108503970Y-135154126D01*
X108519867Y-135176008D01*
X108526273Y-135185760D01*
X108549519Y-135225065D01*
X108549520Y-135225066D01*
X108549521Y-135225067D01*
X108564525Y-135240071D01*
X108577162Y-135254867D01*
X108589637Y-135272037D01*
X108612310Y-135290794D01*
X108624812Y-135301136D01*
X108633454Y-135309000D01*
X108975639Y-135651185D01*
X109007733Y-135706772D01*
X109007733Y-135770959D01*
X108975640Y-135826547D01*
X108904029Y-135898158D01*
X108814997Y-136042500D01*
X108761650Y-136203492D01*
X108751500Y-136302855D01*
X108751500Y-136603362D01*
X108734574Y-136665901D01*
X108688417Y-136711367D01*
X108625629Y-136727348D01*
X108580069Y-136714276D01*
X108579781Y-136715202D01*
X108565408Y-136710723D01*
X108565406Y-136710722D01*
X108402996Y-136660114D01*
X108402993Y-136660113D01*
X108332417Y-136653700D01*
X108332416Y-136653700D01*
X107669184Y-136653700D01*
X107669183Y-136653700D01*
X107598606Y-136660113D01*
X107546400Y-136676381D01*
X107436194Y-136710722D01*
X107436192Y-136710722D01*
X107436192Y-136710723D01*
X107290613Y-136798728D01*
X107170328Y-136919013D01*
X107090997Y-137050244D01*
X107082322Y-137064594D01*
X107069102Y-137107020D01*
X107031713Y-137227006D01*
X107025300Y-137297583D01*
X107025300Y-137810817D01*
X107031713Y-137881393D01*
X107031714Y-137881396D01*
X107082322Y-138043806D01*
X107099535Y-138072279D01*
X107170328Y-138189386D01*
X107272461Y-138291519D01*
X107304555Y-138347106D01*
X107304555Y-138411293D01*
X107272462Y-138466880D01*
X107234163Y-138505180D01*
X107193934Y-138532061D01*
X107146481Y-138541500D01*
X105948927Y-138541500D01*
X105882956Y-138522494D01*
X105748606Y-138438077D01*
X105583657Y-138380358D01*
X105410000Y-138360792D01*
X105236342Y-138380358D01*
X105071393Y-138438077D01*
X104923423Y-138531052D01*
X104799852Y-138654623D01*
X104706877Y-138802593D01*
X104649158Y-138967542D01*
X104629592Y-139141200D01*
X104649158Y-139314857D01*
X104706877Y-139479806D01*
X104799852Y-139627776D01*
X104923423Y-139751347D01*
X105071393Y-139844322D01*
X105236342Y-139902041D01*
X105410000Y-139921607D01*
X105583657Y-139902041D01*
X105638398Y-139882886D01*
X105733926Y-139849459D01*
X105774881Y-139842500D01*
X107122081Y-139842500D01*
X107169534Y-139851939D01*
X107209759Y-139878816D01*
X107290615Y-139959672D01*
X107436194Y-140047678D01*
X107598604Y-140098286D01*
X107645657Y-140102561D01*
X107669183Y-140104700D01*
X107669184Y-140104700D01*
X108332416Y-140104700D01*
X108332417Y-140104700D01*
X108350060Y-140103096D01*
X108402996Y-140098286D01*
X108565406Y-140047678D01*
X108710985Y-139959672D01*
X108831272Y-139839385D01*
X108919278Y-139693806D01*
X108969886Y-139531396D01*
X108976300Y-139460816D01*
X108976300Y-138947584D01*
X108974701Y-138929994D01*
X108971498Y-138894739D01*
X108969886Y-138877004D01*
X108919278Y-138714594D01*
X108837531Y-138579368D01*
X108831271Y-138569013D01*
X108729138Y-138466880D01*
X108697044Y-138411292D01*
X108697044Y-138347105D01*
X108729137Y-138291519D01*
X108779639Y-138241017D01*
X108819867Y-138214139D01*
X108867319Y-138204700D01*
X109400695Y-138204700D01*
X109421904Y-138207041D01*
X109424494Y-138206959D01*
X109424496Y-138206960D01*
X109494462Y-138204760D01*
X109498357Y-138204700D01*
X109527120Y-138204700D01*
X109527125Y-138204700D01*
X109531502Y-138204146D01*
X109543141Y-138203230D01*
X109588769Y-138201797D01*
X109609149Y-138195875D01*
X109628189Y-138191932D01*
X109649258Y-138189271D01*
X109691720Y-138172458D01*
X109702757Y-138168680D01*
X109746598Y-138155944D01*
X109764870Y-138145136D01*
X109782336Y-138136580D01*
X109802071Y-138128768D01*
X109839016Y-138101925D01*
X109848748Y-138095532D01*
X109888065Y-138072281D01*
X109903073Y-138057272D01*
X109917862Y-138044640D01*
X109935037Y-138032163D01*
X109964149Y-137996970D01*
X109971992Y-137988351D01*
X110076710Y-137883633D01*
X110093364Y-137870292D01*
X110095137Y-137868403D01*
X110095140Y-137868402D01*
X110143112Y-137817315D01*
X110145765Y-137814579D01*
X110166111Y-137794234D01*
X110168815Y-137790746D01*
X110176384Y-137781884D01*
X110207648Y-137748593D01*
X110217869Y-137729999D01*
X110228555Y-137713732D01*
X110241561Y-137696965D01*
X110241563Y-137696963D01*
X110259698Y-137655052D01*
X110264833Y-137644574D01*
X110286826Y-137604570D01*
X110288282Y-137598902D01*
X110292104Y-137584012D01*
X110298408Y-137565599D01*
X110306836Y-137546126D01*
X110311408Y-137517253D01*
X110330680Y-137467909D01*
X110368786Y-137431111D01*
X110380044Y-137424168D01*
X110389318Y-137414893D01*
X110444903Y-137382800D01*
X110509092Y-137382799D01*
X110564680Y-137414893D01*
X110573955Y-137424168D01*
X110718300Y-137513202D01*
X110718302Y-137513202D01*
X110718303Y-137513203D01*
X110879292Y-137566549D01*
X110978655Y-137576700D01*
X111525344Y-137576699D01*
X111624708Y-137566549D01*
X111785697Y-137513203D01*
X111930044Y-137424168D01*
X111930045Y-137424166D01*
X111942379Y-137416559D01*
X111942645Y-137416990D01*
X111967825Y-137400323D01*
X112016443Y-137391310D01*
X112064717Y-137402011D01*
X112206935Y-137465330D01*
X112381807Y-137502500D01*
X112381809Y-137502500D01*
X112560591Y-137502500D01*
X112560593Y-137502500D01*
X112735464Y-137465330D01*
X112735465Y-137465329D01*
X112735467Y-137465329D01*
X112898793Y-137392612D01*
X113043430Y-137287526D01*
X113163059Y-137154665D01*
X113252450Y-136999835D01*
X113307697Y-136829803D01*
X113326385Y-136652000D01*
X113307697Y-136474197D01*
X113252450Y-136304165D01*
X113252450Y-136304164D01*
X113163059Y-136149334D01*
X113043428Y-136016472D01*
X112898796Y-135911389D01*
X112735464Y-135838669D01*
X112560593Y-135801500D01*
X112560591Y-135801500D01*
X112381809Y-135801500D01*
X112381807Y-135801500D01*
X112206935Y-135838669D01*
X112147842Y-135864980D01*
X112097407Y-135875700D01*
X112078874Y-135875700D01*
X112031421Y-135866261D01*
X111991195Y-135839383D01*
X111930044Y-135778232D01*
X111930043Y-135778231D01*
X111930041Y-135778229D01*
X111785699Y-135689197D01*
X111624707Y-135635850D01*
X111535495Y-135626736D01*
X111525344Y-135625700D01*
X110978655Y-135625700D01*
X110879292Y-135635850D01*
X110718303Y-135689196D01*
X110618397Y-135750820D01*
X110556005Y-135769251D01*
X110492868Y-135753558D01*
X110446367Y-135708060D01*
X110429300Y-135645281D01*
X110429300Y-135619905D01*
X110431641Y-135598694D01*
X110431473Y-135593357D01*
X110429361Y-135526124D01*
X110429300Y-135522229D01*
X110429300Y-135493482D01*
X110429300Y-135493475D01*
X110428747Y-135489100D01*
X110427831Y-135477463D01*
X110426398Y-135431831D01*
X110420475Y-135411445D01*
X110416531Y-135392404D01*
X110413871Y-135371342D01*
X110397067Y-135328901D01*
X110393284Y-135317852D01*
X110390961Y-135309856D01*
X110380545Y-135274002D01*
X110371705Y-135259054D01*
X110369737Y-135255726D01*
X110361176Y-135238250D01*
X110353368Y-135218529D01*
X110326531Y-135181591D01*
X110320117Y-135171825D01*
X110296881Y-135132535D01*
X110281874Y-135117528D01*
X110269236Y-135102731D01*
X110256763Y-135085563D01*
X110221579Y-135056456D01*
X110212940Y-135048594D01*
X109907008Y-134742662D01*
X109878507Y-134698313D01*
X109871005Y-134646133D01*
X109885859Y-134595551D01*
X109920378Y-134555714D01*
X109925146Y-134552146D01*
X110011396Y-134436931D01*
X110061691Y-134302083D01*
X110068100Y-134242473D01*
X110068100Y-133955600D01*
X113292600Y-133955600D01*
X113292600Y-134253424D01*
X113299002Y-134312975D01*
X113349247Y-134447689D01*
X113435411Y-134562788D01*
X113550510Y-134648952D01*
X113685224Y-134699197D01*
X113744776Y-134705600D01*
X114042600Y-134705600D01*
X114042600Y-133955600D01*
X113292600Y-133955600D01*
X110068100Y-133955600D01*
X110068099Y-133146728D01*
X110061691Y-133087117D01*
X110011396Y-132952269D01*
X109983484Y-132914984D01*
X109957228Y-132879910D01*
X109948993Y-132868909D01*
X109927094Y-132820958D01*
X109927094Y-132768242D01*
X109948994Y-132720289D01*
X109948995Y-132720288D01*
X110011396Y-132636931D01*
X110061691Y-132502083D01*
X110068100Y-132442473D01*
X110068099Y-131346728D01*
X110061691Y-131287117D01*
X110011396Y-131152269D01*
X109925146Y-131037054D01*
X109809931Y-130950804D01*
X109806907Y-130949676D01*
X109798765Y-130946639D01*
X109756529Y-130920200D01*
X109728112Y-130879270D01*
X109718100Y-130830458D01*
X109718100Y-129828704D01*
X109720441Y-129807494D01*
X109719993Y-129793246D01*
X109718160Y-129734936D01*
X109718100Y-129731042D01*
X109718100Y-129702281D01*
X109718100Y-129702275D01*
X109717546Y-129697895D01*
X109716630Y-129686254D01*
X109715197Y-129640630D01*
X109709275Y-129620247D01*
X109705332Y-129601210D01*
X109702671Y-129580142D01*
X109685866Y-129537698D01*
X109682081Y-129526644D01*
X109669344Y-129482801D01*
X109658534Y-129464522D01*
X109649980Y-129447062D01*
X109642168Y-129427329D01*
X109615323Y-129390380D01*
X109608932Y-129380651D01*
X109585681Y-129341335D01*
X109570668Y-129326322D01*
X109558035Y-129311530D01*
X109545563Y-129294363D01*
X109510379Y-129265256D01*
X109501740Y-129257394D01*
X109130834Y-128886488D01*
X109117491Y-128869833D01*
X109064566Y-128820134D01*
X109061769Y-128817423D01*
X109041434Y-128797088D01*
X109037947Y-128794383D01*
X109029071Y-128786801D01*
X108995794Y-128755552D01*
X108977193Y-128745326D01*
X108960932Y-128734645D01*
X108944164Y-128721638D01*
X108920577Y-128711431D01*
X108902269Y-128703508D01*
X108891779Y-128698369D01*
X108851767Y-128676372D01*
X108831200Y-128671091D01*
X108812798Y-128664791D01*
X108793324Y-128656364D01*
X108748237Y-128649223D01*
X108736798Y-128646854D01*
X108692578Y-128635500D01*
X108692577Y-128635500D01*
X108671355Y-128635500D01*
X108651956Y-128633973D01*
X108630996Y-128630653D01*
X108630995Y-128630653D01*
X108608958Y-128632736D01*
X108585539Y-128634950D01*
X108573870Y-128635500D01*
X103654289Y-128635500D01*
X103593372Y-128619505D01*
X103559114Y-128586265D01*
X103558919Y-128586461D01*
X103427986Y-128455528D01*
X103339980Y-128402326D01*
X103282406Y-128367522D01*
X103119996Y-128316914D01*
X103119993Y-128316913D01*
X103049417Y-128310500D01*
X103049416Y-128310500D01*
X102536184Y-128310500D01*
X102536183Y-128310500D01*
X102465606Y-128316913D01*
X102384399Y-128342217D01*
X102303194Y-128367522D01*
X102303192Y-128367522D01*
X102303192Y-128367523D01*
X102157613Y-128455528D01*
X102055481Y-128557661D01*
X101999894Y-128589755D01*
X101935706Y-128589755D01*
X101880119Y-128557661D01*
X101777986Y-128455528D01*
X101689980Y-128402326D01*
X101632406Y-128367522D01*
X101469996Y-128316914D01*
X101469993Y-128316913D01*
X101399417Y-128310500D01*
X101399416Y-128310500D01*
X100886184Y-128310500D01*
X100886183Y-128310500D01*
X100815606Y-128316913D01*
X100734399Y-128342217D01*
X100653194Y-128367522D01*
X100653192Y-128367522D01*
X100653192Y-128367523D01*
X100507613Y-128455528D01*
X100376681Y-128586461D01*
X100376485Y-128586265D01*
X100342228Y-128619505D01*
X100281311Y-128635500D01*
X96046705Y-128635500D01*
X96025495Y-128633158D01*
X95952938Y-128635439D01*
X95949043Y-128635500D01*
X95920271Y-128635500D01*
X95915890Y-128636053D01*
X95904259Y-128636968D01*
X95858628Y-128638402D01*
X95838252Y-128644322D01*
X95819206Y-128648267D01*
X95798139Y-128650928D01*
X95755687Y-128667736D01*
X95744639Y-128671519D01*
X95700800Y-128684256D01*
X95682530Y-128695061D01*
X95665062Y-128703618D01*
X95653663Y-128708132D01*
X95645326Y-128711433D01*
X95608391Y-128738266D01*
X95598635Y-128744675D01*
X95559335Y-128767918D01*
X95544325Y-128782928D01*
X95529536Y-128795558D01*
X95512364Y-128808034D01*
X95483257Y-128843218D01*
X95475396Y-128851856D01*
X94843084Y-129484168D01*
X94826431Y-129497510D01*
X94776733Y-129550433D01*
X94774027Y-129553226D01*
X94753683Y-129573571D01*
X94750976Y-129577060D01*
X94743407Y-129585921D01*
X94712151Y-129619207D01*
X94701922Y-129637812D01*
X94691245Y-129654067D01*
X94678236Y-129670838D01*
X94660106Y-129712732D01*
X94654970Y-129723216D01*
X94632972Y-129763232D01*
X94627691Y-129783799D01*
X94621391Y-129802200D01*
X94612964Y-129821674D01*
X94605823Y-129866761D01*
X94603455Y-129878198D01*
X94592100Y-129922424D01*
X94592100Y-129943645D01*
X94590573Y-129963044D01*
X94587532Y-129982245D01*
X94587253Y-129984005D01*
X94588623Y-129998500D01*
X94591550Y-130029461D01*
X94592100Y-130041130D01*
X94592100Y-130830458D01*
X94582088Y-130879270D01*
X94553671Y-130920200D01*
X94511435Y-130946639D01*
X94500271Y-130950803D01*
X94500270Y-130950803D01*
X94500269Y-130950804D01*
X94385086Y-131037030D01*
X94385054Y-131037054D01*
X94298804Y-131152268D01*
X94248509Y-131287115D01*
X94248509Y-131287117D01*
X94242431Y-131343655D01*
X94242100Y-131346730D01*
X94242100Y-132442469D01*
X94248509Y-132502084D01*
X94298162Y-132635210D01*
X94298804Y-132636931D01*
X94361519Y-132720707D01*
X94383417Y-132768657D01*
X94383417Y-132821374D01*
X94361518Y-132869326D01*
X94299248Y-132952508D01*
X94249002Y-133087224D01*
X94242600Y-133146776D01*
X94242600Y-133444600D01*
X95368600Y-133444600D01*
X95430600Y-133461213D01*
X95475987Y-133506600D01*
X95492600Y-133568600D01*
X95492600Y-134694600D01*
X95790424Y-134694600D01*
X95849975Y-134688197D01*
X95984689Y-134637952D01*
X96114061Y-134541105D01*
X96114784Y-134542071D01*
X96146268Y-134517275D01*
X96209623Y-134508032D01*
X96269143Y-134531624D01*
X96308961Y-134581761D01*
X96318461Y-134645078D01*
X96298392Y-134823199D01*
X96317958Y-134996857D01*
X96375677Y-135161806D01*
X96468652Y-135309776D01*
X96592223Y-135433347D01*
X96740193Y-135526322D01*
X96905142Y-135584041D01*
X97078800Y-135603607D01*
X97252457Y-135584041D01*
X97417406Y-135526322D01*
X97565376Y-135433347D01*
X97688947Y-135309776D01*
X97781922Y-135161806D01*
X97839641Y-134996857D01*
X97859207Y-134823200D01*
X97855984Y-134794594D01*
X97839641Y-134649542D01*
X97781922Y-134484593D01*
X97748306Y-134431093D01*
X97729300Y-134365122D01*
X97729300Y-132807208D01*
X97738739Y-132759755D01*
X97765619Y-132719527D01*
X97903727Y-132581419D01*
X97943955Y-132554539D01*
X97991408Y-132545100D01*
X98478458Y-132545100D01*
X98527270Y-132555112D01*
X98568200Y-132583529D01*
X98594639Y-132625765D01*
X98598802Y-132636928D01*
X98598803Y-132636930D01*
X98598804Y-132636931D01*
X98661206Y-132720289D01*
X98683105Y-132768240D01*
X98683105Y-132820957D01*
X98661206Y-132868909D01*
X98598805Y-132952266D01*
X98548509Y-133087116D01*
X98542100Y-133146730D01*
X98542100Y-134242469D01*
X98548509Y-134302084D01*
X98561379Y-134336589D01*
X98598804Y-134436931D01*
X98685054Y-134552146D01*
X98800269Y-134638396D01*
X98826734Y-134648266D01*
X98880613Y-134687470D01*
X98906422Y-134748901D01*
X98907528Y-134757659D01*
X98924337Y-134800115D01*
X98928120Y-134811163D01*
X98940856Y-134855000D01*
X98951661Y-134873270D01*
X98960221Y-134890743D01*
X98966015Y-134905378D01*
X98968032Y-134910471D01*
X98980470Y-134927591D01*
X98994866Y-134947406D01*
X99001270Y-134957155D01*
X99024519Y-134996465D01*
X99034180Y-135006126D01*
X99039523Y-135011468D01*
X99052161Y-135026265D01*
X99061968Y-135039763D01*
X99064637Y-135043437D01*
X99097030Y-135070235D01*
X99099812Y-135072536D01*
X99108453Y-135080399D01*
X99364778Y-135336724D01*
X99539839Y-135511784D01*
X99571932Y-135567369D01*
X99571934Y-135631554D01*
X99539844Y-135687141D01*
X99532032Y-135694952D01*
X99442997Y-135839300D01*
X99389650Y-136000292D01*
X99379500Y-136099655D01*
X99379501Y-136690300D01*
X99362888Y-136752300D01*
X99317501Y-136797687D01*
X99255501Y-136814300D01*
X99062919Y-136814300D01*
X99015466Y-136804861D01*
X98975240Y-136777983D01*
X98906585Y-136709328D01*
X98906584Y-136709327D01*
X98811752Y-136651999D01*
X98761006Y-136621322D01*
X98598596Y-136570714D01*
X98598593Y-136570713D01*
X98528017Y-136564300D01*
X98528016Y-136564300D01*
X97864784Y-136564300D01*
X97864783Y-136564300D01*
X97794206Y-136570713D01*
X97717087Y-136594744D01*
X97631794Y-136621322D01*
X97631792Y-136621322D01*
X97631792Y-136621323D01*
X97486213Y-136709328D01*
X97365928Y-136829613D01*
X97301972Y-136935410D01*
X97277922Y-136975194D01*
X97266388Y-137012208D01*
X97227313Y-137137606D01*
X97220900Y-137208183D01*
X97220900Y-137721417D01*
X97227313Y-137791993D01*
X97227314Y-137791996D01*
X97277922Y-137954406D01*
X97303662Y-137996985D01*
X97365928Y-138099986D01*
X97468061Y-138202119D01*
X97500155Y-138257706D01*
X97500155Y-138321893D01*
X97468062Y-138377480D01*
X97417563Y-138427980D01*
X97377334Y-138454861D01*
X97329881Y-138464300D01*
X96530304Y-138464300D01*
X96509094Y-138461958D01*
X96436537Y-138464239D01*
X96432642Y-138464300D01*
X96403871Y-138464300D01*
X96399490Y-138464853D01*
X96387859Y-138465768D01*
X96342230Y-138467202D01*
X96321851Y-138473123D01*
X96302807Y-138477067D01*
X96291904Y-138478444D01*
X96281740Y-138479729D01*
X96239288Y-138496536D01*
X96228243Y-138500317D01*
X96169363Y-138517425D01*
X96169311Y-138517247D01*
X96138530Y-138527554D01*
X96092342Y-138532758D01*
X95927393Y-138590477D01*
X95779423Y-138683452D01*
X95655852Y-138807023D01*
X95562877Y-138954993D01*
X95505158Y-139119942D01*
X95485592Y-139293599D01*
X95505158Y-139467257D01*
X95562877Y-139632206D01*
X95658367Y-139784179D01*
X95677373Y-139849992D01*
X95658535Y-139915854D01*
X95607602Y-139961663D01*
X95540119Y-139973440D01*
X95503473Y-139969500D01*
X95503470Y-139969500D01*
X95031182Y-139969500D01*
X94970309Y-139953530D01*
X94925116Y-139909734D01*
X94907244Y-139849395D01*
X94906161Y-139814934D01*
X94906100Y-139811042D01*
X94906100Y-139782281D01*
X94906100Y-139782275D01*
X94905546Y-139777895D01*
X94904630Y-139766254D01*
X94904381Y-139758319D01*
X94903197Y-139720630D01*
X94897275Y-139700247D01*
X94893332Y-139681210D01*
X94890671Y-139660142D01*
X94873866Y-139617698D01*
X94870081Y-139606644D01*
X94857344Y-139562802D01*
X94857344Y-139562801D01*
X94846534Y-139544522D01*
X94837980Y-139527062D01*
X94830168Y-139507329D01*
X94803323Y-139470380D01*
X94796932Y-139460651D01*
X94773681Y-139421335D01*
X94758668Y-139406322D01*
X94746035Y-139391530D01*
X94745489Y-139390779D01*
X94733563Y-139374363D01*
X94731681Y-139372806D01*
X94698379Y-139345256D01*
X94689740Y-139337394D01*
X94157034Y-138804688D01*
X94143691Y-138788033D01*
X94090766Y-138738334D01*
X94087969Y-138735623D01*
X94067634Y-138715288D01*
X94064147Y-138712583D01*
X94055271Y-138705001D01*
X94021994Y-138673752D01*
X94003393Y-138663526D01*
X93987132Y-138652845D01*
X93970364Y-138639838D01*
X93961950Y-138636197D01*
X93928469Y-138621708D01*
X93917979Y-138616569D01*
X93877967Y-138594572D01*
X93857400Y-138589291D01*
X93838998Y-138582991D01*
X93819524Y-138574564D01*
X93774437Y-138567423D01*
X93762998Y-138565054D01*
X93718778Y-138553700D01*
X93718777Y-138553700D01*
X93697555Y-138553700D01*
X93678156Y-138552173D01*
X93657196Y-138548853D01*
X93657195Y-138548853D01*
X93635158Y-138550936D01*
X93611739Y-138553150D01*
X93600070Y-138553700D01*
X90020519Y-138553700D01*
X89973066Y-138544261D01*
X89932838Y-138517381D01*
X89882338Y-138466881D01*
X89850244Y-138411294D01*
X89850244Y-138347106D01*
X89882338Y-138291519D01*
X89932838Y-138241019D01*
X89973066Y-138214139D01*
X90020519Y-138204700D01*
X90452295Y-138204700D01*
X90473504Y-138207041D01*
X90476094Y-138206959D01*
X90476096Y-138206960D01*
X90546062Y-138204760D01*
X90549957Y-138204700D01*
X90578720Y-138204700D01*
X90578725Y-138204700D01*
X90583102Y-138204146D01*
X90594741Y-138203230D01*
X90640369Y-138201797D01*
X90660749Y-138195875D01*
X90679789Y-138191932D01*
X90700858Y-138189271D01*
X90743320Y-138172458D01*
X90754357Y-138168680D01*
X90798198Y-138155944D01*
X90816470Y-138145136D01*
X90833936Y-138136580D01*
X90853671Y-138128768D01*
X90890616Y-138101925D01*
X90900348Y-138095532D01*
X90939665Y-138072281D01*
X90954674Y-138057271D01*
X90969463Y-138044639D01*
X90986637Y-138032163D01*
X91015746Y-137996974D01*
X91023590Y-137988354D01*
X91166113Y-137845831D01*
X91182762Y-137832494D01*
X91184536Y-137830604D01*
X91184540Y-137830602D01*
X91232498Y-137779530D01*
X91235146Y-137776798D01*
X91255511Y-137756435D01*
X91258211Y-137752952D01*
X91265787Y-137744081D01*
X91297048Y-137710793D01*
X91307275Y-137692187D01*
X91317948Y-137675939D01*
X91330962Y-137659164D01*
X91349091Y-137617268D01*
X91354231Y-137606777D01*
X91355444Y-137604570D01*
X91376227Y-137566768D01*
X91381506Y-137546205D01*
X91387804Y-137527806D01*
X91396235Y-137508326D01*
X91403377Y-137463224D01*
X91405745Y-137451797D01*
X91407628Y-137444467D01*
X91415221Y-137414895D01*
X91417100Y-137407578D01*
X91417100Y-137386355D01*
X91418627Y-137366958D01*
X91423642Y-137335293D01*
X91451824Y-137274159D01*
X91507796Y-137236759D01*
X91575062Y-137234116D01*
X91633796Y-137267009D01*
X91638555Y-137271768D01*
X91782900Y-137360802D01*
X91782902Y-137360802D01*
X91782903Y-137360803D01*
X91943892Y-137414149D01*
X92043255Y-137424300D01*
X92589944Y-137424299D01*
X92689308Y-137414149D01*
X92850297Y-137360803D01*
X92851144Y-137360281D01*
X92994644Y-137271768D01*
X93114568Y-137151844D01*
X93203602Y-137007499D01*
X93214308Y-136975192D01*
X93256949Y-136846508D01*
X93267100Y-136747145D01*
X93267099Y-136150456D01*
X93266984Y-136149335D01*
X93256949Y-136051092D01*
X93203602Y-135890100D01*
X93114568Y-135745755D01*
X93091419Y-135722606D01*
X93064539Y-135682378D01*
X93055100Y-135634925D01*
X93055100Y-135554823D01*
X93071713Y-135492823D01*
X93110850Y-135425035D01*
X93125005Y-135381471D01*
X93166097Y-135255003D01*
X93184785Y-135077200D01*
X93166097Y-134899397D01*
X93135350Y-134804767D01*
X93110850Y-134729364D01*
X93021459Y-134574534D01*
X92901828Y-134441672D01*
X92757196Y-134336589D01*
X92593864Y-134263869D01*
X92418993Y-134226700D01*
X92418991Y-134226700D01*
X92240209Y-134226700D01*
X92240207Y-134226700D01*
X92065335Y-134263869D01*
X91902008Y-134336587D01*
X91757368Y-134441674D01*
X91637740Y-134574534D01*
X91548350Y-134729363D01*
X91500365Y-134877045D01*
X91466605Y-134929782D01*
X91411381Y-134959300D01*
X91348775Y-134958070D01*
X91294753Y-134926407D01*
X91282674Y-134914328D01*
X91270036Y-134899531D01*
X91267912Y-134896608D01*
X91257563Y-134882363D01*
X91224487Y-134855000D01*
X91222379Y-134853256D01*
X91213740Y-134845394D01*
X90975245Y-134606899D01*
X90944813Y-134556972D01*
X90940644Y-134498651D01*
X90955204Y-134464651D01*
X90955165Y-134464637D01*
X90961486Y-134447689D01*
X91011691Y-134313083D01*
X91018100Y-134253473D01*
X91018100Y-133944600D01*
X94242600Y-133944600D01*
X94242600Y-134242424D01*
X94249002Y-134301975D01*
X94299247Y-134436689D01*
X94385411Y-134551788D01*
X94500510Y-134637952D01*
X94635224Y-134688197D01*
X94694776Y-134694600D01*
X94992600Y-134694600D01*
X94992600Y-133944600D01*
X94242600Y-133944600D01*
X91018100Y-133944600D01*
X91018099Y-133157728D01*
X91011691Y-133098117D01*
X90961396Y-132963269D01*
X90953340Y-132952508D01*
X90902863Y-132885079D01*
X90898993Y-132879910D01*
X90877094Y-132831958D01*
X90877094Y-132779242D01*
X90898994Y-132731289D01*
X90907229Y-132720289D01*
X90961396Y-132647931D01*
X91011691Y-132513083D01*
X91018100Y-132453473D01*
X91018099Y-131357728D01*
X91011691Y-131298117D01*
X90961396Y-131163269D01*
X90875146Y-131048054D01*
X90759931Y-130961804D01*
X90756907Y-130960676D01*
X90748765Y-130957639D01*
X90706529Y-130931200D01*
X90678112Y-130890270D01*
X90668100Y-130841458D01*
X90668100Y-129625504D01*
X90670441Y-129604294D01*
X90670353Y-129601504D01*
X90668160Y-129531736D01*
X90668100Y-129527842D01*
X90668100Y-129499081D01*
X90668100Y-129499075D01*
X90667546Y-129494695D01*
X90666630Y-129483054D01*
X90666622Y-129482801D01*
X90665197Y-129437430D01*
X90659275Y-129417047D01*
X90655332Y-129398010D01*
X90652671Y-129376942D01*
X90635866Y-129334498D01*
X90632081Y-129323444D01*
X90627583Y-129307961D01*
X90619344Y-129279601D01*
X90608534Y-129261322D01*
X90599980Y-129243862D01*
X90592168Y-129224129D01*
X90565323Y-129187180D01*
X90558932Y-129177451D01*
X90535681Y-129138135D01*
X90520668Y-129123122D01*
X90508035Y-129108330D01*
X90495563Y-129091163D01*
X90460379Y-129062056D01*
X90451740Y-129054194D01*
X90284034Y-128886488D01*
X90270691Y-128869833D01*
X90217766Y-128820134D01*
X90214969Y-128817423D01*
X90194634Y-128797088D01*
X90191147Y-128794383D01*
X90182271Y-128786801D01*
X90148994Y-128755552D01*
X90130393Y-128745326D01*
X90114132Y-128734645D01*
X90097364Y-128721638D01*
X90073777Y-128711431D01*
X90055469Y-128703508D01*
X90044979Y-128698369D01*
X90004967Y-128676372D01*
X89984400Y-128671091D01*
X89965998Y-128664791D01*
X89946524Y-128656364D01*
X89901437Y-128649223D01*
X89889998Y-128646854D01*
X89845778Y-128635500D01*
X89845777Y-128635500D01*
X89824555Y-128635500D01*
X89805156Y-128633973D01*
X89784196Y-128630653D01*
X89784195Y-128630653D01*
X89762158Y-128632736D01*
X89738739Y-128634950D01*
X89727070Y-128635500D01*
X84579889Y-128635500D01*
X84518972Y-128619505D01*
X84484714Y-128586265D01*
X84484519Y-128586461D01*
X84353586Y-128455528D01*
X84265580Y-128402326D01*
X84208006Y-128367522D01*
X84045596Y-128316914D01*
X84045593Y-128316913D01*
X83975017Y-128310500D01*
X83975016Y-128310500D01*
X83461784Y-128310500D01*
X83461783Y-128310500D01*
X83391206Y-128316913D01*
X83309999Y-128342217D01*
X83228794Y-128367522D01*
X83228792Y-128367522D01*
X83228792Y-128367523D01*
X83083213Y-128455528D01*
X82981081Y-128557661D01*
X82925494Y-128589755D01*
X82861306Y-128589755D01*
X82805719Y-128557661D01*
X82703586Y-128455528D01*
X82615580Y-128402326D01*
X82558006Y-128367522D01*
X82395596Y-128316914D01*
X82395593Y-128316913D01*
X82325017Y-128310500D01*
X82325016Y-128310500D01*
X81811784Y-128310500D01*
X81811783Y-128310500D01*
X81741206Y-128316913D01*
X81659999Y-128342217D01*
X81578794Y-128367522D01*
X81578792Y-128367522D01*
X81578792Y-128367523D01*
X81433213Y-128455528D01*
X81302281Y-128586461D01*
X81302085Y-128586265D01*
X81267828Y-128619505D01*
X81206911Y-128635500D01*
X76793505Y-128635500D01*
X76772294Y-128633158D01*
X76699724Y-128635439D01*
X76695829Y-128635500D01*
X76667074Y-128635500D01*
X76662701Y-128636052D01*
X76651069Y-128636967D01*
X76605428Y-128638401D01*
X76585041Y-128644324D01*
X76565998Y-128648268D01*
X76544942Y-128650928D01*
X76502496Y-128667733D01*
X76491450Y-128671514D01*
X76447602Y-128684254D01*
X76429324Y-128695063D01*
X76411861Y-128703618D01*
X76392130Y-128711431D01*
X76355187Y-128738270D01*
X76345428Y-128744680D01*
X76306135Y-128767918D01*
X76291125Y-128782928D01*
X76276336Y-128795558D01*
X76259164Y-128808034D01*
X76230057Y-128843218D01*
X76222196Y-128851856D01*
X75793084Y-129280968D01*
X75776431Y-129294310D01*
X75726733Y-129347233D01*
X75724027Y-129350026D01*
X75703683Y-129370371D01*
X75700976Y-129373860D01*
X75693407Y-129382721D01*
X75662151Y-129416007D01*
X75651922Y-129434612D01*
X75641245Y-129450867D01*
X75628236Y-129467638D01*
X75610106Y-129509532D01*
X75604970Y-129520016D01*
X75582972Y-129560032D01*
X75577691Y-129580599D01*
X75571391Y-129599000D01*
X75562964Y-129618474D01*
X75555823Y-129663561D01*
X75553455Y-129674993D01*
X75542390Y-129718096D01*
X75542100Y-129719224D01*
X75542100Y-129740445D01*
X75540573Y-129759844D01*
X75538961Y-129770024D01*
X75537253Y-129780805D01*
X75539276Y-129802200D01*
X75541550Y-129826261D01*
X75542100Y-129837930D01*
X75542100Y-130841458D01*
X75532088Y-130890270D01*
X75503671Y-130931200D01*
X75461435Y-130957639D01*
X75450271Y-130961803D01*
X75450270Y-130961803D01*
X75450269Y-130961804D01*
X75364277Y-131026178D01*
X75335054Y-131048054D01*
X75248804Y-131163268D01*
X75198509Y-131298116D01*
X75197482Y-131307668D01*
X75192475Y-131354245D01*
X75192100Y-131357730D01*
X75192100Y-132453469D01*
X75198509Y-132513084D01*
X75244701Y-132636930D01*
X75248804Y-132647931D01*
X75311519Y-132731707D01*
X75333417Y-132779657D01*
X75333417Y-132832374D01*
X75311518Y-132880326D01*
X75249248Y-132963508D01*
X75199002Y-133098224D01*
X75192600Y-133157776D01*
X75192600Y-133455600D01*
X76318600Y-133455600D01*
X76380600Y-133472213D01*
X76425987Y-133517600D01*
X76442600Y-133579600D01*
X76442600Y-134705600D01*
X76740424Y-134705600D01*
X76799975Y-134699197D01*
X76934688Y-134648952D01*
X77019852Y-134585199D01*
X77072270Y-134562414D01*
X77129340Y-134565560D01*
X77178936Y-134593970D01*
X77210520Y-134641606D01*
X77217383Y-134698349D01*
X77197592Y-134873999D01*
X77217158Y-135047657D01*
X77274877Y-135212606D01*
X77367852Y-135360576D01*
X77491423Y-135484147D01*
X77639393Y-135577122D01*
X77804342Y-135634841D01*
X77978000Y-135654407D01*
X78151657Y-135634841D01*
X78316606Y-135577122D01*
X78464576Y-135484147D01*
X78588147Y-135360576D01*
X78681122Y-135212606D01*
X78738841Y-135047657D01*
X78758407Y-134874000D01*
X78750694Y-134805544D01*
X78738841Y-134700342D01*
X78681122Y-134535393D01*
X78647506Y-134481893D01*
X78628500Y-134415922D01*
X78628500Y-132908808D01*
X78637939Y-132861355D01*
X78664819Y-132821127D01*
X78692047Y-132793899D01*
X78720911Y-132765035D01*
X78720911Y-132765034D01*
X78893529Y-132592416D01*
X78933756Y-132565539D01*
X78981208Y-132556100D01*
X79428458Y-132556100D01*
X79477270Y-132566112D01*
X79518200Y-132594529D01*
X79544639Y-132636765D01*
X79548804Y-132647931D01*
X79603282Y-132720704D01*
X79611206Y-132731289D01*
X79633105Y-132779242D01*
X79633105Y-132831958D01*
X79611206Y-132879910D01*
X79607337Y-132885079D01*
X79548804Y-132963268D01*
X79498509Y-133098115D01*
X79498509Y-133098117D01*
X79493278Y-133146776D01*
X79492100Y-133157730D01*
X79492100Y-134253469D01*
X79498509Y-134313084D01*
X79507275Y-134336587D01*
X79548804Y-134447931D01*
X79635054Y-134563146D01*
X79750269Y-134649396D01*
X79797758Y-134667108D01*
X79841226Y-134694737D01*
X79869718Y-134737646D01*
X79874338Y-134749316D01*
X79878120Y-134760363D01*
X79890856Y-134804200D01*
X79901661Y-134822470D01*
X79910221Y-134839943D01*
X79916182Y-134855000D01*
X79918032Y-134859671D01*
X79922153Y-134865343D01*
X79944867Y-134896608D01*
X79951273Y-134906360D01*
X79974519Y-134945665D01*
X79974521Y-134945667D01*
X79989525Y-134960671D01*
X80002162Y-134975467D01*
X80014637Y-134992637D01*
X80045745Y-135018372D01*
X80049812Y-135021736D01*
X80058454Y-135029600D01*
X80439039Y-135410185D01*
X80471133Y-135465771D01*
X80471133Y-135529957D01*
X80439042Y-135585545D01*
X80431230Y-135593357D01*
X80342197Y-135737700D01*
X80288850Y-135898692D01*
X80278700Y-135998055D01*
X80278700Y-136594744D01*
X80288850Y-136694107D01*
X80342196Y-136855096D01*
X80380090Y-136916531D01*
X80397846Y-136968427D01*
X80391479Y-137022906D01*
X80362233Y-137069309D01*
X80297127Y-137134415D01*
X80209123Y-137279992D01*
X80209122Y-137279994D01*
X80189817Y-137341947D01*
X80158513Y-137442406D01*
X80152100Y-137512983D01*
X80152100Y-138026217D01*
X80158513Y-138096793D01*
X80158514Y-138096796D01*
X80209122Y-138259206D01*
X80220562Y-138278130D01*
X80297128Y-138404786D01*
X80399261Y-138506919D01*
X80431355Y-138562506D01*
X80431355Y-138626694D01*
X80399261Y-138682281D01*
X80297128Y-138784413D01*
X80209123Y-138929992D01*
X80209122Y-138929994D01*
X80191338Y-138987067D01*
X80158513Y-139092406D01*
X80152100Y-139162983D01*
X80152100Y-139676217D01*
X80158513Y-139746793D01*
X80158514Y-139746796D01*
X80209122Y-139909206D01*
X80237783Y-139956617D01*
X80297128Y-140054786D01*
X80417413Y-140175071D01*
X80417415Y-140175072D01*
X80562994Y-140263078D01*
X80562996Y-140263078D01*
X80569650Y-140267101D01*
X80613506Y-140312302D01*
X80629500Y-140373218D01*
X80629500Y-140478095D01*
X80627158Y-140499304D01*
X80629439Y-140571862D01*
X80629500Y-140575757D01*
X80629500Y-140604526D01*
X80630053Y-140608907D01*
X80630968Y-140620540D01*
X80632402Y-140666169D01*
X80638323Y-140686550D01*
X80642267Y-140705595D01*
X80644928Y-140726659D01*
X80661737Y-140769115D01*
X80665520Y-140780163D01*
X80678256Y-140824000D01*
X80689061Y-140842270D01*
X80697621Y-140859743D01*
X80698846Y-140862838D01*
X80705432Y-140879471D01*
X80717987Y-140896752D01*
X80732267Y-140916408D01*
X80738673Y-140926160D01*
X80761919Y-140965465D01*
X80761921Y-140965467D01*
X80767873Y-140971419D01*
X80798123Y-141020782D01*
X80802665Y-141078498D01*
X80780510Y-141131985D01*
X80736487Y-141169585D01*
X80680192Y-141183100D01*
X72558408Y-141183100D01*
X72510955Y-141173661D01*
X72470727Y-141146781D01*
X72416419Y-141092473D01*
X72389539Y-141052245D01*
X72380100Y-141004792D01*
X72380100Y-140687489D01*
X72396095Y-140626572D01*
X72429334Y-140592314D01*
X72429139Y-140592119D01*
X72560071Y-140461186D01*
X72560280Y-140460841D01*
X72648078Y-140315606D01*
X72698686Y-140153196D01*
X72705100Y-140082616D01*
X72705100Y-139569384D01*
X72698686Y-139498804D01*
X72648078Y-139336394D01*
X72565961Y-139200557D01*
X72560071Y-139190813D01*
X72457939Y-139088681D01*
X72425845Y-139033094D01*
X72425845Y-138968906D01*
X72457939Y-138913319D01*
X72560071Y-138811186D01*
X72560072Y-138811185D01*
X72648078Y-138665606D01*
X72698686Y-138503196D01*
X72705100Y-138432616D01*
X72705100Y-137919384D01*
X72698686Y-137848804D01*
X72648078Y-137686394D01*
X72569312Y-137556100D01*
X72552283Y-137527930D01*
X72552929Y-137527539D01*
X72531504Y-137492038D01*
X72528042Y-137432608D01*
X72552677Y-137378415D01*
X72599729Y-137341947D01*
X72658354Y-137331610D01*
X72715041Y-137349785D01*
X72732903Y-137360803D01*
X72893892Y-137414149D01*
X72993255Y-137424300D01*
X73539944Y-137424299D01*
X73639308Y-137414149D01*
X73800297Y-137360803D01*
X73801144Y-137360281D01*
X73944644Y-137271768D01*
X74064567Y-137151845D01*
X74064570Y-137151841D01*
X74086082Y-137116965D01*
X74093955Y-137104202D01*
X74139062Y-137061022D01*
X74199493Y-137045300D01*
X74257393Y-137045300D01*
X74432264Y-137008130D01*
X74432265Y-137008129D01*
X74432267Y-137008129D01*
X74595593Y-136935412D01*
X74636217Y-136905897D01*
X74672327Y-136879661D01*
X74740230Y-136830326D01*
X74859859Y-136697465D01*
X74949250Y-136542635D01*
X75004497Y-136372603D01*
X75023185Y-136194800D01*
X75004497Y-136016997D01*
X74965883Y-135898156D01*
X74949250Y-135846964D01*
X74859859Y-135692134D01*
X74740228Y-135559272D01*
X74595596Y-135454189D01*
X74432264Y-135381469D01*
X74257393Y-135344300D01*
X74257391Y-135344300D01*
X74078609Y-135344300D01*
X74078607Y-135344300D01*
X73903737Y-135381469D01*
X73879202Y-135392393D01*
X73740408Y-135454188D01*
X73740405Y-135454189D01*
X73730545Y-135458580D01*
X73680109Y-135469300D01*
X73186544Y-135469300D01*
X73159484Y-135472462D01*
X73145093Y-135473300D01*
X72993255Y-135473300D01*
X72893892Y-135483450D01*
X72732900Y-135536797D01*
X72588555Y-135625831D01*
X72579281Y-135635106D01*
X72523694Y-135667200D01*
X72459506Y-135667200D01*
X72403919Y-135635106D01*
X72394645Y-135625832D01*
X72388202Y-135621858D01*
X72345022Y-135576751D01*
X72329300Y-135516320D01*
X72329300Y-135365905D01*
X72331641Y-135344694D01*
X72331527Y-135341075D01*
X72329361Y-135272124D01*
X72329300Y-135268229D01*
X72329300Y-135239482D01*
X72329300Y-135239475D01*
X72328747Y-135235100D01*
X72327831Y-135223463D01*
X72327676Y-135218529D01*
X72326398Y-135177831D01*
X72320475Y-135157445D01*
X72316531Y-135138404D01*
X72313871Y-135117342D01*
X72297067Y-135074901D01*
X72293284Y-135063852D01*
X72291807Y-135058767D01*
X72280545Y-135020002D01*
X72272339Y-135006126D01*
X72269737Y-135001726D01*
X72261176Y-134984250D01*
X72253368Y-134964529D01*
X72226531Y-134927591D01*
X72220117Y-134917825D01*
X72196881Y-134878535D01*
X72181874Y-134863528D01*
X72169236Y-134848731D01*
X72156763Y-134831563D01*
X72128489Y-134808173D01*
X72121579Y-134802456D01*
X72112940Y-134794594D01*
X71925245Y-134606899D01*
X71894813Y-134556972D01*
X71890644Y-134498651D01*
X71905204Y-134464651D01*
X71905165Y-134464637D01*
X71911486Y-134447689D01*
X71961691Y-134313083D01*
X71968100Y-134253473D01*
X71968100Y-133955600D01*
X75192600Y-133955600D01*
X75192600Y-134253424D01*
X75199002Y-134312975D01*
X75249247Y-134447689D01*
X75335411Y-134562788D01*
X75450510Y-134648952D01*
X75585224Y-134699197D01*
X75644776Y-134705600D01*
X75942600Y-134705600D01*
X75942600Y-133955600D01*
X75192600Y-133955600D01*
X71968100Y-133955600D01*
X71968099Y-133157728D01*
X71961691Y-133098117D01*
X71911396Y-132963269D01*
X71903340Y-132952508D01*
X71852863Y-132885079D01*
X71848993Y-132879910D01*
X71827094Y-132831958D01*
X71827094Y-132779242D01*
X71848994Y-132731289D01*
X71857229Y-132720289D01*
X71911396Y-132647931D01*
X71961691Y-132513083D01*
X71968100Y-132453473D01*
X71968099Y-131357728D01*
X71961691Y-131298117D01*
X71911396Y-131163269D01*
X71825146Y-131048054D01*
X71709931Y-130961804D01*
X71706907Y-130960676D01*
X71698765Y-130957639D01*
X71656529Y-130931200D01*
X71628112Y-130890270D01*
X71618100Y-130841458D01*
X71618100Y-129574704D01*
X71620441Y-129553494D01*
X71619757Y-129531737D01*
X71618160Y-129480936D01*
X71618100Y-129477042D01*
X71618100Y-129448281D01*
X71618100Y-129448275D01*
X71617546Y-129443895D01*
X71616630Y-129432254D01*
X71616536Y-129429266D01*
X71615197Y-129386630D01*
X71609275Y-129366247D01*
X71605332Y-129347210D01*
X71602671Y-129326142D01*
X71585866Y-129283698D01*
X71582081Y-129272644D01*
X71569344Y-129228802D01*
X71569344Y-129228801D01*
X71558534Y-129210522D01*
X71549980Y-129193062D01*
X71542168Y-129173329D01*
X71515323Y-129136380D01*
X71508932Y-129126651D01*
X71485681Y-129087335D01*
X71470668Y-129072322D01*
X71458035Y-129057530D01*
X71455611Y-129054194D01*
X71445563Y-129040363D01*
X71414628Y-129014771D01*
X71410379Y-129011256D01*
X71401740Y-129003394D01*
X71284834Y-128886488D01*
X71271491Y-128869833D01*
X71218566Y-128820134D01*
X71215769Y-128817423D01*
X71195434Y-128797088D01*
X71191947Y-128794383D01*
X71183071Y-128786801D01*
X71149794Y-128755552D01*
X71131193Y-128745326D01*
X71114932Y-128734645D01*
X71098164Y-128721638D01*
X71074577Y-128711431D01*
X71056269Y-128703508D01*
X71045779Y-128698369D01*
X71005767Y-128676372D01*
X70985200Y-128671091D01*
X70966798Y-128664791D01*
X70947324Y-128656364D01*
X70902237Y-128649223D01*
X70890798Y-128646854D01*
X70846578Y-128635500D01*
X70846577Y-128635500D01*
X70825355Y-128635500D01*
X70805956Y-128633973D01*
X70784996Y-128630653D01*
X70784995Y-128630653D01*
X70762958Y-128632736D01*
X70739539Y-128634950D01*
X70727870Y-128635500D01*
X65479089Y-128635500D01*
X65418172Y-128619505D01*
X65383914Y-128586265D01*
X65383719Y-128586461D01*
X65252786Y-128455528D01*
X65164780Y-128402326D01*
X65107206Y-128367522D01*
X64944796Y-128316914D01*
X64944793Y-128316913D01*
X64874217Y-128310500D01*
X64874216Y-128310500D01*
X64360984Y-128310500D01*
X64360983Y-128310500D01*
X64290406Y-128316913D01*
X64209199Y-128342217D01*
X64127994Y-128367522D01*
X64127992Y-128367522D01*
X64127992Y-128367523D01*
X63982413Y-128455528D01*
X63880281Y-128557661D01*
X63824694Y-128589755D01*
X63760506Y-128589755D01*
X63704919Y-128557661D01*
X63602786Y-128455528D01*
X63514780Y-128402326D01*
X63457206Y-128367522D01*
X63294796Y-128316914D01*
X63294793Y-128316913D01*
X63224217Y-128310500D01*
X63224216Y-128310500D01*
X62710984Y-128310500D01*
X62710983Y-128310500D01*
X62640406Y-128316913D01*
X62559199Y-128342217D01*
X62477994Y-128367522D01*
X62477992Y-128367522D01*
X62477992Y-128367523D01*
X62332413Y-128455528D01*
X62201481Y-128586461D01*
X62201285Y-128586265D01*
X62167028Y-128619505D01*
X62106111Y-128635500D01*
X57387904Y-128635500D01*
X57366694Y-128633158D01*
X57294137Y-128635439D01*
X57290242Y-128635500D01*
X57261471Y-128635500D01*
X57257090Y-128636053D01*
X57245459Y-128636968D01*
X57199830Y-128638402D01*
X57179451Y-128644323D01*
X57160407Y-128648267D01*
X57146039Y-128650082D01*
X57139341Y-128650929D01*
X57096890Y-128667736D01*
X57085843Y-128671518D01*
X57041998Y-128684256D01*
X57023730Y-128695060D01*
X57006264Y-128703617D01*
X56986529Y-128711431D01*
X56949602Y-128738260D01*
X56939842Y-128744671D01*
X56900536Y-128767917D01*
X56885525Y-128782928D01*
X56870736Y-128795558D01*
X56853564Y-128808034D01*
X56824457Y-128843218D01*
X56816596Y-128851856D01*
X56743084Y-128925368D01*
X56726431Y-128938710D01*
X56676733Y-128991633D01*
X56674027Y-128994426D01*
X56653683Y-129014771D01*
X56650976Y-129018260D01*
X56643407Y-129027121D01*
X56612151Y-129060407D01*
X56601922Y-129079012D01*
X56591245Y-129095267D01*
X56578236Y-129112038D01*
X56560106Y-129153932D01*
X56554970Y-129164416D01*
X56532972Y-129204432D01*
X56527691Y-129224999D01*
X56521391Y-129243400D01*
X56512964Y-129262874D01*
X56505823Y-129307961D01*
X56503455Y-129319393D01*
X56496369Y-129346998D01*
X56492100Y-129363624D01*
X56492100Y-129384845D01*
X56490573Y-129404244D01*
X56487253Y-129425205D01*
X56488039Y-129433521D01*
X56491550Y-129470661D01*
X56492100Y-129482330D01*
X56492100Y-130841458D01*
X56482088Y-130890270D01*
X56453671Y-130931200D01*
X56411435Y-130957639D01*
X56400271Y-130961803D01*
X56400270Y-130961803D01*
X56400269Y-130961804D01*
X56314277Y-131026178D01*
X56285054Y-131048054D01*
X56198804Y-131163268D01*
X56148509Y-131298116D01*
X56147482Y-131307668D01*
X56142475Y-131354245D01*
X56142100Y-131357730D01*
X56142100Y-132453469D01*
X56148509Y-132513084D01*
X56194701Y-132636930D01*
X56198804Y-132647931D01*
X56261519Y-132731707D01*
X56283417Y-132779657D01*
X56283417Y-132832374D01*
X56261518Y-132880326D01*
X56199248Y-132963508D01*
X56149002Y-133098224D01*
X56142600Y-133157776D01*
X56142600Y-133455600D01*
X58142600Y-133455600D01*
X58142600Y-133157776D01*
X58136197Y-133098224D01*
X58085952Y-132963511D01*
X58023681Y-132880327D01*
X58001782Y-132832374D01*
X58001782Y-132779657D01*
X58023679Y-132731709D01*
X58086396Y-132647931D01*
X58136691Y-132513083D01*
X58143100Y-132453473D01*
X58143099Y-131357728D01*
X58136691Y-131298117D01*
X58086396Y-131163269D01*
X58000146Y-131048054D01*
X57884931Y-130961804D01*
X57881907Y-130960676D01*
X57873765Y-130957639D01*
X57831529Y-130931200D01*
X57803112Y-130890270D01*
X57793100Y-130841458D01*
X57793100Y-130060500D01*
X57809713Y-129998500D01*
X57855100Y-129953113D01*
X57917100Y-129936500D01*
X62106111Y-129936500D01*
X62167028Y-129952495D01*
X62201285Y-129985734D01*
X62201481Y-129985539D01*
X62332413Y-130116471D01*
X62332415Y-130116472D01*
X62477994Y-130204478D01*
X62640404Y-130255086D01*
X62687457Y-130259361D01*
X62710983Y-130261500D01*
X62710984Y-130261500D01*
X63224216Y-130261500D01*
X63224217Y-130261500D01*
X63241860Y-130259896D01*
X63294796Y-130255086D01*
X63457206Y-130204478D01*
X63602785Y-130116472D01*
X63648411Y-130070846D01*
X63704919Y-130014339D01*
X63760506Y-129982245D01*
X63824694Y-129982245D01*
X63880281Y-130014339D01*
X63982413Y-130116471D01*
X63982415Y-130116472D01*
X64127994Y-130204478D01*
X64290404Y-130255086D01*
X64337457Y-130259361D01*
X64360983Y-130261500D01*
X64360984Y-130261500D01*
X64874216Y-130261500D01*
X64874217Y-130261500D01*
X64891860Y-130259896D01*
X64944796Y-130255086D01*
X65107206Y-130204478D01*
X65252785Y-130116472D01*
X65308757Y-130060500D01*
X65383719Y-129985539D01*
X65383914Y-129985734D01*
X65418172Y-129952495D01*
X65479089Y-129936500D01*
X70193100Y-129936500D01*
X70255100Y-129953113D01*
X70300487Y-129998500D01*
X70317100Y-130060500D01*
X70317100Y-130841458D01*
X70307088Y-130890270D01*
X70278671Y-130931200D01*
X70236435Y-130957639D01*
X70225271Y-130961803D01*
X70225270Y-130961803D01*
X70225269Y-130961804D01*
X70139277Y-131026178D01*
X70110054Y-131048054D01*
X70023804Y-131163268D01*
X69973509Y-131298116D01*
X69972482Y-131307668D01*
X69967475Y-131354245D01*
X69967100Y-131357730D01*
X69967100Y-132453469D01*
X69973509Y-132513084D01*
X69997516Y-132577450D01*
X70023804Y-132647931D01*
X70077971Y-132720289D01*
X70086206Y-132731289D01*
X70108105Y-132779242D01*
X70108105Y-132831958D01*
X70086206Y-132879910D01*
X70082337Y-132885079D01*
X70023804Y-132963268D01*
X69973509Y-133098115D01*
X69973509Y-133098117D01*
X69968278Y-133146776D01*
X69967100Y-133157730D01*
X69967100Y-134253469D01*
X69973509Y-134313084D01*
X69982275Y-134336587D01*
X70023804Y-134447931D01*
X70110054Y-134563146D01*
X70225269Y-134649396D01*
X70260960Y-134662708D01*
X70304426Y-134690336D01*
X70332918Y-134733243D01*
X70349337Y-134774714D01*
X70353120Y-134785763D01*
X70365856Y-134829600D01*
X70376661Y-134847870D01*
X70385221Y-134865343D01*
X70391079Y-134880140D01*
X70393032Y-134885071D01*
X70404122Y-134900336D01*
X70419867Y-134922008D01*
X70426273Y-134931760D01*
X70449519Y-134971065D01*
X70449521Y-134971067D01*
X70464525Y-134986071D01*
X70477161Y-135000865D01*
X70489637Y-135018037D01*
X70520340Y-135043437D01*
X70524812Y-135047136D01*
X70533454Y-135055000D01*
X70983739Y-135505285D01*
X71015833Y-135560872D01*
X71015833Y-135625059D01*
X70983740Y-135680647D01*
X70918629Y-135745758D01*
X70829597Y-135890100D01*
X70776250Y-136051092D01*
X70766100Y-136150455D01*
X70766100Y-136747144D01*
X70776250Y-136846507D01*
X70829597Y-137007499D01*
X70918629Y-137151841D01*
X70918631Y-137151843D01*
X70918632Y-137151844D01*
X70991983Y-137225195D01*
X71018861Y-137265421D01*
X71028300Y-137312874D01*
X71028300Y-137360281D01*
X71018861Y-137407734D01*
X70991983Y-137447959D01*
X70947905Y-137492038D01*
X70899127Y-137540815D01*
X70815470Y-137679201D01*
X70811122Y-137686394D01*
X70791821Y-137748333D01*
X70760513Y-137848806D01*
X70754100Y-137919383D01*
X70754100Y-138432617D01*
X70760513Y-138503193D01*
X70760514Y-138503196D01*
X70811122Y-138665606D01*
X70834937Y-138705001D01*
X70899128Y-138811186D01*
X71001261Y-138913319D01*
X71033355Y-138968906D01*
X71033355Y-139033094D01*
X71001261Y-139088681D01*
X70899128Y-139190813D01*
X70820529Y-139320833D01*
X70811122Y-139336394D01*
X70795854Y-139385393D01*
X70760513Y-139498806D01*
X70754100Y-139569383D01*
X70754100Y-140082617D01*
X70760513Y-140153193D01*
X70760514Y-140153196D01*
X70811122Y-140315606D01*
X70834357Y-140354041D01*
X70899128Y-140461186D01*
X71030061Y-140592119D01*
X71029865Y-140592314D01*
X71063105Y-140626572D01*
X71079100Y-140687489D01*
X71079100Y-141240095D01*
X71076758Y-141261304D01*
X71079039Y-141333862D01*
X71079100Y-141337757D01*
X71079100Y-141366526D01*
X71079653Y-141370907D01*
X71080568Y-141382540D01*
X71082002Y-141428169D01*
X71087923Y-141448550D01*
X71091867Y-141467595D01*
X71094528Y-141488659D01*
X71111337Y-141531115D01*
X71115120Y-141542163D01*
X71127856Y-141586000D01*
X71138661Y-141604270D01*
X71147221Y-141621743D01*
X71155031Y-141641469D01*
X71181867Y-141678408D01*
X71188276Y-141688165D01*
X71199519Y-141707174D01*
X71216786Y-141769322D01*
X71200502Y-141831735D01*
X71155072Y-141877524D01*
X71092790Y-141894300D01*
X69190478Y-141894300D01*
X69124507Y-141875294D01*
X69071006Y-141841677D01*
X68906057Y-141783958D01*
X68781816Y-141769960D01*
X68725848Y-141749194D01*
X68686070Y-141704681D01*
X68671700Y-141646740D01*
X68671700Y-139874689D01*
X68687695Y-139813772D01*
X68720934Y-139779514D01*
X68720739Y-139779319D01*
X68851671Y-139648386D01*
X68851672Y-139648385D01*
X68939678Y-139502806D01*
X68990286Y-139340396D01*
X68996700Y-139269816D01*
X68996700Y-138756584D01*
X68996109Y-138750086D01*
X68993271Y-138718847D01*
X68990286Y-138686004D01*
X68939678Y-138523594D01*
X68853089Y-138380359D01*
X68851671Y-138378013D01*
X68749538Y-138275880D01*
X68717444Y-138220292D01*
X68717444Y-138156105D01*
X68749537Y-138100519D01*
X68800039Y-138050018D01*
X68840267Y-138023139D01*
X68887719Y-138013700D01*
X69290322Y-138013700D01*
X69356293Y-138032706D01*
X69409793Y-138066322D01*
X69574742Y-138124041D01*
X69748400Y-138143607D01*
X69922057Y-138124041D01*
X70087006Y-138066322D01*
X70234976Y-137973347D01*
X70358547Y-137849776D01*
X70451522Y-137701806D01*
X70509241Y-137536857D01*
X70528807Y-137363200D01*
X70520646Y-137290770D01*
X70509241Y-137189542D01*
X70451522Y-137024593D01*
X70358547Y-136876623D01*
X70234976Y-136753052D01*
X70087006Y-136660077D01*
X69922057Y-136602358D01*
X69748400Y-136582792D01*
X69574742Y-136602358D01*
X69409793Y-136660077D01*
X69356293Y-136693694D01*
X69290322Y-136712700D01*
X68887719Y-136712700D01*
X68840266Y-136703261D01*
X68800040Y-136676383D01*
X68731385Y-136607728D01*
X68731384Y-136607727D01*
X68658595Y-136563725D01*
X68585806Y-136519722D01*
X68423396Y-136469114D01*
X68423393Y-136469113D01*
X68352817Y-136462700D01*
X68352816Y-136462700D01*
X67689584Y-136462700D01*
X67689583Y-136462700D01*
X67619006Y-136469113D01*
X67592698Y-136477311D01*
X67456594Y-136519722D01*
X67456592Y-136519722D01*
X67456592Y-136519723D01*
X67311013Y-136607728D01*
X67308277Y-136610465D01*
X67252689Y-136642556D01*
X67188503Y-136642554D01*
X67132917Y-136610460D01*
X67095138Y-136572680D01*
X67095333Y-136572484D01*
X67062095Y-136538228D01*
X67046100Y-136477311D01*
X67046100Y-135518304D01*
X67048441Y-135497094D01*
X67048327Y-135493482D01*
X67046160Y-135424536D01*
X67046100Y-135420642D01*
X67046100Y-135391881D01*
X67046100Y-135391875D01*
X67045546Y-135387495D01*
X67044630Y-135375854D01*
X67044502Y-135371783D01*
X67043197Y-135330230D01*
X67037275Y-135309847D01*
X67033332Y-135290810D01*
X67030671Y-135269742D01*
X67013866Y-135227298D01*
X67010081Y-135216244D01*
X67001227Y-135185767D01*
X66997344Y-135172401D01*
X66986534Y-135154122D01*
X66977980Y-135136662D01*
X66970168Y-135116929D01*
X66943323Y-135079980D01*
X66936932Y-135070251D01*
X66913681Y-135030935D01*
X66898668Y-135015922D01*
X66886035Y-135001130D01*
X66885845Y-135000869D01*
X66873563Y-134983963D01*
X66863296Y-134975469D01*
X66838379Y-134954856D01*
X66829740Y-134946994D01*
X66800027Y-134917281D01*
X66769777Y-134867918D01*
X66765235Y-134810202D01*
X66787390Y-134756715D01*
X66831413Y-134719115D01*
X66887708Y-134705600D01*
X67215424Y-134705600D01*
X67274975Y-134699197D01*
X67409689Y-134648952D01*
X67524788Y-134562788D01*
X67610952Y-134447689D01*
X67661197Y-134312975D01*
X67667600Y-134253424D01*
X67667600Y-133955600D01*
X65667600Y-133955600D01*
X65667600Y-134253426D01*
X65671472Y-134289447D01*
X65659718Y-134356882D01*
X65613975Y-134407806D01*
X65548182Y-134426700D01*
X64122100Y-134426700D01*
X64060100Y-134410087D01*
X64014713Y-134364700D01*
X63998100Y-134302700D01*
X63998100Y-132165505D01*
X64000441Y-132144295D01*
X64000176Y-132135867D01*
X63998160Y-132071737D01*
X63998100Y-132067843D01*
X63998100Y-132039081D01*
X63998100Y-132039075D01*
X63997546Y-132034695D01*
X63996630Y-132023054D01*
X63995197Y-131977431D01*
X63989275Y-131957048D01*
X63985332Y-131938011D01*
X63982671Y-131916942D01*
X63978180Y-131905599D01*
X64749615Y-131905599D01*
X64768303Y-132083404D01*
X64823549Y-132253435D01*
X64912940Y-132408265D01*
X64997415Y-132502083D01*
X65028678Y-132536804D01*
X65032571Y-132541127D01*
X65177203Y-132646210D01*
X65177206Y-132646211D01*
X65177207Y-132646212D01*
X65243317Y-132675646D01*
X65340535Y-132718930D01*
X65515407Y-132756100D01*
X65631793Y-132756100D01*
X65696960Y-132774605D01*
X65742677Y-132824596D01*
X65755299Y-132891153D01*
X65731060Y-132954411D01*
X65724247Y-132963511D01*
X65674002Y-133098224D01*
X65667600Y-133157776D01*
X65667600Y-133455600D01*
X67667600Y-133455600D01*
X67667600Y-133157776D01*
X67661197Y-133098224D01*
X67610952Y-132963511D01*
X67548681Y-132880327D01*
X67526782Y-132832374D01*
X67526782Y-132779657D01*
X67548679Y-132731709D01*
X67611396Y-132647931D01*
X67661691Y-132513083D01*
X67668100Y-132453473D01*
X67668099Y-131357728D01*
X67661691Y-131298117D01*
X67611396Y-131163269D01*
X67525146Y-131048054D01*
X67409931Y-130961804D01*
X67275083Y-130911509D01*
X67215473Y-130905100D01*
X67215469Y-130905100D01*
X66119730Y-130905100D01*
X66060115Y-130911509D01*
X65925267Y-130961804D01*
X65822148Y-131038999D01*
X65774485Y-131060835D01*
X65722059Y-131061023D01*
X65694191Y-131055100D01*
X65515409Y-131055100D01*
X65515407Y-131055100D01*
X65340535Y-131092269D01*
X65177208Y-131164987D01*
X65032568Y-131270074D01*
X64912940Y-131402934D01*
X64823549Y-131557764D01*
X64768303Y-131727795D01*
X64749615Y-131905599D01*
X63978180Y-131905599D01*
X63965863Y-131874491D01*
X63962080Y-131863442D01*
X63949344Y-131819602D01*
X63938537Y-131801329D01*
X63929982Y-131783866D01*
X63922168Y-131764129D01*
X63895333Y-131727193D01*
X63888925Y-131717436D01*
X63865684Y-131678138D01*
X63865681Y-131678135D01*
X63850668Y-131663122D01*
X63838035Y-131648330D01*
X63825563Y-131631163D01*
X63790379Y-131602056D01*
X63781740Y-131594194D01*
X63693634Y-131506088D01*
X63680291Y-131489433D01*
X63627366Y-131439734D01*
X63624569Y-131437023D01*
X63604234Y-131416688D01*
X63600747Y-131413983D01*
X63591871Y-131406401D01*
X63558594Y-131375152D01*
X63539993Y-131364926D01*
X63523732Y-131354245D01*
X63506964Y-131341238D01*
X63479340Y-131329284D01*
X63465069Y-131323108D01*
X63454579Y-131317969D01*
X63414567Y-131295972D01*
X63394000Y-131290691D01*
X63375598Y-131284391D01*
X63356124Y-131275964D01*
X63311037Y-131268823D01*
X63299598Y-131266454D01*
X63255378Y-131255100D01*
X63255377Y-131255100D01*
X63234155Y-131255100D01*
X63214756Y-131253573D01*
X63193796Y-131250253D01*
X63193795Y-131250253D01*
X63171758Y-131252336D01*
X63148339Y-131254550D01*
X63136670Y-131255100D01*
X62506742Y-131255100D01*
X62457930Y-131245088D01*
X62417000Y-131216671D01*
X62390561Y-131174435D01*
X62387037Y-131164988D01*
X62386396Y-131163269D01*
X62300146Y-131048054D01*
X62184931Y-130961804D01*
X62050083Y-130911509D01*
X61990473Y-130905100D01*
X61990469Y-130905100D01*
X60894730Y-130905100D01*
X60835115Y-130911509D01*
X60700269Y-130961804D01*
X60585054Y-131048054D01*
X60498804Y-131163268D01*
X60448509Y-131298116D01*
X60447482Y-131307668D01*
X60442475Y-131354245D01*
X60442100Y-131357730D01*
X60442100Y-132453469D01*
X60448509Y-132513084D01*
X60472516Y-132577450D01*
X60498804Y-132647931D01*
X60552971Y-132720289D01*
X60561206Y-132731289D01*
X60583105Y-132779242D01*
X60583105Y-132831958D01*
X60561206Y-132879910D01*
X60557337Y-132885079D01*
X60498804Y-132963268D01*
X60448509Y-133098115D01*
X60448509Y-133098117D01*
X60443278Y-133146776D01*
X60442100Y-133157730D01*
X60442100Y-134253469D01*
X60448509Y-134313084D01*
X60457275Y-134336587D01*
X60498804Y-134447931D01*
X60585054Y-134563146D01*
X60700269Y-134649396D01*
X60794954Y-134684711D01*
X60838421Y-134712339D01*
X60866912Y-134755242D01*
X60867869Y-134757659D01*
X60868032Y-134758071D01*
X60894867Y-134795008D01*
X60901273Y-134804760D01*
X60924519Y-134844065D01*
X60924521Y-134844067D01*
X60939525Y-134859071D01*
X60952162Y-134873867D01*
X60964423Y-134890743D01*
X60964637Y-134891037D01*
X60999812Y-134920136D01*
X61008454Y-134928000D01*
X61465239Y-135384785D01*
X61497333Y-135440372D01*
X61497333Y-135504559D01*
X61465240Y-135560147D01*
X61381229Y-135644158D01*
X61292197Y-135788500D01*
X61238850Y-135949492D01*
X61228700Y-136048855D01*
X61228700Y-136645544D01*
X61238850Y-136744907D01*
X61292197Y-136905899D01*
X61381231Y-137050244D01*
X61501154Y-137170167D01*
X61501156Y-137170168D01*
X61532567Y-137189543D01*
X61545596Y-137197579D01*
X61588777Y-137242686D01*
X61604500Y-137303118D01*
X61604500Y-137331256D01*
X61602235Y-137351762D01*
X61604439Y-137421873D01*
X61604500Y-137425768D01*
X61604500Y-137453349D01*
X61605003Y-137457334D01*
X61605918Y-137468967D01*
X61607290Y-137512626D01*
X61612879Y-137531860D01*
X61616825Y-137550916D01*
X61619335Y-137570792D01*
X61635414Y-137611404D01*
X61639197Y-137622451D01*
X61651382Y-137664391D01*
X61661580Y-137681635D01*
X61670136Y-137699100D01*
X61677514Y-137717732D01*
X61677515Y-137717733D01*
X61703180Y-137753059D01*
X61709593Y-137762822D01*
X61731826Y-137800416D01*
X61731829Y-137800419D01*
X61731830Y-137800420D01*
X61745995Y-137814585D01*
X61758627Y-137829375D01*
X61760436Y-137831865D01*
X61770406Y-137845587D01*
X61793999Y-137865105D01*
X61804058Y-137873426D01*
X61812699Y-137881289D01*
X62365196Y-138433787D01*
X62378096Y-138449888D01*
X62380213Y-138451876D01*
X62380214Y-138451877D01*
X62429223Y-138497900D01*
X62432019Y-138500610D01*
X62451529Y-138520120D01*
X62454711Y-138522588D01*
X62463571Y-138530155D01*
X62495418Y-138560062D01*
X62511704Y-138569015D01*
X62512972Y-138569712D01*
X62529236Y-138580396D01*
X62532582Y-138582991D01*
X62545064Y-138592673D01*
X62569909Y-138603424D01*
X62585152Y-138610021D01*
X62595631Y-138615154D01*
X62633908Y-138636197D01*
X62653306Y-138641177D01*
X62671708Y-138647477D01*
X62690104Y-138655438D01*
X62733261Y-138662273D01*
X62744664Y-138664634D01*
X62786981Y-138675500D01*
X62807016Y-138675500D01*
X62826413Y-138677026D01*
X62846196Y-138680160D01*
X62889674Y-138676050D01*
X62901344Y-138675500D01*
X63980080Y-138675500D01*
X64027533Y-138684939D01*
X64067761Y-138711819D01*
X64143261Y-138787319D01*
X64175355Y-138842906D01*
X64175355Y-138907094D01*
X64143261Y-138962681D01*
X64041128Y-139064813D01*
X63953123Y-139210392D01*
X63953122Y-139210394D01*
X63930565Y-139282782D01*
X63902513Y-139372806D01*
X63896100Y-139443383D01*
X63896100Y-139956617D01*
X63902513Y-140027193D01*
X63902514Y-140027196D01*
X63953122Y-140189606D01*
X63976132Y-140227669D01*
X64041128Y-140335186D01*
X64161411Y-140455469D01*
X64161413Y-140455470D01*
X64161415Y-140455472D01*
X64184662Y-140469525D01*
X64227547Y-140513037D01*
X64244451Y-140571747D01*
X64246039Y-140622273D01*
X64246100Y-140626168D01*
X64246100Y-140653749D01*
X64246603Y-140657734D01*
X64247518Y-140669367D01*
X64248890Y-140713026D01*
X64254479Y-140732260D01*
X64258425Y-140751316D01*
X64260935Y-140771192D01*
X64277014Y-140811804D01*
X64280797Y-140822851D01*
X64292982Y-140864791D01*
X64303180Y-140882035D01*
X64311736Y-140899500D01*
X64319114Y-140918132D01*
X64319115Y-140918133D01*
X64344780Y-140953459D01*
X64351193Y-140963222D01*
X64373426Y-141000816D01*
X64373429Y-141000819D01*
X64373430Y-141000820D01*
X64387595Y-141014985D01*
X64400227Y-141029775D01*
X64412006Y-141045987D01*
X64445657Y-141073825D01*
X64454298Y-141081688D01*
X64675598Y-141302989D01*
X64688496Y-141319088D01*
X64739625Y-141367102D01*
X64742420Y-141369811D01*
X64761929Y-141389320D01*
X64765111Y-141391788D01*
X64773971Y-141399355D01*
X64804654Y-141428169D01*
X64805818Y-141429262D01*
X64823370Y-141438911D01*
X64839638Y-141449597D01*
X64855464Y-141461873D01*
X64895546Y-141479217D01*
X64906033Y-141484355D01*
X64944307Y-141505397D01*
X64952810Y-141507579D01*
X64963708Y-141510378D01*
X64982113Y-141516678D01*
X65000504Y-141524637D01*
X65043650Y-141531470D01*
X65055068Y-141533835D01*
X65097381Y-141544700D01*
X65117416Y-141544700D01*
X65136815Y-141546227D01*
X65156596Y-141549360D01*
X65200074Y-141545250D01*
X65211744Y-141544700D01*
X66306500Y-141544700D01*
X66368500Y-141561313D01*
X66413887Y-141606700D01*
X66430500Y-141668700D01*
X66430500Y-142046935D01*
X66411494Y-142112905D01*
X66395475Y-142138401D01*
X66352876Y-142206196D01*
X66295158Y-142371142D01*
X66275592Y-142544799D01*
X66295158Y-142718457D01*
X66352877Y-142883406D01*
X66445852Y-143031376D01*
X66569423Y-143154947D01*
X66717393Y-143247922D01*
X66882342Y-143305641D01*
X67056000Y-143325207D01*
X67229657Y-143305641D01*
X67308510Y-143278048D01*
X67360579Y-143271589D01*
X67410661Y-143287244D01*
X67449784Y-143322209D01*
X67473468Y-143354810D01*
X67479873Y-143364560D01*
X67503119Y-143403865D01*
X67503121Y-143403867D01*
X67518125Y-143418871D01*
X67530764Y-143433669D01*
X67543237Y-143450837D01*
X67578412Y-143479936D01*
X67587054Y-143487800D01*
X68252364Y-144153110D01*
X68265712Y-144169769D01*
X68318631Y-144219464D01*
X68321428Y-144222175D01*
X68341761Y-144242508D01*
X68345242Y-144245208D01*
X68354128Y-144252797D01*
X68387407Y-144284048D01*
X68406006Y-144294273D01*
X68422266Y-144304954D01*
X68439036Y-144317962D01*
X68458522Y-144326394D01*
X68480931Y-144336092D01*
X68491423Y-144341232D01*
X68531429Y-144363226D01*
X68531431Y-144363226D01*
X68531432Y-144363227D01*
X68549527Y-144367873D01*
X68551985Y-144368504D01*
X68570394Y-144374806D01*
X68589874Y-144383236D01*
X68634978Y-144390379D01*
X68646397Y-144392744D01*
X68690623Y-144404100D01*
X68711845Y-144404100D01*
X68731243Y-144405626D01*
X68752205Y-144408947D01*
X68794119Y-144404984D01*
X68797661Y-144404650D01*
X68809330Y-144404100D01*
X74018798Y-144404100D01*
X74075093Y-144417615D01*
X74119116Y-144455215D01*
X74141271Y-144508702D01*
X74136729Y-144566418D01*
X74106479Y-144615781D01*
X74082717Y-144639542D01*
X73999117Y-144780902D01*
X73953300Y-144938606D01*
X73950400Y-144975461D01*
X73950400Y-145378600D01*
X75550400Y-145378600D01*
X75550400Y-145115600D01*
X75567013Y-145053600D01*
X75612400Y-145008213D01*
X75674400Y-144991600D01*
X75725900Y-144991600D01*
X75787900Y-145008213D01*
X75833287Y-145053600D01*
X75849900Y-145115600D01*
X75849900Y-146281794D01*
X75851583Y-146303185D01*
X75852228Y-146311371D01*
X75839095Y-146377395D01*
X75793400Y-146426827D01*
X75728610Y-146445100D01*
X75671686Y-146445100D01*
X75606896Y-146426827D01*
X75561201Y-146377395D01*
X75548068Y-146311371D01*
X75550400Y-146281739D01*
X75550400Y-145878600D01*
X73950400Y-145878600D01*
X73950400Y-146281739D01*
X73952732Y-146311371D01*
X73939599Y-146377395D01*
X73893904Y-146426827D01*
X73829114Y-146445100D01*
X70928583Y-146445100D01*
X70909416Y-146451327D01*
X70891514Y-146455703D01*
X70868720Y-146459506D01*
X70855340Y-146466748D01*
X70834646Y-146475622D01*
X70822991Y-146479409D01*
X70803501Y-146493569D01*
X70789640Y-146502302D01*
X70765843Y-146515180D01*
X70758213Y-146523469D01*
X70739878Y-146539795D01*
X70733169Y-146544669D01*
X70716696Y-146567342D01*
X70707612Y-146578434D01*
X70686616Y-146601242D01*
X70683682Y-146607931D01*
X70670454Y-146630989D01*
X70667909Y-146634492D01*
X70658030Y-146664896D01*
X70653655Y-146676386D01*
X70639626Y-146708367D01*
X70639352Y-146711682D01*
X70633709Y-146739749D01*
X70633600Y-146740085D01*
X70633600Y-146775976D01*
X70633177Y-146786214D01*
X70629131Y-146835049D01*
X70630626Y-146850434D01*
X70615500Y-147129410D01*
X70614048Y-147142758D01*
X70561053Y-147466013D01*
X70558167Y-147479125D01*
X70470533Y-147794760D01*
X70466246Y-147807484D01*
X70344997Y-148111796D01*
X70339364Y-148123971D01*
X70185913Y-148413411D01*
X70179002Y-148424897D01*
X70047250Y-148619216D01*
X69995170Y-148696028D01*
X69987045Y-148706716D01*
X69774974Y-148956385D01*
X69765741Y-148966132D01*
X69527929Y-149191400D01*
X69517696Y-149200092D01*
X69256906Y-149398340D01*
X69245793Y-149405875D01*
X68965110Y-149574756D01*
X68953247Y-149581045D01*
X68655956Y-149718586D01*
X68643484Y-149723556D01*
X68333050Y-149828154D01*
X68320112Y-149831746D01*
X68000197Y-149902164D01*
X67986948Y-149904336D01*
X67661295Y-149939754D01*
X67647888Y-149940481D01*
X67320312Y-149940481D01*
X67306905Y-149939754D01*
X66981251Y-149904336D01*
X66968002Y-149902164D01*
X66648087Y-149831746D01*
X66635149Y-149828154D01*
X66324715Y-149723556D01*
X66312243Y-149718586D01*
X66014952Y-149581045D01*
X66003089Y-149574756D01*
X65722401Y-149405872D01*
X65711293Y-149398340D01*
X65450503Y-149200092D01*
X65440270Y-149191400D01*
X65202458Y-148966132D01*
X65193225Y-148956385D01*
X64981154Y-148706716D01*
X64973036Y-148696037D01*
X64789188Y-148424883D01*
X64782293Y-148413425D01*
X64628827Y-148123956D01*
X64623207Y-148111807D01*
X64501948Y-147807470D01*
X64497670Y-147794774D01*
X64410031Y-147479124D01*
X64407146Y-147466013D01*
X64354151Y-147142758D01*
X64352699Y-147129410D01*
X64334782Y-146798957D01*
X64334691Y-146795599D01*
X66178631Y-146795599D01*
X66198464Y-147022289D01*
X66257361Y-147242097D01*
X66353532Y-147448335D01*
X66484053Y-147634740D01*
X66644959Y-147795646D01*
X66831364Y-147926167D01*
X66831365Y-147926167D01*
X66831366Y-147926168D01*
X67037604Y-148022339D01*
X67257408Y-148081235D01*
X67342361Y-148088667D01*
X67427314Y-148096100D01*
X67427316Y-148096100D01*
X67540884Y-148096100D01*
X67540886Y-148096100D01*
X67608847Y-148090154D01*
X67710792Y-148081235D01*
X67930596Y-148022339D01*
X68136834Y-147926168D01*
X68323239Y-147795647D01*
X68484147Y-147634739D01*
X68614668Y-147448334D01*
X68710839Y-147242096D01*
X68769735Y-147022292D01*
X68789568Y-146795600D01*
X68769735Y-146568908D01*
X68710839Y-146349104D01*
X68614668Y-146142866D01*
X68603001Y-146126204D01*
X68484146Y-145956459D01*
X68323240Y-145795553D01*
X68136835Y-145665032D01*
X67930597Y-145568861D01*
X67710789Y-145509964D01*
X67540886Y-145495100D01*
X67540884Y-145495100D01*
X67427316Y-145495100D01*
X67427314Y-145495100D01*
X67257410Y-145509964D01*
X67037602Y-145568861D01*
X66831364Y-145665032D01*
X66644959Y-145795553D01*
X66484053Y-145956459D01*
X66353532Y-146142864D01*
X66257361Y-146349102D01*
X66198464Y-146568910D01*
X66178631Y-146795599D01*
X64334691Y-146795599D01*
X64334600Y-146792244D01*
X64334600Y-143106437D01*
X64331130Y-143071207D01*
X64297518Y-142729933D01*
X64223710Y-142358876D01*
X64113888Y-141996841D01*
X63969109Y-141647314D01*
X63950589Y-141612665D01*
X63790768Y-141313661D01*
X63611914Y-141045986D01*
X63580581Y-140999093D01*
X63488199Y-140886526D01*
X63340571Y-140706641D01*
X63073058Y-140439128D01*
X62780607Y-140199119D01*
X62466038Y-139988931D01*
X62132389Y-139810592D01*
X61830129Y-139685392D01*
X61782859Y-139665812D01*
X61420824Y-139555990D01*
X61420822Y-139555989D01*
X61420817Y-139555988D01*
X61049771Y-139482182D01*
X60673263Y-139445100D01*
X60542588Y-139445100D01*
X58225407Y-139445100D01*
X58224718Y-139444985D01*
X58146319Y-139445100D01*
X58107900Y-139445100D01*
X58107214Y-139445156D01*
X51299647Y-139455088D01*
X51285584Y-139454308D01*
X51161957Y-139440380D01*
X51134884Y-139434201D01*
X51123964Y-139430380D01*
X51023979Y-139395393D01*
X50998963Y-139383346D01*
X50984666Y-139374363D01*
X50899473Y-139320833D01*
X50877763Y-139303520D01*
X50794679Y-139220436D01*
X50777366Y-139198726D01*
X50768390Y-139184441D01*
X50714851Y-139099232D01*
X50702808Y-139074224D01*
X50663997Y-138963310D01*
X50657820Y-138936246D01*
X50643879Y-138812522D01*
X50643100Y-138798640D01*
X50643100Y-137718799D01*
X51526531Y-137718799D01*
X51546364Y-137945489D01*
X51605261Y-138165297D01*
X51701432Y-138371535D01*
X51831953Y-138557940D01*
X51992859Y-138718846D01*
X52179264Y-138849367D01*
X52179265Y-138849367D01*
X52179266Y-138849368D01*
X52385504Y-138945539D01*
X52605308Y-139004435D01*
X52832000Y-139024268D01*
X53058692Y-139004435D01*
X53278496Y-138945539D01*
X53484734Y-138849368D01*
X53671139Y-138718847D01*
X53832047Y-138557939D01*
X53962568Y-138371534D01*
X54058739Y-138165296D01*
X54117635Y-137945492D01*
X54137468Y-137718800D01*
X54136767Y-137710793D01*
X54126978Y-137598902D01*
X54117635Y-137492108D01*
X54058739Y-137272304D01*
X53962568Y-137066066D01*
X53961537Y-137064594D01*
X53832046Y-136879659D01*
X53671140Y-136718753D01*
X53484735Y-136588232D01*
X53278497Y-136492061D01*
X53058689Y-136433164D01*
X52832000Y-136413331D01*
X52605310Y-136433164D01*
X52385502Y-136492061D01*
X52179264Y-136588232D01*
X51992859Y-136718753D01*
X51831953Y-136879659D01*
X51701432Y-137066064D01*
X51605261Y-137272302D01*
X51546364Y-137492110D01*
X51526531Y-137718799D01*
X50643100Y-137718799D01*
X50643100Y-133955600D01*
X56142600Y-133955600D01*
X56142600Y-134253424D01*
X56149002Y-134312975D01*
X56199247Y-134447689D01*
X56285411Y-134562788D01*
X56400510Y-134648952D01*
X56535224Y-134699197D01*
X56594776Y-134705600D01*
X56892600Y-134705600D01*
X56892600Y-133955600D01*
X57392600Y-133955600D01*
X57392600Y-134705600D01*
X57690424Y-134705600D01*
X57749975Y-134699197D01*
X57884689Y-134648952D01*
X57999788Y-134562788D01*
X58085952Y-134447689D01*
X58136197Y-134312975D01*
X58142600Y-134253424D01*
X58142600Y-133955600D01*
X57392600Y-133955600D01*
X56892600Y-133955600D01*
X56142600Y-133955600D01*
X50643100Y-133955600D01*
X50643100Y-132885139D01*
X50643109Y-132885079D01*
X50643106Y-132861355D01*
X50643100Y-132807770D01*
X50643100Y-132776560D01*
X50643100Y-132766345D01*
X50643094Y-132766287D01*
X50642762Y-130098800D01*
X51526531Y-130098800D01*
X51546364Y-130325489D01*
X51605261Y-130545297D01*
X51701432Y-130751535D01*
X51831953Y-130937940D01*
X51992859Y-131098846D01*
X52179264Y-131229367D01*
X52179265Y-131229367D01*
X52179266Y-131229368D01*
X52385504Y-131325539D01*
X52605308Y-131384435D01*
X52832000Y-131404268D01*
X53058692Y-131384435D01*
X53278496Y-131325539D01*
X53484734Y-131229368D01*
X53671139Y-131098847D01*
X53832047Y-130937939D01*
X53962568Y-130751534D01*
X54058739Y-130545296D01*
X54117635Y-130325492D01*
X54137468Y-130098800D01*
X54117635Y-129872108D01*
X54058739Y-129652304D01*
X53962568Y-129446066D01*
X53960530Y-129443156D01*
X53832046Y-129259659D01*
X53671140Y-129098753D01*
X53484735Y-128968232D01*
X53278497Y-128872061D01*
X53058689Y-128813164D01*
X52832000Y-128793331D01*
X52605310Y-128813164D01*
X52385502Y-128872061D01*
X52179264Y-128968232D01*
X51992859Y-129098753D01*
X51831953Y-129259659D01*
X51701432Y-129446064D01*
X51605261Y-129652302D01*
X51546364Y-129872110D01*
X51526531Y-130098800D01*
X50642762Y-130098800D01*
X50642500Y-127988151D01*
X50643278Y-127974286D01*
X50657220Y-127850549D01*
X50663396Y-127823491D01*
X50702209Y-127712571D01*
X50714249Y-127687570D01*
X50776769Y-127588068D01*
X50794075Y-127566367D01*
X50877167Y-127483275D01*
X50898868Y-127465969D01*
X50998370Y-127403449D01*
X51023371Y-127391409D01*
X51134291Y-127352596D01*
X51161351Y-127346420D01*
X51285077Y-127332479D01*
X51298960Y-127331700D01*
X51368543Y-127331700D01*
X51368596Y-127331690D01*
X133960634Y-127321700D01*
X133974519Y-127322479D01*
G37*
G04 #@! TD.AperFunction*
G04 #@! TA.AperFunction,Conductor*
G36*
X81267828Y-129952495D02*
G01*
X81302085Y-129985734D01*
X81302281Y-129985539D01*
X81433213Y-130116471D01*
X81433215Y-130116472D01*
X81578794Y-130204478D01*
X81741204Y-130255086D01*
X81788257Y-130259361D01*
X81811783Y-130261500D01*
X81811784Y-130261500D01*
X82325016Y-130261500D01*
X82325017Y-130261500D01*
X82342660Y-130259896D01*
X82395596Y-130255086D01*
X82558006Y-130204478D01*
X82703585Y-130116472D01*
X82749211Y-130070846D01*
X82805719Y-130014339D01*
X82861306Y-129982245D01*
X82925494Y-129982245D01*
X82981081Y-130014339D01*
X83083213Y-130116471D01*
X83083215Y-130116472D01*
X83228794Y-130204478D01*
X83391204Y-130255086D01*
X83438257Y-130259361D01*
X83461783Y-130261500D01*
X83461784Y-130261500D01*
X83975016Y-130261500D01*
X83975017Y-130261500D01*
X83992660Y-130259896D01*
X84045596Y-130255086D01*
X84208006Y-130204478D01*
X84353585Y-130116472D01*
X84409557Y-130060500D01*
X84484519Y-129985539D01*
X84484714Y-129985734D01*
X84518972Y-129952495D01*
X84579889Y-129936500D01*
X89243100Y-129936500D01*
X89305100Y-129953113D01*
X89350487Y-129998500D01*
X89367100Y-130060500D01*
X89367100Y-130841458D01*
X89357088Y-130890270D01*
X89328671Y-130931200D01*
X89286435Y-130957639D01*
X89275271Y-130961803D01*
X89275270Y-130961803D01*
X89275269Y-130961804D01*
X89189277Y-131026178D01*
X89160054Y-131048054D01*
X89073804Y-131163268D01*
X89023509Y-131298116D01*
X89022482Y-131307668D01*
X89017475Y-131354245D01*
X89017100Y-131357730D01*
X89017100Y-132453469D01*
X89023509Y-132513084D01*
X89047516Y-132577450D01*
X89073804Y-132647931D01*
X89127971Y-132720289D01*
X89136206Y-132731289D01*
X89158105Y-132779242D01*
X89158105Y-132831958D01*
X89136206Y-132879910D01*
X89132337Y-132885079D01*
X89073804Y-132963268D01*
X89023509Y-133098115D01*
X89023509Y-133098117D01*
X89018278Y-133146776D01*
X89017100Y-133157730D01*
X89017100Y-134253469D01*
X89023509Y-134313084D01*
X89032275Y-134336587D01*
X89073804Y-134447931D01*
X89160054Y-134563146D01*
X89275269Y-134649396D01*
X89310960Y-134662708D01*
X89354426Y-134690336D01*
X89382918Y-134733243D01*
X89399337Y-134774714D01*
X89403120Y-134785763D01*
X89415856Y-134829600D01*
X89426661Y-134847870D01*
X89435221Y-134865343D01*
X89441079Y-134880140D01*
X89443032Y-134885071D01*
X89463151Y-134912763D01*
X89469866Y-134922006D01*
X89476270Y-134931755D01*
X89499519Y-134971065D01*
X89508589Y-134980135D01*
X89514523Y-134986068D01*
X89527161Y-135000865D01*
X89539636Y-135018036D01*
X89539637Y-135018037D01*
X89570340Y-135043437D01*
X89574812Y-135047136D01*
X89583453Y-135054999D01*
X90033739Y-135505285D01*
X90065833Y-135560872D01*
X90065833Y-135625059D01*
X90033740Y-135680647D01*
X89968629Y-135745758D01*
X89879597Y-135890100D01*
X89826250Y-136051092D01*
X89817040Y-136141245D01*
X89816215Y-136149335D01*
X89816100Y-136150456D01*
X89816100Y-136572582D01*
X89802754Y-136628543D01*
X89765590Y-136672458D01*
X89712608Y-136694874D01*
X89655212Y-136690968D01*
X89556196Y-136660114D01*
X89556193Y-136660113D01*
X89485617Y-136653700D01*
X89485616Y-136653700D01*
X88822384Y-136653700D01*
X88822383Y-136653700D01*
X88751806Y-136660113D01*
X88699600Y-136676381D01*
X88589394Y-136710722D01*
X88589392Y-136710722D01*
X88589392Y-136710723D01*
X88443813Y-136798728D01*
X88323528Y-136919013D01*
X88244197Y-137050244D01*
X88235522Y-137064594D01*
X88222302Y-137107020D01*
X88184913Y-137227006D01*
X88178500Y-137297583D01*
X88178500Y-137810817D01*
X88184913Y-137881393D01*
X88184914Y-137881396D01*
X88235522Y-138043806D01*
X88252735Y-138072279D01*
X88323528Y-138189386D01*
X88425661Y-138291519D01*
X88457755Y-138347106D01*
X88457755Y-138411294D01*
X88425661Y-138466881D01*
X88323528Y-138569013D01*
X88235523Y-138714592D01*
X88235522Y-138714594D01*
X88222438Y-138756583D01*
X88184913Y-138877006D01*
X88178500Y-138947583D01*
X88178500Y-139460817D01*
X88184913Y-139531393D01*
X88184914Y-139531396D01*
X88235522Y-139693806D01*
X88244976Y-139709444D01*
X88288444Y-139781350D01*
X88306313Y-139843627D01*
X88290333Y-139906415D01*
X88244867Y-139952573D01*
X88182328Y-139969500D01*
X88007730Y-139969500D01*
X87948115Y-139975909D01*
X87798933Y-140031551D01*
X87755600Y-140039369D01*
X87712267Y-140031551D01*
X87563085Y-139975909D01*
X87540119Y-139973440D01*
X87503473Y-139969500D01*
X87503469Y-139969500D01*
X87007730Y-139969500D01*
X86948115Y-139975909D01*
X86798933Y-140031551D01*
X86755600Y-140039369D01*
X86712267Y-140031551D01*
X86563085Y-139975909D01*
X86540119Y-139973440D01*
X86503473Y-139969500D01*
X86503469Y-139969500D01*
X86007730Y-139969500D01*
X85948115Y-139975909D01*
X85813269Y-140026204D01*
X85698054Y-140112454D01*
X85611804Y-140227668D01*
X85562753Y-140359180D01*
X85561509Y-140362517D01*
X85557144Y-140403122D01*
X85555100Y-140422131D01*
X85555100Y-141079392D01*
X85541585Y-141135687D01*
X85503985Y-141179710D01*
X85450498Y-141201865D01*
X85392782Y-141197323D01*
X85343419Y-141167073D01*
X85204034Y-141027688D01*
X85190691Y-141011033D01*
X85137766Y-140961334D01*
X85134969Y-140958623D01*
X85114634Y-140938288D01*
X85111147Y-140935583D01*
X85102271Y-140928001D01*
X85068994Y-140896752D01*
X85050393Y-140886526D01*
X85034132Y-140875845D01*
X85017364Y-140862838D01*
X84989234Y-140850665D01*
X84975469Y-140844708D01*
X84964979Y-140839569D01*
X84924967Y-140817572D01*
X84904400Y-140812291D01*
X84885998Y-140805991D01*
X84866524Y-140797564D01*
X84821437Y-140790423D01*
X84809998Y-140788054D01*
X84765778Y-140776700D01*
X84765777Y-140776700D01*
X84744555Y-140776700D01*
X84725156Y-140775173D01*
X84704196Y-140771853D01*
X84704195Y-140771853D01*
X84682158Y-140773936D01*
X84658739Y-140776150D01*
X84647070Y-140776700D01*
X82464408Y-140776700D01*
X82416955Y-140767261D01*
X82376727Y-140740381D01*
X81966819Y-140330473D01*
X81939939Y-140290245D01*
X81930500Y-140242792D01*
X81930500Y-140133720D01*
X81939939Y-140086267D01*
X81951766Y-140068566D01*
X81950283Y-140067670D01*
X81971796Y-140032083D01*
X82046078Y-139909206D01*
X82096686Y-139746796D01*
X82103100Y-139676216D01*
X82103100Y-139162984D01*
X82096686Y-139092404D01*
X82046078Y-138929994D01*
X81970879Y-138805600D01*
X81958071Y-138784413D01*
X81855939Y-138682281D01*
X81823845Y-138626694D01*
X81823845Y-138562506D01*
X81855939Y-138506919D01*
X81958071Y-138404786D01*
X81972838Y-138380359D01*
X82046078Y-138259206D01*
X82096686Y-138096796D01*
X82103100Y-138026216D01*
X82103100Y-137512984D01*
X82103067Y-137512626D01*
X82097681Y-137453350D01*
X82096686Y-137442404D01*
X82069608Y-137355508D01*
X82066067Y-137296049D01*
X82090662Y-137241796D01*
X82137718Y-137205272D01*
X82196378Y-137194906D01*
X82231026Y-137206013D01*
X82231745Y-137203844D01*
X82245502Y-137208402D01*
X82245503Y-137208403D01*
X82406492Y-137261749D01*
X82505855Y-137271900D01*
X83052544Y-137271899D01*
X83151908Y-137261749D01*
X83312897Y-137208403D01*
X83451887Y-137122671D01*
X83508729Y-137104486D01*
X83542253Y-137110463D01*
X83542985Y-137107020D01*
X83730607Y-137146900D01*
X83730609Y-137146900D01*
X83909391Y-137146900D01*
X83909393Y-137146900D01*
X84084264Y-137109730D01*
X84084265Y-137109729D01*
X84084267Y-137109729D01*
X84247593Y-137037012D01*
X84277524Y-137015266D01*
X84322309Y-136982727D01*
X84392230Y-136931926D01*
X84511859Y-136799065D01*
X84601250Y-136644235D01*
X84656497Y-136474203D01*
X84675185Y-136296400D01*
X84656497Y-136118597D01*
X84617330Y-135998055D01*
X84601250Y-135948564D01*
X84511859Y-135793734D01*
X84392228Y-135660872D01*
X84247596Y-135555789D01*
X84084264Y-135483069D01*
X83909393Y-135445900D01*
X83909391Y-135445900D01*
X83730609Y-135445900D01*
X83730607Y-135445900D01*
X83542986Y-135485780D01*
X83542262Y-135482375D01*
X83508497Y-135488297D01*
X83451886Y-135470126D01*
X83312899Y-135384397D01*
X83151907Y-135331050D01*
X83053357Y-135320983D01*
X83052544Y-135320900D01*
X82505855Y-135320900D01*
X82406492Y-135331050D01*
X82245500Y-135384397D01*
X82101154Y-135473431D01*
X82091878Y-135482708D01*
X82036291Y-135514800D01*
X81972104Y-135514800D01*
X81916518Y-135482706D01*
X81916019Y-135482207D01*
X81889139Y-135441979D01*
X81879700Y-135394526D01*
X81879700Y-135365905D01*
X81882041Y-135344694D01*
X81881927Y-135341075D01*
X81879761Y-135272124D01*
X81879700Y-135268229D01*
X81879700Y-135239482D01*
X81879700Y-135239475D01*
X81879147Y-135235100D01*
X81878231Y-135223463D01*
X81878076Y-135218529D01*
X81876798Y-135177831D01*
X81870875Y-135157445D01*
X81866931Y-135138404D01*
X81864271Y-135117342D01*
X81847467Y-135074901D01*
X81843684Y-135063852D01*
X81842207Y-135058767D01*
X81830945Y-135020002D01*
X81822739Y-135006126D01*
X81820137Y-135001726D01*
X81811576Y-134984250D01*
X81803768Y-134964529D01*
X81776931Y-134927591D01*
X81770517Y-134917825D01*
X81747281Y-134878535D01*
X81732274Y-134863528D01*
X81719636Y-134848731D01*
X81707163Y-134831563D01*
X81678889Y-134808173D01*
X81671979Y-134802456D01*
X81663340Y-134794594D01*
X81460222Y-134591476D01*
X81433915Y-134552607D01*
X81423938Y-134506745D01*
X81431721Y-134460461D01*
X81436392Y-134447935D01*
X81436396Y-134447931D01*
X81486691Y-134313083D01*
X81493100Y-134253473D01*
X81493100Y-133955600D01*
X84717600Y-133955600D01*
X84717600Y-134253424D01*
X84724002Y-134312975D01*
X84774247Y-134447689D01*
X84860411Y-134562788D01*
X84975510Y-134648952D01*
X85110224Y-134699197D01*
X85169776Y-134705600D01*
X85467600Y-134705600D01*
X85467600Y-133955600D01*
X85967600Y-133955600D01*
X85967600Y-134705600D01*
X86265424Y-134705600D01*
X86324975Y-134699197D01*
X86459689Y-134648952D01*
X86574788Y-134562788D01*
X86660952Y-134447689D01*
X86711197Y-134312975D01*
X86717600Y-134253424D01*
X86717600Y-133955600D01*
X85967600Y-133955600D01*
X85467600Y-133955600D01*
X84717600Y-133955600D01*
X81493100Y-133955600D01*
X81493099Y-133157728D01*
X81486691Y-133098117D01*
X81436396Y-132963269D01*
X81428340Y-132952508D01*
X81377863Y-132885079D01*
X81373993Y-132879910D01*
X81352094Y-132831958D01*
X81352094Y-132779242D01*
X81373994Y-132731289D01*
X81382229Y-132720289D01*
X81436396Y-132647931D01*
X81486691Y-132513083D01*
X81493100Y-132453473D01*
X81493099Y-131905599D01*
X83799615Y-131905599D01*
X83818303Y-132083404D01*
X83873549Y-132253435D01*
X83962940Y-132408265D01*
X84047415Y-132502083D01*
X84078678Y-132536804D01*
X84082571Y-132541127D01*
X84227203Y-132646210D01*
X84227206Y-132646211D01*
X84227207Y-132646212D01*
X84293317Y-132675646D01*
X84390535Y-132718930D01*
X84565407Y-132756100D01*
X84681793Y-132756100D01*
X84746960Y-132774605D01*
X84792677Y-132824596D01*
X84805299Y-132891153D01*
X84781060Y-132954411D01*
X84774247Y-132963511D01*
X84724002Y-133098224D01*
X84717600Y-133157776D01*
X84717600Y-133455600D01*
X86717600Y-133455600D01*
X86717600Y-133157776D01*
X86711197Y-133098224D01*
X86660952Y-132963511D01*
X86598681Y-132880327D01*
X86576782Y-132832374D01*
X86576782Y-132779657D01*
X86598679Y-132731709D01*
X86661396Y-132647931D01*
X86711691Y-132513083D01*
X86718100Y-132453473D01*
X86718099Y-131357728D01*
X86711691Y-131298117D01*
X86661396Y-131163269D01*
X86575146Y-131048054D01*
X86459931Y-130961804D01*
X86325083Y-130911509D01*
X86265473Y-130905100D01*
X86265469Y-130905100D01*
X85169730Y-130905100D01*
X85110115Y-130911509D01*
X84975267Y-130961804D01*
X84872148Y-131038999D01*
X84824485Y-131060835D01*
X84772059Y-131061023D01*
X84744191Y-131055100D01*
X84565409Y-131055100D01*
X84565407Y-131055100D01*
X84390535Y-131092269D01*
X84227208Y-131164987D01*
X84082568Y-131270074D01*
X83962940Y-131402934D01*
X83873549Y-131557764D01*
X83818303Y-131727795D01*
X83799615Y-131905599D01*
X81493099Y-131905599D01*
X81493099Y-131357728D01*
X81486691Y-131298117D01*
X81436396Y-131163269D01*
X81350146Y-131048054D01*
X81234931Y-130961804D01*
X81100083Y-130911509D01*
X81040473Y-130905100D01*
X81040469Y-130905100D01*
X79944730Y-130905100D01*
X79885115Y-130911509D01*
X79761436Y-130957639D01*
X79750269Y-130961804D01*
X79635054Y-131048054D01*
X79557038Y-131152271D01*
X79548803Y-131163271D01*
X79544639Y-131174435D01*
X79518200Y-131216671D01*
X79477270Y-131245088D01*
X79428458Y-131255100D01*
X78745904Y-131255100D01*
X78724694Y-131252758D01*
X78652137Y-131255039D01*
X78648242Y-131255100D01*
X78619471Y-131255100D01*
X78615090Y-131255653D01*
X78603459Y-131256568D01*
X78557828Y-131258002D01*
X78537452Y-131263922D01*
X78518406Y-131267867D01*
X78497339Y-131270528D01*
X78454887Y-131287336D01*
X78443839Y-131291119D01*
X78400000Y-131303856D01*
X78381730Y-131314661D01*
X78364262Y-131323218D01*
X78352863Y-131327732D01*
X78344526Y-131331033D01*
X78307591Y-131357866D01*
X78297835Y-131364275D01*
X78258535Y-131387518D01*
X78243525Y-131402528D01*
X78228736Y-131415158D01*
X78211564Y-131427634D01*
X78182457Y-131462818D01*
X78174596Y-131471456D01*
X77771549Y-131874502D01*
X77771547Y-131874506D01*
X77578485Y-132067567D01*
X77561833Y-132080908D01*
X77512133Y-132133833D01*
X77509427Y-132136626D01*
X77489083Y-132156971D01*
X77486376Y-132160460D01*
X77478807Y-132169321D01*
X77447551Y-132202607D01*
X77437322Y-132221212D01*
X77426642Y-132237470D01*
X77415078Y-132252378D01*
X77367059Y-132289867D01*
X77306981Y-132299964D01*
X77249346Y-132280230D01*
X77208064Y-132235430D01*
X77193099Y-132176379D01*
X77193099Y-131357728D01*
X77186691Y-131298117D01*
X77136396Y-131163269D01*
X77050146Y-131048054D01*
X76934931Y-130961804D01*
X76931907Y-130960676D01*
X76923765Y-130957639D01*
X76881529Y-130931200D01*
X76853112Y-130890270D01*
X76843100Y-130841458D01*
X76843100Y-130122208D01*
X76852539Y-130074755D01*
X76879419Y-130034527D01*
X76941127Y-129972819D01*
X76981355Y-129945939D01*
X77028808Y-129936500D01*
X81206911Y-129936500D01*
X81267828Y-129952495D01*
G37*
G04 #@! TD.AperFunction*
M02*
