G04 #@! TF.GenerationSoftware,KiCad,Pcbnew,7.0.1*
G04 #@! TF.CreationDate,2023-11-28T21:46:24+01:00*
G04 #@! TF.ProjectId,Qtr-8-SN,5174722d-382d-4534-9e2e-6b696361645f,rev?*
G04 #@! TF.SameCoordinates,Original*
G04 #@! TF.FileFunction,Legend,Bot*
G04 #@! TF.FilePolarity,Positive*
%FSLAX46Y46*%
G04 Gerber Fmt 4.6, Leading zero omitted, Abs format (unit mm)*
G04 Created by KiCad (PCBNEW 7.0.1) date 2023-11-28 21:46:24*
%MOMM*%
%LPD*%
G01*
G04 APERTURE LIST*
G04 Aperture macros list*
%AMRoundRect*
0 Rectangle with rounded corners*
0 $1 Rounding radius*
0 $2 $3 $4 $5 $6 $7 $8 $9 X,Y pos of 4 corners*
0 Add a 4 corners polygon primitive as box body*
4,1,4,$2,$3,$4,$5,$6,$7,$8,$9,$2,$3,0*
0 Add four circle primitives for the rounded corners*
1,1,$1+$1,$2,$3*
1,1,$1+$1,$4,$5*
1,1,$1+$1,$6,$7*
1,1,$1+$1,$8,$9*
0 Add four rect primitives between the rounded corners*
20,1,$1+$1,$2,$3,$4,$5,0*
20,1,$1+$1,$4,$5,$6,$7,0*
20,1,$1+$1,$6,$7,$8,$9,0*
20,1,$1+$1,$8,$9,$2,$3,0*%
G04 Aperture macros list end*
%ADD10C,0.200000*%
%ADD11C,0.120000*%
%ADD12C,0.100000*%
%ADD13C,2.100000*%
%ADD14RoundRect,0.200000X-0.275000X0.200000X-0.275000X-0.200000X0.275000X-0.200000X0.275000X0.200000X0*%
%ADD15RoundRect,0.225000X-0.225000X-0.250000X0.225000X-0.250000X0.225000X0.250000X-0.225000X0.250000X0*%
%ADD16R,1.000000X1.000000*%
%ADD17RoundRect,0.200000X0.200000X0.275000X-0.200000X0.275000X-0.200000X-0.275000X0.200000X-0.275000X0*%
%ADD18RoundRect,0.225000X0.225000X0.250000X-0.225000X0.250000X-0.225000X-0.250000X0.225000X-0.250000X0*%
%ADD19RoundRect,0.150000X0.150000X-0.587500X0.150000X0.587500X-0.150000X0.587500X-0.150000X-0.587500X0*%
%ADD20C,1.600000*%
%ADD21O,1.600000X1.600000*%
%ADD22R,0.400000X1.000000*%
%ADD23R,2.000000X1.300000*%
G04 APERTURE END LIST*
D10*
X118361819Y-138478733D02*
X117885628Y-138145400D01*
X118361819Y-137907305D02*
X117361819Y-137907305D01*
X117361819Y-137907305D02*
X117361819Y-138288257D01*
X117361819Y-138288257D02*
X117409438Y-138383495D01*
X117409438Y-138383495D02*
X117457057Y-138431114D01*
X117457057Y-138431114D02*
X117552295Y-138478733D01*
X117552295Y-138478733D02*
X117695152Y-138478733D01*
X117695152Y-138478733D02*
X117790390Y-138431114D01*
X117790390Y-138431114D02*
X117838009Y-138383495D01*
X117838009Y-138383495D02*
X117885628Y-138288257D01*
X117885628Y-138288257D02*
X117885628Y-137907305D01*
X117457057Y-138859686D02*
X117409438Y-138907305D01*
X117409438Y-138907305D02*
X117361819Y-139002543D01*
X117361819Y-139002543D02*
X117361819Y-139240638D01*
X117361819Y-139240638D02*
X117409438Y-139335876D01*
X117409438Y-139335876D02*
X117457057Y-139383495D01*
X117457057Y-139383495D02*
X117552295Y-139431114D01*
X117552295Y-139431114D02*
X117647533Y-139431114D01*
X117647533Y-139431114D02*
X117790390Y-139383495D01*
X117790390Y-139383495D02*
X118361819Y-138812067D01*
X118361819Y-138812067D02*
X118361819Y-139431114D01*
X84799466Y-136816180D02*
X84847085Y-136863800D01*
X84847085Y-136863800D02*
X84989942Y-136911419D01*
X84989942Y-136911419D02*
X85085180Y-136911419D01*
X85085180Y-136911419D02*
X85228037Y-136863800D01*
X85228037Y-136863800D02*
X85323275Y-136768561D01*
X85323275Y-136768561D02*
X85370894Y-136673323D01*
X85370894Y-136673323D02*
X85418513Y-136482847D01*
X85418513Y-136482847D02*
X85418513Y-136339990D01*
X85418513Y-136339990D02*
X85370894Y-136149514D01*
X85370894Y-136149514D02*
X85323275Y-136054276D01*
X85323275Y-136054276D02*
X85228037Y-135959038D01*
X85228037Y-135959038D02*
X85085180Y-135911419D01*
X85085180Y-135911419D02*
X84989942Y-135911419D01*
X84989942Y-135911419D02*
X84847085Y-135959038D01*
X84847085Y-135959038D02*
X84799466Y-136006657D01*
X84466132Y-135911419D02*
X83799466Y-135911419D01*
X83799466Y-135911419D02*
X84228037Y-136911419D01*
X96670410Y-135633980D02*
X96670410Y-136633980D01*
X97718028Y-135729219D02*
X97670409Y-135681600D01*
X97670409Y-135681600D02*
X97527552Y-135633980D01*
X97527552Y-135633980D02*
X97432314Y-135633980D01*
X97432314Y-135633980D02*
X97289457Y-135681600D01*
X97289457Y-135681600D02*
X97194219Y-135776838D01*
X97194219Y-135776838D02*
X97146600Y-135872076D01*
X97146600Y-135872076D02*
X97098981Y-136062552D01*
X97098981Y-136062552D02*
X97098981Y-136205409D01*
X97098981Y-136205409D02*
X97146600Y-136395885D01*
X97146600Y-136395885D02*
X97194219Y-136491123D01*
X97194219Y-136491123D02*
X97289457Y-136586361D01*
X97289457Y-136586361D02*
X97432314Y-136633980D01*
X97432314Y-136633980D02*
X97527552Y-136633980D01*
X97527552Y-136633980D02*
X97670409Y-136586361D01*
X97670409Y-136586361D02*
X97718028Y-136538742D01*
X98575171Y-136300647D02*
X98575171Y-135633980D01*
X98337076Y-136681600D02*
X98098981Y-135967314D01*
X98098981Y-135967314D02*
X98718028Y-135967314D01*
X113170666Y-137070180D02*
X113218285Y-137117800D01*
X113218285Y-137117800D02*
X113361142Y-137165419D01*
X113361142Y-137165419D02*
X113456380Y-137165419D01*
X113456380Y-137165419D02*
X113599237Y-137117800D01*
X113599237Y-137117800D02*
X113694475Y-137022561D01*
X113694475Y-137022561D02*
X113742094Y-136927323D01*
X113742094Y-136927323D02*
X113789713Y-136736847D01*
X113789713Y-136736847D02*
X113789713Y-136593990D01*
X113789713Y-136593990D02*
X113742094Y-136403514D01*
X113742094Y-136403514D02*
X113694475Y-136308276D01*
X113694475Y-136308276D02*
X113599237Y-136213038D01*
X113599237Y-136213038D02*
X113456380Y-136165419D01*
X113456380Y-136165419D02*
X113361142Y-136165419D01*
X113361142Y-136165419D02*
X113218285Y-136213038D01*
X113218285Y-136213038D02*
X113170666Y-136260657D01*
X112313523Y-136165419D02*
X112503999Y-136165419D01*
X112503999Y-136165419D02*
X112599237Y-136213038D01*
X112599237Y-136213038D02*
X112646856Y-136260657D01*
X112646856Y-136260657D02*
X112742094Y-136403514D01*
X112742094Y-136403514D02*
X112789713Y-136593990D01*
X112789713Y-136593990D02*
X112789713Y-136974942D01*
X112789713Y-136974942D02*
X112742094Y-137070180D01*
X112742094Y-137070180D02*
X112694475Y-137117800D01*
X112694475Y-137117800D02*
X112599237Y-137165419D01*
X112599237Y-137165419D02*
X112408761Y-137165419D01*
X112408761Y-137165419D02*
X112313523Y-137117800D01*
X112313523Y-137117800D02*
X112265904Y-137070180D01*
X112265904Y-137070180D02*
X112218285Y-136974942D01*
X112218285Y-136974942D02*
X112218285Y-136736847D01*
X112218285Y-136736847D02*
X112265904Y-136641609D01*
X112265904Y-136641609D02*
X112313523Y-136593990D01*
X112313523Y-136593990D02*
X112408761Y-136546371D01*
X112408761Y-136546371D02*
X112599237Y-136546371D01*
X112599237Y-136546371D02*
X112694475Y-136593990D01*
X112694475Y-136593990D02*
X112742094Y-136641609D01*
X112742094Y-136641609D02*
X112789713Y-136736847D01*
X65597066Y-136765380D02*
X65644685Y-136813000D01*
X65644685Y-136813000D02*
X65787542Y-136860619D01*
X65787542Y-136860619D02*
X65882780Y-136860619D01*
X65882780Y-136860619D02*
X66025637Y-136813000D01*
X66025637Y-136813000D02*
X66120875Y-136717761D01*
X66120875Y-136717761D02*
X66168494Y-136622523D01*
X66168494Y-136622523D02*
X66216113Y-136432047D01*
X66216113Y-136432047D02*
X66216113Y-136289190D01*
X66216113Y-136289190D02*
X66168494Y-136098714D01*
X66168494Y-136098714D02*
X66120875Y-136003476D01*
X66120875Y-136003476D02*
X66025637Y-135908238D01*
X66025637Y-135908238D02*
X65882780Y-135860619D01*
X65882780Y-135860619D02*
X65787542Y-135860619D01*
X65787542Y-135860619D02*
X65644685Y-135908238D01*
X65644685Y-135908238D02*
X65597066Y-135955857D01*
X65120875Y-136860619D02*
X64930399Y-136860619D01*
X64930399Y-136860619D02*
X64835161Y-136813000D01*
X64835161Y-136813000D02*
X64787542Y-136765380D01*
X64787542Y-136765380D02*
X64692304Y-136622523D01*
X64692304Y-136622523D02*
X64644685Y-136432047D01*
X64644685Y-136432047D02*
X64644685Y-136051095D01*
X64644685Y-136051095D02*
X64692304Y-135955857D01*
X64692304Y-135955857D02*
X64739923Y-135908238D01*
X64739923Y-135908238D02*
X64835161Y-135860619D01*
X64835161Y-135860619D02*
X65025637Y-135860619D01*
X65025637Y-135860619D02*
X65120875Y-135908238D01*
X65120875Y-135908238D02*
X65168494Y-135955857D01*
X65168494Y-135955857D02*
X65216113Y-136051095D01*
X65216113Y-136051095D02*
X65216113Y-136289190D01*
X65216113Y-136289190D02*
X65168494Y-136384428D01*
X65168494Y-136384428D02*
X65120875Y-136432047D01*
X65120875Y-136432047D02*
X65025637Y-136479666D01*
X65025637Y-136479666D02*
X64835161Y-136479666D01*
X64835161Y-136479666D02*
X64739923Y-136432047D01*
X64739923Y-136432047D02*
X64692304Y-136384428D01*
X64692304Y-136384428D02*
X64644685Y-136289190D01*
X118632266Y-129748619D02*
X118965599Y-129272428D01*
X119203694Y-129748619D02*
X119203694Y-128748619D01*
X119203694Y-128748619D02*
X118822742Y-128748619D01*
X118822742Y-128748619D02*
X118727504Y-128796238D01*
X118727504Y-128796238D02*
X118679885Y-128843857D01*
X118679885Y-128843857D02*
X118632266Y-128939095D01*
X118632266Y-128939095D02*
X118632266Y-129081952D01*
X118632266Y-129081952D02*
X118679885Y-129177190D01*
X118679885Y-129177190D02*
X118727504Y-129224809D01*
X118727504Y-129224809D02*
X118822742Y-129272428D01*
X118822742Y-129272428D02*
X119203694Y-129272428D01*
X117679885Y-129748619D02*
X118251313Y-129748619D01*
X117965599Y-129748619D02*
X117965599Y-128748619D01*
X117965599Y-128748619D02*
X118060837Y-128891476D01*
X118060837Y-128891476D02*
X118156075Y-128986714D01*
X118156075Y-128986714D02*
X118251313Y-129034333D01*
X68433019Y-140377942D02*
X67956828Y-140044609D01*
X68433019Y-139806514D02*
X67433019Y-139806514D01*
X67433019Y-139806514D02*
X67433019Y-140187466D01*
X67433019Y-140187466D02*
X67480638Y-140282704D01*
X67480638Y-140282704D02*
X67528257Y-140330323D01*
X67528257Y-140330323D02*
X67623495Y-140377942D01*
X67623495Y-140377942D02*
X67766352Y-140377942D01*
X67766352Y-140377942D02*
X67861590Y-140330323D01*
X67861590Y-140330323D02*
X67909209Y-140282704D01*
X67909209Y-140282704D02*
X67956828Y-140187466D01*
X67956828Y-140187466D02*
X67956828Y-139806514D01*
X68433019Y-141330323D02*
X68433019Y-140758895D01*
X68433019Y-141044609D02*
X67433019Y-141044609D01*
X67433019Y-141044609D02*
X67575876Y-140949371D01*
X67575876Y-140949371D02*
X67671114Y-140854133D01*
X67671114Y-140854133D02*
X67718733Y-140758895D01*
X67766352Y-142187466D02*
X68433019Y-142187466D01*
X67385400Y-141949371D02*
X68099685Y-141711276D01*
X68099685Y-141711276D02*
X68099685Y-142330323D01*
X125245410Y-135644980D02*
X125245410Y-136644980D01*
X126293028Y-135740219D02*
X126245409Y-135692600D01*
X126245409Y-135692600D02*
X126102552Y-135644980D01*
X126102552Y-135644980D02*
X126007314Y-135644980D01*
X126007314Y-135644980D02*
X125864457Y-135692600D01*
X125864457Y-135692600D02*
X125769219Y-135787838D01*
X125769219Y-135787838D02*
X125721600Y-135883076D01*
X125721600Y-135883076D02*
X125673981Y-136073552D01*
X125673981Y-136073552D02*
X125673981Y-136216409D01*
X125673981Y-136216409D02*
X125721600Y-136406885D01*
X125721600Y-136406885D02*
X125769219Y-136502123D01*
X125769219Y-136502123D02*
X125864457Y-136597361D01*
X125864457Y-136597361D02*
X126007314Y-136644980D01*
X126007314Y-136644980D02*
X126102552Y-136644980D01*
X126102552Y-136644980D02*
X126245409Y-136597361D01*
X126245409Y-136597361D02*
X126293028Y-136549742D01*
X127245409Y-135644980D02*
X126673981Y-135644980D01*
X126959695Y-135644980D02*
X126959695Y-136644980D01*
X126959695Y-136644980D02*
X126864457Y-136502123D01*
X126864457Y-136502123D02*
X126769219Y-136406885D01*
X126769219Y-136406885D02*
X126673981Y-136359266D01*
X110656666Y-145045780D02*
X110704285Y-145093400D01*
X110704285Y-145093400D02*
X110847142Y-145141019D01*
X110847142Y-145141019D02*
X110942380Y-145141019D01*
X110942380Y-145141019D02*
X111085237Y-145093400D01*
X111085237Y-145093400D02*
X111180475Y-144998161D01*
X111180475Y-144998161D02*
X111228094Y-144902923D01*
X111228094Y-144902923D02*
X111275713Y-144712447D01*
X111275713Y-144712447D02*
X111275713Y-144569590D01*
X111275713Y-144569590D02*
X111228094Y-144379114D01*
X111228094Y-144379114D02*
X111180475Y-144283876D01*
X111180475Y-144283876D02*
X111085237Y-144188638D01*
X111085237Y-144188638D02*
X110942380Y-144141019D01*
X110942380Y-144141019D02*
X110847142Y-144141019D01*
X110847142Y-144141019D02*
X110704285Y-144188638D01*
X110704285Y-144188638D02*
X110656666Y-144236257D01*
X109704285Y-145141019D02*
X110275713Y-145141019D01*
X109989999Y-145141019D02*
X109989999Y-144141019D01*
X109989999Y-144141019D02*
X110085237Y-144283876D01*
X110085237Y-144283876D02*
X110180475Y-144379114D01*
X110180475Y-144379114D02*
X110275713Y-144426733D01*
X107033419Y-138212533D02*
X106557228Y-137879200D01*
X107033419Y-137641105D02*
X106033419Y-137641105D01*
X106033419Y-137641105D02*
X106033419Y-138022057D01*
X106033419Y-138022057D02*
X106081038Y-138117295D01*
X106081038Y-138117295D02*
X106128657Y-138164914D01*
X106128657Y-138164914D02*
X106223895Y-138212533D01*
X106223895Y-138212533D02*
X106366752Y-138212533D01*
X106366752Y-138212533D02*
X106461990Y-138164914D01*
X106461990Y-138164914D02*
X106509609Y-138117295D01*
X106509609Y-138117295D02*
X106557228Y-138022057D01*
X106557228Y-138022057D02*
X106557228Y-137641105D01*
X106033419Y-139117295D02*
X106033419Y-138641105D01*
X106033419Y-138641105D02*
X106509609Y-138593486D01*
X106509609Y-138593486D02*
X106461990Y-138641105D01*
X106461990Y-138641105D02*
X106414371Y-138736343D01*
X106414371Y-138736343D02*
X106414371Y-138974438D01*
X106414371Y-138974438D02*
X106461990Y-139069676D01*
X106461990Y-139069676D02*
X106509609Y-139117295D01*
X106509609Y-139117295D02*
X106604847Y-139164914D01*
X106604847Y-139164914D02*
X106842942Y-139164914D01*
X106842942Y-139164914D02*
X106938180Y-139117295D01*
X106938180Y-139117295D02*
X106985800Y-139069676D01*
X106985800Y-139069676D02*
X107033419Y-138974438D01*
X107033419Y-138974438D02*
X107033419Y-138736343D01*
X107033419Y-138736343D02*
X106985800Y-138641105D01*
X106985800Y-138641105D02*
X106938180Y-138593486D01*
X129046266Y-138187780D02*
X129093885Y-138235400D01*
X129093885Y-138235400D02*
X129236742Y-138283019D01*
X129236742Y-138283019D02*
X129331980Y-138283019D01*
X129331980Y-138283019D02*
X129474837Y-138235400D01*
X129474837Y-138235400D02*
X129570075Y-138140161D01*
X129570075Y-138140161D02*
X129617694Y-138044923D01*
X129617694Y-138044923D02*
X129665313Y-137854447D01*
X129665313Y-137854447D02*
X129665313Y-137711590D01*
X129665313Y-137711590D02*
X129617694Y-137521114D01*
X129617694Y-137521114D02*
X129570075Y-137425876D01*
X129570075Y-137425876D02*
X129474837Y-137330638D01*
X129474837Y-137330638D02*
X129331980Y-137283019D01*
X129331980Y-137283019D02*
X129236742Y-137283019D01*
X129236742Y-137283019D02*
X129093885Y-137330638D01*
X129093885Y-137330638D02*
X129046266Y-137378257D01*
X128712932Y-137283019D02*
X128093885Y-137283019D01*
X128093885Y-137283019D02*
X128427218Y-137663971D01*
X128427218Y-137663971D02*
X128284361Y-137663971D01*
X128284361Y-137663971D02*
X128189123Y-137711590D01*
X128189123Y-137711590D02*
X128141504Y-137759209D01*
X128141504Y-137759209D02*
X128093885Y-137854447D01*
X128093885Y-137854447D02*
X128093885Y-138092542D01*
X128093885Y-138092542D02*
X128141504Y-138187780D01*
X128141504Y-138187780D02*
X128189123Y-138235400D01*
X128189123Y-138235400D02*
X128284361Y-138283019D01*
X128284361Y-138283019D02*
X128570075Y-138283019D01*
X128570075Y-138283019D02*
X128665313Y-138235400D01*
X128665313Y-138235400D02*
X128712932Y-138187780D01*
G36*
X76147468Y-141369593D02*
G01*
X76164869Y-141370421D01*
X76182128Y-141371799D01*
X76199243Y-141373729D01*
X76216215Y-141376211D01*
X76233044Y-141379244D01*
X76249729Y-141382828D01*
X76266272Y-141386964D01*
X76282672Y-141391652D01*
X76298928Y-141396890D01*
X76315042Y-141402681D01*
X76331012Y-141409022D01*
X76346839Y-141415916D01*
X76362523Y-141423360D01*
X76378064Y-141431356D01*
X76393462Y-141439904D01*
X76408583Y-141448889D01*
X76423294Y-141458260D01*
X76437594Y-141468017D01*
X76451485Y-141478158D01*
X76464965Y-141488686D01*
X76478035Y-141499598D01*
X76490694Y-141510897D01*
X76502943Y-141522580D01*
X76514783Y-141534649D01*
X76526211Y-141547104D01*
X76537230Y-141559944D01*
X76547838Y-141573169D01*
X76558036Y-141586780D01*
X76567824Y-141600776D01*
X76577202Y-141615158D01*
X76586169Y-141629925D01*
X76594658Y-141644976D01*
X76602598Y-141660211D01*
X76609991Y-141675629D01*
X76616837Y-141691230D01*
X76623135Y-141707014D01*
X76628885Y-141722981D01*
X76634088Y-141739132D01*
X76638743Y-141755466D01*
X76642850Y-141771983D01*
X76646409Y-141788683D01*
X76649421Y-141805566D01*
X76651886Y-141822632D01*
X76653803Y-141839882D01*
X76655172Y-141857315D01*
X76655993Y-141874931D01*
X76656267Y-141892730D01*
X76656120Y-141906060D01*
X76655679Y-141919273D01*
X76654945Y-141932371D01*
X76653916Y-141945353D01*
X76652594Y-141958219D01*
X76650978Y-141970969D01*
X76649067Y-141983603D01*
X76646864Y-141996121D01*
X76644366Y-142008523D01*
X76641574Y-142020810D01*
X76638489Y-142032980D01*
X76635109Y-142045035D01*
X76631436Y-142056973D01*
X76627469Y-142068796D01*
X76623208Y-142080503D01*
X76618654Y-142092093D01*
X76613805Y-142103568D01*
X76608662Y-142114927D01*
X76603226Y-142126170D01*
X76597496Y-142137297D01*
X76591472Y-142148309D01*
X76585154Y-142159204D01*
X76578542Y-142169983D01*
X76571637Y-142180647D01*
X76564437Y-142191194D01*
X76556944Y-142201626D01*
X76549157Y-142211941D01*
X76541076Y-142222141D01*
X76532701Y-142232225D01*
X76524032Y-142242193D01*
X76515070Y-142252045D01*
X76505813Y-142261781D01*
X76496335Y-142271308D01*
X76486706Y-142280532D01*
X76476927Y-142289454D01*
X76466998Y-142298074D01*
X76456918Y-142306391D01*
X76446688Y-142314406D01*
X76436308Y-142322118D01*
X76425778Y-142329528D01*
X76415097Y-142336635D01*
X76404267Y-142343440D01*
X76393285Y-142349943D01*
X76382154Y-142356143D01*
X76370872Y-142362040D01*
X76359440Y-142367636D01*
X76347858Y-142372928D01*
X76336126Y-142377919D01*
X76324243Y-142382606D01*
X76312210Y-142386992D01*
X76300027Y-142391075D01*
X76287693Y-142394855D01*
X76275209Y-142398333D01*
X76262575Y-142401509D01*
X76249791Y-142404382D01*
X76236856Y-142406953D01*
X76223771Y-142409221D01*
X76210536Y-142411187D01*
X76197151Y-142412851D01*
X76183615Y-142414212D01*
X76169929Y-142415270D01*
X76156093Y-142416026D01*
X76142106Y-142416480D01*
X76127970Y-142416631D01*
X76111063Y-142416388D01*
X76094356Y-142415658D01*
X76077846Y-142414441D01*
X76061536Y-142412738D01*
X76045423Y-142410549D01*
X76029509Y-142407873D01*
X76013794Y-142404710D01*
X75998277Y-142401061D01*
X75982958Y-142396925D01*
X75967838Y-142392302D01*
X75952916Y-142387193D01*
X75938193Y-142381597D01*
X75923668Y-142375515D01*
X75909342Y-142368946D01*
X75895214Y-142361891D01*
X75881284Y-142354349D01*
X75792136Y-142463526D01*
X75564013Y-142463526D01*
X75739868Y-142249325D01*
X75731663Y-142240035D01*
X75723719Y-142230636D01*
X75716035Y-142221129D01*
X75708612Y-142211513D01*
X75701450Y-142201788D01*
X75694547Y-142191954D01*
X75687906Y-142182012D01*
X75681524Y-142171961D01*
X75675403Y-142161801D01*
X75669543Y-142151532D01*
X75663943Y-142141155D01*
X75658604Y-142130668D01*
X75653525Y-142120073D01*
X75648706Y-142109370D01*
X75644148Y-142098557D01*
X75639850Y-142087636D01*
X75635813Y-142076606D01*
X75632036Y-142065467D01*
X75628520Y-142054219D01*
X75625264Y-142042863D01*
X75622269Y-142031398D01*
X75619534Y-142019824D01*
X75617060Y-142008142D01*
X75614846Y-141996350D01*
X75612892Y-141984450D01*
X75611199Y-141972441D01*
X75609767Y-141960323D01*
X75608595Y-141948097D01*
X75607683Y-141935762D01*
X75607032Y-141923318D01*
X75606641Y-141910765D01*
X75606511Y-141898103D01*
X75606519Y-141897371D01*
X75798975Y-141897371D01*
X75799213Y-141910912D01*
X75799929Y-141924302D01*
X75801121Y-141937542D01*
X75802791Y-141950631D01*
X75804937Y-141963569D01*
X75807561Y-141976357D01*
X75810662Y-141988993D01*
X75814240Y-142001479D01*
X75818295Y-142013814D01*
X75822826Y-142025999D01*
X75827835Y-142038033D01*
X75833321Y-142049916D01*
X75839284Y-142061648D01*
X75845724Y-142073229D01*
X75852641Y-142084660D01*
X75860035Y-142095940D01*
X75950894Y-141978948D01*
X76180238Y-141978948D01*
X75999498Y-142203896D01*
X76007101Y-142206942D01*
X76018624Y-142211143D01*
X76030288Y-142214902D01*
X76042094Y-142218218D01*
X76054041Y-142221093D01*
X76066131Y-142223525D01*
X76078362Y-142225515D01*
X76090734Y-142227063D01*
X76103249Y-142228168D01*
X76115905Y-142228831D01*
X76128702Y-142229053D01*
X76143533Y-142228762D01*
X76158168Y-142227889D01*
X76172606Y-142226434D01*
X76186847Y-142224397D01*
X76200892Y-142221778D01*
X76214741Y-142218577D01*
X76228393Y-142214794D01*
X76241848Y-142210429D01*
X76255107Y-142205482D01*
X76268169Y-142199953D01*
X76281035Y-142193842D01*
X76293704Y-142187150D01*
X76306176Y-142179875D01*
X76318452Y-142172018D01*
X76330532Y-142163579D01*
X76342415Y-142154558D01*
X76356966Y-142142353D01*
X76370579Y-142129611D01*
X76383253Y-142116334D01*
X76394988Y-142102519D01*
X76405784Y-142088169D01*
X76415642Y-142073283D01*
X76424561Y-142057860D01*
X76432540Y-142041901D01*
X76439582Y-142025406D01*
X76445684Y-142008375D01*
X76450847Y-141990808D01*
X76455072Y-141972704D01*
X76458358Y-141954065D01*
X76460705Y-141934889D01*
X76461526Y-141925100D01*
X76462113Y-141915177D01*
X76462465Y-141905119D01*
X76462582Y-141894928D01*
X76462209Y-141876750D01*
X76461090Y-141858975D01*
X76459225Y-141841602D01*
X76456614Y-141824632D01*
X76453256Y-141808065D01*
X76449153Y-141791900D01*
X76444303Y-141776138D01*
X76438708Y-141760778D01*
X76432366Y-141745821D01*
X76425278Y-141731267D01*
X76417444Y-141717115D01*
X76408864Y-141703366D01*
X76399538Y-141690019D01*
X76389466Y-141677075D01*
X76378648Y-141664534D01*
X76367083Y-141652395D01*
X76354967Y-141640831D01*
X76342491Y-141630013D01*
X76329657Y-141619940D01*
X76316464Y-141610614D01*
X76302912Y-141602034D01*
X76289002Y-141594200D01*
X76274733Y-141587113D01*
X76260105Y-141580771D01*
X76245118Y-141575175D01*
X76229773Y-141570326D01*
X76214069Y-141566222D01*
X76198006Y-141562865D01*
X76181585Y-141560254D01*
X76164805Y-141558388D01*
X76147666Y-141557269D01*
X76130168Y-141556896D01*
X76113139Y-141557285D01*
X76096428Y-141558449D01*
X76080036Y-141560391D01*
X76063963Y-141563109D01*
X76048208Y-141566604D01*
X76032772Y-141570875D01*
X76017655Y-141575923D01*
X76002856Y-141581748D01*
X75988376Y-141588349D01*
X75974215Y-141595727D01*
X75960372Y-141603881D01*
X75946848Y-141612813D01*
X75933643Y-141622520D01*
X75920756Y-141633005D01*
X75908188Y-141644266D01*
X75895939Y-141656303D01*
X75884197Y-141668865D01*
X75873213Y-141681762D01*
X75862986Y-141694992D01*
X75853517Y-141708556D01*
X75844805Y-141722454D01*
X75836851Y-141736686D01*
X75829655Y-141751252D01*
X75823216Y-141766151D01*
X75817534Y-141781385D01*
X75812610Y-141796953D01*
X75808444Y-141812854D01*
X75805035Y-141829090D01*
X75802383Y-141845659D01*
X75800490Y-141862562D01*
X75799353Y-141879800D01*
X75798975Y-141897371D01*
X75606519Y-141897371D01*
X75606662Y-141884354D01*
X75607114Y-141870736D01*
X75607868Y-141857249D01*
X75608923Y-141843893D01*
X75610280Y-141830668D01*
X75611938Y-141817575D01*
X75613898Y-141804613D01*
X75616159Y-141791782D01*
X75618721Y-141779082D01*
X75621586Y-141766513D01*
X75624751Y-141754075D01*
X75628218Y-141741769D01*
X75631987Y-141729594D01*
X75636057Y-141717550D01*
X75640428Y-141705637D01*
X75645102Y-141693855D01*
X75650076Y-141682205D01*
X75655352Y-141670686D01*
X75660930Y-141659298D01*
X75666809Y-141648041D01*
X75672989Y-141636915D01*
X75679471Y-141625921D01*
X75686255Y-141615057D01*
X75693340Y-141604325D01*
X75700726Y-141593724D01*
X75708414Y-141583254D01*
X75716403Y-141572916D01*
X75724694Y-141562708D01*
X75733287Y-141552632D01*
X75742180Y-141542687D01*
X75751376Y-141532873D01*
X75760873Y-141523191D01*
X75770564Y-141513724D01*
X75780375Y-141504558D01*
X75790304Y-141495692D01*
X75800352Y-141487127D01*
X75810519Y-141478862D01*
X75820805Y-141470898D01*
X75831209Y-141463234D01*
X75841732Y-141455871D01*
X75852374Y-141448809D01*
X75863135Y-141442047D01*
X75874015Y-141435585D01*
X75885013Y-141429424D01*
X75896130Y-141423564D01*
X75907366Y-141418004D01*
X75918721Y-141412745D01*
X75930194Y-141407786D01*
X75941786Y-141403128D01*
X75953497Y-141398770D01*
X75965327Y-141394713D01*
X75977276Y-141390956D01*
X75989343Y-141387500D01*
X76001529Y-141384344D01*
X76013834Y-141381489D01*
X76026258Y-141378935D01*
X76038800Y-141376681D01*
X76051462Y-141374727D01*
X76064242Y-141373074D01*
X76077140Y-141371722D01*
X76090158Y-141370670D01*
X76103294Y-141369919D01*
X76116550Y-141369468D01*
X76129924Y-141369318D01*
X76147468Y-141369593D01*
G37*
G36*
X75315374Y-141384949D02*
G01*
X75027656Y-141384949D01*
X75027656Y-142401000D01*
X75218654Y-142401000D01*
X75218654Y-141556896D01*
X75426748Y-141556896D01*
X75315374Y-141384949D01*
G37*
X124271066Y-137622619D02*
X124604399Y-137146428D01*
X124842494Y-137622619D02*
X124842494Y-136622619D01*
X124842494Y-136622619D02*
X124461542Y-136622619D01*
X124461542Y-136622619D02*
X124366304Y-136670238D01*
X124366304Y-136670238D02*
X124318685Y-136717857D01*
X124318685Y-136717857D02*
X124271066Y-136813095D01*
X124271066Y-136813095D02*
X124271066Y-136955952D01*
X124271066Y-136955952D02*
X124318685Y-137051190D01*
X124318685Y-137051190D02*
X124366304Y-137098809D01*
X124366304Y-137098809D02*
X124461542Y-137146428D01*
X124461542Y-137146428D02*
X124842494Y-137146428D01*
X123937732Y-136622619D02*
X123318685Y-136622619D01*
X123318685Y-136622619D02*
X123652018Y-137003571D01*
X123652018Y-137003571D02*
X123509161Y-137003571D01*
X123509161Y-137003571D02*
X123413923Y-137051190D01*
X123413923Y-137051190D02*
X123366304Y-137098809D01*
X123366304Y-137098809D02*
X123318685Y-137194047D01*
X123318685Y-137194047D02*
X123318685Y-137432142D01*
X123318685Y-137432142D02*
X123366304Y-137527380D01*
X123366304Y-137527380D02*
X123413923Y-137575000D01*
X123413923Y-137575000D02*
X123509161Y-137622619D01*
X123509161Y-137622619D02*
X123794875Y-137622619D01*
X123794875Y-137622619D02*
X123890113Y-137575000D01*
X123890113Y-137575000D02*
X123937732Y-137527380D01*
X97229019Y-138123133D02*
X96752828Y-137789800D01*
X97229019Y-137551705D02*
X96229019Y-137551705D01*
X96229019Y-137551705D02*
X96229019Y-137932657D01*
X96229019Y-137932657D02*
X96276638Y-138027895D01*
X96276638Y-138027895D02*
X96324257Y-138075514D01*
X96324257Y-138075514D02*
X96419495Y-138123133D01*
X96419495Y-138123133D02*
X96562352Y-138123133D01*
X96562352Y-138123133D02*
X96657590Y-138075514D01*
X96657590Y-138075514D02*
X96705209Y-138027895D01*
X96705209Y-138027895D02*
X96752828Y-137932657D01*
X96752828Y-137932657D02*
X96752828Y-137551705D01*
X96229019Y-138980276D02*
X96229019Y-138789800D01*
X96229019Y-138789800D02*
X96276638Y-138694562D01*
X96276638Y-138694562D02*
X96324257Y-138646943D01*
X96324257Y-138646943D02*
X96467114Y-138551705D01*
X96467114Y-138551705D02*
X96657590Y-138504086D01*
X96657590Y-138504086D02*
X97038542Y-138504086D01*
X97038542Y-138504086D02*
X97133780Y-138551705D01*
X97133780Y-138551705D02*
X97181400Y-138599324D01*
X97181400Y-138599324D02*
X97229019Y-138694562D01*
X97229019Y-138694562D02*
X97229019Y-138885038D01*
X97229019Y-138885038D02*
X97181400Y-138980276D01*
X97181400Y-138980276D02*
X97133780Y-139027895D01*
X97133780Y-139027895D02*
X97038542Y-139075514D01*
X97038542Y-139075514D02*
X96800447Y-139075514D01*
X96800447Y-139075514D02*
X96705209Y-139027895D01*
X96705209Y-139027895D02*
X96657590Y-138980276D01*
X96657590Y-138980276D02*
X96609971Y-138885038D01*
X96609971Y-138885038D02*
X96609971Y-138694562D01*
X96609971Y-138694562D02*
X96657590Y-138599324D01*
X96657590Y-138599324D02*
X96705209Y-138551705D01*
X96705209Y-138551705D02*
X96800447Y-138504086D01*
X56675257Y-129850219D02*
X57008590Y-129374028D01*
X57246685Y-129850219D02*
X57246685Y-128850219D01*
X57246685Y-128850219D02*
X56865733Y-128850219D01*
X56865733Y-128850219D02*
X56770495Y-128897838D01*
X56770495Y-128897838D02*
X56722876Y-128945457D01*
X56722876Y-128945457D02*
X56675257Y-129040695D01*
X56675257Y-129040695D02*
X56675257Y-129183552D01*
X56675257Y-129183552D02*
X56722876Y-129278790D01*
X56722876Y-129278790D02*
X56770495Y-129326409D01*
X56770495Y-129326409D02*
X56865733Y-129374028D01*
X56865733Y-129374028D02*
X57246685Y-129374028D01*
X55722876Y-129850219D02*
X56294304Y-129850219D01*
X56008590Y-129850219D02*
X56008590Y-128850219D01*
X56008590Y-128850219D02*
X56103828Y-128993076D01*
X56103828Y-128993076D02*
X56199066Y-129088314D01*
X56199066Y-129088314D02*
X56294304Y-129135933D01*
X55389542Y-128850219D02*
X54722876Y-128850219D01*
X54722876Y-128850219D02*
X55151447Y-129850219D01*
X63911819Y-138142742D02*
X63435628Y-137809409D01*
X63911819Y-137571314D02*
X62911819Y-137571314D01*
X62911819Y-137571314D02*
X62911819Y-137952266D01*
X62911819Y-137952266D02*
X62959438Y-138047504D01*
X62959438Y-138047504D02*
X63007057Y-138095123D01*
X63007057Y-138095123D02*
X63102295Y-138142742D01*
X63102295Y-138142742D02*
X63245152Y-138142742D01*
X63245152Y-138142742D02*
X63340390Y-138095123D01*
X63340390Y-138095123D02*
X63388009Y-138047504D01*
X63388009Y-138047504D02*
X63435628Y-137952266D01*
X63435628Y-137952266D02*
X63435628Y-137571314D01*
X63911819Y-139095123D02*
X63911819Y-138523695D01*
X63911819Y-138809409D02*
X62911819Y-138809409D01*
X62911819Y-138809409D02*
X63054676Y-138714171D01*
X63054676Y-138714171D02*
X63149914Y-138618933D01*
X63149914Y-138618933D02*
X63197533Y-138523695D01*
X63007057Y-139476076D02*
X62959438Y-139523695D01*
X62959438Y-139523695D02*
X62911819Y-139618933D01*
X62911819Y-139618933D02*
X62911819Y-139857028D01*
X62911819Y-139857028D02*
X62959438Y-139952266D01*
X62959438Y-139952266D02*
X63007057Y-139999885D01*
X63007057Y-139999885D02*
X63102295Y-140047504D01*
X63102295Y-140047504D02*
X63197533Y-140047504D01*
X63197533Y-140047504D02*
X63340390Y-139999885D01*
X63340390Y-139999885D02*
X63911819Y-139428457D01*
X63911819Y-139428457D02*
X63911819Y-140047504D01*
X80160219Y-138427933D02*
X79684028Y-138094600D01*
X80160219Y-137856505D02*
X79160219Y-137856505D01*
X79160219Y-137856505D02*
X79160219Y-138237457D01*
X79160219Y-138237457D02*
X79207838Y-138332695D01*
X79207838Y-138332695D02*
X79255457Y-138380314D01*
X79255457Y-138380314D02*
X79350695Y-138427933D01*
X79350695Y-138427933D02*
X79493552Y-138427933D01*
X79493552Y-138427933D02*
X79588790Y-138380314D01*
X79588790Y-138380314D02*
X79636409Y-138332695D01*
X79636409Y-138332695D02*
X79684028Y-138237457D01*
X79684028Y-138237457D02*
X79684028Y-137856505D01*
X80160219Y-138904124D02*
X80160219Y-139094600D01*
X80160219Y-139094600D02*
X80112600Y-139189838D01*
X80112600Y-139189838D02*
X80064980Y-139237457D01*
X80064980Y-139237457D02*
X79922123Y-139332695D01*
X79922123Y-139332695D02*
X79731647Y-139380314D01*
X79731647Y-139380314D02*
X79350695Y-139380314D01*
X79350695Y-139380314D02*
X79255457Y-139332695D01*
X79255457Y-139332695D02*
X79207838Y-139285076D01*
X79207838Y-139285076D02*
X79160219Y-139189838D01*
X79160219Y-139189838D02*
X79160219Y-138999362D01*
X79160219Y-138999362D02*
X79207838Y-138904124D01*
X79207838Y-138904124D02*
X79255457Y-138856505D01*
X79255457Y-138856505D02*
X79350695Y-138808886D01*
X79350695Y-138808886D02*
X79588790Y-138808886D01*
X79588790Y-138808886D02*
X79684028Y-138856505D01*
X79684028Y-138856505D02*
X79731647Y-138904124D01*
X79731647Y-138904124D02*
X79779266Y-138999362D01*
X79779266Y-138999362D02*
X79779266Y-139189838D01*
X79779266Y-139189838D02*
X79731647Y-139285076D01*
X79731647Y-139285076D02*
X79684028Y-139332695D01*
X79684028Y-139332695D02*
X79588790Y-139380314D01*
X110758266Y-143369380D02*
X110805885Y-143417000D01*
X110805885Y-143417000D02*
X110948742Y-143464619D01*
X110948742Y-143464619D02*
X111043980Y-143464619D01*
X111043980Y-143464619D02*
X111186837Y-143417000D01*
X111186837Y-143417000D02*
X111282075Y-143321761D01*
X111282075Y-143321761D02*
X111329694Y-143226523D01*
X111329694Y-143226523D02*
X111377313Y-143036047D01*
X111377313Y-143036047D02*
X111377313Y-142893190D01*
X111377313Y-142893190D02*
X111329694Y-142702714D01*
X111329694Y-142702714D02*
X111282075Y-142607476D01*
X111282075Y-142607476D02*
X111186837Y-142512238D01*
X111186837Y-142512238D02*
X111043980Y-142464619D01*
X111043980Y-142464619D02*
X110948742Y-142464619D01*
X110948742Y-142464619D02*
X110805885Y-142512238D01*
X110805885Y-142512238D02*
X110758266Y-142559857D01*
X110377313Y-142559857D02*
X110329694Y-142512238D01*
X110329694Y-142512238D02*
X110234456Y-142464619D01*
X110234456Y-142464619D02*
X109996361Y-142464619D01*
X109996361Y-142464619D02*
X109901123Y-142512238D01*
X109901123Y-142512238D02*
X109853504Y-142559857D01*
X109853504Y-142559857D02*
X109805885Y-142655095D01*
X109805885Y-142655095D02*
X109805885Y-142750333D01*
X109805885Y-142750333D02*
X109853504Y-142893190D01*
X109853504Y-142893190D02*
X110424932Y-143464619D01*
X110424932Y-143464619D02*
X109805885Y-143464619D01*
X99531466Y-129647019D02*
X99864799Y-129170828D01*
X100102894Y-129647019D02*
X100102894Y-128647019D01*
X100102894Y-128647019D02*
X99721942Y-128647019D01*
X99721942Y-128647019D02*
X99626704Y-128694638D01*
X99626704Y-128694638D02*
X99579085Y-128742257D01*
X99579085Y-128742257D02*
X99531466Y-128837495D01*
X99531466Y-128837495D02*
X99531466Y-128980352D01*
X99531466Y-128980352D02*
X99579085Y-129075590D01*
X99579085Y-129075590D02*
X99626704Y-129123209D01*
X99626704Y-129123209D02*
X99721942Y-129170828D01*
X99721942Y-129170828D02*
X100102894Y-129170828D01*
X98674323Y-128980352D02*
X98674323Y-129647019D01*
X98912418Y-128599400D02*
X99150513Y-129313685D01*
X99150513Y-129313685D02*
X98531466Y-129313685D01*
X88186619Y-138212533D02*
X87710428Y-137879200D01*
X88186619Y-137641105D02*
X87186619Y-137641105D01*
X87186619Y-137641105D02*
X87186619Y-138022057D01*
X87186619Y-138022057D02*
X87234238Y-138117295D01*
X87234238Y-138117295D02*
X87281857Y-138164914D01*
X87281857Y-138164914D02*
X87377095Y-138212533D01*
X87377095Y-138212533D02*
X87519952Y-138212533D01*
X87519952Y-138212533D02*
X87615190Y-138164914D01*
X87615190Y-138164914D02*
X87662809Y-138117295D01*
X87662809Y-138117295D02*
X87710428Y-138022057D01*
X87710428Y-138022057D02*
X87710428Y-137641105D01*
X87615190Y-138783962D02*
X87567571Y-138688724D01*
X87567571Y-138688724D02*
X87519952Y-138641105D01*
X87519952Y-138641105D02*
X87424714Y-138593486D01*
X87424714Y-138593486D02*
X87377095Y-138593486D01*
X87377095Y-138593486D02*
X87281857Y-138641105D01*
X87281857Y-138641105D02*
X87234238Y-138688724D01*
X87234238Y-138688724D02*
X87186619Y-138783962D01*
X87186619Y-138783962D02*
X87186619Y-138974438D01*
X87186619Y-138974438D02*
X87234238Y-139069676D01*
X87234238Y-139069676D02*
X87281857Y-139117295D01*
X87281857Y-139117295D02*
X87377095Y-139164914D01*
X87377095Y-139164914D02*
X87424714Y-139164914D01*
X87424714Y-139164914D02*
X87519952Y-139117295D01*
X87519952Y-139117295D02*
X87567571Y-139069676D01*
X87567571Y-139069676D02*
X87615190Y-138974438D01*
X87615190Y-138974438D02*
X87615190Y-138783962D01*
X87615190Y-138783962D02*
X87662809Y-138688724D01*
X87662809Y-138688724D02*
X87710428Y-138641105D01*
X87710428Y-138641105D02*
X87805666Y-138593486D01*
X87805666Y-138593486D02*
X87996142Y-138593486D01*
X87996142Y-138593486D02*
X88091380Y-138641105D01*
X88091380Y-138641105D02*
X88139000Y-138688724D01*
X88139000Y-138688724D02*
X88186619Y-138783962D01*
X88186619Y-138783962D02*
X88186619Y-138974438D01*
X88186619Y-138974438D02*
X88139000Y-139069676D01*
X88139000Y-139069676D02*
X88091380Y-139117295D01*
X88091380Y-139117295D02*
X87996142Y-139164914D01*
X87996142Y-139164914D02*
X87805666Y-139164914D01*
X87805666Y-139164914D02*
X87710428Y-139117295D01*
X87710428Y-139117295D02*
X87662809Y-139069676D01*
X87662809Y-139069676D02*
X87615190Y-138974438D01*
X94387666Y-136917780D02*
X94435285Y-136965400D01*
X94435285Y-136965400D02*
X94578142Y-137013019D01*
X94578142Y-137013019D02*
X94673380Y-137013019D01*
X94673380Y-137013019D02*
X94816237Y-136965400D01*
X94816237Y-136965400D02*
X94911475Y-136870161D01*
X94911475Y-136870161D02*
X94959094Y-136774923D01*
X94959094Y-136774923D02*
X95006713Y-136584447D01*
X95006713Y-136584447D02*
X95006713Y-136441590D01*
X95006713Y-136441590D02*
X94959094Y-136251114D01*
X94959094Y-136251114D02*
X94911475Y-136155876D01*
X94911475Y-136155876D02*
X94816237Y-136060638D01*
X94816237Y-136060638D02*
X94673380Y-136013019D01*
X94673380Y-136013019D02*
X94578142Y-136013019D01*
X94578142Y-136013019D02*
X94435285Y-136060638D01*
X94435285Y-136060638D02*
X94387666Y-136108257D01*
X93816237Y-136441590D02*
X93911475Y-136393971D01*
X93911475Y-136393971D02*
X93959094Y-136346352D01*
X93959094Y-136346352D02*
X94006713Y-136251114D01*
X94006713Y-136251114D02*
X94006713Y-136203495D01*
X94006713Y-136203495D02*
X93959094Y-136108257D01*
X93959094Y-136108257D02*
X93911475Y-136060638D01*
X93911475Y-136060638D02*
X93816237Y-136013019D01*
X93816237Y-136013019D02*
X93625761Y-136013019D01*
X93625761Y-136013019D02*
X93530523Y-136060638D01*
X93530523Y-136060638D02*
X93482904Y-136108257D01*
X93482904Y-136108257D02*
X93435285Y-136203495D01*
X93435285Y-136203495D02*
X93435285Y-136251114D01*
X93435285Y-136251114D02*
X93482904Y-136346352D01*
X93482904Y-136346352D02*
X93530523Y-136393971D01*
X93530523Y-136393971D02*
X93625761Y-136441590D01*
X93625761Y-136441590D02*
X93816237Y-136441590D01*
X93816237Y-136441590D02*
X93911475Y-136489209D01*
X93911475Y-136489209D02*
X93959094Y-136536828D01*
X93959094Y-136536828D02*
X94006713Y-136632066D01*
X94006713Y-136632066D02*
X94006713Y-136822542D01*
X94006713Y-136822542D02*
X93959094Y-136917780D01*
X93959094Y-136917780D02*
X93911475Y-136965400D01*
X93911475Y-136965400D02*
X93816237Y-137013019D01*
X93816237Y-137013019D02*
X93625761Y-137013019D01*
X93625761Y-137013019D02*
X93530523Y-136965400D01*
X93530523Y-136965400D02*
X93482904Y-136917780D01*
X93482904Y-136917780D02*
X93435285Y-136822542D01*
X93435285Y-136822542D02*
X93435285Y-136632066D01*
X93435285Y-136632066D02*
X93482904Y-136536828D01*
X93482904Y-136536828D02*
X93530523Y-136489209D01*
X93530523Y-136489209D02*
X93625761Y-136441590D01*
X80481466Y-129748619D02*
X80814799Y-129272428D01*
X81052894Y-129748619D02*
X81052894Y-128748619D01*
X81052894Y-128748619D02*
X80671942Y-128748619D01*
X80671942Y-128748619D02*
X80576704Y-128796238D01*
X80576704Y-128796238D02*
X80529085Y-128843857D01*
X80529085Y-128843857D02*
X80481466Y-128939095D01*
X80481466Y-128939095D02*
X80481466Y-129081952D01*
X80481466Y-129081952D02*
X80529085Y-129177190D01*
X80529085Y-129177190D02*
X80576704Y-129224809D01*
X80576704Y-129224809D02*
X80671942Y-129272428D01*
X80671942Y-129272428D02*
X81052894Y-129272428D01*
X80148132Y-128748619D02*
X79481466Y-128748619D01*
X79481466Y-128748619D02*
X79910037Y-129748619D01*
X115720410Y-135644980D02*
X115720410Y-136644980D01*
X116768028Y-135740219D02*
X116720409Y-135692600D01*
X116720409Y-135692600D02*
X116577552Y-135644980D01*
X116577552Y-135644980D02*
X116482314Y-135644980D01*
X116482314Y-135644980D02*
X116339457Y-135692600D01*
X116339457Y-135692600D02*
X116244219Y-135787838D01*
X116244219Y-135787838D02*
X116196600Y-135883076D01*
X116196600Y-135883076D02*
X116148981Y-136073552D01*
X116148981Y-136073552D02*
X116148981Y-136216409D01*
X116148981Y-136216409D02*
X116196600Y-136406885D01*
X116196600Y-136406885D02*
X116244219Y-136502123D01*
X116244219Y-136502123D02*
X116339457Y-136597361D01*
X116339457Y-136597361D02*
X116482314Y-136644980D01*
X116482314Y-136644980D02*
X116577552Y-136644980D01*
X116577552Y-136644980D02*
X116720409Y-136597361D01*
X116720409Y-136597361D02*
X116768028Y-136549742D01*
X117148981Y-136549742D02*
X117196600Y-136597361D01*
X117196600Y-136597361D02*
X117291838Y-136644980D01*
X117291838Y-136644980D02*
X117529933Y-136644980D01*
X117529933Y-136644980D02*
X117625171Y-136597361D01*
X117625171Y-136597361D02*
X117672790Y-136549742D01*
X117672790Y-136549742D02*
X117720409Y-136454504D01*
X117720409Y-136454504D02*
X117720409Y-136359266D01*
X117720409Y-136359266D02*
X117672790Y-136216409D01*
X117672790Y-136216409D02*
X117101362Y-135644980D01*
X117101362Y-135644980D02*
X117720409Y-135644980D01*
X130030457Y-129748619D02*
X130363790Y-129272428D01*
X130601885Y-129748619D02*
X130601885Y-128748619D01*
X130601885Y-128748619D02*
X130220933Y-128748619D01*
X130220933Y-128748619D02*
X130125695Y-128796238D01*
X130125695Y-128796238D02*
X130078076Y-128843857D01*
X130078076Y-128843857D02*
X130030457Y-128939095D01*
X130030457Y-128939095D02*
X130030457Y-129081952D01*
X130030457Y-129081952D02*
X130078076Y-129177190D01*
X130078076Y-129177190D02*
X130125695Y-129224809D01*
X130125695Y-129224809D02*
X130220933Y-129272428D01*
X130220933Y-129272428D02*
X130601885Y-129272428D01*
X129078076Y-129748619D02*
X129649504Y-129748619D01*
X129363790Y-129748619D02*
X129363790Y-128748619D01*
X129363790Y-128748619D02*
X129459028Y-128891476D01*
X129459028Y-128891476D02*
X129554266Y-128986714D01*
X129554266Y-128986714D02*
X129649504Y-129034333D01*
X128220933Y-128748619D02*
X128411409Y-128748619D01*
X128411409Y-128748619D02*
X128506647Y-128796238D01*
X128506647Y-128796238D02*
X128554266Y-128843857D01*
X128554266Y-128843857D02*
X128649504Y-128986714D01*
X128649504Y-128986714D02*
X128697123Y-129177190D01*
X128697123Y-129177190D02*
X128697123Y-129558142D01*
X128697123Y-129558142D02*
X128649504Y-129653380D01*
X128649504Y-129653380D02*
X128601885Y-129701000D01*
X128601885Y-129701000D02*
X128506647Y-129748619D01*
X128506647Y-129748619D02*
X128316171Y-129748619D01*
X128316171Y-129748619D02*
X128220933Y-129701000D01*
X128220933Y-129701000D02*
X128173314Y-129653380D01*
X128173314Y-129653380D02*
X128125695Y-129558142D01*
X128125695Y-129558142D02*
X128125695Y-129320047D01*
X128125695Y-129320047D02*
X128173314Y-129224809D01*
X128173314Y-129224809D02*
X128220933Y-129177190D01*
X128220933Y-129177190D02*
X128316171Y-129129571D01*
X128316171Y-129129571D02*
X128506647Y-129129571D01*
X128506647Y-129129571D02*
X128601885Y-129177190D01*
X128601885Y-129177190D02*
X128649504Y-129224809D01*
X128649504Y-129224809D02*
X128697123Y-129320047D01*
X67010619Y-140428742D02*
X66534428Y-140095409D01*
X67010619Y-139857314D02*
X66010619Y-139857314D01*
X66010619Y-139857314D02*
X66010619Y-140238266D01*
X66010619Y-140238266D02*
X66058238Y-140333504D01*
X66058238Y-140333504D02*
X66105857Y-140381123D01*
X66105857Y-140381123D02*
X66201095Y-140428742D01*
X66201095Y-140428742D02*
X66343952Y-140428742D01*
X66343952Y-140428742D02*
X66439190Y-140381123D01*
X66439190Y-140381123D02*
X66486809Y-140333504D01*
X66486809Y-140333504D02*
X66534428Y-140238266D01*
X66534428Y-140238266D02*
X66534428Y-139857314D01*
X67010619Y-141381123D02*
X67010619Y-140809695D01*
X67010619Y-141095409D02*
X66010619Y-141095409D01*
X66010619Y-141095409D02*
X66153476Y-141000171D01*
X66153476Y-141000171D02*
X66248714Y-140904933D01*
X66248714Y-140904933D02*
X66296333Y-140809695D01*
X66010619Y-141714457D02*
X66010619Y-142333504D01*
X66010619Y-142333504D02*
X66391571Y-142000171D01*
X66391571Y-142000171D02*
X66391571Y-142143028D01*
X66391571Y-142143028D02*
X66439190Y-142238266D01*
X66439190Y-142238266D02*
X66486809Y-142285885D01*
X66486809Y-142285885D02*
X66582047Y-142333504D01*
X66582047Y-142333504D02*
X66820142Y-142333504D01*
X66820142Y-142333504D02*
X66915380Y-142285885D01*
X66915380Y-142285885D02*
X66963000Y-142238266D01*
X66963000Y-142238266D02*
X67010619Y-142143028D01*
X67010619Y-142143028D02*
X67010619Y-141857314D01*
X67010619Y-141857314D02*
X66963000Y-141762076D01*
X66963000Y-141762076D02*
X66915380Y-141714457D01*
X58570410Y-135644980D02*
X58570410Y-136644980D01*
X59618028Y-135740219D02*
X59570409Y-135692600D01*
X59570409Y-135692600D02*
X59427552Y-135644980D01*
X59427552Y-135644980D02*
X59332314Y-135644980D01*
X59332314Y-135644980D02*
X59189457Y-135692600D01*
X59189457Y-135692600D02*
X59094219Y-135787838D01*
X59094219Y-135787838D02*
X59046600Y-135883076D01*
X59046600Y-135883076D02*
X58998981Y-136073552D01*
X58998981Y-136073552D02*
X58998981Y-136216409D01*
X58998981Y-136216409D02*
X59046600Y-136406885D01*
X59046600Y-136406885D02*
X59094219Y-136502123D01*
X59094219Y-136502123D02*
X59189457Y-136597361D01*
X59189457Y-136597361D02*
X59332314Y-136644980D01*
X59332314Y-136644980D02*
X59427552Y-136644980D01*
X59427552Y-136644980D02*
X59570409Y-136597361D01*
X59570409Y-136597361D02*
X59618028Y-136549742D01*
X60189457Y-136216409D02*
X60094219Y-136264028D01*
X60094219Y-136264028D02*
X60046600Y-136311647D01*
X60046600Y-136311647D02*
X59998981Y-136406885D01*
X59998981Y-136406885D02*
X59998981Y-136454504D01*
X59998981Y-136454504D02*
X60046600Y-136549742D01*
X60046600Y-136549742D02*
X60094219Y-136597361D01*
X60094219Y-136597361D02*
X60189457Y-136644980D01*
X60189457Y-136644980D02*
X60379933Y-136644980D01*
X60379933Y-136644980D02*
X60475171Y-136597361D01*
X60475171Y-136597361D02*
X60522790Y-136549742D01*
X60522790Y-136549742D02*
X60570409Y-136454504D01*
X60570409Y-136454504D02*
X60570409Y-136406885D01*
X60570409Y-136406885D02*
X60522790Y-136311647D01*
X60522790Y-136311647D02*
X60475171Y-136264028D01*
X60475171Y-136264028D02*
X60379933Y-136216409D01*
X60379933Y-136216409D02*
X60189457Y-136216409D01*
X60189457Y-136216409D02*
X60094219Y-136168790D01*
X60094219Y-136168790D02*
X60046600Y-136121171D01*
X60046600Y-136121171D02*
X59998981Y-136025933D01*
X59998981Y-136025933D02*
X59998981Y-135835457D01*
X59998981Y-135835457D02*
X60046600Y-135740219D01*
X60046600Y-135740219D02*
X60094219Y-135692600D01*
X60094219Y-135692600D02*
X60189457Y-135644980D01*
X60189457Y-135644980D02*
X60379933Y-135644980D01*
X60379933Y-135644980D02*
X60475171Y-135692600D01*
X60475171Y-135692600D02*
X60522790Y-135740219D01*
X60522790Y-135740219D02*
X60570409Y-135835457D01*
X60570409Y-135835457D02*
X60570409Y-136025933D01*
X60570409Y-136025933D02*
X60522790Y-136121171D01*
X60522790Y-136121171D02*
X60475171Y-136168790D01*
X60475171Y-136168790D02*
X60379933Y-136216409D01*
X87145410Y-135644980D02*
X87145410Y-136644980D01*
X88193028Y-135740219D02*
X88145409Y-135692600D01*
X88145409Y-135692600D02*
X88002552Y-135644980D01*
X88002552Y-135644980D02*
X87907314Y-135644980D01*
X87907314Y-135644980D02*
X87764457Y-135692600D01*
X87764457Y-135692600D02*
X87669219Y-135787838D01*
X87669219Y-135787838D02*
X87621600Y-135883076D01*
X87621600Y-135883076D02*
X87573981Y-136073552D01*
X87573981Y-136073552D02*
X87573981Y-136216409D01*
X87573981Y-136216409D02*
X87621600Y-136406885D01*
X87621600Y-136406885D02*
X87669219Y-136502123D01*
X87669219Y-136502123D02*
X87764457Y-136597361D01*
X87764457Y-136597361D02*
X87907314Y-136644980D01*
X87907314Y-136644980D02*
X88002552Y-136644980D01*
X88002552Y-136644980D02*
X88145409Y-136597361D01*
X88145409Y-136597361D02*
X88193028Y-136549742D01*
X89097790Y-136644980D02*
X88621600Y-136644980D01*
X88621600Y-136644980D02*
X88573981Y-136168790D01*
X88573981Y-136168790D02*
X88621600Y-136216409D01*
X88621600Y-136216409D02*
X88716838Y-136264028D01*
X88716838Y-136264028D02*
X88954933Y-136264028D01*
X88954933Y-136264028D02*
X89050171Y-136216409D01*
X89050171Y-136216409D02*
X89097790Y-136168790D01*
X89097790Y-136168790D02*
X89145409Y-136073552D01*
X89145409Y-136073552D02*
X89145409Y-135835457D01*
X89145409Y-135835457D02*
X89097790Y-135740219D01*
X89097790Y-135740219D02*
X89050171Y-135692600D01*
X89050171Y-135692600D02*
X88954933Y-135644980D01*
X88954933Y-135644980D02*
X88716838Y-135644980D01*
X88716838Y-135644980D02*
X88621600Y-135692600D01*
X88621600Y-135692600D02*
X88573981Y-135740219D01*
X75966257Y-136917780D02*
X76013876Y-136965400D01*
X76013876Y-136965400D02*
X76156733Y-137013019D01*
X76156733Y-137013019D02*
X76251971Y-137013019D01*
X76251971Y-137013019D02*
X76394828Y-136965400D01*
X76394828Y-136965400D02*
X76490066Y-136870161D01*
X76490066Y-136870161D02*
X76537685Y-136774923D01*
X76537685Y-136774923D02*
X76585304Y-136584447D01*
X76585304Y-136584447D02*
X76585304Y-136441590D01*
X76585304Y-136441590D02*
X76537685Y-136251114D01*
X76537685Y-136251114D02*
X76490066Y-136155876D01*
X76490066Y-136155876D02*
X76394828Y-136060638D01*
X76394828Y-136060638D02*
X76251971Y-136013019D01*
X76251971Y-136013019D02*
X76156733Y-136013019D01*
X76156733Y-136013019D02*
X76013876Y-136060638D01*
X76013876Y-136060638D02*
X75966257Y-136108257D01*
X75013876Y-137013019D02*
X75585304Y-137013019D01*
X75299590Y-137013019D02*
X75299590Y-136013019D01*
X75299590Y-136013019D02*
X75394828Y-136155876D01*
X75394828Y-136155876D02*
X75490066Y-136251114D01*
X75490066Y-136251114D02*
X75585304Y-136298733D01*
X74394828Y-136013019D02*
X74299590Y-136013019D01*
X74299590Y-136013019D02*
X74204352Y-136060638D01*
X74204352Y-136060638D02*
X74156733Y-136108257D01*
X74156733Y-136108257D02*
X74109114Y-136203495D01*
X74109114Y-136203495D02*
X74061495Y-136393971D01*
X74061495Y-136393971D02*
X74061495Y-136632066D01*
X74061495Y-136632066D02*
X74109114Y-136822542D01*
X74109114Y-136822542D02*
X74156733Y-136917780D01*
X74156733Y-136917780D02*
X74204352Y-136965400D01*
X74204352Y-136965400D02*
X74299590Y-137013019D01*
X74299590Y-137013019D02*
X74394828Y-137013019D01*
X74394828Y-137013019D02*
X74490066Y-136965400D01*
X74490066Y-136965400D02*
X74537685Y-136917780D01*
X74537685Y-136917780D02*
X74585304Y-136822542D01*
X74585304Y-136822542D02*
X74632923Y-136632066D01*
X74632923Y-136632066D02*
X74632923Y-136393971D01*
X74632923Y-136393971D02*
X74585304Y-136203495D01*
X74585304Y-136203495D02*
X74537685Y-136108257D01*
X74537685Y-136108257D02*
X74490066Y-136060638D01*
X74490066Y-136060638D02*
X74394828Y-136013019D01*
X61247257Y-129545419D02*
X61580590Y-129069228D01*
X61818685Y-129545419D02*
X61818685Y-128545419D01*
X61818685Y-128545419D02*
X61437733Y-128545419D01*
X61437733Y-128545419D02*
X61342495Y-128593038D01*
X61342495Y-128593038D02*
X61294876Y-128640657D01*
X61294876Y-128640657D02*
X61247257Y-128735895D01*
X61247257Y-128735895D02*
X61247257Y-128878752D01*
X61247257Y-128878752D02*
X61294876Y-128973990D01*
X61294876Y-128973990D02*
X61342495Y-129021609D01*
X61342495Y-129021609D02*
X61437733Y-129069228D01*
X61437733Y-129069228D02*
X61818685Y-129069228D01*
X60294876Y-129545419D02*
X60866304Y-129545419D01*
X60580590Y-129545419D02*
X60580590Y-128545419D01*
X60580590Y-128545419D02*
X60675828Y-128688276D01*
X60675828Y-128688276D02*
X60771066Y-128783514D01*
X60771066Y-128783514D02*
X60866304Y-128831133D01*
X59675828Y-128545419D02*
X59580590Y-128545419D01*
X59580590Y-128545419D02*
X59485352Y-128593038D01*
X59485352Y-128593038D02*
X59437733Y-128640657D01*
X59437733Y-128640657D02*
X59390114Y-128735895D01*
X59390114Y-128735895D02*
X59342495Y-128926371D01*
X59342495Y-128926371D02*
X59342495Y-129164466D01*
X59342495Y-129164466D02*
X59390114Y-129354942D01*
X59390114Y-129354942D02*
X59437733Y-129450180D01*
X59437733Y-129450180D02*
X59485352Y-129497800D01*
X59485352Y-129497800D02*
X59580590Y-129545419D01*
X59580590Y-129545419D02*
X59675828Y-129545419D01*
X59675828Y-129545419D02*
X59771066Y-129497800D01*
X59771066Y-129497800D02*
X59818685Y-129450180D01*
X59818685Y-129450180D02*
X59866304Y-129354942D01*
X59866304Y-129354942D02*
X59913923Y-129164466D01*
X59913923Y-129164466D02*
X59913923Y-128926371D01*
X59913923Y-128926371D02*
X59866304Y-128735895D01*
X59866304Y-128735895D02*
X59818685Y-128640657D01*
X59818685Y-128640657D02*
X59771066Y-128593038D01*
X59771066Y-128593038D02*
X59675828Y-128545419D01*
X81387019Y-144187942D02*
X80910828Y-143854609D01*
X81387019Y-143616514D02*
X80387019Y-143616514D01*
X80387019Y-143616514D02*
X80387019Y-143997466D01*
X80387019Y-143997466D02*
X80434638Y-144092704D01*
X80434638Y-144092704D02*
X80482257Y-144140323D01*
X80482257Y-144140323D02*
X80577495Y-144187942D01*
X80577495Y-144187942D02*
X80720352Y-144187942D01*
X80720352Y-144187942D02*
X80815590Y-144140323D01*
X80815590Y-144140323D02*
X80863209Y-144092704D01*
X80863209Y-144092704D02*
X80910828Y-143997466D01*
X80910828Y-143997466D02*
X80910828Y-143616514D01*
X81387019Y-145140323D02*
X81387019Y-144568895D01*
X81387019Y-144854609D02*
X80387019Y-144854609D01*
X80387019Y-144854609D02*
X80529876Y-144759371D01*
X80529876Y-144759371D02*
X80625114Y-144664133D01*
X80625114Y-144664133D02*
X80672733Y-144568895D01*
X80387019Y-146045085D02*
X80387019Y-145568895D01*
X80387019Y-145568895D02*
X80863209Y-145521276D01*
X80863209Y-145521276D02*
X80815590Y-145568895D01*
X80815590Y-145568895D02*
X80767971Y-145664133D01*
X80767971Y-145664133D02*
X80767971Y-145902228D01*
X80767971Y-145902228D02*
X80815590Y-145997466D01*
X80815590Y-145997466D02*
X80863209Y-146045085D01*
X80863209Y-146045085D02*
X80958447Y-146092704D01*
X80958447Y-146092704D02*
X81196542Y-146092704D01*
X81196542Y-146092704D02*
X81291780Y-146045085D01*
X81291780Y-146045085D02*
X81339400Y-145997466D01*
X81339400Y-145997466D02*
X81387019Y-145902228D01*
X81387019Y-145902228D02*
X81387019Y-145664133D01*
X81387019Y-145664133D02*
X81339400Y-145568895D01*
X81339400Y-145568895D02*
X81291780Y-145521276D01*
G36*
X95118130Y-143361663D02*
G01*
X95145047Y-143415496D01*
X95145047Y-143479433D01*
X94821611Y-143414746D01*
X94848153Y-143361663D01*
X94901986Y-143334747D01*
X95064298Y-143334747D01*
X95118130Y-143361663D01*
G37*
G36*
X92252478Y-143369313D02*
G01*
X92281910Y-143398745D01*
X92316476Y-143467877D01*
X92316476Y-143734951D01*
X92281910Y-143804081D01*
X92252478Y-143833514D01*
X92183345Y-143868080D01*
X92073416Y-143868080D01*
X92004283Y-143833514D01*
X91974851Y-143804083D01*
X91940285Y-143734951D01*
X91940285Y-143467877D01*
X91974851Y-143398744D01*
X92004283Y-143369313D01*
X92073415Y-143334747D01*
X92183346Y-143334747D01*
X92252478Y-143369313D01*
G37*
G36*
X97099333Y-144716343D02*
G01*
X90352667Y-144716343D01*
X90352667Y-143249579D01*
X90951410Y-143249579D01*
X90975805Y-143302998D01*
X91025208Y-143334747D01*
X91135727Y-143334747D01*
X91204859Y-143369313D01*
X91234291Y-143398745D01*
X91268857Y-143467877D01*
X91268857Y-143982459D01*
X91281180Y-144024427D01*
X91325562Y-144062884D01*
X91383689Y-144071241D01*
X91437108Y-144046846D01*
X91468857Y-143997443D01*
X91468857Y-143455459D01*
X91736665Y-143455459D01*
X91740285Y-143464187D01*
X91740285Y-143753172D01*
X91737711Y-143777015D01*
X91746849Y-143795291D01*
X91752608Y-143814904D01*
X91759749Y-143821092D01*
X91797615Y-143896824D01*
X91801193Y-143913267D01*
X91820672Y-143932746D01*
X91839444Y-143952927D01*
X91841337Y-143953411D01*
X91865469Y-143977543D01*
X91874063Y-143992012D01*
X91898711Y-144004336D01*
X91922893Y-144017540D01*
X91924841Y-144017400D01*
X92000269Y-144055113D01*
X92020446Y-144068080D01*
X92040882Y-144068080D01*
X92060998Y-144071700D01*
X92069726Y-144068080D01*
X92201570Y-144068080D01*
X92225410Y-144070654D01*
X92243687Y-144061515D01*
X92263299Y-144055757D01*
X92269486Y-144048616D01*
X92345222Y-144010749D01*
X92361662Y-144007173D01*
X92381132Y-143987702D01*
X92401322Y-143968922D01*
X92401806Y-143967028D01*
X92425939Y-143942895D01*
X92440406Y-143934303D01*
X92452724Y-143909666D01*
X92465935Y-143885473D01*
X92465795Y-143883524D01*
X92503510Y-143808095D01*
X92516476Y-143787920D01*
X92516476Y-143769745D01*
X92731903Y-143769745D01*
X92735523Y-143778473D01*
X92735523Y-143805553D01*
X92732949Y-143829396D01*
X92742087Y-143847672D01*
X92747846Y-143867285D01*
X92754987Y-143873473D01*
X92787068Y-143937634D01*
X92786931Y-143941521D01*
X92800084Y-143963666D01*
X92804892Y-143973282D01*
X92807391Y-143975968D01*
X92816920Y-143992012D01*
X92827004Y-143997053D01*
X92834682Y-144005308D01*
X92852757Y-144009930D01*
X92943126Y-144055113D01*
X92963303Y-144068080D01*
X92983739Y-144068080D01*
X93003855Y-144071700D01*
X93012583Y-144068080D01*
X93196808Y-144068080D01*
X93220648Y-144070654D01*
X93238925Y-144061515D01*
X93258537Y-144055757D01*
X93264724Y-144048616D01*
X93364534Y-143998713D01*
X93396560Y-143968922D01*
X93411109Y-143912027D01*
X93392589Y-143856300D01*
X93346880Y-143819430D01*
X93288494Y-143813126D01*
X93178583Y-143868080D01*
X93016273Y-143868080D01*
X92962439Y-143841164D01*
X92935523Y-143787332D01*
X92935523Y-143782163D01*
X92962439Y-143728330D01*
X93016272Y-143701414D01*
X93144424Y-143701414D01*
X93168267Y-143703988D01*
X93186543Y-143694849D01*
X93206156Y-143689091D01*
X93212344Y-143681949D01*
X93276505Y-143649868D01*
X93280391Y-143650006D01*
X93302531Y-143636855D01*
X93312153Y-143632045D01*
X93314841Y-143629544D01*
X93330882Y-143620017D01*
X93335923Y-143609934D01*
X93344179Y-143602255D01*
X93348801Y-143584178D01*
X93393986Y-143493809D01*
X93406952Y-143473634D01*
X93406952Y-143453199D01*
X93410572Y-143433083D01*
X93406952Y-143424355D01*
X93406952Y-143403078D01*
X93674760Y-143403078D01*
X93678380Y-143411806D01*
X93678380Y-143982459D01*
X93690703Y-144024427D01*
X93735085Y-144062884D01*
X93793212Y-144071241D01*
X93846631Y-144046846D01*
X93878380Y-143997443D01*
X93878380Y-143415496D01*
X93905296Y-143361663D01*
X93959129Y-143334747D01*
X94069060Y-143334747D01*
X94138192Y-143369313D01*
X94149809Y-143380930D01*
X94149809Y-143982459D01*
X94162132Y-144024427D01*
X94206514Y-144062884D01*
X94264641Y-144071241D01*
X94318060Y-144046846D01*
X94349809Y-143997443D01*
X94349809Y-143490964D01*
X94617171Y-143490964D01*
X94621237Y-143508253D01*
X94621237Y-143511031D01*
X94624518Y-143522206D01*
X94630615Y-143548130D01*
X94632731Y-143550176D01*
X94633560Y-143552999D01*
X94653686Y-143570438D01*
X94672833Y-143588952D01*
X94675718Y-143589529D01*
X94677942Y-143591456D01*
X94704302Y-143595245D01*
X95145047Y-143683394D01*
X95145047Y-143787332D01*
X95118131Y-143841163D01*
X95064297Y-143868080D01*
X94901987Y-143868080D01*
X94805478Y-143819827D01*
X94762429Y-143812080D01*
X94708184Y-143834579D01*
X94674715Y-143882832D01*
X94672645Y-143941521D01*
X94702634Y-143992012D01*
X94828840Y-144055113D01*
X94849017Y-144068080D01*
X94869453Y-144068080D01*
X94889569Y-144071700D01*
X94898297Y-144068080D01*
X95082522Y-144068080D01*
X95106362Y-144070654D01*
X95124639Y-144061515D01*
X95144251Y-144055757D01*
X95150438Y-144048616D01*
X95214601Y-144016535D01*
X95218486Y-144016673D01*
X95240616Y-144003528D01*
X95250248Y-143998713D01*
X95252939Y-143996209D01*
X95268977Y-143986684D01*
X95274018Y-143976601D01*
X95282274Y-143968922D01*
X95286896Y-143950845D01*
X95332081Y-143860476D01*
X95345047Y-143840301D01*
X95345047Y-143819866D01*
X95348667Y-143799750D01*
X95345047Y-143791022D01*
X95345047Y-143618589D01*
X95349113Y-143607101D01*
X95345047Y-143589813D01*
X95345047Y-143397274D01*
X95347621Y-143373431D01*
X95338482Y-143355153D01*
X95332724Y-143335543D01*
X95325583Y-143329355D01*
X95293501Y-143265193D01*
X95293639Y-143261307D01*
X95280487Y-143239164D01*
X95275678Y-143229546D01*
X95273177Y-143226857D01*
X95263650Y-143210817D01*
X95253568Y-143205776D01*
X95245888Y-143197519D01*
X95227807Y-143192895D01*
X95137445Y-143147714D01*
X95117267Y-143134747D01*
X95096831Y-143134747D01*
X95076716Y-143131127D01*
X95067988Y-143134747D01*
X94883764Y-143134747D01*
X94859921Y-143132173D01*
X94841643Y-143141311D01*
X94822033Y-143147070D01*
X94815845Y-143154210D01*
X94751683Y-143186292D01*
X94747797Y-143186155D01*
X94725654Y-143199306D01*
X94716036Y-143204116D01*
X94713347Y-143206616D01*
X94697307Y-143216144D01*
X94692266Y-143226225D01*
X94684009Y-143233906D01*
X94679385Y-143251986D01*
X94634204Y-143342348D01*
X94621237Y-143362527D01*
X94621237Y-143382963D01*
X94617617Y-143403078D01*
X94621237Y-143411806D01*
X94621237Y-143479476D01*
X94617171Y-143490964D01*
X94349809Y-143490964D01*
X94349809Y-143357553D01*
X94353766Y-143346944D01*
X94349809Y-143328754D01*
X94349809Y-143220368D01*
X94337486Y-143178400D01*
X94293104Y-143139943D01*
X94234977Y-143131586D01*
X94181558Y-143155981D01*
X94176009Y-143164615D01*
X94142207Y-143147714D01*
X94122029Y-143134747D01*
X94101593Y-143134747D01*
X94081478Y-143131127D01*
X94072750Y-143134747D01*
X93940907Y-143134747D01*
X93917064Y-143132173D01*
X93898786Y-143141311D01*
X93879176Y-143147070D01*
X93872988Y-143154210D01*
X93808826Y-143186292D01*
X93804940Y-143186155D01*
X93782797Y-143199306D01*
X93773179Y-143204116D01*
X93770490Y-143206616D01*
X93754450Y-143216144D01*
X93749409Y-143226225D01*
X93741152Y-143233906D01*
X93736528Y-143251986D01*
X93691347Y-143342348D01*
X93678380Y-143362527D01*
X93678380Y-143382963D01*
X93674760Y-143403078D01*
X93406952Y-143403078D01*
X93406952Y-143397274D01*
X93409526Y-143373431D01*
X93400387Y-143355153D01*
X93394629Y-143335543D01*
X93387488Y-143329355D01*
X93355406Y-143265193D01*
X93355544Y-143261307D01*
X93342392Y-143239164D01*
X93337583Y-143229546D01*
X93335082Y-143226857D01*
X93325555Y-143210817D01*
X93315473Y-143205776D01*
X93307793Y-143197519D01*
X93289712Y-143192895D01*
X93199350Y-143147714D01*
X93179172Y-143134747D01*
X93158736Y-143134747D01*
X93138621Y-143131127D01*
X93129893Y-143134747D01*
X92998050Y-143134747D01*
X92974207Y-143132173D01*
X92955929Y-143141311D01*
X92936319Y-143147070D01*
X92930131Y-143154210D01*
X92830322Y-143204116D01*
X92798295Y-143233906D01*
X92783747Y-143290801D01*
X92802267Y-143346529D01*
X92847976Y-143383399D01*
X92906362Y-143389702D01*
X93016272Y-143334747D01*
X93126203Y-143334747D01*
X93180035Y-143361663D01*
X93206952Y-143415496D01*
X93206952Y-143420665D01*
X93180035Y-143474497D01*
X93126203Y-143501414D01*
X92998050Y-143501414D01*
X92974207Y-143498840D01*
X92955929Y-143507978D01*
X92936319Y-143513737D01*
X92930131Y-143520877D01*
X92865969Y-143552959D01*
X92862083Y-143552822D01*
X92839940Y-143565973D01*
X92830322Y-143570783D01*
X92827633Y-143573283D01*
X92811593Y-143582811D01*
X92806552Y-143592892D01*
X92798295Y-143600573D01*
X92793671Y-143618653D01*
X92748490Y-143709015D01*
X92735523Y-143729194D01*
X92735523Y-143749630D01*
X92731903Y-143769745D01*
X92516476Y-143769745D01*
X92516476Y-143767485D01*
X92520096Y-143747369D01*
X92516476Y-143738641D01*
X92516476Y-143449655D01*
X92519050Y-143425812D01*
X92509911Y-143407534D01*
X92504153Y-143387924D01*
X92497012Y-143381736D01*
X92459146Y-143306005D01*
X92455569Y-143289561D01*
X92436083Y-143270075D01*
X92417317Y-143249900D01*
X92415423Y-143249415D01*
X92391290Y-143225282D01*
X92382698Y-143210817D01*
X92358063Y-143198499D01*
X92333868Y-143185288D01*
X92331918Y-143185427D01*
X92256493Y-143147714D01*
X92236315Y-143134747D01*
X92215879Y-143134747D01*
X92195764Y-143131127D01*
X92187036Y-143134747D01*
X92055193Y-143134747D01*
X92031350Y-143132173D01*
X92013072Y-143141311D01*
X91993462Y-143147070D01*
X91987274Y-143154210D01*
X91911543Y-143192076D01*
X91895099Y-143195654D01*
X91875613Y-143215139D01*
X91855438Y-143233906D01*
X91854953Y-143235799D01*
X91830820Y-143259932D01*
X91816355Y-143268525D01*
X91804037Y-143293159D01*
X91790826Y-143317355D01*
X91790965Y-143319304D01*
X91753252Y-143394729D01*
X91740285Y-143414908D01*
X91740285Y-143435344D01*
X91736665Y-143455459D01*
X91468857Y-143455459D01*
X91468857Y-143449655D01*
X91471431Y-143425812D01*
X91468857Y-143420664D01*
X91468857Y-143220368D01*
X91456534Y-143178400D01*
X91412152Y-143139943D01*
X91354025Y-143131586D01*
X91300606Y-143155981D01*
X91282318Y-143184436D01*
X91208874Y-143147714D01*
X91188696Y-143134747D01*
X91168260Y-143134747D01*
X91148145Y-143131127D01*
X91139417Y-143134747D01*
X91040192Y-143134747D01*
X90998224Y-143147070D01*
X90959767Y-143191452D01*
X90951410Y-143249579D01*
X90352667Y-143249579D01*
X90352667Y-142909367D01*
X95560464Y-142909367D01*
X95570917Y-142967154D01*
X95610953Y-143010118D01*
X95667861Y-143024615D01*
X95837464Y-142968080D01*
X96059536Y-142968080D01*
X96128668Y-143002646D01*
X96158100Y-143032078D01*
X96192666Y-143101210D01*
X96192666Y-143158760D01*
X96158100Y-143227890D01*
X96128668Y-143257323D01*
X96048241Y-143297537D01*
X95866643Y-143342936D01*
X95855159Y-143341697D01*
X95838715Y-143349918D01*
X95835415Y-143350744D01*
X95825898Y-143356327D01*
X95735352Y-143401600D01*
X95718908Y-143405178D01*
X95699422Y-143424663D01*
X95679247Y-143443430D01*
X95678762Y-143445323D01*
X95654629Y-143469456D01*
X95640164Y-143478049D01*
X95627846Y-143502683D01*
X95614635Y-143526879D01*
X95614774Y-143528828D01*
X95577061Y-143604253D01*
X95564094Y-143624432D01*
X95564094Y-143644868D01*
X95560474Y-143664983D01*
X95564094Y-143673711D01*
X95564094Y-143753172D01*
X95561520Y-143777015D01*
X95570658Y-143795291D01*
X95576417Y-143814904D01*
X95583558Y-143821092D01*
X95621424Y-143896824D01*
X95625002Y-143913267D01*
X95644481Y-143932746D01*
X95663253Y-143952927D01*
X95665146Y-143953411D01*
X95689278Y-143977543D01*
X95697872Y-143992012D01*
X95722520Y-144004336D01*
X95746702Y-144017540D01*
X95748650Y-144017400D01*
X95824078Y-144055113D01*
X95844255Y-144068080D01*
X95864691Y-144068080D01*
X95884807Y-144071700D01*
X95893535Y-144068080D01*
X96122984Y-144068080D01*
X96139289Y-144072234D01*
X96165429Y-144063520D01*
X96191870Y-144055757D01*
X96193148Y-144054281D01*
X96337929Y-144006022D01*
X96373847Y-143981060D01*
X96396296Y-143926794D01*
X96385843Y-143869007D01*
X96345808Y-143826044D01*
X96288900Y-143811546D01*
X96119295Y-143868080D01*
X95897225Y-143868080D01*
X95828092Y-143833514D01*
X95798660Y-143804083D01*
X95764094Y-143734951D01*
X95764094Y-143677401D01*
X95798660Y-143608268D01*
X95828092Y-143578837D01*
X95908519Y-143538623D01*
X96090115Y-143493224D01*
X96101600Y-143494464D01*
X96118043Y-143486242D01*
X96121345Y-143485417D01*
X96130865Y-143479831D01*
X96221409Y-143434559D01*
X96237852Y-143430982D01*
X96257331Y-143411502D01*
X96277512Y-143392731D01*
X96277996Y-143390837D01*
X96302129Y-143366704D01*
X96316596Y-143358112D01*
X96328914Y-143333475D01*
X96342125Y-143309282D01*
X96341985Y-143307333D01*
X96379700Y-143231904D01*
X96392666Y-143211729D01*
X96392666Y-143191294D01*
X96396286Y-143171178D01*
X96392666Y-143162450D01*
X96392666Y-143082988D01*
X96395240Y-143059145D01*
X96386101Y-143040867D01*
X96380343Y-143021257D01*
X96373202Y-143015069D01*
X96335336Y-142939338D01*
X96331759Y-142922894D01*
X96312273Y-142903408D01*
X96293507Y-142883233D01*
X96291613Y-142882748D01*
X96267480Y-142858615D01*
X96258888Y-142844150D01*
X96234253Y-142831832D01*
X96210058Y-142818621D01*
X96208108Y-142818760D01*
X96132683Y-142781047D01*
X96112505Y-142768080D01*
X96092069Y-142768080D01*
X96071954Y-142764460D01*
X96063226Y-142768080D01*
X95833775Y-142768080D01*
X95817470Y-142763926D01*
X95791328Y-142772639D01*
X95764890Y-142780403D01*
X95763610Y-142781879D01*
X95618830Y-142830140D01*
X95582913Y-142855102D01*
X95560464Y-142909367D01*
X90352667Y-142909367D01*
X90352667Y-142202057D01*
X97099333Y-142202057D01*
X97099333Y-144716343D01*
G37*
X103798666Y-136866980D02*
X103846285Y-136914600D01*
X103846285Y-136914600D02*
X103989142Y-136962219D01*
X103989142Y-136962219D02*
X104084380Y-136962219D01*
X104084380Y-136962219D02*
X104227237Y-136914600D01*
X104227237Y-136914600D02*
X104322475Y-136819361D01*
X104322475Y-136819361D02*
X104370094Y-136724123D01*
X104370094Y-136724123D02*
X104417713Y-136533647D01*
X104417713Y-136533647D02*
X104417713Y-136390790D01*
X104417713Y-136390790D02*
X104370094Y-136200314D01*
X104370094Y-136200314D02*
X104322475Y-136105076D01*
X104322475Y-136105076D02*
X104227237Y-136009838D01*
X104227237Y-136009838D02*
X104084380Y-135962219D01*
X104084380Y-135962219D02*
X103989142Y-135962219D01*
X103989142Y-135962219D02*
X103846285Y-136009838D01*
X103846285Y-136009838D02*
X103798666Y-136057457D01*
X102893904Y-135962219D02*
X103370094Y-135962219D01*
X103370094Y-135962219D02*
X103417713Y-136438409D01*
X103417713Y-136438409D02*
X103370094Y-136390790D01*
X103370094Y-136390790D02*
X103274856Y-136343171D01*
X103274856Y-136343171D02*
X103036761Y-136343171D01*
X103036761Y-136343171D02*
X102941523Y-136390790D01*
X102941523Y-136390790D02*
X102893904Y-136438409D01*
X102893904Y-136438409D02*
X102846285Y-136533647D01*
X102846285Y-136533647D02*
X102846285Y-136771742D01*
X102846285Y-136771742D02*
X102893904Y-136866980D01*
X102893904Y-136866980D02*
X102941523Y-136914600D01*
X102941523Y-136914600D02*
X103036761Y-136962219D01*
X103036761Y-136962219D02*
X103274856Y-136962219D01*
X103274856Y-136962219D02*
X103370094Y-136914600D01*
X103370094Y-136914600D02*
X103417713Y-136866980D01*
X121731066Y-138144580D02*
X121778685Y-138192200D01*
X121778685Y-138192200D02*
X121921542Y-138239819D01*
X121921542Y-138239819D02*
X122016780Y-138239819D01*
X122016780Y-138239819D02*
X122159637Y-138192200D01*
X122159637Y-138192200D02*
X122254875Y-138096961D01*
X122254875Y-138096961D02*
X122302494Y-138001723D01*
X122302494Y-138001723D02*
X122350113Y-137811247D01*
X122350113Y-137811247D02*
X122350113Y-137668390D01*
X122350113Y-137668390D02*
X122302494Y-137477914D01*
X122302494Y-137477914D02*
X122254875Y-137382676D01*
X122254875Y-137382676D02*
X122159637Y-137287438D01*
X122159637Y-137287438D02*
X122016780Y-137239819D01*
X122016780Y-137239819D02*
X121921542Y-137239819D01*
X121921542Y-137239819D02*
X121778685Y-137287438D01*
X121778685Y-137287438D02*
X121731066Y-137335057D01*
X120873923Y-137573152D02*
X120873923Y-138239819D01*
X121112018Y-137192200D02*
X121350113Y-137906485D01*
X121350113Y-137906485D02*
X120731066Y-137906485D01*
X77620410Y-135644980D02*
X77620410Y-136644980D01*
X78668028Y-135740219D02*
X78620409Y-135692600D01*
X78620409Y-135692600D02*
X78477552Y-135644980D01*
X78477552Y-135644980D02*
X78382314Y-135644980D01*
X78382314Y-135644980D02*
X78239457Y-135692600D01*
X78239457Y-135692600D02*
X78144219Y-135787838D01*
X78144219Y-135787838D02*
X78096600Y-135883076D01*
X78096600Y-135883076D02*
X78048981Y-136073552D01*
X78048981Y-136073552D02*
X78048981Y-136216409D01*
X78048981Y-136216409D02*
X78096600Y-136406885D01*
X78096600Y-136406885D02*
X78144219Y-136502123D01*
X78144219Y-136502123D02*
X78239457Y-136597361D01*
X78239457Y-136597361D02*
X78382314Y-136644980D01*
X78382314Y-136644980D02*
X78477552Y-136644980D01*
X78477552Y-136644980D02*
X78620409Y-136597361D01*
X78620409Y-136597361D02*
X78668028Y-136549742D01*
X79525171Y-136644980D02*
X79334695Y-136644980D01*
X79334695Y-136644980D02*
X79239457Y-136597361D01*
X79239457Y-136597361D02*
X79191838Y-136549742D01*
X79191838Y-136549742D02*
X79096600Y-136406885D01*
X79096600Y-136406885D02*
X79048981Y-136216409D01*
X79048981Y-136216409D02*
X79048981Y-135835457D01*
X79048981Y-135835457D02*
X79096600Y-135740219D01*
X79096600Y-135740219D02*
X79144219Y-135692600D01*
X79144219Y-135692600D02*
X79239457Y-135644980D01*
X79239457Y-135644980D02*
X79429933Y-135644980D01*
X79429933Y-135644980D02*
X79525171Y-135692600D01*
X79525171Y-135692600D02*
X79572790Y-135740219D01*
X79572790Y-135740219D02*
X79620409Y-135835457D01*
X79620409Y-135835457D02*
X79620409Y-136073552D01*
X79620409Y-136073552D02*
X79572790Y-136168790D01*
X79572790Y-136168790D02*
X79525171Y-136216409D01*
X79525171Y-136216409D02*
X79429933Y-136264028D01*
X79429933Y-136264028D02*
X79239457Y-136264028D01*
X79239457Y-136264028D02*
X79144219Y-136216409D01*
X79144219Y-136216409D02*
X79096600Y-136168790D01*
X79096600Y-136168790D02*
X79048981Y-136073552D01*
X68095410Y-135644980D02*
X68095410Y-136644980D01*
X69143028Y-135740219D02*
X69095409Y-135692600D01*
X69095409Y-135692600D02*
X68952552Y-135644980D01*
X68952552Y-135644980D02*
X68857314Y-135644980D01*
X68857314Y-135644980D02*
X68714457Y-135692600D01*
X68714457Y-135692600D02*
X68619219Y-135787838D01*
X68619219Y-135787838D02*
X68571600Y-135883076D01*
X68571600Y-135883076D02*
X68523981Y-136073552D01*
X68523981Y-136073552D02*
X68523981Y-136216409D01*
X68523981Y-136216409D02*
X68571600Y-136406885D01*
X68571600Y-136406885D02*
X68619219Y-136502123D01*
X68619219Y-136502123D02*
X68714457Y-136597361D01*
X68714457Y-136597361D02*
X68857314Y-136644980D01*
X68857314Y-136644980D02*
X68952552Y-136644980D01*
X68952552Y-136644980D02*
X69095409Y-136597361D01*
X69095409Y-136597361D02*
X69143028Y-136549742D01*
X69476362Y-136644980D02*
X70143028Y-136644980D01*
X70143028Y-136644980D02*
X69714457Y-135644980D01*
X70762219Y-138358142D02*
X70286028Y-138024809D01*
X70762219Y-137786714D02*
X69762219Y-137786714D01*
X69762219Y-137786714D02*
X69762219Y-138167666D01*
X69762219Y-138167666D02*
X69809838Y-138262904D01*
X69809838Y-138262904D02*
X69857457Y-138310523D01*
X69857457Y-138310523D02*
X69952695Y-138358142D01*
X69952695Y-138358142D02*
X70095552Y-138358142D01*
X70095552Y-138358142D02*
X70190790Y-138310523D01*
X70190790Y-138310523D02*
X70238409Y-138262904D01*
X70238409Y-138262904D02*
X70286028Y-138167666D01*
X70286028Y-138167666D02*
X70286028Y-137786714D01*
X70762219Y-139310523D02*
X70762219Y-138739095D01*
X70762219Y-139024809D02*
X69762219Y-139024809D01*
X69762219Y-139024809D02*
X69905076Y-138929571D01*
X69905076Y-138929571D02*
X70000314Y-138834333D01*
X70000314Y-138834333D02*
X70047933Y-138739095D01*
X70762219Y-140262904D02*
X70762219Y-139691476D01*
X70762219Y-139977190D02*
X69762219Y-139977190D01*
X69762219Y-139977190D02*
X69905076Y-139881952D01*
X69905076Y-139881952D02*
X70000314Y-139786714D01*
X70000314Y-139786714D02*
X70047933Y-139691476D01*
X106195410Y-135633980D02*
X106195410Y-136633980D01*
X107243028Y-135729219D02*
X107195409Y-135681600D01*
X107195409Y-135681600D02*
X107052552Y-135633980D01*
X107052552Y-135633980D02*
X106957314Y-135633980D01*
X106957314Y-135633980D02*
X106814457Y-135681600D01*
X106814457Y-135681600D02*
X106719219Y-135776838D01*
X106719219Y-135776838D02*
X106671600Y-135872076D01*
X106671600Y-135872076D02*
X106623981Y-136062552D01*
X106623981Y-136062552D02*
X106623981Y-136205409D01*
X106623981Y-136205409D02*
X106671600Y-136395885D01*
X106671600Y-136395885D02*
X106719219Y-136491123D01*
X106719219Y-136491123D02*
X106814457Y-136586361D01*
X106814457Y-136586361D02*
X106957314Y-136633980D01*
X106957314Y-136633980D02*
X107052552Y-136633980D01*
X107052552Y-136633980D02*
X107195409Y-136586361D01*
X107195409Y-136586361D02*
X107243028Y-136538742D01*
X107576362Y-136633980D02*
X108195409Y-136633980D01*
X108195409Y-136633980D02*
X107862076Y-136253028D01*
X107862076Y-136253028D02*
X108004933Y-136253028D01*
X108004933Y-136253028D02*
X108100171Y-136205409D01*
X108100171Y-136205409D02*
X108147790Y-136157790D01*
X108147790Y-136157790D02*
X108195409Y-136062552D01*
X108195409Y-136062552D02*
X108195409Y-135824457D01*
X108195409Y-135824457D02*
X108147790Y-135729219D01*
X108147790Y-135729219D02*
X108100171Y-135681600D01*
X108100171Y-135681600D02*
X108004933Y-135633980D01*
X108004933Y-135633980D02*
X107719219Y-135633980D01*
X107719219Y-135633980D02*
X107623981Y-135681600D01*
X107623981Y-135681600D02*
X107576362Y-135729219D01*
D11*
X119851700Y-138408142D02*
X119851700Y-138882658D01*
X118806700Y-138408142D02*
X118806700Y-138882658D01*
X81863620Y-135786400D02*
X82144780Y-135786400D01*
X81863620Y-136806400D02*
X82144780Y-136806400D01*
D10*
X94292600Y-131294600D02*
X94292600Y-131294600D01*
X94392600Y-131294600D02*
X94392600Y-131294600D01*
D12*
X96042600Y-131094600D02*
X98742600Y-131094600D01*
X96042600Y-134494600D02*
X98742600Y-134494600D01*
D10*
X94392600Y-131294600D02*
G75*
G03*
X94292600Y-131294600I-50000J0D01*
G01*
X94292600Y-131294600D02*
G75*
G03*
X94392600Y-131294600I50000J0D01*
G01*
D11*
X110336420Y-136091200D02*
X110617580Y-136091200D01*
X110336420Y-137111200D02*
X110617580Y-137111200D01*
X62813620Y-135837200D02*
X63094780Y-135837200D01*
X62813620Y-136857200D02*
X63094780Y-136857200D01*
X121192058Y-129808500D02*
X120717542Y-129808500D01*
X121192058Y-128763500D02*
X120717542Y-128763500D01*
X68543700Y-137950942D02*
X68543700Y-138425458D01*
X67498700Y-137950942D02*
X67498700Y-138425458D01*
D10*
X122867600Y-131305600D02*
X122867600Y-131305600D01*
X122967600Y-131305600D02*
X122967600Y-131305600D01*
D12*
X124617600Y-131105600D02*
X127317600Y-131105600D01*
X124617600Y-134505600D02*
X127317600Y-134505600D01*
D10*
X122967600Y-131305600D02*
G75*
G03*
X122867600Y-131305600I-50000J0D01*
G01*
X122867600Y-131305600D02*
G75*
G03*
X122967600Y-131305600I50000J0D01*
G01*
D11*
X108203980Y-145290000D02*
X107922820Y-145290000D01*
X108203980Y-144270000D02*
X107922820Y-144270000D01*
X108523300Y-138141942D02*
X108523300Y-138616458D01*
X107478300Y-138141942D02*
X107478300Y-138616458D01*
X128701220Y-135837200D02*
X128982380Y-135837200D01*
X128701220Y-136857200D02*
X128982380Y-136857200D01*
X74140400Y-144691100D02*
X74140400Y-145341100D01*
X74140400Y-144691100D02*
X74140400Y-144041100D01*
X77260400Y-144691100D02*
X77260400Y-146366100D01*
X77260400Y-144691100D02*
X77260400Y-144041100D01*
X125662458Y-139054100D02*
X125187942Y-139054100D01*
X125662458Y-138009100D02*
X125187942Y-138009100D01*
X98718900Y-138052542D02*
X98718900Y-138527058D01*
X97673900Y-138052542D02*
X97673900Y-138527058D01*
X51462000Y-137178800D02*
X51462000Y-130638800D01*
X51792000Y-137178800D02*
X51462000Y-137178800D01*
X53872000Y-137178800D02*
X54202000Y-137178800D01*
X54202000Y-137178800D02*
X54202000Y-130638800D01*
X51462000Y-130638800D02*
X51792000Y-130638800D01*
X54202000Y-130638800D02*
X53872000Y-130638800D01*
X65394100Y-138637742D02*
X65394100Y-139112258D01*
X64349100Y-138637742D02*
X64349100Y-139112258D01*
X81650100Y-138357342D02*
X81650100Y-138831858D01*
X80605100Y-138357342D02*
X80605100Y-138831858D01*
X108179180Y-143613600D02*
X107898020Y-143613600D01*
X108179180Y-142593600D02*
X107898020Y-142593600D01*
X102205058Y-129808500D02*
X101730542Y-129808500D01*
X102205058Y-128763500D02*
X101730542Y-128763500D01*
X89676500Y-138141942D02*
X89676500Y-138616458D01*
X88631500Y-138141942D02*
X88631500Y-138616458D01*
X91401020Y-135938800D02*
X91682180Y-135938800D01*
X91401020Y-136958800D02*
X91682180Y-136958800D01*
X83130658Y-129808500D02*
X82656142Y-129808500D01*
X83130658Y-128763500D02*
X82656142Y-128763500D01*
D10*
X113342600Y-131305600D02*
X113342600Y-131305600D01*
X113442600Y-131305600D02*
X113442600Y-131305600D01*
D12*
X115092600Y-131105600D02*
X117792600Y-131105600D01*
X115092600Y-134505600D02*
X117792600Y-134505600D01*
D10*
X113442600Y-131305600D02*
G75*
G03*
X113342600Y-131305600I-50000J0D01*
G01*
X113342600Y-131305600D02*
G75*
G03*
X113442600Y-131305600I50000J0D01*
G01*
D11*
X131065600Y-137128000D02*
X131065600Y-130588000D01*
X131395600Y-137128000D02*
X131065600Y-137128000D01*
X133475600Y-137128000D02*
X133805600Y-137128000D01*
X133805600Y-137128000D02*
X133805600Y-130588000D01*
X131065600Y-130588000D02*
X131395600Y-130588000D01*
X133805600Y-130588000D02*
X133475600Y-130588000D01*
X66918100Y-137926542D02*
X66918100Y-138401058D01*
X65873100Y-137926542D02*
X65873100Y-138401058D01*
D10*
X56192600Y-131305600D02*
X56192600Y-131305600D01*
X56292600Y-131305600D02*
X56292600Y-131305600D01*
D12*
X57942600Y-131105600D02*
X60642600Y-131105600D01*
X57942600Y-134505600D02*
X60642600Y-134505600D01*
D10*
X56292600Y-131305600D02*
G75*
G03*
X56192600Y-131305600I-50000J0D01*
G01*
X56192600Y-131305600D02*
G75*
G03*
X56292600Y-131305600I50000J0D01*
G01*
X84767600Y-131305600D02*
X84767600Y-131305600D01*
X84867600Y-131305600D02*
X84867600Y-131305600D01*
D12*
X86517600Y-131105600D02*
X89217600Y-131105600D01*
X86517600Y-134505600D02*
X89217600Y-134505600D01*
D10*
X84867600Y-131305600D02*
G75*
G03*
X84767600Y-131305600I-50000J0D01*
G01*
X84767600Y-131305600D02*
G75*
G03*
X84867600Y-131305600I50000J0D01*
G01*
D11*
X72351020Y-135938800D02*
X72632180Y-135938800D01*
X72351020Y-136958800D02*
X72632180Y-136958800D01*
X64029858Y-129808500D02*
X63555342Y-129808500D01*
X64029858Y-128763500D02*
X63555342Y-128763500D01*
X79922900Y-144605742D02*
X79922900Y-145080258D01*
X78877900Y-144605742D02*
X78877900Y-145080258D01*
X104465600Y-144880000D02*
X103665600Y-144880000D01*
X104465600Y-144580000D02*
X104465600Y-144880000D01*
X104465600Y-140710000D02*
X104465600Y-142760000D01*
X103695600Y-141060000D02*
X103695600Y-140710000D01*
X103695600Y-140710000D02*
X104465600Y-140710000D01*
X103665600Y-146180000D02*
X83845600Y-146180000D01*
X103665600Y-144880000D02*
X103665600Y-146180000D01*
X101715600Y-141060000D02*
X103695600Y-141060000D01*
X101715600Y-140470000D02*
X101715600Y-141060000D01*
X83845600Y-146180000D02*
X83845600Y-144880000D01*
X83845600Y-144880000D02*
X83045600Y-144880000D01*
X83815600Y-141060000D02*
X85795600Y-141060000D01*
X83815600Y-140710000D02*
X83815600Y-141060000D01*
X83045600Y-144880000D02*
X83045600Y-144580000D01*
X83045600Y-142760000D02*
X83045600Y-140710000D01*
X83045600Y-140710000D02*
X83815600Y-140710000D01*
X100964420Y-135888000D02*
X101245580Y-135888000D01*
X100964420Y-136908000D02*
X101245580Y-136908000D01*
X119963620Y-135837200D02*
X120244780Y-135837200D01*
X119963620Y-136857200D02*
X120244780Y-136857200D01*
D10*
X75242600Y-131305600D02*
X75242600Y-131305600D01*
X75342600Y-131305600D02*
X75342600Y-131305600D01*
D12*
X76992600Y-131105600D02*
X79692600Y-131105600D01*
X76992600Y-134505600D02*
X79692600Y-134505600D01*
D10*
X75342600Y-131305600D02*
G75*
G03*
X75242600Y-131305600I-50000J0D01*
G01*
X75242600Y-131305600D02*
G75*
G03*
X75342600Y-131305600I50000J0D01*
G01*
X65717600Y-131305600D02*
X65717600Y-131305600D01*
X65817600Y-131305600D02*
X65817600Y-131305600D01*
D12*
X67467600Y-131105600D02*
X70167600Y-131105600D01*
X67467600Y-134505600D02*
X70167600Y-134505600D01*
D10*
X65817600Y-131305600D02*
G75*
G03*
X65717600Y-131305600I-50000J0D01*
G01*
X65717600Y-131305600D02*
G75*
G03*
X65817600Y-131305600I50000J0D01*
G01*
D11*
X72252100Y-138763742D02*
X72252100Y-139238258D01*
X71207100Y-138763742D02*
X71207100Y-139238258D01*
D10*
X103817600Y-131294600D02*
X103817600Y-131294600D01*
X103917600Y-131294600D02*
X103917600Y-131294600D01*
D12*
X105567600Y-131094600D02*
X108267600Y-131094600D01*
X105567600Y-134494600D02*
X108267600Y-134494600D01*
D10*
X103917600Y-131294600D02*
G75*
G03*
X103817600Y-131294600I-50000J0D01*
G01*
X103817600Y-131294600D02*
G75*
G03*
X103917600Y-131294600I50000J0D01*
G01*
%LPC*%
D13*
X117776100Y-146795600D03*
X67484100Y-146795600D03*
D14*
X119329200Y-137820400D03*
X119329200Y-139470400D03*
D15*
X81229200Y-136296400D03*
X82779200Y-136296400D03*
D16*
X95242600Y-131894600D03*
X95242600Y-133694600D03*
X99542600Y-133694600D03*
X99542600Y-131894600D03*
D15*
X109702000Y-136601200D03*
X111252000Y-136601200D03*
X62179200Y-136347200D03*
X63729200Y-136347200D03*
D17*
X121779800Y-129286000D03*
X120129800Y-129286000D03*
D14*
X68021200Y-137363200D03*
X68021200Y-139013200D03*
D16*
X123817600Y-131905600D03*
X123817600Y-133705600D03*
X128117600Y-133705600D03*
X128117600Y-131905600D03*
D18*
X108838400Y-144780000D03*
X107288400Y-144780000D03*
D14*
X108000800Y-137554200D03*
X108000800Y-139204200D03*
D15*
X128066800Y-136347200D03*
X129616800Y-136347200D03*
D19*
X75700400Y-143753600D03*
X76650400Y-145628600D03*
X74750400Y-145628600D03*
D17*
X126250200Y-138531600D03*
X124600200Y-138531600D03*
D14*
X98196400Y-137464800D03*
X98196400Y-139114800D03*
D20*
X52832000Y-137718800D03*
D21*
X52832000Y-130098800D03*
D14*
X64871600Y-138050000D03*
X64871600Y-139700000D03*
X81127600Y-137769600D03*
X81127600Y-139419600D03*
D18*
X108813600Y-143103600D03*
X107263600Y-143103600D03*
D17*
X102792800Y-129286000D03*
X101142800Y-129286000D03*
D14*
X89154000Y-137554200D03*
X89154000Y-139204200D03*
D15*
X90766600Y-136448800D03*
X92316600Y-136448800D03*
D17*
X83718400Y-129286000D03*
X82068400Y-129286000D03*
D16*
X114292600Y-131905600D03*
X114292600Y-133705600D03*
X118592600Y-133705600D03*
X118592600Y-131905600D03*
D20*
X132435600Y-137668000D03*
D21*
X132435600Y-130048000D03*
D14*
X66395600Y-137338800D03*
X66395600Y-138988800D03*
D16*
X57142600Y-131905600D03*
X57142600Y-133705600D03*
X61442600Y-133705600D03*
X61442600Y-131905600D03*
X85717600Y-131905600D03*
X85717600Y-133705600D03*
X90017600Y-133705600D03*
X90017600Y-131905600D03*
D15*
X71716600Y-136448800D03*
X73266600Y-136448800D03*
D17*
X64617600Y-129286000D03*
X62967600Y-129286000D03*
D14*
X79400400Y-144018000D03*
X79400400Y-145668000D03*
D22*
X101255600Y-140970000D03*
X100255600Y-140970000D03*
X99255600Y-140970000D03*
X98255600Y-140970000D03*
X97255600Y-140970000D03*
X96255600Y-140970000D03*
X95255600Y-140970000D03*
X94255600Y-140970000D03*
X93255600Y-140970000D03*
X92255600Y-140970000D03*
X91255600Y-140970000D03*
X90255600Y-140970000D03*
X89255600Y-140970000D03*
X88255600Y-140970000D03*
X87255600Y-140970000D03*
X86255600Y-140970000D03*
D23*
X104055600Y-143670000D03*
X83455600Y-143670000D03*
D15*
X100330000Y-136398000D03*
X101880000Y-136398000D03*
X119329200Y-136347200D03*
X120879200Y-136347200D03*
D16*
X76192600Y-131905600D03*
X76192600Y-133705600D03*
X80492600Y-133705600D03*
X80492600Y-131905600D03*
X66667600Y-131905600D03*
X66667600Y-133705600D03*
X70967600Y-133705600D03*
X70967600Y-131905600D03*
D14*
X71729600Y-138176000D03*
X71729600Y-139826000D03*
D16*
X104767600Y-131894600D03*
X104767600Y-133694600D03*
X109067600Y-133694600D03*
X109067600Y-131894600D03*
M02*
