G04 #@! TF.GenerationSoftware,KiCad,Pcbnew,7.0.1*
G04 #@! TF.CreationDate,2023-11-28T21:46:24+01:00*
G04 #@! TF.ProjectId,Qtr-8-SN,5174722d-382d-4534-9e2e-6b696361645f,rev?*
G04 #@! TF.SameCoordinates,Original*
G04 #@! TF.FileFunction,Copper,L1,Top*
G04 #@! TF.FilePolarity,Positive*
%FSLAX46Y46*%
G04 Gerber Fmt 4.6, Leading zero omitted, Abs format (unit mm)*
G04 Created by KiCad (PCBNEW 7.0.1) date 2023-11-28 21:46:24*
%MOMM*%
%LPD*%
G01*
G04 APERTURE LIST*
G04 #@! TA.AperFunction,ComponentPad*
%ADD10C,1.600000*%
G04 #@! TD*
G04 #@! TA.AperFunction,ComponentPad*
%ADD11O,1.600000X1.600000*%
G04 #@! TD*
G04 #@! TA.AperFunction,ViaPad*
%ADD12C,0.700000*%
G04 #@! TD*
G04 #@! TA.AperFunction,ViaPad*
%ADD13C,0.550000*%
G04 #@! TD*
G04 #@! TA.AperFunction,Conductor*
%ADD14C,0.500000*%
G04 #@! TD*
G04 #@! TA.AperFunction,Conductor*
%ADD15C,0.450000*%
G04 #@! TD*
G04 #@! TA.AperFunction,Conductor*
%ADD16C,0.300000*%
G04 #@! TD*
G04 APERTURE END LIST*
D10*
X52832000Y-137718800D03*
D11*
X52832000Y-130098800D03*
D10*
X132435600Y-137668000D03*
D11*
X132435600Y-130048000D03*
D12*
X122631200Y-131876800D03*
X112471200Y-136652000D03*
X92329600Y-135077200D03*
X65604800Y-131905600D03*
D13*
X79400400Y-143169300D03*
D12*
X103073200Y-136194800D03*
X129616800Y-137464800D03*
X103715800Y-131894600D03*
X64820800Y-136347200D03*
X88255600Y-142595600D03*
X83820000Y-136296400D03*
X84654800Y-131905600D03*
X122072400Y-136347200D03*
X108813600Y-145948400D03*
X74168000Y-136194800D03*
X73863200Y-140512800D03*
X72898000Y-144932400D03*
X77571600Y-130505200D03*
X74676000Y-130505200D03*
D13*
X77978000Y-134874000D03*
X116027200Y-134874000D03*
X97078800Y-134823200D03*
X69748400Y-137363200D03*
X117297200Y-139700000D03*
X91846400Y-142646400D03*
X91084400Y-143103600D03*
X119176800Y-142290800D03*
X68732400Y-142544800D03*
X67056000Y-142544800D03*
X93522800Y-142138400D03*
X96266000Y-139293600D03*
X92506800Y-142087600D03*
X105410000Y-139141200D03*
D14*
X73456800Y-140919200D02*
X73863200Y-140512800D01*
X72898000Y-144932400D02*
X73456800Y-144373600D01*
X73456800Y-144373600D02*
X73456800Y-140919200D01*
D15*
X77571600Y-130505200D02*
X74676000Y-130505200D01*
D16*
X78740000Y-137414000D02*
X77978000Y-136652000D01*
X77978000Y-136652000D02*
X77978000Y-134874000D01*
X96672400Y-137414000D02*
X78740000Y-137414000D01*
X97078800Y-134823200D02*
X97078800Y-137007600D01*
X115620800Y-137464800D02*
X97536000Y-137464800D01*
X97078800Y-137007600D02*
X96672400Y-137414000D01*
X97536000Y-137464800D02*
X97078800Y-137007600D01*
X77266800Y-137363200D02*
X77978000Y-136652000D01*
X116027200Y-137058400D02*
X115620800Y-137464800D01*
X116027200Y-134874000D02*
X116027200Y-137058400D01*
X69748400Y-137363200D02*
X77266800Y-137363200D01*
X91846400Y-142748000D02*
X91846400Y-142646400D01*
X101193600Y-140817600D02*
X97434400Y-140817600D01*
X95707200Y-143510000D02*
X92608400Y-143510000D01*
X95910400Y-143306800D02*
X95707200Y-143510000D01*
X96875600Y-141376400D02*
X96875600Y-142290800D01*
X111302800Y-139700000D02*
X110591600Y-140411200D01*
X97434400Y-140817600D02*
X96875600Y-141376400D01*
X95910400Y-143256000D02*
X95910400Y-143306800D01*
X96875600Y-142290800D02*
X95910400Y-143256000D01*
X117297200Y-139700000D02*
X111302800Y-139700000D01*
X101600000Y-140411200D02*
X101193600Y-140817600D01*
X110591600Y-140411200D02*
X101600000Y-140411200D01*
X92608400Y-143510000D02*
X91846400Y-142748000D01*
X117906800Y-142290800D02*
X116933600Y-141317600D01*
X119176800Y-142290800D02*
X117906800Y-142290800D01*
X116933600Y-141317600D02*
X98306000Y-141317600D01*
X97586800Y-143256000D02*
X96832800Y-144010000D01*
X98306000Y-141317600D02*
X97586800Y-142036800D01*
X96832800Y-144010000D02*
X91990800Y-144010000D01*
X97586800Y-142036800D02*
X97586800Y-143256000D01*
X91990800Y-144010000D02*
X91084400Y-143103600D01*
X67056000Y-142544800D02*
X68732400Y-142544800D01*
X95656400Y-139903200D02*
X95656400Y-141732000D01*
X95250000Y-142138400D02*
X93522800Y-142138400D01*
X96266000Y-139293600D02*
X95656400Y-139903200D01*
X95656400Y-141732000D02*
X95250000Y-142138400D01*
X96156400Y-141939106D02*
X95332106Y-142763400D01*
X101041200Y-140004800D02*
X96875600Y-140004800D01*
X105410000Y-139141200D02*
X101904800Y-139141200D01*
X96875600Y-140004800D02*
X96156400Y-140724000D01*
X96156400Y-140724000D02*
X96156400Y-141939106D01*
X101904800Y-139141200D02*
X101041200Y-140004800D01*
X93182600Y-142763400D02*
X92506800Y-142087600D01*
X95332106Y-142763400D02*
X93182600Y-142763400D01*
G04 #@! TA.AperFunction,Conductor*
G36*
X133974519Y-127322479D02*
G01*
X134098246Y-127336420D01*
X134125310Y-127342597D01*
X134236224Y-127381408D01*
X134261232Y-127393451D01*
X134355668Y-127452788D01*
X134360726Y-127455966D01*
X134382436Y-127473279D01*
X134465520Y-127556363D01*
X134482833Y-127578073D01*
X134545346Y-127677563D01*
X134557393Y-127702579D01*
X134596201Y-127813485D01*
X134602380Y-127840556D01*
X134616320Y-127964276D01*
X134617100Y-127978160D01*
X134617100Y-138788640D01*
X134616320Y-138802524D01*
X134602380Y-138926243D01*
X134596201Y-138953314D01*
X134557393Y-139064220D01*
X134545346Y-139089236D01*
X134482833Y-139188726D01*
X134465520Y-139210436D01*
X134382436Y-139293520D01*
X134360726Y-139310833D01*
X134261236Y-139373346D01*
X134236220Y-139385393D01*
X134125314Y-139424201D01*
X134098243Y-139430380D01*
X134023373Y-139438816D01*
X133974521Y-139444320D01*
X133960640Y-139445100D01*
X124586937Y-139445100D01*
X124210428Y-139482182D01*
X123839382Y-139555988D01*
X123602729Y-139627776D01*
X123490462Y-139661832D01*
X123477338Y-139665813D01*
X123127810Y-139810592D01*
X122794161Y-139988931D01*
X122479592Y-140199119D01*
X122187141Y-140439128D01*
X121919628Y-140706641D01*
X121679619Y-140999092D01*
X121469431Y-141313661D01*
X121291092Y-141647310D01*
X121146313Y-141996838D01*
X121036488Y-142358882D01*
X120962682Y-142729928D01*
X120925600Y-143106437D01*
X120925600Y-146792244D01*
X120925418Y-146798958D01*
X120907500Y-147129411D01*
X120906048Y-147142758D01*
X120853053Y-147466013D01*
X120850167Y-147479125D01*
X120762533Y-147794760D01*
X120758246Y-147807484D01*
X120636997Y-148111796D01*
X120631364Y-148123971D01*
X120477913Y-148413411D01*
X120471002Y-148424897D01*
X120339250Y-148619216D01*
X120287170Y-148696028D01*
X120279045Y-148706716D01*
X120066974Y-148956385D01*
X120057741Y-148966132D01*
X119819929Y-149191400D01*
X119809696Y-149200092D01*
X119548906Y-149398340D01*
X119537793Y-149405875D01*
X119257110Y-149574756D01*
X119245247Y-149581045D01*
X118947956Y-149718586D01*
X118935484Y-149723556D01*
X118625050Y-149828154D01*
X118612112Y-149831746D01*
X118292197Y-149902164D01*
X118278948Y-149904336D01*
X117953295Y-149939754D01*
X117939888Y-149940481D01*
X117612312Y-149940481D01*
X117598905Y-149939754D01*
X117273251Y-149904336D01*
X117260002Y-149902164D01*
X116940087Y-149831746D01*
X116927149Y-149828154D01*
X116616715Y-149723556D01*
X116604243Y-149718586D01*
X116306952Y-149581045D01*
X116295089Y-149574756D01*
X116014401Y-149405872D01*
X116003293Y-149398340D01*
X115742503Y-149200092D01*
X115732270Y-149191400D01*
X115494458Y-148966132D01*
X115485225Y-148956385D01*
X115273154Y-148706716D01*
X115265036Y-148696037D01*
X115081188Y-148424883D01*
X115074293Y-148413425D01*
X114920827Y-148123956D01*
X114915207Y-148111807D01*
X114793948Y-147807470D01*
X114789670Y-147794774D01*
X114702031Y-147479124D01*
X114699146Y-147466013D01*
X114646151Y-147142758D01*
X114644699Y-147129411D01*
X114627534Y-146812844D01*
X114627776Y-146795886D01*
X114627800Y-146795599D01*
X116470631Y-146795599D01*
X116490464Y-147022289D01*
X116549361Y-147242097D01*
X116645532Y-147448335D01*
X116776053Y-147634740D01*
X116936959Y-147795646D01*
X117123364Y-147926167D01*
X117123365Y-147926167D01*
X117123366Y-147926168D01*
X117329604Y-148022339D01*
X117549408Y-148081235D01*
X117634361Y-148088667D01*
X117719314Y-148096100D01*
X117719316Y-148096100D01*
X117832884Y-148096100D01*
X117832886Y-148096100D01*
X117900847Y-148090154D01*
X118002792Y-148081235D01*
X118222596Y-148022339D01*
X118428834Y-147926168D01*
X118615239Y-147795647D01*
X118776147Y-147634739D01*
X118906668Y-147448334D01*
X119002839Y-147242096D01*
X119061735Y-147022292D01*
X119081568Y-146795600D01*
X119061735Y-146568908D01*
X119002839Y-146349104D01*
X118906668Y-146142866D01*
X118776147Y-145956461D01*
X118776146Y-145956459D01*
X118615240Y-145795553D01*
X118428835Y-145665032D01*
X118222597Y-145568861D01*
X118002789Y-145509964D01*
X117832886Y-145495100D01*
X117832884Y-145495100D01*
X117719316Y-145495100D01*
X117719314Y-145495100D01*
X117549410Y-145509964D01*
X117329602Y-145568861D01*
X117123364Y-145665032D01*
X116936959Y-145795553D01*
X116776053Y-145956459D01*
X116645532Y-146142864D01*
X116549361Y-146349102D01*
X116490464Y-146568910D01*
X116470631Y-146795599D01*
X114627800Y-146795599D01*
X114630265Y-146765859D01*
X114627333Y-146742344D01*
X114626600Y-146740088D01*
X114626600Y-146740086D01*
X114616294Y-146708368D01*
X114614288Y-146702193D01*
X114612013Y-146694313D01*
X114600752Y-146649842D01*
X114595556Y-146638985D01*
X114566574Y-146599096D01*
X114563082Y-146594030D01*
X114534272Y-146549932D01*
X114527030Y-146544670D01*
X114488420Y-146516618D01*
X114485194Y-146514191D01*
X114464900Y-146498396D01*
X114445226Y-146483083D01*
X114445225Y-146483082D01*
X114442868Y-146481248D01*
X114388073Y-146463443D01*
X114386130Y-146462794D01*
X114334589Y-146445100D01*
X114334588Y-146445100D01*
X71039614Y-146445100D01*
X70928586Y-146445100D01*
X70928583Y-146445100D01*
X70909416Y-146451327D01*
X70891514Y-146455703D01*
X70868720Y-146459506D01*
X70855340Y-146466748D01*
X70834646Y-146475622D01*
X70822991Y-146479409D01*
X70803501Y-146493569D01*
X70789640Y-146502302D01*
X70765843Y-146515180D01*
X70758213Y-146523469D01*
X70739878Y-146539795D01*
X70733169Y-146544669D01*
X70716696Y-146567342D01*
X70707612Y-146578434D01*
X70686616Y-146601242D01*
X70683682Y-146607931D01*
X70670454Y-146630989D01*
X70667909Y-146634492D01*
X70658030Y-146664896D01*
X70653655Y-146676386D01*
X70639626Y-146708367D01*
X70639352Y-146711682D01*
X70633709Y-146739749D01*
X70633600Y-146740085D01*
X70633600Y-146775976D01*
X70633177Y-146786214D01*
X70629131Y-146835049D01*
X70630626Y-146850434D01*
X70615500Y-147129410D01*
X70614048Y-147142758D01*
X70561053Y-147466013D01*
X70558167Y-147479125D01*
X70470533Y-147794760D01*
X70466246Y-147807484D01*
X70344997Y-148111796D01*
X70339364Y-148123971D01*
X70185913Y-148413411D01*
X70179002Y-148424897D01*
X70047250Y-148619216D01*
X69995170Y-148696028D01*
X69987045Y-148706716D01*
X69774974Y-148956385D01*
X69765741Y-148966132D01*
X69527929Y-149191400D01*
X69517696Y-149200092D01*
X69256906Y-149398340D01*
X69245793Y-149405875D01*
X68965110Y-149574756D01*
X68953247Y-149581045D01*
X68655956Y-149718586D01*
X68643484Y-149723556D01*
X68333050Y-149828154D01*
X68320112Y-149831746D01*
X68000197Y-149902164D01*
X67986948Y-149904336D01*
X67661295Y-149939754D01*
X67647888Y-149940481D01*
X67320312Y-149940481D01*
X67306905Y-149939754D01*
X66981251Y-149904336D01*
X66968002Y-149902164D01*
X66648087Y-149831746D01*
X66635149Y-149828154D01*
X66324715Y-149723556D01*
X66312243Y-149718586D01*
X66014952Y-149581045D01*
X66003089Y-149574756D01*
X65722401Y-149405872D01*
X65711293Y-149398340D01*
X65450503Y-149200092D01*
X65440270Y-149191400D01*
X65202458Y-148966132D01*
X65193225Y-148956385D01*
X64981154Y-148706716D01*
X64973036Y-148696037D01*
X64789188Y-148424883D01*
X64782293Y-148413425D01*
X64628827Y-148123956D01*
X64623207Y-148111807D01*
X64501948Y-147807470D01*
X64497670Y-147794774D01*
X64410031Y-147479124D01*
X64407146Y-147466013D01*
X64354151Y-147142758D01*
X64352699Y-147129410D01*
X64334782Y-146798957D01*
X64334691Y-146795599D01*
X66178631Y-146795599D01*
X66198464Y-147022289D01*
X66257361Y-147242097D01*
X66353532Y-147448335D01*
X66484053Y-147634740D01*
X66644959Y-147795646D01*
X66831364Y-147926167D01*
X66831365Y-147926167D01*
X66831366Y-147926168D01*
X67037604Y-148022339D01*
X67257408Y-148081235D01*
X67342361Y-148088667D01*
X67427314Y-148096100D01*
X67427316Y-148096100D01*
X67540884Y-148096100D01*
X67540886Y-148096100D01*
X67608847Y-148090154D01*
X67710792Y-148081235D01*
X67930596Y-148022339D01*
X68136834Y-147926168D01*
X68323239Y-147795647D01*
X68484147Y-147634739D01*
X68614668Y-147448334D01*
X68710839Y-147242096D01*
X68769735Y-147022292D01*
X68789568Y-146795600D01*
X68769735Y-146568908D01*
X68710839Y-146349104D01*
X68614668Y-146142866D01*
X68484147Y-145956461D01*
X68484146Y-145956459D01*
X68323240Y-145795553D01*
X68136835Y-145665032D01*
X67930597Y-145568861D01*
X67710789Y-145509964D01*
X67540886Y-145495100D01*
X67540884Y-145495100D01*
X67427316Y-145495100D01*
X67427314Y-145495100D01*
X67257410Y-145509964D01*
X67037602Y-145568861D01*
X66831364Y-145665032D01*
X66644959Y-145795553D01*
X66484053Y-145956459D01*
X66353532Y-146142864D01*
X66257361Y-146349102D01*
X66198464Y-146568910D01*
X66178631Y-146795599D01*
X64334691Y-146795599D01*
X64334600Y-146792244D01*
X64334600Y-144932400D01*
X72042815Y-144932400D01*
X72061503Y-145110204D01*
X72116749Y-145280235D01*
X72206140Y-145435065D01*
X72325771Y-145567927D01*
X72470403Y-145673010D01*
X72633735Y-145745730D01*
X72808607Y-145782900D01*
X72808609Y-145782900D01*
X72987391Y-145782900D01*
X72987393Y-145782900D01*
X73162264Y-145745730D01*
X73162265Y-145745729D01*
X73162267Y-145745729D01*
X73325593Y-145673012D01*
X73336577Y-145665032D01*
X73366659Y-145643174D01*
X73470230Y-145567926D01*
X73589859Y-145435065D01*
X73679250Y-145280235D01*
X73702643Y-145208236D01*
X73732892Y-145158874D01*
X73942441Y-144949324D01*
X73956060Y-144937554D01*
X73975330Y-144923210D01*
X74007184Y-144885247D01*
X74014471Y-144877294D01*
X74018391Y-144873376D01*
X74037620Y-144849054D01*
X74039877Y-144846285D01*
X74088102Y-144788814D01*
X74088103Y-144788811D01*
X74088915Y-144787844D01*
X74099373Y-144771428D01*
X74099907Y-144770280D01*
X74099911Y-144770277D01*
X74131645Y-144702221D01*
X74133171Y-144699070D01*
X74166840Y-144632033D01*
X74166840Y-144632031D01*
X74167409Y-144630899D01*
X74173802Y-144612506D01*
X74189231Y-144537784D01*
X74190012Y-144534260D01*
X74195953Y-144509197D01*
X74207300Y-144461321D01*
X74207591Y-144460093D01*
X74209570Y-144440720D01*
X74209533Y-144439458D01*
X74209534Y-144439455D01*
X74207352Y-144364468D01*
X74207300Y-144360862D01*
X74207300Y-143103600D01*
X90303992Y-143103600D01*
X90323558Y-143277257D01*
X90381277Y-143442206D01*
X90474252Y-143590176D01*
X90597823Y-143713747D01*
X90745793Y-143806722D01*
X90906415Y-143862927D01*
X90953141Y-143892287D01*
X91470364Y-144409510D01*
X91483712Y-144426169D01*
X91536631Y-144475864D01*
X91539428Y-144478575D01*
X91559761Y-144498908D01*
X91563242Y-144501608D01*
X91572125Y-144509194D01*
X91605407Y-144540448D01*
X91616051Y-144546299D01*
X91624004Y-144550672D01*
X91640264Y-144561352D01*
X91657036Y-144574362D01*
X91698940Y-144592495D01*
X91709420Y-144597629D01*
X91749432Y-144619627D01*
X91769995Y-144624906D01*
X91788398Y-144631207D01*
X91807873Y-144639635D01*
X91852975Y-144646778D01*
X91864370Y-144649137D01*
X91908623Y-144660500D01*
X91929851Y-144660500D01*
X91949249Y-144662026D01*
X91970205Y-144665346D01*
X92015651Y-144661050D01*
X92027321Y-144660500D01*
X96747295Y-144660500D01*
X96768504Y-144662841D01*
X96771094Y-144662759D01*
X96771096Y-144662760D01*
X96841062Y-144660560D01*
X96844957Y-144660500D01*
X96873720Y-144660500D01*
X96873725Y-144660500D01*
X96878102Y-144659946D01*
X96889741Y-144659030D01*
X96935369Y-144657597D01*
X96955749Y-144651675D01*
X96974789Y-144647732D01*
X96995858Y-144645071D01*
X97038320Y-144628258D01*
X97049357Y-144624480D01*
X97093198Y-144611744D01*
X97111470Y-144600936D01*
X97128936Y-144592380D01*
X97148671Y-144584568D01*
X97185616Y-144557725D01*
X97195348Y-144551332D01*
X97234665Y-144528081D01*
X97249674Y-144513071D01*
X97264463Y-144500439D01*
X97281637Y-144487963D01*
X97310746Y-144452774D01*
X97318590Y-144444154D01*
X97986313Y-143776431D01*
X98002962Y-143763094D01*
X98004736Y-143761204D01*
X98004740Y-143761202D01*
X98052698Y-143710130D01*
X98055346Y-143707398D01*
X98075711Y-143687035D01*
X98078411Y-143683552D01*
X98085987Y-143674681D01*
X98117248Y-143641393D01*
X98127475Y-143622787D01*
X98138148Y-143606539D01*
X98151162Y-143589764D01*
X98169291Y-143547868D01*
X98174431Y-143537377D01*
X98196427Y-143497368D01*
X98201706Y-143476805D01*
X98208004Y-143458406D01*
X98216435Y-143438926D01*
X98223577Y-143393824D01*
X98225945Y-143382397D01*
X98237300Y-143338178D01*
X98237300Y-143316955D01*
X98238827Y-143297556D01*
X98239137Y-143295600D01*
X98242147Y-143276595D01*
X98237850Y-143231139D01*
X98237300Y-143219470D01*
X98237300Y-142357608D01*
X98246739Y-142310155D01*
X98273619Y-142269927D01*
X98539127Y-142004419D01*
X98579355Y-141977539D01*
X98626808Y-141968100D01*
X116612792Y-141968100D01*
X116660245Y-141977539D01*
X116700473Y-142004419D01*
X117386364Y-142690310D01*
X117399712Y-142706969D01*
X117452631Y-142756664D01*
X117455428Y-142759375D01*
X117475762Y-142779709D01*
X117479243Y-142782409D01*
X117488126Y-142789995D01*
X117521407Y-142821248D01*
X117539998Y-142831468D01*
X117556262Y-142842151D01*
X117573035Y-142855162D01*
X117614938Y-142873295D01*
X117625426Y-142878433D01*
X117665432Y-142900427D01*
X117685997Y-142905706D01*
X117704393Y-142912005D01*
X117723874Y-142920436D01*
X117768978Y-142927579D01*
X117780397Y-142929944D01*
X117824623Y-142941300D01*
X117845845Y-142941300D01*
X117865243Y-142942826D01*
X117886205Y-142946147D01*
X117931663Y-142941849D01*
X117943331Y-142941300D01*
X118718722Y-142941300D01*
X118784693Y-142960306D01*
X118838193Y-142993922D01*
X119003142Y-143051641D01*
X119176800Y-143071207D01*
X119350457Y-143051641D01*
X119515406Y-142993922D01*
X119663376Y-142900947D01*
X119786947Y-142777376D01*
X119879922Y-142629406D01*
X119937641Y-142464457D01*
X119957207Y-142290800D01*
X119937641Y-142117143D01*
X119901753Y-142014583D01*
X119879922Y-141952193D01*
X119786947Y-141804223D01*
X119663376Y-141680652D01*
X119515406Y-141587677D01*
X119350457Y-141529958D01*
X119176800Y-141510392D01*
X119003142Y-141529958D01*
X118838193Y-141587677D01*
X118784693Y-141621294D01*
X118718722Y-141640300D01*
X118227608Y-141640300D01*
X118180155Y-141630861D01*
X118139927Y-141603981D01*
X117454034Y-140918088D01*
X117440691Y-140901433D01*
X117387766Y-140851734D01*
X117384969Y-140849023D01*
X117364634Y-140828688D01*
X117361147Y-140825983D01*
X117352271Y-140818401D01*
X117318994Y-140787152D01*
X117300393Y-140776926D01*
X117284132Y-140766245D01*
X117274154Y-140758505D01*
X117267364Y-140753238D01*
X117225470Y-140735108D01*
X117214985Y-140729972D01*
X117174968Y-140707973D01*
X117174967Y-140707972D01*
X117172312Y-140706513D01*
X117124312Y-140659239D01*
X117108115Y-140593844D01*
X117128502Y-140529632D01*
X117179455Y-140485558D01*
X117245934Y-140474631D01*
X117297200Y-140480407D01*
X117470857Y-140460841D01*
X117635806Y-140403122D01*
X117783776Y-140310147D01*
X117907347Y-140186576D01*
X118000322Y-140038606D01*
X118058041Y-139873657D01*
X118077607Y-139700000D01*
X118070083Y-139633222D01*
X118058041Y-139526342D01*
X118000322Y-139361393D01*
X117907347Y-139213423D01*
X117783776Y-139089852D01*
X117635806Y-138996877D01*
X117470857Y-138939158D01*
X117297200Y-138919592D01*
X117123542Y-138939158D01*
X116958593Y-138996877D01*
X116905093Y-139030494D01*
X116839122Y-139049500D01*
X111388305Y-139049500D01*
X111367094Y-139047158D01*
X111294524Y-139049439D01*
X111290629Y-139049500D01*
X111261874Y-139049500D01*
X111257501Y-139050052D01*
X111245869Y-139050967D01*
X111200228Y-139052401D01*
X111179841Y-139058324D01*
X111160798Y-139062268D01*
X111139742Y-139064928D01*
X111097296Y-139081733D01*
X111086250Y-139085514D01*
X111042402Y-139098254D01*
X111024124Y-139109063D01*
X111006661Y-139117618D01*
X110986930Y-139125431D01*
X110949987Y-139152270D01*
X110940228Y-139158680D01*
X110900935Y-139181918D01*
X110885925Y-139196928D01*
X110871136Y-139209558D01*
X110853964Y-139222034D01*
X110824857Y-139257218D01*
X110816996Y-139265856D01*
X110358473Y-139724381D01*
X110318245Y-139751261D01*
X110270792Y-139760700D01*
X106160986Y-139760700D01*
X106097985Y-139743503D01*
X106052458Y-139696681D01*
X106037035Y-139633222D01*
X106055992Y-139570728D01*
X106056804Y-139569436D01*
X106113122Y-139479806D01*
X106170841Y-139314857D01*
X106190407Y-139141200D01*
X106180068Y-139049439D01*
X106170841Y-138967542D01*
X106113122Y-138802593D01*
X106020147Y-138654623D01*
X105896576Y-138531052D01*
X105748606Y-138438077D01*
X105583657Y-138380358D01*
X105425333Y-138362520D01*
X105410000Y-138356667D01*
X105394667Y-138362520D01*
X105236342Y-138380358D01*
X105071393Y-138438077D01*
X105017893Y-138471694D01*
X104951922Y-138490700D01*
X101990305Y-138490700D01*
X101969094Y-138488358D01*
X101896524Y-138490639D01*
X101892629Y-138490700D01*
X101863874Y-138490700D01*
X101859501Y-138491252D01*
X101847869Y-138492167D01*
X101802228Y-138493601D01*
X101781843Y-138499524D01*
X101762794Y-138503469D01*
X101741743Y-138506128D01*
X101699289Y-138522936D01*
X101688243Y-138526718D01*
X101644399Y-138539456D01*
X101626130Y-138550261D01*
X101608662Y-138558818D01*
X101597263Y-138563332D01*
X101588926Y-138566633D01*
X101551991Y-138593466D01*
X101542235Y-138599875D01*
X101502935Y-138623118D01*
X101487925Y-138638128D01*
X101473136Y-138650758D01*
X101455964Y-138663234D01*
X101426857Y-138698418D01*
X101418996Y-138707056D01*
X100808073Y-139317981D01*
X100767845Y-139344861D01*
X100720392Y-139354300D01*
X97164060Y-139354300D01*
X97106119Y-139339930D01*
X97061606Y-139300152D01*
X97040840Y-139244184D01*
X97026841Y-139119942D01*
X96969122Y-138954993D01*
X96876147Y-138807023D01*
X96752576Y-138683452D01*
X96604606Y-138590477D01*
X96439657Y-138532758D01*
X96266000Y-138513192D01*
X96092342Y-138532758D01*
X95927393Y-138590477D01*
X95779423Y-138683452D01*
X95655852Y-138807023D01*
X95562878Y-138954992D01*
X95506673Y-139115614D01*
X95477313Y-139162339D01*
X95256884Y-139382768D01*
X95240231Y-139396110D01*
X95190533Y-139449033D01*
X95187827Y-139451826D01*
X95167483Y-139472171D01*
X95164776Y-139475660D01*
X95157207Y-139484521D01*
X95125951Y-139517807D01*
X95115722Y-139536412D01*
X95105045Y-139552667D01*
X95092036Y-139569438D01*
X95073906Y-139611332D01*
X95068770Y-139621816D01*
X95046772Y-139661832D01*
X95041491Y-139682399D01*
X95035191Y-139700800D01*
X95026764Y-139720274D01*
X95019623Y-139765361D01*
X95017255Y-139776793D01*
X95008579Y-139810591D01*
X95005900Y-139821024D01*
X95005900Y-139842245D01*
X95004373Y-139861644D01*
X95001053Y-139882603D01*
X95005350Y-139928061D01*
X95005900Y-139939730D01*
X95005900Y-141363900D01*
X94989287Y-141425900D01*
X94943900Y-141471287D01*
X94881900Y-141487900D01*
X93980878Y-141487900D01*
X93914907Y-141468894D01*
X93861406Y-141435277D01*
X93696457Y-141377558D01*
X93522800Y-141357992D01*
X93349142Y-141377558D01*
X93184194Y-141435277D01*
X93121194Y-141474862D01*
X93055224Y-141493867D01*
X92989253Y-141474861D01*
X92845406Y-141384477D01*
X92680457Y-141326758D01*
X92506800Y-141307192D01*
X92333142Y-141326758D01*
X92168193Y-141384477D01*
X92020223Y-141477452D01*
X91896652Y-141601023D01*
X91803678Y-141748992D01*
X91785036Y-141802266D01*
X91745307Y-141858256D01*
X91681881Y-141884529D01*
X91672742Y-141885558D01*
X91507793Y-141943277D01*
X91359823Y-142036252D01*
X91236254Y-142159821D01*
X91169121Y-142266664D01*
X91130099Y-142305686D01*
X91078011Y-142323912D01*
X90910742Y-142342758D01*
X90745793Y-142400477D01*
X90597823Y-142493452D01*
X90474252Y-142617023D01*
X90381277Y-142764993D01*
X90323558Y-142929942D01*
X90303992Y-143103600D01*
X74207300Y-143103600D01*
X74207300Y-141371112D01*
X74216330Y-141324660D01*
X74242103Y-141284973D01*
X74280865Y-141257831D01*
X74290793Y-141253412D01*
X74435430Y-141148326D01*
X74555059Y-141015465D01*
X74644450Y-140860635D01*
X74699697Y-140690603D01*
X74718385Y-140512800D01*
X74699697Y-140334997D01*
X74660683Y-140214924D01*
X74644450Y-140164964D01*
X74555059Y-140010134D01*
X74435428Y-139877272D01*
X74290796Y-139772189D01*
X74127464Y-139699469D01*
X73952593Y-139662300D01*
X73952591Y-139662300D01*
X73773809Y-139662300D01*
X73773807Y-139662300D01*
X73598935Y-139699469D01*
X73435608Y-139772187D01*
X73290968Y-139877274D01*
X73171340Y-140010134D01*
X73081950Y-140164963D01*
X73058556Y-140236961D01*
X73028306Y-140286323D01*
X72971155Y-140343474D01*
X72957524Y-140355254D01*
X72938269Y-140369589D01*
X72906433Y-140407529D01*
X72899141Y-140415489D01*
X72895208Y-140419422D01*
X72875976Y-140443745D01*
X72873702Y-140446537D01*
X72824694Y-140504944D01*
X72814218Y-140521387D01*
X72781992Y-140590494D01*
X72780422Y-140593736D01*
X72746193Y-140661892D01*
X72739796Y-140680298D01*
X72724373Y-140754988D01*
X72723593Y-140758505D01*
X72706008Y-140832705D01*
X72704029Y-140852078D01*
X72706248Y-140928331D01*
X72706300Y-140931937D01*
X72706300Y-144006236D01*
X72697271Y-144052687D01*
X72671498Y-144092374D01*
X72632737Y-144119514D01*
X72581758Y-144142211D01*
X72470407Y-144191787D01*
X72325768Y-144296874D01*
X72206140Y-144429734D01*
X72116749Y-144584564D01*
X72061503Y-144754595D01*
X72042815Y-144932400D01*
X64334600Y-144932400D01*
X64334600Y-143106437D01*
X64323518Y-142993922D01*
X64297518Y-142729933D01*
X64260692Y-142544799D01*
X66275592Y-142544799D01*
X66295158Y-142718457D01*
X66352877Y-142883406D01*
X66445852Y-143031376D01*
X66569423Y-143154947D01*
X66717393Y-143247922D01*
X66882342Y-143305641D01*
X67056000Y-143325207D01*
X67229657Y-143305641D01*
X67394606Y-143247922D01*
X67411810Y-143237112D01*
X67448107Y-143214306D01*
X67514078Y-143195300D01*
X68274322Y-143195300D01*
X68340293Y-143214306D01*
X68393793Y-143247922D01*
X68558742Y-143305641D01*
X68732400Y-143325207D01*
X68906057Y-143305641D01*
X69071006Y-143247922D01*
X69218976Y-143154947D01*
X69342547Y-143031376D01*
X69435522Y-142883406D01*
X69493241Y-142718457D01*
X69512807Y-142544800D01*
X69493241Y-142371143D01*
X69478491Y-142328991D01*
X69435522Y-142206193D01*
X69342547Y-142058223D01*
X69218976Y-141934652D01*
X69071006Y-141841677D01*
X68906057Y-141783958D01*
X68732400Y-141764392D01*
X68558742Y-141783958D01*
X68393793Y-141841677D01*
X68340293Y-141875294D01*
X68274322Y-141894300D01*
X67514078Y-141894300D01*
X67448107Y-141875294D01*
X67394606Y-141841677D01*
X67229657Y-141783958D01*
X67056000Y-141764392D01*
X66882342Y-141783958D01*
X66717393Y-141841677D01*
X66569423Y-141934652D01*
X66445852Y-142058223D01*
X66352877Y-142206193D01*
X66295158Y-142371142D01*
X66275592Y-142544799D01*
X64260692Y-142544799D01*
X64223710Y-142358876D01*
X64113888Y-141996841D01*
X63969109Y-141647314D01*
X63945947Y-141603981D01*
X63790768Y-141313661D01*
X63580580Y-140999092D01*
X63340571Y-140706641D01*
X63073058Y-140439128D01*
X62780607Y-140199119D01*
X62466038Y-139988931D01*
X62132389Y-139810592D01*
X61857383Y-139696681D01*
X61782859Y-139665812D01*
X61420824Y-139555990D01*
X61420822Y-139555989D01*
X61420817Y-139555988D01*
X61049771Y-139482182D01*
X60673263Y-139445100D01*
X60542588Y-139445100D01*
X58225407Y-139445100D01*
X58224718Y-139444985D01*
X58146319Y-139445100D01*
X58107900Y-139445100D01*
X58107214Y-139445156D01*
X51299647Y-139455088D01*
X51285584Y-139454308D01*
X51161957Y-139440380D01*
X51134884Y-139434201D01*
X51123964Y-139430380D01*
X51059234Y-139407729D01*
X51023979Y-139395393D01*
X50998963Y-139383346D01*
X50899473Y-139320833D01*
X50877763Y-139303520D01*
X50794679Y-139220436D01*
X50777366Y-139198726D01*
X50752204Y-139158680D01*
X50714851Y-139099232D01*
X50702808Y-139074224D01*
X50663997Y-138963310D01*
X50657820Y-138936246D01*
X50643879Y-138812522D01*
X50643100Y-138798640D01*
X50643100Y-137718799D01*
X51526531Y-137718799D01*
X51546364Y-137945489D01*
X51605261Y-138165297D01*
X51701432Y-138371535D01*
X51831953Y-138557940D01*
X51992859Y-138718846D01*
X52179264Y-138849367D01*
X52179265Y-138849367D01*
X52179266Y-138849368D01*
X52385504Y-138945539D01*
X52605308Y-139004435D01*
X52832000Y-139024268D01*
X53058692Y-139004435D01*
X53278496Y-138945539D01*
X53484734Y-138849368D01*
X53671139Y-138718847D01*
X53832047Y-138557939D01*
X53962568Y-138371534D01*
X54058739Y-138165296D01*
X54117635Y-137945492D01*
X54137468Y-137718800D01*
X54133023Y-137667999D01*
X54124620Y-137571945D01*
X54117635Y-137492108D01*
X54083094Y-137363200D01*
X68967992Y-137363200D01*
X68987558Y-137536857D01*
X69045277Y-137701806D01*
X69138252Y-137849776D01*
X69261823Y-137973347D01*
X69409793Y-138066322D01*
X69574742Y-138124041D01*
X69748400Y-138143607D01*
X69922057Y-138124041D01*
X70087006Y-138066322D01*
X70087006Y-138066321D01*
X70140507Y-138032706D01*
X70206478Y-138013700D01*
X77181295Y-138013700D01*
X77202504Y-138016041D01*
X77205094Y-138015959D01*
X77205096Y-138015960D01*
X77275062Y-138013760D01*
X77278957Y-138013700D01*
X77307720Y-138013700D01*
X77307725Y-138013700D01*
X77312102Y-138013146D01*
X77323741Y-138012230D01*
X77369369Y-138010797D01*
X77389749Y-138004875D01*
X77408789Y-138000932D01*
X77429858Y-137998271D01*
X77472320Y-137981458D01*
X77483357Y-137977680D01*
X77527198Y-137964944D01*
X77545470Y-137954136D01*
X77562936Y-137945580D01*
X77582671Y-137937768D01*
X77619616Y-137910925D01*
X77629348Y-137904532D01*
X77668665Y-137881281D01*
X77683674Y-137866271D01*
X77698463Y-137853639D01*
X77715637Y-137841163D01*
X77744746Y-137805974D01*
X77752580Y-137797364D01*
X77890321Y-137659623D01*
X77945907Y-137627532D01*
X78010094Y-137627532D01*
X78065681Y-137659626D01*
X78219564Y-137813509D01*
X78232909Y-137830167D01*
X78285848Y-137879879D01*
X78288645Y-137882590D01*
X78308966Y-137902911D01*
X78311042Y-137904521D01*
X78312442Y-137905607D01*
X78321320Y-137913190D01*
X78354607Y-137944448D01*
X78373212Y-137954676D01*
X78389466Y-137965353D01*
X78406237Y-137978363D01*
X78448144Y-137996497D01*
X78458618Y-138001628D01*
X78498632Y-138023627D01*
X78519197Y-138028906D01*
X78537593Y-138035205D01*
X78557074Y-138043636D01*
X78602178Y-138050779D01*
X78613597Y-138053144D01*
X78657823Y-138064500D01*
X78679045Y-138064500D01*
X78698443Y-138066026D01*
X78719405Y-138069347D01*
X78761319Y-138065384D01*
X78764861Y-138065050D01*
X78776530Y-138064500D01*
X96586895Y-138064500D01*
X96608104Y-138066841D01*
X96610694Y-138066759D01*
X96610696Y-138066760D01*
X96680662Y-138064560D01*
X96684557Y-138064500D01*
X96713320Y-138064500D01*
X96713325Y-138064500D01*
X96717702Y-138063946D01*
X96729341Y-138063030D01*
X96774969Y-138061597D01*
X96795349Y-138055675D01*
X96814389Y-138051732D01*
X96835458Y-138049071D01*
X96877920Y-138032258D01*
X96888957Y-138028480D01*
X96932798Y-138015744D01*
X96951070Y-138004936D01*
X96968536Y-137996380D01*
X96988271Y-137988568D01*
X96992794Y-137985281D01*
X97044999Y-137963336D01*
X97101520Y-137966892D01*
X97150564Y-137995208D01*
X97150607Y-137995248D01*
X97150609Y-137995249D01*
X97169204Y-138005472D01*
X97185464Y-138016152D01*
X97202236Y-138029162D01*
X97244140Y-138047295D01*
X97254620Y-138052429D01*
X97294632Y-138074427D01*
X97315195Y-138079706D01*
X97333598Y-138086007D01*
X97353073Y-138094435D01*
X97398170Y-138101577D01*
X97409589Y-138103942D01*
X97453823Y-138115300D01*
X97475050Y-138115300D01*
X97494448Y-138116826D01*
X97515404Y-138120146D01*
X97560852Y-138115849D01*
X97572520Y-138115300D01*
X105380783Y-138115300D01*
X105410000Y-138122836D01*
X105439217Y-138115300D01*
X115535295Y-138115300D01*
X115556504Y-138117641D01*
X115559094Y-138117559D01*
X115559096Y-138117560D01*
X115629062Y-138115360D01*
X115632957Y-138115300D01*
X115661720Y-138115300D01*
X115661725Y-138115300D01*
X115666102Y-138114746D01*
X115677741Y-138113830D01*
X115723369Y-138112397D01*
X115743749Y-138106475D01*
X115762789Y-138102532D01*
X115783858Y-138099871D01*
X115826320Y-138083058D01*
X115837357Y-138079280D01*
X115881198Y-138066544D01*
X115899470Y-138055736D01*
X115916936Y-138047180D01*
X115936671Y-138039368D01*
X115973616Y-138012525D01*
X115983348Y-138006132D01*
X116022665Y-137982881D01*
X116037674Y-137967871D01*
X116052463Y-137955239D01*
X116069637Y-137942763D01*
X116098746Y-137907574D01*
X116106590Y-137898954D01*
X116337545Y-137667999D01*
X131130131Y-137667999D01*
X131149964Y-137894689D01*
X131208861Y-138114497D01*
X131305032Y-138320735D01*
X131435553Y-138507140D01*
X131596459Y-138668046D01*
X131782864Y-138798567D01*
X131782865Y-138798567D01*
X131782866Y-138798568D01*
X131989104Y-138894739D01*
X132208908Y-138953635D01*
X132435600Y-138973468D01*
X132662292Y-138953635D01*
X132882096Y-138894739D01*
X133088334Y-138798568D01*
X133274739Y-138668047D01*
X133435647Y-138507139D01*
X133566168Y-138320734D01*
X133662339Y-138114496D01*
X133721235Y-137894692D01*
X133741068Y-137668000D01*
X133721235Y-137441308D01*
X133662339Y-137221504D01*
X133566168Y-137015266D01*
X133471217Y-136879661D01*
X133435646Y-136828859D01*
X133274740Y-136667953D01*
X133088335Y-136537432D01*
X132882097Y-136441261D01*
X132662289Y-136382364D01*
X132435600Y-136362531D01*
X132208910Y-136382364D01*
X131989102Y-136441261D01*
X131782864Y-136537432D01*
X131596459Y-136667953D01*
X131435553Y-136828859D01*
X131305032Y-137015264D01*
X131208861Y-137221502D01*
X131149964Y-137441310D01*
X131130131Y-137667999D01*
X116337545Y-137667999D01*
X116426713Y-137578831D01*
X116443362Y-137565494D01*
X116445136Y-137563604D01*
X116445140Y-137563602D01*
X116493098Y-137512530D01*
X116495746Y-137509798D01*
X116516111Y-137489435D01*
X116518811Y-137485952D01*
X116526387Y-137477081D01*
X116557648Y-137443793D01*
X116567875Y-137425187D01*
X116578548Y-137408939D01*
X116591562Y-137392164D01*
X116609695Y-137350257D01*
X116614825Y-137339787D01*
X116636827Y-137299768D01*
X116642103Y-137279213D01*
X116648406Y-137260802D01*
X116656835Y-137241327D01*
X116663977Y-137196225D01*
X116666340Y-137184818D01*
X116677700Y-137140577D01*
X116677700Y-137119349D01*
X116679227Y-137099950D01*
X116682546Y-137078995D01*
X116678250Y-137033548D01*
X116677700Y-137021879D01*
X116677700Y-135332078D01*
X116696706Y-135266107D01*
X116730322Y-135212606D01*
X116788041Y-135047657D01*
X116807607Y-134874000D01*
X116788041Y-134700342D01*
X116730322Y-134535393D01*
X116637347Y-134387423D01*
X116513776Y-134263852D01*
X116365806Y-134170877D01*
X116200857Y-134113158D01*
X116027200Y-134093592D01*
X115853542Y-134113158D01*
X115688593Y-134170877D01*
X115540623Y-134263852D01*
X115417052Y-134387423D01*
X115324077Y-134535393D01*
X115266358Y-134700342D01*
X115246792Y-134874000D01*
X115266358Y-135047657D01*
X115324077Y-135212606D01*
X115357694Y-135266107D01*
X115376700Y-135332078D01*
X115376700Y-136690300D01*
X115360087Y-136752300D01*
X115314700Y-136797687D01*
X115252700Y-136814300D01*
X97856808Y-136814300D01*
X97809355Y-136804861D01*
X97769127Y-136777981D01*
X97765619Y-136774473D01*
X97738739Y-136734245D01*
X97729300Y-136686792D01*
X97729300Y-135281278D01*
X97748306Y-135215307D01*
X97781922Y-135161806D01*
X97839641Y-134996857D01*
X97859207Y-134823200D01*
X97839641Y-134649542D01*
X97781922Y-134484593D01*
X97688947Y-134336623D01*
X97565376Y-134213052D01*
X97417406Y-134120077D01*
X97252457Y-134062358D01*
X97078800Y-134042792D01*
X96905142Y-134062358D01*
X96740193Y-134120077D01*
X96592223Y-134213052D01*
X96468652Y-134336623D01*
X96375677Y-134484593D01*
X96317958Y-134649542D01*
X96298392Y-134823200D01*
X96317958Y-134996857D01*
X96375677Y-135161806D01*
X96409294Y-135215307D01*
X96428300Y-135281278D01*
X96428300Y-136639500D01*
X96411687Y-136701500D01*
X96366300Y-136746887D01*
X96304300Y-136763500D01*
X79060808Y-136763500D01*
X79013355Y-136754061D01*
X78973127Y-136727181D01*
X78664819Y-136418873D01*
X78637939Y-136378645D01*
X78628500Y-136331192D01*
X78628500Y-135332078D01*
X78647506Y-135266107D01*
X78681122Y-135212606D01*
X78738841Y-135047657D01*
X78758407Y-134874000D01*
X78738841Y-134700342D01*
X78681122Y-134535393D01*
X78588147Y-134387423D01*
X78464576Y-134263852D01*
X78316606Y-134170877D01*
X78151657Y-134113158D01*
X77978000Y-134093592D01*
X77804342Y-134113158D01*
X77639393Y-134170877D01*
X77491423Y-134263852D01*
X77367852Y-134387423D01*
X77274877Y-134535393D01*
X77217158Y-134700342D01*
X77197592Y-134874000D01*
X77217158Y-135047657D01*
X77274877Y-135212606D01*
X77308494Y-135266107D01*
X77327500Y-135332078D01*
X77327500Y-136331192D01*
X77318061Y-136378645D01*
X77291181Y-136418873D01*
X77033673Y-136676381D01*
X76993445Y-136703261D01*
X76945992Y-136712700D01*
X70206478Y-136712700D01*
X70140507Y-136693694D01*
X70087006Y-136660077D01*
X69922057Y-136602358D01*
X69748400Y-136582792D01*
X69574742Y-136602358D01*
X69409793Y-136660077D01*
X69261823Y-136753052D01*
X69138252Y-136876623D01*
X69045277Y-137024593D01*
X68987558Y-137189542D01*
X68967992Y-137363200D01*
X54083094Y-137363200D01*
X54058739Y-137272304D01*
X53962568Y-137066066D01*
X53933529Y-137024594D01*
X53832046Y-136879659D01*
X53671140Y-136718753D01*
X53484735Y-136588232D01*
X53278497Y-136492061D01*
X53058689Y-136433164D01*
X52832000Y-136413331D01*
X52605310Y-136433164D01*
X52385502Y-136492061D01*
X52179264Y-136588232D01*
X51992859Y-136718753D01*
X51831953Y-136879659D01*
X51701432Y-137066064D01*
X51605261Y-137272302D01*
X51546364Y-137492110D01*
X51526531Y-137718799D01*
X50643100Y-137718799D01*
X50643100Y-132885139D01*
X50643109Y-132885079D01*
X50643100Y-132807786D01*
X50643100Y-132766345D01*
X50643094Y-132766287D01*
X50642762Y-130098800D01*
X51526531Y-130098800D01*
X51546364Y-130325489D01*
X51605261Y-130545297D01*
X51701432Y-130751535D01*
X51831953Y-130937940D01*
X51992859Y-131098846D01*
X52179264Y-131229367D01*
X52179265Y-131229367D01*
X52179266Y-131229368D01*
X52385504Y-131325539D01*
X52605308Y-131384435D01*
X52832000Y-131404268D01*
X53058692Y-131384435D01*
X53278496Y-131325539D01*
X53484734Y-131229368D01*
X53671139Y-131098847D01*
X53832047Y-130937939D01*
X53962568Y-130751534D01*
X54058739Y-130545296D01*
X54069483Y-130505199D01*
X73820815Y-130505199D01*
X73839503Y-130683004D01*
X73894749Y-130853035D01*
X73984140Y-131007865D01*
X74103771Y-131140727D01*
X74248403Y-131245810D01*
X74248406Y-131245811D01*
X74248407Y-131245812D01*
X74357291Y-131294290D01*
X74411735Y-131318530D01*
X74586607Y-131355700D01*
X74586609Y-131355700D01*
X74765391Y-131355700D01*
X74765393Y-131355700D01*
X74940264Y-131318530D01*
X74940265Y-131318529D01*
X74940267Y-131318529D01*
X75103593Y-131245812D01*
X75103594Y-131245811D01*
X75113457Y-131241420D01*
X75163892Y-131230700D01*
X77083708Y-131230700D01*
X77134143Y-131241420D01*
X77144006Y-131245811D01*
X77144007Y-131245812D01*
X77259805Y-131297368D01*
X77307335Y-131318530D01*
X77482207Y-131355700D01*
X77482209Y-131355700D01*
X77660991Y-131355700D01*
X77660993Y-131355700D01*
X77835864Y-131318530D01*
X77835865Y-131318529D01*
X77835867Y-131318529D01*
X77999193Y-131245812D01*
X78143830Y-131140726D01*
X78263459Y-131007865D01*
X78352850Y-130853035D01*
X78408097Y-130683003D01*
X78426785Y-130505200D01*
X78408097Y-130327397D01*
X78352850Y-130157365D01*
X78352850Y-130157364D01*
X78289708Y-130047999D01*
X131130131Y-130047999D01*
X131149964Y-130274689D01*
X131208861Y-130494497D01*
X131305032Y-130700735D01*
X131435553Y-130887140D01*
X131596459Y-131048046D01*
X131782864Y-131178567D01*
X131782865Y-131178567D01*
X131782866Y-131178568D01*
X131989104Y-131274739D01*
X132208908Y-131333635D01*
X132435600Y-131353468D01*
X132662292Y-131333635D01*
X132882096Y-131274739D01*
X133088334Y-131178568D01*
X133274739Y-131048047D01*
X133435647Y-130887139D01*
X133566168Y-130700734D01*
X133662339Y-130494496D01*
X133721235Y-130274692D01*
X133741068Y-130048000D01*
X133721235Y-129821308D01*
X133662339Y-129601504D01*
X133566168Y-129395266D01*
X133471217Y-129259661D01*
X133435646Y-129208859D01*
X133274740Y-129047953D01*
X133088335Y-128917432D01*
X132882097Y-128821261D01*
X132662289Y-128762364D01*
X132435600Y-128742531D01*
X132208910Y-128762364D01*
X131989102Y-128821261D01*
X131782864Y-128917432D01*
X131596459Y-129047953D01*
X131435553Y-129208859D01*
X131305032Y-129395264D01*
X131208861Y-129601502D01*
X131149964Y-129821310D01*
X131130131Y-130047999D01*
X78289708Y-130047999D01*
X78263459Y-130002534D01*
X78146023Y-129872110D01*
X78143830Y-129869674D01*
X78143829Y-129869673D01*
X78143828Y-129869672D01*
X77999196Y-129764589D01*
X77835864Y-129691869D01*
X77660993Y-129654700D01*
X77660991Y-129654700D01*
X77482209Y-129654700D01*
X77482207Y-129654700D01*
X77307337Y-129691869D01*
X77307332Y-129691871D01*
X77307333Y-129691871D01*
X77144008Y-129764588D01*
X77144005Y-129764589D01*
X77134145Y-129768980D01*
X77083709Y-129779700D01*
X75163892Y-129779700D01*
X75113457Y-129768980D01*
X75103593Y-129764588D01*
X75060873Y-129745568D01*
X74940264Y-129691869D01*
X74765393Y-129654700D01*
X74765391Y-129654700D01*
X74586609Y-129654700D01*
X74586607Y-129654700D01*
X74411735Y-129691869D01*
X74248408Y-129764587D01*
X74103768Y-129869674D01*
X73984140Y-130002534D01*
X73894749Y-130157364D01*
X73839503Y-130327395D01*
X73820815Y-130505199D01*
X54069483Y-130505199D01*
X54117635Y-130325492D01*
X54137468Y-130098800D01*
X54117635Y-129872108D01*
X54058739Y-129652304D01*
X53962568Y-129446066D01*
X53926996Y-129395264D01*
X53832046Y-129259659D01*
X53671140Y-129098753D01*
X53484735Y-128968232D01*
X53278497Y-128872061D01*
X53058689Y-128813164D01*
X52832000Y-128793331D01*
X52605310Y-128813164D01*
X52385502Y-128872061D01*
X52179264Y-128968232D01*
X51992859Y-129098753D01*
X51831953Y-129259659D01*
X51701432Y-129446064D01*
X51605261Y-129652302D01*
X51546364Y-129872110D01*
X51526531Y-130098800D01*
X50642762Y-130098800D01*
X50642500Y-127988151D01*
X50643278Y-127974286D01*
X50657220Y-127850549D01*
X50663396Y-127823491D01*
X50702209Y-127712571D01*
X50714249Y-127687570D01*
X50776769Y-127588068D01*
X50794075Y-127566367D01*
X50877167Y-127483275D01*
X50898868Y-127465969D01*
X50998370Y-127403449D01*
X51023371Y-127391409D01*
X51134291Y-127352596D01*
X51161351Y-127346420D01*
X51285077Y-127332479D01*
X51298960Y-127331700D01*
X51368543Y-127331700D01*
X51368596Y-127331690D01*
X133960634Y-127321700D01*
X133974519Y-127322479D01*
G37*
G04 #@! TD.AperFunction*
M02*
