G04 #@! TF.GenerationSoftware,KiCad,Pcbnew,7.0.1*
G04 #@! TF.CreationDate,2024-07-14T18:55:08+02:00*
G04 #@! TF.ProjectId,Gruzik2.0,4772757a-696b-4322-9e30-2e6b69636164,rev?*
G04 #@! TF.SameCoordinates,Original*
G04 #@! TF.FileFunction,Paste,Top*
G04 #@! TF.FilePolarity,Positive*
%FSLAX46Y46*%
G04 Gerber Fmt 4.6, Leading zero omitted, Abs format (unit mm)*
G04 Created by KiCad (PCBNEW 7.0.1) date 2024-07-14 18:55:08*
%MOMM*%
%LPD*%
G01*
G04 APERTURE LIST*
G04 Aperture macros list*
%AMRoundRect*
0 Rectangle with rounded corners*
0 $1 Rounding radius*
0 $2 $3 $4 $5 $6 $7 $8 $9 X,Y pos of 4 corners*
0 Add a 4 corners polygon primitive as box body*
4,1,4,$2,$3,$4,$5,$6,$7,$8,$9,$2,$3,0*
0 Add four circle primitives for the rounded corners*
1,1,$1+$1,$2,$3*
1,1,$1+$1,$4,$5*
1,1,$1+$1,$6,$7*
1,1,$1+$1,$8,$9*
0 Add four rect primitives between the rounded corners*
20,1,$1+$1,$2,$3,$4,$5,0*
20,1,$1+$1,$4,$5,$6,$7,0*
20,1,$1+$1,$6,$7,$8,$9,0*
20,1,$1+$1,$8,$9,$2,$3,0*%
G04 Aperture macros list end*
%ADD10R,1.300000X1.000000*%
%ADD11R,1.000000X1.300000*%
%ADD12RoundRect,0.225000X0.250000X-0.225000X0.250000X0.225000X-0.250000X0.225000X-0.250000X-0.225000X0*%
%ADD13RoundRect,0.200000X-0.275000X0.200000X-0.275000X-0.200000X0.275000X-0.200000X0.275000X0.200000X0*%
%ADD14RoundRect,0.200000X0.275000X-0.200000X0.275000X0.200000X-0.275000X0.200000X-0.275000X-0.200000X0*%
%ADD15RoundRect,0.200000X0.200000X0.275000X-0.200000X0.275000X-0.200000X-0.275000X0.200000X-0.275000X0*%
%ADD16RoundRect,0.225000X0.225000X0.250000X-0.225000X0.250000X-0.225000X-0.250000X0.225000X-0.250000X0*%
%ADD17R,1.500000X1.500000*%
%ADD18RoundRect,0.218750X-0.256250X0.218750X-0.256250X-0.218750X0.256250X-0.218750X0.256250X0.218750X0*%
G04 APERTURE END LIST*
D10*
X105980000Y-135095000D03*
X105980000Y-136595000D03*
X105980000Y-138095000D03*
X105980000Y-139595000D03*
X105980000Y-141095000D03*
X105980000Y-142595000D03*
X105980000Y-144095000D03*
X105980000Y-145595000D03*
X105980000Y-147095000D03*
X105980000Y-148595000D03*
X105980000Y-150095000D03*
X105980000Y-151595000D03*
X105980000Y-153095000D03*
D11*
X107080000Y-154595000D03*
X108580000Y-154595000D03*
X110080000Y-154595000D03*
X111580000Y-154595000D03*
X113080000Y-154595000D03*
X114580000Y-154595000D03*
X116080000Y-154595000D03*
X117580000Y-154595000D03*
D10*
X118680000Y-153095000D03*
X118680000Y-151595000D03*
X118680000Y-150095000D03*
X118680000Y-148595000D03*
X118680000Y-147095000D03*
X118680000Y-145595000D03*
X118680000Y-144095000D03*
X118680000Y-142595000D03*
X118680000Y-141095000D03*
X118680000Y-139595000D03*
X118680000Y-138095000D03*
X118680000Y-136595000D03*
X118680000Y-135095000D03*
D12*
X125310000Y-154835000D03*
X125310000Y-153285000D03*
D13*
X96930000Y-136820000D03*
X96930000Y-138470000D03*
D14*
X108120000Y-169660000D03*
X108120000Y-168010000D03*
D15*
X96415000Y-142820000D03*
X94765000Y-142820000D03*
D16*
X81760000Y-144470000D03*
X80210000Y-144470000D03*
D17*
X79810000Y-137210000D03*
X87610000Y-137210000D03*
D16*
X81760000Y-142930000D03*
X80210000Y-142930000D03*
D15*
X96395000Y-144400000D03*
X94745000Y-144400000D03*
D16*
X81760000Y-146010000D03*
X80210000Y-146010000D03*
D12*
X93300000Y-138450000D03*
X93300000Y-136900000D03*
D18*
X95130000Y-136880000D03*
X95130000Y-138455000D03*
D12*
X75100000Y-154670000D03*
X75100000Y-153120000D03*
D16*
X81695000Y-149970000D03*
X80145000Y-149970000D03*
X81755000Y-141360000D03*
X80205000Y-141360000D03*
X81705000Y-148270000D03*
X80155000Y-148270000D03*
M02*
