M48
; DRILL file {KiCad 7.0.1} date Sun Jul 14 18:56:50 2024
; FORMAT={-:-/ absolute / metric / decimal}
; #@! TF.CreationDate,2024-07-14T18:56:50+02:00
; #@! TF.GenerationSoftware,Kicad,Pcbnew,7.0.1
; #@! TF.FileFunction,Plated,1,4,PTH
FMAT,2
METRIC
; #@! TA.AperFunction,Plated,PTH,ViaDrill
T1C0.200
; #@! TA.AperFunction,Plated,PTH,ViaDrill
T2C0.300
; #@! TA.AperFunction,Plated,PTH,ComponentDrill
T3C0.800
; #@! TA.AperFunction,Plated,PTH,ComponentDrill
T4C1.000
%
G90
G05
T1
X78.66Y-150.34
X81.215Y-154.304
X81.865Y-153.93
X82.52Y-156.2
X83.17Y-153.83
X84.115Y-150.605
X90.92Y-138.48
X95.515Y-150.07
X96.39Y-145.65
X97.9Y-152.49
X100.82Y-157.11
X101.53Y-150.55
X101.54Y-152.35
X102.3Y-157.421
X103.24Y-159.65
X103.43Y-149.79
X103.894Y-157.27
X104.261Y-147.79
X104.45Y-152.3
X104.715Y-149.17
X104.76Y-156.324
X105.04Y-158.04
X105.92Y-158.7
X106.84Y-166.65
X108.21Y-147.24
X109.706Y-150.111
X109.71Y-152.41
X110.768Y-148.915
X116.415Y-157.21
X118.04Y-157.49
X118.445Y-156.75
X120.05Y-154.87
T2
X75.07Y-156.01
X77.08Y-154.94
X79.38Y-154.9
X79.93Y-161.2
X81.76Y-147.16
X81.94Y-138.68
X83.18Y-139.81
X83.2Y-144.46
X83.897Y-161.412
X84.31Y-138.68
X84.69Y-141.34
X86.01Y-138.61
X86.45Y-152.3
X88.0Y-146.44
X99.48Y-158.744
X104.17Y-150.95
X108.04Y-142.84
X108.12Y-166.31
X111.3Y-150.43
X112.31Y-142.05
X113.42Y-159.91
X116.02Y-161.71
X116.69Y-149.7
X118.76Y-162.07
X119.8Y-162.04
X120.05Y-154.01
X120.77Y-146.81
X125.31Y-155.89
T3
X90.56Y-150.74
X90.56Y-155.62
T4
X80.61Y-165.63
X82.29Y-169.5
X83.15Y-165.63
X84.83Y-169.5
X87.37Y-169.5
X89.91Y-169.5
X90.385Y-142.0
X90.385Y-144.54
X94.26Y-169.54
X96.8Y-169.54
X99.34Y-169.54
X101.88Y-169.54
X104.42Y-169.54
X111.49Y-169.66
X114.03Y-169.66
X117.82Y-165.6
X120.36Y-165.6
T0
M30
