%TF.GenerationSoftware,KiCad,Pcbnew,7.0.1*%
%TF.CreationDate,2024-07-14T18:56:52+02:00*%
%TF.ProjectId,Gruzik2.0,4772757a-696b-4322-9e30-2e6b69636164,rev?*%
%TF.SameCoordinates,Original*%
%TF.FileFunction,Drillmap*%
%TF.FilePolarity,Positive*%
%FSLAX45Y45*%
G04 Gerber Fmt 4.5, Leading zero omitted, Abs format (unit mm)*
G04 Created by KiCad (PCBNEW 7.0.1) date 2024-07-14 18:56:52*
%MOMM*%
%LPD*%
G01*
G04 APERTURE LIST*
%ADD10C,0.150000*%
%ADD11C,0.250000*%
%ADD12C,0.200000*%
%ADD13C,0.210000*%
G04 APERTURE END LIST*
D10*
X15213800Y-16053500D02*
X15213800Y-15903500D01*
X13347600Y-15903500D02*
G75*
G03*
X12947600Y-16303500I0J-400000D01*
G01*
X15933800Y-13984500D02*
G75*
G03*
X15503800Y-14414500I0J-430000D01*
G01*
X7118400Y-16789400D02*
G75*
G03*
X7518400Y-17189400I400000J0D01*
G01*
X15503800Y-16053500D02*
X15213800Y-16053500D01*
X15213800Y-14703500D02*
X13347600Y-14703500D01*
X3702200Y-14414500D02*
X3702200Y-16192500D01*
X15933800Y-16622500D02*
G75*
G03*
X16363800Y-16192500I0J430000D01*
G01*
X7518400Y-13417600D02*
G75*
G03*
X7118400Y-13817600I0J-400000D01*
G01*
X4562200Y-14414500D02*
X4562200Y-14553500D01*
X15503800Y-16192500D02*
G75*
G03*
X15933800Y-16622500I430000J0D01*
G01*
X16363800Y-14414500D02*
G75*
G03*
X15933800Y-13984500I-430000J0D01*
G01*
X12547600Y-17189400D02*
G75*
G03*
X12947600Y-16789400I0J400000D01*
G01*
X4562200Y-14553500D02*
X4852200Y-14553500D01*
X4562200Y-16192500D02*
X4562200Y-16053500D01*
X6718400Y-15903500D02*
X4852200Y-15903500D01*
X15503800Y-14414500D02*
X15503800Y-14553500D01*
X4852200Y-16053500D02*
X4852200Y-15903500D01*
X12947600Y-14303500D02*
G75*
G03*
X13347600Y-14703500I400000J0D01*
G01*
X16363800Y-14414500D02*
X16363800Y-16192500D01*
X4562200Y-16053500D02*
X4852200Y-16053500D01*
X4132200Y-13984500D02*
G75*
G03*
X3702200Y-14414500I0J-430000D01*
G01*
X7118400Y-14303500D02*
X7118400Y-13817600D01*
X15213800Y-14553500D02*
X15213800Y-14703500D01*
X6718400Y-14703500D02*
G75*
G03*
X7118400Y-14303500I0J400000D01*
G01*
X4852200Y-14553500D02*
X4852200Y-14703500D01*
D11*
X7518400Y-13417600D02*
X12547600Y-13417600D01*
D10*
X15503800Y-16192500D02*
X15503800Y-16053500D01*
X13347600Y-15903500D02*
X15213800Y-15903500D01*
X6718400Y-14703500D02*
X4852200Y-14703500D01*
X7518400Y-17189400D02*
X12547600Y-17189400D01*
X4132200Y-16622500D02*
G75*
G03*
X4562200Y-16192500I0J430000D01*
G01*
X7118400Y-16303500D02*
G75*
G03*
X6718400Y-15903500I-400000J0D01*
G01*
X15503800Y-14553500D02*
X15213800Y-14553500D01*
X3702200Y-16192500D02*
G75*
G03*
X4132200Y-16622500I430000J0D01*
G01*
X4562200Y-14414500D02*
G75*
G03*
X4132200Y-13984500I-430000J0D01*
G01*
X12947600Y-16789400D02*
X12947600Y-16303500D01*
X12947600Y-13817600D02*
G75*
G03*
X12547600Y-13417600I-400000J0D01*
G01*
X12947600Y-13817600D02*
X12947600Y-14303500D01*
X7118400Y-16303500D02*
X7118400Y-16789400D01*
D12*
D13*
X4027200Y-14309500D02*
X4237200Y-14519500D01*
X4237200Y-14309500D02*
X4027200Y-14519500D01*
X4027200Y-16087500D02*
X4237200Y-16297500D01*
X4237200Y-16087500D02*
X4027200Y-16297500D01*
X7413400Y-13712600D02*
X7623400Y-13922600D01*
X7623400Y-13712600D02*
X7413400Y-13922600D01*
X7413400Y-16684400D02*
X7623400Y-16894400D01*
X7623400Y-16684400D02*
X7413400Y-16894400D01*
X12442600Y-13712600D02*
X12652600Y-13922600D01*
X12652600Y-13712600D02*
X12442600Y-13922600D01*
X12442600Y-16684400D02*
X12652600Y-16894400D01*
X12652600Y-16684400D02*
X12442600Y-16894400D01*
X15828800Y-14309500D02*
X16038800Y-14519500D01*
X16038800Y-14309500D02*
X15828800Y-14519500D01*
X15828800Y-16087500D02*
X16038800Y-16297500D01*
X16038800Y-16087500D02*
X15828800Y-16297500D01*
D12*
X3942319Y-17509424D02*
X3942319Y-17309424D01*
X3942319Y-17309424D02*
X3989938Y-17309424D01*
X3989938Y-17309424D02*
X4018509Y-17318948D01*
X4018509Y-17318948D02*
X4037557Y-17337995D01*
X4037557Y-17337995D02*
X4047081Y-17357043D01*
X4047081Y-17357043D02*
X4056605Y-17395138D01*
X4056605Y-17395138D02*
X4056605Y-17423710D01*
X4056605Y-17423710D02*
X4047081Y-17461805D01*
X4047081Y-17461805D02*
X4037557Y-17480852D01*
X4037557Y-17480852D02*
X4018509Y-17499900D01*
X4018509Y-17499900D02*
X3989938Y-17509424D01*
X3989938Y-17509424D02*
X3942319Y-17509424D01*
X4142319Y-17509424D02*
X4142319Y-17376090D01*
X4142319Y-17414186D02*
X4151843Y-17395138D01*
X4151843Y-17395138D02*
X4161367Y-17385614D01*
X4161367Y-17385614D02*
X4180414Y-17376090D01*
X4180414Y-17376090D02*
X4199462Y-17376090D01*
X4266129Y-17509424D02*
X4266129Y-17376090D01*
X4266129Y-17309424D02*
X4256605Y-17318948D01*
X4256605Y-17318948D02*
X4266129Y-17328471D01*
X4266129Y-17328471D02*
X4275652Y-17318948D01*
X4275652Y-17318948D02*
X4266129Y-17309424D01*
X4266129Y-17309424D02*
X4266129Y-17328471D01*
X4389938Y-17509424D02*
X4370890Y-17499900D01*
X4370890Y-17499900D02*
X4361367Y-17480852D01*
X4361367Y-17480852D02*
X4361367Y-17309424D01*
X4494700Y-17509424D02*
X4475652Y-17499900D01*
X4475652Y-17499900D02*
X4466129Y-17480852D01*
X4466129Y-17480852D02*
X4466129Y-17309424D01*
X4723271Y-17509424D02*
X4723271Y-17309424D01*
X4723271Y-17309424D02*
X4789938Y-17452281D01*
X4789938Y-17452281D02*
X4856605Y-17309424D01*
X4856605Y-17309424D02*
X4856605Y-17509424D01*
X5037557Y-17509424D02*
X5037557Y-17404662D01*
X5037557Y-17404662D02*
X5028033Y-17385614D01*
X5028033Y-17385614D02*
X5008986Y-17376090D01*
X5008986Y-17376090D02*
X4970890Y-17376090D01*
X4970890Y-17376090D02*
X4951843Y-17385614D01*
X5037557Y-17499900D02*
X5018510Y-17509424D01*
X5018510Y-17509424D02*
X4970890Y-17509424D01*
X4970890Y-17509424D02*
X4951843Y-17499900D01*
X4951843Y-17499900D02*
X4942319Y-17480852D01*
X4942319Y-17480852D02*
X4942319Y-17461805D01*
X4942319Y-17461805D02*
X4951843Y-17442757D01*
X4951843Y-17442757D02*
X4970890Y-17433233D01*
X4970890Y-17433233D02*
X5018510Y-17433233D01*
X5018510Y-17433233D02*
X5037557Y-17423710D01*
X5132795Y-17376090D02*
X5132795Y-17576090D01*
X5132795Y-17385614D02*
X5151843Y-17376090D01*
X5151843Y-17376090D02*
X5189938Y-17376090D01*
X5189938Y-17376090D02*
X5208986Y-17385614D01*
X5208986Y-17385614D02*
X5218510Y-17395138D01*
X5218510Y-17395138D02*
X5228033Y-17414186D01*
X5228033Y-17414186D02*
X5228033Y-17471329D01*
X5228033Y-17471329D02*
X5218510Y-17490376D01*
X5218510Y-17490376D02*
X5208986Y-17499900D01*
X5208986Y-17499900D02*
X5189938Y-17509424D01*
X5189938Y-17509424D02*
X5151843Y-17509424D01*
X5151843Y-17509424D02*
X5132795Y-17499900D01*
X5313748Y-17490376D02*
X5323271Y-17499900D01*
X5323271Y-17499900D02*
X5313748Y-17509424D01*
X5313748Y-17509424D02*
X5304224Y-17499900D01*
X5304224Y-17499900D02*
X5313748Y-17490376D01*
X5313748Y-17490376D02*
X5313748Y-17509424D01*
X5313748Y-17385614D02*
X5323271Y-17395138D01*
X5323271Y-17395138D02*
X5313748Y-17404662D01*
X5313748Y-17404662D02*
X5304224Y-17395138D01*
X5304224Y-17395138D02*
X5313748Y-17385614D01*
X5313748Y-17385614D02*
X5313748Y-17404662D01*
X3494700Y-17736900D02*
X3694700Y-17936900D01*
X3694700Y-17736900D02*
X3494700Y-17936900D01*
X3932795Y-17748471D02*
X3942319Y-17738948D01*
X3942319Y-17738948D02*
X3961367Y-17729424D01*
X3961367Y-17729424D02*
X4008986Y-17729424D01*
X4008986Y-17729424D02*
X4028033Y-17738948D01*
X4028033Y-17738948D02*
X4037557Y-17748471D01*
X4037557Y-17748471D02*
X4047081Y-17767519D01*
X4047081Y-17767519D02*
X4047081Y-17786567D01*
X4047081Y-17786567D02*
X4037557Y-17815138D01*
X4037557Y-17815138D02*
X3923271Y-17929424D01*
X3923271Y-17929424D02*
X4047081Y-17929424D01*
X4132795Y-17910376D02*
X4142319Y-17919900D01*
X4142319Y-17919900D02*
X4132795Y-17929424D01*
X4132795Y-17929424D02*
X4123271Y-17919900D01*
X4123271Y-17919900D02*
X4132795Y-17910376D01*
X4132795Y-17910376D02*
X4132795Y-17929424D01*
X4332795Y-17929424D02*
X4218510Y-17929424D01*
X4275652Y-17929424D02*
X4275652Y-17729424D01*
X4275652Y-17729424D02*
X4256605Y-17757995D01*
X4256605Y-17757995D02*
X4237557Y-17777043D01*
X4237557Y-17777043D02*
X4218510Y-17786567D01*
X4456605Y-17729424D02*
X4475652Y-17729424D01*
X4475652Y-17729424D02*
X4494700Y-17738948D01*
X4494700Y-17738948D02*
X4504224Y-17748471D01*
X4504224Y-17748471D02*
X4513748Y-17767519D01*
X4513748Y-17767519D02*
X4523271Y-17805614D01*
X4523271Y-17805614D02*
X4523271Y-17853233D01*
X4523271Y-17853233D02*
X4513748Y-17891329D01*
X4513748Y-17891329D02*
X4504224Y-17910376D01*
X4504224Y-17910376D02*
X4494700Y-17919900D01*
X4494700Y-17919900D02*
X4475652Y-17929424D01*
X4475652Y-17929424D02*
X4456605Y-17929424D01*
X4456605Y-17929424D02*
X4437557Y-17919900D01*
X4437557Y-17919900D02*
X4428033Y-17910376D01*
X4428033Y-17910376D02*
X4418510Y-17891329D01*
X4418510Y-17891329D02*
X4408986Y-17853233D01*
X4408986Y-17853233D02*
X4408986Y-17805614D01*
X4408986Y-17805614D02*
X4418510Y-17767519D01*
X4418510Y-17767519D02*
X4428033Y-17748471D01*
X4428033Y-17748471D02*
X4437557Y-17738948D01*
X4437557Y-17738948D02*
X4456605Y-17729424D01*
X4647081Y-17729424D02*
X4666129Y-17729424D01*
X4666129Y-17729424D02*
X4685176Y-17738948D01*
X4685176Y-17738948D02*
X4694700Y-17748471D01*
X4694700Y-17748471D02*
X4704224Y-17767519D01*
X4704224Y-17767519D02*
X4713748Y-17805614D01*
X4713748Y-17805614D02*
X4713748Y-17853233D01*
X4713748Y-17853233D02*
X4704224Y-17891329D01*
X4704224Y-17891329D02*
X4694700Y-17910376D01*
X4694700Y-17910376D02*
X4685176Y-17919900D01*
X4685176Y-17919900D02*
X4666129Y-17929424D01*
X4666129Y-17929424D02*
X4647081Y-17929424D01*
X4647081Y-17929424D02*
X4628033Y-17919900D01*
X4628033Y-17919900D02*
X4618510Y-17910376D01*
X4618510Y-17910376D02*
X4608986Y-17891329D01*
X4608986Y-17891329D02*
X4599462Y-17853233D01*
X4599462Y-17853233D02*
X4599462Y-17805614D01*
X4599462Y-17805614D02*
X4608986Y-17767519D01*
X4608986Y-17767519D02*
X4618510Y-17748471D01*
X4618510Y-17748471D02*
X4628033Y-17738948D01*
X4628033Y-17738948D02*
X4647081Y-17729424D01*
X4799462Y-17929424D02*
X4799462Y-17796090D01*
X4799462Y-17815138D02*
X4808986Y-17805614D01*
X4808986Y-17805614D02*
X4828033Y-17796090D01*
X4828033Y-17796090D02*
X4856605Y-17796090D01*
X4856605Y-17796090D02*
X4875652Y-17805614D01*
X4875652Y-17805614D02*
X4885176Y-17824662D01*
X4885176Y-17824662D02*
X4885176Y-17929424D01*
X4885176Y-17824662D02*
X4894700Y-17805614D01*
X4894700Y-17805614D02*
X4913748Y-17796090D01*
X4913748Y-17796090D02*
X4942319Y-17796090D01*
X4942319Y-17796090D02*
X4961367Y-17805614D01*
X4961367Y-17805614D02*
X4970891Y-17824662D01*
X4970891Y-17824662D02*
X4970891Y-17929424D01*
X5066129Y-17929424D02*
X5066129Y-17796090D01*
X5066129Y-17815138D02*
X5075652Y-17805614D01*
X5075652Y-17805614D02*
X5094700Y-17796090D01*
X5094700Y-17796090D02*
X5123272Y-17796090D01*
X5123272Y-17796090D02*
X5142319Y-17805614D01*
X5142319Y-17805614D02*
X5151843Y-17824662D01*
X5151843Y-17824662D02*
X5151843Y-17929424D01*
X5151843Y-17824662D02*
X5161367Y-17805614D01*
X5161367Y-17805614D02*
X5180414Y-17796090D01*
X5180414Y-17796090D02*
X5208986Y-17796090D01*
X5208986Y-17796090D02*
X5228033Y-17805614D01*
X5228033Y-17805614D02*
X5237557Y-17824662D01*
X5237557Y-17824662D02*
X5237557Y-17929424D01*
X5628033Y-17719900D02*
X5456605Y-17977043D01*
X5885176Y-17729424D02*
X5904224Y-17729424D01*
X5904224Y-17729424D02*
X5923272Y-17738948D01*
X5923272Y-17738948D02*
X5932795Y-17748471D01*
X5932795Y-17748471D02*
X5942319Y-17767519D01*
X5942319Y-17767519D02*
X5951843Y-17805614D01*
X5951843Y-17805614D02*
X5951843Y-17853233D01*
X5951843Y-17853233D02*
X5942319Y-17891329D01*
X5942319Y-17891329D02*
X5932795Y-17910376D01*
X5932795Y-17910376D02*
X5923272Y-17919900D01*
X5923272Y-17919900D02*
X5904224Y-17929424D01*
X5904224Y-17929424D02*
X5885176Y-17929424D01*
X5885176Y-17929424D02*
X5866129Y-17919900D01*
X5866129Y-17919900D02*
X5856605Y-17910376D01*
X5856605Y-17910376D02*
X5847081Y-17891329D01*
X5847081Y-17891329D02*
X5837557Y-17853233D01*
X5837557Y-17853233D02*
X5837557Y-17805614D01*
X5837557Y-17805614D02*
X5847081Y-17767519D01*
X5847081Y-17767519D02*
X5856605Y-17748471D01*
X5856605Y-17748471D02*
X5866129Y-17738948D01*
X5866129Y-17738948D02*
X5885176Y-17729424D01*
X6037557Y-17910376D02*
X6047081Y-17919900D01*
X6047081Y-17919900D02*
X6037557Y-17929424D01*
X6037557Y-17929424D02*
X6028033Y-17919900D01*
X6028033Y-17919900D02*
X6037557Y-17910376D01*
X6037557Y-17910376D02*
X6037557Y-17929424D01*
X6170891Y-17729424D02*
X6189938Y-17729424D01*
X6189938Y-17729424D02*
X6208986Y-17738948D01*
X6208986Y-17738948D02*
X6218510Y-17748471D01*
X6218510Y-17748471D02*
X6228033Y-17767519D01*
X6228033Y-17767519D02*
X6237557Y-17805614D01*
X6237557Y-17805614D02*
X6237557Y-17853233D01*
X6237557Y-17853233D02*
X6228033Y-17891329D01*
X6228033Y-17891329D02*
X6218510Y-17910376D01*
X6218510Y-17910376D02*
X6208986Y-17919900D01*
X6208986Y-17919900D02*
X6189938Y-17929424D01*
X6189938Y-17929424D02*
X6170891Y-17929424D01*
X6170891Y-17929424D02*
X6151843Y-17919900D01*
X6151843Y-17919900D02*
X6142319Y-17910376D01*
X6142319Y-17910376D02*
X6132795Y-17891329D01*
X6132795Y-17891329D02*
X6123272Y-17853233D01*
X6123272Y-17853233D02*
X6123272Y-17805614D01*
X6123272Y-17805614D02*
X6132795Y-17767519D01*
X6132795Y-17767519D02*
X6142319Y-17748471D01*
X6142319Y-17748471D02*
X6151843Y-17738948D01*
X6151843Y-17738948D02*
X6170891Y-17729424D01*
X6351843Y-17815138D02*
X6332795Y-17805614D01*
X6332795Y-17805614D02*
X6323272Y-17796090D01*
X6323272Y-17796090D02*
X6313748Y-17777043D01*
X6313748Y-17777043D02*
X6313748Y-17767519D01*
X6313748Y-17767519D02*
X6323272Y-17748471D01*
X6323272Y-17748471D02*
X6332795Y-17738948D01*
X6332795Y-17738948D02*
X6351843Y-17729424D01*
X6351843Y-17729424D02*
X6389938Y-17729424D01*
X6389938Y-17729424D02*
X6408986Y-17738948D01*
X6408986Y-17738948D02*
X6418510Y-17748471D01*
X6418510Y-17748471D02*
X6428033Y-17767519D01*
X6428033Y-17767519D02*
X6428033Y-17777043D01*
X6428033Y-17777043D02*
X6418510Y-17796090D01*
X6418510Y-17796090D02*
X6408986Y-17805614D01*
X6408986Y-17805614D02*
X6389938Y-17815138D01*
X6389938Y-17815138D02*
X6351843Y-17815138D01*
X6351843Y-17815138D02*
X6332795Y-17824662D01*
X6332795Y-17824662D02*
X6323272Y-17834186D01*
X6323272Y-17834186D02*
X6313748Y-17853233D01*
X6313748Y-17853233D02*
X6313748Y-17891329D01*
X6313748Y-17891329D02*
X6323272Y-17910376D01*
X6323272Y-17910376D02*
X6332795Y-17919900D01*
X6332795Y-17919900D02*
X6351843Y-17929424D01*
X6351843Y-17929424D02*
X6389938Y-17929424D01*
X6389938Y-17929424D02*
X6408986Y-17919900D01*
X6408986Y-17919900D02*
X6418510Y-17910376D01*
X6418510Y-17910376D02*
X6428033Y-17891329D01*
X6428033Y-17891329D02*
X6428033Y-17853233D01*
X6428033Y-17853233D02*
X6418510Y-17834186D01*
X6418510Y-17834186D02*
X6408986Y-17824662D01*
X6408986Y-17824662D02*
X6389938Y-17815138D01*
X6504224Y-17748471D02*
X6513748Y-17738948D01*
X6513748Y-17738948D02*
X6532795Y-17729424D01*
X6532795Y-17729424D02*
X6580414Y-17729424D01*
X6580414Y-17729424D02*
X6599462Y-17738948D01*
X6599462Y-17738948D02*
X6608986Y-17748471D01*
X6608986Y-17748471D02*
X6618510Y-17767519D01*
X6618510Y-17767519D02*
X6618510Y-17786567D01*
X6618510Y-17786567D02*
X6608986Y-17815138D01*
X6608986Y-17815138D02*
X6494700Y-17929424D01*
X6494700Y-17929424D02*
X6618510Y-17929424D01*
X6685176Y-17729424D02*
X6818510Y-17729424D01*
X6818510Y-17729424D02*
X6732795Y-17929424D01*
X6885176Y-17729424D02*
X6885176Y-17767519D01*
X6961367Y-17729424D02*
X6961367Y-17767519D01*
X7256605Y-18005614D02*
X7247081Y-17996090D01*
X7247081Y-17996090D02*
X7228034Y-17967519D01*
X7228034Y-17967519D02*
X7218510Y-17948471D01*
X7218510Y-17948471D02*
X7208986Y-17919900D01*
X7208986Y-17919900D02*
X7199462Y-17872281D01*
X7199462Y-17872281D02*
X7199462Y-17834186D01*
X7199462Y-17834186D02*
X7208986Y-17786567D01*
X7208986Y-17786567D02*
X7218510Y-17757995D01*
X7218510Y-17757995D02*
X7228034Y-17738948D01*
X7228034Y-17738948D02*
X7247081Y-17710376D01*
X7247081Y-17710376D02*
X7256605Y-17700852D01*
X7361367Y-17815138D02*
X7342319Y-17805614D01*
X7342319Y-17805614D02*
X7332795Y-17796090D01*
X7332795Y-17796090D02*
X7323272Y-17777043D01*
X7323272Y-17777043D02*
X7323272Y-17767519D01*
X7323272Y-17767519D02*
X7332795Y-17748471D01*
X7332795Y-17748471D02*
X7342319Y-17738948D01*
X7342319Y-17738948D02*
X7361367Y-17729424D01*
X7361367Y-17729424D02*
X7399462Y-17729424D01*
X7399462Y-17729424D02*
X7418510Y-17738948D01*
X7418510Y-17738948D02*
X7428034Y-17748471D01*
X7428034Y-17748471D02*
X7437557Y-17767519D01*
X7437557Y-17767519D02*
X7437557Y-17777043D01*
X7437557Y-17777043D02*
X7428034Y-17796090D01*
X7428034Y-17796090D02*
X7418510Y-17805614D01*
X7418510Y-17805614D02*
X7399462Y-17815138D01*
X7399462Y-17815138D02*
X7361367Y-17815138D01*
X7361367Y-17815138D02*
X7342319Y-17824662D01*
X7342319Y-17824662D02*
X7332795Y-17834186D01*
X7332795Y-17834186D02*
X7323272Y-17853233D01*
X7323272Y-17853233D02*
X7323272Y-17891329D01*
X7323272Y-17891329D02*
X7332795Y-17910376D01*
X7332795Y-17910376D02*
X7342319Y-17919900D01*
X7342319Y-17919900D02*
X7361367Y-17929424D01*
X7361367Y-17929424D02*
X7399462Y-17929424D01*
X7399462Y-17929424D02*
X7418510Y-17919900D01*
X7418510Y-17919900D02*
X7428034Y-17910376D01*
X7428034Y-17910376D02*
X7437557Y-17891329D01*
X7437557Y-17891329D02*
X7437557Y-17853233D01*
X7437557Y-17853233D02*
X7428034Y-17834186D01*
X7428034Y-17834186D02*
X7418510Y-17824662D01*
X7418510Y-17824662D02*
X7399462Y-17815138D01*
X7675653Y-17929424D02*
X7675653Y-17729424D01*
X7761367Y-17929424D02*
X7761367Y-17824662D01*
X7761367Y-17824662D02*
X7751843Y-17805614D01*
X7751843Y-17805614D02*
X7732796Y-17796090D01*
X7732796Y-17796090D02*
X7704224Y-17796090D01*
X7704224Y-17796090D02*
X7685176Y-17805614D01*
X7685176Y-17805614D02*
X7675653Y-17815138D01*
X7885176Y-17929424D02*
X7866129Y-17919900D01*
X7866129Y-17919900D02*
X7856605Y-17910376D01*
X7856605Y-17910376D02*
X7847081Y-17891329D01*
X7847081Y-17891329D02*
X7847081Y-17834186D01*
X7847081Y-17834186D02*
X7856605Y-17815138D01*
X7856605Y-17815138D02*
X7866129Y-17805614D01*
X7866129Y-17805614D02*
X7885176Y-17796090D01*
X7885176Y-17796090D02*
X7913748Y-17796090D01*
X7913748Y-17796090D02*
X7932796Y-17805614D01*
X7932796Y-17805614D02*
X7942319Y-17815138D01*
X7942319Y-17815138D02*
X7951843Y-17834186D01*
X7951843Y-17834186D02*
X7951843Y-17891329D01*
X7951843Y-17891329D02*
X7942319Y-17910376D01*
X7942319Y-17910376D02*
X7932796Y-17919900D01*
X7932796Y-17919900D02*
X7913748Y-17929424D01*
X7913748Y-17929424D02*
X7885176Y-17929424D01*
X8066129Y-17929424D02*
X8047081Y-17919900D01*
X8047081Y-17919900D02*
X8037557Y-17900852D01*
X8037557Y-17900852D02*
X8037557Y-17729424D01*
X8218510Y-17919900D02*
X8199462Y-17929424D01*
X8199462Y-17929424D02*
X8161367Y-17929424D01*
X8161367Y-17929424D02*
X8142319Y-17919900D01*
X8142319Y-17919900D02*
X8132796Y-17900852D01*
X8132796Y-17900852D02*
X8132796Y-17824662D01*
X8132796Y-17824662D02*
X8142319Y-17805614D01*
X8142319Y-17805614D02*
X8161367Y-17796090D01*
X8161367Y-17796090D02*
X8199462Y-17796090D01*
X8199462Y-17796090D02*
X8218510Y-17805614D01*
X8218510Y-17805614D02*
X8228034Y-17824662D01*
X8228034Y-17824662D02*
X8228034Y-17843710D01*
X8228034Y-17843710D02*
X8132796Y-17862757D01*
X8304224Y-17919900D02*
X8323272Y-17929424D01*
X8323272Y-17929424D02*
X8361367Y-17929424D01*
X8361367Y-17929424D02*
X8380415Y-17919900D01*
X8380415Y-17919900D02*
X8389939Y-17900852D01*
X8389939Y-17900852D02*
X8389939Y-17891329D01*
X8389939Y-17891329D02*
X8380415Y-17872281D01*
X8380415Y-17872281D02*
X8361367Y-17862757D01*
X8361367Y-17862757D02*
X8332796Y-17862757D01*
X8332796Y-17862757D02*
X8313748Y-17853233D01*
X8313748Y-17853233D02*
X8304224Y-17834186D01*
X8304224Y-17834186D02*
X8304224Y-17824662D01*
X8304224Y-17824662D02*
X8313748Y-17805614D01*
X8313748Y-17805614D02*
X8332796Y-17796090D01*
X8332796Y-17796090D02*
X8361367Y-17796090D01*
X8361367Y-17796090D02*
X8380415Y-17805614D01*
X8456605Y-18005614D02*
X8466129Y-17996090D01*
X8466129Y-17996090D02*
X8485177Y-17967519D01*
X8485177Y-17967519D02*
X8494700Y-17948471D01*
X8494700Y-17948471D02*
X8504224Y-17919900D01*
X8504224Y-17919900D02*
X8513748Y-17872281D01*
X8513748Y-17872281D02*
X8513748Y-17834186D01*
X8513748Y-17834186D02*
X8504224Y-17786567D01*
X8504224Y-17786567D02*
X8494700Y-17757995D01*
X8494700Y-17757995D02*
X8485177Y-17738948D01*
X8485177Y-17738948D02*
X8466129Y-17710376D01*
X8466129Y-17710376D02*
X8456605Y-17700852D01*
X8818510Y-18005614D02*
X8808986Y-17996090D01*
X8808986Y-17996090D02*
X8789939Y-17967519D01*
X8789939Y-17967519D02*
X8780415Y-17948471D01*
X8780415Y-17948471D02*
X8770891Y-17919900D01*
X8770891Y-17919900D02*
X8761367Y-17872281D01*
X8761367Y-17872281D02*
X8761367Y-17834186D01*
X8761367Y-17834186D02*
X8770891Y-17786567D01*
X8770891Y-17786567D02*
X8780415Y-17757995D01*
X8780415Y-17757995D02*
X8789939Y-17738948D01*
X8789939Y-17738948D02*
X8808986Y-17710376D01*
X8808986Y-17710376D02*
X8818510Y-17700852D01*
X8894700Y-17796090D02*
X8894700Y-17929424D01*
X8894700Y-17815138D02*
X8904224Y-17805614D01*
X8904224Y-17805614D02*
X8923272Y-17796090D01*
X8923272Y-17796090D02*
X8951843Y-17796090D01*
X8951843Y-17796090D02*
X8970891Y-17805614D01*
X8970891Y-17805614D02*
X8980415Y-17824662D01*
X8980415Y-17824662D02*
X8980415Y-17929424D01*
X9104224Y-17929424D02*
X9085177Y-17919900D01*
X9085177Y-17919900D02*
X9075653Y-17910376D01*
X9075653Y-17910376D02*
X9066129Y-17891329D01*
X9066129Y-17891329D02*
X9066129Y-17834186D01*
X9066129Y-17834186D02*
X9075653Y-17815138D01*
X9075653Y-17815138D02*
X9085177Y-17805614D01*
X9085177Y-17805614D02*
X9104224Y-17796090D01*
X9104224Y-17796090D02*
X9132796Y-17796090D01*
X9132796Y-17796090D02*
X9151843Y-17805614D01*
X9151843Y-17805614D02*
X9161367Y-17815138D01*
X9161367Y-17815138D02*
X9170891Y-17834186D01*
X9170891Y-17834186D02*
X9170891Y-17891329D01*
X9170891Y-17891329D02*
X9161367Y-17910376D01*
X9161367Y-17910376D02*
X9151843Y-17919900D01*
X9151843Y-17919900D02*
X9132796Y-17929424D01*
X9132796Y-17929424D02*
X9104224Y-17929424D01*
X9228034Y-17796090D02*
X9304224Y-17796090D01*
X9256605Y-17729424D02*
X9256605Y-17900852D01*
X9256605Y-17900852D02*
X9266129Y-17919900D01*
X9266129Y-17919900D02*
X9285177Y-17929424D01*
X9285177Y-17929424D02*
X9304224Y-17929424D01*
X9523272Y-17796090D02*
X9523272Y-17996090D01*
X9523272Y-17805614D02*
X9542320Y-17796090D01*
X9542320Y-17796090D02*
X9580415Y-17796090D01*
X9580415Y-17796090D02*
X9599462Y-17805614D01*
X9599462Y-17805614D02*
X9608986Y-17815138D01*
X9608986Y-17815138D02*
X9618510Y-17834186D01*
X9618510Y-17834186D02*
X9618510Y-17891329D01*
X9618510Y-17891329D02*
X9608986Y-17910376D01*
X9608986Y-17910376D02*
X9599462Y-17919900D01*
X9599462Y-17919900D02*
X9580415Y-17929424D01*
X9580415Y-17929424D02*
X9542320Y-17929424D01*
X9542320Y-17929424D02*
X9523272Y-17919900D01*
X9732796Y-17929424D02*
X9713748Y-17919900D01*
X9713748Y-17919900D02*
X9704224Y-17900852D01*
X9704224Y-17900852D02*
X9704224Y-17729424D01*
X9894701Y-17929424D02*
X9894701Y-17824662D01*
X9894701Y-17824662D02*
X9885177Y-17805614D01*
X9885177Y-17805614D02*
X9866129Y-17796090D01*
X9866129Y-17796090D02*
X9828034Y-17796090D01*
X9828034Y-17796090D02*
X9808986Y-17805614D01*
X9894701Y-17919900D02*
X9875653Y-17929424D01*
X9875653Y-17929424D02*
X9828034Y-17929424D01*
X9828034Y-17929424D02*
X9808986Y-17919900D01*
X9808986Y-17919900D02*
X9799462Y-17900852D01*
X9799462Y-17900852D02*
X9799462Y-17881805D01*
X9799462Y-17881805D02*
X9808986Y-17862757D01*
X9808986Y-17862757D02*
X9828034Y-17853233D01*
X9828034Y-17853233D02*
X9875653Y-17853233D01*
X9875653Y-17853233D02*
X9894701Y-17843710D01*
X9961367Y-17796090D02*
X10037558Y-17796090D01*
X9989939Y-17729424D02*
X9989939Y-17900852D01*
X9989939Y-17900852D02*
X9999462Y-17919900D01*
X9999462Y-17919900D02*
X10018510Y-17929424D01*
X10018510Y-17929424D02*
X10037558Y-17929424D01*
X10180415Y-17919900D02*
X10161367Y-17929424D01*
X10161367Y-17929424D02*
X10123272Y-17929424D01*
X10123272Y-17929424D02*
X10104224Y-17919900D01*
X10104224Y-17919900D02*
X10094701Y-17900852D01*
X10094701Y-17900852D02*
X10094701Y-17824662D01*
X10094701Y-17824662D02*
X10104224Y-17805614D01*
X10104224Y-17805614D02*
X10123272Y-17796090D01*
X10123272Y-17796090D02*
X10161367Y-17796090D01*
X10161367Y-17796090D02*
X10180415Y-17805614D01*
X10180415Y-17805614D02*
X10189939Y-17824662D01*
X10189939Y-17824662D02*
X10189939Y-17843710D01*
X10189939Y-17843710D02*
X10094701Y-17862757D01*
X10361367Y-17929424D02*
X10361367Y-17729424D01*
X10361367Y-17919900D02*
X10342320Y-17929424D01*
X10342320Y-17929424D02*
X10304224Y-17929424D01*
X10304224Y-17929424D02*
X10285177Y-17919900D01*
X10285177Y-17919900D02*
X10275653Y-17910376D01*
X10275653Y-17910376D02*
X10266129Y-17891329D01*
X10266129Y-17891329D02*
X10266129Y-17834186D01*
X10266129Y-17834186D02*
X10275653Y-17815138D01*
X10275653Y-17815138D02*
X10285177Y-17805614D01*
X10285177Y-17805614D02*
X10304224Y-17796090D01*
X10304224Y-17796090D02*
X10342320Y-17796090D01*
X10342320Y-17796090D02*
X10361367Y-17805614D01*
X10437558Y-18005614D02*
X10447082Y-17996090D01*
X10447082Y-17996090D02*
X10466129Y-17967519D01*
X10466129Y-17967519D02*
X10475653Y-17948471D01*
X10475653Y-17948471D02*
X10485177Y-17919900D01*
X10485177Y-17919900D02*
X10494701Y-17872281D01*
X10494701Y-17872281D02*
X10494701Y-17834186D01*
X10494701Y-17834186D02*
X10485177Y-17786567D01*
X10485177Y-17786567D02*
X10475653Y-17757995D01*
X10475653Y-17757995D02*
X10466129Y-17738948D01*
X10466129Y-17738948D02*
X10447082Y-17710376D01*
X10447082Y-17710376D02*
X10437558Y-17700852D01*
M02*
