G04 #@! TF.GenerationSoftware,KiCad,Pcbnew,7.0.1*
G04 #@! TF.CreationDate,2024-07-14T18:55:08+02:00*
G04 #@! TF.ProjectId,Gruzik2.0,4772757a-696b-4322-9e30-2e6b69636164,rev?*
G04 #@! TF.SameCoordinates,Original*
G04 #@! TF.FileFunction,Paste,Bot*
G04 #@! TF.FilePolarity,Positive*
%FSLAX46Y46*%
G04 Gerber Fmt 4.6, Leading zero omitted, Abs format (unit mm)*
G04 Created by KiCad (PCBNEW 7.0.1) date 2024-07-14 18:55:08*
%MOMM*%
%LPD*%
G01*
G04 APERTURE LIST*
G04 Aperture macros list*
%AMRoundRect*
0 Rectangle with rounded corners*
0 $1 Rounding radius*
0 $2 $3 $4 $5 $6 $7 $8 $9 X,Y pos of 4 corners*
0 Add a 4 corners polygon primitive as box body*
4,1,4,$2,$3,$4,$5,$6,$7,$8,$9,$2,$3,0*
0 Add four circle primitives for the rounded corners*
1,1,$1+$1,$2,$3*
1,1,$1+$1,$4,$5*
1,1,$1+$1,$6,$7*
1,1,$1+$1,$8,$9*
0 Add four rect primitives between the rounded corners*
20,1,$1+$1,$2,$3,$4,$5,0*
20,1,$1+$1,$4,$5,$6,$7,0*
20,1,$1+$1,$6,$7,$8,$9,0*
20,1,$1+$1,$8,$9,$2,$3,0*%
G04 Aperture macros list end*
%ADD10RoundRect,0.225000X0.250000X-0.225000X0.250000X0.225000X-0.250000X0.225000X-0.250000X-0.225000X0*%
%ADD11RoundRect,0.225000X0.225000X0.250000X-0.225000X0.250000X-0.225000X-0.250000X0.225000X-0.250000X0*%
%ADD12RoundRect,0.225000X-0.250000X0.225000X-0.250000X-0.225000X0.250000X-0.225000X0.250000X0.225000X0*%
%ADD13RoundRect,0.218750X-0.256250X0.218750X-0.256250X-0.218750X0.256250X-0.218750X0.256250X0.218750X0*%
%ADD14RoundRect,0.075000X-0.662500X-0.075000X0.662500X-0.075000X0.662500X0.075000X-0.662500X0.075000X0*%
%ADD15RoundRect,0.075000X-0.075000X-0.662500X0.075000X-0.662500X0.075000X0.662500X-0.075000X0.662500X0*%
%ADD16R,0.450000X1.750000*%
%ADD17R,2.000000X1.500000*%
%ADD18R,2.000000X3.800000*%
%ADD19RoundRect,0.225000X-0.225000X-0.250000X0.225000X-0.250000X0.225000X0.250000X-0.225000X0.250000X0*%
%ADD20R,0.400000X1.000000*%
%ADD21R,2.000000X1.300000*%
G04 APERTURE END LIST*
D10*
X96900000Y-148995000D03*
X96900000Y-147445000D03*
D11*
X99480000Y-156170000D03*
X97930000Y-156170000D03*
D12*
X114640000Y-161145000D03*
X114640000Y-162695000D03*
X92350000Y-155625000D03*
X92350000Y-157175000D03*
D13*
X93770000Y-147467500D03*
X93770000Y-149042500D03*
D10*
X109590000Y-146125000D03*
X109590000Y-144575000D03*
D14*
X99857500Y-153410000D03*
X99857500Y-152910000D03*
X99857500Y-152410000D03*
X99857500Y-151910000D03*
X99857500Y-151410000D03*
X99857500Y-150910000D03*
X99857500Y-150410000D03*
X99857500Y-149910000D03*
X99857500Y-149410000D03*
X99857500Y-148910000D03*
X99857500Y-148410000D03*
X99857500Y-147910000D03*
D15*
X101270000Y-146497500D03*
X101770000Y-146497500D03*
X102270000Y-146497500D03*
X102770000Y-146497500D03*
X103270000Y-146497500D03*
X103770000Y-146497500D03*
X104270000Y-146497500D03*
X104770000Y-146497500D03*
X105270000Y-146497500D03*
X105770000Y-146497500D03*
X106270000Y-146497500D03*
X106770000Y-146497500D03*
D14*
X108182500Y-147910000D03*
X108182500Y-148410000D03*
X108182500Y-148910000D03*
X108182500Y-149410000D03*
X108182500Y-149910000D03*
X108182500Y-150410000D03*
X108182500Y-150910000D03*
X108182500Y-151410000D03*
X108182500Y-151910000D03*
X108182500Y-152410000D03*
X108182500Y-152910000D03*
X108182500Y-153410000D03*
D15*
X106770000Y-154822500D03*
X106270000Y-154822500D03*
X105770000Y-154822500D03*
X105270000Y-154822500D03*
X104770000Y-154822500D03*
X104270000Y-154822500D03*
X103770000Y-154822500D03*
X103270000Y-154822500D03*
X102770000Y-154822500D03*
X102270000Y-154822500D03*
X101770000Y-154822500D03*
X101270000Y-154822500D03*
D10*
X95320000Y-149005000D03*
X95320000Y-147455000D03*
D16*
X85115000Y-159480000D03*
X84465000Y-159480000D03*
X83815000Y-159480000D03*
X83165000Y-159480000D03*
X82515000Y-159480000D03*
X81865000Y-159480000D03*
X81215000Y-159480000D03*
X80565000Y-159480000D03*
X79915000Y-159480000D03*
X79265000Y-159480000D03*
X78615000Y-159480000D03*
X77965000Y-159480000D03*
X77965000Y-152280000D03*
X78615000Y-152280000D03*
X79265000Y-152280000D03*
X79915000Y-152280000D03*
X80565000Y-152280000D03*
X81215000Y-152280000D03*
X81865000Y-152280000D03*
X82515000Y-152280000D03*
X83165000Y-152280000D03*
X83815000Y-152280000D03*
X84465000Y-152280000D03*
X85115000Y-152280000D03*
D11*
X99465000Y-154640000D03*
X97915000Y-154640000D03*
D17*
X86260000Y-144080000D03*
X86260000Y-146380000D03*
D18*
X79960000Y-146380000D03*
D17*
X86260000Y-148680000D03*
D19*
X108600000Y-154650000D03*
X110150000Y-154650000D03*
D20*
X92850000Y-139840000D03*
X93850000Y-139840000D03*
X94850000Y-139840000D03*
X95850000Y-139840000D03*
X96850000Y-139840000D03*
X97850000Y-139840000D03*
X98850000Y-139840000D03*
X99850000Y-139840000D03*
X100850000Y-139840000D03*
X101850000Y-139840000D03*
X102850000Y-139840000D03*
X103850000Y-139840000D03*
X104850000Y-139840000D03*
X105850000Y-139840000D03*
X106850000Y-139840000D03*
X107850000Y-139840000D03*
D21*
X90050000Y-137140000D03*
X110650000Y-137140000D03*
D12*
X113060000Y-161150000D03*
X113060000Y-162700000D03*
D17*
X86370000Y-136380000D03*
X86370000Y-138680000D03*
D18*
X80070000Y-138680000D03*
D17*
X86370000Y-140980000D03*
D10*
X108040000Y-146125000D03*
X108040000Y-144575000D03*
D16*
X115110000Y-151990000D03*
X115760000Y-151990000D03*
X116410000Y-151990000D03*
X117060000Y-151990000D03*
X117710000Y-151990000D03*
X118360000Y-151990000D03*
X119010000Y-151990000D03*
X119660000Y-151990000D03*
X120310000Y-151990000D03*
X120960000Y-151990000D03*
X121610000Y-151990000D03*
X122260000Y-151990000D03*
X122260000Y-159190000D03*
X121610000Y-159190000D03*
X120960000Y-159190000D03*
X120310000Y-159190000D03*
X119660000Y-159190000D03*
X119010000Y-159190000D03*
X118360000Y-159190000D03*
X117710000Y-159190000D03*
X117060000Y-159190000D03*
X116410000Y-159190000D03*
X115760000Y-159190000D03*
X115110000Y-159190000D03*
D12*
X92370000Y-150765000D03*
X92370000Y-152315000D03*
M02*
