G04 #@! TF.GenerationSoftware,KiCad,Pcbnew,7.0.1*
G04 #@! TF.CreationDate,2024-07-14T18:55:08+02:00*
G04 #@! TF.ProjectId,Gruzik2.0,4772757a-696b-4322-9e30-2e6b69636164,rev?*
G04 #@! TF.SameCoordinates,Original*
G04 #@! TF.FileFunction,Copper,L3,Inr*
G04 #@! TF.FilePolarity,Positive*
%FSLAX46Y46*%
G04 Gerber Fmt 4.6, Leading zero omitted, Abs format (unit mm)*
G04 Created by KiCad (PCBNEW 7.0.1) date 2024-07-14 18:55:08*
%MOMM*%
%LPD*%
G01*
G04 APERTURE LIST*
G04 #@! TA.AperFunction,ComponentPad*
%ADD10R,1.700000X1.700000*%
G04 #@! TD*
G04 #@! TA.AperFunction,ComponentPad*
%ADD11O,1.700000X1.700000*%
G04 #@! TD*
G04 #@! TA.AperFunction,ComponentPad*
%ADD12C,1.500000*%
G04 #@! TD*
G04 #@! TA.AperFunction,ViaPad*
%ADD13C,0.550000*%
G04 #@! TD*
G04 #@! TA.AperFunction,ViaPad*
%ADD14C,0.700000*%
G04 #@! TD*
G04 #@! TA.AperFunction,Conductor*
%ADD15C,1.500000*%
G04 #@! TD*
G04 #@! TA.AperFunction,Conductor*
%ADD16C,0.300000*%
G04 #@! TD*
G04 APERTURE END LIST*
D10*
X80610000Y-165630000D03*
D11*
X83150000Y-165630000D03*
D10*
X114030000Y-169660000D03*
D11*
X111490000Y-169660000D03*
D10*
X104420000Y-169540000D03*
D11*
X101880000Y-169540000D03*
X99340000Y-169540000D03*
X96800000Y-169540000D03*
X94260000Y-169540000D03*
D10*
X120360000Y-165600000D03*
D11*
X117820000Y-165600000D03*
D10*
X90385000Y-142000000D03*
D11*
X90385000Y-144540000D03*
D12*
X90560000Y-155620000D03*
X90560000Y-150740000D03*
D10*
X89910000Y-169500000D03*
D11*
X87370000Y-169500000D03*
X84830000Y-169500000D03*
X82290000Y-169500000D03*
D13*
X104450000Y-152300000D03*
D14*
X108040000Y-142840000D03*
D13*
X101530000Y-150550000D03*
D14*
X83897500Y-161412500D03*
X79930000Y-161200000D03*
D13*
X81215307Y-154304203D03*
X100820000Y-157110000D03*
D14*
X120050000Y-154010000D03*
D13*
X103240000Y-159650000D03*
X106840000Y-166650000D03*
D14*
X112310000Y-142050000D03*
X104170000Y-150950000D03*
X111300000Y-150430000D03*
X99480000Y-158744500D03*
X125310000Y-155890000D03*
X116020000Y-161710000D03*
X81760000Y-147160000D03*
X88000000Y-146440000D03*
X75070000Y-156010000D03*
X108120000Y-166310000D03*
X86010000Y-138610000D03*
X84310000Y-138680000D03*
X81940000Y-138680000D03*
X83180000Y-139810000D03*
X83200000Y-144460000D03*
D13*
X97900000Y-152490000D03*
D14*
X120770000Y-146810000D03*
D13*
X109710000Y-152410000D03*
X105920000Y-158700000D03*
X96390000Y-145650000D03*
X104260706Y-147790000D03*
D14*
X116690000Y-149700000D03*
D13*
X108210000Y-147240000D03*
X83170000Y-153830000D03*
X104714500Y-149170000D03*
X103430000Y-149790000D03*
X82520000Y-156200000D03*
X109706161Y-150110661D03*
X110768133Y-148914955D03*
X105040000Y-158040000D03*
X116415000Y-157210000D03*
X118445000Y-156750000D03*
X104760500Y-156324058D03*
X81865000Y-153930500D03*
X118040000Y-157490000D03*
X103894500Y-157270000D03*
X101540000Y-152350000D03*
X84115000Y-150605000D03*
X78660000Y-150340000D03*
X120050000Y-154870000D03*
X102300000Y-157420500D03*
X90920000Y-138480000D03*
X95515000Y-150069500D03*
D14*
X119800000Y-162040000D03*
X86450000Y-152300000D03*
X113420000Y-159910000D03*
X84690000Y-141340000D03*
X79380000Y-154900000D03*
X118760000Y-162070000D03*
X77080000Y-154940000D03*
D15*
X121750000Y-146810000D02*
X123880000Y-148940000D01*
X122430000Y-165600000D02*
X120360000Y-165600000D01*
X120770000Y-146810000D02*
X121750000Y-146810000D01*
X123880000Y-148940000D02*
X123880000Y-164150000D01*
X123880000Y-164150000D02*
X122430000Y-165600000D01*
D16*
X105920000Y-158700000D02*
X105920000Y-153660000D01*
X107170000Y-152410000D02*
X109710000Y-152410000D01*
X105920000Y-153660000D02*
X107170000Y-152410000D01*
X104260706Y-147790000D02*
X98530000Y-147790000D01*
X98530000Y-147790000D02*
X96390000Y-145650000D01*
D15*
X121770000Y-163800000D02*
X118560000Y-163800000D01*
X122180000Y-163390000D02*
X121770000Y-163800000D01*
X122180000Y-159250000D02*
X122180000Y-163390000D01*
X120080000Y-149700000D02*
X121460000Y-151080000D01*
X117820000Y-164540000D02*
X117820000Y-165600000D01*
X118560000Y-163800000D02*
X117820000Y-164540000D01*
X121460000Y-158530000D02*
X122180000Y-159250000D01*
X121460000Y-151080000D02*
X121460000Y-158530000D01*
X116690000Y-149700000D02*
X120080000Y-149700000D01*
D16*
X109790000Y-167330000D02*
X87000000Y-167330000D01*
X110380000Y-166740000D02*
X109790000Y-167330000D01*
X110380000Y-149410000D02*
X110380000Y-166740000D01*
X108210000Y-147240000D02*
X110380000Y-149410000D01*
X87000000Y-167330000D02*
X84830000Y-169500000D01*
X81865000Y-153930500D02*
X85979500Y-158045000D01*
X85979500Y-158045000D02*
X103119500Y-158045000D01*
X103119500Y-158045000D02*
X103894500Y-157270000D01*
X78660000Y-150340000D02*
X83850000Y-150340000D01*
X83850000Y-150340000D02*
X84115000Y-150605000D01*
X92757817Y-139560000D02*
X92000000Y-139560000D01*
X95515000Y-150065000D02*
X95515000Y-142317183D01*
X95515000Y-142317183D02*
X92757817Y-139560000D01*
X92000000Y-139560000D02*
X90920000Y-138480000D01*
G04 #@! TA.AperFunction,Conductor*
G36*
X109603111Y-152159162D02*
G01*
X109608581Y-152165066D01*
X109709112Y-152405486D01*
X109710018Y-152410000D01*
X109709112Y-152414514D01*
X109608581Y-152654933D01*
X109603111Y-152660837D01*
X109595121Y-152661811D01*
X109398809Y-152615877D01*
X109169033Y-152562113D01*
X109162533Y-152557992D01*
X109160000Y-152550722D01*
X109160000Y-152269278D01*
X109162533Y-152262008D01*
X109169033Y-152257886D01*
X109595123Y-152158188D01*
X109603111Y-152159162D01*
G37*
G04 #@! TD.AperFunction*
G04 #@! TA.AperFunction,Conductor*
G36*
X104153817Y-147539162D02*
G01*
X104159287Y-147545066D01*
X104259818Y-147785485D01*
X104260724Y-147789999D01*
X104259818Y-147794513D01*
X104159287Y-148034933D01*
X104153817Y-148040837D01*
X104145827Y-148041811D01*
X103949515Y-147995877D01*
X103719739Y-147942113D01*
X103713239Y-147937992D01*
X103710706Y-147930722D01*
X103710706Y-147649278D01*
X103713239Y-147642008D01*
X103719739Y-147637886D01*
X104145829Y-147538188D01*
X104153817Y-147539162D01*
G37*
G04 #@! TD.AperFunction*
G04 #@! TA.AperFunction,Conductor*
G36*
X91179288Y-138383173D02*
G01*
X91238956Y-138479293D01*
X91400352Y-138739288D01*
X91410080Y-138754958D01*
X91411763Y-138762471D01*
X91408413Y-138769402D01*
X91209402Y-138968413D01*
X91202471Y-138971763D01*
X91194958Y-138970080D01*
X90823173Y-138739288D01*
X90818212Y-138732950D01*
X90818520Y-138724907D01*
X90917436Y-138483819D01*
X90919987Y-138479987D01*
X90923819Y-138477436D01*
X91164907Y-138378519D01*
X91172950Y-138378212D01*
X91179288Y-138383173D01*
G37*
G04 #@! TD.AperFunction*
G04 #@! TA.AperFunction,Conductor*
G36*
X95662992Y-149522033D02*
G01*
X95667114Y-149528534D01*
X95766811Y-149954621D01*
X95765837Y-149962611D01*
X95759933Y-149968081D01*
X95519514Y-150068612D01*
X95515000Y-150069518D01*
X95510486Y-150068612D01*
X95270066Y-149968081D01*
X95264162Y-149962611D01*
X95263188Y-149954623D01*
X95362886Y-149528533D01*
X95367008Y-149522033D01*
X95374278Y-149519500D01*
X95655722Y-149519500D01*
X95662992Y-149522033D01*
G37*
G04 #@! TD.AperFunction*
G04 #@! TA.AperFunction,Conductor*
G36*
X108469288Y-147143173D02*
G01*
X108528956Y-147239293D01*
X108690352Y-147499288D01*
X108700080Y-147514958D01*
X108701763Y-147522471D01*
X108698413Y-147529402D01*
X108499402Y-147728413D01*
X108492471Y-147731763D01*
X108484958Y-147730080D01*
X108113173Y-147499288D01*
X108108212Y-147492950D01*
X108108520Y-147484907D01*
X108207436Y-147243819D01*
X108209987Y-147239987D01*
X108213819Y-147237436D01*
X108454907Y-147138519D01*
X108462950Y-147138212D01*
X108469288Y-147143173D01*
G37*
G04 #@! TD.AperFunction*
G04 #@! TA.AperFunction,Conductor*
G36*
X96649288Y-145553173D02*
G01*
X96708956Y-145649293D01*
X96870352Y-145909288D01*
X96880080Y-145924958D01*
X96881763Y-145932471D01*
X96878413Y-145939402D01*
X96679402Y-146138413D01*
X96672471Y-146141763D01*
X96664958Y-146140080D01*
X96293173Y-145909288D01*
X96288212Y-145902950D01*
X96288520Y-145894907D01*
X96387436Y-145653819D01*
X96389987Y-145649987D01*
X96393819Y-145647436D01*
X96634907Y-145548519D01*
X96642950Y-145548212D01*
X96649288Y-145553173D01*
G37*
G04 #@! TD.AperFunction*
G04 #@! TA.AperFunction,Conductor*
G36*
X117754626Y-163569529D02*
G01*
X118798779Y-164613682D01*
X118801592Y-164618214D01*
X118802100Y-164623524D01*
X118671369Y-165589877D01*
X118667477Y-165597115D01*
X118659785Y-165600008D01*
X117821633Y-165600705D01*
X117817134Y-165599810D01*
X117045473Y-165279194D01*
X117039155Y-165272871D01*
X117039144Y-165263935D01*
X117735536Y-163573343D01*
X117740490Y-163567677D01*
X117747873Y-163566201D01*
X117754626Y-163569529D01*
G37*
G04 #@! TD.AperFunction*
G04 #@! TA.AperFunction,Conductor*
G36*
X83943300Y-150269226D02*
G01*
X84207803Y-150347264D01*
X84213240Y-150350717D01*
X84216026Y-150356525D01*
X84215316Y-150362927D01*
X84116897Y-150602813D01*
X84114325Y-150606666D01*
X83929822Y-150790225D01*
X83924146Y-150793344D01*
X83917682Y-150792966D01*
X83912408Y-150789208D01*
X83677305Y-150493196D01*
X83674767Y-150485919D01*
X83674767Y-150205651D01*
X83676939Y-150198860D01*
X83682650Y-150194591D01*
X83689778Y-150194429D01*
X83943300Y-150269226D01*
G37*
G04 #@! TD.AperFunction*
G04 #@! TA.AperFunction,Conductor*
G36*
X85931305Y-168197143D02*
G01*
X86132856Y-168398694D01*
X86136010Y-168404454D01*
X86135564Y-168411006D01*
X85619498Y-169813861D01*
X85615889Y-169818907D01*
X85610208Y-169821399D01*
X85604051Y-169820636D01*
X84833785Y-169502562D01*
X84829978Y-169500021D01*
X84827438Y-169496216D01*
X84509363Y-168725948D01*
X84508600Y-168719791D01*
X84511092Y-168714110D01*
X84516137Y-168710501D01*
X85918996Y-168194434D01*
X85925545Y-168193989D01*
X85931305Y-168197143D01*
G37*
G04 #@! TD.AperFunction*
G04 #@! TA.AperFunction,Conductor*
G36*
X106067992Y-158152533D02*
G01*
X106072114Y-158159034D01*
X106171811Y-158585121D01*
X106170837Y-158593111D01*
X106164933Y-158598581D01*
X105924514Y-158699112D01*
X105920000Y-158700018D01*
X105915486Y-158699112D01*
X105675066Y-158598581D01*
X105669162Y-158593111D01*
X105668188Y-158585123D01*
X105767886Y-158159033D01*
X105772008Y-158152533D01*
X105779278Y-158150000D01*
X106060722Y-158150000D01*
X106067992Y-158152533D01*
G37*
G04 #@! TD.AperFunction*
G04 #@! TA.AperFunction,Conductor*
G36*
X125479033Y-134526649D02*
G01*
X125827632Y-134543774D01*
X125839740Y-134544966D01*
X126181966Y-134595731D01*
X126193880Y-134598101D01*
X126529494Y-134682168D01*
X126541132Y-134685699D01*
X126866862Y-134802248D01*
X126878103Y-134806904D01*
X127100710Y-134912188D01*
X127190863Y-134954827D01*
X127201580Y-134960555D01*
X127498324Y-135138417D01*
X127508442Y-135145177D01*
X127786329Y-135351272D01*
X127795735Y-135358992D01*
X128052079Y-135591329D01*
X128060670Y-135599920D01*
X128257808Y-135817428D01*
X128293007Y-135856264D01*
X128300727Y-135865670D01*
X128506822Y-136143557D01*
X128513582Y-136153675D01*
X128671332Y-136416865D01*
X128691437Y-136450407D01*
X128697174Y-136461140D01*
X128845095Y-136773896D01*
X128849751Y-136785137D01*
X128966300Y-137110867D01*
X128969833Y-137122512D01*
X129053895Y-137458106D01*
X129056269Y-137470041D01*
X129107032Y-137812258D01*
X129108225Y-137824368D01*
X129125351Y-138172966D01*
X129125500Y-138179051D01*
X129125500Y-143236137D01*
X129162616Y-143636686D01*
X129162617Y-143636691D01*
X129236534Y-144032113D01*
X129236536Y-144032120D01*
X129346617Y-144419019D01*
X129491939Y-144794139D01*
X129614291Y-145039853D01*
X129671246Y-145154234D01*
X129792594Y-145350218D01*
X129883016Y-145496254D01*
X130125439Y-145817275D01*
X130396445Y-146114554D01*
X130693724Y-146385560D01*
X131001264Y-146617803D01*
X131014748Y-146627985D01*
X131356766Y-146839754D01*
X131480554Y-146901393D01*
X131716860Y-147019060D01*
X131716864Y-147019061D01*
X131716865Y-147019062D01*
X132080668Y-147160000D01*
X132091980Y-147164382D01*
X132263370Y-147213146D01*
X132478887Y-147274466D01*
X132874309Y-147348383D01*
X133188412Y-147377489D01*
X133274863Y-147385500D01*
X133274864Y-147385500D01*
X133417512Y-147385500D01*
X133476000Y-147385500D01*
X133531514Y-147385500D01*
X152118376Y-147385500D01*
X152128614Y-147385923D01*
X152167344Y-147389132D01*
X152205038Y-147379586D01*
X152215030Y-147377491D01*
X152253381Y-147371092D01*
X152253382Y-147371091D01*
X152253773Y-147371026D01*
X152280404Y-147360635D01*
X152280738Y-147360416D01*
X152280741Y-147360416D01*
X152313282Y-147339154D01*
X152322073Y-147333916D01*
X152356258Y-147315418D01*
X152356258Y-147315417D01*
X152356612Y-147315226D01*
X152378421Y-147296754D01*
X152378666Y-147296438D01*
X152378669Y-147296437D01*
X152402537Y-147265768D01*
X152409159Y-147257951D01*
X152435484Y-147229356D01*
X152435485Y-147229352D01*
X152435753Y-147229062D01*
X152450386Y-147204506D01*
X152450516Y-147204127D01*
X152450517Y-147204126D01*
X152463138Y-147167360D01*
X152466862Y-147157819D01*
X152470125Y-147150381D01*
X152482473Y-147122232D01*
X152482473Y-147122227D01*
X152482632Y-147121866D01*
X152488500Y-147093889D01*
X152488500Y-147054624D01*
X152488923Y-147044386D01*
X152489288Y-147039976D01*
X152492132Y-147005656D01*
X152492131Y-147005652D01*
X152492164Y-147005255D01*
X152488500Y-146975858D01*
X152488500Y-146009500D01*
X152505113Y-145947500D01*
X152550500Y-145902113D01*
X152612500Y-145885500D01*
X155018376Y-145885500D01*
X155028614Y-145885923D01*
X155067344Y-145889132D01*
X155105038Y-145879586D01*
X155115030Y-145877491D01*
X155153381Y-145871092D01*
X155153382Y-145871091D01*
X155153773Y-145871026D01*
X155180404Y-145860635D01*
X155180738Y-145860416D01*
X155180741Y-145860416D01*
X155213282Y-145839154D01*
X155222073Y-145833916D01*
X155256258Y-145815418D01*
X155256258Y-145815417D01*
X155256612Y-145815226D01*
X155278421Y-145796754D01*
X155278666Y-145796438D01*
X155278669Y-145796437D01*
X155302537Y-145765768D01*
X155309159Y-145757951D01*
X155335484Y-145729356D01*
X155335485Y-145729352D01*
X155335753Y-145729062D01*
X155350386Y-145704506D01*
X155350516Y-145704127D01*
X155350517Y-145704126D01*
X155363138Y-145667360D01*
X155366862Y-145657819D01*
X155370125Y-145650381D01*
X155382473Y-145622232D01*
X155382473Y-145622227D01*
X155382632Y-145621866D01*
X155388500Y-145593889D01*
X155388500Y-145554624D01*
X155388923Y-145544386D01*
X155390901Y-145520509D01*
X155392132Y-145505656D01*
X155392131Y-145505652D01*
X155392164Y-145505255D01*
X155388500Y-145475858D01*
X155388500Y-144147872D01*
X155388566Y-144145000D01*
X158032531Y-144145000D01*
X158052364Y-144371689D01*
X158111261Y-144591497D01*
X158207432Y-144797735D01*
X158337953Y-144984140D01*
X158498859Y-145145046D01*
X158685264Y-145275567D01*
X158685265Y-145275567D01*
X158685266Y-145275568D01*
X158891504Y-145371739D01*
X159111308Y-145430635D01*
X159196261Y-145438067D01*
X159281214Y-145445500D01*
X159281216Y-145445500D01*
X159394784Y-145445500D01*
X159394786Y-145445500D01*
X159462747Y-145439553D01*
X159564692Y-145430635D01*
X159784496Y-145371739D01*
X159990734Y-145275568D01*
X160177139Y-145145047D01*
X160338047Y-144984139D01*
X160468568Y-144797734D01*
X160564739Y-144591496D01*
X160623635Y-144371692D01*
X160643468Y-144145000D01*
X160623635Y-143918308D01*
X160564739Y-143698504D01*
X160468568Y-143492266D01*
X160456847Y-143475527D01*
X160338046Y-143305859D01*
X160177140Y-143144953D01*
X159990735Y-143014432D01*
X159784497Y-142918261D01*
X159564689Y-142859364D01*
X159394786Y-142844500D01*
X159394784Y-142844500D01*
X159281216Y-142844500D01*
X159281214Y-142844500D01*
X159111310Y-142859364D01*
X158891502Y-142918261D01*
X158685264Y-143014432D01*
X158498859Y-143144953D01*
X158337953Y-143305859D01*
X158207432Y-143492264D01*
X158111261Y-143698502D01*
X158052364Y-143918310D01*
X158032531Y-144145000D01*
X155388566Y-144145000D01*
X155388632Y-144142145D01*
X155391204Y-144086512D01*
X155405083Y-143786300D01*
X155406140Y-143774905D01*
X155454958Y-143424944D01*
X155457058Y-143413708D01*
X155537961Y-143069732D01*
X155541084Y-143058753D01*
X155653387Y-142723685D01*
X155657510Y-142713046D01*
X155800245Y-142389781D01*
X155805328Y-142379572D01*
X155977278Y-142070862D01*
X155983304Y-142061130D01*
X156182999Y-141769612D01*
X156189881Y-141760498D01*
X156415636Y-141488630D01*
X156423332Y-141480190D01*
X156673190Y-141230332D01*
X156681630Y-141222636D01*
X156953498Y-140996881D01*
X156962612Y-140989999D01*
X157254136Y-140790300D01*
X157263862Y-140784278D01*
X157572572Y-140612328D01*
X157582781Y-140607245D01*
X157906046Y-140464510D01*
X157916685Y-140460387D01*
X158251753Y-140348084D01*
X158262732Y-140344961D01*
X158606708Y-140264058D01*
X158617944Y-140261958D01*
X158967914Y-140213139D01*
X158979300Y-140212083D01*
X159332290Y-140195764D01*
X159343710Y-140195764D01*
X159696697Y-140212083D01*
X159708086Y-140213139D01*
X160058051Y-140261957D01*
X160069295Y-140264059D01*
X160413261Y-140344959D01*
X160424251Y-140348086D01*
X160759306Y-140460385D01*
X160769960Y-140464513D01*
X161093209Y-140607241D01*
X161103436Y-140612333D01*
X161344689Y-140746710D01*
X161412131Y-140784275D01*
X161421869Y-140790304D01*
X161713374Y-140989990D01*
X161722511Y-140996890D01*
X161777456Y-141042515D01*
X161994356Y-141222626D01*
X162002820Y-141230343D01*
X162252656Y-141480179D01*
X162260373Y-141488643D01*
X162486107Y-141760485D01*
X162493009Y-141769625D01*
X162692695Y-142061130D01*
X162698724Y-142070868D01*
X162786137Y-142227804D01*
X162870289Y-142378887D01*
X162870659Y-142379550D01*
X162875762Y-142389799D01*
X163006339Y-142685527D01*
X163018481Y-142713026D01*
X163022619Y-142723706D01*
X163134909Y-143058735D01*
X163138043Y-143069751D01*
X163218938Y-143413696D01*
X163221043Y-143424955D01*
X163269859Y-143774905D01*
X163270916Y-143786309D01*
X163287368Y-144142145D01*
X163287500Y-144147872D01*
X163287500Y-161922128D01*
X163287368Y-161927855D01*
X163270916Y-162283690D01*
X163269859Y-162295094D01*
X163221043Y-162645044D01*
X163218938Y-162656303D01*
X163138043Y-163000248D01*
X163134909Y-163011264D01*
X163022619Y-163346293D01*
X163018481Y-163356973D01*
X162875764Y-163680196D01*
X162870659Y-163690449D01*
X162698724Y-163999131D01*
X162692695Y-164008869D01*
X162493009Y-164300374D01*
X162486107Y-164309514D01*
X162260373Y-164581356D01*
X162252656Y-164589820D01*
X162002820Y-164839656D01*
X161994356Y-164847373D01*
X161722514Y-165073107D01*
X161713374Y-165080009D01*
X161421869Y-165279695D01*
X161412131Y-165285724D01*
X161103449Y-165457659D01*
X161093196Y-165462764D01*
X160769973Y-165605481D01*
X160759293Y-165609619D01*
X160424264Y-165721909D01*
X160413248Y-165725043D01*
X160069303Y-165805938D01*
X160058044Y-165808043D01*
X159708094Y-165856859D01*
X159696690Y-165857916D01*
X159343727Y-165874235D01*
X159332273Y-165874235D01*
X158979309Y-165857916D01*
X158967905Y-165856859D01*
X158617955Y-165808043D01*
X158606696Y-165805938D01*
X158262751Y-165725043D01*
X158251735Y-165721909D01*
X157916706Y-165609619D01*
X157906026Y-165605481D01*
X157893613Y-165600000D01*
X157582799Y-165462762D01*
X157572555Y-165457661D01*
X157391786Y-165356974D01*
X157263868Y-165285724D01*
X157254130Y-165279695D01*
X156962625Y-165080009D01*
X156953485Y-165073107D01*
X156681643Y-164847373D01*
X156673179Y-164839656D01*
X156423343Y-164589820D01*
X156415626Y-164581356D01*
X156315603Y-164460902D01*
X156189890Y-164309511D01*
X156182990Y-164300374D01*
X155983304Y-164008869D01*
X155977275Y-163999131D01*
X155880273Y-163824979D01*
X155805333Y-163690436D01*
X155800241Y-163680209D01*
X155657513Y-163356960D01*
X155653385Y-163346306D01*
X155541086Y-163011251D01*
X155537959Y-163000261D01*
X155457059Y-162656295D01*
X155454956Y-162645044D01*
X155446098Y-162581545D01*
X155406139Y-162295086D01*
X155405083Y-162283690D01*
X155404126Y-162263000D01*
X155388632Y-161927855D01*
X155388566Y-161925000D01*
X158032531Y-161925000D01*
X158052364Y-162151689D01*
X158111261Y-162371497D01*
X158207432Y-162577735D01*
X158337953Y-162764140D01*
X158498859Y-162925046D01*
X158685264Y-163055567D01*
X158685265Y-163055567D01*
X158685266Y-163055568D01*
X158891504Y-163151739D01*
X159111308Y-163210635D01*
X159196261Y-163218067D01*
X159281214Y-163225500D01*
X159281216Y-163225500D01*
X159394784Y-163225500D01*
X159394786Y-163225500D01*
X159462747Y-163219553D01*
X159564692Y-163210635D01*
X159784496Y-163151739D01*
X159990734Y-163055568D01*
X160177139Y-162925047D01*
X160338047Y-162764139D01*
X160468568Y-162577734D01*
X160564739Y-162371496D01*
X160623635Y-162151692D01*
X160643468Y-161925000D01*
X160623635Y-161698308D01*
X160564739Y-161478504D01*
X160468568Y-161272266D01*
X160457648Y-161256671D01*
X160338046Y-161085859D01*
X160177140Y-160924953D01*
X159990735Y-160794432D01*
X159784497Y-160698261D01*
X159564689Y-160639364D01*
X159394786Y-160624500D01*
X159394784Y-160624500D01*
X159281216Y-160624500D01*
X159281214Y-160624500D01*
X159111310Y-160639364D01*
X158891502Y-160698261D01*
X158685264Y-160794432D01*
X158498859Y-160924953D01*
X158337953Y-161085859D01*
X158207432Y-161272264D01*
X158111261Y-161478502D01*
X158052364Y-161698310D01*
X158032531Y-161925000D01*
X155388566Y-161925000D01*
X155388500Y-161922128D01*
X155388500Y-160554624D01*
X155388923Y-160544386D01*
X155390901Y-160520509D01*
X155392132Y-160505656D01*
X155382592Y-160467983D01*
X155380488Y-160457951D01*
X155375892Y-160430407D01*
X155374092Y-160419619D01*
X155374090Y-160419616D01*
X155374026Y-160419228D01*
X155363632Y-160392588D01*
X155342157Y-160359717D01*
X155336911Y-160350914D01*
X155318228Y-160316391D01*
X155299751Y-160294575D01*
X155268770Y-160270462D01*
X155260951Y-160263839D01*
X155232069Y-160237252D01*
X155207501Y-160222611D01*
X155170370Y-160209863D01*
X155160827Y-160206139D01*
X155124870Y-160190367D01*
X155096886Y-160184500D01*
X155096488Y-160184500D01*
X155057624Y-160184500D01*
X155047386Y-160184077D01*
X155044302Y-160183821D01*
X155008655Y-160180868D01*
X155008255Y-160180835D01*
X154978858Y-160184500D01*
X152612500Y-160184500D01*
X152550500Y-160167887D01*
X152505113Y-160122500D01*
X152488500Y-160060500D01*
X152488500Y-159054624D01*
X152488923Y-159044386D01*
X152488975Y-159043755D01*
X152492132Y-159005656D01*
X152483399Y-158971170D01*
X152482592Y-158967983D01*
X152480488Y-158957951D01*
X152480421Y-158957547D01*
X152474092Y-158919619D01*
X152474090Y-158919616D01*
X152474026Y-158919228D01*
X152463632Y-158892588D01*
X152442157Y-158859717D01*
X152436911Y-158850914D01*
X152418228Y-158816391D01*
X152399751Y-158794575D01*
X152368770Y-158770462D01*
X152360951Y-158763839D01*
X152332069Y-158737252D01*
X152307501Y-158722611D01*
X152270370Y-158709863D01*
X152260827Y-158706139D01*
X152224870Y-158690367D01*
X152196886Y-158684500D01*
X152196488Y-158684500D01*
X152157624Y-158684500D01*
X152147386Y-158684077D01*
X152144302Y-158683821D01*
X152108655Y-158680868D01*
X152108255Y-158680835D01*
X152078858Y-158684500D01*
X133274863Y-158684500D01*
X132874313Y-158721616D01*
X132775369Y-158740112D01*
X132478887Y-158795534D01*
X132478881Y-158795535D01*
X132478879Y-158795536D01*
X132091980Y-158905617D01*
X131716860Y-159050939D01*
X131356769Y-159230244D01*
X131014745Y-159442016D01*
X130693724Y-159684439D01*
X130396445Y-159955445D01*
X130125439Y-160252724D01*
X129883016Y-160573745D01*
X129671244Y-160915769D01*
X129491939Y-161275860D01*
X129346617Y-161650980D01*
X129243521Y-162013329D01*
X129236534Y-162037887D01*
X129197294Y-162247803D01*
X129162616Y-162433313D01*
X129125500Y-162833863D01*
X129125500Y-167890949D01*
X129125351Y-167897034D01*
X129108225Y-168245631D01*
X129107032Y-168257741D01*
X129056269Y-168599958D01*
X129053895Y-168611893D01*
X128969833Y-168947487D01*
X128966300Y-168959132D01*
X128849751Y-169284862D01*
X128845095Y-169296103D01*
X128697174Y-169608859D01*
X128691437Y-169619592D01*
X128513582Y-169916324D01*
X128506822Y-169926442D01*
X128300727Y-170204329D01*
X128293007Y-170213735D01*
X128060677Y-170470072D01*
X128052072Y-170478677D01*
X127795735Y-170711007D01*
X127786329Y-170718727D01*
X127508442Y-170924822D01*
X127498324Y-170931582D01*
X127201592Y-171109437D01*
X127190859Y-171115174D01*
X126878103Y-171263095D01*
X126866862Y-171267751D01*
X126541132Y-171384300D01*
X126529487Y-171387833D01*
X126193893Y-171471895D01*
X126181958Y-171474269D01*
X125839741Y-171525032D01*
X125827631Y-171526225D01*
X125497960Y-171542421D01*
X125479032Y-171543351D01*
X125472949Y-171543500D01*
X75187051Y-171543500D01*
X75180967Y-171543351D01*
X75160920Y-171542366D01*
X74832368Y-171526225D01*
X74820258Y-171525032D01*
X74478041Y-171474269D01*
X74466106Y-171471895D01*
X74130512Y-171387833D01*
X74118867Y-171384300D01*
X73793137Y-171267751D01*
X73781896Y-171263095D01*
X73469140Y-171115174D01*
X73458412Y-171109439D01*
X73165547Y-170933903D01*
X73161675Y-170931582D01*
X73151557Y-170924822D01*
X72873670Y-170718727D01*
X72864264Y-170711007D01*
X72733057Y-170592088D01*
X72607920Y-170478670D01*
X72599329Y-170470079D01*
X72366992Y-170213735D01*
X72359272Y-170204329D01*
X72153177Y-169926442D01*
X72146417Y-169916324D01*
X71968555Y-169619580D01*
X71962825Y-169608859D01*
X71930257Y-169540000D01*
X71875674Y-169424592D01*
X71814904Y-169296103D01*
X71810248Y-169284862D01*
X71693699Y-168959132D01*
X71690166Y-168947487D01*
X71676780Y-168894046D01*
X71606101Y-168611880D01*
X71603730Y-168599958D01*
X71600633Y-168579083D01*
X71552966Y-168257740D01*
X71551774Y-168245630D01*
X71550814Y-168226097D01*
X71534649Y-167897033D01*
X71534575Y-167893999D01*
X73878531Y-167893999D01*
X73898364Y-168120689D01*
X73957261Y-168340497D01*
X74053432Y-168546735D01*
X74183953Y-168733140D01*
X74344859Y-168894046D01*
X74531264Y-169024567D01*
X74531265Y-169024567D01*
X74531266Y-169024568D01*
X74737504Y-169120739D01*
X74957308Y-169179635D01*
X75042261Y-169187067D01*
X75127214Y-169194500D01*
X75127216Y-169194500D01*
X75240784Y-169194500D01*
X75240786Y-169194500D01*
X75308747Y-169188553D01*
X75410692Y-169179635D01*
X75630496Y-169120739D01*
X75836734Y-169024568D01*
X76023139Y-168894047D01*
X76184047Y-168733139D01*
X76314568Y-168546734D01*
X76410739Y-168340496D01*
X76469635Y-168120692D01*
X76489468Y-167894000D01*
X76469635Y-167667308D01*
X76410739Y-167447504D01*
X76314568Y-167241266D01*
X76265392Y-167171035D01*
X76184046Y-167054859D01*
X76023140Y-166893953D01*
X75836735Y-166763432D01*
X75630497Y-166667261D01*
X75410689Y-166608364D01*
X75240786Y-166593500D01*
X75240784Y-166593500D01*
X75127216Y-166593500D01*
X75127214Y-166593500D01*
X74957310Y-166608364D01*
X74737502Y-166667261D01*
X74531264Y-166763432D01*
X74344859Y-166893953D01*
X74183953Y-167054859D01*
X74053432Y-167241264D01*
X73957261Y-167447502D01*
X73898364Y-167667310D01*
X73878531Y-167893999D01*
X71534575Y-167893999D01*
X71534500Y-167890949D01*
X71534500Y-166527869D01*
X79259500Y-166527869D01*
X79265909Y-166587484D01*
X79278310Y-166620731D01*
X79316204Y-166722331D01*
X79402454Y-166837546D01*
X79517669Y-166923796D01*
X79652517Y-166974091D01*
X79712127Y-166980500D01*
X81507872Y-166980499D01*
X81567483Y-166974091D01*
X81702331Y-166923796D01*
X81817546Y-166837546D01*
X81903796Y-166722331D01*
X81952810Y-166590916D01*
X81987789Y-166540537D01*
X82042634Y-166513084D01*
X82103927Y-166515273D01*
X82156673Y-166546569D01*
X82278599Y-166668495D01*
X82472170Y-166804035D01*
X82686337Y-166903903D01*
X82914592Y-166965063D01*
X83150000Y-166985659D01*
X83385408Y-166965063D01*
X83613663Y-166903903D01*
X83827830Y-166804035D01*
X84021401Y-166668495D01*
X84188495Y-166501401D01*
X84324035Y-166307830D01*
X84423903Y-166093663D01*
X84485063Y-165865408D01*
X84505659Y-165630000D01*
X84504609Y-165618004D01*
X84485063Y-165394592D01*
X84455144Y-165282933D01*
X84423903Y-165166337D01*
X84324035Y-164952171D01*
X84188495Y-164758599D01*
X84021401Y-164591505D01*
X83827830Y-164455965D01*
X83613663Y-164356097D01*
X83552502Y-164339709D01*
X83385407Y-164294936D01*
X83150000Y-164274340D01*
X82914592Y-164294936D01*
X82686336Y-164356097D01*
X82472170Y-164455965D01*
X82278601Y-164591503D01*
X82156673Y-164713431D01*
X82103926Y-164744726D01*
X82042634Y-164746915D01*
X81987789Y-164719462D01*
X81952810Y-164669082D01*
X81945658Y-164649907D01*
X81903796Y-164537669D01*
X81817546Y-164422454D01*
X81702331Y-164336204D01*
X81567483Y-164285909D01*
X81507873Y-164279500D01*
X81507869Y-164279500D01*
X79712130Y-164279500D01*
X79652515Y-164285909D01*
X79517669Y-164336204D01*
X79402454Y-164422454D01*
X79316204Y-164537668D01*
X79265909Y-164672516D01*
X79259500Y-164732130D01*
X79259500Y-166527869D01*
X71534500Y-166527869D01*
X71534500Y-162833863D01*
X71519061Y-162667250D01*
X71497383Y-162433309D01*
X71423466Y-162037887D01*
X71344496Y-161760335D01*
X71313382Y-161650980D01*
X71280977Y-161567334D01*
X71168062Y-161275865D01*
X71143566Y-161226671D01*
X71130285Y-161200000D01*
X79074815Y-161200000D01*
X79093503Y-161377804D01*
X79148749Y-161547835D01*
X79238140Y-161702665D01*
X79357771Y-161835527D01*
X79502403Y-161940610D01*
X79665735Y-162013330D01*
X79840607Y-162050500D01*
X79840609Y-162050500D01*
X80019391Y-162050500D01*
X80019393Y-162050500D01*
X80194264Y-162013330D01*
X80194265Y-162013329D01*
X80194267Y-162013329D01*
X80357593Y-161940612D01*
X80502230Y-161835526D01*
X80621859Y-161702665D01*
X80711250Y-161547835D01*
X80755223Y-161412500D01*
X83042315Y-161412500D01*
X83061003Y-161590304D01*
X83116249Y-161760335D01*
X83205640Y-161915165D01*
X83325271Y-162048027D01*
X83469903Y-162153110D01*
X83633235Y-162225830D01*
X83808107Y-162263000D01*
X83808109Y-162263000D01*
X83986891Y-162263000D01*
X83986893Y-162263000D01*
X84161764Y-162225830D01*
X84161765Y-162225829D01*
X84161767Y-162225829D01*
X84325093Y-162153112D01*
X84327048Y-162151692D01*
X84366159Y-162123274D01*
X84469730Y-162048026D01*
X84589359Y-161915165D01*
X84678750Y-161760335D01*
X84733997Y-161590303D01*
X84752685Y-161412500D01*
X84733997Y-161234697D01*
X84685637Y-161085861D01*
X84678750Y-161064664D01*
X84589359Y-160909834D01*
X84469728Y-160776972D01*
X84325096Y-160671889D01*
X84161764Y-160599169D01*
X83986893Y-160562000D01*
X83986891Y-160562000D01*
X83808109Y-160562000D01*
X83808107Y-160562000D01*
X83633235Y-160599169D01*
X83469908Y-160671887D01*
X83325268Y-160776974D01*
X83205640Y-160909834D01*
X83116249Y-161064664D01*
X83061003Y-161234695D01*
X83042315Y-161412500D01*
X80755223Y-161412500D01*
X80766497Y-161377803D01*
X80785185Y-161200000D01*
X80766497Y-161022197D01*
X80725710Y-160896669D01*
X80711250Y-160852164D01*
X80621859Y-160697334D01*
X80502228Y-160564472D01*
X80357596Y-160459389D01*
X80194264Y-160386669D01*
X80019393Y-160349500D01*
X80019391Y-160349500D01*
X79840609Y-160349500D01*
X79840607Y-160349500D01*
X79665735Y-160386669D01*
X79502408Y-160459387D01*
X79357768Y-160564474D01*
X79238140Y-160697334D01*
X79148749Y-160852164D01*
X79093503Y-161022195D01*
X79074815Y-161200000D01*
X71130285Y-161200000D01*
X71015455Y-160969389D01*
X70988754Y-160915766D01*
X70776985Y-160573748D01*
X70769883Y-160564344D01*
X70534560Y-160252724D01*
X70263554Y-159955445D01*
X69966275Y-159684439D01*
X69645254Y-159442016D01*
X69487996Y-159344646D01*
X69303234Y-159230246D01*
X69190223Y-159173973D01*
X68943139Y-159050939D01*
X68568019Y-158905617D01*
X68181120Y-158795536D01*
X68181113Y-158795534D01*
X67811342Y-158726412D01*
X67785686Y-158721616D01*
X67385137Y-158684500D01*
X67385136Y-158684500D01*
X67242488Y-158684500D01*
X48541624Y-158684500D01*
X48531386Y-158684077D01*
X48528598Y-158683846D01*
X48492655Y-158680868D01*
X48492653Y-158680868D01*
X48454977Y-158690408D01*
X48444952Y-158692510D01*
X48406232Y-158698972D01*
X48379587Y-158709368D01*
X48346720Y-158730841D01*
X48337920Y-158736085D01*
X48303393Y-158754770D01*
X48281571Y-158773253D01*
X48257463Y-158804227D01*
X48250842Y-158812045D01*
X48224247Y-158840935D01*
X48209613Y-158865494D01*
X48209483Y-158865874D01*
X48198862Y-158896812D01*
X48196869Y-158902616D01*
X48193145Y-158912158D01*
X48177368Y-158948127D01*
X48171500Y-158976115D01*
X48171500Y-159015376D01*
X48171076Y-159025614D01*
X48170001Y-159038607D01*
X48167835Y-159064744D01*
X48171500Y-159094142D01*
X48171500Y-160060500D01*
X48154887Y-160122500D01*
X48109500Y-160167887D01*
X48047500Y-160184500D01*
X45641624Y-160184500D01*
X45631386Y-160184077D01*
X45628598Y-160183846D01*
X45592655Y-160180868D01*
X45592653Y-160180868D01*
X45554977Y-160190408D01*
X45544952Y-160192510D01*
X45506232Y-160198972D01*
X45479587Y-160209368D01*
X45446720Y-160230841D01*
X45437920Y-160236085D01*
X45403393Y-160254770D01*
X45381571Y-160273253D01*
X45357463Y-160304227D01*
X45350842Y-160312045D01*
X45324247Y-160340935D01*
X45309613Y-160365494D01*
X45309483Y-160365874D01*
X45300312Y-160392588D01*
X45296869Y-160402616D01*
X45293145Y-160412158D01*
X45277368Y-160448127D01*
X45271500Y-160476115D01*
X45271500Y-160515376D01*
X45271077Y-160525614D01*
X45267835Y-160564744D01*
X45271500Y-160594142D01*
X45271500Y-161922128D01*
X45271368Y-161927855D01*
X45254916Y-162283690D01*
X45253859Y-162295094D01*
X45205043Y-162645044D01*
X45202938Y-162656303D01*
X45122043Y-163000248D01*
X45118909Y-163011264D01*
X45006619Y-163346293D01*
X45002481Y-163356973D01*
X44859764Y-163680196D01*
X44854659Y-163690449D01*
X44682724Y-163999131D01*
X44676695Y-164008869D01*
X44477009Y-164300374D01*
X44470107Y-164309514D01*
X44244373Y-164581356D01*
X44236656Y-164589820D01*
X43986820Y-164839656D01*
X43978356Y-164847373D01*
X43706514Y-165073107D01*
X43697374Y-165080009D01*
X43405869Y-165279695D01*
X43396131Y-165285724D01*
X43087449Y-165457659D01*
X43077196Y-165462764D01*
X42753973Y-165605481D01*
X42743293Y-165609619D01*
X42408264Y-165721909D01*
X42397248Y-165725043D01*
X42053303Y-165805938D01*
X42042044Y-165808043D01*
X41692094Y-165856859D01*
X41680690Y-165857916D01*
X41327727Y-165874235D01*
X41316273Y-165874235D01*
X40963309Y-165857916D01*
X40951905Y-165856859D01*
X40601955Y-165808043D01*
X40590696Y-165805938D01*
X40246751Y-165725043D01*
X40235735Y-165721909D01*
X39900706Y-165609619D01*
X39890026Y-165605481D01*
X39877613Y-165600000D01*
X39566799Y-165462762D01*
X39556555Y-165457661D01*
X39375786Y-165356974D01*
X39247868Y-165285724D01*
X39238130Y-165279695D01*
X38946625Y-165080009D01*
X38937485Y-165073107D01*
X38665643Y-164847373D01*
X38657179Y-164839656D01*
X38407343Y-164589820D01*
X38399626Y-164581356D01*
X38299603Y-164460902D01*
X38173890Y-164309511D01*
X38166990Y-164300374D01*
X37967304Y-164008869D01*
X37961275Y-163999131D01*
X37864273Y-163824979D01*
X37789333Y-163690436D01*
X37784241Y-163680209D01*
X37641513Y-163356960D01*
X37637385Y-163346306D01*
X37525086Y-163011251D01*
X37521959Y-163000261D01*
X37441059Y-162656295D01*
X37438956Y-162645044D01*
X37430098Y-162581545D01*
X37390139Y-162295086D01*
X37389083Y-162283690D01*
X37388126Y-162263000D01*
X37372632Y-161927855D01*
X37372566Y-161925000D01*
X40016531Y-161925000D01*
X40036364Y-162151689D01*
X40095261Y-162371497D01*
X40191432Y-162577735D01*
X40321953Y-162764140D01*
X40482859Y-162925046D01*
X40669264Y-163055567D01*
X40669265Y-163055567D01*
X40669266Y-163055568D01*
X40875504Y-163151739D01*
X41095308Y-163210635D01*
X41180261Y-163218067D01*
X41265214Y-163225500D01*
X41265216Y-163225500D01*
X41378784Y-163225500D01*
X41378786Y-163225500D01*
X41446747Y-163219553D01*
X41548692Y-163210635D01*
X41768496Y-163151739D01*
X41974734Y-163055568D01*
X42161139Y-162925047D01*
X42322047Y-162764139D01*
X42452568Y-162577734D01*
X42548739Y-162371496D01*
X42607635Y-162151692D01*
X42627468Y-161925000D01*
X42607635Y-161698308D01*
X42548739Y-161478504D01*
X42452568Y-161272266D01*
X42441648Y-161256671D01*
X42322046Y-161085859D01*
X42161140Y-160924953D01*
X41974735Y-160794432D01*
X41768497Y-160698261D01*
X41548689Y-160639364D01*
X41378786Y-160624500D01*
X41378784Y-160624500D01*
X41265216Y-160624500D01*
X41265214Y-160624500D01*
X41095310Y-160639364D01*
X40875502Y-160698261D01*
X40669264Y-160794432D01*
X40482859Y-160924953D01*
X40321953Y-161085859D01*
X40191432Y-161272264D01*
X40095261Y-161478502D01*
X40036364Y-161698310D01*
X40016531Y-161925000D01*
X37372566Y-161925000D01*
X37372500Y-161922128D01*
X37372500Y-156010000D01*
X74214815Y-156010000D01*
X74233503Y-156187804D01*
X74288749Y-156357835D01*
X74378140Y-156512665D01*
X74497771Y-156645527D01*
X74642403Y-156750610D01*
X74642406Y-156750611D01*
X74642407Y-156750612D01*
X74751290Y-156799089D01*
X74805735Y-156823330D01*
X74980607Y-156860500D01*
X74980609Y-156860500D01*
X75159391Y-156860500D01*
X75159393Y-156860500D01*
X75334264Y-156823330D01*
X75334265Y-156823329D01*
X75334267Y-156823329D01*
X75497593Y-156750612D01*
X75498436Y-156750000D01*
X75585730Y-156686576D01*
X75642230Y-156645526D01*
X75761859Y-156512665D01*
X75851250Y-156357835D01*
X75906497Y-156187803D01*
X75925185Y-156010000D01*
X75906497Y-155832197D01*
X75867874Y-155713329D01*
X75851250Y-155662164D01*
X75761859Y-155507334D01*
X75642228Y-155374472D01*
X75497596Y-155269389D01*
X75334264Y-155196669D01*
X75159393Y-155159500D01*
X75159391Y-155159500D01*
X74980609Y-155159500D01*
X74980607Y-155159500D01*
X74805735Y-155196669D01*
X74642408Y-155269387D01*
X74497768Y-155374474D01*
X74378140Y-155507334D01*
X74288749Y-155662164D01*
X74233503Y-155832195D01*
X74214815Y-156010000D01*
X37372500Y-156010000D01*
X37372500Y-154940000D01*
X76224815Y-154940000D01*
X76230318Y-154992361D01*
X76243503Y-155117804D01*
X76298749Y-155287835D01*
X76388140Y-155442665D01*
X76496232Y-155562712D01*
X76505605Y-155573122D01*
X76507771Y-155575527D01*
X76652403Y-155680610D01*
X76652406Y-155680611D01*
X76652407Y-155680612D01*
X76727196Y-155713910D01*
X76815735Y-155753330D01*
X76990607Y-155790500D01*
X76990609Y-155790500D01*
X77169391Y-155790500D01*
X77169393Y-155790500D01*
X77344264Y-155753330D01*
X77344265Y-155753329D01*
X77344267Y-155753329D01*
X77507593Y-155680612D01*
X77652230Y-155575526D01*
X77771859Y-155442665D01*
X77861250Y-155287835D01*
X77916497Y-155117803D01*
X77935185Y-154940000D01*
X77930981Y-154900000D01*
X78524815Y-154900000D01*
X78543503Y-155077804D01*
X78598749Y-155247835D01*
X78688140Y-155402665D01*
X78807771Y-155535527D01*
X78952403Y-155640610D01*
X78952406Y-155640611D01*
X78952407Y-155640612D01*
X79042249Y-155680612D01*
X79115735Y-155713330D01*
X79290607Y-155750500D01*
X79290609Y-155750500D01*
X79469391Y-155750500D01*
X79469393Y-155750500D01*
X79644264Y-155713330D01*
X79644265Y-155713329D01*
X79644267Y-155713329D01*
X79807593Y-155640612D01*
X79821042Y-155630841D01*
X79914812Y-155562712D01*
X79952230Y-155535526D01*
X80071859Y-155402665D01*
X80161250Y-155247835D01*
X80216497Y-155077803D01*
X80235185Y-154900000D01*
X80216497Y-154722197D01*
X80161250Y-154552165D01*
X80161250Y-154552164D01*
X80071859Y-154397334D01*
X79988002Y-154304203D01*
X80434899Y-154304203D01*
X80454465Y-154477860D01*
X80512184Y-154642809D01*
X80605159Y-154790779D01*
X80728730Y-154914350D01*
X80876700Y-155007325D01*
X81041649Y-155065044D01*
X81215307Y-155084610D01*
X81388964Y-155065044D01*
X81553913Y-155007325D01*
X81601380Y-154977500D01*
X81701879Y-154914353D01*
X81701880Y-154914351D01*
X81701883Y-154914350D01*
X81727713Y-154888519D01*
X81783297Y-154856427D01*
X81847485Y-154856426D01*
X81903074Y-154888520D01*
X82286337Y-155271783D01*
X82317810Y-155325136D01*
X82319547Y-155387055D01*
X82291117Y-155442090D01*
X82239613Y-155476505D01*
X82181392Y-155496878D01*
X82033423Y-155589852D01*
X81909852Y-155713423D01*
X81816877Y-155861393D01*
X81759158Y-156026342D01*
X81739592Y-156199999D01*
X81759158Y-156373657D01*
X81816877Y-156538606D01*
X81909852Y-156686576D01*
X82033423Y-156810147D01*
X82181393Y-156903122D01*
X82346342Y-156960841D01*
X82520000Y-156980407D01*
X82693657Y-156960841D01*
X82858606Y-156903122D01*
X83006576Y-156810147D01*
X83130147Y-156686576D01*
X83223122Y-156538606D01*
X83233426Y-156509159D01*
X83243494Y-156480388D01*
X83277908Y-156428883D01*
X83332943Y-156400452D01*
X83394863Y-156402189D01*
X83448216Y-156433662D01*
X85459064Y-158444510D01*
X85472412Y-158461169D01*
X85525331Y-158510864D01*
X85528128Y-158513575D01*
X85548462Y-158533909D01*
X85551943Y-158536609D01*
X85560826Y-158544195D01*
X85594107Y-158575448D01*
X85612698Y-158585668D01*
X85628962Y-158596351D01*
X85645735Y-158609362D01*
X85687638Y-158627495D01*
X85698126Y-158632633D01*
X85738132Y-158654627D01*
X85758697Y-158659906D01*
X85777093Y-158666205D01*
X85796574Y-158674636D01*
X85841678Y-158681779D01*
X85853097Y-158684144D01*
X85897323Y-158695500D01*
X85918545Y-158695500D01*
X85937943Y-158697026D01*
X85958905Y-158700347D01*
X86004363Y-158696049D01*
X86016031Y-158695500D01*
X98508015Y-158695500D01*
X98566229Y-158710014D01*
X98610816Y-158750160D01*
X98631335Y-158806536D01*
X98636547Y-158856119D01*
X98643503Y-158922304D01*
X98698749Y-159092335D01*
X98788140Y-159247165D01*
X98907771Y-159380027D01*
X99052403Y-159485110D01*
X99215735Y-159557830D01*
X99390607Y-159595000D01*
X99390609Y-159595000D01*
X99569391Y-159595000D01*
X99569393Y-159595000D01*
X99744264Y-159557830D01*
X99744265Y-159557829D01*
X99744267Y-159557829D01*
X99907593Y-159485112D01*
X99919663Y-159476343D01*
X99991495Y-159424153D01*
X100052230Y-159380026D01*
X100171859Y-159247165D01*
X100261250Y-159092335D01*
X100316497Y-158922303D01*
X100328664Y-158806536D01*
X100349184Y-158750160D01*
X100393771Y-158710014D01*
X100451985Y-158695500D01*
X102889979Y-158695500D01*
X102955951Y-158714506D01*
X103001699Y-158765698D01*
X103013199Y-158833383D01*
X102986926Y-158896812D01*
X102930934Y-158936541D01*
X102901393Y-158946877D01*
X102753423Y-159039852D01*
X102629852Y-159163423D01*
X102536877Y-159311393D01*
X102479158Y-159476342D01*
X102459592Y-159650000D01*
X102479158Y-159823657D01*
X102536877Y-159988606D01*
X102629852Y-160136576D01*
X102753423Y-160260147D01*
X102901393Y-160353122D01*
X103066342Y-160410841D01*
X103240000Y-160430407D01*
X103413657Y-160410841D01*
X103578606Y-160353122D01*
X103726576Y-160260147D01*
X103850147Y-160136576D01*
X103943122Y-159988606D01*
X104000841Y-159823657D01*
X104020407Y-159650000D01*
X104010511Y-159562165D01*
X104000841Y-159476342D01*
X103943122Y-159311393D01*
X103850147Y-159163423D01*
X103726576Y-159039852D01*
X103578606Y-158946877D01*
X103413656Y-158889158D01*
X103403960Y-158888066D01*
X103341667Y-158862687D01*
X103301790Y-158808517D01*
X103296063Y-158741496D01*
X103326173Y-158681346D01*
X103367078Y-158655851D01*
X103366410Y-158654721D01*
X103379895Y-158646744D01*
X103379898Y-158646744D01*
X103398170Y-158635936D01*
X103415636Y-158627380D01*
X103435371Y-158619568D01*
X103472316Y-158592725D01*
X103482048Y-158586332D01*
X103521365Y-158563081D01*
X103536374Y-158548071D01*
X103551163Y-158535439D01*
X103568337Y-158522963D01*
X103597446Y-158487774D01*
X103605290Y-158479154D01*
X103899076Y-158185368D01*
X103921349Y-158167704D01*
X104084275Y-158066565D01*
X104143224Y-158048087D01*
X104203776Y-158060346D01*
X104250898Y-158100301D01*
X104272891Y-158158034D01*
X104279158Y-158213657D01*
X104336877Y-158378606D01*
X104429852Y-158526576D01*
X104553423Y-158650147D01*
X104701393Y-158743122D01*
X104866342Y-158800841D01*
X105053884Y-158821972D01*
X105053845Y-158822317D01*
X105093281Y-158826759D01*
X105140010Y-158856119D01*
X105169372Y-158902846D01*
X105216878Y-159038607D01*
X105309852Y-159186576D01*
X105433423Y-159310147D01*
X105581393Y-159403122D01*
X105746342Y-159460841D01*
X105920000Y-159480407D01*
X106093657Y-159460841D01*
X106258606Y-159403122D01*
X106406576Y-159310147D01*
X106530147Y-159186576D01*
X106623122Y-159038606D01*
X106680841Y-158873657D01*
X106700407Y-158700000D01*
X106680841Y-158526343D01*
X106670022Y-158495427D01*
X106664313Y-158472026D01*
X106664016Y-158469949D01*
X106661635Y-158459775D01*
X106573760Y-158084214D01*
X106570500Y-158055964D01*
X106570500Y-153980808D01*
X106579939Y-153933355D01*
X106606819Y-153893127D01*
X107403127Y-153096819D01*
X107443355Y-153069939D01*
X107490808Y-153060500D01*
X109065966Y-153060500D01*
X109094216Y-153063760D01*
X109479952Y-153154017D01*
X109482019Y-153154312D01*
X109505429Y-153160023D01*
X109532962Y-153169658D01*
X109536343Y-153170841D01*
X109619384Y-153180198D01*
X109675352Y-153200964D01*
X109715130Y-153245477D01*
X109729500Y-153303418D01*
X109729500Y-166419192D01*
X109720061Y-166466645D01*
X109693181Y-166506873D01*
X109556873Y-166643181D01*
X109516645Y-166670061D01*
X109469192Y-166679500D01*
X109064882Y-166679500D01*
X109008587Y-166665985D01*
X108964564Y-166628386D01*
X108942409Y-166574898D01*
X108946951Y-166517182D01*
X108947571Y-166515273D01*
X108956497Y-166487803D01*
X108975185Y-166310000D01*
X108956497Y-166132197D01*
X108901250Y-165962165D01*
X108901250Y-165962164D01*
X108811859Y-165807334D01*
X108692228Y-165674472D01*
X108547596Y-165569389D01*
X108384264Y-165496669D01*
X108209393Y-165459500D01*
X108209391Y-165459500D01*
X108030609Y-165459500D01*
X108030607Y-165459500D01*
X107855735Y-165496669D01*
X107692408Y-165569387D01*
X107547768Y-165674474D01*
X107428140Y-165807335D01*
X107366958Y-165913305D01*
X107320227Y-165959457D01*
X107256479Y-165975266D01*
X107193600Y-165956299D01*
X107178606Y-165946878D01*
X107178603Y-165946876D01*
X107013657Y-165889158D01*
X106840000Y-165869592D01*
X106666342Y-165889158D01*
X106501393Y-165946877D01*
X106353423Y-166039852D01*
X106229852Y-166163423D01*
X106136877Y-166311393D01*
X106079158Y-166476343D01*
X106068676Y-166569383D01*
X106047910Y-166625351D01*
X106003397Y-166665130D01*
X105945456Y-166679500D01*
X87085504Y-166679500D01*
X87064294Y-166677158D01*
X86991737Y-166679439D01*
X86987842Y-166679500D01*
X86959071Y-166679500D01*
X86954690Y-166680053D01*
X86943059Y-166680968D01*
X86897430Y-166682402D01*
X86877051Y-166688323D01*
X86858007Y-166692267D01*
X86843639Y-166694082D01*
X86836941Y-166694929D01*
X86794490Y-166711736D01*
X86783443Y-166715518D01*
X86739598Y-166728256D01*
X86721330Y-166739060D01*
X86703864Y-166747617D01*
X86684129Y-166755431D01*
X86647202Y-166782260D01*
X86637442Y-166788671D01*
X86598136Y-166811917D01*
X86583125Y-166826928D01*
X86568336Y-166839558D01*
X86551164Y-166852034D01*
X86522057Y-166887218D01*
X86514196Y-166895856D01*
X85677638Y-167732414D01*
X85632768Y-167761108D01*
X84380544Y-168221761D01*
X84369841Y-168225157D01*
X84366337Y-168226096D01*
X84361982Y-168228127D01*
X84352396Y-168232117D01*
X84341610Y-168236084D01*
X84319859Y-168247594D01*
X84314273Y-168250372D01*
X84152173Y-168325963D01*
X83958598Y-168461505D01*
X83791508Y-168628595D01*
X83661574Y-168814160D01*
X83617255Y-168853026D01*
X83559999Y-168867036D01*
X83502742Y-168853025D01*
X83458426Y-168814161D01*
X83328495Y-168628599D01*
X83161401Y-168461505D01*
X82967830Y-168325965D01*
X82753663Y-168226097D01*
X82674692Y-168204937D01*
X82525407Y-168164936D01*
X82290000Y-168144340D01*
X82054592Y-168164936D01*
X81826336Y-168226097D01*
X81612170Y-168325965D01*
X81418598Y-168461505D01*
X81251505Y-168628598D01*
X81115965Y-168822170D01*
X81016097Y-169036336D01*
X80954936Y-169264592D01*
X80934340Y-169500000D01*
X80954936Y-169735407D01*
X80997808Y-169895407D01*
X81016097Y-169963663D01*
X81115965Y-170177830D01*
X81251505Y-170371401D01*
X81418599Y-170538495D01*
X81612170Y-170674035D01*
X81826337Y-170773903D01*
X82054592Y-170835063D01*
X82290000Y-170855659D01*
X82525408Y-170835063D01*
X82753663Y-170773903D01*
X82967830Y-170674035D01*
X83161401Y-170538495D01*
X83328495Y-170371401D01*
X83458426Y-170185839D01*
X83502743Y-170146976D01*
X83560000Y-170132965D01*
X83617257Y-170146976D01*
X83661573Y-170185839D01*
X83791505Y-170371401D01*
X83958599Y-170538495D01*
X84152170Y-170674035D01*
X84366337Y-170773903D01*
X84594592Y-170835063D01*
X84830000Y-170855659D01*
X85065408Y-170835063D01*
X85293663Y-170773903D01*
X85507830Y-170674035D01*
X85701401Y-170538495D01*
X85868495Y-170371401D01*
X85998426Y-170185839D01*
X86042743Y-170146975D01*
X86100000Y-170132964D01*
X86157257Y-170146975D01*
X86201573Y-170185839D01*
X86331505Y-170371401D01*
X86498599Y-170538495D01*
X86692170Y-170674035D01*
X86906337Y-170773903D01*
X87134592Y-170835063D01*
X87370000Y-170855659D01*
X87605408Y-170835063D01*
X87833663Y-170773903D01*
X88047830Y-170674035D01*
X88241401Y-170538495D01*
X88363717Y-170416178D01*
X88416460Y-170384885D01*
X88477752Y-170382696D01*
X88532597Y-170410149D01*
X88567577Y-170460528D01*
X88616647Y-170592088D01*
X88702811Y-170707188D01*
X88817910Y-170793352D01*
X88952624Y-170843597D01*
X89012176Y-170850000D01*
X89660000Y-170850000D01*
X89660000Y-169750000D01*
X90160000Y-169750000D01*
X90160000Y-170850000D01*
X90807824Y-170850000D01*
X90867375Y-170843597D01*
X91002089Y-170793352D01*
X91117188Y-170707188D01*
X91203352Y-170592089D01*
X91253597Y-170457375D01*
X91260000Y-170397824D01*
X91260000Y-169790000D01*
X92929364Y-169790000D01*
X92986569Y-170003492D01*
X93086399Y-170217576D01*
X93221893Y-170411081D01*
X93388918Y-170578106D01*
X93582423Y-170713600D01*
X93796507Y-170813430D01*
X94009999Y-170870635D01*
X94010000Y-170870636D01*
X94010000Y-169790000D01*
X92929364Y-169790000D01*
X91260000Y-169790000D01*
X91260000Y-169750000D01*
X90160000Y-169750000D01*
X89660000Y-169750000D01*
X89660000Y-169374000D01*
X89676613Y-169312000D01*
X89722000Y-169266613D01*
X89784000Y-169250000D01*
X91260000Y-169250000D01*
X91260000Y-168602176D01*
X91253597Y-168542624D01*
X91203352Y-168407910D01*
X91117188Y-168292810D01*
X90998241Y-168203767D01*
X90959757Y-168156011D01*
X90948868Y-168095654D01*
X90968237Y-168037460D01*
X91013125Y-167995668D01*
X91072552Y-167980500D01*
X93922258Y-167980500D01*
X93979515Y-167994511D01*
X94023833Y-168033376D01*
X94045197Y-168088315D01*
X94038780Y-168146910D01*
X94006031Y-168195922D01*
X93954352Y-168224275D01*
X93796507Y-168266569D01*
X93582421Y-168366400D01*
X93388921Y-168501890D01*
X93221890Y-168668921D01*
X93086400Y-168862421D01*
X92986569Y-169076507D01*
X92929364Y-169289999D01*
X92929364Y-169290000D01*
X94386000Y-169290000D01*
X94448000Y-169306613D01*
X94493387Y-169352000D01*
X94510000Y-169414000D01*
X94510000Y-170870635D01*
X94723492Y-170813430D01*
X94937576Y-170713600D01*
X95131081Y-170578106D01*
X95298109Y-170411078D01*
X95428119Y-170225405D01*
X95472437Y-170186539D01*
X95529694Y-170172528D01*
X95586951Y-170186539D01*
X95631267Y-170225402D01*
X95761505Y-170411401D01*
X95928599Y-170578495D01*
X96122170Y-170714035D01*
X96336337Y-170813903D01*
X96548070Y-170870636D01*
X96564592Y-170875063D01*
X96799999Y-170895659D01*
X96799999Y-170895658D01*
X96800000Y-170895659D01*
X97035408Y-170875063D01*
X97263663Y-170813903D01*
X97477830Y-170714035D01*
X97671401Y-170578495D01*
X97838495Y-170411401D01*
X97968426Y-170225839D01*
X98012743Y-170186975D01*
X98070000Y-170172964D01*
X98127257Y-170186975D01*
X98171573Y-170225839D01*
X98301505Y-170411401D01*
X98468599Y-170578495D01*
X98662170Y-170714035D01*
X98876337Y-170813903D01*
X99088070Y-170870636D01*
X99104592Y-170875063D01*
X99339999Y-170895659D01*
X99339999Y-170895658D01*
X99340000Y-170895659D01*
X99575408Y-170875063D01*
X99803663Y-170813903D01*
X100017830Y-170714035D01*
X100211401Y-170578495D01*
X100378495Y-170411401D01*
X100508426Y-170225839D01*
X100552743Y-170186975D01*
X100610000Y-170172964D01*
X100667257Y-170186975D01*
X100711573Y-170225839D01*
X100841505Y-170411401D01*
X101008599Y-170578495D01*
X101202170Y-170714035D01*
X101416337Y-170813903D01*
X101628070Y-170870636D01*
X101644592Y-170875063D01*
X101879999Y-170895659D01*
X101879999Y-170895658D01*
X101880000Y-170895659D01*
X102115408Y-170875063D01*
X102343663Y-170813903D01*
X102557830Y-170714035D01*
X102751401Y-170578495D01*
X102873329Y-170456566D01*
X102926072Y-170425273D01*
X102987365Y-170423084D01*
X103042209Y-170450537D01*
X103077189Y-170500916D01*
X103091204Y-170538491D01*
X103126204Y-170632331D01*
X103212454Y-170747546D01*
X103327669Y-170833796D01*
X103462517Y-170884091D01*
X103522127Y-170890500D01*
X105317872Y-170890499D01*
X105377483Y-170884091D01*
X105512331Y-170833796D01*
X105627546Y-170747546D01*
X105713796Y-170632331D01*
X105764091Y-170497483D01*
X105770500Y-170437873D01*
X105770500Y-169660000D01*
X110134340Y-169660000D01*
X110154936Y-169895407D01*
X110183943Y-170003663D01*
X110216097Y-170123663D01*
X110315965Y-170337830D01*
X110451505Y-170531401D01*
X110618599Y-170698495D01*
X110812170Y-170834035D01*
X111026337Y-170933903D01*
X111254592Y-170995063D01*
X111490000Y-171015659D01*
X111725408Y-170995063D01*
X111953663Y-170933903D01*
X112167830Y-170834035D01*
X112361401Y-170698495D01*
X112483329Y-170576566D01*
X112536072Y-170545273D01*
X112597365Y-170543084D01*
X112652209Y-170570537D01*
X112687189Y-170620916D01*
X112707836Y-170676272D01*
X112736204Y-170752331D01*
X112822454Y-170867546D01*
X112937669Y-170953796D01*
X113072517Y-171004091D01*
X113132127Y-171010500D01*
X114927872Y-171010499D01*
X114987483Y-171004091D01*
X115122331Y-170953796D01*
X115237546Y-170867546D01*
X115323796Y-170752331D01*
X115374091Y-170617483D01*
X115380500Y-170557873D01*
X115380499Y-168762128D01*
X115374091Y-168702517D01*
X115323796Y-168567669D01*
X115237546Y-168452454D01*
X115122331Y-168366204D01*
X114987483Y-168315909D01*
X114927873Y-168309500D01*
X114927869Y-168309500D01*
X113132130Y-168309500D01*
X113072515Y-168315909D01*
X112937669Y-168366204D01*
X112822454Y-168452454D01*
X112736204Y-168567669D01*
X112687189Y-168699083D01*
X112652209Y-168749462D01*
X112597365Y-168776915D01*
X112536072Y-168774726D01*
X112483326Y-168743430D01*
X112361404Y-168621508D01*
X112361401Y-168621505D01*
X112167830Y-168485965D01*
X111953663Y-168386097D01*
X111880148Y-168366399D01*
X111725407Y-168324936D01*
X111490000Y-168304340D01*
X111254592Y-168324936D01*
X111026336Y-168386097D01*
X110812170Y-168485965D01*
X110618598Y-168621505D01*
X110451505Y-168788598D01*
X110315965Y-168982170D01*
X110216097Y-169196336D01*
X110154936Y-169424592D01*
X110134340Y-169660000D01*
X105770500Y-169660000D01*
X105770499Y-168642128D01*
X105764091Y-168582517D01*
X105713796Y-168447669D01*
X105627546Y-168332454D01*
X105512331Y-168246204D01*
X105443901Y-168220681D01*
X105389040Y-168180220D01*
X105363855Y-168116874D01*
X105375959Y-168049789D01*
X105421693Y-167999238D01*
X105487236Y-167980500D01*
X109704495Y-167980500D01*
X109725704Y-167982841D01*
X109728294Y-167982759D01*
X109728296Y-167982760D01*
X109798262Y-167980560D01*
X109802157Y-167980500D01*
X109830920Y-167980500D01*
X109830925Y-167980500D01*
X109835302Y-167979946D01*
X109846941Y-167979030D01*
X109892569Y-167977597D01*
X109912949Y-167971675D01*
X109931989Y-167967732D01*
X109953058Y-167965071D01*
X109995520Y-167948258D01*
X110006557Y-167944480D01*
X110050398Y-167931744D01*
X110068670Y-167920936D01*
X110086136Y-167912380D01*
X110105871Y-167904568D01*
X110120416Y-167894000D01*
X124170531Y-167894000D01*
X124190364Y-168120689D01*
X124249261Y-168340497D01*
X124345432Y-168546735D01*
X124475953Y-168733140D01*
X124636859Y-168894046D01*
X124823264Y-169024567D01*
X124823265Y-169024567D01*
X124823266Y-169024568D01*
X125029504Y-169120739D01*
X125249308Y-169179635D01*
X125334261Y-169187067D01*
X125419214Y-169194500D01*
X125419216Y-169194500D01*
X125532784Y-169194500D01*
X125532786Y-169194500D01*
X125600747Y-169188553D01*
X125702692Y-169179635D01*
X125922496Y-169120739D01*
X126128734Y-169024568D01*
X126315139Y-168894047D01*
X126476047Y-168733139D01*
X126606568Y-168546734D01*
X126702739Y-168340496D01*
X126761635Y-168120692D01*
X126781468Y-167894000D01*
X126761635Y-167667308D01*
X126702739Y-167447504D01*
X126606568Y-167241266D01*
X126557392Y-167171035D01*
X126476046Y-167054859D01*
X126315140Y-166893953D01*
X126128735Y-166763432D01*
X125922497Y-166667261D01*
X125702689Y-166608364D01*
X125532786Y-166593500D01*
X125532784Y-166593500D01*
X125419216Y-166593500D01*
X125419214Y-166593500D01*
X125249310Y-166608364D01*
X125029502Y-166667261D01*
X124823264Y-166763432D01*
X124636859Y-166893953D01*
X124475953Y-167054859D01*
X124345432Y-167241264D01*
X124249261Y-167447502D01*
X124190364Y-167667310D01*
X124170531Y-167894000D01*
X110120416Y-167894000D01*
X110142816Y-167877725D01*
X110152548Y-167871332D01*
X110191865Y-167848081D01*
X110206874Y-167833071D01*
X110221663Y-167820439D01*
X110238837Y-167807963D01*
X110267946Y-167772774D01*
X110275790Y-167764154D01*
X110779513Y-167260431D01*
X110796162Y-167247094D01*
X110797936Y-167245204D01*
X110797940Y-167245202D01*
X110845898Y-167194130D01*
X110848546Y-167191398D01*
X110868911Y-167171035D01*
X110871611Y-167167552D01*
X110879187Y-167158681D01*
X110910448Y-167125393D01*
X110920675Y-167106787D01*
X110931348Y-167090539D01*
X110944362Y-167073764D01*
X110962491Y-167031868D01*
X110967631Y-167021377D01*
X110989627Y-166981368D01*
X110994906Y-166960805D01*
X111001204Y-166942406D01*
X111009635Y-166922926D01*
X111016777Y-166877824D01*
X111019145Y-166866397D01*
X111022542Y-166853171D01*
X111026554Y-166837545D01*
X111030500Y-166822178D01*
X111030500Y-166800955D01*
X111032027Y-166781556D01*
X111033218Y-166774035D01*
X111035347Y-166760595D01*
X111031050Y-166715139D01*
X111030500Y-166703470D01*
X111030500Y-161710000D01*
X115164815Y-161710000D01*
X115183503Y-161887804D01*
X115238749Y-162057835D01*
X115328140Y-162212665D01*
X115447771Y-162345527D01*
X115592403Y-162450610D01*
X115755735Y-162523330D01*
X115930607Y-162560500D01*
X115930609Y-162560500D01*
X116109391Y-162560500D01*
X116109393Y-162560500D01*
X116284264Y-162523330D01*
X116284265Y-162523329D01*
X116284267Y-162523329D01*
X116447593Y-162450612D01*
X116592230Y-162345526D01*
X116711859Y-162212665D01*
X116801250Y-162057835D01*
X116856497Y-161887803D01*
X116875185Y-161710000D01*
X116856497Y-161532197D01*
X116814997Y-161404474D01*
X116801250Y-161362164D01*
X116711859Y-161207334D01*
X116592228Y-161074472D01*
X116447596Y-160969389D01*
X116284264Y-160896669D01*
X116109393Y-160859500D01*
X116109391Y-160859500D01*
X115930609Y-160859500D01*
X115930607Y-160859500D01*
X115755735Y-160896669D01*
X115592408Y-160969387D01*
X115447768Y-161074474D01*
X115328140Y-161207334D01*
X115238749Y-161362164D01*
X115183503Y-161532195D01*
X115164815Y-161710000D01*
X111030500Y-161710000D01*
X111030500Y-159910000D01*
X112564815Y-159910000D01*
X112583503Y-160087804D01*
X112638749Y-160257835D01*
X112728140Y-160412665D01*
X112847771Y-160545527D01*
X112992403Y-160650610D01*
X113155735Y-160723330D01*
X113330607Y-160760500D01*
X113330609Y-160760500D01*
X113509391Y-160760500D01*
X113509393Y-160760500D01*
X113684264Y-160723330D01*
X113684265Y-160723329D01*
X113684267Y-160723329D01*
X113847593Y-160650612D01*
X113863075Y-160639364D01*
X113925316Y-160594142D01*
X113992230Y-160545526D01*
X114111859Y-160412665D01*
X114201250Y-160257835D01*
X114256497Y-160087803D01*
X114275185Y-159910000D01*
X114256497Y-159732197D01*
X114201250Y-159562165D01*
X114201250Y-159562164D01*
X114111859Y-159407334D01*
X113992228Y-159274472D01*
X113847596Y-159169389D01*
X113684264Y-159096669D01*
X113509393Y-159059500D01*
X113509391Y-159059500D01*
X113330609Y-159059500D01*
X113330607Y-159059500D01*
X113155735Y-159096669D01*
X112992408Y-159169387D01*
X112847768Y-159274474D01*
X112728140Y-159407334D01*
X112638749Y-159562164D01*
X112583503Y-159732195D01*
X112564815Y-159910000D01*
X111030500Y-159910000D01*
X111030500Y-157209999D01*
X115634592Y-157209999D01*
X115654158Y-157383657D01*
X115711877Y-157548606D01*
X115804852Y-157696576D01*
X115928423Y-157820147D01*
X116076393Y-157913122D01*
X116241342Y-157970841D01*
X116415000Y-157990407D01*
X116588657Y-157970841D01*
X116753606Y-157913122D01*
X116901576Y-157820147D01*
X117025147Y-157696576D01*
X117042988Y-157668182D01*
X117058707Y-157643166D01*
X117109899Y-157597417D01*
X117177584Y-157585917D01*
X117241013Y-157612189D01*
X117280742Y-157668182D01*
X117336877Y-157828606D01*
X117429852Y-157976576D01*
X117553423Y-158100147D01*
X117701393Y-158193122D01*
X117866342Y-158250841D01*
X118040000Y-158270407D01*
X118213657Y-158250841D01*
X118378606Y-158193122D01*
X118526576Y-158100147D01*
X118650147Y-157976576D01*
X118743122Y-157828606D01*
X118800841Y-157663657D01*
X118820407Y-157490000D01*
X118820997Y-157484767D01*
X118839224Y-157432677D01*
X118878247Y-157393655D01*
X118931576Y-157360147D01*
X119055147Y-157236576D01*
X119148122Y-157088606D01*
X119205841Y-156923657D01*
X119225407Y-156750000D01*
X119221731Y-156717378D01*
X119205841Y-156576342D01*
X119148122Y-156411393D01*
X119055147Y-156263423D01*
X118931576Y-156139852D01*
X118783606Y-156046877D01*
X118618657Y-155989158D01*
X118445000Y-155969592D01*
X118271342Y-155989158D01*
X118106393Y-156046877D01*
X117958423Y-156139852D01*
X117834852Y-156263423D01*
X117741877Y-156411393D01*
X117684158Y-156576343D01*
X117664002Y-156755233D01*
X117645776Y-156807320D01*
X117606755Y-156846342D01*
X117553426Y-156879851D01*
X117429850Y-157003426D01*
X117396291Y-157056835D01*
X117345099Y-157102583D01*
X117277414Y-157114082D01*
X117213985Y-157087809D01*
X117174257Y-157031817D01*
X117172634Y-157027180D01*
X117129224Y-156903122D01*
X117118122Y-156871393D01*
X117025147Y-156723423D01*
X116901576Y-156599852D01*
X116753606Y-156506877D01*
X116588657Y-156449158D01*
X116414999Y-156429592D01*
X116241342Y-156449158D01*
X116076393Y-156506877D01*
X115928423Y-156599852D01*
X115804852Y-156723423D01*
X115711877Y-156871393D01*
X115654158Y-157036342D01*
X115634592Y-157209999D01*
X111030500Y-157209999D01*
X111030500Y-151395344D01*
X111042579Y-151341961D01*
X111076464Y-151298978D01*
X111125553Y-151274770D01*
X111180281Y-151274054D01*
X111210607Y-151280500D01*
X111210609Y-151280500D01*
X111389391Y-151280500D01*
X111389393Y-151280500D01*
X111564264Y-151243330D01*
X111564265Y-151243329D01*
X111564267Y-151243329D01*
X111727593Y-151170612D01*
X111872230Y-151065526D01*
X111991859Y-150932665D01*
X112081250Y-150777835D01*
X112136497Y-150607803D01*
X112155185Y-150430000D01*
X112136497Y-150252197D01*
X112091062Y-150112362D01*
X112081250Y-150082164D01*
X111991859Y-149927334D01*
X111872228Y-149794472D01*
X111819728Y-149756328D01*
X115435709Y-149756328D01*
X115465925Y-149979388D01*
X115533007Y-150185846D01*
X115535483Y-150193464D01*
X115642148Y-150391681D01*
X115686531Y-150447335D01*
X115773921Y-150556919D01*
X115782492Y-150567666D01*
X115952004Y-150715765D01*
X115952006Y-150715766D01*
X116145237Y-150831216D01*
X116252580Y-150871502D01*
X116355976Y-150910307D01*
X116577453Y-150950500D01*
X119510664Y-150950500D01*
X119558117Y-150959939D01*
X119598345Y-150986819D01*
X120173181Y-151561655D01*
X120200061Y-151601883D01*
X120209500Y-151649336D01*
X120209500Y-153035500D01*
X120192887Y-153097500D01*
X120147500Y-153142887D01*
X120085500Y-153159500D01*
X119960607Y-153159500D01*
X119785735Y-153196669D01*
X119622408Y-153269387D01*
X119477768Y-153374474D01*
X119358140Y-153507334D01*
X119268749Y-153662164D01*
X119213503Y-153832195D01*
X119194815Y-154010000D01*
X119213503Y-154187804D01*
X119268749Y-154357835D01*
X119326766Y-154458323D01*
X119342837Y-154508746D01*
X119336421Y-154561278D01*
X119289158Y-154696346D01*
X119269592Y-154870000D01*
X119289158Y-155043657D01*
X119346877Y-155208606D01*
X119439852Y-155356576D01*
X119563423Y-155480147D01*
X119711393Y-155573122D01*
X119876342Y-155630841D01*
X120049999Y-155650407D01*
X120049999Y-155650406D01*
X120050000Y-155650407D01*
X120054020Y-155649954D01*
X120071616Y-155647972D01*
X120139301Y-155659472D01*
X120190494Y-155705220D01*
X120209500Y-155771192D01*
X120209500Y-158452814D01*
X120208720Y-158466698D01*
X120204761Y-158501826D01*
X120209219Y-158567932D01*
X120209500Y-158576274D01*
X120209500Y-158586155D01*
X120213153Y-158626749D01*
X120213371Y-158629521D01*
X120219904Y-158726414D01*
X120220973Y-158730657D01*
X120224229Y-158749820D01*
X120224622Y-158754185D01*
X120250465Y-158847824D01*
X120251158Y-158850447D01*
X120266708Y-158912158D01*
X120274904Y-158944684D01*
X120276712Y-158948664D01*
X120283342Y-158966950D01*
X120284506Y-158971168D01*
X120326657Y-159058699D01*
X120327835Y-159061217D01*
X120367992Y-159149625D01*
X120370483Y-159153220D01*
X120380271Y-159170029D01*
X120382170Y-159173974D01*
X120439258Y-159252548D01*
X120440868Y-159254817D01*
X120496178Y-159334652D01*
X120499268Y-159337742D01*
X120511905Y-159352537D01*
X120514478Y-159356078D01*
X120514479Y-159356079D01*
X120584699Y-159423216D01*
X120586688Y-159425162D01*
X120893181Y-159731655D01*
X120920061Y-159771883D01*
X120929500Y-159819336D01*
X120929500Y-162425500D01*
X120912887Y-162487500D01*
X120867500Y-162532887D01*
X120805500Y-162549500D01*
X120699394Y-162549500D01*
X120643099Y-162535985D01*
X120599076Y-162498386D01*
X120576921Y-162444898D01*
X120581463Y-162387182D01*
X120615089Y-162283690D01*
X120636497Y-162217803D01*
X120655185Y-162040000D01*
X120636497Y-161862197D01*
X120590998Y-161722165D01*
X120581250Y-161692164D01*
X120491859Y-161537334D01*
X120372228Y-161404472D01*
X120227596Y-161299389D01*
X120064264Y-161226669D01*
X119889393Y-161189500D01*
X119889391Y-161189500D01*
X119710609Y-161189500D01*
X119710607Y-161189500D01*
X119535735Y-161226669D01*
X119372409Y-161299387D01*
X119356821Y-161310712D01*
X119332238Y-161328572D01*
X119285136Y-161349543D01*
X119233574Y-161349543D01*
X119199617Y-161334424D01*
X119199500Y-161334689D01*
X119024264Y-161256669D01*
X118849393Y-161219500D01*
X118849391Y-161219500D01*
X118670609Y-161219500D01*
X118670607Y-161219500D01*
X118495735Y-161256669D01*
X118332408Y-161329387D01*
X118187768Y-161434474D01*
X118068140Y-161567334D01*
X117978749Y-161722164D01*
X117923503Y-161892195D01*
X117904815Y-162070000D01*
X117923503Y-162247804D01*
X117978749Y-162417835D01*
X118035152Y-162515527D01*
X118051700Y-162581545D01*
X118030911Y-162646352D01*
X117979048Y-162690425D01*
X117940374Y-162707992D01*
X117936774Y-162710486D01*
X117919972Y-162720270D01*
X117916028Y-162722169D01*
X117837461Y-162779250D01*
X117835195Y-162780858D01*
X117755342Y-162836182D01*
X117752242Y-162839282D01*
X117737462Y-162851906D01*
X117733920Y-162854479D01*
X117666803Y-162924677D01*
X117664859Y-162926665D01*
X116990343Y-163601181D01*
X116979980Y-163610443D01*
X116952335Y-163632491D01*
X116908735Y-163682392D01*
X116903050Y-163688473D01*
X116896059Y-163695464D01*
X116869928Y-163726764D01*
X116868124Y-163728876D01*
X116804235Y-163802003D01*
X116801986Y-163805767D01*
X116790739Y-163821617D01*
X116787932Y-163824979D01*
X116739978Y-163909490D01*
X116738604Y-163911849D01*
X116689719Y-163993671D01*
X116688782Y-163995241D01*
X116687246Y-163999335D01*
X116679009Y-164016944D01*
X116676847Y-164020753D01*
X116644762Y-164112444D01*
X116643814Y-164115057D01*
X116609691Y-164205978D01*
X116608910Y-164210282D01*
X116603950Y-164229077D01*
X116602501Y-164233217D01*
X116587304Y-164329166D01*
X116586838Y-164331907D01*
X116569500Y-164427450D01*
X116569500Y-164431830D01*
X116567973Y-164451229D01*
X116567290Y-164455539D01*
X116569469Y-164552640D01*
X116569500Y-164555422D01*
X116569500Y-165058658D01*
X116557883Y-165111061D01*
X116546097Y-165136336D01*
X116484936Y-165364592D01*
X116464340Y-165599999D01*
X116484936Y-165835407D01*
X116514805Y-165946878D01*
X116546097Y-166063663D01*
X116645965Y-166277830D01*
X116781505Y-166471401D01*
X116948599Y-166638495D01*
X117142170Y-166774035D01*
X117356337Y-166873903D01*
X117584592Y-166935063D01*
X117820000Y-166955659D01*
X118055408Y-166935063D01*
X118283663Y-166873903D01*
X118497830Y-166774035D01*
X118691401Y-166638495D01*
X118813329Y-166516566D01*
X118866072Y-166485273D01*
X118927365Y-166483084D01*
X118982209Y-166510537D01*
X119017189Y-166560916D01*
X119028379Y-166590917D01*
X119066204Y-166692331D01*
X119152454Y-166807546D01*
X119267669Y-166893796D01*
X119402517Y-166944091D01*
X119462127Y-166950500D01*
X121141605Y-166950499D01*
X121155019Y-166951227D01*
X121156178Y-166951353D01*
X121160938Y-166951871D01*
X121274690Y-166951376D01*
X122108731Y-166853253D01*
X122109120Y-166853170D01*
X122111811Y-166852890D01*
X122114328Y-166852594D01*
X122114331Y-166852627D01*
X122134717Y-166850500D01*
X122352814Y-166850500D01*
X122366698Y-166851280D01*
X122401826Y-166855238D01*
X122401826Y-166855237D01*
X122401827Y-166855238D01*
X122467934Y-166850780D01*
X122476274Y-166850500D01*
X122486150Y-166850500D01*
X122486155Y-166850500D01*
X122526800Y-166846841D01*
X122529504Y-166846628D01*
X122626412Y-166840096D01*
X122630652Y-166839027D01*
X122649837Y-166835768D01*
X122654188Y-166835377D01*
X122747856Y-166809525D01*
X122750466Y-166808836D01*
X122844683Y-166785096D01*
X122848658Y-166783290D01*
X122866961Y-166776655D01*
X122871167Y-166775494D01*
X122871167Y-166775493D01*
X122871170Y-166775493D01*
X122958739Y-166733321D01*
X122961165Y-166732187D01*
X123049626Y-166692007D01*
X123053209Y-166689524D01*
X123070039Y-166679723D01*
X123073973Y-166677829D01*
X123152608Y-166620696D01*
X123154781Y-166619155D01*
X123234654Y-166563820D01*
X123237740Y-166560732D01*
X123252543Y-166548089D01*
X123256078Y-166545522D01*
X123323239Y-166475275D01*
X123325096Y-166473376D01*
X124709667Y-165088805D01*
X124720016Y-165079557D01*
X124747666Y-165057508D01*
X124791268Y-165007600D01*
X124796959Y-165001514D01*
X124803945Y-164994529D01*
X124830090Y-164963210D01*
X124831784Y-164961225D01*
X124895765Y-164887996D01*
X124898008Y-164884240D01*
X124909270Y-164868370D01*
X124912069Y-164865018D01*
X124960037Y-164780476D01*
X124961369Y-164778190D01*
X125011215Y-164694764D01*
X125012749Y-164690674D01*
X125020997Y-164673044D01*
X125023154Y-164669245D01*
X125055259Y-164577489D01*
X125056149Y-164575034D01*
X125090307Y-164484024D01*
X125091087Y-164479724D01*
X125096051Y-164460914D01*
X125097498Y-164456782D01*
X125112712Y-164360718D01*
X125113143Y-164358185D01*
X125130500Y-164262547D01*
X125130500Y-164258175D01*
X125132027Y-164238775D01*
X125132711Y-164234459D01*
X125130531Y-164137333D01*
X125130500Y-164134551D01*
X125130500Y-156864500D01*
X125147113Y-156802500D01*
X125192500Y-156757113D01*
X125254500Y-156740500D01*
X125399393Y-156740500D01*
X125574264Y-156703330D01*
X125574265Y-156703329D01*
X125574267Y-156703329D01*
X125737593Y-156630612D01*
X125747487Y-156623424D01*
X125864227Y-156538606D01*
X125882230Y-156525526D01*
X126001859Y-156392665D01*
X126091250Y-156237835D01*
X126146497Y-156067803D01*
X126165185Y-155890000D01*
X126146497Y-155712197D01*
X126091250Y-155542165D01*
X126091250Y-155542164D01*
X126001859Y-155387334D01*
X125897815Y-155271783D01*
X125882230Y-155254474D01*
X125882229Y-155254473D01*
X125882228Y-155254472D01*
X125737596Y-155149389D01*
X125574264Y-155076669D01*
X125399393Y-155039500D01*
X125399391Y-155039500D01*
X125254500Y-155039500D01*
X125192500Y-155022887D01*
X125147113Y-154977500D01*
X125130500Y-154915500D01*
X125130500Y-149017186D01*
X125131280Y-149003302D01*
X125135238Y-148968173D01*
X125130781Y-148902068D01*
X125130500Y-148893726D01*
X125130500Y-148883850D01*
X125129284Y-148870342D01*
X125126839Y-148843178D01*
X125126630Y-148840516D01*
X125120096Y-148743588D01*
X125119028Y-148739352D01*
X125115768Y-148720169D01*
X125115377Y-148715812D01*
X125089527Y-148622152D01*
X125088832Y-148619514D01*
X125067288Y-148534017D01*
X125065096Y-148525317D01*
X125063285Y-148521331D01*
X125056656Y-148503046D01*
X125055493Y-148498830D01*
X125029737Y-148445346D01*
X125013351Y-148411320D01*
X125012199Y-148408861D01*
X124972007Y-148320374D01*
X124969517Y-148316780D01*
X124959724Y-148299962D01*
X124958654Y-148297740D01*
X124957829Y-148296027D01*
X124900740Y-148217450D01*
X124899162Y-148215228D01*
X124843820Y-148135346D01*
X124840734Y-148132260D01*
X124828091Y-148117458D01*
X124825522Y-148113922D01*
X124755299Y-148046782D01*
X124753310Y-148044836D01*
X122688816Y-145980342D01*
X122679550Y-145969974D01*
X122657508Y-145942334D01*
X122657506Y-145942332D01*
X122607603Y-145898732D01*
X122601507Y-145893033D01*
X122594527Y-145886053D01*
X122563255Y-145859945D01*
X122561140Y-145858139D01*
X122514367Y-145817275D01*
X122487996Y-145794235D01*
X122484236Y-145791988D01*
X122468370Y-145780730D01*
X122465018Y-145777931D01*
X122380548Y-145730001D01*
X122378145Y-145728601D01*
X122294765Y-145678785D01*
X122291613Y-145677602D01*
X122290669Y-145677248D01*
X122273046Y-145669003D01*
X122269245Y-145666847D01*
X122269244Y-145666846D01*
X122269243Y-145666846D01*
X122177568Y-145634767D01*
X122174954Y-145633819D01*
X122084028Y-145599694D01*
X122084025Y-145599693D01*
X122084024Y-145599693D01*
X122079721Y-145598911D01*
X122060917Y-145593948D01*
X122056782Y-145592501D01*
X121960847Y-145577306D01*
X121958106Y-145576840D01*
X121862550Y-145559500D01*
X121862547Y-145559500D01*
X121858170Y-145559500D01*
X121838773Y-145557973D01*
X121834460Y-145557290D01*
X121737358Y-145559469D01*
X121734578Y-145559500D01*
X120713845Y-145559500D01*
X120660023Y-145564344D01*
X120545809Y-145574623D01*
X120328828Y-145634507D01*
X120126027Y-145732170D01*
X119943925Y-145864475D01*
X119943922Y-145864477D01*
X119943922Y-145864478D01*
X119933802Y-145875063D01*
X119788365Y-146027178D01*
X119664365Y-146215031D01*
X119575896Y-146422012D01*
X119525809Y-146641462D01*
X119515709Y-146866328D01*
X119545925Y-147089388D01*
X119615469Y-147303423D01*
X119615483Y-147303464D01*
X119722148Y-147501681D01*
X119862492Y-147677666D01*
X120032004Y-147825765D01*
X120032006Y-147825766D01*
X120225237Y-147941216D01*
X120375847Y-147997740D01*
X120435976Y-148020307D01*
X120657453Y-148060500D01*
X121180664Y-148060500D01*
X121228117Y-148069939D01*
X121268345Y-148096819D01*
X122593181Y-149421655D01*
X122620061Y-149461883D01*
X122629500Y-149509336D01*
X122629500Y-150180568D01*
X122614162Y-150240306D01*
X122571942Y-150285265D01*
X122513285Y-150304323D01*
X122452702Y-150292766D01*
X122414244Y-150260949D01*
X122413589Y-150261635D01*
X122335299Y-150186782D01*
X122333310Y-150184836D01*
X121018816Y-148870342D01*
X121009550Y-148859974D01*
X120987506Y-148832332D01*
X120937603Y-148788732D01*
X120931507Y-148783033D01*
X120924527Y-148776053D01*
X120893255Y-148749945D01*
X120891140Y-148748139D01*
X120854134Y-148715808D01*
X120817996Y-148684235D01*
X120814236Y-148681988D01*
X120798370Y-148670730D01*
X120795018Y-148667931D01*
X120710548Y-148620001D01*
X120708145Y-148618601D01*
X120624765Y-148568785D01*
X120620671Y-148567249D01*
X120603046Y-148559003D01*
X120599245Y-148556847D01*
X120599244Y-148556846D01*
X120599243Y-148556846D01*
X120507568Y-148524767D01*
X120504954Y-148523819D01*
X120414028Y-148489694D01*
X120414025Y-148489693D01*
X120414024Y-148489693D01*
X120409721Y-148488911D01*
X120390917Y-148483948D01*
X120386782Y-148482501D01*
X120290847Y-148467306D01*
X120288106Y-148466840D01*
X120192550Y-148449500D01*
X120192547Y-148449500D01*
X120188170Y-148449500D01*
X120168773Y-148447973D01*
X120164460Y-148447290D01*
X120067358Y-148449469D01*
X120064578Y-148449500D01*
X116633845Y-148449500D01*
X116566631Y-148455549D01*
X116465809Y-148464623D01*
X116248828Y-148524507D01*
X116046027Y-148622170D01*
X115863925Y-148754475D01*
X115708365Y-148917178D01*
X115584365Y-149105031D01*
X115495896Y-149312012D01*
X115445809Y-149531462D01*
X115435709Y-149756328D01*
X111819728Y-149756328D01*
X111727596Y-149689389D01*
X111564264Y-149616669D01*
X111454620Y-149593364D01*
X111401468Y-149567706D01*
X111366198Y-149520382D01*
X111356802Y-149462114D01*
X111375407Y-149406102D01*
X111378277Y-149401533D01*
X111378280Y-149401531D01*
X111471255Y-149253561D01*
X111528974Y-149088612D01*
X111548540Y-148914955D01*
X111539231Y-148832332D01*
X111528974Y-148741297D01*
X111471255Y-148576348D01*
X111378280Y-148428378D01*
X111254709Y-148304807D01*
X111106739Y-148211832D01*
X110941790Y-148154113D01*
X110768133Y-148134547D01*
X110594475Y-148154113D01*
X110429529Y-148211831D01*
X110357341Y-148257190D01*
X110312772Y-148285195D01*
X110311979Y-148285693D01*
X110259890Y-148303919D01*
X110205052Y-148297740D01*
X110158326Y-148268380D01*
X109125374Y-147235428D01*
X109107703Y-147213146D01*
X109051039Y-147121866D01*
X108898766Y-146876567D01*
X108898763Y-146876563D01*
X108898760Y-146876558D01*
X108894149Y-146870407D01*
X108888367Y-146861996D01*
X108820145Y-146753421D01*
X108696576Y-146629852D01*
X108548606Y-146536877D01*
X108383657Y-146479158D01*
X108210000Y-146459592D01*
X108036342Y-146479158D01*
X107871393Y-146536877D01*
X107723423Y-146629852D01*
X107599852Y-146753423D01*
X107506877Y-146901393D01*
X107449158Y-147066342D01*
X107429592Y-147239999D01*
X107449158Y-147413657D01*
X107506877Y-147578606D01*
X107599852Y-147726576D01*
X107723421Y-147850145D01*
X107831996Y-147918367D01*
X107840407Y-147924149D01*
X107846558Y-147928760D01*
X107846563Y-147928763D01*
X107846567Y-147928766D01*
X108179346Y-148135344D01*
X108183146Y-148137703D01*
X108205428Y-148155374D01*
X109312900Y-149262846D01*
X109342261Y-149309572D01*
X109348439Y-149364411D01*
X109330213Y-149416499D01*
X109291191Y-149455521D01*
X109219582Y-149500515D01*
X109096013Y-149624084D01*
X109003038Y-149772054D01*
X108945319Y-149937003D01*
X108925753Y-150110661D01*
X108945319Y-150284318D01*
X109003038Y-150449267D01*
X109096013Y-150597237D01*
X109219584Y-150720808D01*
X109367554Y-150813783D01*
X109532504Y-150871502D01*
X109619383Y-150881291D01*
X109675352Y-150902057D01*
X109715130Y-150946570D01*
X109729500Y-151004511D01*
X109729500Y-151516582D01*
X109715130Y-151574523D01*
X109675352Y-151619035D01*
X109619384Y-151639802D01*
X109536342Y-151649158D01*
X109505427Y-151659976D01*
X109482040Y-151665683D01*
X109480941Y-151665840D01*
X109479954Y-151665982D01*
X109094214Y-151756239D01*
X109065963Y-151759500D01*
X107255505Y-151759500D01*
X107234295Y-151757158D01*
X107161738Y-151759439D01*
X107157843Y-151759500D01*
X107129071Y-151759500D01*
X107124690Y-151760053D01*
X107113059Y-151760968D01*
X107067428Y-151762402D01*
X107047052Y-151768322D01*
X107028006Y-151772267D01*
X107006939Y-151774928D01*
X106964487Y-151791736D01*
X106953439Y-151795519D01*
X106909600Y-151808256D01*
X106891330Y-151819061D01*
X106873862Y-151827618D01*
X106862463Y-151832132D01*
X106854126Y-151835433D01*
X106817191Y-151862266D01*
X106807435Y-151868675D01*
X106768135Y-151891918D01*
X106753125Y-151906928D01*
X106738336Y-151919558D01*
X106721164Y-151932034D01*
X106692057Y-151967218D01*
X106684196Y-151975856D01*
X105520484Y-153139568D01*
X105503831Y-153152910D01*
X105454133Y-153205833D01*
X105451427Y-153208626D01*
X105431083Y-153228971D01*
X105428376Y-153232460D01*
X105420807Y-153241321D01*
X105389551Y-153274607D01*
X105379322Y-153293212D01*
X105368645Y-153309467D01*
X105355636Y-153326238D01*
X105337506Y-153368132D01*
X105332370Y-153378616D01*
X105310372Y-153418632D01*
X105305091Y-153439199D01*
X105298791Y-153457600D01*
X105290364Y-153477074D01*
X105283223Y-153522161D01*
X105280855Y-153533598D01*
X105269500Y-153577824D01*
X105269500Y-153599045D01*
X105267973Y-153618444D01*
X105264653Y-153639405D01*
X105266805Y-153662165D01*
X105268950Y-153684861D01*
X105269500Y-153696530D01*
X105269500Y-155505798D01*
X105255667Y-155562712D01*
X105217255Y-155606928D01*
X105162834Y-155628581D01*
X105104545Y-155622839D01*
X104934157Y-155563216D01*
X104760499Y-155543650D01*
X104586842Y-155563216D01*
X104421893Y-155620935D01*
X104273923Y-155713910D01*
X104150352Y-155837481D01*
X104057377Y-155985451D01*
X103999658Y-156150400D01*
X103980092Y-156324058D01*
X103983553Y-156354774D01*
X103973987Y-156418244D01*
X103933967Y-156468427D01*
X103874217Y-156491877D01*
X103720843Y-156509158D01*
X103555893Y-156566877D01*
X103407923Y-156659852D01*
X103284352Y-156783423D01*
X103216133Y-156891993D01*
X103210358Y-156900396D01*
X103205735Y-156906562D01*
X103155006Y-156988281D01*
X103110078Y-157031163D01*
X103049992Y-157046881D01*
X102989821Y-157031490D01*
X102944661Y-156988852D01*
X102910147Y-156933923D01*
X102786576Y-156810352D01*
X102638606Y-156717377D01*
X102473657Y-156659658D01*
X102300000Y-156640092D01*
X102126342Y-156659658D01*
X101961393Y-156717377D01*
X101813425Y-156810351D01*
X101748014Y-156875762D01*
X101694660Y-156907234D01*
X101632740Y-156908971D01*
X101577706Y-156880540D01*
X101543292Y-156829035D01*
X101523122Y-156771393D01*
X101430147Y-156623423D01*
X101306576Y-156499852D01*
X101158606Y-156406877D01*
X100993657Y-156349158D01*
X100820000Y-156329592D01*
X100646342Y-156349158D01*
X100481393Y-156406877D01*
X100333423Y-156499852D01*
X100209852Y-156623423D01*
X100116877Y-156771393D01*
X100059158Y-156936342D01*
X100039592Y-157109999D01*
X100056112Y-157256616D01*
X100044612Y-157324302D01*
X99998864Y-157375494D01*
X99932892Y-157394500D01*
X86300308Y-157394500D01*
X86252855Y-157385061D01*
X86212627Y-157358181D01*
X84474446Y-155620000D01*
X89304722Y-155620000D01*
X89323792Y-155837974D01*
X89380425Y-156049331D01*
X89427555Y-156150400D01*
X89472898Y-156247639D01*
X89598402Y-156426877D01*
X89753123Y-156581598D01*
X89932361Y-156707102D01*
X90130670Y-156799575D01*
X90342023Y-156856207D01*
X90560000Y-156875277D01*
X90777977Y-156856207D01*
X90989330Y-156799575D01*
X91187639Y-156707102D01*
X91366877Y-156581598D01*
X91521598Y-156426877D01*
X91647102Y-156247639D01*
X91739575Y-156049330D01*
X91796207Y-155837977D01*
X91815277Y-155620000D01*
X91796207Y-155402023D01*
X91739575Y-155190670D01*
X91647102Y-154992362D01*
X91521598Y-154813123D01*
X91366877Y-154658402D01*
X91187639Y-154532898D01*
X91069610Y-154477860D01*
X90989331Y-154440425D01*
X90777974Y-154383792D01*
X90560000Y-154364722D01*
X90342025Y-154383792D01*
X90130668Y-154440425D01*
X89932361Y-154532898D01*
X89753122Y-154658402D01*
X89598402Y-154813122D01*
X89472898Y-154992361D01*
X89380425Y-155190668D01*
X89323792Y-155402025D01*
X89304722Y-155620000D01*
X84474446Y-155620000D01*
X83544222Y-154689776D01*
X83514861Y-154643049D01*
X83508683Y-154588210D01*
X83526910Y-154536122D01*
X83565929Y-154497103D01*
X83656576Y-154440147D01*
X83780147Y-154316576D01*
X83873122Y-154168606D01*
X83930841Y-154003657D01*
X83950407Y-153830000D01*
X83930841Y-153656343D01*
X83924913Y-153639403D01*
X83873122Y-153491393D01*
X83780147Y-153343423D01*
X83656576Y-153219852D01*
X83508606Y-153126877D01*
X83343657Y-153069158D01*
X83170000Y-153049592D01*
X82996342Y-153069158D01*
X82831393Y-153126877D01*
X82683423Y-153219852D01*
X82554931Y-153348345D01*
X82499344Y-153380439D01*
X82435156Y-153380439D01*
X82379569Y-153348345D01*
X82351576Y-153320352D01*
X82203606Y-153227377D01*
X82038657Y-153169658D01*
X81865000Y-153150092D01*
X81691342Y-153169658D01*
X81526393Y-153227377D01*
X81378426Y-153320350D01*
X81254853Y-153443924D01*
X81235625Y-153474525D01*
X81196603Y-153513545D01*
X81144516Y-153531771D01*
X81041650Y-153543361D01*
X80876700Y-153601080D01*
X80728730Y-153694055D01*
X80605159Y-153817626D01*
X80512184Y-153965596D01*
X80454465Y-154130545D01*
X80434899Y-154304203D01*
X79988002Y-154304203D01*
X79952228Y-154264472D01*
X79807596Y-154159389D01*
X79644264Y-154086669D01*
X79469393Y-154049500D01*
X79469391Y-154049500D01*
X79290609Y-154049500D01*
X79290607Y-154049500D01*
X79115735Y-154086669D01*
X78952408Y-154159387D01*
X78807768Y-154264474D01*
X78688140Y-154397334D01*
X78598749Y-154552164D01*
X78543503Y-154722195D01*
X78524815Y-154900000D01*
X77930981Y-154900000D01*
X77916497Y-154762197D01*
X77861250Y-154592165D01*
X77861250Y-154592164D01*
X77771859Y-154437334D01*
X77652228Y-154304472D01*
X77507596Y-154199389D01*
X77344264Y-154126669D01*
X77169393Y-154089500D01*
X77169391Y-154089500D01*
X76990609Y-154089500D01*
X76990607Y-154089500D01*
X76815735Y-154126669D01*
X76652408Y-154199387D01*
X76507768Y-154304474D01*
X76388140Y-154437334D01*
X76298749Y-154592164D01*
X76243503Y-154762195D01*
X76229019Y-154900000D01*
X76224815Y-154940000D01*
X37372500Y-154940000D01*
X37372500Y-152299999D01*
X85594815Y-152299999D01*
X85613503Y-152477804D01*
X85668749Y-152647835D01*
X85758140Y-152802665D01*
X85877771Y-152935527D01*
X86022403Y-153040610D01*
X86022406Y-153040611D01*
X86022407Y-153040612D01*
X86074401Y-153063761D01*
X86185735Y-153113330D01*
X86360607Y-153150500D01*
X86360609Y-153150500D01*
X86539391Y-153150500D01*
X86539393Y-153150500D01*
X86714264Y-153113330D01*
X86714265Y-153113329D01*
X86714267Y-153113329D01*
X86877593Y-153040612D01*
X87022230Y-152935526D01*
X87141859Y-152802665D01*
X87231250Y-152647835D01*
X87282534Y-152490000D01*
X97119592Y-152490000D01*
X97139158Y-152663657D01*
X97196877Y-152828606D01*
X97289852Y-152976576D01*
X97413423Y-153100147D01*
X97561393Y-153193122D01*
X97726342Y-153250841D01*
X97900000Y-153270407D01*
X98073657Y-153250841D01*
X98238606Y-153193122D01*
X98386576Y-153100147D01*
X98510147Y-152976576D01*
X98603122Y-152828606D01*
X98660841Y-152663657D01*
X98680407Y-152490000D01*
X98664633Y-152350000D01*
X100759592Y-152350000D01*
X100779158Y-152523657D01*
X100836877Y-152688606D01*
X100929852Y-152836576D01*
X101053423Y-152960147D01*
X101201393Y-153053122D01*
X101366342Y-153110841D01*
X101540000Y-153130407D01*
X101713657Y-153110841D01*
X101878606Y-153053122D01*
X102026576Y-152960147D01*
X102150147Y-152836576D01*
X102243122Y-152688606D01*
X102300841Y-152523657D01*
X102320407Y-152350000D01*
X102316615Y-152316342D01*
X102300841Y-152176342D01*
X102243122Y-152011393D01*
X102150147Y-151863423D01*
X102026576Y-151739852D01*
X101878606Y-151646877D01*
X101713656Y-151589158D01*
X101567196Y-151572656D01*
X101536518Y-151561272D01*
X101502803Y-151573783D01*
X101366343Y-151589158D01*
X101201393Y-151646877D01*
X101053423Y-151739852D01*
X100929852Y-151863423D01*
X100836877Y-152011393D01*
X100779158Y-152176342D01*
X100759592Y-152350000D01*
X98664633Y-152350000D01*
X98660841Y-152316343D01*
X98655122Y-152300000D01*
X98603122Y-152151393D01*
X98510147Y-152003423D01*
X98386576Y-151879852D01*
X98238606Y-151786877D01*
X98073657Y-151729158D01*
X97900000Y-151709592D01*
X97726342Y-151729158D01*
X97561393Y-151786877D01*
X97413423Y-151879852D01*
X97289852Y-152003423D01*
X97196877Y-152151393D01*
X97139158Y-152316342D01*
X97119592Y-152490000D01*
X87282534Y-152490000D01*
X87286497Y-152477803D01*
X87305185Y-152300000D01*
X87286497Y-152122197D01*
X87250495Y-152011394D01*
X87231250Y-151952164D01*
X87141859Y-151797334D01*
X87022228Y-151664472D01*
X86877596Y-151559389D01*
X86714264Y-151486669D01*
X86539393Y-151449500D01*
X86539391Y-151449500D01*
X86360609Y-151449500D01*
X86360607Y-151449500D01*
X86185735Y-151486669D01*
X86022408Y-151559387D01*
X85877768Y-151664474D01*
X85758140Y-151797334D01*
X85668749Y-151952164D01*
X85613503Y-152122195D01*
X85594815Y-152299999D01*
X37372500Y-152299999D01*
X37372500Y-150340000D01*
X77879592Y-150340000D01*
X77899158Y-150513657D01*
X77956877Y-150678606D01*
X78049852Y-150826576D01*
X78173423Y-150950147D01*
X78321393Y-151043122D01*
X78486342Y-151100841D01*
X78660000Y-151120407D01*
X78833657Y-151100841D01*
X78864575Y-151090021D01*
X78887978Y-151084312D01*
X78890047Y-151084017D01*
X79275782Y-150993760D01*
X79304033Y-150990500D01*
X83366874Y-150990500D01*
X83420786Y-151002833D01*
X83463974Y-151037380D01*
X83492394Y-151073163D01*
X83500286Y-151084308D01*
X83504853Y-151091576D01*
X83510369Y-151097092D01*
X83513984Y-151101145D01*
X83521449Y-151108231D01*
X83523725Y-151110448D01*
X83582607Y-151169330D01*
X83628426Y-151215149D01*
X83776393Y-151308122D01*
X83941342Y-151365841D01*
X84115000Y-151385407D01*
X84288657Y-151365841D01*
X84453606Y-151308122D01*
X84601576Y-151215147D01*
X84725147Y-151091576D01*
X84818122Y-150943606D01*
X84875841Y-150778657D01*
X84880197Y-150739999D01*
X89304722Y-150739999D01*
X89323792Y-150957974D01*
X89380425Y-151169331D01*
X89413845Y-151240999D01*
X89472898Y-151367639D01*
X89598402Y-151546877D01*
X89753123Y-151701598D01*
X89932361Y-151827102D01*
X90130670Y-151919575D01*
X90342023Y-151976207D01*
X90560000Y-151995277D01*
X90777977Y-151976207D01*
X90989330Y-151919575D01*
X91187639Y-151827102D01*
X91366877Y-151701598D01*
X91521598Y-151546877D01*
X91647102Y-151367639D01*
X91739575Y-151169330D01*
X91796207Y-150957977D01*
X91815277Y-150740000D01*
X91796207Y-150522023D01*
X91739575Y-150310670D01*
X91647102Y-150112362D01*
X91521598Y-149933123D01*
X91366877Y-149778402D01*
X91187639Y-149652898D01*
X91096205Y-149610261D01*
X90989331Y-149560425D01*
X90777974Y-149503792D01*
X90560000Y-149484722D01*
X90342025Y-149503792D01*
X90130668Y-149560425D01*
X89932361Y-149652898D01*
X89753122Y-149778402D01*
X89598402Y-149933122D01*
X89472898Y-150112361D01*
X89380425Y-150310668D01*
X89323792Y-150522025D01*
X89304722Y-150739999D01*
X84880197Y-150739999D01*
X84895407Y-150605000D01*
X84875841Y-150431343D01*
X84861962Y-150391681D01*
X84818122Y-150266393D01*
X84725147Y-150118423D01*
X84601576Y-149994852D01*
X84453609Y-149901880D01*
X84453606Y-149901878D01*
X84389602Y-149879481D01*
X84379296Y-149875347D01*
X84350846Y-149862424D01*
X84292887Y-149845323D01*
X84243097Y-149816786D01*
X84235393Y-149809551D01*
X84216793Y-149799326D01*
X84200532Y-149788645D01*
X84183764Y-149775638D01*
X84175484Y-149772055D01*
X84141869Y-149757508D01*
X84131379Y-149752369D01*
X84091367Y-149730372D01*
X84070800Y-149725091D01*
X84052398Y-149718791D01*
X84032924Y-149710364D01*
X83987837Y-149703223D01*
X83976398Y-149700854D01*
X83932178Y-149689500D01*
X83932177Y-149689500D01*
X83910955Y-149689500D01*
X83891556Y-149687973D01*
X83870596Y-149684653D01*
X83870595Y-149684653D01*
X83853818Y-149686239D01*
X83825139Y-149688950D01*
X83813470Y-149689500D01*
X83689726Y-149689500D01*
X83682954Y-149689315D01*
X83678295Y-149689060D01*
X83678292Y-149689060D01*
X83671164Y-149689222D01*
X83671160Y-149689222D01*
X83664764Y-149689368D01*
X83664761Y-149689272D01*
X83661154Y-149689500D01*
X79304036Y-149689500D01*
X79275785Y-149686239D01*
X78890033Y-149595979D01*
X78887954Y-149595682D01*
X78864568Y-149589975D01*
X78833655Y-149579158D01*
X78660000Y-149559592D01*
X78486342Y-149579158D01*
X78321393Y-149636877D01*
X78173423Y-149729852D01*
X78049852Y-149853423D01*
X77956877Y-150001393D01*
X77899158Y-150166342D01*
X77879592Y-150340000D01*
X37372500Y-150340000D01*
X37372500Y-144147872D01*
X37372566Y-144145000D01*
X40016531Y-144145000D01*
X40036364Y-144371689D01*
X40095261Y-144591497D01*
X40191432Y-144797735D01*
X40321953Y-144984140D01*
X40482859Y-145145046D01*
X40669264Y-145275567D01*
X40669265Y-145275567D01*
X40669266Y-145275568D01*
X40875504Y-145371739D01*
X41095308Y-145430635D01*
X41180261Y-145438067D01*
X41265214Y-145445500D01*
X41265216Y-145445500D01*
X41378784Y-145445500D01*
X41378786Y-145445500D01*
X41446747Y-145439553D01*
X41548692Y-145430635D01*
X41768496Y-145371739D01*
X41974734Y-145275568D01*
X42161139Y-145145047D01*
X42322047Y-144984139D01*
X42452568Y-144797734D01*
X42548739Y-144591496D01*
X42607635Y-144371692D01*
X42627468Y-144145000D01*
X42607635Y-143918308D01*
X42548739Y-143698504D01*
X42452568Y-143492266D01*
X42440847Y-143475527D01*
X42322046Y-143305859D01*
X42161140Y-143144953D01*
X41974735Y-143014432D01*
X41768497Y-142918261D01*
X41548689Y-142859364D01*
X41378786Y-142844500D01*
X41378784Y-142844500D01*
X41265216Y-142844500D01*
X41265214Y-142844500D01*
X41095310Y-142859364D01*
X40875502Y-142918261D01*
X40669264Y-143014432D01*
X40482859Y-143144953D01*
X40321953Y-143305859D01*
X40191432Y-143492264D01*
X40095261Y-143698502D01*
X40036364Y-143918310D01*
X40016531Y-144145000D01*
X37372566Y-144145000D01*
X37372632Y-144142145D01*
X37375204Y-144086512D01*
X37389083Y-143786300D01*
X37390140Y-143774905D01*
X37438958Y-143424944D01*
X37441058Y-143413708D01*
X37521961Y-143069732D01*
X37525084Y-143058753D01*
X37637387Y-142723685D01*
X37641510Y-142713046D01*
X37784245Y-142389781D01*
X37789328Y-142379572D01*
X37961278Y-142070862D01*
X37967304Y-142061130D01*
X38166999Y-141769612D01*
X38173881Y-141760498D01*
X38399636Y-141488630D01*
X38407332Y-141480190D01*
X38657190Y-141230332D01*
X38665630Y-141222636D01*
X38937498Y-140996881D01*
X38946612Y-140989999D01*
X39238136Y-140790300D01*
X39247862Y-140784278D01*
X39556572Y-140612328D01*
X39566781Y-140607245D01*
X39890046Y-140464510D01*
X39900685Y-140460387D01*
X40235753Y-140348084D01*
X40246732Y-140344961D01*
X40590708Y-140264058D01*
X40601944Y-140261958D01*
X40951914Y-140213139D01*
X40963300Y-140212083D01*
X41316290Y-140195764D01*
X41327710Y-140195764D01*
X41680697Y-140212083D01*
X41692086Y-140213139D01*
X42042051Y-140261957D01*
X42053295Y-140264059D01*
X42397261Y-140344959D01*
X42408251Y-140348086D01*
X42743306Y-140460385D01*
X42753960Y-140464513D01*
X43077209Y-140607241D01*
X43087436Y-140612333D01*
X43328689Y-140746710D01*
X43396131Y-140784275D01*
X43405869Y-140790304D01*
X43697374Y-140989990D01*
X43706511Y-140996890D01*
X43761456Y-141042515D01*
X43978356Y-141222626D01*
X43986820Y-141230343D01*
X44236656Y-141480179D01*
X44244373Y-141488643D01*
X44470107Y-141760485D01*
X44477009Y-141769625D01*
X44676695Y-142061130D01*
X44682724Y-142070868D01*
X44770137Y-142227804D01*
X44854289Y-142378887D01*
X44854659Y-142379550D01*
X44859762Y-142389799D01*
X44990339Y-142685527D01*
X45002481Y-142713026D01*
X45006619Y-142723706D01*
X45118909Y-143058735D01*
X45122043Y-143069751D01*
X45202938Y-143413696D01*
X45205043Y-143424955D01*
X45253859Y-143774905D01*
X45254916Y-143786309D01*
X45271368Y-144142145D01*
X45271500Y-144147872D01*
X45271500Y-145515376D01*
X45271076Y-145525614D01*
X45267868Y-145564344D01*
X45276819Y-145599694D01*
X45277408Y-145602018D01*
X45279507Y-145612029D01*
X45281363Y-145623146D01*
X45285973Y-145650773D01*
X45296367Y-145677409D01*
X45317836Y-145710270D01*
X45323081Y-145719072D01*
X45341771Y-145753608D01*
X45360249Y-145775424D01*
X45360562Y-145775667D01*
X45360563Y-145775669D01*
X45375105Y-145786987D01*
X45391234Y-145799541D01*
X45399055Y-145806166D01*
X45427934Y-145832752D01*
X45452494Y-145847386D01*
X45452872Y-145847516D01*
X45452874Y-145847517D01*
X45489623Y-145860133D01*
X45499165Y-145863856D01*
X45535133Y-145879633D01*
X45563114Y-145885500D01*
X45563512Y-145885500D01*
X45602376Y-145885500D01*
X45612614Y-145885923D01*
X45651344Y-145889132D01*
X45651347Y-145889131D01*
X45651744Y-145889164D01*
X45681142Y-145885500D01*
X48047500Y-145885500D01*
X48109500Y-145902113D01*
X48154887Y-145947500D01*
X48171500Y-146009500D01*
X48171500Y-147015376D01*
X48171076Y-147025614D01*
X48167868Y-147064344D01*
X48175349Y-147093889D01*
X48177408Y-147102018D01*
X48179507Y-147112029D01*
X48182517Y-147130061D01*
X48185973Y-147150773D01*
X48196367Y-147177409D01*
X48217836Y-147210270D01*
X48223081Y-147219072D01*
X48241771Y-147253608D01*
X48260249Y-147275424D01*
X48260562Y-147275667D01*
X48260563Y-147275669D01*
X48279618Y-147290500D01*
X48291234Y-147299541D01*
X48299055Y-147306166D01*
X48327934Y-147332752D01*
X48352494Y-147347386D01*
X48352872Y-147347516D01*
X48352874Y-147347517D01*
X48389623Y-147360133D01*
X48399165Y-147363856D01*
X48435133Y-147379633D01*
X48463114Y-147385500D01*
X48463512Y-147385500D01*
X48502376Y-147385500D01*
X48512614Y-147385923D01*
X48551344Y-147389132D01*
X48551347Y-147389131D01*
X48551744Y-147389164D01*
X48581142Y-147385500D01*
X67385137Y-147385500D01*
X67471588Y-147377489D01*
X67785691Y-147348383D01*
X68181113Y-147274466D01*
X68450614Y-147197786D01*
X68568019Y-147164382D01*
X68568023Y-147164380D01*
X68568028Y-147164379D01*
X68579332Y-147160000D01*
X80904815Y-147160000D01*
X80909453Y-147204126D01*
X80923503Y-147337804D01*
X80978749Y-147507835D01*
X81068140Y-147662665D01*
X81187771Y-147795527D01*
X81332403Y-147900610D01*
X81332406Y-147900611D01*
X81332407Y-147900612D01*
X81395629Y-147928760D01*
X81495735Y-147973330D01*
X81670607Y-148010500D01*
X81670609Y-148010500D01*
X81849391Y-148010500D01*
X81849393Y-148010500D01*
X82024264Y-147973330D01*
X82024265Y-147973329D01*
X82024267Y-147973329D01*
X82187593Y-147900612D01*
X82332230Y-147795526D01*
X82451859Y-147662665D01*
X82541250Y-147507835D01*
X82596497Y-147337803D01*
X82615185Y-147160000D01*
X82596497Y-146982197D01*
X82541250Y-146812165D01*
X82541250Y-146812164D01*
X82451859Y-146657334D01*
X82332228Y-146524472D01*
X82215963Y-146439999D01*
X87144815Y-146439999D01*
X87163503Y-146617804D01*
X87218749Y-146787835D01*
X87308140Y-146942665D01*
X87427771Y-147075527D01*
X87572403Y-147180610D01*
X87572406Y-147180611D01*
X87572407Y-147180612D01*
X87645480Y-147213146D01*
X87735735Y-147253330D01*
X87910607Y-147290500D01*
X87910609Y-147290500D01*
X88089391Y-147290500D01*
X88089393Y-147290500D01*
X88264264Y-147253330D01*
X88264265Y-147253329D01*
X88264267Y-147253329D01*
X88427593Y-147180612D01*
X88449932Y-147164382D01*
X88484178Y-147139500D01*
X88572230Y-147075526D01*
X88691859Y-146942665D01*
X88781250Y-146787835D01*
X88836497Y-146617803D01*
X88855185Y-146440000D01*
X88836497Y-146262197D01*
X88781250Y-146092165D01*
X88781250Y-146092164D01*
X88691859Y-145937334D01*
X88572228Y-145804472D01*
X88427596Y-145699389D01*
X88264264Y-145626669D01*
X88089393Y-145589500D01*
X88089391Y-145589500D01*
X87910609Y-145589500D01*
X87910607Y-145589500D01*
X87735735Y-145626669D01*
X87572408Y-145699387D01*
X87427768Y-145804474D01*
X87308140Y-145937334D01*
X87218749Y-146092164D01*
X87163503Y-146262195D01*
X87144815Y-146439999D01*
X82215963Y-146439999D01*
X82187596Y-146419389D01*
X82024264Y-146346669D01*
X81849393Y-146309500D01*
X81849391Y-146309500D01*
X81670609Y-146309500D01*
X81670607Y-146309500D01*
X81495735Y-146346669D01*
X81332408Y-146419387D01*
X81187768Y-146524474D01*
X81068140Y-146657334D01*
X80978749Y-146812164D01*
X80923503Y-146982195D01*
X80907962Y-147130061D01*
X80904815Y-147160000D01*
X68579332Y-147160000D01*
X68943135Y-147019062D01*
X69303234Y-146839754D01*
X69645252Y-146627985D01*
X69966272Y-146385563D01*
X70263554Y-146114554D01*
X70534563Y-145817272D01*
X70776985Y-145496252D01*
X70988754Y-145154234D01*
X71168062Y-144794135D01*
X71266514Y-144540000D01*
X89029340Y-144540000D01*
X89049936Y-144775407D01*
X89074707Y-144867852D01*
X89111097Y-145003663D01*
X89210965Y-145217830D01*
X89346505Y-145411401D01*
X89513599Y-145578495D01*
X89707170Y-145714035D01*
X89921337Y-145813903D01*
X90149592Y-145875063D01*
X90385000Y-145895659D01*
X90620408Y-145875063D01*
X90848663Y-145813903D01*
X91062830Y-145714035D01*
X91256401Y-145578495D01*
X91423495Y-145411401D01*
X91559035Y-145217830D01*
X91658903Y-145003663D01*
X91720063Y-144775408D01*
X91740659Y-144540000D01*
X91720063Y-144304592D01*
X91658903Y-144076337D01*
X91559035Y-143862171D01*
X91423495Y-143668599D01*
X91301569Y-143546673D01*
X91270273Y-143493927D01*
X91268084Y-143432634D01*
X91295537Y-143377789D01*
X91345916Y-143342810D01*
X91477331Y-143293796D01*
X91592546Y-143207546D01*
X91678796Y-143092331D01*
X91729091Y-142957483D01*
X91735500Y-142897873D01*
X91735499Y-141102128D01*
X91729091Y-141042517D01*
X91678796Y-140907669D01*
X91592546Y-140792454D01*
X91477331Y-140706204D01*
X91342483Y-140655909D01*
X91282873Y-140649500D01*
X91282869Y-140649500D01*
X89487130Y-140649500D01*
X89427515Y-140655909D01*
X89292669Y-140706204D01*
X89177454Y-140792454D01*
X89091204Y-140907668D01*
X89040909Y-141042516D01*
X89034500Y-141102130D01*
X89034500Y-142897869D01*
X89040909Y-142957484D01*
X89062150Y-143014432D01*
X89091204Y-143092331D01*
X89177454Y-143207546D01*
X89292669Y-143293796D01*
X89404907Y-143335658D01*
X89424082Y-143342810D01*
X89474462Y-143377789D01*
X89501915Y-143432634D01*
X89499726Y-143493926D01*
X89468431Y-143546673D01*
X89346503Y-143668601D01*
X89210965Y-143862170D01*
X89111097Y-144076336D01*
X89049936Y-144304592D01*
X89029340Y-144540000D01*
X71266514Y-144540000D01*
X71313379Y-144419028D01*
X71326848Y-144371692D01*
X71346786Y-144301614D01*
X71423466Y-144032113D01*
X71497383Y-143636691D01*
X71534500Y-143236136D01*
X71534500Y-143035000D01*
X71534500Y-142979486D01*
X71534500Y-141340000D01*
X83834815Y-141340000D01*
X83853503Y-141517804D01*
X83908749Y-141687835D01*
X83998140Y-141842665D01*
X84117771Y-141975527D01*
X84262403Y-142080610D01*
X84262406Y-142080611D01*
X84262407Y-142080612D01*
X84371290Y-142129089D01*
X84425735Y-142153330D01*
X84600607Y-142190500D01*
X84600609Y-142190500D01*
X84779391Y-142190500D01*
X84779393Y-142190500D01*
X84954264Y-142153330D01*
X84954265Y-142153329D01*
X84954267Y-142153329D01*
X85117593Y-142080612D01*
X85262230Y-141975526D01*
X85381859Y-141842665D01*
X85471250Y-141687835D01*
X85526497Y-141517803D01*
X85545185Y-141340000D01*
X85526497Y-141162197D01*
X85497840Y-141074001D01*
X85471250Y-140992164D01*
X85381859Y-140837334D01*
X85262228Y-140704472D01*
X85117596Y-140599389D01*
X84954264Y-140526669D01*
X84779393Y-140489500D01*
X84779391Y-140489500D01*
X84600609Y-140489500D01*
X84600607Y-140489500D01*
X84425735Y-140526669D01*
X84262408Y-140599387D01*
X84117768Y-140704474D01*
X83998140Y-140837334D01*
X83908749Y-140992164D01*
X83853503Y-141162195D01*
X83834815Y-141340000D01*
X71534500Y-141340000D01*
X71534500Y-138179051D01*
X71534575Y-138175999D01*
X73878531Y-138175999D01*
X73898364Y-138402689D01*
X73957261Y-138622497D01*
X74053432Y-138828735D01*
X74183953Y-139015140D01*
X74344859Y-139176046D01*
X74531264Y-139306567D01*
X74531265Y-139306567D01*
X74531266Y-139306568D01*
X74737504Y-139402739D01*
X74957308Y-139461635D01*
X75042261Y-139469067D01*
X75127214Y-139476500D01*
X75127216Y-139476500D01*
X75240784Y-139476500D01*
X75240786Y-139476500D01*
X75308747Y-139470553D01*
X75410692Y-139461635D01*
X75630496Y-139402739D01*
X75836734Y-139306568D01*
X76023139Y-139176047D01*
X76184047Y-139015139D01*
X76314568Y-138828734D01*
X76410739Y-138622496D01*
X76448920Y-138480000D01*
X90139592Y-138480000D01*
X90159158Y-138653657D01*
X90216877Y-138818606D01*
X90309852Y-138966576D01*
X90433421Y-139090145D01*
X90541996Y-139158367D01*
X90550407Y-139164149D01*
X90556558Y-139168760D01*
X90556563Y-139168763D01*
X90556567Y-139168766D01*
X90778552Y-139306567D01*
X90893146Y-139377703D01*
X90915428Y-139395374D01*
X91479564Y-139959510D01*
X91492912Y-139976169D01*
X91545831Y-140025864D01*
X91548628Y-140028575D01*
X91568962Y-140048909D01*
X91572443Y-140051609D01*
X91581326Y-140059195D01*
X91614607Y-140090448D01*
X91633198Y-140100668D01*
X91649462Y-140111351D01*
X91666235Y-140124362D01*
X91708138Y-140142495D01*
X91718626Y-140147633D01*
X91758632Y-140169627D01*
X91779197Y-140174906D01*
X91797593Y-140181205D01*
X91817074Y-140189636D01*
X91862178Y-140196779D01*
X91873597Y-140199144D01*
X91917823Y-140210500D01*
X91939045Y-140210500D01*
X91958443Y-140212026D01*
X91979405Y-140215347D01*
X92024863Y-140211049D01*
X92036531Y-140210500D01*
X92437009Y-140210500D01*
X92484462Y-140219939D01*
X92524690Y-140246819D01*
X94828181Y-142550310D01*
X94855061Y-142590538D01*
X94864500Y-142637991D01*
X94864500Y-149425463D01*
X94861239Y-149453714D01*
X94771562Y-149836978D01*
X94770982Y-149839455D01*
X94770686Y-149841526D01*
X94770684Y-149841539D01*
X94764976Y-149864927D01*
X94754158Y-149895842D01*
X94734592Y-150069500D01*
X94754158Y-150243157D01*
X94811877Y-150408106D01*
X94904852Y-150556076D01*
X95028423Y-150679647D01*
X95176393Y-150772622D01*
X95341342Y-150830341D01*
X95515000Y-150849907D01*
X95688657Y-150830341D01*
X95853606Y-150772622D01*
X96001576Y-150679647D01*
X96125147Y-150556076D01*
X96128965Y-150550000D01*
X100749592Y-150550000D01*
X100769158Y-150723657D01*
X100826877Y-150888606D01*
X100919852Y-151036576D01*
X101043423Y-151160147D01*
X101191393Y-151253122D01*
X101356343Y-151310841D01*
X101502802Y-151327343D01*
X101533480Y-151338725D01*
X101567197Y-151326216D01*
X101567301Y-151326204D01*
X101703657Y-151310841D01*
X101868606Y-151253122D01*
X102016576Y-151160147D01*
X102140147Y-151036576D01*
X102233122Y-150888606D01*
X102290841Y-150723657D01*
X102310407Y-150550000D01*
X102290841Y-150376343D01*
X102283832Y-150356314D01*
X102233122Y-150211393D01*
X102140147Y-150063423D01*
X102016576Y-149939852D01*
X101868606Y-149846877D01*
X101703657Y-149789158D01*
X101530000Y-149769592D01*
X101356342Y-149789158D01*
X101191393Y-149846877D01*
X101043423Y-149939852D01*
X100919852Y-150063423D01*
X100826877Y-150211393D01*
X100769158Y-150376342D01*
X100749592Y-150550000D01*
X96128965Y-150550000D01*
X96218122Y-150408106D01*
X96275841Y-150243157D01*
X96295407Y-150069500D01*
X96275841Y-149895843D01*
X96265022Y-149864927D01*
X96259313Y-149841526D01*
X96259017Y-149839453D01*
X96168760Y-149453714D01*
X96165500Y-149425464D01*
X96165500Y-146647936D01*
X96182611Y-146585081D01*
X96229221Y-146539573D01*
X96292467Y-146523972D01*
X96354895Y-146542582D01*
X96363142Y-146547701D01*
X96385428Y-146565374D01*
X98009564Y-148189510D01*
X98022912Y-148206169D01*
X98075831Y-148255864D01*
X98078628Y-148258575D01*
X98098961Y-148278908D01*
X98102442Y-148281608D01*
X98111325Y-148289194D01*
X98123608Y-148300729D01*
X98144607Y-148320448D01*
X98163206Y-148330673D01*
X98179466Y-148341354D01*
X98196236Y-148354362D01*
X98199021Y-148355567D01*
X98238129Y-148372491D01*
X98248620Y-148377630D01*
X98288632Y-148399627D01*
X98309196Y-148404906D01*
X98327601Y-148411208D01*
X98347074Y-148419635D01*
X98392171Y-148426777D01*
X98403586Y-148429141D01*
X98447823Y-148440500D01*
X98469045Y-148440500D01*
X98488444Y-148442027D01*
X98490799Y-148442399D01*
X98509405Y-148445347D01*
X98551319Y-148441384D01*
X98554861Y-148441050D01*
X98566530Y-148440500D01*
X103616672Y-148440500D01*
X103644922Y-148443760D01*
X104007567Y-148528614D01*
X104059702Y-148554939D01*
X104094004Y-148602211D01*
X104102861Y-148659942D01*
X104084309Y-148715323D01*
X104011376Y-148831397D01*
X103949044Y-149009531D01*
X103947970Y-149009155D01*
X103931897Y-149051255D01*
X103884568Y-149091216D01*
X103823815Y-149103298D01*
X103782293Y-149090062D01*
X103781793Y-149091492D01*
X103603657Y-149029158D01*
X103430000Y-149009592D01*
X103256342Y-149029158D01*
X103091393Y-149086877D01*
X102943423Y-149179852D01*
X102819852Y-149303423D01*
X102726877Y-149451393D01*
X102669158Y-149616342D01*
X102649592Y-149789999D01*
X102669158Y-149963657D01*
X102726877Y-150128606D01*
X102819852Y-150276576D01*
X102943423Y-150400147D01*
X103091393Y-150493122D01*
X103269531Y-150555456D01*
X103269018Y-150556919D01*
X103300649Y-150567886D01*
X103339516Y-150606102D01*
X103358240Y-150657293D01*
X103353202Y-150711568D01*
X103343964Y-150740000D01*
X103333503Y-150772197D01*
X103321268Y-150888606D01*
X103314815Y-150950000D01*
X103333503Y-151127804D01*
X103388749Y-151297835D01*
X103478140Y-151452665D01*
X103597771Y-151585527D01*
X103742405Y-151690611D01*
X103748209Y-151693196D01*
X103801430Y-151738423D01*
X103821766Y-151805238D01*
X103802766Y-151872446D01*
X103746877Y-151961393D01*
X103689158Y-152126342D01*
X103669592Y-152300000D01*
X103689158Y-152473657D01*
X103746877Y-152638606D01*
X103839852Y-152786576D01*
X103963423Y-152910147D01*
X104111393Y-153003122D01*
X104276342Y-153060841D01*
X104450000Y-153080407D01*
X104623657Y-153060841D01*
X104788606Y-153003122D01*
X104936576Y-152910147D01*
X105060147Y-152786576D01*
X105153122Y-152638606D01*
X105210841Y-152473657D01*
X105230407Y-152300000D01*
X105210841Y-152126343D01*
X105209390Y-152122197D01*
X105153122Y-151961393D01*
X105060147Y-151813423D01*
X104936576Y-151689852D01*
X104877271Y-151652589D01*
X104839121Y-151614936D01*
X104820427Y-151564699D01*
X104824683Y-151511266D01*
X104851091Y-151464622D01*
X104861859Y-151452665D01*
X104951250Y-151297835D01*
X105006497Y-151127803D01*
X105025185Y-150950000D01*
X105006497Y-150772197D01*
X104959120Y-150626385D01*
X104951250Y-150602164D01*
X104861859Y-150447334D01*
X104742228Y-150314472D01*
X104597595Y-150209388D01*
X104512177Y-150171358D01*
X104459227Y-150126544D01*
X104438632Y-150060304D01*
X104456836Y-149993367D01*
X104508143Y-149946682D01*
X104576496Y-149934858D01*
X104714500Y-149950407D01*
X104888157Y-149930841D01*
X105053106Y-149873122D01*
X105201076Y-149780147D01*
X105324647Y-149656576D01*
X105417622Y-149508606D01*
X105475341Y-149343657D01*
X105494907Y-149169999D01*
X105475341Y-148996342D01*
X105417622Y-148831393D01*
X105324647Y-148683423D01*
X105201076Y-148559852D01*
X105053106Y-148466877D01*
X104952444Y-148431654D01*
X104905718Y-148402294D01*
X104876357Y-148355567D01*
X104870179Y-148300729D01*
X104888404Y-148248643D01*
X104963828Y-148128606D01*
X105021547Y-147963657D01*
X105041113Y-147790000D01*
X105021547Y-147616343D01*
X104981424Y-147501681D01*
X104963828Y-147451393D01*
X104870853Y-147303423D01*
X104747282Y-147179852D01*
X104599312Y-147086877D01*
X104434363Y-147029158D01*
X104260706Y-147009592D01*
X104087048Y-147029158D01*
X104056133Y-147039976D01*
X104032746Y-147045683D01*
X104031647Y-147045840D01*
X104030660Y-147045982D01*
X103791174Y-147102018D01*
X103671324Y-147130061D01*
X103644920Y-147136239D01*
X103616669Y-147139500D01*
X98850808Y-147139500D01*
X98803355Y-147130061D01*
X98763127Y-147103181D01*
X97305374Y-145645428D01*
X97287703Y-145623146D01*
X97287136Y-145622232D01*
X97078766Y-145286567D01*
X97078763Y-145286563D01*
X97078760Y-145286558D01*
X97074149Y-145280407D01*
X97068367Y-145271996D01*
X97000145Y-145163421D01*
X96876576Y-145039852D01*
X96728606Y-144946877D01*
X96563657Y-144889158D01*
X96390000Y-144869592D01*
X96303384Y-144879352D01*
X96235699Y-144867852D01*
X96184506Y-144822104D01*
X96165500Y-144756132D01*
X96165500Y-142840000D01*
X107184815Y-142840000D01*
X107203503Y-143017804D01*
X107258749Y-143187835D01*
X107348140Y-143342665D01*
X107467771Y-143475527D01*
X107612403Y-143580610D01*
X107775735Y-143653330D01*
X107950607Y-143690500D01*
X107950609Y-143690500D01*
X108129391Y-143690500D01*
X108129393Y-143690500D01*
X108304264Y-143653330D01*
X108304265Y-143653329D01*
X108304267Y-143653329D01*
X108467593Y-143580612D01*
X108612230Y-143475526D01*
X108731859Y-143342665D01*
X108821250Y-143187835D01*
X108876497Y-143017803D01*
X108895185Y-142840000D01*
X108876497Y-142662197D01*
X108821250Y-142492165D01*
X108821250Y-142492164D01*
X108731859Y-142337334D01*
X108612228Y-142204472D01*
X108467596Y-142099389D01*
X108356666Y-142050000D01*
X111454815Y-142050000D01*
X111473503Y-142227804D01*
X111528749Y-142397835D01*
X111618140Y-142552665D01*
X111737771Y-142685527D01*
X111882403Y-142790610D01*
X112045735Y-142863330D01*
X112220607Y-142900500D01*
X112220609Y-142900500D01*
X112399391Y-142900500D01*
X112399393Y-142900500D01*
X112574264Y-142863330D01*
X112574265Y-142863329D01*
X112574267Y-142863329D01*
X112737593Y-142790612D01*
X112882230Y-142685526D01*
X113001859Y-142552665D01*
X113091250Y-142397835D01*
X113146497Y-142227803D01*
X113165185Y-142050000D01*
X113146497Y-141872197D01*
X113091250Y-141702165D01*
X113091250Y-141702164D01*
X113001859Y-141547334D01*
X112882228Y-141414472D01*
X112737596Y-141309389D01*
X112574264Y-141236669D01*
X112399393Y-141199500D01*
X112399391Y-141199500D01*
X112220609Y-141199500D01*
X112220607Y-141199500D01*
X112045735Y-141236669D01*
X111882408Y-141309387D01*
X111737768Y-141414474D01*
X111618140Y-141547334D01*
X111528749Y-141702164D01*
X111473503Y-141872195D01*
X111454815Y-142050000D01*
X108356666Y-142050000D01*
X108304264Y-142026669D01*
X108129393Y-141989500D01*
X108129391Y-141989500D01*
X107950609Y-141989500D01*
X107950607Y-141989500D01*
X107775735Y-142026669D01*
X107612408Y-142099387D01*
X107467768Y-142204474D01*
X107348140Y-142337334D01*
X107258749Y-142492164D01*
X107203503Y-142662195D01*
X107184815Y-142840000D01*
X96165500Y-142840000D01*
X96165500Y-142402688D01*
X96167841Y-142381477D01*
X96167280Y-142363635D01*
X96165561Y-142308907D01*
X96165500Y-142305012D01*
X96165500Y-142276265D01*
X96165500Y-142276258D01*
X96164947Y-142271883D01*
X96164031Y-142260246D01*
X96163012Y-142227804D01*
X96162598Y-142214614D01*
X96156675Y-142194228D01*
X96152731Y-142175187D01*
X96150071Y-142154125D01*
X96133267Y-142111684D01*
X96129484Y-142100635D01*
X96129122Y-142099388D01*
X96116745Y-142056785D01*
X96112732Y-142050000D01*
X96105937Y-142038509D01*
X96097376Y-142021033D01*
X96089568Y-142001312D01*
X96062731Y-141964374D01*
X96056317Y-141954608D01*
X96033081Y-141915318D01*
X96018074Y-141900311D01*
X96005436Y-141885514D01*
X95992963Y-141868346D01*
X95957779Y-141839239D01*
X95949140Y-141831377D01*
X93278251Y-139160488D01*
X93264908Y-139143833D01*
X93211983Y-139094134D01*
X93209186Y-139091423D01*
X93188851Y-139071088D01*
X93185364Y-139068383D01*
X93176488Y-139060801D01*
X93143211Y-139029552D01*
X93124610Y-139019326D01*
X93108349Y-139008645D01*
X93091581Y-138995638D01*
X93049687Y-138977508D01*
X93039196Y-138972369D01*
X92999184Y-138950372D01*
X92978617Y-138945091D01*
X92960215Y-138938791D01*
X92940741Y-138930364D01*
X92895654Y-138923223D01*
X92884215Y-138920854D01*
X92839995Y-138909500D01*
X92839994Y-138909500D01*
X92818772Y-138909500D01*
X92799373Y-138907973D01*
X92778413Y-138904653D01*
X92778412Y-138904653D01*
X92756375Y-138906736D01*
X92732956Y-138908950D01*
X92721287Y-138909500D01*
X92320808Y-138909500D01*
X92273355Y-138900061D01*
X92233127Y-138873181D01*
X91835374Y-138475428D01*
X91817703Y-138453146D01*
X91786381Y-138402689D01*
X91645660Y-138176000D01*
X124170531Y-138176000D01*
X124190364Y-138402689D01*
X124249261Y-138622497D01*
X124345432Y-138828735D01*
X124475953Y-139015140D01*
X124636859Y-139176046D01*
X124823264Y-139306567D01*
X124823265Y-139306567D01*
X124823266Y-139306568D01*
X125029504Y-139402739D01*
X125249308Y-139461635D01*
X125334261Y-139469067D01*
X125419214Y-139476500D01*
X125419216Y-139476500D01*
X125532784Y-139476500D01*
X125532786Y-139476500D01*
X125600747Y-139470553D01*
X125702692Y-139461635D01*
X125922496Y-139402739D01*
X126128734Y-139306568D01*
X126315139Y-139176047D01*
X126476047Y-139015139D01*
X126606568Y-138828734D01*
X126702739Y-138622496D01*
X126761635Y-138402692D01*
X126781468Y-138176000D01*
X126761635Y-137949308D01*
X126702739Y-137729504D01*
X126606568Y-137523266D01*
X126565082Y-137464018D01*
X126476046Y-137336859D01*
X126315140Y-137175953D01*
X126128735Y-137045432D01*
X125922497Y-136949261D01*
X125702689Y-136890364D01*
X125532786Y-136875500D01*
X125532784Y-136875500D01*
X125419216Y-136875500D01*
X125419214Y-136875500D01*
X125249310Y-136890364D01*
X125029502Y-136949261D01*
X124823264Y-137045432D01*
X124636859Y-137175953D01*
X124475953Y-137336859D01*
X124345432Y-137523264D01*
X124249261Y-137729502D01*
X124190364Y-137949310D01*
X124170531Y-138176000D01*
X91645660Y-138176000D01*
X91608766Y-138116567D01*
X91608763Y-138116563D01*
X91608760Y-138116558D01*
X91604149Y-138110407D01*
X91598367Y-138101996D01*
X91530145Y-137993421D01*
X91406576Y-137869852D01*
X91258606Y-137776877D01*
X91093657Y-137719158D01*
X90920000Y-137699592D01*
X90746342Y-137719158D01*
X90581393Y-137776877D01*
X90433423Y-137869852D01*
X90309852Y-137993423D01*
X90216877Y-138141393D01*
X90159158Y-138306342D01*
X90139592Y-138480000D01*
X76448920Y-138480000D01*
X76469635Y-138402692D01*
X76489468Y-138176000D01*
X76469635Y-137949308D01*
X76410739Y-137729504D01*
X76314568Y-137523266D01*
X76273082Y-137464018D01*
X76184046Y-137336859D01*
X76023140Y-137175953D01*
X75836735Y-137045432D01*
X75630497Y-136949261D01*
X75410689Y-136890364D01*
X75240786Y-136875500D01*
X75240784Y-136875500D01*
X75127216Y-136875500D01*
X75127214Y-136875500D01*
X74957310Y-136890364D01*
X74737502Y-136949261D01*
X74531264Y-137045432D01*
X74344859Y-137175953D01*
X74183953Y-137336859D01*
X74053432Y-137523264D01*
X73957261Y-137729502D01*
X73898364Y-137949310D01*
X73878531Y-138175999D01*
X71534575Y-138175999D01*
X71534649Y-138172967D01*
X71537923Y-138106322D01*
X71551774Y-137824365D01*
X71552967Y-137812258D01*
X71558215Y-137776877D01*
X71603732Y-137470029D01*
X71606100Y-137458122D01*
X71690169Y-137122500D01*
X71693699Y-137110867D01*
X71717113Y-137045432D01*
X71810249Y-136785133D01*
X71814904Y-136773896D01*
X71849453Y-136700846D01*
X71962831Y-136461127D01*
X71968550Y-136450427D01*
X72146425Y-136153662D01*
X72153168Y-136143569D01*
X72359280Y-135865659D01*
X72366983Y-135856274D01*
X72599339Y-135599909D01*
X72607909Y-135591339D01*
X72864274Y-135358983D01*
X72873659Y-135351280D01*
X73151569Y-135145168D01*
X73161662Y-135138425D01*
X73458427Y-134960550D01*
X73469127Y-134954831D01*
X73781896Y-134806904D01*
X73793133Y-134802249D01*
X74118875Y-134685696D01*
X74130500Y-134682169D01*
X74466122Y-134598100D01*
X74478029Y-134595732D01*
X74820261Y-134544966D01*
X74832365Y-134543774D01*
X75180966Y-134526649D01*
X75187051Y-134526500D01*
X75239514Y-134526500D01*
X125420486Y-134526500D01*
X125472949Y-134526500D01*
X125479033Y-134526649D01*
G37*
G04 #@! TD.AperFunction*
G04 #@! TA.AperFunction,Conductor*
G36*
X103649592Y-157168520D02*
G01*
X103890680Y-157267436D01*
X103894512Y-157269987D01*
X103897063Y-157273819D01*
X103995979Y-157514907D01*
X103996287Y-157522950D01*
X103991326Y-157529288D01*
X103619541Y-157760080D01*
X103612028Y-157761763D01*
X103605097Y-157758413D01*
X103406086Y-157559402D01*
X103402736Y-157552471D01*
X103404418Y-157544960D01*
X103635212Y-157173171D01*
X103641549Y-157168212D01*
X103649592Y-157168520D01*
G37*
G04 #@! TD.AperFunction*
G04 #@! TA.AperFunction,Conductor*
G36*
X82124288Y-153833673D02*
G01*
X82183956Y-153929793D01*
X82345352Y-154189788D01*
X82355080Y-154205458D01*
X82356763Y-154212971D01*
X82353413Y-154219902D01*
X82154402Y-154418913D01*
X82147471Y-154422263D01*
X82139958Y-154420580D01*
X81768173Y-154189788D01*
X81763212Y-154183450D01*
X81763520Y-154175407D01*
X81862436Y-153934319D01*
X81864987Y-153930487D01*
X81868819Y-153927936D01*
X82109907Y-153829019D01*
X82117950Y-153828712D01*
X82124288Y-153833673D01*
G37*
G04 #@! TD.AperFunction*
G04 #@! TA.AperFunction,Conductor*
G36*
X79200966Y-150187886D02*
G01*
X79207467Y-150192008D01*
X79210000Y-150199278D01*
X79210000Y-150480722D01*
X79207467Y-150487992D01*
X79200966Y-150492113D01*
X79062186Y-150524586D01*
X78774878Y-150591811D01*
X78766888Y-150590837D01*
X78761419Y-150584934D01*
X78660886Y-150344511D01*
X78659981Y-150340000D01*
X78660886Y-150335488D01*
X78761419Y-150095063D01*
X78766888Y-150089162D01*
X78774876Y-150088188D01*
X79200966Y-150187886D01*
G37*
G04 #@! TD.AperFunction*
G04 #@! TA.AperFunction,Conductor*
G36*
X122049667Y-164848784D02*
G01*
X122057043Y-164852629D01*
X122060000Y-164860404D01*
X122060000Y-166339596D01*
X122057043Y-166347371D01*
X122049667Y-166351215D01*
X121424136Y-166424807D01*
X121215626Y-166449338D01*
X121210425Y-166448772D01*
X121205991Y-166445996D01*
X120367287Y-165608277D01*
X120364254Y-165603029D01*
X120364254Y-165596969D01*
X120367284Y-165591725D01*
X121205996Y-164753999D01*
X121210424Y-164751227D01*
X121215621Y-164750661D01*
X122049667Y-164848784D01*
G37*
G04 #@! TD.AperFunction*
M02*
