%TF.GenerationSoftware,KiCad,Pcbnew,7.0.1*%
%TF.CreationDate,2024-07-14T18:56:52+02:00*%
%TF.ProjectId,Gruzik2.0,4772757a-696b-4322-9e30-2e6b69636164,rev?*%
%TF.SameCoordinates,Original*%
%TF.FileFunction,Drillmap*%
%TF.FilePolarity,Positive*%
%FSLAX45Y45*%
G04 Gerber Fmt 4.5, Leading zero omitted, Abs format (unit mm)*
G04 Created by KiCad (PCBNEW 7.0.1) date 2024-07-14 18:56:52*
%MOMM*%
%LPD*%
G01*
G04 APERTURE LIST*
%ADD10C,0.150000*%
%ADD11C,0.250000*%
%ADD12C,0.200000*%
%ADD13C,0.020000*%
%ADD14C,0.030000*%
%ADD15C,0.080000*%
%ADD16C,0.100000*%
G04 APERTURE END LIST*
D10*
X15213800Y-16053500D02*
X15213800Y-15903500D01*
X13347600Y-15903500D02*
G75*
G03*
X12947600Y-16303500I0J-400000D01*
G01*
X15933800Y-13984500D02*
G75*
G03*
X15503800Y-14414500I0J-430000D01*
G01*
X7118400Y-16789400D02*
G75*
G03*
X7518400Y-17189400I400000J0D01*
G01*
X15503800Y-16053500D02*
X15213800Y-16053500D01*
X15213800Y-14703500D02*
X13347600Y-14703500D01*
X3702200Y-14414500D02*
X3702200Y-16192500D01*
X15933800Y-16622500D02*
G75*
G03*
X16363800Y-16192500I0J430000D01*
G01*
X7518400Y-13417600D02*
G75*
G03*
X7118400Y-13817600I0J-400000D01*
G01*
X4562200Y-14414500D02*
X4562200Y-14553500D01*
X15503800Y-16192500D02*
G75*
G03*
X15933800Y-16622500I430000J0D01*
G01*
X16363800Y-14414500D02*
G75*
G03*
X15933800Y-13984500I-430000J0D01*
G01*
X12547600Y-17189400D02*
G75*
G03*
X12947600Y-16789400I0J400000D01*
G01*
X4562200Y-14553500D02*
X4852200Y-14553500D01*
X4562200Y-16192500D02*
X4562200Y-16053500D01*
X6718400Y-15903500D02*
X4852200Y-15903500D01*
X15503800Y-14414500D02*
X15503800Y-14553500D01*
X4852200Y-16053500D02*
X4852200Y-15903500D01*
X12947600Y-14303500D02*
G75*
G03*
X13347600Y-14703500I400000J0D01*
G01*
X16363800Y-14414500D02*
X16363800Y-16192500D01*
X4562200Y-16053500D02*
X4852200Y-16053500D01*
X4132200Y-13984500D02*
G75*
G03*
X3702200Y-14414500I0J-430000D01*
G01*
X7118400Y-14303500D02*
X7118400Y-13817600D01*
X15213800Y-14553500D02*
X15213800Y-14703500D01*
X6718400Y-14703500D02*
G75*
G03*
X7118400Y-14303500I0J400000D01*
G01*
X4852200Y-14553500D02*
X4852200Y-14703500D01*
D11*
X7518400Y-13417600D02*
X12547600Y-13417600D01*
D10*
X15503800Y-16192500D02*
X15503800Y-16053500D01*
X13347600Y-15903500D02*
X15213800Y-15903500D01*
X6718400Y-14703500D02*
X4852200Y-14703500D01*
X7518400Y-17189400D02*
X12547600Y-17189400D01*
X4132200Y-16622500D02*
G75*
G03*
X4562200Y-16192500I0J430000D01*
G01*
X7118400Y-16303500D02*
G75*
G03*
X6718400Y-15903500I-400000J0D01*
G01*
X15503800Y-14553500D02*
X15213800Y-14553500D01*
X3702200Y-16192500D02*
G75*
G03*
X4132200Y-16622500I430000J0D01*
G01*
X4562200Y-14414500D02*
G75*
G03*
X4132200Y-13984500I-430000J0D01*
G01*
X12947600Y-16789400D02*
X12947600Y-16303500D01*
X12947600Y-13817600D02*
G75*
G03*
X12547600Y-13417600I-400000J0D01*
G01*
X12947600Y-13817600D02*
X12947600Y-14303500D01*
X7118400Y-16303500D02*
X7118400Y-16789400D01*
D12*
D13*
X7856000Y-15024000D02*
X7876000Y-15044000D01*
X7876000Y-15024000D02*
X7856000Y-15044000D01*
X8111531Y-15420420D02*
X8131531Y-15440420D01*
X8131531Y-15420420D02*
X8111531Y-15440420D01*
X8176500Y-15383050D02*
X8196500Y-15403050D01*
X8196500Y-15383050D02*
X8176500Y-15403050D01*
X8242000Y-15610000D02*
X8262000Y-15630000D01*
X8262000Y-15610000D02*
X8242000Y-15630000D01*
X8307000Y-15373000D02*
X8327000Y-15393000D01*
X8327000Y-15373000D02*
X8307000Y-15393000D01*
X8401500Y-15050500D02*
X8421500Y-15070500D01*
X8421500Y-15050500D02*
X8401500Y-15070500D01*
X9082000Y-13838000D02*
X9102000Y-13858000D01*
X9102000Y-13838000D02*
X9082000Y-13858000D01*
X9541500Y-14996950D02*
X9561500Y-15016950D01*
X9561500Y-14996950D02*
X9541500Y-15016950D01*
X9629000Y-14555000D02*
X9649000Y-14575000D01*
X9649000Y-14555000D02*
X9629000Y-14575000D01*
X9780000Y-15239000D02*
X9800000Y-15259000D01*
X9800000Y-15239000D02*
X9780000Y-15259000D01*
X10072000Y-15701000D02*
X10092000Y-15721000D01*
X10092000Y-15701000D02*
X10072000Y-15721000D01*
X10143000Y-15045000D02*
X10163000Y-15065000D01*
X10163000Y-15045000D02*
X10143000Y-15065000D01*
X10144000Y-15225000D02*
X10164000Y-15245000D01*
X10164000Y-15225000D02*
X10144000Y-15245000D01*
X10220000Y-15732050D02*
X10240000Y-15752050D01*
X10240000Y-15732050D02*
X10220000Y-15752050D01*
X10314000Y-15955000D02*
X10334000Y-15975000D01*
X10334000Y-15955000D02*
X10314000Y-15975000D01*
X10333000Y-14969000D02*
X10353000Y-14989000D01*
X10353000Y-14969000D02*
X10333000Y-14989000D01*
X10379450Y-15717000D02*
X10399450Y-15737000D01*
X10399450Y-15717000D02*
X10379450Y-15737000D01*
X10416071Y-14769000D02*
X10436071Y-14789000D01*
X10436071Y-14769000D02*
X10416071Y-14789000D01*
X10435000Y-15220000D02*
X10455000Y-15240000D01*
X10455000Y-15220000D02*
X10435000Y-15240000D01*
X10461450Y-14907000D02*
X10481450Y-14927000D01*
X10481450Y-14907000D02*
X10461450Y-14927000D01*
X10466050Y-15622406D02*
X10486050Y-15642406D01*
X10486050Y-15622406D02*
X10466050Y-15642406D01*
X10494000Y-15794000D02*
X10514000Y-15814000D01*
X10514000Y-15794000D02*
X10494000Y-15814000D01*
X10582000Y-15860000D02*
X10602000Y-15880000D01*
X10602000Y-15860000D02*
X10582000Y-15880000D01*
X10674000Y-16655000D02*
X10694000Y-16675000D01*
X10694000Y-16655000D02*
X10674000Y-16675000D01*
X10811000Y-14714000D02*
X10831000Y-14734000D01*
X10831000Y-14714000D02*
X10811000Y-14734000D01*
X10960616Y-15001066D02*
X10980616Y-15021066D01*
X10980616Y-15001066D02*
X10960616Y-15021066D01*
X10961000Y-15231000D02*
X10981000Y-15251000D01*
X10981000Y-15231000D02*
X10961000Y-15251000D01*
X11066813Y-14881495D02*
X11086813Y-14901495D01*
X11086813Y-14881495D02*
X11066813Y-14901495D01*
X11631500Y-15711000D02*
X11651500Y-15731000D01*
X11651500Y-15711000D02*
X11631500Y-15731000D01*
X11794000Y-15739000D02*
X11814000Y-15759000D01*
X11814000Y-15739000D02*
X11794000Y-15759000D01*
X11834500Y-15665000D02*
X11854500Y-15685000D01*
X11854500Y-15665000D02*
X11834500Y-15685000D01*
X11995000Y-15477000D02*
X12015000Y-15497000D01*
X12015000Y-15477000D02*
X11995000Y-15497000D01*
D14*
X7522000Y-15601000D02*
G75*
G03*
X7522000Y-15601000I-15000J0D01*
G01*
X7723000Y-15494000D02*
G75*
G03*
X7723000Y-15494000I-15000J0D01*
G01*
X7953000Y-15490000D02*
G75*
G03*
X7953000Y-15490000I-15000J0D01*
G01*
X8008000Y-16120000D02*
G75*
G03*
X8008000Y-16120000I-15000J0D01*
G01*
X8191000Y-14716000D02*
G75*
G03*
X8191000Y-14716000I-15000J0D01*
G01*
X8209000Y-13868000D02*
G75*
G03*
X8209000Y-13868000I-15000J0D01*
G01*
X8333000Y-13981000D02*
G75*
G03*
X8333000Y-13981000I-15000J0D01*
G01*
X8335000Y-14446000D02*
G75*
G03*
X8335000Y-14446000I-15000J0D01*
G01*
X8404750Y-16141250D02*
G75*
G03*
X8404750Y-16141250I-15000J0D01*
G01*
X8446000Y-13868000D02*
G75*
G03*
X8446000Y-13868000I-15000J0D01*
G01*
X8484000Y-14134000D02*
G75*
G03*
X8484000Y-14134000I-15000J0D01*
G01*
X8616000Y-13861000D02*
G75*
G03*
X8616000Y-13861000I-15000J0D01*
G01*
X8660000Y-15230000D02*
G75*
G03*
X8660000Y-15230000I-15000J0D01*
G01*
X8815000Y-14644000D02*
G75*
G03*
X8815000Y-14644000I-15000J0D01*
G01*
X9963000Y-15874450D02*
G75*
G03*
X9963000Y-15874450I-15000J0D01*
G01*
X10432000Y-15095000D02*
G75*
G03*
X10432000Y-15095000I-15000J0D01*
G01*
X10819000Y-14284000D02*
G75*
G03*
X10819000Y-14284000I-15000J0D01*
G01*
X10827000Y-16631000D02*
G75*
G03*
X10827000Y-16631000I-15000J0D01*
G01*
X11145000Y-15043000D02*
G75*
G03*
X11145000Y-15043000I-15000J0D01*
G01*
X11246000Y-14205000D02*
G75*
G03*
X11246000Y-14205000I-15000J0D01*
G01*
X11357000Y-15991000D02*
G75*
G03*
X11357000Y-15991000I-15000J0D01*
G01*
X11617000Y-16171000D02*
G75*
G03*
X11617000Y-16171000I-15000J0D01*
G01*
X11684000Y-14970000D02*
G75*
G03*
X11684000Y-14970000I-15000J0D01*
G01*
X11891000Y-16207000D02*
G75*
G03*
X11891000Y-16207000I-15000J0D01*
G01*
X11995000Y-16204000D02*
G75*
G03*
X11995000Y-16204000I-15000J0D01*
G01*
X12020000Y-15401000D02*
G75*
G03*
X12020000Y-15401000I-15000J0D01*
G01*
X12092000Y-14681000D02*
G75*
G03*
X12092000Y-14681000I-15000J0D01*
G01*
X12546000Y-15589000D02*
G75*
G03*
X12546000Y-15589000I-15000J0D01*
G01*
D15*
X9056000Y-15034000D02*
X9056000Y-15114000D01*
X9016000Y-15074000D02*
X9096000Y-15074000D01*
X9056000Y-15522000D02*
X9056000Y-15602000D01*
X9016000Y-15562000D02*
X9096000Y-15562000D01*
D16*
X8096356Y-16598356D02*
X8096356Y-16527644D01*
X8025644Y-16527644D01*
X8025644Y-16598356D01*
X8096356Y-16598356D01*
X8264356Y-16985356D02*
X8264356Y-16914644D01*
X8193644Y-16914644D01*
X8193644Y-16985356D01*
X8264356Y-16985356D01*
X8350356Y-16598356D02*
X8350356Y-16527644D01*
X8279644Y-16527644D01*
X8279644Y-16598356D01*
X8350356Y-16598356D01*
X8518356Y-16985356D02*
X8518356Y-16914644D01*
X8447644Y-16914644D01*
X8447644Y-16985356D01*
X8518356Y-16985356D01*
X8772356Y-16985356D02*
X8772356Y-16914644D01*
X8701644Y-16914644D01*
X8701644Y-16985356D01*
X8772356Y-16985356D01*
X9026356Y-16985356D02*
X9026356Y-16914644D01*
X8955644Y-16914644D01*
X8955644Y-16985356D01*
X9026356Y-16985356D01*
X9073856Y-14235356D02*
X9073856Y-14164644D01*
X9003144Y-14164644D01*
X9003144Y-14235356D01*
X9073856Y-14235356D01*
X9073856Y-14489356D02*
X9073856Y-14418644D01*
X9003144Y-14418644D01*
X9003144Y-14489356D01*
X9073856Y-14489356D01*
X9461356Y-16989356D02*
X9461356Y-16918644D01*
X9390644Y-16918644D01*
X9390644Y-16989356D01*
X9461356Y-16989356D01*
X9715356Y-16989356D02*
X9715356Y-16918644D01*
X9644644Y-16918644D01*
X9644644Y-16989356D01*
X9715356Y-16989356D01*
X9969356Y-16989356D02*
X9969356Y-16918644D01*
X9898644Y-16918644D01*
X9898644Y-16989356D01*
X9969356Y-16989356D01*
X10223356Y-16989356D02*
X10223356Y-16918644D01*
X10152644Y-16918644D01*
X10152644Y-16989356D01*
X10223356Y-16989356D01*
X10477356Y-16989356D02*
X10477356Y-16918644D01*
X10406644Y-16918644D01*
X10406644Y-16989356D01*
X10477356Y-16989356D01*
X11184356Y-17001356D02*
X11184356Y-16930644D01*
X11113644Y-16930644D01*
X11113644Y-17001356D01*
X11184356Y-17001356D01*
X11438356Y-17001356D02*
X11438356Y-16930644D01*
X11367644Y-16930644D01*
X11367644Y-17001356D01*
X11438356Y-17001356D01*
X11817356Y-16595356D02*
X11817356Y-16524644D01*
X11746644Y-16524644D01*
X11746644Y-16595356D01*
X11817356Y-16595356D01*
X12071356Y-16595356D02*
X12071356Y-16524644D01*
X12000644Y-16524644D01*
X12000644Y-16595356D01*
X12071356Y-16595356D01*
D12*
X3942319Y-17509424D02*
X3942319Y-17309424D01*
X3942319Y-17309424D02*
X3989938Y-17309424D01*
X3989938Y-17309424D02*
X4018509Y-17318948D01*
X4018509Y-17318948D02*
X4037557Y-17337995D01*
X4037557Y-17337995D02*
X4047081Y-17357043D01*
X4047081Y-17357043D02*
X4056605Y-17395138D01*
X4056605Y-17395138D02*
X4056605Y-17423710D01*
X4056605Y-17423710D02*
X4047081Y-17461805D01*
X4047081Y-17461805D02*
X4037557Y-17480852D01*
X4037557Y-17480852D02*
X4018509Y-17499900D01*
X4018509Y-17499900D02*
X3989938Y-17509424D01*
X3989938Y-17509424D02*
X3942319Y-17509424D01*
X4142319Y-17509424D02*
X4142319Y-17376090D01*
X4142319Y-17414186D02*
X4151843Y-17395138D01*
X4151843Y-17395138D02*
X4161367Y-17385614D01*
X4161367Y-17385614D02*
X4180414Y-17376090D01*
X4180414Y-17376090D02*
X4199462Y-17376090D01*
X4266129Y-17509424D02*
X4266129Y-17376090D01*
X4266129Y-17309424D02*
X4256605Y-17318948D01*
X4256605Y-17318948D02*
X4266129Y-17328471D01*
X4266129Y-17328471D02*
X4275652Y-17318948D01*
X4275652Y-17318948D02*
X4266129Y-17309424D01*
X4266129Y-17309424D02*
X4266129Y-17328471D01*
X4389938Y-17509424D02*
X4370890Y-17499900D01*
X4370890Y-17499900D02*
X4361367Y-17480852D01*
X4361367Y-17480852D02*
X4361367Y-17309424D01*
X4494700Y-17509424D02*
X4475652Y-17499900D01*
X4475652Y-17499900D02*
X4466129Y-17480852D01*
X4466129Y-17480852D02*
X4466129Y-17309424D01*
X4723271Y-17509424D02*
X4723271Y-17309424D01*
X4723271Y-17309424D02*
X4789938Y-17452281D01*
X4789938Y-17452281D02*
X4856605Y-17309424D01*
X4856605Y-17309424D02*
X4856605Y-17509424D01*
X5037557Y-17509424D02*
X5037557Y-17404662D01*
X5037557Y-17404662D02*
X5028033Y-17385614D01*
X5028033Y-17385614D02*
X5008986Y-17376090D01*
X5008986Y-17376090D02*
X4970890Y-17376090D01*
X4970890Y-17376090D02*
X4951843Y-17385614D01*
X5037557Y-17499900D02*
X5018510Y-17509424D01*
X5018510Y-17509424D02*
X4970890Y-17509424D01*
X4970890Y-17509424D02*
X4951843Y-17499900D01*
X4951843Y-17499900D02*
X4942319Y-17480852D01*
X4942319Y-17480852D02*
X4942319Y-17461805D01*
X4942319Y-17461805D02*
X4951843Y-17442757D01*
X4951843Y-17442757D02*
X4970890Y-17433233D01*
X4970890Y-17433233D02*
X5018510Y-17433233D01*
X5018510Y-17433233D02*
X5037557Y-17423710D01*
X5132795Y-17376090D02*
X5132795Y-17576090D01*
X5132795Y-17385614D02*
X5151843Y-17376090D01*
X5151843Y-17376090D02*
X5189938Y-17376090D01*
X5189938Y-17376090D02*
X5208986Y-17385614D01*
X5208986Y-17385614D02*
X5218510Y-17395138D01*
X5218510Y-17395138D02*
X5228033Y-17414186D01*
X5228033Y-17414186D02*
X5228033Y-17471329D01*
X5228033Y-17471329D02*
X5218510Y-17490376D01*
X5218510Y-17490376D02*
X5208986Y-17499900D01*
X5208986Y-17499900D02*
X5189938Y-17509424D01*
X5189938Y-17509424D02*
X5151843Y-17509424D01*
X5151843Y-17509424D02*
X5132795Y-17499900D01*
X5313748Y-17490376D02*
X5323271Y-17499900D01*
X5323271Y-17499900D02*
X5313748Y-17509424D01*
X5313748Y-17509424D02*
X5304224Y-17499900D01*
X5304224Y-17499900D02*
X5313748Y-17490376D01*
X5313748Y-17490376D02*
X5313748Y-17509424D01*
X5313748Y-17385614D02*
X5323271Y-17395138D01*
X5323271Y-17395138D02*
X5313748Y-17404662D01*
X5313748Y-17404662D02*
X5304224Y-17395138D01*
X5304224Y-17395138D02*
X5313748Y-17385614D01*
X5313748Y-17385614D02*
X5313748Y-17404662D01*
D13*
X3674700Y-17826900D02*
X3694700Y-17846900D01*
X3694700Y-17826900D02*
X3674700Y-17846900D01*
D12*
X3980414Y-17729424D02*
X3999462Y-17729424D01*
X3999462Y-17729424D02*
X4018509Y-17738948D01*
X4018509Y-17738948D02*
X4028033Y-17748471D01*
X4028033Y-17748471D02*
X4037557Y-17767519D01*
X4037557Y-17767519D02*
X4047081Y-17805614D01*
X4047081Y-17805614D02*
X4047081Y-17853233D01*
X4047081Y-17853233D02*
X4037557Y-17891329D01*
X4037557Y-17891329D02*
X4028033Y-17910376D01*
X4028033Y-17910376D02*
X4018509Y-17919900D01*
X4018509Y-17919900D02*
X3999462Y-17929424D01*
X3999462Y-17929424D02*
X3980414Y-17929424D01*
X3980414Y-17929424D02*
X3961367Y-17919900D01*
X3961367Y-17919900D02*
X3951843Y-17910376D01*
X3951843Y-17910376D02*
X3942319Y-17891329D01*
X3942319Y-17891329D02*
X3932795Y-17853233D01*
X3932795Y-17853233D02*
X3932795Y-17805614D01*
X3932795Y-17805614D02*
X3942319Y-17767519D01*
X3942319Y-17767519D02*
X3951843Y-17748471D01*
X3951843Y-17748471D02*
X3961367Y-17738948D01*
X3961367Y-17738948D02*
X3980414Y-17729424D01*
X4132795Y-17910376D02*
X4142319Y-17919900D01*
X4142319Y-17919900D02*
X4132795Y-17929424D01*
X4132795Y-17929424D02*
X4123271Y-17919900D01*
X4123271Y-17919900D02*
X4132795Y-17910376D01*
X4132795Y-17910376D02*
X4132795Y-17929424D01*
X4218510Y-17748471D02*
X4228033Y-17738948D01*
X4228033Y-17738948D02*
X4247081Y-17729424D01*
X4247081Y-17729424D02*
X4294700Y-17729424D01*
X4294700Y-17729424D02*
X4313748Y-17738948D01*
X4313748Y-17738948D02*
X4323271Y-17748471D01*
X4323271Y-17748471D02*
X4332795Y-17767519D01*
X4332795Y-17767519D02*
X4332795Y-17786567D01*
X4332795Y-17786567D02*
X4323271Y-17815138D01*
X4323271Y-17815138D02*
X4208986Y-17929424D01*
X4208986Y-17929424D02*
X4332795Y-17929424D01*
X4456605Y-17729424D02*
X4475652Y-17729424D01*
X4475652Y-17729424D02*
X4494700Y-17738948D01*
X4494700Y-17738948D02*
X4504224Y-17748471D01*
X4504224Y-17748471D02*
X4513748Y-17767519D01*
X4513748Y-17767519D02*
X4523271Y-17805614D01*
X4523271Y-17805614D02*
X4523271Y-17853233D01*
X4523271Y-17853233D02*
X4513748Y-17891329D01*
X4513748Y-17891329D02*
X4504224Y-17910376D01*
X4504224Y-17910376D02*
X4494700Y-17919900D01*
X4494700Y-17919900D02*
X4475652Y-17929424D01*
X4475652Y-17929424D02*
X4456605Y-17929424D01*
X4456605Y-17929424D02*
X4437557Y-17919900D01*
X4437557Y-17919900D02*
X4428033Y-17910376D01*
X4428033Y-17910376D02*
X4418510Y-17891329D01*
X4418510Y-17891329D02*
X4408986Y-17853233D01*
X4408986Y-17853233D02*
X4408986Y-17805614D01*
X4408986Y-17805614D02*
X4418510Y-17767519D01*
X4418510Y-17767519D02*
X4428033Y-17748471D01*
X4428033Y-17748471D02*
X4437557Y-17738948D01*
X4437557Y-17738948D02*
X4456605Y-17729424D01*
X4647081Y-17729424D02*
X4666129Y-17729424D01*
X4666129Y-17729424D02*
X4685176Y-17738948D01*
X4685176Y-17738948D02*
X4694700Y-17748471D01*
X4694700Y-17748471D02*
X4704224Y-17767519D01*
X4704224Y-17767519D02*
X4713748Y-17805614D01*
X4713748Y-17805614D02*
X4713748Y-17853233D01*
X4713748Y-17853233D02*
X4704224Y-17891329D01*
X4704224Y-17891329D02*
X4694700Y-17910376D01*
X4694700Y-17910376D02*
X4685176Y-17919900D01*
X4685176Y-17919900D02*
X4666129Y-17929424D01*
X4666129Y-17929424D02*
X4647081Y-17929424D01*
X4647081Y-17929424D02*
X4628033Y-17919900D01*
X4628033Y-17919900D02*
X4618510Y-17910376D01*
X4618510Y-17910376D02*
X4608986Y-17891329D01*
X4608986Y-17891329D02*
X4599462Y-17853233D01*
X4599462Y-17853233D02*
X4599462Y-17805614D01*
X4599462Y-17805614D02*
X4608986Y-17767519D01*
X4608986Y-17767519D02*
X4618510Y-17748471D01*
X4618510Y-17748471D02*
X4628033Y-17738948D01*
X4628033Y-17738948D02*
X4647081Y-17729424D01*
X4799462Y-17929424D02*
X4799462Y-17796090D01*
X4799462Y-17815138D02*
X4808986Y-17805614D01*
X4808986Y-17805614D02*
X4828033Y-17796090D01*
X4828033Y-17796090D02*
X4856605Y-17796090D01*
X4856605Y-17796090D02*
X4875652Y-17805614D01*
X4875652Y-17805614D02*
X4885176Y-17824662D01*
X4885176Y-17824662D02*
X4885176Y-17929424D01*
X4885176Y-17824662D02*
X4894700Y-17805614D01*
X4894700Y-17805614D02*
X4913748Y-17796090D01*
X4913748Y-17796090D02*
X4942319Y-17796090D01*
X4942319Y-17796090D02*
X4961367Y-17805614D01*
X4961367Y-17805614D02*
X4970891Y-17824662D01*
X4970891Y-17824662D02*
X4970891Y-17929424D01*
X5066129Y-17929424D02*
X5066129Y-17796090D01*
X5066129Y-17815138D02*
X5075652Y-17805614D01*
X5075652Y-17805614D02*
X5094700Y-17796090D01*
X5094700Y-17796090D02*
X5123272Y-17796090D01*
X5123272Y-17796090D02*
X5142319Y-17805614D01*
X5142319Y-17805614D02*
X5151843Y-17824662D01*
X5151843Y-17824662D02*
X5151843Y-17929424D01*
X5151843Y-17824662D02*
X5161367Y-17805614D01*
X5161367Y-17805614D02*
X5180414Y-17796090D01*
X5180414Y-17796090D02*
X5208986Y-17796090D01*
X5208986Y-17796090D02*
X5228033Y-17805614D01*
X5228033Y-17805614D02*
X5237557Y-17824662D01*
X5237557Y-17824662D02*
X5237557Y-17929424D01*
X5628033Y-17719900D02*
X5456605Y-17977043D01*
X5885176Y-17729424D02*
X5904224Y-17729424D01*
X5904224Y-17729424D02*
X5923272Y-17738948D01*
X5923272Y-17738948D02*
X5932795Y-17748471D01*
X5932795Y-17748471D02*
X5942319Y-17767519D01*
X5942319Y-17767519D02*
X5951843Y-17805614D01*
X5951843Y-17805614D02*
X5951843Y-17853233D01*
X5951843Y-17853233D02*
X5942319Y-17891329D01*
X5942319Y-17891329D02*
X5932795Y-17910376D01*
X5932795Y-17910376D02*
X5923272Y-17919900D01*
X5923272Y-17919900D02*
X5904224Y-17929424D01*
X5904224Y-17929424D02*
X5885176Y-17929424D01*
X5885176Y-17929424D02*
X5866129Y-17919900D01*
X5866129Y-17919900D02*
X5856605Y-17910376D01*
X5856605Y-17910376D02*
X5847081Y-17891329D01*
X5847081Y-17891329D02*
X5837557Y-17853233D01*
X5837557Y-17853233D02*
X5837557Y-17805614D01*
X5837557Y-17805614D02*
X5847081Y-17767519D01*
X5847081Y-17767519D02*
X5856605Y-17748471D01*
X5856605Y-17748471D02*
X5866129Y-17738948D01*
X5866129Y-17738948D02*
X5885176Y-17729424D01*
X6037557Y-17910376D02*
X6047081Y-17919900D01*
X6047081Y-17919900D02*
X6037557Y-17929424D01*
X6037557Y-17929424D02*
X6028033Y-17919900D01*
X6028033Y-17919900D02*
X6037557Y-17910376D01*
X6037557Y-17910376D02*
X6037557Y-17929424D01*
X6170891Y-17729424D02*
X6189938Y-17729424D01*
X6189938Y-17729424D02*
X6208986Y-17738948D01*
X6208986Y-17738948D02*
X6218510Y-17748471D01*
X6218510Y-17748471D02*
X6228033Y-17767519D01*
X6228033Y-17767519D02*
X6237557Y-17805614D01*
X6237557Y-17805614D02*
X6237557Y-17853233D01*
X6237557Y-17853233D02*
X6228033Y-17891329D01*
X6228033Y-17891329D02*
X6218510Y-17910376D01*
X6218510Y-17910376D02*
X6208986Y-17919900D01*
X6208986Y-17919900D02*
X6189938Y-17929424D01*
X6189938Y-17929424D02*
X6170891Y-17929424D01*
X6170891Y-17929424D02*
X6151843Y-17919900D01*
X6151843Y-17919900D02*
X6142319Y-17910376D01*
X6142319Y-17910376D02*
X6132795Y-17891329D01*
X6132795Y-17891329D02*
X6123272Y-17853233D01*
X6123272Y-17853233D02*
X6123272Y-17805614D01*
X6123272Y-17805614D02*
X6132795Y-17767519D01*
X6132795Y-17767519D02*
X6142319Y-17748471D01*
X6142319Y-17748471D02*
X6151843Y-17738948D01*
X6151843Y-17738948D02*
X6170891Y-17729424D01*
X6361367Y-17729424D02*
X6380414Y-17729424D01*
X6380414Y-17729424D02*
X6399462Y-17738948D01*
X6399462Y-17738948D02*
X6408986Y-17748471D01*
X6408986Y-17748471D02*
X6418510Y-17767519D01*
X6418510Y-17767519D02*
X6428033Y-17805614D01*
X6428033Y-17805614D02*
X6428033Y-17853233D01*
X6428033Y-17853233D02*
X6418510Y-17891329D01*
X6418510Y-17891329D02*
X6408986Y-17910376D01*
X6408986Y-17910376D02*
X6399462Y-17919900D01*
X6399462Y-17919900D02*
X6380414Y-17929424D01*
X6380414Y-17929424D02*
X6361367Y-17929424D01*
X6361367Y-17929424D02*
X6342319Y-17919900D01*
X6342319Y-17919900D02*
X6332795Y-17910376D01*
X6332795Y-17910376D02*
X6323272Y-17891329D01*
X6323272Y-17891329D02*
X6313748Y-17853233D01*
X6313748Y-17853233D02*
X6313748Y-17805614D01*
X6313748Y-17805614D02*
X6323272Y-17767519D01*
X6323272Y-17767519D02*
X6332795Y-17748471D01*
X6332795Y-17748471D02*
X6342319Y-17738948D01*
X6342319Y-17738948D02*
X6361367Y-17729424D01*
X6494700Y-17729424D02*
X6628033Y-17729424D01*
X6628033Y-17729424D02*
X6542319Y-17929424D01*
X6713748Y-17929424D02*
X6751843Y-17929424D01*
X6751843Y-17929424D02*
X6770891Y-17919900D01*
X6770891Y-17919900D02*
X6780414Y-17910376D01*
X6780414Y-17910376D02*
X6799462Y-17881805D01*
X6799462Y-17881805D02*
X6808986Y-17843710D01*
X6808986Y-17843710D02*
X6808986Y-17767519D01*
X6808986Y-17767519D02*
X6799462Y-17748471D01*
X6799462Y-17748471D02*
X6789938Y-17738948D01*
X6789938Y-17738948D02*
X6770891Y-17729424D01*
X6770891Y-17729424D02*
X6732795Y-17729424D01*
X6732795Y-17729424D02*
X6713748Y-17738948D01*
X6713748Y-17738948D02*
X6704224Y-17748471D01*
X6704224Y-17748471D02*
X6694700Y-17767519D01*
X6694700Y-17767519D02*
X6694700Y-17815138D01*
X6694700Y-17815138D02*
X6704224Y-17834186D01*
X6704224Y-17834186D02*
X6713748Y-17843710D01*
X6713748Y-17843710D02*
X6732795Y-17853233D01*
X6732795Y-17853233D02*
X6770891Y-17853233D01*
X6770891Y-17853233D02*
X6789938Y-17843710D01*
X6789938Y-17843710D02*
X6799462Y-17834186D01*
X6799462Y-17834186D02*
X6808986Y-17815138D01*
X6885176Y-17729424D02*
X6885176Y-17767519D01*
X6961367Y-17729424D02*
X6961367Y-17767519D01*
X7256605Y-18005614D02*
X7247081Y-17996090D01*
X7247081Y-17996090D02*
X7228034Y-17967519D01*
X7228034Y-17967519D02*
X7218510Y-17948471D01*
X7218510Y-17948471D02*
X7208986Y-17919900D01*
X7208986Y-17919900D02*
X7199462Y-17872281D01*
X7199462Y-17872281D02*
X7199462Y-17834186D01*
X7199462Y-17834186D02*
X7208986Y-17786567D01*
X7208986Y-17786567D02*
X7218510Y-17757995D01*
X7218510Y-17757995D02*
X7228034Y-17738948D01*
X7228034Y-17738948D02*
X7247081Y-17710376D01*
X7247081Y-17710376D02*
X7256605Y-17700852D01*
X7313748Y-17729424D02*
X7437557Y-17729424D01*
X7437557Y-17729424D02*
X7370891Y-17805614D01*
X7370891Y-17805614D02*
X7399462Y-17805614D01*
X7399462Y-17805614D02*
X7418510Y-17815138D01*
X7418510Y-17815138D02*
X7428034Y-17824662D01*
X7428034Y-17824662D02*
X7437557Y-17843710D01*
X7437557Y-17843710D02*
X7437557Y-17891329D01*
X7437557Y-17891329D02*
X7428034Y-17910376D01*
X7428034Y-17910376D02*
X7418510Y-17919900D01*
X7418510Y-17919900D02*
X7399462Y-17929424D01*
X7399462Y-17929424D02*
X7342319Y-17929424D01*
X7342319Y-17929424D02*
X7323272Y-17919900D01*
X7323272Y-17919900D02*
X7313748Y-17910376D01*
X7513748Y-17748471D02*
X7523272Y-17738948D01*
X7523272Y-17738948D02*
X7542319Y-17729424D01*
X7542319Y-17729424D02*
X7589938Y-17729424D01*
X7589938Y-17729424D02*
X7608986Y-17738948D01*
X7608986Y-17738948D02*
X7618510Y-17748471D01*
X7618510Y-17748471D02*
X7628034Y-17767519D01*
X7628034Y-17767519D02*
X7628034Y-17786567D01*
X7628034Y-17786567D02*
X7618510Y-17815138D01*
X7618510Y-17815138D02*
X7504224Y-17929424D01*
X7504224Y-17929424D02*
X7628034Y-17929424D01*
X7866129Y-17929424D02*
X7866129Y-17729424D01*
X7951843Y-17929424D02*
X7951843Y-17824662D01*
X7951843Y-17824662D02*
X7942319Y-17805614D01*
X7942319Y-17805614D02*
X7923272Y-17796090D01*
X7923272Y-17796090D02*
X7894700Y-17796090D01*
X7894700Y-17796090D02*
X7875653Y-17805614D01*
X7875653Y-17805614D02*
X7866129Y-17815138D01*
X8075653Y-17929424D02*
X8056605Y-17919900D01*
X8056605Y-17919900D02*
X8047081Y-17910376D01*
X8047081Y-17910376D02*
X8037557Y-17891329D01*
X8037557Y-17891329D02*
X8037557Y-17834186D01*
X8037557Y-17834186D02*
X8047081Y-17815138D01*
X8047081Y-17815138D02*
X8056605Y-17805614D01*
X8056605Y-17805614D02*
X8075653Y-17796090D01*
X8075653Y-17796090D02*
X8104224Y-17796090D01*
X8104224Y-17796090D02*
X8123272Y-17805614D01*
X8123272Y-17805614D02*
X8132796Y-17815138D01*
X8132796Y-17815138D02*
X8142319Y-17834186D01*
X8142319Y-17834186D02*
X8142319Y-17891329D01*
X8142319Y-17891329D02*
X8132796Y-17910376D01*
X8132796Y-17910376D02*
X8123272Y-17919900D01*
X8123272Y-17919900D02*
X8104224Y-17929424D01*
X8104224Y-17929424D02*
X8075653Y-17929424D01*
X8256605Y-17929424D02*
X8237557Y-17919900D01*
X8237557Y-17919900D02*
X8228034Y-17900852D01*
X8228034Y-17900852D02*
X8228034Y-17729424D01*
X8408986Y-17919900D02*
X8389939Y-17929424D01*
X8389939Y-17929424D02*
X8351843Y-17929424D01*
X8351843Y-17929424D02*
X8332796Y-17919900D01*
X8332796Y-17919900D02*
X8323272Y-17900852D01*
X8323272Y-17900852D02*
X8323272Y-17824662D01*
X8323272Y-17824662D02*
X8332796Y-17805614D01*
X8332796Y-17805614D02*
X8351843Y-17796090D01*
X8351843Y-17796090D02*
X8389939Y-17796090D01*
X8389939Y-17796090D02*
X8408986Y-17805614D01*
X8408986Y-17805614D02*
X8418510Y-17824662D01*
X8418510Y-17824662D02*
X8418510Y-17843710D01*
X8418510Y-17843710D02*
X8323272Y-17862757D01*
X8494700Y-17919900D02*
X8513748Y-17929424D01*
X8513748Y-17929424D02*
X8551843Y-17929424D01*
X8551843Y-17929424D02*
X8570891Y-17919900D01*
X8570891Y-17919900D02*
X8580415Y-17900852D01*
X8580415Y-17900852D02*
X8580415Y-17891329D01*
X8580415Y-17891329D02*
X8570891Y-17872281D01*
X8570891Y-17872281D02*
X8551843Y-17862757D01*
X8551843Y-17862757D02*
X8523272Y-17862757D01*
X8523272Y-17862757D02*
X8504224Y-17853233D01*
X8504224Y-17853233D02*
X8494700Y-17834186D01*
X8494700Y-17834186D02*
X8494700Y-17824662D01*
X8494700Y-17824662D02*
X8504224Y-17805614D01*
X8504224Y-17805614D02*
X8523272Y-17796090D01*
X8523272Y-17796090D02*
X8551843Y-17796090D01*
X8551843Y-17796090D02*
X8570891Y-17805614D01*
X8647081Y-18005614D02*
X8656605Y-17996090D01*
X8656605Y-17996090D02*
X8675653Y-17967519D01*
X8675653Y-17967519D02*
X8685177Y-17948471D01*
X8685177Y-17948471D02*
X8694700Y-17919900D01*
X8694700Y-17919900D02*
X8704224Y-17872281D01*
X8704224Y-17872281D02*
X8704224Y-17834186D01*
X8704224Y-17834186D02*
X8694700Y-17786567D01*
X8694700Y-17786567D02*
X8685177Y-17757995D01*
X8685177Y-17757995D02*
X8675653Y-17738948D01*
X8675653Y-17738948D02*
X8656605Y-17710376D01*
X8656605Y-17710376D02*
X8647081Y-17700852D01*
D14*
X3694700Y-18100900D02*
G75*
G03*
X3694700Y-18100900I-15000J0D01*
G01*
D12*
X3980414Y-17993424D02*
X3999462Y-17993424D01*
X3999462Y-17993424D02*
X4018509Y-18002948D01*
X4018509Y-18002948D02*
X4028033Y-18012471D01*
X4028033Y-18012471D02*
X4037557Y-18031519D01*
X4037557Y-18031519D02*
X4047081Y-18069614D01*
X4047081Y-18069614D02*
X4047081Y-18117233D01*
X4047081Y-18117233D02*
X4037557Y-18155329D01*
X4037557Y-18155329D02*
X4028033Y-18174376D01*
X4028033Y-18174376D02*
X4018509Y-18183900D01*
X4018509Y-18183900D02*
X3999462Y-18193424D01*
X3999462Y-18193424D02*
X3980414Y-18193424D01*
X3980414Y-18193424D02*
X3961367Y-18183900D01*
X3961367Y-18183900D02*
X3951843Y-18174376D01*
X3951843Y-18174376D02*
X3942319Y-18155329D01*
X3942319Y-18155329D02*
X3932795Y-18117233D01*
X3932795Y-18117233D02*
X3932795Y-18069614D01*
X3932795Y-18069614D02*
X3942319Y-18031519D01*
X3942319Y-18031519D02*
X3951843Y-18012471D01*
X3951843Y-18012471D02*
X3961367Y-18002948D01*
X3961367Y-18002948D02*
X3980414Y-17993424D01*
X4132795Y-18174376D02*
X4142319Y-18183900D01*
X4142319Y-18183900D02*
X4132795Y-18193424D01*
X4132795Y-18193424D02*
X4123271Y-18183900D01*
X4123271Y-18183900D02*
X4132795Y-18174376D01*
X4132795Y-18174376D02*
X4132795Y-18193424D01*
X4208986Y-17993424D02*
X4332795Y-17993424D01*
X4332795Y-17993424D02*
X4266129Y-18069614D01*
X4266129Y-18069614D02*
X4294700Y-18069614D01*
X4294700Y-18069614D02*
X4313748Y-18079138D01*
X4313748Y-18079138D02*
X4323271Y-18088662D01*
X4323271Y-18088662D02*
X4332795Y-18107710D01*
X4332795Y-18107710D02*
X4332795Y-18155329D01*
X4332795Y-18155329D02*
X4323271Y-18174376D01*
X4323271Y-18174376D02*
X4313748Y-18183900D01*
X4313748Y-18183900D02*
X4294700Y-18193424D01*
X4294700Y-18193424D02*
X4237557Y-18193424D01*
X4237557Y-18193424D02*
X4218510Y-18183900D01*
X4218510Y-18183900D02*
X4208986Y-18174376D01*
X4456605Y-17993424D02*
X4475652Y-17993424D01*
X4475652Y-17993424D02*
X4494700Y-18002948D01*
X4494700Y-18002948D02*
X4504224Y-18012471D01*
X4504224Y-18012471D02*
X4513748Y-18031519D01*
X4513748Y-18031519D02*
X4523271Y-18069614D01*
X4523271Y-18069614D02*
X4523271Y-18117233D01*
X4523271Y-18117233D02*
X4513748Y-18155329D01*
X4513748Y-18155329D02*
X4504224Y-18174376D01*
X4504224Y-18174376D02*
X4494700Y-18183900D01*
X4494700Y-18183900D02*
X4475652Y-18193424D01*
X4475652Y-18193424D02*
X4456605Y-18193424D01*
X4456605Y-18193424D02*
X4437557Y-18183900D01*
X4437557Y-18183900D02*
X4428033Y-18174376D01*
X4428033Y-18174376D02*
X4418510Y-18155329D01*
X4418510Y-18155329D02*
X4408986Y-18117233D01*
X4408986Y-18117233D02*
X4408986Y-18069614D01*
X4408986Y-18069614D02*
X4418510Y-18031519D01*
X4418510Y-18031519D02*
X4428033Y-18012471D01*
X4428033Y-18012471D02*
X4437557Y-18002948D01*
X4437557Y-18002948D02*
X4456605Y-17993424D01*
X4647081Y-17993424D02*
X4666129Y-17993424D01*
X4666129Y-17993424D02*
X4685176Y-18002948D01*
X4685176Y-18002948D02*
X4694700Y-18012471D01*
X4694700Y-18012471D02*
X4704224Y-18031519D01*
X4704224Y-18031519D02*
X4713748Y-18069614D01*
X4713748Y-18069614D02*
X4713748Y-18117233D01*
X4713748Y-18117233D02*
X4704224Y-18155329D01*
X4704224Y-18155329D02*
X4694700Y-18174376D01*
X4694700Y-18174376D02*
X4685176Y-18183900D01*
X4685176Y-18183900D02*
X4666129Y-18193424D01*
X4666129Y-18193424D02*
X4647081Y-18193424D01*
X4647081Y-18193424D02*
X4628033Y-18183900D01*
X4628033Y-18183900D02*
X4618510Y-18174376D01*
X4618510Y-18174376D02*
X4608986Y-18155329D01*
X4608986Y-18155329D02*
X4599462Y-18117233D01*
X4599462Y-18117233D02*
X4599462Y-18069614D01*
X4599462Y-18069614D02*
X4608986Y-18031519D01*
X4608986Y-18031519D02*
X4618510Y-18012471D01*
X4618510Y-18012471D02*
X4628033Y-18002948D01*
X4628033Y-18002948D02*
X4647081Y-17993424D01*
X4799462Y-18193424D02*
X4799462Y-18060090D01*
X4799462Y-18079138D02*
X4808986Y-18069614D01*
X4808986Y-18069614D02*
X4828033Y-18060090D01*
X4828033Y-18060090D02*
X4856605Y-18060090D01*
X4856605Y-18060090D02*
X4875652Y-18069614D01*
X4875652Y-18069614D02*
X4885176Y-18088662D01*
X4885176Y-18088662D02*
X4885176Y-18193424D01*
X4885176Y-18088662D02*
X4894700Y-18069614D01*
X4894700Y-18069614D02*
X4913748Y-18060090D01*
X4913748Y-18060090D02*
X4942319Y-18060090D01*
X4942319Y-18060090D02*
X4961367Y-18069614D01*
X4961367Y-18069614D02*
X4970891Y-18088662D01*
X4970891Y-18088662D02*
X4970891Y-18193424D01*
X5066129Y-18193424D02*
X5066129Y-18060090D01*
X5066129Y-18079138D02*
X5075652Y-18069614D01*
X5075652Y-18069614D02*
X5094700Y-18060090D01*
X5094700Y-18060090D02*
X5123272Y-18060090D01*
X5123272Y-18060090D02*
X5142319Y-18069614D01*
X5142319Y-18069614D02*
X5151843Y-18088662D01*
X5151843Y-18088662D02*
X5151843Y-18193424D01*
X5151843Y-18088662D02*
X5161367Y-18069614D01*
X5161367Y-18069614D02*
X5180414Y-18060090D01*
X5180414Y-18060090D02*
X5208986Y-18060090D01*
X5208986Y-18060090D02*
X5228033Y-18069614D01*
X5228033Y-18069614D02*
X5237557Y-18088662D01*
X5237557Y-18088662D02*
X5237557Y-18193424D01*
X5628033Y-17983900D02*
X5456605Y-18241043D01*
X5885176Y-17993424D02*
X5904224Y-17993424D01*
X5904224Y-17993424D02*
X5923272Y-18002948D01*
X5923272Y-18002948D02*
X5932795Y-18012471D01*
X5932795Y-18012471D02*
X5942319Y-18031519D01*
X5942319Y-18031519D02*
X5951843Y-18069614D01*
X5951843Y-18069614D02*
X5951843Y-18117233D01*
X5951843Y-18117233D02*
X5942319Y-18155329D01*
X5942319Y-18155329D02*
X5932795Y-18174376D01*
X5932795Y-18174376D02*
X5923272Y-18183900D01*
X5923272Y-18183900D02*
X5904224Y-18193424D01*
X5904224Y-18193424D02*
X5885176Y-18193424D01*
X5885176Y-18193424D02*
X5866129Y-18183900D01*
X5866129Y-18183900D02*
X5856605Y-18174376D01*
X5856605Y-18174376D02*
X5847081Y-18155329D01*
X5847081Y-18155329D02*
X5837557Y-18117233D01*
X5837557Y-18117233D02*
X5837557Y-18069614D01*
X5837557Y-18069614D02*
X5847081Y-18031519D01*
X5847081Y-18031519D02*
X5856605Y-18012471D01*
X5856605Y-18012471D02*
X5866129Y-18002948D01*
X5866129Y-18002948D02*
X5885176Y-17993424D01*
X6037557Y-18174376D02*
X6047081Y-18183900D01*
X6047081Y-18183900D02*
X6037557Y-18193424D01*
X6037557Y-18193424D02*
X6028033Y-18183900D01*
X6028033Y-18183900D02*
X6037557Y-18174376D01*
X6037557Y-18174376D02*
X6037557Y-18193424D01*
X6170891Y-17993424D02*
X6189938Y-17993424D01*
X6189938Y-17993424D02*
X6208986Y-18002948D01*
X6208986Y-18002948D02*
X6218510Y-18012471D01*
X6218510Y-18012471D02*
X6228033Y-18031519D01*
X6228033Y-18031519D02*
X6237557Y-18069614D01*
X6237557Y-18069614D02*
X6237557Y-18117233D01*
X6237557Y-18117233D02*
X6228033Y-18155329D01*
X6228033Y-18155329D02*
X6218510Y-18174376D01*
X6218510Y-18174376D02*
X6208986Y-18183900D01*
X6208986Y-18183900D02*
X6189938Y-18193424D01*
X6189938Y-18193424D02*
X6170891Y-18193424D01*
X6170891Y-18193424D02*
X6151843Y-18183900D01*
X6151843Y-18183900D02*
X6142319Y-18174376D01*
X6142319Y-18174376D02*
X6132795Y-18155329D01*
X6132795Y-18155329D02*
X6123272Y-18117233D01*
X6123272Y-18117233D02*
X6123272Y-18069614D01*
X6123272Y-18069614D02*
X6132795Y-18031519D01*
X6132795Y-18031519D02*
X6142319Y-18012471D01*
X6142319Y-18012471D02*
X6151843Y-18002948D01*
X6151843Y-18002948D02*
X6170891Y-17993424D01*
X6428033Y-18193424D02*
X6313748Y-18193424D01*
X6370891Y-18193424D02*
X6370891Y-17993424D01*
X6370891Y-17993424D02*
X6351843Y-18021995D01*
X6351843Y-18021995D02*
X6332795Y-18041043D01*
X6332795Y-18041043D02*
X6313748Y-18050567D01*
X6618510Y-18193424D02*
X6504224Y-18193424D01*
X6561367Y-18193424D02*
X6561367Y-17993424D01*
X6561367Y-17993424D02*
X6542319Y-18021995D01*
X6542319Y-18021995D02*
X6523272Y-18041043D01*
X6523272Y-18041043D02*
X6504224Y-18050567D01*
X6732795Y-18079138D02*
X6713748Y-18069614D01*
X6713748Y-18069614D02*
X6704224Y-18060090D01*
X6704224Y-18060090D02*
X6694700Y-18041043D01*
X6694700Y-18041043D02*
X6694700Y-18031519D01*
X6694700Y-18031519D02*
X6704224Y-18012471D01*
X6704224Y-18012471D02*
X6713748Y-18002948D01*
X6713748Y-18002948D02*
X6732795Y-17993424D01*
X6732795Y-17993424D02*
X6770891Y-17993424D01*
X6770891Y-17993424D02*
X6789938Y-18002948D01*
X6789938Y-18002948D02*
X6799462Y-18012471D01*
X6799462Y-18012471D02*
X6808986Y-18031519D01*
X6808986Y-18031519D02*
X6808986Y-18041043D01*
X6808986Y-18041043D02*
X6799462Y-18060090D01*
X6799462Y-18060090D02*
X6789938Y-18069614D01*
X6789938Y-18069614D02*
X6770891Y-18079138D01*
X6770891Y-18079138D02*
X6732795Y-18079138D01*
X6732795Y-18079138D02*
X6713748Y-18088662D01*
X6713748Y-18088662D02*
X6704224Y-18098186D01*
X6704224Y-18098186D02*
X6694700Y-18117233D01*
X6694700Y-18117233D02*
X6694700Y-18155329D01*
X6694700Y-18155329D02*
X6704224Y-18174376D01*
X6704224Y-18174376D02*
X6713748Y-18183900D01*
X6713748Y-18183900D02*
X6732795Y-18193424D01*
X6732795Y-18193424D02*
X6770891Y-18193424D01*
X6770891Y-18193424D02*
X6789938Y-18183900D01*
X6789938Y-18183900D02*
X6799462Y-18174376D01*
X6799462Y-18174376D02*
X6808986Y-18155329D01*
X6808986Y-18155329D02*
X6808986Y-18117233D01*
X6808986Y-18117233D02*
X6799462Y-18098186D01*
X6799462Y-18098186D02*
X6789938Y-18088662D01*
X6789938Y-18088662D02*
X6770891Y-18079138D01*
X6885176Y-17993424D02*
X6885176Y-18031519D01*
X6961367Y-17993424D02*
X6961367Y-18031519D01*
X7256605Y-18269614D02*
X7247081Y-18260090D01*
X7247081Y-18260090D02*
X7228034Y-18231519D01*
X7228034Y-18231519D02*
X7218510Y-18212471D01*
X7218510Y-18212471D02*
X7208986Y-18183900D01*
X7208986Y-18183900D02*
X7199462Y-18136281D01*
X7199462Y-18136281D02*
X7199462Y-18098186D01*
X7199462Y-18098186D02*
X7208986Y-18050567D01*
X7208986Y-18050567D02*
X7218510Y-18021995D01*
X7218510Y-18021995D02*
X7228034Y-18002948D01*
X7228034Y-18002948D02*
X7247081Y-17974376D01*
X7247081Y-17974376D02*
X7256605Y-17964852D01*
X7323272Y-18012471D02*
X7332795Y-18002948D01*
X7332795Y-18002948D02*
X7351843Y-17993424D01*
X7351843Y-17993424D02*
X7399462Y-17993424D01*
X7399462Y-17993424D02*
X7418510Y-18002948D01*
X7418510Y-18002948D02*
X7428034Y-18012471D01*
X7428034Y-18012471D02*
X7437557Y-18031519D01*
X7437557Y-18031519D02*
X7437557Y-18050567D01*
X7437557Y-18050567D02*
X7428034Y-18079138D01*
X7428034Y-18079138D02*
X7313748Y-18193424D01*
X7313748Y-18193424D02*
X7437557Y-18193424D01*
X7551843Y-18079138D02*
X7532795Y-18069614D01*
X7532795Y-18069614D02*
X7523272Y-18060090D01*
X7523272Y-18060090D02*
X7513748Y-18041043D01*
X7513748Y-18041043D02*
X7513748Y-18031519D01*
X7513748Y-18031519D02*
X7523272Y-18012471D01*
X7523272Y-18012471D02*
X7532795Y-18002948D01*
X7532795Y-18002948D02*
X7551843Y-17993424D01*
X7551843Y-17993424D02*
X7589938Y-17993424D01*
X7589938Y-17993424D02*
X7608986Y-18002948D01*
X7608986Y-18002948D02*
X7618510Y-18012471D01*
X7618510Y-18012471D02*
X7628034Y-18031519D01*
X7628034Y-18031519D02*
X7628034Y-18041043D01*
X7628034Y-18041043D02*
X7618510Y-18060090D01*
X7618510Y-18060090D02*
X7608986Y-18069614D01*
X7608986Y-18069614D02*
X7589938Y-18079138D01*
X7589938Y-18079138D02*
X7551843Y-18079138D01*
X7551843Y-18079138D02*
X7532795Y-18088662D01*
X7532795Y-18088662D02*
X7523272Y-18098186D01*
X7523272Y-18098186D02*
X7513748Y-18117233D01*
X7513748Y-18117233D02*
X7513748Y-18155329D01*
X7513748Y-18155329D02*
X7523272Y-18174376D01*
X7523272Y-18174376D02*
X7532795Y-18183900D01*
X7532795Y-18183900D02*
X7551843Y-18193424D01*
X7551843Y-18193424D02*
X7589938Y-18193424D01*
X7589938Y-18193424D02*
X7608986Y-18183900D01*
X7608986Y-18183900D02*
X7618510Y-18174376D01*
X7618510Y-18174376D02*
X7628034Y-18155329D01*
X7628034Y-18155329D02*
X7628034Y-18117233D01*
X7628034Y-18117233D02*
X7618510Y-18098186D01*
X7618510Y-18098186D02*
X7608986Y-18088662D01*
X7608986Y-18088662D02*
X7589938Y-18079138D01*
X7866129Y-18193424D02*
X7866129Y-17993424D01*
X7951843Y-18193424D02*
X7951843Y-18088662D01*
X7951843Y-18088662D02*
X7942319Y-18069614D01*
X7942319Y-18069614D02*
X7923272Y-18060090D01*
X7923272Y-18060090D02*
X7894700Y-18060090D01*
X7894700Y-18060090D02*
X7875653Y-18069614D01*
X7875653Y-18069614D02*
X7866129Y-18079138D01*
X8075653Y-18193424D02*
X8056605Y-18183900D01*
X8056605Y-18183900D02*
X8047081Y-18174376D01*
X8047081Y-18174376D02*
X8037557Y-18155329D01*
X8037557Y-18155329D02*
X8037557Y-18098186D01*
X8037557Y-18098186D02*
X8047081Y-18079138D01*
X8047081Y-18079138D02*
X8056605Y-18069614D01*
X8056605Y-18069614D02*
X8075653Y-18060090D01*
X8075653Y-18060090D02*
X8104224Y-18060090D01*
X8104224Y-18060090D02*
X8123272Y-18069614D01*
X8123272Y-18069614D02*
X8132796Y-18079138D01*
X8132796Y-18079138D02*
X8142319Y-18098186D01*
X8142319Y-18098186D02*
X8142319Y-18155329D01*
X8142319Y-18155329D02*
X8132796Y-18174376D01*
X8132796Y-18174376D02*
X8123272Y-18183900D01*
X8123272Y-18183900D02*
X8104224Y-18193424D01*
X8104224Y-18193424D02*
X8075653Y-18193424D01*
X8256605Y-18193424D02*
X8237557Y-18183900D01*
X8237557Y-18183900D02*
X8228034Y-18164852D01*
X8228034Y-18164852D02*
X8228034Y-17993424D01*
X8408986Y-18183900D02*
X8389939Y-18193424D01*
X8389939Y-18193424D02*
X8351843Y-18193424D01*
X8351843Y-18193424D02*
X8332796Y-18183900D01*
X8332796Y-18183900D02*
X8323272Y-18164852D01*
X8323272Y-18164852D02*
X8323272Y-18088662D01*
X8323272Y-18088662D02*
X8332796Y-18069614D01*
X8332796Y-18069614D02*
X8351843Y-18060090D01*
X8351843Y-18060090D02*
X8389939Y-18060090D01*
X8389939Y-18060090D02*
X8408986Y-18069614D01*
X8408986Y-18069614D02*
X8418510Y-18088662D01*
X8418510Y-18088662D02*
X8418510Y-18107710D01*
X8418510Y-18107710D02*
X8323272Y-18126757D01*
X8494700Y-18183900D02*
X8513748Y-18193424D01*
X8513748Y-18193424D02*
X8551843Y-18193424D01*
X8551843Y-18193424D02*
X8570891Y-18183900D01*
X8570891Y-18183900D02*
X8580415Y-18164852D01*
X8580415Y-18164852D02*
X8580415Y-18155329D01*
X8580415Y-18155329D02*
X8570891Y-18136281D01*
X8570891Y-18136281D02*
X8551843Y-18126757D01*
X8551843Y-18126757D02*
X8523272Y-18126757D01*
X8523272Y-18126757D02*
X8504224Y-18117233D01*
X8504224Y-18117233D02*
X8494700Y-18098186D01*
X8494700Y-18098186D02*
X8494700Y-18088662D01*
X8494700Y-18088662D02*
X8504224Y-18069614D01*
X8504224Y-18069614D02*
X8523272Y-18060090D01*
X8523272Y-18060090D02*
X8551843Y-18060090D01*
X8551843Y-18060090D02*
X8570891Y-18069614D01*
X8647081Y-18269614D02*
X8656605Y-18260090D01*
X8656605Y-18260090D02*
X8675653Y-18231519D01*
X8675653Y-18231519D02*
X8685177Y-18212471D01*
X8685177Y-18212471D02*
X8694700Y-18183900D01*
X8694700Y-18183900D02*
X8704224Y-18136281D01*
X8704224Y-18136281D02*
X8704224Y-18098186D01*
X8704224Y-18098186D02*
X8694700Y-18050567D01*
X8694700Y-18050567D02*
X8685177Y-18021995D01*
X8685177Y-18021995D02*
X8675653Y-18002948D01*
X8675653Y-18002948D02*
X8656605Y-17974376D01*
X8656605Y-17974376D02*
X8647081Y-17964852D01*
D15*
X3654700Y-18324900D02*
X3654700Y-18404900D01*
X3614700Y-18364900D02*
X3694700Y-18364900D01*
D12*
X3980414Y-18257424D02*
X3999462Y-18257424D01*
X3999462Y-18257424D02*
X4018509Y-18266948D01*
X4018509Y-18266948D02*
X4028033Y-18276471D01*
X4028033Y-18276471D02*
X4037557Y-18295519D01*
X4037557Y-18295519D02*
X4047081Y-18333614D01*
X4047081Y-18333614D02*
X4047081Y-18381233D01*
X4047081Y-18381233D02*
X4037557Y-18419329D01*
X4037557Y-18419329D02*
X4028033Y-18438376D01*
X4028033Y-18438376D02*
X4018509Y-18447900D01*
X4018509Y-18447900D02*
X3999462Y-18457424D01*
X3999462Y-18457424D02*
X3980414Y-18457424D01*
X3980414Y-18457424D02*
X3961367Y-18447900D01*
X3961367Y-18447900D02*
X3951843Y-18438376D01*
X3951843Y-18438376D02*
X3942319Y-18419329D01*
X3942319Y-18419329D02*
X3932795Y-18381233D01*
X3932795Y-18381233D02*
X3932795Y-18333614D01*
X3932795Y-18333614D02*
X3942319Y-18295519D01*
X3942319Y-18295519D02*
X3951843Y-18276471D01*
X3951843Y-18276471D02*
X3961367Y-18266948D01*
X3961367Y-18266948D02*
X3980414Y-18257424D01*
X4132795Y-18438376D02*
X4142319Y-18447900D01*
X4142319Y-18447900D02*
X4132795Y-18457424D01*
X4132795Y-18457424D02*
X4123271Y-18447900D01*
X4123271Y-18447900D02*
X4132795Y-18438376D01*
X4132795Y-18438376D02*
X4132795Y-18457424D01*
X4256605Y-18343138D02*
X4237557Y-18333614D01*
X4237557Y-18333614D02*
X4228033Y-18324090D01*
X4228033Y-18324090D02*
X4218510Y-18305043D01*
X4218510Y-18305043D02*
X4218510Y-18295519D01*
X4218510Y-18295519D02*
X4228033Y-18276471D01*
X4228033Y-18276471D02*
X4237557Y-18266948D01*
X4237557Y-18266948D02*
X4256605Y-18257424D01*
X4256605Y-18257424D02*
X4294700Y-18257424D01*
X4294700Y-18257424D02*
X4313748Y-18266948D01*
X4313748Y-18266948D02*
X4323271Y-18276471D01*
X4323271Y-18276471D02*
X4332795Y-18295519D01*
X4332795Y-18295519D02*
X4332795Y-18305043D01*
X4332795Y-18305043D02*
X4323271Y-18324090D01*
X4323271Y-18324090D02*
X4313748Y-18333614D01*
X4313748Y-18333614D02*
X4294700Y-18343138D01*
X4294700Y-18343138D02*
X4256605Y-18343138D01*
X4256605Y-18343138D02*
X4237557Y-18352662D01*
X4237557Y-18352662D02*
X4228033Y-18362186D01*
X4228033Y-18362186D02*
X4218510Y-18381233D01*
X4218510Y-18381233D02*
X4218510Y-18419329D01*
X4218510Y-18419329D02*
X4228033Y-18438376D01*
X4228033Y-18438376D02*
X4237557Y-18447900D01*
X4237557Y-18447900D02*
X4256605Y-18457424D01*
X4256605Y-18457424D02*
X4294700Y-18457424D01*
X4294700Y-18457424D02*
X4313748Y-18447900D01*
X4313748Y-18447900D02*
X4323271Y-18438376D01*
X4323271Y-18438376D02*
X4332795Y-18419329D01*
X4332795Y-18419329D02*
X4332795Y-18381233D01*
X4332795Y-18381233D02*
X4323271Y-18362186D01*
X4323271Y-18362186D02*
X4313748Y-18352662D01*
X4313748Y-18352662D02*
X4294700Y-18343138D01*
X4456605Y-18257424D02*
X4475652Y-18257424D01*
X4475652Y-18257424D02*
X4494700Y-18266948D01*
X4494700Y-18266948D02*
X4504224Y-18276471D01*
X4504224Y-18276471D02*
X4513748Y-18295519D01*
X4513748Y-18295519D02*
X4523271Y-18333614D01*
X4523271Y-18333614D02*
X4523271Y-18381233D01*
X4523271Y-18381233D02*
X4513748Y-18419329D01*
X4513748Y-18419329D02*
X4504224Y-18438376D01*
X4504224Y-18438376D02*
X4494700Y-18447900D01*
X4494700Y-18447900D02*
X4475652Y-18457424D01*
X4475652Y-18457424D02*
X4456605Y-18457424D01*
X4456605Y-18457424D02*
X4437557Y-18447900D01*
X4437557Y-18447900D02*
X4428033Y-18438376D01*
X4428033Y-18438376D02*
X4418510Y-18419329D01*
X4418510Y-18419329D02*
X4408986Y-18381233D01*
X4408986Y-18381233D02*
X4408986Y-18333614D01*
X4408986Y-18333614D02*
X4418510Y-18295519D01*
X4418510Y-18295519D02*
X4428033Y-18276471D01*
X4428033Y-18276471D02*
X4437557Y-18266948D01*
X4437557Y-18266948D02*
X4456605Y-18257424D01*
X4647081Y-18257424D02*
X4666129Y-18257424D01*
X4666129Y-18257424D02*
X4685176Y-18266948D01*
X4685176Y-18266948D02*
X4694700Y-18276471D01*
X4694700Y-18276471D02*
X4704224Y-18295519D01*
X4704224Y-18295519D02*
X4713748Y-18333614D01*
X4713748Y-18333614D02*
X4713748Y-18381233D01*
X4713748Y-18381233D02*
X4704224Y-18419329D01*
X4704224Y-18419329D02*
X4694700Y-18438376D01*
X4694700Y-18438376D02*
X4685176Y-18447900D01*
X4685176Y-18447900D02*
X4666129Y-18457424D01*
X4666129Y-18457424D02*
X4647081Y-18457424D01*
X4647081Y-18457424D02*
X4628033Y-18447900D01*
X4628033Y-18447900D02*
X4618510Y-18438376D01*
X4618510Y-18438376D02*
X4608986Y-18419329D01*
X4608986Y-18419329D02*
X4599462Y-18381233D01*
X4599462Y-18381233D02*
X4599462Y-18333614D01*
X4599462Y-18333614D02*
X4608986Y-18295519D01*
X4608986Y-18295519D02*
X4618510Y-18276471D01*
X4618510Y-18276471D02*
X4628033Y-18266948D01*
X4628033Y-18266948D02*
X4647081Y-18257424D01*
X4799462Y-18457424D02*
X4799462Y-18324090D01*
X4799462Y-18343138D02*
X4808986Y-18333614D01*
X4808986Y-18333614D02*
X4828033Y-18324090D01*
X4828033Y-18324090D02*
X4856605Y-18324090D01*
X4856605Y-18324090D02*
X4875652Y-18333614D01*
X4875652Y-18333614D02*
X4885176Y-18352662D01*
X4885176Y-18352662D02*
X4885176Y-18457424D01*
X4885176Y-18352662D02*
X4894700Y-18333614D01*
X4894700Y-18333614D02*
X4913748Y-18324090D01*
X4913748Y-18324090D02*
X4942319Y-18324090D01*
X4942319Y-18324090D02*
X4961367Y-18333614D01*
X4961367Y-18333614D02*
X4970891Y-18352662D01*
X4970891Y-18352662D02*
X4970891Y-18457424D01*
X5066129Y-18457424D02*
X5066129Y-18324090D01*
X5066129Y-18343138D02*
X5075652Y-18333614D01*
X5075652Y-18333614D02*
X5094700Y-18324090D01*
X5094700Y-18324090D02*
X5123272Y-18324090D01*
X5123272Y-18324090D02*
X5142319Y-18333614D01*
X5142319Y-18333614D02*
X5151843Y-18352662D01*
X5151843Y-18352662D02*
X5151843Y-18457424D01*
X5151843Y-18352662D02*
X5161367Y-18333614D01*
X5161367Y-18333614D02*
X5180414Y-18324090D01*
X5180414Y-18324090D02*
X5208986Y-18324090D01*
X5208986Y-18324090D02*
X5228033Y-18333614D01*
X5228033Y-18333614D02*
X5237557Y-18352662D01*
X5237557Y-18352662D02*
X5237557Y-18457424D01*
X5628033Y-18247900D02*
X5456605Y-18505043D01*
X5885176Y-18257424D02*
X5904224Y-18257424D01*
X5904224Y-18257424D02*
X5923272Y-18266948D01*
X5923272Y-18266948D02*
X5932795Y-18276471D01*
X5932795Y-18276471D02*
X5942319Y-18295519D01*
X5942319Y-18295519D02*
X5951843Y-18333614D01*
X5951843Y-18333614D02*
X5951843Y-18381233D01*
X5951843Y-18381233D02*
X5942319Y-18419329D01*
X5942319Y-18419329D02*
X5932795Y-18438376D01*
X5932795Y-18438376D02*
X5923272Y-18447900D01*
X5923272Y-18447900D02*
X5904224Y-18457424D01*
X5904224Y-18457424D02*
X5885176Y-18457424D01*
X5885176Y-18457424D02*
X5866129Y-18447900D01*
X5866129Y-18447900D02*
X5856605Y-18438376D01*
X5856605Y-18438376D02*
X5847081Y-18419329D01*
X5847081Y-18419329D02*
X5837557Y-18381233D01*
X5837557Y-18381233D02*
X5837557Y-18333614D01*
X5837557Y-18333614D02*
X5847081Y-18295519D01*
X5847081Y-18295519D02*
X5856605Y-18276471D01*
X5856605Y-18276471D02*
X5866129Y-18266948D01*
X5866129Y-18266948D02*
X5885176Y-18257424D01*
X6037557Y-18438376D02*
X6047081Y-18447900D01*
X6047081Y-18447900D02*
X6037557Y-18457424D01*
X6037557Y-18457424D02*
X6028033Y-18447900D01*
X6028033Y-18447900D02*
X6037557Y-18438376D01*
X6037557Y-18438376D02*
X6037557Y-18457424D01*
X6170891Y-18257424D02*
X6189938Y-18257424D01*
X6189938Y-18257424D02*
X6208986Y-18266948D01*
X6208986Y-18266948D02*
X6218510Y-18276471D01*
X6218510Y-18276471D02*
X6228033Y-18295519D01*
X6228033Y-18295519D02*
X6237557Y-18333614D01*
X6237557Y-18333614D02*
X6237557Y-18381233D01*
X6237557Y-18381233D02*
X6228033Y-18419329D01*
X6228033Y-18419329D02*
X6218510Y-18438376D01*
X6218510Y-18438376D02*
X6208986Y-18447900D01*
X6208986Y-18447900D02*
X6189938Y-18457424D01*
X6189938Y-18457424D02*
X6170891Y-18457424D01*
X6170891Y-18457424D02*
X6151843Y-18447900D01*
X6151843Y-18447900D02*
X6142319Y-18438376D01*
X6142319Y-18438376D02*
X6132795Y-18419329D01*
X6132795Y-18419329D02*
X6123272Y-18381233D01*
X6123272Y-18381233D02*
X6123272Y-18333614D01*
X6123272Y-18333614D02*
X6132795Y-18295519D01*
X6132795Y-18295519D02*
X6142319Y-18276471D01*
X6142319Y-18276471D02*
X6151843Y-18266948D01*
X6151843Y-18266948D02*
X6170891Y-18257424D01*
X6304224Y-18257424D02*
X6428033Y-18257424D01*
X6428033Y-18257424D02*
X6361367Y-18333614D01*
X6361367Y-18333614D02*
X6389938Y-18333614D01*
X6389938Y-18333614D02*
X6408986Y-18343138D01*
X6408986Y-18343138D02*
X6418510Y-18352662D01*
X6418510Y-18352662D02*
X6428033Y-18371710D01*
X6428033Y-18371710D02*
X6428033Y-18419329D01*
X6428033Y-18419329D02*
X6418510Y-18438376D01*
X6418510Y-18438376D02*
X6408986Y-18447900D01*
X6408986Y-18447900D02*
X6389938Y-18457424D01*
X6389938Y-18457424D02*
X6332795Y-18457424D01*
X6332795Y-18457424D02*
X6313748Y-18447900D01*
X6313748Y-18447900D02*
X6304224Y-18438376D01*
X6618510Y-18457424D02*
X6504224Y-18457424D01*
X6561367Y-18457424D02*
X6561367Y-18257424D01*
X6561367Y-18257424D02*
X6542319Y-18285995D01*
X6542319Y-18285995D02*
X6523272Y-18305043D01*
X6523272Y-18305043D02*
X6504224Y-18314567D01*
X6799462Y-18257424D02*
X6704224Y-18257424D01*
X6704224Y-18257424D02*
X6694700Y-18352662D01*
X6694700Y-18352662D02*
X6704224Y-18343138D01*
X6704224Y-18343138D02*
X6723272Y-18333614D01*
X6723272Y-18333614D02*
X6770891Y-18333614D01*
X6770891Y-18333614D02*
X6789938Y-18343138D01*
X6789938Y-18343138D02*
X6799462Y-18352662D01*
X6799462Y-18352662D02*
X6808986Y-18371710D01*
X6808986Y-18371710D02*
X6808986Y-18419329D01*
X6808986Y-18419329D02*
X6799462Y-18438376D01*
X6799462Y-18438376D02*
X6789938Y-18447900D01*
X6789938Y-18447900D02*
X6770891Y-18457424D01*
X6770891Y-18457424D02*
X6723272Y-18457424D01*
X6723272Y-18457424D02*
X6704224Y-18447900D01*
X6704224Y-18447900D02*
X6694700Y-18438376D01*
X6885176Y-18257424D02*
X6885176Y-18295519D01*
X6961367Y-18257424D02*
X6961367Y-18295519D01*
X7256605Y-18533614D02*
X7247081Y-18524090D01*
X7247081Y-18524090D02*
X7228034Y-18495519D01*
X7228034Y-18495519D02*
X7218510Y-18476471D01*
X7218510Y-18476471D02*
X7208986Y-18447900D01*
X7208986Y-18447900D02*
X7199462Y-18400281D01*
X7199462Y-18400281D02*
X7199462Y-18362186D01*
X7199462Y-18362186D02*
X7208986Y-18314567D01*
X7208986Y-18314567D02*
X7218510Y-18285995D01*
X7218510Y-18285995D02*
X7228034Y-18266948D01*
X7228034Y-18266948D02*
X7247081Y-18238376D01*
X7247081Y-18238376D02*
X7256605Y-18228852D01*
X7323272Y-18276471D02*
X7332795Y-18266948D01*
X7332795Y-18266948D02*
X7351843Y-18257424D01*
X7351843Y-18257424D02*
X7399462Y-18257424D01*
X7399462Y-18257424D02*
X7418510Y-18266948D01*
X7418510Y-18266948D02*
X7428034Y-18276471D01*
X7428034Y-18276471D02*
X7437557Y-18295519D01*
X7437557Y-18295519D02*
X7437557Y-18314567D01*
X7437557Y-18314567D02*
X7428034Y-18343138D01*
X7428034Y-18343138D02*
X7313748Y-18457424D01*
X7313748Y-18457424D02*
X7437557Y-18457424D01*
X7675653Y-18457424D02*
X7675653Y-18257424D01*
X7761367Y-18457424D02*
X7761367Y-18352662D01*
X7761367Y-18352662D02*
X7751843Y-18333614D01*
X7751843Y-18333614D02*
X7732796Y-18324090D01*
X7732796Y-18324090D02*
X7704224Y-18324090D01*
X7704224Y-18324090D02*
X7685176Y-18333614D01*
X7685176Y-18333614D02*
X7675653Y-18343138D01*
X7885176Y-18457424D02*
X7866129Y-18447900D01*
X7866129Y-18447900D02*
X7856605Y-18438376D01*
X7856605Y-18438376D02*
X7847081Y-18419329D01*
X7847081Y-18419329D02*
X7847081Y-18362186D01*
X7847081Y-18362186D02*
X7856605Y-18343138D01*
X7856605Y-18343138D02*
X7866129Y-18333614D01*
X7866129Y-18333614D02*
X7885176Y-18324090D01*
X7885176Y-18324090D02*
X7913748Y-18324090D01*
X7913748Y-18324090D02*
X7932796Y-18333614D01*
X7932796Y-18333614D02*
X7942319Y-18343138D01*
X7942319Y-18343138D02*
X7951843Y-18362186D01*
X7951843Y-18362186D02*
X7951843Y-18419329D01*
X7951843Y-18419329D02*
X7942319Y-18438376D01*
X7942319Y-18438376D02*
X7932796Y-18447900D01*
X7932796Y-18447900D02*
X7913748Y-18457424D01*
X7913748Y-18457424D02*
X7885176Y-18457424D01*
X8066129Y-18457424D02*
X8047081Y-18447900D01*
X8047081Y-18447900D02*
X8037557Y-18428852D01*
X8037557Y-18428852D02*
X8037557Y-18257424D01*
X8218510Y-18447900D02*
X8199462Y-18457424D01*
X8199462Y-18457424D02*
X8161367Y-18457424D01*
X8161367Y-18457424D02*
X8142319Y-18447900D01*
X8142319Y-18447900D02*
X8132796Y-18428852D01*
X8132796Y-18428852D02*
X8132796Y-18352662D01*
X8132796Y-18352662D02*
X8142319Y-18333614D01*
X8142319Y-18333614D02*
X8161367Y-18324090D01*
X8161367Y-18324090D02*
X8199462Y-18324090D01*
X8199462Y-18324090D02*
X8218510Y-18333614D01*
X8218510Y-18333614D02*
X8228034Y-18352662D01*
X8228034Y-18352662D02*
X8228034Y-18371710D01*
X8228034Y-18371710D02*
X8132796Y-18390757D01*
X8304224Y-18447900D02*
X8323272Y-18457424D01*
X8323272Y-18457424D02*
X8361367Y-18457424D01*
X8361367Y-18457424D02*
X8380415Y-18447900D01*
X8380415Y-18447900D02*
X8389939Y-18428852D01*
X8389939Y-18428852D02*
X8389939Y-18419329D01*
X8389939Y-18419329D02*
X8380415Y-18400281D01*
X8380415Y-18400281D02*
X8361367Y-18390757D01*
X8361367Y-18390757D02*
X8332796Y-18390757D01*
X8332796Y-18390757D02*
X8313748Y-18381233D01*
X8313748Y-18381233D02*
X8304224Y-18362186D01*
X8304224Y-18362186D02*
X8304224Y-18352662D01*
X8304224Y-18352662D02*
X8313748Y-18333614D01*
X8313748Y-18333614D02*
X8332796Y-18324090D01*
X8332796Y-18324090D02*
X8361367Y-18324090D01*
X8361367Y-18324090D02*
X8380415Y-18333614D01*
X8456605Y-18533614D02*
X8466129Y-18524090D01*
X8466129Y-18524090D02*
X8485177Y-18495519D01*
X8485177Y-18495519D02*
X8494700Y-18476471D01*
X8494700Y-18476471D02*
X8504224Y-18447900D01*
X8504224Y-18447900D02*
X8513748Y-18400281D01*
X8513748Y-18400281D02*
X8513748Y-18362186D01*
X8513748Y-18362186D02*
X8504224Y-18314567D01*
X8504224Y-18314567D02*
X8494700Y-18285995D01*
X8494700Y-18285995D02*
X8485177Y-18266948D01*
X8485177Y-18266948D02*
X8466129Y-18238376D01*
X8466129Y-18238376D02*
X8456605Y-18228852D01*
D16*
X3680056Y-18664256D02*
X3680056Y-18593544D01*
X3609344Y-18593544D01*
X3609344Y-18664256D01*
X3680056Y-18664256D01*
D12*
X4047081Y-18721424D02*
X3932795Y-18721424D01*
X3989938Y-18721424D02*
X3989938Y-18521424D01*
X3989938Y-18521424D02*
X3970890Y-18549995D01*
X3970890Y-18549995D02*
X3951843Y-18569043D01*
X3951843Y-18569043D02*
X3932795Y-18578567D01*
X4132795Y-18702376D02*
X4142319Y-18711900D01*
X4142319Y-18711900D02*
X4132795Y-18721424D01*
X4132795Y-18721424D02*
X4123271Y-18711900D01*
X4123271Y-18711900D02*
X4132795Y-18702376D01*
X4132795Y-18702376D02*
X4132795Y-18721424D01*
X4266129Y-18521424D02*
X4285176Y-18521424D01*
X4285176Y-18521424D02*
X4304224Y-18530948D01*
X4304224Y-18530948D02*
X4313748Y-18540471D01*
X4313748Y-18540471D02*
X4323271Y-18559519D01*
X4323271Y-18559519D02*
X4332795Y-18597614D01*
X4332795Y-18597614D02*
X4332795Y-18645233D01*
X4332795Y-18645233D02*
X4323271Y-18683329D01*
X4323271Y-18683329D02*
X4313748Y-18702376D01*
X4313748Y-18702376D02*
X4304224Y-18711900D01*
X4304224Y-18711900D02*
X4285176Y-18721424D01*
X4285176Y-18721424D02*
X4266129Y-18721424D01*
X4266129Y-18721424D02*
X4247081Y-18711900D01*
X4247081Y-18711900D02*
X4237557Y-18702376D01*
X4237557Y-18702376D02*
X4228033Y-18683329D01*
X4228033Y-18683329D02*
X4218510Y-18645233D01*
X4218510Y-18645233D02*
X4218510Y-18597614D01*
X4218510Y-18597614D02*
X4228033Y-18559519D01*
X4228033Y-18559519D02*
X4237557Y-18540471D01*
X4237557Y-18540471D02*
X4247081Y-18530948D01*
X4247081Y-18530948D02*
X4266129Y-18521424D01*
X4456605Y-18521424D02*
X4475652Y-18521424D01*
X4475652Y-18521424D02*
X4494700Y-18530948D01*
X4494700Y-18530948D02*
X4504224Y-18540471D01*
X4504224Y-18540471D02*
X4513748Y-18559519D01*
X4513748Y-18559519D02*
X4523271Y-18597614D01*
X4523271Y-18597614D02*
X4523271Y-18645233D01*
X4523271Y-18645233D02*
X4513748Y-18683329D01*
X4513748Y-18683329D02*
X4504224Y-18702376D01*
X4504224Y-18702376D02*
X4494700Y-18711900D01*
X4494700Y-18711900D02*
X4475652Y-18721424D01*
X4475652Y-18721424D02*
X4456605Y-18721424D01*
X4456605Y-18721424D02*
X4437557Y-18711900D01*
X4437557Y-18711900D02*
X4428033Y-18702376D01*
X4428033Y-18702376D02*
X4418510Y-18683329D01*
X4418510Y-18683329D02*
X4408986Y-18645233D01*
X4408986Y-18645233D02*
X4408986Y-18597614D01*
X4408986Y-18597614D02*
X4418510Y-18559519D01*
X4418510Y-18559519D02*
X4428033Y-18540471D01*
X4428033Y-18540471D02*
X4437557Y-18530948D01*
X4437557Y-18530948D02*
X4456605Y-18521424D01*
X4647081Y-18521424D02*
X4666129Y-18521424D01*
X4666129Y-18521424D02*
X4685176Y-18530948D01*
X4685176Y-18530948D02*
X4694700Y-18540471D01*
X4694700Y-18540471D02*
X4704224Y-18559519D01*
X4704224Y-18559519D02*
X4713748Y-18597614D01*
X4713748Y-18597614D02*
X4713748Y-18645233D01*
X4713748Y-18645233D02*
X4704224Y-18683329D01*
X4704224Y-18683329D02*
X4694700Y-18702376D01*
X4694700Y-18702376D02*
X4685176Y-18711900D01*
X4685176Y-18711900D02*
X4666129Y-18721424D01*
X4666129Y-18721424D02*
X4647081Y-18721424D01*
X4647081Y-18721424D02*
X4628033Y-18711900D01*
X4628033Y-18711900D02*
X4618510Y-18702376D01*
X4618510Y-18702376D02*
X4608986Y-18683329D01*
X4608986Y-18683329D02*
X4599462Y-18645233D01*
X4599462Y-18645233D02*
X4599462Y-18597614D01*
X4599462Y-18597614D02*
X4608986Y-18559519D01*
X4608986Y-18559519D02*
X4618510Y-18540471D01*
X4618510Y-18540471D02*
X4628033Y-18530948D01*
X4628033Y-18530948D02*
X4647081Y-18521424D01*
X4799462Y-18721424D02*
X4799462Y-18588090D01*
X4799462Y-18607138D02*
X4808986Y-18597614D01*
X4808986Y-18597614D02*
X4828033Y-18588090D01*
X4828033Y-18588090D02*
X4856605Y-18588090D01*
X4856605Y-18588090D02*
X4875652Y-18597614D01*
X4875652Y-18597614D02*
X4885176Y-18616662D01*
X4885176Y-18616662D02*
X4885176Y-18721424D01*
X4885176Y-18616662D02*
X4894700Y-18597614D01*
X4894700Y-18597614D02*
X4913748Y-18588090D01*
X4913748Y-18588090D02*
X4942319Y-18588090D01*
X4942319Y-18588090D02*
X4961367Y-18597614D01*
X4961367Y-18597614D02*
X4970891Y-18616662D01*
X4970891Y-18616662D02*
X4970891Y-18721424D01*
X5066129Y-18721424D02*
X5066129Y-18588090D01*
X5066129Y-18607138D02*
X5075652Y-18597614D01*
X5075652Y-18597614D02*
X5094700Y-18588090D01*
X5094700Y-18588090D02*
X5123272Y-18588090D01*
X5123272Y-18588090D02*
X5142319Y-18597614D01*
X5142319Y-18597614D02*
X5151843Y-18616662D01*
X5151843Y-18616662D02*
X5151843Y-18721424D01*
X5151843Y-18616662D02*
X5161367Y-18597614D01*
X5161367Y-18597614D02*
X5180414Y-18588090D01*
X5180414Y-18588090D02*
X5208986Y-18588090D01*
X5208986Y-18588090D02*
X5228033Y-18597614D01*
X5228033Y-18597614D02*
X5237557Y-18616662D01*
X5237557Y-18616662D02*
X5237557Y-18721424D01*
X5628033Y-18511900D02*
X5456605Y-18769043D01*
X5885176Y-18521424D02*
X5904224Y-18521424D01*
X5904224Y-18521424D02*
X5923272Y-18530948D01*
X5923272Y-18530948D02*
X5932795Y-18540471D01*
X5932795Y-18540471D02*
X5942319Y-18559519D01*
X5942319Y-18559519D02*
X5951843Y-18597614D01*
X5951843Y-18597614D02*
X5951843Y-18645233D01*
X5951843Y-18645233D02*
X5942319Y-18683329D01*
X5942319Y-18683329D02*
X5932795Y-18702376D01*
X5932795Y-18702376D02*
X5923272Y-18711900D01*
X5923272Y-18711900D02*
X5904224Y-18721424D01*
X5904224Y-18721424D02*
X5885176Y-18721424D01*
X5885176Y-18721424D02*
X5866129Y-18711900D01*
X5866129Y-18711900D02*
X5856605Y-18702376D01*
X5856605Y-18702376D02*
X5847081Y-18683329D01*
X5847081Y-18683329D02*
X5837557Y-18645233D01*
X5837557Y-18645233D02*
X5837557Y-18597614D01*
X5837557Y-18597614D02*
X5847081Y-18559519D01*
X5847081Y-18559519D02*
X5856605Y-18540471D01*
X5856605Y-18540471D02*
X5866129Y-18530948D01*
X5866129Y-18530948D02*
X5885176Y-18521424D01*
X6037557Y-18702376D02*
X6047081Y-18711900D01*
X6047081Y-18711900D02*
X6037557Y-18721424D01*
X6037557Y-18721424D02*
X6028033Y-18711900D01*
X6028033Y-18711900D02*
X6037557Y-18702376D01*
X6037557Y-18702376D02*
X6037557Y-18721424D01*
X6170891Y-18521424D02*
X6189938Y-18521424D01*
X6189938Y-18521424D02*
X6208986Y-18530948D01*
X6208986Y-18530948D02*
X6218510Y-18540471D01*
X6218510Y-18540471D02*
X6228033Y-18559519D01*
X6228033Y-18559519D02*
X6237557Y-18597614D01*
X6237557Y-18597614D02*
X6237557Y-18645233D01*
X6237557Y-18645233D02*
X6228033Y-18683329D01*
X6228033Y-18683329D02*
X6218510Y-18702376D01*
X6218510Y-18702376D02*
X6208986Y-18711900D01*
X6208986Y-18711900D02*
X6189938Y-18721424D01*
X6189938Y-18721424D02*
X6170891Y-18721424D01*
X6170891Y-18721424D02*
X6151843Y-18711900D01*
X6151843Y-18711900D02*
X6142319Y-18702376D01*
X6142319Y-18702376D02*
X6132795Y-18683329D01*
X6132795Y-18683329D02*
X6123272Y-18645233D01*
X6123272Y-18645233D02*
X6123272Y-18597614D01*
X6123272Y-18597614D02*
X6132795Y-18559519D01*
X6132795Y-18559519D02*
X6142319Y-18540471D01*
X6142319Y-18540471D02*
X6151843Y-18530948D01*
X6151843Y-18530948D02*
X6170891Y-18521424D01*
X6304224Y-18521424D02*
X6428033Y-18521424D01*
X6428033Y-18521424D02*
X6361367Y-18597614D01*
X6361367Y-18597614D02*
X6389938Y-18597614D01*
X6389938Y-18597614D02*
X6408986Y-18607138D01*
X6408986Y-18607138D02*
X6418510Y-18616662D01*
X6418510Y-18616662D02*
X6428033Y-18635710D01*
X6428033Y-18635710D02*
X6428033Y-18683329D01*
X6428033Y-18683329D02*
X6418510Y-18702376D01*
X6418510Y-18702376D02*
X6408986Y-18711900D01*
X6408986Y-18711900D02*
X6389938Y-18721424D01*
X6389938Y-18721424D02*
X6332795Y-18721424D01*
X6332795Y-18721424D02*
X6313748Y-18711900D01*
X6313748Y-18711900D02*
X6304224Y-18702376D01*
X6523272Y-18721424D02*
X6561367Y-18721424D01*
X6561367Y-18721424D02*
X6580414Y-18711900D01*
X6580414Y-18711900D02*
X6589938Y-18702376D01*
X6589938Y-18702376D02*
X6608986Y-18673805D01*
X6608986Y-18673805D02*
X6618510Y-18635710D01*
X6618510Y-18635710D02*
X6618510Y-18559519D01*
X6618510Y-18559519D02*
X6608986Y-18540471D01*
X6608986Y-18540471D02*
X6599462Y-18530948D01*
X6599462Y-18530948D02*
X6580414Y-18521424D01*
X6580414Y-18521424D02*
X6542319Y-18521424D01*
X6542319Y-18521424D02*
X6523272Y-18530948D01*
X6523272Y-18530948D02*
X6513748Y-18540471D01*
X6513748Y-18540471D02*
X6504224Y-18559519D01*
X6504224Y-18559519D02*
X6504224Y-18607138D01*
X6504224Y-18607138D02*
X6513748Y-18626186D01*
X6513748Y-18626186D02*
X6523272Y-18635710D01*
X6523272Y-18635710D02*
X6542319Y-18645233D01*
X6542319Y-18645233D02*
X6580414Y-18645233D01*
X6580414Y-18645233D02*
X6599462Y-18635710D01*
X6599462Y-18635710D02*
X6608986Y-18626186D01*
X6608986Y-18626186D02*
X6618510Y-18607138D01*
X6789938Y-18588090D02*
X6789938Y-18721424D01*
X6742319Y-18511900D02*
X6694700Y-18654757D01*
X6694700Y-18654757D02*
X6818510Y-18654757D01*
X6885176Y-18521424D02*
X6885176Y-18559519D01*
X6961367Y-18521424D02*
X6961367Y-18559519D01*
X7256605Y-18797614D02*
X7247081Y-18788090D01*
X7247081Y-18788090D02*
X7228034Y-18759519D01*
X7228034Y-18759519D02*
X7218510Y-18740471D01*
X7218510Y-18740471D02*
X7208986Y-18711900D01*
X7208986Y-18711900D02*
X7199462Y-18664281D01*
X7199462Y-18664281D02*
X7199462Y-18626186D01*
X7199462Y-18626186D02*
X7208986Y-18578567D01*
X7208986Y-18578567D02*
X7218510Y-18549995D01*
X7218510Y-18549995D02*
X7228034Y-18530948D01*
X7228034Y-18530948D02*
X7247081Y-18502376D01*
X7247081Y-18502376D02*
X7256605Y-18492852D01*
X7437557Y-18721424D02*
X7323272Y-18721424D01*
X7380414Y-18721424D02*
X7380414Y-18521424D01*
X7380414Y-18521424D02*
X7361367Y-18549995D01*
X7361367Y-18549995D02*
X7342319Y-18569043D01*
X7342319Y-18569043D02*
X7323272Y-18578567D01*
X7504224Y-18521424D02*
X7637557Y-18521424D01*
X7637557Y-18521424D02*
X7551843Y-18721424D01*
X7866129Y-18721424D02*
X7866129Y-18521424D01*
X7951843Y-18721424D02*
X7951843Y-18616662D01*
X7951843Y-18616662D02*
X7942319Y-18597614D01*
X7942319Y-18597614D02*
X7923272Y-18588090D01*
X7923272Y-18588090D02*
X7894700Y-18588090D01*
X7894700Y-18588090D02*
X7875653Y-18597614D01*
X7875653Y-18597614D02*
X7866129Y-18607138D01*
X8075653Y-18721424D02*
X8056605Y-18711900D01*
X8056605Y-18711900D02*
X8047081Y-18702376D01*
X8047081Y-18702376D02*
X8037557Y-18683329D01*
X8037557Y-18683329D02*
X8037557Y-18626186D01*
X8037557Y-18626186D02*
X8047081Y-18607138D01*
X8047081Y-18607138D02*
X8056605Y-18597614D01*
X8056605Y-18597614D02*
X8075653Y-18588090D01*
X8075653Y-18588090D02*
X8104224Y-18588090D01*
X8104224Y-18588090D02*
X8123272Y-18597614D01*
X8123272Y-18597614D02*
X8132796Y-18607138D01*
X8132796Y-18607138D02*
X8142319Y-18626186D01*
X8142319Y-18626186D02*
X8142319Y-18683329D01*
X8142319Y-18683329D02*
X8132796Y-18702376D01*
X8132796Y-18702376D02*
X8123272Y-18711900D01*
X8123272Y-18711900D02*
X8104224Y-18721424D01*
X8104224Y-18721424D02*
X8075653Y-18721424D01*
X8256605Y-18721424D02*
X8237557Y-18711900D01*
X8237557Y-18711900D02*
X8228034Y-18692852D01*
X8228034Y-18692852D02*
X8228034Y-18521424D01*
X8408986Y-18711900D02*
X8389939Y-18721424D01*
X8389939Y-18721424D02*
X8351843Y-18721424D01*
X8351843Y-18721424D02*
X8332796Y-18711900D01*
X8332796Y-18711900D02*
X8323272Y-18692852D01*
X8323272Y-18692852D02*
X8323272Y-18616662D01*
X8323272Y-18616662D02*
X8332796Y-18597614D01*
X8332796Y-18597614D02*
X8351843Y-18588090D01*
X8351843Y-18588090D02*
X8389939Y-18588090D01*
X8389939Y-18588090D02*
X8408986Y-18597614D01*
X8408986Y-18597614D02*
X8418510Y-18616662D01*
X8418510Y-18616662D02*
X8418510Y-18635710D01*
X8418510Y-18635710D02*
X8323272Y-18654757D01*
X8494700Y-18711900D02*
X8513748Y-18721424D01*
X8513748Y-18721424D02*
X8551843Y-18721424D01*
X8551843Y-18721424D02*
X8570891Y-18711900D01*
X8570891Y-18711900D02*
X8580415Y-18692852D01*
X8580415Y-18692852D02*
X8580415Y-18683329D01*
X8580415Y-18683329D02*
X8570891Y-18664281D01*
X8570891Y-18664281D02*
X8551843Y-18654757D01*
X8551843Y-18654757D02*
X8523272Y-18654757D01*
X8523272Y-18654757D02*
X8504224Y-18645233D01*
X8504224Y-18645233D02*
X8494700Y-18626186D01*
X8494700Y-18626186D02*
X8494700Y-18616662D01*
X8494700Y-18616662D02*
X8504224Y-18597614D01*
X8504224Y-18597614D02*
X8523272Y-18588090D01*
X8523272Y-18588090D02*
X8551843Y-18588090D01*
X8551843Y-18588090D02*
X8570891Y-18597614D01*
X8647081Y-18797614D02*
X8656605Y-18788090D01*
X8656605Y-18788090D02*
X8675653Y-18759519D01*
X8675653Y-18759519D02*
X8685177Y-18740471D01*
X8685177Y-18740471D02*
X8694700Y-18711900D01*
X8694700Y-18711900D02*
X8704224Y-18664281D01*
X8704224Y-18664281D02*
X8704224Y-18626186D01*
X8704224Y-18626186D02*
X8694700Y-18578567D01*
X8694700Y-18578567D02*
X8685177Y-18549995D01*
X8685177Y-18549995D02*
X8675653Y-18530948D01*
X8675653Y-18530948D02*
X8656605Y-18502376D01*
X8656605Y-18502376D02*
X8647081Y-18492852D01*
M02*
