G04 #@! TF.GenerationSoftware,KiCad,Pcbnew,7.0.1*
G04 #@! TF.CreationDate,2024-07-14T18:55:08+02:00*
G04 #@! TF.ProjectId,Gruzik2.0,4772757a-696b-4322-9e30-2e6b69636164,rev?*
G04 #@! TF.SameCoordinates,Original*
G04 #@! TF.FileFunction,Legend,Top*
G04 #@! TF.FilePolarity,Positive*
%FSLAX46Y46*%
G04 Gerber Fmt 4.6, Leading zero omitted, Abs format (unit mm)*
G04 Created by KiCad (PCBNEW 7.0.1) date 2024-07-14 18:55:08*
%MOMM*%
%LPD*%
G01*
G04 APERTURE LIST*
G04 Aperture macros list*
%AMRoundRect*
0 Rectangle with rounded corners*
0 $1 Rounding radius*
0 $2 $3 $4 $5 $6 $7 $8 $9 X,Y pos of 4 corners*
0 Add a 4 corners polygon primitive as box body*
4,1,4,$2,$3,$4,$5,$6,$7,$8,$9,$2,$3,0*
0 Add four circle primitives for the rounded corners*
1,1,$1+$1,$2,$3*
1,1,$1+$1,$4,$5*
1,1,$1+$1,$6,$7*
1,1,$1+$1,$8,$9*
0 Add four rect primitives between the rounded corners*
20,1,$1+$1,$2,$3,$4,$5,0*
20,1,$1+$1,$4,$5,$6,$7,0*
20,1,$1+$1,$6,$7,$8,$9,0*
20,1,$1+$1,$8,$9,$2,$3,0*%
G04 Aperture macros list end*
%ADD10C,0.200000*%
%ADD11C,0.170000*%
%ADD12C,0.250000*%
%ADD13C,0.127000*%
%ADD14C,0.120000*%
%ADD15RoundRect,0.102000X-0.650000X-0.500000X0.650000X-0.500000X0.650000X0.500000X-0.650000X0.500000X0*%
%ADD16RoundRect,0.102000X0.500000X-0.650000X0.500000X0.650000X-0.500000X0.650000X-0.500000X-0.650000X0*%
%ADD17RoundRect,0.102000X0.650000X0.500000X-0.650000X0.500000X-0.650000X-0.500000X0.650000X-0.500000X0*%
%ADD18RoundRect,0.225000X0.250000X-0.225000X0.250000X0.225000X-0.250000X0.225000X-0.250000X-0.225000X0*%
%ADD19C,2.100000*%
%ADD20R,1.700000X1.700000*%
%ADD21O,1.700000X1.700000*%
%ADD22RoundRect,0.200000X-0.275000X0.200000X-0.275000X-0.200000X0.275000X-0.200000X0.275000X0.200000X0*%
%ADD23RoundRect,0.200000X0.275000X-0.200000X0.275000X0.200000X-0.275000X0.200000X-0.275000X-0.200000X0*%
%ADD24RoundRect,0.200000X0.200000X0.275000X-0.200000X0.275000X-0.200000X-0.275000X0.200000X-0.275000X0*%
%ADD25RoundRect,0.225000X0.225000X0.250000X-0.225000X0.250000X-0.225000X-0.250000X0.225000X-0.250000X0*%
%ADD26R,1.500000X1.500000*%
%ADD27RoundRect,0.218750X-0.256250X0.218750X-0.256250X-0.218750X0.256250X-0.218750X0.256250X0.218750X0*%
%ADD28C,1.500000*%
G04 APERTURE END LIST*
D10*
X113627619Y-150926190D02*
X114341904Y-150926190D01*
X114341904Y-150926190D02*
X114484761Y-150973809D01*
X114484761Y-150973809D02*
X114580000Y-151069047D01*
X114580000Y-151069047D02*
X114627619Y-151211904D01*
X114627619Y-151211904D02*
X114627619Y-151307142D01*
X114627619Y-149973809D02*
X114627619Y-150449999D01*
X114627619Y-150449999D02*
X113627619Y-150449999D01*
X114532380Y-149069047D02*
X114580000Y-149116666D01*
X114580000Y-149116666D02*
X114627619Y-149259523D01*
X114627619Y-149259523D02*
X114627619Y-149354761D01*
X114627619Y-149354761D02*
X114580000Y-149497618D01*
X114580000Y-149497618D02*
X114484761Y-149592856D01*
X114484761Y-149592856D02*
X114389523Y-149640475D01*
X114389523Y-149640475D02*
X114199047Y-149688094D01*
X114199047Y-149688094D02*
X114056190Y-149688094D01*
X114056190Y-149688094D02*
X113865714Y-149640475D01*
X113865714Y-149640475D02*
X113770476Y-149592856D01*
X113770476Y-149592856D02*
X113675238Y-149497618D01*
X113675238Y-149497618D02*
X113627619Y-149354761D01*
X113627619Y-149354761D02*
X113627619Y-149259523D01*
X113627619Y-149259523D02*
X113675238Y-149116666D01*
X113675238Y-149116666D02*
X113722857Y-149069047D01*
X113627619Y-148354761D02*
X114341904Y-148354761D01*
X114341904Y-148354761D02*
X114484761Y-148402380D01*
X114484761Y-148402380D02*
X114580000Y-148497618D01*
X114580000Y-148497618D02*
X114627619Y-148640475D01*
X114627619Y-148640475D02*
X114627619Y-148735713D01*
X114627619Y-147402380D02*
X114627619Y-147878570D01*
X114627619Y-147878570D02*
X113627619Y-147878570D01*
X114532380Y-146497618D02*
X114580000Y-146545237D01*
X114580000Y-146545237D02*
X114627619Y-146688094D01*
X114627619Y-146688094D02*
X114627619Y-146783332D01*
X114627619Y-146783332D02*
X114580000Y-146926189D01*
X114580000Y-146926189D02*
X114484761Y-147021427D01*
X114484761Y-147021427D02*
X114389523Y-147069046D01*
X114389523Y-147069046D02*
X114199047Y-147116665D01*
X114199047Y-147116665D02*
X114056190Y-147116665D01*
X114056190Y-147116665D02*
X113865714Y-147069046D01*
X113865714Y-147069046D02*
X113770476Y-147021427D01*
X113770476Y-147021427D02*
X113675238Y-146926189D01*
X113675238Y-146926189D02*
X113627619Y-146783332D01*
X113627619Y-146783332D02*
X113627619Y-146688094D01*
X113627619Y-146688094D02*
X113675238Y-146545237D01*
X113675238Y-146545237D02*
X113722857Y-146497618D01*
X113627619Y-145783332D02*
X114341904Y-145783332D01*
X114341904Y-145783332D02*
X114484761Y-145830951D01*
X114484761Y-145830951D02*
X114580000Y-145926189D01*
X114580000Y-145926189D02*
X114627619Y-146069046D01*
X114627619Y-146069046D02*
X114627619Y-146164284D01*
X114627619Y-144830951D02*
X114627619Y-145307141D01*
X114627619Y-145307141D02*
X113627619Y-145307141D01*
X114532380Y-143926189D02*
X114580000Y-143973808D01*
X114580000Y-143973808D02*
X114627619Y-144116665D01*
X114627619Y-144116665D02*
X114627619Y-144211903D01*
X114627619Y-144211903D02*
X114580000Y-144354760D01*
X114580000Y-144354760D02*
X114484761Y-144449998D01*
X114484761Y-144449998D02*
X114389523Y-144497617D01*
X114389523Y-144497617D02*
X114199047Y-144545236D01*
X114199047Y-144545236D02*
X114056190Y-144545236D01*
X114056190Y-144545236D02*
X113865714Y-144497617D01*
X113865714Y-144497617D02*
X113770476Y-144449998D01*
X113770476Y-144449998D02*
X113675238Y-144354760D01*
X113675238Y-144354760D02*
X113627619Y-144211903D01*
X113627619Y-144211903D02*
X113627619Y-144116665D01*
X113627619Y-144116665D02*
X113675238Y-143973808D01*
X113675238Y-143973808D02*
X113722857Y-143926189D01*
X113627619Y-143211903D02*
X114341904Y-143211903D01*
X114341904Y-143211903D02*
X114484761Y-143259522D01*
X114484761Y-143259522D02*
X114580000Y-143354760D01*
X114580000Y-143354760D02*
X114627619Y-143497617D01*
X114627619Y-143497617D02*
X114627619Y-143592855D01*
X114627619Y-142259522D02*
X114627619Y-142735712D01*
X114627619Y-142735712D02*
X113627619Y-142735712D01*
X114532380Y-141354760D02*
X114580000Y-141402379D01*
X114580000Y-141402379D02*
X114627619Y-141545236D01*
X114627619Y-141545236D02*
X114627619Y-141640474D01*
X114627619Y-141640474D02*
X114580000Y-141783331D01*
X114580000Y-141783331D02*
X114484761Y-141878569D01*
X114484761Y-141878569D02*
X114389523Y-141926188D01*
X114389523Y-141926188D02*
X114199047Y-141973807D01*
X114199047Y-141973807D02*
X114056190Y-141973807D01*
X114056190Y-141973807D02*
X113865714Y-141926188D01*
X113865714Y-141926188D02*
X113770476Y-141878569D01*
X113770476Y-141878569D02*
X113675238Y-141783331D01*
X113675238Y-141783331D02*
X113627619Y-141640474D01*
X113627619Y-141640474D02*
X113627619Y-141545236D01*
X113627619Y-141545236D02*
X113675238Y-141402379D01*
X113675238Y-141402379D02*
X113722857Y-141354760D01*
D11*
X111698095Y-155972619D02*
X111698095Y-156782142D01*
X111698095Y-156782142D02*
X111745714Y-156877380D01*
X111745714Y-156877380D02*
X111793333Y-156925000D01*
X111793333Y-156925000D02*
X111888571Y-156972619D01*
X111888571Y-156972619D02*
X112079047Y-156972619D01*
X112079047Y-156972619D02*
X112174285Y-156925000D01*
X112174285Y-156925000D02*
X112221904Y-156877380D01*
X112221904Y-156877380D02*
X112269523Y-156782142D01*
X112269523Y-156782142D02*
X112269523Y-155972619D01*
X112650476Y-155972619D02*
X113317142Y-155972619D01*
X113317142Y-155972619D02*
X112888571Y-156972619D01*
X125727380Y-151792857D02*
X125775000Y-151840476D01*
X125775000Y-151840476D02*
X125822619Y-151983333D01*
X125822619Y-151983333D02*
X125822619Y-152078571D01*
X125822619Y-152078571D02*
X125775000Y-152221428D01*
X125775000Y-152221428D02*
X125679761Y-152316666D01*
X125679761Y-152316666D02*
X125584523Y-152364285D01*
X125584523Y-152364285D02*
X125394047Y-152411904D01*
X125394047Y-152411904D02*
X125251190Y-152411904D01*
X125251190Y-152411904D02*
X125060714Y-152364285D01*
X125060714Y-152364285D02*
X124965476Y-152316666D01*
X124965476Y-152316666D02*
X124870238Y-152221428D01*
X124870238Y-152221428D02*
X124822619Y-152078571D01*
X124822619Y-152078571D02*
X124822619Y-151983333D01*
X124822619Y-151983333D02*
X124870238Y-151840476D01*
X124870238Y-151840476D02*
X124917857Y-151792857D01*
X125822619Y-150840476D02*
X125822619Y-151411904D01*
X125822619Y-151126190D02*
X124822619Y-151126190D01*
X124822619Y-151126190D02*
X124965476Y-151221428D01*
X124965476Y-151221428D02*
X125060714Y-151316666D01*
X125060714Y-151316666D02*
X125108333Y-151411904D01*
X124822619Y-150507142D02*
X124822619Y-149840476D01*
X124822619Y-149840476D02*
X125822619Y-150269047D01*
D12*
G36*
X82643335Y-161992970D02*
G01*
X82662267Y-162011902D01*
X82687618Y-162062603D01*
X82687618Y-162146444D01*
X82662266Y-162197145D01*
X82643335Y-162216077D01*
X82592634Y-162241428D01*
X82485740Y-162241428D01*
X82455664Y-162238311D01*
X82449496Y-162241428D01*
X82366190Y-162241428D01*
X82366190Y-161967619D01*
X82592634Y-161967619D01*
X82643335Y-161992970D01*
G37*
G36*
X81595717Y-161992970D02*
G01*
X81652128Y-162049381D01*
X81687618Y-162191340D01*
X81687618Y-162493897D01*
X81652128Y-162635855D01*
X81595714Y-162692269D01*
X81545015Y-162717619D01*
X81413555Y-162717619D01*
X81362854Y-162692268D01*
X81306441Y-162635855D01*
X81270952Y-162493897D01*
X81270952Y-162191340D01*
X81306442Y-162049381D01*
X81362854Y-161992969D01*
X81413555Y-161967619D01*
X81545015Y-161967619D01*
X81595717Y-161992970D01*
G37*
G36*
X79786193Y-161992970D02*
G01*
X79842604Y-162049381D01*
X79878094Y-162191340D01*
X79878094Y-162493897D01*
X79842604Y-162635855D01*
X79786190Y-162692269D01*
X79735491Y-162717619D01*
X79604031Y-162717619D01*
X79553330Y-162692268D01*
X79496917Y-162635855D01*
X79461428Y-162493897D01*
X79461428Y-162191340D01*
X79496918Y-162049381D01*
X79553330Y-161992969D01*
X79604031Y-161967619D01*
X79735491Y-161967619D01*
X79786193Y-161992970D01*
G37*
G36*
X86257262Y-163710357D02*
G01*
X77272738Y-163710357D01*
X77272738Y-161862220D01*
X78112396Y-161862220D01*
X78116190Y-161870350D01*
X78116190Y-162860591D01*
X78131594Y-162913052D01*
X78187071Y-162961123D01*
X78259730Y-162971570D01*
X78326503Y-162941076D01*
X78366190Y-162879322D01*
X78366190Y-162406065D01*
X78460833Y-162608873D01*
X78475368Y-162641404D01*
X78491917Y-162652233D01*
X78504994Y-162667076D01*
X78521997Y-162671917D01*
X78536792Y-162681598D01*
X78556571Y-162681760D01*
X78575595Y-162687177D01*
X78592517Y-162682056D01*
X78610196Y-162682202D01*
X78626922Y-162671645D01*
X78645855Y-162665917D01*
X78657323Y-162652460D01*
X78672275Y-162643024D01*
X78680639Y-162625100D01*
X78693468Y-162610047D01*
X78695840Y-162592527D01*
X78782856Y-162406064D01*
X78782856Y-162860591D01*
X78798260Y-162913052D01*
X78853737Y-162961123D01*
X78926396Y-162971570D01*
X78993169Y-162941076D01*
X79032856Y-162879322D01*
X79032856Y-162503995D01*
X79206258Y-162503995D01*
X79211428Y-162524675D01*
X79211428Y-162527257D01*
X79215772Y-162542054D01*
X79262312Y-162728210D01*
X79269705Y-162762196D01*
X79284336Y-162776827D01*
X79294806Y-162794672D01*
X79309757Y-162802248D01*
X79379814Y-162872305D01*
X79390555Y-162890389D01*
X79421365Y-162905794D01*
X79451592Y-162922300D01*
X79454028Y-162922125D01*
X79512606Y-162951415D01*
X79537820Y-162967619D01*
X79563366Y-162967619D01*
X79588507Y-162972143D01*
X79599415Y-162967619D01*
X79758274Y-162967619D01*
X79788073Y-162970836D01*
X79810920Y-162959412D01*
X79835432Y-162952215D01*
X79843165Y-162943289D01*
X79902121Y-162913811D01*
X79922673Y-162909341D01*
X79947032Y-162884981D01*
X79972247Y-162861527D01*
X79972851Y-162859161D01*
X80042502Y-162789510D01*
X80067841Y-162765685D01*
X80072859Y-162745611D01*
X80082775Y-162727452D01*
X80081579Y-162710732D01*
X80119373Y-162559557D01*
X80128094Y-162545988D01*
X80128094Y-162524675D01*
X80128721Y-162522167D01*
X80128094Y-162506744D01*
X80128094Y-162196524D01*
X80133264Y-162181242D01*
X80128094Y-162160562D01*
X80128094Y-162157980D01*
X80123749Y-162143182D01*
X80077206Y-161957013D01*
X80069816Y-161923041D01*
X80055186Y-161908411D01*
X80044716Y-161890565D01*
X80029762Y-161882987D01*
X80007934Y-161861159D01*
X80159858Y-161861159D01*
X80190352Y-161927932D01*
X80252106Y-161967619D01*
X80449523Y-161967619D01*
X80449523Y-162860591D01*
X80464927Y-162913052D01*
X80520404Y-162961123D01*
X80593063Y-162971570D01*
X80659836Y-162941076D01*
X80699523Y-162879322D01*
X80699523Y-162503995D01*
X81015782Y-162503995D01*
X81020952Y-162524675D01*
X81020952Y-162527257D01*
X81025296Y-162542054D01*
X81071836Y-162728210D01*
X81079229Y-162762196D01*
X81093860Y-162776827D01*
X81104330Y-162794672D01*
X81119281Y-162802248D01*
X81189338Y-162872305D01*
X81200079Y-162890389D01*
X81230889Y-162905794D01*
X81261116Y-162922300D01*
X81263552Y-162922125D01*
X81322130Y-162951415D01*
X81347344Y-162967619D01*
X81372890Y-162967619D01*
X81398031Y-162972143D01*
X81408939Y-162967619D01*
X81567798Y-162967619D01*
X81597597Y-162970836D01*
X81620444Y-162959412D01*
X81644956Y-162952215D01*
X81652689Y-162943289D01*
X81711645Y-162913811D01*
X81732197Y-162909341D01*
X81756556Y-162884981D01*
X81781771Y-162861527D01*
X81782375Y-162859161D01*
X81852026Y-162789510D01*
X81877365Y-162765685D01*
X81882383Y-162745611D01*
X81892299Y-162727452D01*
X81891103Y-162710732D01*
X81928897Y-162559557D01*
X81937618Y-162545988D01*
X81937618Y-162524675D01*
X81938245Y-162522167D01*
X81937618Y-162506744D01*
X81937618Y-162384968D01*
X82112239Y-162384968D01*
X82116190Y-162393620D01*
X82116190Y-162860591D01*
X82131594Y-162913052D01*
X82187071Y-162961123D01*
X82259730Y-162971570D01*
X82326503Y-162941076D01*
X82366190Y-162879322D01*
X82366190Y-162491428D01*
X82414203Y-162491428D01*
X82720520Y-162929025D01*
X82763224Y-162963169D01*
X82836240Y-162970737D01*
X82874890Y-162951204D01*
X82874144Y-162956397D01*
X82904638Y-163023170D01*
X82966392Y-163062857D01*
X83782971Y-163062857D01*
X83835432Y-163047453D01*
X83883503Y-162991976D01*
X83893950Y-162919317D01*
X83867390Y-162861159D01*
X83874144Y-162861159D01*
X83885677Y-162886413D01*
X83893499Y-162913052D01*
X83900686Y-162919280D01*
X83904638Y-162927932D01*
X83927994Y-162942942D01*
X83948976Y-162961123D01*
X83958390Y-162962476D01*
X83966392Y-162967619D01*
X83994156Y-162967619D01*
X84021635Y-162971570D01*
X84030287Y-162967619D01*
X84497257Y-162967619D01*
X84549718Y-162952215D01*
X84597789Y-162896738D01*
X84608236Y-162824079D01*
X84577742Y-162757306D01*
X84515988Y-162717619D01*
X84128095Y-162717619D01*
X84128095Y-162132924D01*
X84634804Y-162132924D01*
X84657954Y-162202584D01*
X84715091Y-162248671D01*
X84788074Y-162256550D01*
X84902123Y-162199525D01*
X84922673Y-162195055D01*
X84925714Y-162192014D01*
X84925714Y-162717619D01*
X84747028Y-162717619D01*
X84694567Y-162733023D01*
X84646496Y-162788500D01*
X84636049Y-162861159D01*
X84666543Y-162927932D01*
X84728297Y-162967619D01*
X85041775Y-162967619D01*
X85069254Y-162971570D01*
X85077906Y-162967619D01*
X85354400Y-162967619D01*
X85406861Y-162952215D01*
X85454932Y-162896738D01*
X85465379Y-162824079D01*
X85434885Y-162757306D01*
X85373131Y-162717619D01*
X85175714Y-162717619D01*
X85175714Y-161861665D01*
X85180973Y-161844808D01*
X85175714Y-161825717D01*
X85175714Y-161824647D01*
X85170949Y-161808422D01*
X85161478Y-161774037D01*
X85160630Y-161773277D01*
X85160310Y-161772186D01*
X85133380Y-161748851D01*
X85106817Y-161725041D01*
X85105692Y-161724860D01*
X85104833Y-161724115D01*
X85069570Y-161719044D01*
X85034344Y-161713374D01*
X85033299Y-161713829D01*
X85032174Y-161713668D01*
X84999741Y-161728479D01*
X84967067Y-161742743D01*
X84966436Y-161743689D01*
X84965401Y-161744162D01*
X84946124Y-161774157D01*
X84858334Y-161905841D01*
X84786194Y-161977982D01*
X84693024Y-162024567D01*
X84652990Y-162061806D01*
X84634804Y-162132924D01*
X84128095Y-162132924D01*
X84128095Y-161824647D01*
X84112691Y-161772186D01*
X84057214Y-161724115D01*
X83984555Y-161713668D01*
X83917782Y-161744162D01*
X83878095Y-161805916D01*
X83878095Y-162833680D01*
X83874144Y-162861159D01*
X83867390Y-162861159D01*
X83863456Y-162852544D01*
X83801702Y-162812857D01*
X82985123Y-162812857D01*
X82937096Y-162826958D01*
X82936070Y-162801005D01*
X82701810Y-162466347D01*
X82759265Y-162437620D01*
X82779815Y-162433150D01*
X82804170Y-162408794D01*
X82829390Y-162385336D01*
X82829994Y-162382970D01*
X82842306Y-162370659D01*
X82860388Y-162359920D01*
X82875793Y-162329109D01*
X82892298Y-162298883D01*
X82892123Y-162296448D01*
X82921414Y-162237868D01*
X82937618Y-162212655D01*
X82937618Y-162187109D01*
X82942142Y-162161968D01*
X82937618Y-162151060D01*
X82937618Y-162039816D01*
X82940835Y-162010021D01*
X82929411Y-161987173D01*
X82922214Y-161962662D01*
X82913288Y-161954928D01*
X82883810Y-161895972D01*
X82879340Y-161875421D01*
X82854979Y-161851060D01*
X82831526Y-161825847D01*
X82829160Y-161825242D01*
X82816849Y-161812931D01*
X82806110Y-161794849D01*
X82775295Y-161779441D01*
X82745072Y-161762938D01*
X82742636Y-161763112D01*
X82684058Y-161733822D01*
X82658845Y-161717619D01*
X82633299Y-161717619D01*
X82608158Y-161713095D01*
X82597250Y-161717619D01*
X82250129Y-161717619D01*
X82222650Y-161713668D01*
X82197395Y-161725201D01*
X82170757Y-161733023D01*
X82164528Y-161740210D01*
X82155877Y-161744162D01*
X82140866Y-161767518D01*
X82122686Y-161788500D01*
X82121332Y-161797914D01*
X82116190Y-161805916D01*
X82116190Y-161833680D01*
X82112239Y-161861159D01*
X82116190Y-161869811D01*
X82116190Y-162357489D01*
X82112239Y-162384968D01*
X81937618Y-162384968D01*
X81937618Y-162196524D01*
X81942788Y-162181242D01*
X81937618Y-162160562D01*
X81937618Y-162157980D01*
X81933273Y-162143182D01*
X81886730Y-161957013D01*
X81879340Y-161923041D01*
X81864710Y-161908411D01*
X81854240Y-161890565D01*
X81839286Y-161882987D01*
X81769230Y-161812931D01*
X81758491Y-161794849D01*
X81727676Y-161779441D01*
X81697453Y-161762938D01*
X81695017Y-161763112D01*
X81636439Y-161733822D01*
X81611226Y-161717619D01*
X81585680Y-161717619D01*
X81560539Y-161713095D01*
X81549631Y-161717619D01*
X81390768Y-161717619D01*
X81360973Y-161714402D01*
X81338125Y-161725825D01*
X81313614Y-161733023D01*
X81305880Y-161741948D01*
X81246923Y-161771426D01*
X81226374Y-161775897D01*
X81202022Y-161800248D01*
X81176799Y-161823711D01*
X81176193Y-161826077D01*
X81106547Y-161895723D01*
X81081205Y-161919552D01*
X81076186Y-161939625D01*
X81066271Y-161957784D01*
X81067466Y-161974503D01*
X81029672Y-162125679D01*
X81020952Y-162139249D01*
X81020952Y-162160562D01*
X81020325Y-162163070D01*
X81020952Y-162178493D01*
X81020952Y-162488713D01*
X81015782Y-162503995D01*
X80699523Y-162503995D01*
X80699523Y-161967619D01*
X80878209Y-161967619D01*
X80930670Y-161952215D01*
X80978741Y-161896738D01*
X80989188Y-161824079D01*
X80958694Y-161757306D01*
X80896940Y-161717619D01*
X80583462Y-161717619D01*
X80555983Y-161713668D01*
X80547331Y-161717619D01*
X80270837Y-161717619D01*
X80218376Y-161733023D01*
X80170305Y-161788500D01*
X80159858Y-161861159D01*
X80007934Y-161861159D01*
X79959706Y-161812931D01*
X79948967Y-161794849D01*
X79918152Y-161779441D01*
X79887929Y-161762938D01*
X79885493Y-161763112D01*
X79826915Y-161733822D01*
X79801702Y-161717619D01*
X79776156Y-161717619D01*
X79751015Y-161713095D01*
X79740107Y-161717619D01*
X79581244Y-161717619D01*
X79551449Y-161714402D01*
X79528601Y-161725825D01*
X79504090Y-161733023D01*
X79496356Y-161741948D01*
X79437399Y-161771426D01*
X79416850Y-161775897D01*
X79392498Y-161800248D01*
X79367275Y-161823711D01*
X79366669Y-161826077D01*
X79297023Y-161895723D01*
X79271681Y-161919552D01*
X79266662Y-161939625D01*
X79256747Y-161957784D01*
X79257942Y-161974503D01*
X79220148Y-162125679D01*
X79211428Y-162139249D01*
X79211428Y-162160562D01*
X79210801Y-162163070D01*
X79211428Y-162178493D01*
X79211428Y-162488713D01*
X79206258Y-162503995D01*
X79032856Y-162503995D01*
X79032856Y-161852075D01*
X79036955Y-161825140D01*
X79025419Y-161799321D01*
X79017452Y-161772186D01*
X79010670Y-161766309D01*
X79007011Y-161758119D01*
X78983347Y-161742634D01*
X78961975Y-161724115D01*
X78953095Y-161722838D01*
X78945587Y-161717925D01*
X78917304Y-161717692D01*
X78889316Y-161713668D01*
X78881155Y-161717394D01*
X78872183Y-161717321D01*
X78848265Y-161732415D01*
X78822543Y-161744162D01*
X78817693Y-161751708D01*
X78810104Y-161756498D01*
X78798142Y-161782129D01*
X78782856Y-161805916D01*
X78782856Y-161814887D01*
X78574522Y-162261315D01*
X78358461Y-161798325D01*
X78350786Y-161772186D01*
X78329415Y-161753668D01*
X78310719Y-161732447D01*
X78302089Y-161729990D01*
X78295309Y-161724115D01*
X78267315Y-161720090D01*
X78240118Y-161712347D01*
X78231531Y-161714945D01*
X78222650Y-161713668D01*
X78196924Y-161725416D01*
X78169858Y-161733606D01*
X78164038Y-161740434D01*
X78155877Y-161744162D01*
X78140586Y-161767954D01*
X78122245Y-161789477D01*
X78121041Y-161798367D01*
X78116190Y-161805916D01*
X78116190Y-161834198D01*
X78112396Y-161862220D01*
X77272738Y-161862220D01*
X77272738Y-161049643D01*
X86257262Y-161049643D01*
X86257262Y-163710357D01*
G37*
D11*
X97422619Y-140361666D02*
X96946428Y-140694999D01*
X97422619Y-140933094D02*
X96422619Y-140933094D01*
X96422619Y-140933094D02*
X96422619Y-140552142D01*
X96422619Y-140552142D02*
X96470238Y-140456904D01*
X96470238Y-140456904D02*
X96517857Y-140409285D01*
X96517857Y-140409285D02*
X96613095Y-140361666D01*
X96613095Y-140361666D02*
X96755952Y-140361666D01*
X96755952Y-140361666D02*
X96851190Y-140409285D01*
X96851190Y-140409285D02*
X96898809Y-140456904D01*
X96898809Y-140456904D02*
X96946428Y-140552142D01*
X96946428Y-140552142D02*
X96946428Y-140933094D01*
X96422619Y-140028332D02*
X96422619Y-139409285D01*
X96422619Y-139409285D02*
X96803571Y-139742618D01*
X96803571Y-139742618D02*
X96803571Y-139599761D01*
X96803571Y-139599761D02*
X96851190Y-139504523D01*
X96851190Y-139504523D02*
X96898809Y-139456904D01*
X96898809Y-139456904D02*
X96994047Y-139409285D01*
X96994047Y-139409285D02*
X97232142Y-139409285D01*
X97232142Y-139409285D02*
X97327380Y-139456904D01*
X97327380Y-139456904D02*
X97375000Y-139504523D01*
X97375000Y-139504523D02*
X97422619Y-139599761D01*
X97422619Y-139599761D02*
X97422619Y-139885475D01*
X97422619Y-139885475D02*
X97375000Y-139980713D01*
X97375000Y-139980713D02*
X97327380Y-140028332D01*
X107152619Y-169001666D02*
X106676428Y-169334999D01*
X107152619Y-169573094D02*
X106152619Y-169573094D01*
X106152619Y-169573094D02*
X106152619Y-169192142D01*
X106152619Y-169192142D02*
X106200238Y-169096904D01*
X106200238Y-169096904D02*
X106247857Y-169049285D01*
X106247857Y-169049285D02*
X106343095Y-169001666D01*
X106343095Y-169001666D02*
X106485952Y-169001666D01*
X106485952Y-169001666D02*
X106581190Y-169049285D01*
X106581190Y-169049285D02*
X106628809Y-169096904D01*
X106628809Y-169096904D02*
X106676428Y-169192142D01*
X106676428Y-169192142D02*
X106676428Y-169573094D01*
X107152619Y-168049285D02*
X107152619Y-168620713D01*
X107152619Y-168334999D02*
X106152619Y-168334999D01*
X106152619Y-168334999D02*
X106295476Y-168430237D01*
X106295476Y-168430237D02*
X106390714Y-168525475D01*
X106390714Y-168525475D02*
X106438333Y-168620713D01*
X97823333Y-143362619D02*
X97490000Y-142886428D01*
X97251905Y-143362619D02*
X97251905Y-142362619D01*
X97251905Y-142362619D02*
X97632857Y-142362619D01*
X97632857Y-142362619D02*
X97728095Y-142410238D01*
X97728095Y-142410238D02*
X97775714Y-142457857D01*
X97775714Y-142457857D02*
X97823333Y-142553095D01*
X97823333Y-142553095D02*
X97823333Y-142695952D01*
X97823333Y-142695952D02*
X97775714Y-142791190D01*
X97775714Y-142791190D02*
X97728095Y-142838809D01*
X97728095Y-142838809D02*
X97632857Y-142886428D01*
X97632857Y-142886428D02*
X97251905Y-142886428D01*
X98204286Y-142457857D02*
X98251905Y-142410238D01*
X98251905Y-142410238D02*
X98347143Y-142362619D01*
X98347143Y-142362619D02*
X98585238Y-142362619D01*
X98585238Y-142362619D02*
X98680476Y-142410238D01*
X98680476Y-142410238D02*
X98728095Y-142457857D01*
X98728095Y-142457857D02*
X98775714Y-142553095D01*
X98775714Y-142553095D02*
X98775714Y-142648333D01*
X98775714Y-142648333D02*
X98728095Y-142791190D01*
X98728095Y-142791190D02*
X98156667Y-143362619D01*
X98156667Y-143362619D02*
X98775714Y-143362619D01*
X77347142Y-144897380D02*
X77299523Y-144945000D01*
X77299523Y-144945000D02*
X77156666Y-144992619D01*
X77156666Y-144992619D02*
X77061428Y-144992619D01*
X77061428Y-144992619D02*
X76918571Y-144945000D01*
X76918571Y-144945000D02*
X76823333Y-144849761D01*
X76823333Y-144849761D02*
X76775714Y-144754523D01*
X76775714Y-144754523D02*
X76728095Y-144564047D01*
X76728095Y-144564047D02*
X76728095Y-144421190D01*
X76728095Y-144421190D02*
X76775714Y-144230714D01*
X76775714Y-144230714D02*
X76823333Y-144135476D01*
X76823333Y-144135476D02*
X76918571Y-144040238D01*
X76918571Y-144040238D02*
X77061428Y-143992619D01*
X77061428Y-143992619D02*
X77156666Y-143992619D01*
X77156666Y-143992619D02*
X77299523Y-144040238D01*
X77299523Y-144040238D02*
X77347142Y-144087857D01*
X78299523Y-144992619D02*
X77728095Y-144992619D01*
X78013809Y-144992619D02*
X78013809Y-143992619D01*
X78013809Y-143992619D02*
X77918571Y-144135476D01*
X77918571Y-144135476D02*
X77823333Y-144230714D01*
X77823333Y-144230714D02*
X77728095Y-144278333D01*
X78680476Y-144087857D02*
X78728095Y-144040238D01*
X78728095Y-144040238D02*
X78823333Y-143992619D01*
X78823333Y-143992619D02*
X79061428Y-143992619D01*
X79061428Y-143992619D02*
X79156666Y-144040238D01*
X79156666Y-144040238D02*
X79204285Y-144087857D01*
X79204285Y-144087857D02*
X79251904Y-144183095D01*
X79251904Y-144183095D02*
X79251904Y-144278333D01*
X79251904Y-144278333D02*
X79204285Y-144421190D01*
X79204285Y-144421190D02*
X78632857Y-144992619D01*
X78632857Y-144992619D02*
X79251904Y-144992619D01*
D12*
G36*
X113659289Y-166062970D02*
G01*
X113715700Y-166119381D01*
X113751190Y-166261340D01*
X113751190Y-166563897D01*
X113715700Y-166705855D01*
X113659286Y-166762269D01*
X113608587Y-166787619D01*
X113477127Y-166787619D01*
X113426426Y-166762268D01*
X113370013Y-166705855D01*
X113334524Y-166563897D01*
X113334524Y-166261340D01*
X113370014Y-166119381D01*
X113426426Y-166062969D01*
X113477127Y-166037619D01*
X113608587Y-166037619D01*
X113659289Y-166062970D01*
G37*
G36*
X112611670Y-166062970D02*
G01*
X112668081Y-166119381D01*
X112703571Y-166261340D01*
X112703571Y-166563897D01*
X112668081Y-166705855D01*
X112611667Y-166762269D01*
X112560968Y-166787619D01*
X112429508Y-166787619D01*
X112378807Y-166762268D01*
X112322394Y-166705855D01*
X112286905Y-166563897D01*
X112286905Y-166261340D01*
X112322395Y-166119381D01*
X112378807Y-166062969D01*
X112429508Y-166037619D01*
X112560968Y-166037619D01*
X112611670Y-166062970D01*
G37*
G36*
X111618190Y-166545681D02*
G01*
X111630601Y-166558092D01*
X111655952Y-166608793D01*
X111655952Y-166692634D01*
X111630600Y-166743335D01*
X111611668Y-166762268D01*
X111560968Y-166787619D01*
X111334524Y-166787619D01*
X111334524Y-166513809D01*
X111522573Y-166513809D01*
X111618190Y-166545681D01*
G37*
G36*
X111564050Y-166062970D02*
G01*
X111582982Y-166081902D01*
X111608333Y-166132603D01*
X111608333Y-166168825D01*
X111582981Y-166219526D01*
X111564050Y-166238458D01*
X111515492Y-166262737D01*
X111510696Y-166262564D01*
X111508596Y-166263809D01*
X111334524Y-166263809D01*
X111334524Y-166037619D01*
X111513349Y-166037619D01*
X111564050Y-166062970D01*
G37*
G36*
X115558929Y-167780357D02*
G01*
X110241072Y-167780357D01*
X110241072Y-166931159D01*
X111080573Y-166931159D01*
X111092106Y-166956413D01*
X111099928Y-166983052D01*
X111107115Y-166989280D01*
X111111067Y-166997932D01*
X111134423Y-167012942D01*
X111155405Y-167031123D01*
X111164819Y-167032476D01*
X111172821Y-167037619D01*
X111200585Y-167037619D01*
X111228064Y-167041570D01*
X111236716Y-167037619D01*
X111583751Y-167037619D01*
X111613550Y-167040836D01*
X111636397Y-167029412D01*
X111660909Y-167022215D01*
X111668642Y-167013289D01*
X111727597Y-166983812D01*
X111748151Y-166979341D01*
X111772516Y-166954974D01*
X111797724Y-166931527D01*
X111798328Y-166929161D01*
X111810640Y-166916849D01*
X111828722Y-166906110D01*
X111844128Y-166875297D01*
X111860633Y-166845071D01*
X111860458Y-166842636D01*
X111889748Y-166784058D01*
X111905952Y-166758845D01*
X111905952Y-166733299D01*
X111910476Y-166708158D01*
X111905952Y-166697250D01*
X111905952Y-166586006D01*
X111907249Y-166573995D01*
X112031735Y-166573995D01*
X112036905Y-166594675D01*
X112036905Y-166597257D01*
X112041249Y-166612054D01*
X112087789Y-166798210D01*
X112095182Y-166832196D01*
X112109813Y-166846827D01*
X112120283Y-166864672D01*
X112135234Y-166872248D01*
X112205291Y-166942305D01*
X112216032Y-166960389D01*
X112246842Y-166975794D01*
X112277069Y-166992300D01*
X112279505Y-166992125D01*
X112338083Y-167021415D01*
X112363297Y-167037619D01*
X112388843Y-167037619D01*
X112413984Y-167042143D01*
X112424892Y-167037619D01*
X112583751Y-167037619D01*
X112613550Y-167040836D01*
X112636397Y-167029412D01*
X112660909Y-167022215D01*
X112668642Y-167013289D01*
X112727598Y-166983811D01*
X112748150Y-166979341D01*
X112772509Y-166954981D01*
X112797724Y-166931527D01*
X112798328Y-166929161D01*
X112867979Y-166859510D01*
X112893318Y-166835685D01*
X112898336Y-166815611D01*
X112908252Y-166797452D01*
X112907056Y-166780732D01*
X112944850Y-166629557D01*
X112953571Y-166615988D01*
X112953571Y-166594675D01*
X112954198Y-166592167D01*
X112953571Y-166576744D01*
X112953571Y-166573995D01*
X113079354Y-166573995D01*
X113084524Y-166594675D01*
X113084524Y-166597257D01*
X113088868Y-166612054D01*
X113135408Y-166798210D01*
X113142801Y-166832196D01*
X113157432Y-166846827D01*
X113167902Y-166864672D01*
X113182853Y-166872248D01*
X113252910Y-166942305D01*
X113263651Y-166960389D01*
X113294461Y-166975794D01*
X113324688Y-166992300D01*
X113327124Y-166992125D01*
X113385702Y-167021415D01*
X113410916Y-167037619D01*
X113436462Y-167037619D01*
X113461603Y-167042143D01*
X113472511Y-167037619D01*
X113631370Y-167037619D01*
X113661169Y-167040836D01*
X113684016Y-167029412D01*
X113708528Y-167022215D01*
X113716261Y-167013289D01*
X113775217Y-166983811D01*
X113795769Y-166979341D01*
X113820128Y-166954981D01*
X113845343Y-166931527D01*
X113845947Y-166929161D01*
X113915598Y-166859510D01*
X113940937Y-166835685D01*
X113945955Y-166815611D01*
X113955871Y-166797452D01*
X113954675Y-166780732D01*
X113992469Y-166629557D01*
X114001190Y-166615988D01*
X114001190Y-166594675D01*
X114001817Y-166592167D01*
X114001190Y-166576744D01*
X114001190Y-166266524D01*
X114006360Y-166251242D01*
X114001190Y-166230562D01*
X114001190Y-166227980D01*
X113996845Y-166213182D01*
X113950302Y-166027013D01*
X113942912Y-165993041D01*
X113928282Y-165978411D01*
X113917812Y-165960565D01*
X113902858Y-165952987D01*
X113881030Y-165931159D01*
X114032954Y-165931159D01*
X114063448Y-165997932D01*
X114125202Y-166037619D01*
X114322619Y-166037619D01*
X114322619Y-166930591D01*
X114338023Y-166983052D01*
X114393500Y-167031123D01*
X114466159Y-167041570D01*
X114532932Y-167011076D01*
X114572619Y-166949322D01*
X114572619Y-166037619D01*
X114751305Y-166037619D01*
X114803766Y-166022215D01*
X114851837Y-165966738D01*
X114862284Y-165894079D01*
X114831790Y-165827306D01*
X114770036Y-165787619D01*
X114456558Y-165787619D01*
X114429079Y-165783668D01*
X114420427Y-165787619D01*
X114143933Y-165787619D01*
X114091472Y-165803023D01*
X114043401Y-165858500D01*
X114032954Y-165931159D01*
X113881030Y-165931159D01*
X113832802Y-165882931D01*
X113822063Y-165864849D01*
X113791248Y-165849441D01*
X113761025Y-165832938D01*
X113758589Y-165833112D01*
X113700011Y-165803822D01*
X113674798Y-165787619D01*
X113649252Y-165787619D01*
X113624111Y-165783095D01*
X113613203Y-165787619D01*
X113454340Y-165787619D01*
X113424545Y-165784402D01*
X113401697Y-165795825D01*
X113377186Y-165803023D01*
X113369452Y-165811948D01*
X113310495Y-165841426D01*
X113289946Y-165845897D01*
X113265594Y-165870248D01*
X113240371Y-165893711D01*
X113239765Y-165896077D01*
X113170119Y-165965723D01*
X113144777Y-165989552D01*
X113139758Y-166009625D01*
X113129843Y-166027784D01*
X113131038Y-166044503D01*
X113093244Y-166195679D01*
X113084524Y-166209249D01*
X113084524Y-166230562D01*
X113083897Y-166233070D01*
X113084524Y-166248493D01*
X113084524Y-166558713D01*
X113079354Y-166573995D01*
X112953571Y-166573995D01*
X112953571Y-166266524D01*
X112958741Y-166251242D01*
X112953571Y-166230562D01*
X112953571Y-166227980D01*
X112949226Y-166213182D01*
X112902683Y-166027013D01*
X112895293Y-165993041D01*
X112880663Y-165978411D01*
X112870193Y-165960565D01*
X112855239Y-165952987D01*
X112785183Y-165882931D01*
X112774444Y-165864849D01*
X112743629Y-165849441D01*
X112713406Y-165832938D01*
X112710970Y-165833112D01*
X112652392Y-165803822D01*
X112627179Y-165787619D01*
X112601633Y-165787619D01*
X112576492Y-165783095D01*
X112565584Y-165787619D01*
X112406721Y-165787619D01*
X112376926Y-165784402D01*
X112354078Y-165795825D01*
X112329567Y-165803023D01*
X112321833Y-165811948D01*
X112262876Y-165841426D01*
X112242327Y-165845897D01*
X112217975Y-165870248D01*
X112192752Y-165893711D01*
X112192146Y-165896077D01*
X112122500Y-165965723D01*
X112097158Y-165989552D01*
X112092139Y-166009625D01*
X112082224Y-166027784D01*
X112083419Y-166044503D01*
X112045625Y-166195679D01*
X112036905Y-166209249D01*
X112036905Y-166230562D01*
X112036278Y-166233070D01*
X112036905Y-166248493D01*
X112036905Y-166558713D01*
X112031735Y-166573995D01*
X111907249Y-166573995D01*
X111909169Y-166556211D01*
X111897745Y-166533363D01*
X111890548Y-166508852D01*
X111881622Y-166501118D01*
X111852144Y-166442162D01*
X111847674Y-166421611D01*
X111823313Y-166397250D01*
X111799860Y-166372037D01*
X111797494Y-166371432D01*
X111790189Y-166364127D01*
X111796508Y-166351490D01*
X111813013Y-166321264D01*
X111812838Y-166318829D01*
X111842129Y-166260249D01*
X111858333Y-166235036D01*
X111858333Y-166209490D01*
X111862857Y-166184349D01*
X111858333Y-166173441D01*
X111858333Y-166109816D01*
X111861550Y-166080021D01*
X111850126Y-166057173D01*
X111842929Y-166032662D01*
X111834003Y-166024928D01*
X111804525Y-165965972D01*
X111800055Y-165945421D01*
X111775694Y-165921060D01*
X111752241Y-165895847D01*
X111749875Y-165895242D01*
X111737564Y-165882931D01*
X111726825Y-165864849D01*
X111696010Y-165849441D01*
X111665787Y-165832938D01*
X111663351Y-165833112D01*
X111604773Y-165803822D01*
X111579560Y-165787619D01*
X111554014Y-165787619D01*
X111528873Y-165783095D01*
X111517965Y-165787619D01*
X111218463Y-165787619D01*
X111190984Y-165783668D01*
X111165729Y-165795201D01*
X111139091Y-165803023D01*
X111132862Y-165810210D01*
X111124211Y-165814162D01*
X111109200Y-165837518D01*
X111091020Y-165858500D01*
X111089666Y-165867914D01*
X111084524Y-165875916D01*
X111084524Y-165903680D01*
X111080573Y-165931159D01*
X111084524Y-165939811D01*
X111084524Y-166379870D01*
X111080573Y-166407349D01*
X111084524Y-166416001D01*
X111084524Y-166903680D01*
X111080573Y-166931159D01*
X110241072Y-166931159D01*
X110241072Y-165119643D01*
X115558929Y-165119643D01*
X115558929Y-167780357D01*
G37*
D11*
X82217618Y-140392619D02*
X81884285Y-139916428D01*
X81646190Y-140392619D02*
X81646190Y-139392619D01*
X81646190Y-139392619D02*
X82027142Y-139392619D01*
X82027142Y-139392619D02*
X82122380Y-139440238D01*
X82122380Y-139440238D02*
X82169999Y-139487857D01*
X82169999Y-139487857D02*
X82217618Y-139583095D01*
X82217618Y-139583095D02*
X82217618Y-139725952D01*
X82217618Y-139725952D02*
X82169999Y-139821190D01*
X82169999Y-139821190D02*
X82122380Y-139868809D01*
X82122380Y-139868809D02*
X82027142Y-139916428D01*
X82027142Y-139916428D02*
X81646190Y-139916428D01*
X82646190Y-139868809D02*
X82979523Y-139868809D01*
X83122380Y-140392619D02*
X82646190Y-140392619D01*
X82646190Y-140392619D02*
X82646190Y-139392619D01*
X82646190Y-139392619D02*
X83122380Y-139392619D01*
X83503333Y-140345000D02*
X83646190Y-140392619D01*
X83646190Y-140392619D02*
X83884285Y-140392619D01*
X83884285Y-140392619D02*
X83979523Y-140345000D01*
X83979523Y-140345000D02*
X84027142Y-140297380D01*
X84027142Y-140297380D02*
X84074761Y-140202142D01*
X84074761Y-140202142D02*
X84074761Y-140106904D01*
X84074761Y-140106904D02*
X84027142Y-140011666D01*
X84027142Y-140011666D02*
X83979523Y-139964047D01*
X83979523Y-139964047D02*
X83884285Y-139916428D01*
X83884285Y-139916428D02*
X83693809Y-139868809D01*
X83693809Y-139868809D02*
X83598571Y-139821190D01*
X83598571Y-139821190D02*
X83550952Y-139773571D01*
X83550952Y-139773571D02*
X83503333Y-139678333D01*
X83503333Y-139678333D02*
X83503333Y-139583095D01*
X83503333Y-139583095D02*
X83550952Y-139487857D01*
X83550952Y-139487857D02*
X83598571Y-139440238D01*
X83598571Y-139440238D02*
X83693809Y-139392619D01*
X83693809Y-139392619D02*
X83931904Y-139392619D01*
X83931904Y-139392619D02*
X84074761Y-139440238D01*
X84503333Y-139868809D02*
X84836666Y-139868809D01*
X84979523Y-140392619D02*
X84503333Y-140392619D01*
X84503333Y-140392619D02*
X84503333Y-139392619D01*
X84503333Y-139392619D02*
X84979523Y-139392619D01*
X85265238Y-139392619D02*
X85836666Y-139392619D01*
X85550952Y-140392619D02*
X85550952Y-139392619D01*
D12*
G36*
X100584667Y-166391904D02*
G01*
X100455334Y-166391904D01*
X100520000Y-166197904D01*
X100584667Y-166391904D01*
G37*
G36*
X97684051Y-165952970D02*
G01*
X97740462Y-166009381D01*
X97775952Y-166151340D01*
X97775952Y-166453897D01*
X97740462Y-166595855D01*
X97684048Y-166652269D01*
X97633349Y-166677619D01*
X97501889Y-166677619D01*
X97451188Y-166652268D01*
X97394775Y-166595855D01*
X97359286Y-166453897D01*
X97359286Y-166151340D01*
X97394776Y-166009381D01*
X97451188Y-165952969D01*
X97501889Y-165927619D01*
X97633349Y-165927619D01*
X97684051Y-165952970D01*
G37*
G36*
X103636431Y-165952970D02*
G01*
X103655363Y-165971902D01*
X103680714Y-166022603D01*
X103680714Y-166106444D01*
X103655362Y-166157145D01*
X103636431Y-166176077D01*
X103585730Y-166201428D01*
X103478836Y-166201428D01*
X103448760Y-166198311D01*
X103442592Y-166201428D01*
X103359286Y-166201428D01*
X103359286Y-165927619D01*
X103585730Y-165927619D01*
X103636431Y-165952970D01*
G37*
G36*
X99731669Y-165952970D02*
G01*
X99750601Y-165971902D01*
X99775952Y-166022603D01*
X99775952Y-166106444D01*
X99750600Y-166157145D01*
X99731669Y-166176077D01*
X99680968Y-166201428D01*
X99574074Y-166201428D01*
X99543998Y-166198311D01*
X99537830Y-166201428D01*
X99454524Y-166201428D01*
X99454524Y-165927619D01*
X99680968Y-165927619D01*
X99731669Y-165952970D01*
G37*
G36*
X96684050Y-165952970D02*
G01*
X96702982Y-165971902D01*
X96728333Y-166022603D01*
X96728333Y-166106444D01*
X96702981Y-166157145D01*
X96684050Y-166176077D01*
X96633349Y-166201428D01*
X96526455Y-166201428D01*
X96496379Y-166198311D01*
X96490211Y-166201428D01*
X96406905Y-166201428D01*
X96406905Y-165927619D01*
X96633349Y-165927619D01*
X96684050Y-165952970D01*
G37*
G36*
X95684050Y-165952970D02*
G01*
X95702982Y-165971902D01*
X95728333Y-166022603D01*
X95728333Y-166106444D01*
X95702981Y-166157145D01*
X95684050Y-166176077D01*
X95633349Y-166201428D01*
X95406905Y-166201428D01*
X95406905Y-165927619D01*
X95633349Y-165927619D01*
X95684050Y-165952970D01*
G37*
G36*
X104726548Y-167670357D02*
G01*
X94313453Y-167670357D01*
X94313453Y-166344968D01*
X95152954Y-166344968D01*
X95156905Y-166353620D01*
X95156905Y-166820591D01*
X95172309Y-166873052D01*
X95227786Y-166921123D01*
X95300445Y-166931570D01*
X95367218Y-166901076D01*
X95406905Y-166839322D01*
X95406905Y-166451428D01*
X95656132Y-166451428D01*
X95685931Y-166454645D01*
X95708778Y-166443221D01*
X95733290Y-166436024D01*
X95741023Y-166427098D01*
X95799980Y-166397620D01*
X95820530Y-166393150D01*
X95844885Y-166368794D01*
X95870105Y-166345336D01*
X95870199Y-166344968D01*
X96152954Y-166344968D01*
X96156905Y-166353620D01*
X96156905Y-166820591D01*
X96172309Y-166873052D01*
X96227786Y-166921123D01*
X96300445Y-166931570D01*
X96367218Y-166901076D01*
X96406905Y-166839322D01*
X96406905Y-166451428D01*
X96454918Y-166451428D01*
X96761235Y-166889025D01*
X96803939Y-166923169D01*
X96876955Y-166930737D01*
X96942470Y-166897628D01*
X96979686Y-166834355D01*
X96976785Y-166761005D01*
X96768879Y-166463995D01*
X97104116Y-166463995D01*
X97109286Y-166484675D01*
X97109286Y-166487257D01*
X97113630Y-166502054D01*
X97160170Y-166688210D01*
X97167563Y-166722196D01*
X97182194Y-166736827D01*
X97192664Y-166754672D01*
X97207615Y-166762248D01*
X97277672Y-166832305D01*
X97288413Y-166850389D01*
X97319223Y-166865794D01*
X97349450Y-166882300D01*
X97351886Y-166882125D01*
X97410464Y-166911415D01*
X97435678Y-166927619D01*
X97461224Y-166927619D01*
X97486365Y-166932143D01*
X97497273Y-166927619D01*
X97656132Y-166927619D01*
X97685931Y-166930836D01*
X97708778Y-166919412D01*
X97733290Y-166912215D01*
X97741023Y-166903289D01*
X97799979Y-166873811D01*
X97820531Y-166869341D01*
X97844890Y-166844981D01*
X97870105Y-166821527D01*
X97870709Y-166819161D01*
X97940360Y-166749510D01*
X97965699Y-166725685D01*
X97970717Y-166705611D01*
X97980633Y-166687452D01*
X97979437Y-166670732D01*
X98017231Y-166519557D01*
X98025952Y-166505988D01*
X98025952Y-166484675D01*
X98026579Y-166482167D01*
X98025952Y-166466744D01*
X98025952Y-166368757D01*
X98151735Y-166368757D01*
X98156905Y-166389437D01*
X98156905Y-166392019D01*
X98161249Y-166406816D01*
X98202856Y-166573242D01*
X98201307Y-166587597D01*
X98211583Y-166608150D01*
X98212615Y-166612275D01*
X98219592Y-166624167D01*
X98258330Y-166701643D01*
X98262801Y-166722196D01*
X98287166Y-166746561D01*
X98310616Y-166771771D01*
X98312980Y-166772375D01*
X98379233Y-166838628D01*
X98398033Y-166861979D01*
X98422268Y-166870057D01*
X98444688Y-166882300D01*
X98456468Y-166881457D01*
X98560841Y-166916247D01*
X98578535Y-166927619D01*
X98612990Y-166927619D01*
X98647399Y-166928864D01*
X98649499Y-166927619D01*
X98694805Y-166927619D01*
X98715185Y-166932811D01*
X98747864Y-166921917D01*
X98780909Y-166912215D01*
X98782507Y-166910369D01*
X98886477Y-166875713D01*
X98915770Y-166869341D01*
X98933836Y-166851274D01*
X98954808Y-166836699D01*
X98959321Y-166825787D01*
X98973394Y-166811714D01*
X98986265Y-166805837D01*
X98998843Y-166786264D01*
X99002049Y-166783059D01*
X99008521Y-166771205D01*
X99025952Y-166744083D01*
X99025952Y-166739283D01*
X99028252Y-166735071D01*
X99025952Y-166702921D01*
X99025952Y-166382986D01*
X99029903Y-166355507D01*
X99025090Y-166344968D01*
X99200573Y-166344968D01*
X99204524Y-166353620D01*
X99204524Y-166820591D01*
X99219928Y-166873052D01*
X99275405Y-166921123D01*
X99348064Y-166931570D01*
X99414837Y-166901076D01*
X99454524Y-166839322D01*
X99454524Y-166451428D01*
X99502537Y-166451428D01*
X99808854Y-166889025D01*
X99851558Y-166923169D01*
X99924574Y-166930737D01*
X99990089Y-166897628D01*
X100027055Y-166834780D01*
X100060422Y-166834780D01*
X100097851Y-166897928D01*
X100163478Y-166930816D01*
X100236467Y-166923002D01*
X100293646Y-166876967D01*
X100372000Y-166641904D01*
X100668000Y-166641904D01*
X100740431Y-166859197D01*
X100771634Y-166904094D01*
X100839465Y-166932155D01*
X100911699Y-166919089D01*
X100965403Y-166869045D01*
X100983525Y-166797910D01*
X100886030Y-166505426D01*
X100887046Y-166498364D01*
X100874570Y-166471045D01*
X100658295Y-165822220D01*
X101057873Y-165822220D01*
X101061667Y-165830350D01*
X101061667Y-166820591D01*
X101077071Y-166873052D01*
X101132548Y-166921123D01*
X101205207Y-166931570D01*
X101271980Y-166901076D01*
X101311667Y-166839322D01*
X101311667Y-166366065D01*
X101406310Y-166568873D01*
X101420845Y-166601404D01*
X101437394Y-166612233D01*
X101450471Y-166627076D01*
X101467474Y-166631917D01*
X101482269Y-166641598D01*
X101502048Y-166641760D01*
X101521072Y-166647177D01*
X101537994Y-166642056D01*
X101555673Y-166642202D01*
X101572399Y-166631645D01*
X101591332Y-166625917D01*
X101602800Y-166612460D01*
X101617752Y-166603024D01*
X101626116Y-166585100D01*
X101638945Y-166570047D01*
X101641317Y-166552527D01*
X101728333Y-166366064D01*
X101728333Y-166820591D01*
X101743737Y-166873052D01*
X101799214Y-166921123D01*
X101871873Y-166931570D01*
X101938646Y-166901076D01*
X101978333Y-166839322D01*
X101978333Y-166821159D01*
X102200573Y-166821159D01*
X102212106Y-166846413D01*
X102219928Y-166873052D01*
X102227115Y-166879280D01*
X102231067Y-166887932D01*
X102254423Y-166902942D01*
X102275405Y-166921123D01*
X102284819Y-166922476D01*
X102292821Y-166927619D01*
X102320585Y-166927619D01*
X102348064Y-166931570D01*
X102356716Y-166927619D01*
X102823686Y-166927619D01*
X102876147Y-166912215D01*
X102924218Y-166856738D01*
X102934665Y-166784079D01*
X102904171Y-166717306D01*
X102842417Y-166677619D01*
X102454524Y-166677619D01*
X102454524Y-166403809D01*
X102680829Y-166403809D01*
X102733290Y-166388405D01*
X102770928Y-166344968D01*
X103105335Y-166344968D01*
X103109286Y-166353620D01*
X103109286Y-166820591D01*
X103124690Y-166873052D01*
X103180167Y-166921123D01*
X103252826Y-166931570D01*
X103319599Y-166901076D01*
X103359286Y-166839322D01*
X103359286Y-166451428D01*
X103407299Y-166451428D01*
X103713616Y-166889025D01*
X103756320Y-166923169D01*
X103829336Y-166930737D01*
X103894851Y-166897628D01*
X103932067Y-166834355D01*
X103929166Y-166761005D01*
X103694906Y-166426347D01*
X103752361Y-166397620D01*
X103772911Y-166393150D01*
X103797266Y-166368794D01*
X103822486Y-166345336D01*
X103823090Y-166342970D01*
X103835402Y-166330659D01*
X103853484Y-166319920D01*
X103868889Y-166289109D01*
X103885394Y-166258883D01*
X103885219Y-166256448D01*
X103914510Y-166197868D01*
X103930714Y-166172655D01*
X103930714Y-166147109D01*
X103935238Y-166121968D01*
X103930714Y-166111060D01*
X103930714Y-165999816D01*
X103933931Y-165970021D01*
X103922507Y-165947173D01*
X103915310Y-165922662D01*
X103906384Y-165914928D01*
X103876906Y-165855972D01*
X103872436Y-165835421D01*
X103848075Y-165811060D01*
X103824622Y-165785847D01*
X103822256Y-165785242D01*
X103809945Y-165772931D01*
X103799206Y-165754849D01*
X103768391Y-165739441D01*
X103738168Y-165722938D01*
X103735732Y-165723112D01*
X103677154Y-165693822D01*
X103651941Y-165677619D01*
X103626395Y-165677619D01*
X103601254Y-165673095D01*
X103590346Y-165677619D01*
X103243225Y-165677619D01*
X103215746Y-165673668D01*
X103190491Y-165685201D01*
X103163853Y-165693023D01*
X103157624Y-165700210D01*
X103148973Y-165704162D01*
X103133962Y-165727518D01*
X103115782Y-165748500D01*
X103114428Y-165757914D01*
X103109286Y-165765916D01*
X103109286Y-165793680D01*
X103105335Y-165821159D01*
X103109286Y-165829811D01*
X103109286Y-166317489D01*
X103105335Y-166344968D01*
X102770928Y-166344968D01*
X102781361Y-166332928D01*
X102791808Y-166260269D01*
X102761314Y-166193496D01*
X102699560Y-166153809D01*
X102454524Y-166153809D01*
X102454524Y-165927619D01*
X102823686Y-165927619D01*
X102876147Y-165912215D01*
X102924218Y-165856738D01*
X102934665Y-165784079D01*
X102904171Y-165717306D01*
X102842417Y-165677619D01*
X102338463Y-165677619D01*
X102310984Y-165673668D01*
X102285729Y-165685201D01*
X102259091Y-165693023D01*
X102252862Y-165700210D01*
X102244211Y-165704162D01*
X102229200Y-165727518D01*
X102211020Y-165748500D01*
X102209666Y-165757914D01*
X102204524Y-165765916D01*
X102204524Y-165793680D01*
X102200573Y-165821159D01*
X102204524Y-165829811D01*
X102204524Y-166269870D01*
X102200573Y-166297349D01*
X102204524Y-166306001D01*
X102204524Y-166793680D01*
X102200573Y-166821159D01*
X101978333Y-166821159D01*
X101978333Y-165812075D01*
X101982432Y-165785140D01*
X101970896Y-165759321D01*
X101962929Y-165732186D01*
X101956147Y-165726309D01*
X101952488Y-165718119D01*
X101928824Y-165702634D01*
X101907452Y-165684115D01*
X101898572Y-165682838D01*
X101891064Y-165677925D01*
X101862781Y-165677692D01*
X101834793Y-165673668D01*
X101826632Y-165677394D01*
X101817660Y-165677321D01*
X101793742Y-165692415D01*
X101768020Y-165704162D01*
X101763170Y-165711708D01*
X101755581Y-165716498D01*
X101743619Y-165742129D01*
X101728333Y-165765916D01*
X101728333Y-165774887D01*
X101519999Y-166221315D01*
X101303938Y-165758325D01*
X101296263Y-165732186D01*
X101274892Y-165713668D01*
X101256196Y-165692447D01*
X101247566Y-165689990D01*
X101240786Y-165684115D01*
X101212792Y-165680090D01*
X101185595Y-165672347D01*
X101177008Y-165674945D01*
X101168127Y-165673668D01*
X101142401Y-165685416D01*
X101115335Y-165693606D01*
X101109515Y-165700434D01*
X101101354Y-165704162D01*
X101086063Y-165727954D01*
X101067722Y-165749477D01*
X101066518Y-165758367D01*
X101061667Y-165765916D01*
X101061667Y-165794198D01*
X101057873Y-165822220D01*
X100658295Y-165822220D01*
X100645735Y-165784541D01*
X100646245Y-165770458D01*
X100634353Y-165750395D01*
X100632902Y-165746041D01*
X100625223Y-165734992D01*
X100608816Y-165707311D01*
X100604473Y-165705134D01*
X100601699Y-165701143D01*
X100571949Y-165688836D01*
X100543189Y-165674423D01*
X100538359Y-165674940D01*
X100533868Y-165673082D01*
X100502187Y-165678812D01*
X100470200Y-165682237D01*
X100466416Y-165685282D01*
X100461634Y-165686148D01*
X100438086Y-165708090D01*
X100413021Y-165728271D01*
X100411484Y-165732880D01*
X100407930Y-165736193D01*
X100399985Y-165767376D01*
X100171172Y-166453816D01*
X100163401Y-166462785D01*
X100159773Y-166488012D01*
X100062398Y-166780140D01*
X100060422Y-166834780D01*
X100027055Y-166834780D01*
X100027305Y-166834355D01*
X100024404Y-166761005D01*
X99790144Y-166426347D01*
X99847599Y-166397620D01*
X99868149Y-166393150D01*
X99892504Y-166368794D01*
X99917724Y-166345336D01*
X99918328Y-166342970D01*
X99930640Y-166330659D01*
X99948722Y-166319920D01*
X99964127Y-166289109D01*
X99980632Y-166258883D01*
X99980457Y-166256448D01*
X100009748Y-166197868D01*
X100025952Y-166172655D01*
X100025952Y-166147109D01*
X100030476Y-166121968D01*
X100025952Y-166111060D01*
X100025952Y-165999816D01*
X100029169Y-165970021D01*
X100017745Y-165947173D01*
X100010548Y-165922662D01*
X100001622Y-165914928D01*
X99972144Y-165855972D01*
X99967674Y-165835421D01*
X99943313Y-165811060D01*
X99919860Y-165785847D01*
X99917494Y-165785242D01*
X99905183Y-165772931D01*
X99894444Y-165754849D01*
X99863629Y-165739441D01*
X99833406Y-165722938D01*
X99830970Y-165723112D01*
X99772392Y-165693822D01*
X99747179Y-165677619D01*
X99721633Y-165677619D01*
X99696492Y-165673095D01*
X99685584Y-165677619D01*
X99338463Y-165677619D01*
X99310984Y-165673668D01*
X99285729Y-165685201D01*
X99259091Y-165693023D01*
X99252862Y-165700210D01*
X99244211Y-165704162D01*
X99229200Y-165727518D01*
X99211020Y-165748500D01*
X99209666Y-165757914D01*
X99204524Y-165765916D01*
X99204524Y-165793680D01*
X99200573Y-165821159D01*
X99204524Y-165829811D01*
X99204524Y-166317489D01*
X99200573Y-166344968D01*
X99025090Y-166344968D01*
X99018369Y-166330252D01*
X99010548Y-166303614D01*
X99003360Y-166297385D01*
X98999409Y-166288734D01*
X98976052Y-166273723D01*
X98955071Y-166255543D01*
X98945656Y-166254189D01*
X98937655Y-166249047D01*
X98909891Y-166249047D01*
X98882412Y-166245096D01*
X98873760Y-166249047D01*
X98692504Y-166249047D01*
X98640043Y-166264451D01*
X98591972Y-166319928D01*
X98581525Y-166392587D01*
X98612019Y-166459360D01*
X98673773Y-166499047D01*
X98775952Y-166499047D01*
X98775952Y-166649032D01*
X98690192Y-166677619D01*
X98635523Y-166677619D01*
X98539904Y-166645745D01*
X98479874Y-166585715D01*
X98447464Y-166520896D01*
X98406905Y-166358659D01*
X98406905Y-166246578D01*
X98447464Y-166084340D01*
X98479875Y-166019519D01*
X98539903Y-165959491D01*
X98635522Y-165927619D01*
X98728587Y-165927619D01*
X98813506Y-165970079D01*
X98867317Y-165979762D01*
X98935123Y-165951640D01*
X98976961Y-165891324D01*
X98979548Y-165817963D01*
X98942063Y-165754849D01*
X98820011Y-165693822D01*
X98794798Y-165677619D01*
X98769252Y-165677619D01*
X98744111Y-165673095D01*
X98733203Y-165677619D01*
X98630909Y-165677619D01*
X98610529Y-165672427D01*
X98577849Y-165683320D01*
X98544805Y-165693023D01*
X98543206Y-165694868D01*
X98439233Y-165729525D01*
X98409946Y-165735897D01*
X98391883Y-165753959D01*
X98370905Y-165768539D01*
X98366389Y-165779453D01*
X98299836Y-165846006D01*
X98281754Y-165856746D01*
X98266346Y-165887560D01*
X98249843Y-165917784D01*
X98250017Y-165920219D01*
X98227676Y-165964899D01*
X98217158Y-165974790D01*
X98211584Y-165997084D01*
X98209683Y-166000887D01*
X98207241Y-166014457D01*
X98165625Y-166180917D01*
X98156905Y-166194487D01*
X98156905Y-166215800D01*
X98156278Y-166218308D01*
X98156905Y-166233731D01*
X98156905Y-166353475D01*
X98151735Y-166368757D01*
X98025952Y-166368757D01*
X98025952Y-166156524D01*
X98031122Y-166141242D01*
X98025952Y-166120562D01*
X98025952Y-166117980D01*
X98021607Y-166103182D01*
X97975064Y-165917013D01*
X97967674Y-165883041D01*
X97953044Y-165868411D01*
X97942574Y-165850565D01*
X97927620Y-165842987D01*
X97857564Y-165772931D01*
X97846825Y-165754849D01*
X97816010Y-165739441D01*
X97785787Y-165722938D01*
X97783351Y-165723112D01*
X97724773Y-165693822D01*
X97699560Y-165677619D01*
X97674014Y-165677619D01*
X97648873Y-165673095D01*
X97637965Y-165677619D01*
X97479102Y-165677619D01*
X97449307Y-165674402D01*
X97426459Y-165685825D01*
X97401948Y-165693023D01*
X97394214Y-165701948D01*
X97335257Y-165731426D01*
X97314708Y-165735897D01*
X97290356Y-165760248D01*
X97265133Y-165783711D01*
X97264527Y-165786077D01*
X97194881Y-165855723D01*
X97169539Y-165879552D01*
X97164520Y-165899625D01*
X97154605Y-165917784D01*
X97155800Y-165934503D01*
X97118006Y-166085679D01*
X97109286Y-166099249D01*
X97109286Y-166120562D01*
X97108659Y-166123070D01*
X97109286Y-166138493D01*
X97109286Y-166448713D01*
X97104116Y-166463995D01*
X96768879Y-166463995D01*
X96742525Y-166426347D01*
X96799980Y-166397620D01*
X96820530Y-166393150D01*
X96844885Y-166368794D01*
X96870105Y-166345336D01*
X96870709Y-166342970D01*
X96883021Y-166330659D01*
X96901103Y-166319920D01*
X96916508Y-166289109D01*
X96933013Y-166258883D01*
X96932838Y-166256448D01*
X96962129Y-166197868D01*
X96978333Y-166172655D01*
X96978333Y-166147109D01*
X96982857Y-166121968D01*
X96978333Y-166111060D01*
X96978333Y-165999816D01*
X96981550Y-165970021D01*
X96970126Y-165947173D01*
X96962929Y-165922662D01*
X96954003Y-165914928D01*
X96924525Y-165855972D01*
X96920055Y-165835421D01*
X96895694Y-165811060D01*
X96872241Y-165785847D01*
X96869875Y-165785242D01*
X96857564Y-165772931D01*
X96846825Y-165754849D01*
X96816010Y-165739441D01*
X96785787Y-165722938D01*
X96783351Y-165723112D01*
X96724773Y-165693822D01*
X96699560Y-165677619D01*
X96674014Y-165677619D01*
X96648873Y-165673095D01*
X96637965Y-165677619D01*
X96290844Y-165677619D01*
X96263365Y-165673668D01*
X96238110Y-165685201D01*
X96211472Y-165693023D01*
X96205243Y-165700210D01*
X96196592Y-165704162D01*
X96181581Y-165727518D01*
X96163401Y-165748500D01*
X96162047Y-165757914D01*
X96156905Y-165765916D01*
X96156905Y-165793680D01*
X96152954Y-165821159D01*
X96156905Y-165829811D01*
X96156905Y-166317489D01*
X96152954Y-166344968D01*
X95870199Y-166344968D01*
X95870709Y-166342970D01*
X95883021Y-166330659D01*
X95901103Y-166319920D01*
X95916508Y-166289109D01*
X95933013Y-166258883D01*
X95932838Y-166256448D01*
X95962129Y-166197868D01*
X95978333Y-166172655D01*
X95978333Y-166147109D01*
X95982857Y-166121968D01*
X95978333Y-166111060D01*
X95978333Y-165999816D01*
X95981550Y-165970021D01*
X95970126Y-165947173D01*
X95962929Y-165922662D01*
X95954003Y-165914928D01*
X95924525Y-165855972D01*
X95920055Y-165835421D01*
X95895694Y-165811060D01*
X95872241Y-165785847D01*
X95869875Y-165785242D01*
X95857564Y-165772931D01*
X95846825Y-165754849D01*
X95816010Y-165739441D01*
X95785787Y-165722938D01*
X95783351Y-165723112D01*
X95724773Y-165693822D01*
X95699560Y-165677619D01*
X95674014Y-165677619D01*
X95648873Y-165673095D01*
X95637965Y-165677619D01*
X95290844Y-165677619D01*
X95263365Y-165673668D01*
X95238110Y-165685201D01*
X95211472Y-165693023D01*
X95205243Y-165700210D01*
X95196592Y-165704162D01*
X95181581Y-165727518D01*
X95163401Y-165748500D01*
X95162047Y-165757914D01*
X95156905Y-165765916D01*
X95156905Y-165793680D01*
X95152954Y-165821159D01*
X95156905Y-165829811D01*
X95156905Y-166317489D01*
X95152954Y-166344968D01*
X94313453Y-166344968D01*
X94313453Y-165009643D01*
X104726548Y-165009643D01*
X104726548Y-167670357D01*
G37*
D11*
X77347142Y-143347380D02*
X77299523Y-143395000D01*
X77299523Y-143395000D02*
X77156666Y-143442619D01*
X77156666Y-143442619D02*
X77061428Y-143442619D01*
X77061428Y-143442619D02*
X76918571Y-143395000D01*
X76918571Y-143395000D02*
X76823333Y-143299761D01*
X76823333Y-143299761D02*
X76775714Y-143204523D01*
X76775714Y-143204523D02*
X76728095Y-143014047D01*
X76728095Y-143014047D02*
X76728095Y-142871190D01*
X76728095Y-142871190D02*
X76775714Y-142680714D01*
X76775714Y-142680714D02*
X76823333Y-142585476D01*
X76823333Y-142585476D02*
X76918571Y-142490238D01*
X76918571Y-142490238D02*
X77061428Y-142442619D01*
X77061428Y-142442619D02*
X77156666Y-142442619D01*
X77156666Y-142442619D02*
X77299523Y-142490238D01*
X77299523Y-142490238D02*
X77347142Y-142537857D01*
X78299523Y-143442619D02*
X77728095Y-143442619D01*
X78013809Y-143442619D02*
X78013809Y-142442619D01*
X78013809Y-142442619D02*
X77918571Y-142585476D01*
X77918571Y-142585476D02*
X77823333Y-142680714D01*
X77823333Y-142680714D02*
X77728095Y-142728333D01*
X79251904Y-143442619D02*
X78680476Y-143442619D01*
X78966190Y-143442619D02*
X78966190Y-142442619D01*
X78966190Y-142442619D02*
X78870952Y-142585476D01*
X78870952Y-142585476D02*
X78775714Y-142680714D01*
X78775714Y-142680714D02*
X78680476Y-142728333D01*
D12*
G36*
X120013097Y-161962970D02*
G01*
X120032029Y-161981902D01*
X120057380Y-162032603D01*
X120057380Y-162116444D01*
X120032028Y-162167145D01*
X120013097Y-162186077D01*
X119962396Y-162211428D01*
X119855502Y-162211428D01*
X119825426Y-162208311D01*
X119819258Y-162211428D01*
X119735952Y-162211428D01*
X119735952Y-161937619D01*
X119962396Y-161937619D01*
X120013097Y-161962970D01*
G37*
G36*
X118965479Y-161962970D02*
G01*
X119021890Y-162019381D01*
X119057380Y-162161340D01*
X119057380Y-162463897D01*
X119021890Y-162605855D01*
X118965476Y-162662269D01*
X118914777Y-162687619D01*
X118783317Y-162687619D01*
X118732616Y-162662268D01*
X118676203Y-162605855D01*
X118640714Y-162463897D01*
X118640714Y-162161340D01*
X118676204Y-162019381D01*
X118732616Y-161962969D01*
X118783317Y-161937619D01*
X118914777Y-161937619D01*
X118965479Y-161962970D01*
G37*
G36*
X117155955Y-161962970D02*
G01*
X117212366Y-162019381D01*
X117247856Y-162161340D01*
X117247856Y-162463897D01*
X117212366Y-162605855D01*
X117155952Y-162662269D01*
X117105253Y-162687619D01*
X116973793Y-162687619D01*
X116923092Y-162662268D01*
X116866679Y-162605855D01*
X116831190Y-162463897D01*
X116831190Y-162161340D01*
X116866680Y-162019381D01*
X116923092Y-161962969D01*
X116973793Y-161937619D01*
X117105253Y-161937619D01*
X117155955Y-161962970D01*
G37*
G36*
X121775002Y-161962970D02*
G01*
X121793934Y-161981902D01*
X121819285Y-162032603D01*
X121819285Y-162116444D01*
X121793933Y-162167145D01*
X121775002Y-162186077D01*
X121724301Y-162211428D01*
X121617407Y-162211428D01*
X121587331Y-162208311D01*
X121581163Y-162211428D01*
X121497857Y-162211428D01*
X121497857Y-161937619D01*
X121724301Y-161937619D01*
X121775002Y-161962970D01*
G37*
G36*
X123817500Y-163680357D02*
G01*
X114642500Y-163680357D01*
X114642500Y-161832220D01*
X115482158Y-161832220D01*
X115485952Y-161840350D01*
X115485952Y-162830591D01*
X115501356Y-162883052D01*
X115556833Y-162931123D01*
X115629492Y-162941570D01*
X115696265Y-162911076D01*
X115735952Y-162849322D01*
X115735952Y-162376065D01*
X115830595Y-162578873D01*
X115845130Y-162611404D01*
X115861679Y-162622233D01*
X115874756Y-162637076D01*
X115891759Y-162641917D01*
X115906554Y-162651598D01*
X115926333Y-162651760D01*
X115945357Y-162657177D01*
X115962279Y-162652056D01*
X115979958Y-162652202D01*
X115996684Y-162641645D01*
X116015617Y-162635917D01*
X116027085Y-162622460D01*
X116042037Y-162613024D01*
X116050401Y-162595100D01*
X116063230Y-162580047D01*
X116065602Y-162562527D01*
X116152618Y-162376064D01*
X116152618Y-162830591D01*
X116168022Y-162883052D01*
X116223499Y-162931123D01*
X116296158Y-162941570D01*
X116362931Y-162911076D01*
X116402618Y-162849322D01*
X116402618Y-162473995D01*
X116576020Y-162473995D01*
X116581190Y-162494675D01*
X116581190Y-162497257D01*
X116585534Y-162512054D01*
X116632074Y-162698210D01*
X116639467Y-162732196D01*
X116654098Y-162746827D01*
X116664568Y-162764672D01*
X116679519Y-162772248D01*
X116749576Y-162842305D01*
X116760317Y-162860389D01*
X116791127Y-162875794D01*
X116821354Y-162892300D01*
X116823790Y-162892125D01*
X116882368Y-162921415D01*
X116907582Y-162937619D01*
X116933128Y-162937619D01*
X116958269Y-162942143D01*
X116969177Y-162937619D01*
X117128036Y-162937619D01*
X117157835Y-162940836D01*
X117180682Y-162929412D01*
X117205194Y-162922215D01*
X117212927Y-162913289D01*
X117271883Y-162883811D01*
X117292435Y-162879341D01*
X117316794Y-162854981D01*
X117342009Y-162831527D01*
X117342613Y-162829161D01*
X117412264Y-162759510D01*
X117437603Y-162735685D01*
X117442621Y-162715611D01*
X117452537Y-162697452D01*
X117451341Y-162680732D01*
X117489135Y-162529557D01*
X117497856Y-162515988D01*
X117497856Y-162494675D01*
X117498483Y-162492167D01*
X117497856Y-162476744D01*
X117497856Y-162166524D01*
X117503026Y-162151242D01*
X117497856Y-162130562D01*
X117497856Y-162127980D01*
X117493511Y-162113182D01*
X117446968Y-161927013D01*
X117439578Y-161893041D01*
X117424948Y-161878411D01*
X117414478Y-161860565D01*
X117399524Y-161852987D01*
X117377696Y-161831159D01*
X117529620Y-161831159D01*
X117560114Y-161897932D01*
X117621868Y-161937619D01*
X117819285Y-161937619D01*
X117819285Y-162830591D01*
X117834689Y-162883052D01*
X117890166Y-162931123D01*
X117962825Y-162941570D01*
X118029598Y-162911076D01*
X118069285Y-162849322D01*
X118069285Y-162473995D01*
X118385544Y-162473995D01*
X118390714Y-162494675D01*
X118390714Y-162497257D01*
X118395058Y-162512054D01*
X118441598Y-162698210D01*
X118448991Y-162732196D01*
X118463622Y-162746827D01*
X118474092Y-162764672D01*
X118489043Y-162772248D01*
X118559100Y-162842305D01*
X118569841Y-162860389D01*
X118600651Y-162875794D01*
X118630878Y-162892300D01*
X118633314Y-162892125D01*
X118691892Y-162921415D01*
X118717106Y-162937619D01*
X118742652Y-162937619D01*
X118767793Y-162942143D01*
X118778701Y-162937619D01*
X118937560Y-162937619D01*
X118967359Y-162940836D01*
X118990206Y-162929412D01*
X119014718Y-162922215D01*
X119022451Y-162913289D01*
X119081407Y-162883811D01*
X119101959Y-162879341D01*
X119126318Y-162854981D01*
X119151533Y-162831527D01*
X119152137Y-162829161D01*
X119221788Y-162759510D01*
X119247127Y-162735685D01*
X119252145Y-162715611D01*
X119262061Y-162697452D01*
X119260865Y-162680732D01*
X119298659Y-162529557D01*
X119307380Y-162515988D01*
X119307380Y-162494675D01*
X119308007Y-162492167D01*
X119307380Y-162476744D01*
X119307380Y-162354968D01*
X119482001Y-162354968D01*
X119485952Y-162363620D01*
X119485952Y-162830591D01*
X119501356Y-162883052D01*
X119556833Y-162931123D01*
X119629492Y-162941570D01*
X119696265Y-162911076D01*
X119735952Y-162849322D01*
X119735952Y-162461428D01*
X119783965Y-162461428D01*
X120090282Y-162899025D01*
X120132986Y-162933169D01*
X120206002Y-162940737D01*
X120244652Y-162921204D01*
X120243906Y-162926397D01*
X120274400Y-162993170D01*
X120336154Y-163032857D01*
X121152733Y-163032857D01*
X121205194Y-163017453D01*
X121253265Y-162961976D01*
X121263712Y-162889317D01*
X121233218Y-162822544D01*
X121171464Y-162782857D01*
X120354885Y-162782857D01*
X120306858Y-162796958D01*
X120305832Y-162771005D01*
X120071572Y-162436347D01*
X120129027Y-162407620D01*
X120149577Y-162403150D01*
X120173932Y-162378794D01*
X120199152Y-162355336D01*
X120199246Y-162354968D01*
X121243906Y-162354968D01*
X121247857Y-162363620D01*
X121247857Y-162830591D01*
X121263261Y-162883052D01*
X121318738Y-162931123D01*
X121391397Y-162941570D01*
X121458170Y-162911076D01*
X121497857Y-162849322D01*
X121497857Y-162461428D01*
X121545870Y-162461428D01*
X121852187Y-162899025D01*
X121894891Y-162933169D01*
X121967907Y-162940737D01*
X122033422Y-162907628D01*
X122070638Y-162844355D01*
X122067737Y-162771005D01*
X121833477Y-162436347D01*
X121890932Y-162407620D01*
X121911482Y-162403150D01*
X121935837Y-162378794D01*
X121961057Y-162355336D01*
X121961661Y-162352970D01*
X121973973Y-162340659D01*
X121992055Y-162329920D01*
X122007460Y-162299109D01*
X122023965Y-162268883D01*
X122023790Y-162266448D01*
X122053081Y-162207868D01*
X122069285Y-162182655D01*
X122069285Y-162157109D01*
X122073809Y-162131968D01*
X122069285Y-162121060D01*
X122069285Y-162102924D01*
X122195042Y-162102924D01*
X122218192Y-162172584D01*
X122275329Y-162218671D01*
X122348312Y-162226550D01*
X122462361Y-162169525D01*
X122482911Y-162165055D01*
X122485952Y-162162014D01*
X122485952Y-162687619D01*
X122307266Y-162687619D01*
X122254805Y-162703023D01*
X122206734Y-162758500D01*
X122196287Y-162831159D01*
X122226781Y-162897932D01*
X122288535Y-162937619D01*
X122602013Y-162937619D01*
X122629492Y-162941570D01*
X122638144Y-162937619D01*
X122914638Y-162937619D01*
X122967099Y-162922215D01*
X123015170Y-162866738D01*
X123025617Y-162794079D01*
X122995123Y-162727306D01*
X122933369Y-162687619D01*
X122735952Y-162687619D01*
X122735952Y-161831665D01*
X122741211Y-161814808D01*
X122735952Y-161795717D01*
X122735952Y-161794647D01*
X122731187Y-161778422D01*
X122721716Y-161744037D01*
X122720868Y-161743277D01*
X122720548Y-161742186D01*
X122693618Y-161718851D01*
X122667055Y-161695041D01*
X122665930Y-161694860D01*
X122665071Y-161694115D01*
X122629808Y-161689044D01*
X122594582Y-161683374D01*
X122593537Y-161683829D01*
X122592412Y-161683668D01*
X122559979Y-161698479D01*
X122527305Y-161712743D01*
X122526674Y-161713689D01*
X122525639Y-161714162D01*
X122506362Y-161744157D01*
X122418572Y-161875841D01*
X122346432Y-161947982D01*
X122253262Y-161994567D01*
X122213228Y-162031806D01*
X122195042Y-162102924D01*
X122069285Y-162102924D01*
X122069285Y-162009816D01*
X122072502Y-161980021D01*
X122061078Y-161957173D01*
X122053881Y-161932662D01*
X122044955Y-161924928D01*
X122015477Y-161865972D01*
X122011007Y-161845421D01*
X121986646Y-161821060D01*
X121963193Y-161795847D01*
X121960827Y-161795242D01*
X121948516Y-161782931D01*
X121937777Y-161764849D01*
X121906962Y-161749441D01*
X121876739Y-161732938D01*
X121874303Y-161733112D01*
X121815725Y-161703822D01*
X121790512Y-161687619D01*
X121764966Y-161687619D01*
X121739825Y-161683095D01*
X121728917Y-161687619D01*
X121381796Y-161687619D01*
X121354317Y-161683668D01*
X121329062Y-161695201D01*
X121302424Y-161703023D01*
X121296195Y-161710210D01*
X121287544Y-161714162D01*
X121272533Y-161737518D01*
X121254353Y-161758500D01*
X121252999Y-161767914D01*
X121247857Y-161775916D01*
X121247857Y-161803680D01*
X121243906Y-161831159D01*
X121247857Y-161839811D01*
X121247857Y-162327489D01*
X121243906Y-162354968D01*
X120199246Y-162354968D01*
X120199756Y-162352970D01*
X120212068Y-162340659D01*
X120230150Y-162329920D01*
X120245555Y-162299109D01*
X120262060Y-162268883D01*
X120261885Y-162266448D01*
X120291176Y-162207868D01*
X120307380Y-162182655D01*
X120307380Y-162157109D01*
X120311904Y-162131968D01*
X120307380Y-162121060D01*
X120307380Y-162009816D01*
X120310597Y-161980021D01*
X120299173Y-161957173D01*
X120291976Y-161932662D01*
X120283050Y-161924928D01*
X120253572Y-161865972D01*
X120249102Y-161845421D01*
X120224741Y-161821060D01*
X120201288Y-161795847D01*
X120198922Y-161795242D01*
X120186611Y-161782931D01*
X120175872Y-161764849D01*
X120145057Y-161749441D01*
X120114834Y-161732938D01*
X120112398Y-161733112D01*
X120053820Y-161703822D01*
X120028607Y-161687619D01*
X120003061Y-161687619D01*
X119977920Y-161683095D01*
X119967012Y-161687619D01*
X119619891Y-161687619D01*
X119592412Y-161683668D01*
X119567157Y-161695201D01*
X119540519Y-161703023D01*
X119534290Y-161710210D01*
X119525639Y-161714162D01*
X119510628Y-161737518D01*
X119492448Y-161758500D01*
X119491094Y-161767914D01*
X119485952Y-161775916D01*
X119485952Y-161803680D01*
X119482001Y-161831159D01*
X119485952Y-161839811D01*
X119485952Y-162327489D01*
X119482001Y-162354968D01*
X119307380Y-162354968D01*
X119307380Y-162166524D01*
X119312550Y-162151242D01*
X119307380Y-162130562D01*
X119307380Y-162127980D01*
X119303035Y-162113182D01*
X119256492Y-161927013D01*
X119249102Y-161893041D01*
X119234472Y-161878411D01*
X119224002Y-161860565D01*
X119209048Y-161852987D01*
X119138992Y-161782931D01*
X119128253Y-161764849D01*
X119097438Y-161749441D01*
X119067215Y-161732938D01*
X119064779Y-161733112D01*
X119006201Y-161703822D01*
X118980988Y-161687619D01*
X118955442Y-161687619D01*
X118930301Y-161683095D01*
X118919393Y-161687619D01*
X118760530Y-161687619D01*
X118730735Y-161684402D01*
X118707887Y-161695825D01*
X118683376Y-161703023D01*
X118675642Y-161711948D01*
X118616685Y-161741426D01*
X118596136Y-161745897D01*
X118571784Y-161770248D01*
X118546561Y-161793711D01*
X118545955Y-161796077D01*
X118476309Y-161865723D01*
X118450967Y-161889552D01*
X118445948Y-161909625D01*
X118436033Y-161927784D01*
X118437228Y-161944503D01*
X118399434Y-162095679D01*
X118390714Y-162109249D01*
X118390714Y-162130562D01*
X118390087Y-162133070D01*
X118390714Y-162148493D01*
X118390714Y-162458713D01*
X118385544Y-162473995D01*
X118069285Y-162473995D01*
X118069285Y-161937619D01*
X118247971Y-161937619D01*
X118300432Y-161922215D01*
X118348503Y-161866738D01*
X118358950Y-161794079D01*
X118328456Y-161727306D01*
X118266702Y-161687619D01*
X117953224Y-161687619D01*
X117925745Y-161683668D01*
X117917093Y-161687619D01*
X117640599Y-161687619D01*
X117588138Y-161703023D01*
X117540067Y-161758500D01*
X117529620Y-161831159D01*
X117377696Y-161831159D01*
X117329468Y-161782931D01*
X117318729Y-161764849D01*
X117287914Y-161749441D01*
X117257691Y-161732938D01*
X117255255Y-161733112D01*
X117196677Y-161703822D01*
X117171464Y-161687619D01*
X117145918Y-161687619D01*
X117120777Y-161683095D01*
X117109869Y-161687619D01*
X116951006Y-161687619D01*
X116921211Y-161684402D01*
X116898363Y-161695825D01*
X116873852Y-161703023D01*
X116866118Y-161711948D01*
X116807161Y-161741426D01*
X116786612Y-161745897D01*
X116762260Y-161770248D01*
X116737037Y-161793711D01*
X116736431Y-161796077D01*
X116666785Y-161865723D01*
X116641443Y-161889552D01*
X116636424Y-161909625D01*
X116626509Y-161927784D01*
X116627704Y-161944503D01*
X116589910Y-162095679D01*
X116581190Y-162109249D01*
X116581190Y-162130562D01*
X116580563Y-162133070D01*
X116581190Y-162148493D01*
X116581190Y-162458713D01*
X116576020Y-162473995D01*
X116402618Y-162473995D01*
X116402618Y-161822075D01*
X116406717Y-161795140D01*
X116395181Y-161769321D01*
X116387214Y-161742186D01*
X116380432Y-161736309D01*
X116376773Y-161728119D01*
X116353109Y-161712634D01*
X116331737Y-161694115D01*
X116322857Y-161692838D01*
X116315349Y-161687925D01*
X116287066Y-161687692D01*
X116259078Y-161683668D01*
X116250917Y-161687394D01*
X116241945Y-161687321D01*
X116218027Y-161702415D01*
X116192305Y-161714162D01*
X116187455Y-161721708D01*
X116179866Y-161726498D01*
X116167904Y-161752129D01*
X116152618Y-161775916D01*
X116152618Y-161784887D01*
X115944284Y-162231315D01*
X115728223Y-161768325D01*
X115720548Y-161742186D01*
X115699177Y-161723668D01*
X115680481Y-161702447D01*
X115671851Y-161699990D01*
X115665071Y-161694115D01*
X115637077Y-161690090D01*
X115609880Y-161682347D01*
X115601293Y-161684945D01*
X115592412Y-161683668D01*
X115566686Y-161695416D01*
X115539620Y-161703606D01*
X115533800Y-161710434D01*
X115525639Y-161714162D01*
X115510348Y-161737954D01*
X115492007Y-161759477D01*
X115490803Y-161768367D01*
X115485952Y-161775916D01*
X115485952Y-161804198D01*
X115482158Y-161832220D01*
X114642500Y-161832220D01*
X114642500Y-161019643D01*
X123817500Y-161019643D01*
X123817500Y-163680357D01*
G37*
D11*
X97813333Y-144812619D02*
X97480000Y-144336428D01*
X97241905Y-144812619D02*
X97241905Y-143812619D01*
X97241905Y-143812619D02*
X97622857Y-143812619D01*
X97622857Y-143812619D02*
X97718095Y-143860238D01*
X97718095Y-143860238D02*
X97765714Y-143907857D01*
X97765714Y-143907857D02*
X97813333Y-144003095D01*
X97813333Y-144003095D02*
X97813333Y-144145952D01*
X97813333Y-144145952D02*
X97765714Y-144241190D01*
X97765714Y-144241190D02*
X97718095Y-144288809D01*
X97718095Y-144288809D02*
X97622857Y-144336428D01*
X97622857Y-144336428D02*
X97241905Y-144336428D01*
X98670476Y-144145952D02*
X98670476Y-144812619D01*
X98432381Y-143765000D02*
X98194286Y-144479285D01*
X98194286Y-144479285D02*
X98813333Y-144479285D01*
X77347142Y-146437380D02*
X77299523Y-146485000D01*
X77299523Y-146485000D02*
X77156666Y-146532619D01*
X77156666Y-146532619D02*
X77061428Y-146532619D01*
X77061428Y-146532619D02*
X76918571Y-146485000D01*
X76918571Y-146485000D02*
X76823333Y-146389761D01*
X76823333Y-146389761D02*
X76775714Y-146294523D01*
X76775714Y-146294523D02*
X76728095Y-146104047D01*
X76728095Y-146104047D02*
X76728095Y-145961190D01*
X76728095Y-145961190D02*
X76775714Y-145770714D01*
X76775714Y-145770714D02*
X76823333Y-145675476D01*
X76823333Y-145675476D02*
X76918571Y-145580238D01*
X76918571Y-145580238D02*
X77061428Y-145532619D01*
X77061428Y-145532619D02*
X77156666Y-145532619D01*
X77156666Y-145532619D02*
X77299523Y-145580238D01*
X77299523Y-145580238D02*
X77347142Y-145627857D01*
X78299523Y-146532619D02*
X77728095Y-146532619D01*
X78013809Y-146532619D02*
X78013809Y-145532619D01*
X78013809Y-145532619D02*
X77918571Y-145675476D01*
X77918571Y-145675476D02*
X77823333Y-145770714D01*
X77823333Y-145770714D02*
X77728095Y-145818333D01*
X78632857Y-145532619D02*
X79251904Y-145532619D01*
X79251904Y-145532619D02*
X78918571Y-145913571D01*
X78918571Y-145913571D02*
X79061428Y-145913571D01*
X79061428Y-145913571D02*
X79156666Y-145961190D01*
X79156666Y-145961190D02*
X79204285Y-146008809D01*
X79204285Y-146008809D02*
X79251904Y-146104047D01*
X79251904Y-146104047D02*
X79251904Y-146342142D01*
X79251904Y-146342142D02*
X79204285Y-146437380D01*
X79204285Y-146437380D02*
X79156666Y-146485000D01*
X79156666Y-146485000D02*
X79061428Y-146532619D01*
X79061428Y-146532619D02*
X78775714Y-146532619D01*
X78775714Y-146532619D02*
X78680476Y-146485000D01*
X78680476Y-146485000D02*
X78632857Y-146437380D01*
D10*
G36*
X88722857Y-146541428D02*
G01*
X86337143Y-146541428D01*
X86337143Y-145724854D01*
X87511666Y-145724854D01*
X87523989Y-145766822D01*
X87568371Y-145805279D01*
X87626498Y-145813636D01*
X87679917Y-145789241D01*
X87711666Y-145739838D01*
X87711666Y-144934192D01*
X87699343Y-144892224D01*
X87654961Y-144853767D01*
X87596834Y-144845410D01*
X87543415Y-144869805D01*
X87511666Y-144919208D01*
X87511666Y-145724854D01*
X86337143Y-145724854D01*
X86337143Y-144604143D01*
X86888989Y-144604143D01*
X86899442Y-144661930D01*
X86939478Y-144704894D01*
X86996386Y-144719391D01*
X88007079Y-144382492D01*
X88018348Y-144382900D01*
X88034399Y-144373385D01*
X88037882Y-144372225D01*
X88046714Y-144366086D01*
X88068866Y-144352957D01*
X88070607Y-144349481D01*
X88073800Y-144347263D01*
X88083644Y-144323466D01*
X88095176Y-144300455D01*
X88094762Y-144296591D01*
X88096249Y-144292998D01*
X88091665Y-144267660D01*
X88088925Y-144242063D01*
X88086486Y-144239034D01*
X88085795Y-144235211D01*
X88068248Y-144216381D01*
X88052098Y-144196321D01*
X88048409Y-144195091D01*
X88045760Y-144192248D01*
X88020809Y-144185891D01*
X87010601Y-143849156D01*
X86966889Y-143847575D01*
X86916371Y-143877518D01*
X86890062Y-143930020D01*
X86896312Y-143988412D01*
X86933140Y-144034154D01*
X87676390Y-144281903D01*
X86947355Y-144524916D01*
X86911438Y-144549878D01*
X86888989Y-144604143D01*
X86337143Y-144604143D01*
X86337143Y-143630069D01*
X86889458Y-143630069D01*
X86913853Y-143683488D01*
X86963256Y-143715237D01*
X88006998Y-143715237D01*
X88048966Y-143702914D01*
X88087423Y-143658532D01*
X88095780Y-143600405D01*
X88071385Y-143546986D01*
X88021982Y-143515237D01*
X86978240Y-143515237D01*
X86936272Y-143527560D01*
X86897815Y-143571942D01*
X86889458Y-143630069D01*
X86337143Y-143630069D01*
X86337143Y-143148492D01*
X86888826Y-143148492D01*
X86889857Y-143151101D01*
X86889458Y-143153879D01*
X86900575Y-143178222D01*
X86910409Y-143203107D01*
X86912686Y-143204744D01*
X86913853Y-143207298D01*
X86936368Y-143221767D01*
X86958093Y-143237384D01*
X86960895Y-143237529D01*
X86963256Y-143239047D01*
X86990017Y-143239047D01*
X87016739Y-143240439D01*
X87019175Y-143239047D01*
X88006998Y-143239047D01*
X88048966Y-143226724D01*
X88087423Y-143182342D01*
X88095780Y-143124215D01*
X88071385Y-143070796D01*
X88021982Y-143039047D01*
X87369175Y-143039047D01*
X88032044Y-142660264D01*
X88048966Y-142655296D01*
X88066493Y-142635067D01*
X88085042Y-142615788D01*
X88085585Y-142613034D01*
X88087423Y-142610914D01*
X88091231Y-142584426D01*
X88096412Y-142558174D01*
X88095380Y-142555564D01*
X88095780Y-142552787D01*
X88084662Y-142528443D01*
X88074829Y-142503559D01*
X88072551Y-142501921D01*
X88071385Y-142499368D01*
X88048869Y-142484898D01*
X88027145Y-142469282D01*
X88024342Y-142469135D01*
X88021982Y-142467619D01*
X87995232Y-142467619D01*
X87968500Y-142466226D01*
X87966062Y-142467619D01*
X86978240Y-142467619D01*
X86936272Y-142479942D01*
X86897815Y-142524324D01*
X86889458Y-142582451D01*
X86913853Y-142635870D01*
X86963256Y-142667619D01*
X87616062Y-142667619D01*
X86953193Y-143046401D01*
X86936272Y-143051370D01*
X86918744Y-143071598D01*
X86900196Y-143090878D01*
X86899652Y-143093631D01*
X86897815Y-143095752D01*
X86894006Y-143122239D01*
X86888826Y-143148492D01*
X86337143Y-143148492D01*
X86337143Y-141725308D01*
X87127553Y-141725308D01*
X87151948Y-141778727D01*
X87201351Y-141810476D01*
X87511666Y-141810476D01*
X87511666Y-142105807D01*
X87523989Y-142147775D01*
X87568371Y-142186232D01*
X87626498Y-142194589D01*
X87679917Y-142170194D01*
X87711666Y-142120791D01*
X87711666Y-141810476D01*
X88006998Y-141810476D01*
X88048966Y-141798153D01*
X88087423Y-141753771D01*
X88095780Y-141695644D01*
X88071385Y-141642225D01*
X88021982Y-141610476D01*
X87711666Y-141610476D01*
X87711666Y-141315145D01*
X87699343Y-141273177D01*
X87654961Y-141234720D01*
X87596834Y-141226363D01*
X87543415Y-141250758D01*
X87511666Y-141300161D01*
X87511666Y-141610476D01*
X87216335Y-141610476D01*
X87174367Y-141622799D01*
X87135910Y-141667181D01*
X87127553Y-141725308D01*
X86337143Y-141725308D01*
X86337143Y-140498572D01*
X88722857Y-140498572D01*
X88722857Y-146541428D01*
G37*
D11*
X93727380Y-141412857D02*
X93775000Y-141460476D01*
X93775000Y-141460476D02*
X93822619Y-141603333D01*
X93822619Y-141603333D02*
X93822619Y-141698571D01*
X93822619Y-141698571D02*
X93775000Y-141841428D01*
X93775000Y-141841428D02*
X93679761Y-141936666D01*
X93679761Y-141936666D02*
X93584523Y-141984285D01*
X93584523Y-141984285D02*
X93394047Y-142031904D01*
X93394047Y-142031904D02*
X93251190Y-142031904D01*
X93251190Y-142031904D02*
X93060714Y-141984285D01*
X93060714Y-141984285D02*
X92965476Y-141936666D01*
X92965476Y-141936666D02*
X92870238Y-141841428D01*
X92870238Y-141841428D02*
X92822619Y-141698571D01*
X92822619Y-141698571D02*
X92822619Y-141603333D01*
X92822619Y-141603333D02*
X92870238Y-141460476D01*
X92870238Y-141460476D02*
X92917857Y-141412857D01*
X92917857Y-141031904D02*
X92870238Y-140984285D01*
X92870238Y-140984285D02*
X92822619Y-140889047D01*
X92822619Y-140889047D02*
X92822619Y-140650952D01*
X92822619Y-140650952D02*
X92870238Y-140555714D01*
X92870238Y-140555714D02*
X92917857Y-140508095D01*
X92917857Y-140508095D02*
X93013095Y-140460476D01*
X93013095Y-140460476D02*
X93108333Y-140460476D01*
X93108333Y-140460476D02*
X93251190Y-140508095D01*
X93251190Y-140508095D02*
X93822619Y-141079523D01*
X93822619Y-141079523D02*
X93822619Y-140460476D01*
X92822619Y-139841428D02*
X92822619Y-139746190D01*
X92822619Y-139746190D02*
X92870238Y-139650952D01*
X92870238Y-139650952D02*
X92917857Y-139603333D01*
X92917857Y-139603333D02*
X93013095Y-139555714D01*
X93013095Y-139555714D02*
X93203571Y-139508095D01*
X93203571Y-139508095D02*
X93441666Y-139508095D01*
X93441666Y-139508095D02*
X93632142Y-139555714D01*
X93632142Y-139555714D02*
X93727380Y-139603333D01*
X93727380Y-139603333D02*
X93775000Y-139650952D01*
X93775000Y-139650952D02*
X93822619Y-139746190D01*
X93822619Y-139746190D02*
X93822619Y-139841428D01*
X93822619Y-139841428D02*
X93775000Y-139936666D01*
X93775000Y-139936666D02*
X93727380Y-139984285D01*
X93727380Y-139984285D02*
X93632142Y-140031904D01*
X93632142Y-140031904D02*
X93441666Y-140079523D01*
X93441666Y-140079523D02*
X93203571Y-140079523D01*
X93203571Y-140079523D02*
X93013095Y-140031904D01*
X93013095Y-140031904D02*
X92917857Y-139984285D01*
X92917857Y-139984285D02*
X92870238Y-139936666D01*
X92870238Y-139936666D02*
X92822619Y-139841428D01*
X95602619Y-140878094D02*
X94602619Y-140878094D01*
X94602619Y-140878094D02*
X94602619Y-140639999D01*
X94602619Y-140639999D02*
X94650238Y-140497142D01*
X94650238Y-140497142D02*
X94745476Y-140401904D01*
X94745476Y-140401904D02*
X94840714Y-140354285D01*
X94840714Y-140354285D02*
X95031190Y-140306666D01*
X95031190Y-140306666D02*
X95174047Y-140306666D01*
X95174047Y-140306666D02*
X95364523Y-140354285D01*
X95364523Y-140354285D02*
X95459761Y-140401904D01*
X95459761Y-140401904D02*
X95555000Y-140497142D01*
X95555000Y-140497142D02*
X95602619Y-140639999D01*
X95602619Y-140639999D02*
X95602619Y-140878094D01*
X95602619Y-139354285D02*
X95602619Y-139925713D01*
X95602619Y-139639999D02*
X94602619Y-139639999D01*
X94602619Y-139639999D02*
X94745476Y-139735237D01*
X94745476Y-139735237D02*
X94840714Y-139830475D01*
X94840714Y-139830475D02*
X94888333Y-139925713D01*
X87036428Y-153166190D02*
X87512619Y-153166190D01*
X86512619Y-153499523D02*
X87036428Y-153166190D01*
X87036428Y-153166190D02*
X86512619Y-152832857D01*
X87512619Y-151975714D02*
X87512619Y-152547142D01*
X87512619Y-152261428D02*
X86512619Y-152261428D01*
X86512619Y-152261428D02*
X86655476Y-152356666D01*
X86655476Y-152356666D02*
X86750714Y-152451904D01*
X86750714Y-152451904D02*
X86798333Y-152547142D01*
X75437380Y-151527857D02*
X75485000Y-151575476D01*
X75485000Y-151575476D02*
X75532619Y-151718333D01*
X75532619Y-151718333D02*
X75532619Y-151813571D01*
X75532619Y-151813571D02*
X75485000Y-151956428D01*
X75485000Y-151956428D02*
X75389761Y-152051666D01*
X75389761Y-152051666D02*
X75294523Y-152099285D01*
X75294523Y-152099285D02*
X75104047Y-152146904D01*
X75104047Y-152146904D02*
X74961190Y-152146904D01*
X74961190Y-152146904D02*
X74770714Y-152099285D01*
X74770714Y-152099285D02*
X74675476Y-152051666D01*
X74675476Y-152051666D02*
X74580238Y-151956428D01*
X74580238Y-151956428D02*
X74532619Y-151813571D01*
X74532619Y-151813571D02*
X74532619Y-151718333D01*
X74532619Y-151718333D02*
X74580238Y-151575476D01*
X74580238Y-151575476D02*
X74627857Y-151527857D01*
X75532619Y-150575476D02*
X75532619Y-151146904D01*
X75532619Y-150861190D02*
X74532619Y-150861190D01*
X74532619Y-150861190D02*
X74675476Y-150956428D01*
X74675476Y-150956428D02*
X74770714Y-151051666D01*
X74770714Y-151051666D02*
X74818333Y-151146904D01*
X74961190Y-150004047D02*
X74913571Y-150099285D01*
X74913571Y-150099285D02*
X74865952Y-150146904D01*
X74865952Y-150146904D02*
X74770714Y-150194523D01*
X74770714Y-150194523D02*
X74723095Y-150194523D01*
X74723095Y-150194523D02*
X74627857Y-150146904D01*
X74627857Y-150146904D02*
X74580238Y-150099285D01*
X74580238Y-150099285D02*
X74532619Y-150004047D01*
X74532619Y-150004047D02*
X74532619Y-149813571D01*
X74532619Y-149813571D02*
X74580238Y-149718333D01*
X74580238Y-149718333D02*
X74627857Y-149670714D01*
X74627857Y-149670714D02*
X74723095Y-149623095D01*
X74723095Y-149623095D02*
X74770714Y-149623095D01*
X74770714Y-149623095D02*
X74865952Y-149670714D01*
X74865952Y-149670714D02*
X74913571Y-149718333D01*
X74913571Y-149718333D02*
X74961190Y-149813571D01*
X74961190Y-149813571D02*
X74961190Y-150004047D01*
X74961190Y-150004047D02*
X75008809Y-150099285D01*
X75008809Y-150099285D02*
X75056428Y-150146904D01*
X75056428Y-150146904D02*
X75151666Y-150194523D01*
X75151666Y-150194523D02*
X75342142Y-150194523D01*
X75342142Y-150194523D02*
X75437380Y-150146904D01*
X75437380Y-150146904D02*
X75485000Y-150099285D01*
X75485000Y-150099285D02*
X75532619Y-150004047D01*
X75532619Y-150004047D02*
X75532619Y-149813571D01*
X75532619Y-149813571D02*
X75485000Y-149718333D01*
X75485000Y-149718333D02*
X75437380Y-149670714D01*
X75437380Y-149670714D02*
X75342142Y-149623095D01*
X75342142Y-149623095D02*
X75151666Y-149623095D01*
X75151666Y-149623095D02*
X75056428Y-149670714D01*
X75056428Y-149670714D02*
X75008809Y-149718333D01*
X75008809Y-149718333D02*
X74961190Y-149813571D01*
X83337142Y-150367380D02*
X83289523Y-150415000D01*
X83289523Y-150415000D02*
X83146666Y-150462619D01*
X83146666Y-150462619D02*
X83051428Y-150462619D01*
X83051428Y-150462619D02*
X82908571Y-150415000D01*
X82908571Y-150415000D02*
X82813333Y-150319761D01*
X82813333Y-150319761D02*
X82765714Y-150224523D01*
X82765714Y-150224523D02*
X82718095Y-150034047D01*
X82718095Y-150034047D02*
X82718095Y-149891190D01*
X82718095Y-149891190D02*
X82765714Y-149700714D01*
X82765714Y-149700714D02*
X82813333Y-149605476D01*
X82813333Y-149605476D02*
X82908571Y-149510238D01*
X82908571Y-149510238D02*
X83051428Y-149462619D01*
X83051428Y-149462619D02*
X83146666Y-149462619D01*
X83146666Y-149462619D02*
X83289523Y-149510238D01*
X83289523Y-149510238D02*
X83337142Y-149557857D01*
X84289523Y-150462619D02*
X83718095Y-150462619D01*
X84003809Y-150462619D02*
X84003809Y-149462619D01*
X84003809Y-149462619D02*
X83908571Y-149605476D01*
X83908571Y-149605476D02*
X83813333Y-149700714D01*
X83813333Y-149700714D02*
X83718095Y-149748333D01*
X84765714Y-150462619D02*
X84956190Y-150462619D01*
X84956190Y-150462619D02*
X85051428Y-150415000D01*
X85051428Y-150415000D02*
X85099047Y-150367380D01*
X85099047Y-150367380D02*
X85194285Y-150224523D01*
X85194285Y-150224523D02*
X85241904Y-150034047D01*
X85241904Y-150034047D02*
X85241904Y-149653095D01*
X85241904Y-149653095D02*
X85194285Y-149557857D01*
X85194285Y-149557857D02*
X85146666Y-149510238D01*
X85146666Y-149510238D02*
X85051428Y-149462619D01*
X85051428Y-149462619D02*
X84860952Y-149462619D01*
X84860952Y-149462619D02*
X84765714Y-149510238D01*
X84765714Y-149510238D02*
X84718095Y-149557857D01*
X84718095Y-149557857D02*
X84670476Y-149653095D01*
X84670476Y-149653095D02*
X84670476Y-149891190D01*
X84670476Y-149891190D02*
X84718095Y-149986428D01*
X84718095Y-149986428D02*
X84765714Y-150034047D01*
X84765714Y-150034047D02*
X84860952Y-150081666D01*
X84860952Y-150081666D02*
X85051428Y-150081666D01*
X85051428Y-150081666D02*
X85146666Y-150034047D01*
X85146666Y-150034047D02*
X85194285Y-149986428D01*
X85194285Y-149986428D02*
X85241904Y-149891190D01*
D12*
G36*
X87437524Y-166291904D02*
G01*
X87308191Y-166291904D01*
X87372857Y-166097904D01*
X87437524Y-166291904D01*
G37*
G36*
X88441669Y-165852970D02*
G01*
X88460601Y-165871902D01*
X88485952Y-165922603D01*
X88485952Y-166006444D01*
X88460600Y-166057145D01*
X88441669Y-166076077D01*
X88390968Y-166101428D01*
X88284074Y-166101428D01*
X88253998Y-166098311D01*
X88247830Y-166101428D01*
X88164524Y-166101428D01*
X88164524Y-165827619D01*
X88390968Y-165827619D01*
X88441669Y-165852970D01*
G37*
G36*
X90293691Y-167570357D02*
G01*
X85166310Y-167570357D01*
X85166310Y-166535216D01*
X86006545Y-166535216D01*
X86017968Y-166558063D01*
X86025166Y-166582575D01*
X86034091Y-166590308D01*
X86063568Y-166649263D01*
X86068039Y-166669814D01*
X86092398Y-166694174D01*
X86115854Y-166719390D01*
X86118218Y-166719994D01*
X86130530Y-166732306D01*
X86141270Y-166750389D01*
X86172076Y-166765792D01*
X86202306Y-166782299D01*
X86204741Y-166782124D01*
X86263321Y-166811415D01*
X86288535Y-166827619D01*
X86314081Y-166827619D01*
X86339222Y-166832143D01*
X86350130Y-166827619D01*
X86508989Y-166827619D01*
X86538788Y-166830836D01*
X86561635Y-166819412D01*
X86586147Y-166812215D01*
X86593880Y-166803289D01*
X86652835Y-166773812D01*
X86673389Y-166769341D01*
X86697754Y-166744974D01*
X86708714Y-166734780D01*
X86913279Y-166734780D01*
X86950708Y-166797928D01*
X87016335Y-166830816D01*
X87089324Y-166823002D01*
X87146503Y-166776967D01*
X87224857Y-166541904D01*
X87520857Y-166541904D01*
X87593288Y-166759197D01*
X87624491Y-166804094D01*
X87692322Y-166832155D01*
X87764556Y-166819089D01*
X87818260Y-166769045D01*
X87836382Y-166697910D01*
X87738887Y-166405426D01*
X87739903Y-166398364D01*
X87727427Y-166371045D01*
X87685401Y-166244968D01*
X87910573Y-166244968D01*
X87914524Y-166253620D01*
X87914524Y-166720591D01*
X87929928Y-166773052D01*
X87985405Y-166821123D01*
X88058064Y-166831570D01*
X88124837Y-166801076D01*
X88164524Y-166739322D01*
X88164524Y-166351428D01*
X88212537Y-166351428D01*
X88518854Y-166789025D01*
X88561558Y-166823169D01*
X88634574Y-166830737D01*
X88700089Y-166797628D01*
X88737305Y-166734355D01*
X88734404Y-166661005D01*
X88500144Y-166326347D01*
X88557599Y-166297620D01*
X88578149Y-166293150D01*
X88602504Y-166268794D01*
X88627724Y-166245336D01*
X88628328Y-166242970D01*
X88640640Y-166230659D01*
X88658722Y-166219920D01*
X88674127Y-166189109D01*
X88690632Y-166158883D01*
X88690457Y-166156448D01*
X88719748Y-166097868D01*
X88735952Y-166072655D01*
X88735952Y-166047109D01*
X88740476Y-166021968D01*
X88735952Y-166011060D01*
X88735952Y-165899816D01*
X88739169Y-165870021D01*
X88727745Y-165847173D01*
X88720548Y-165822662D01*
X88711622Y-165814928D01*
X88682144Y-165755972D01*
X88677674Y-165735421D01*
X88663412Y-165721159D01*
X88767716Y-165721159D01*
X88798210Y-165787932D01*
X88859964Y-165827619D01*
X89057381Y-165827619D01*
X89057381Y-166720591D01*
X89072785Y-166773052D01*
X89128262Y-166821123D01*
X89200921Y-166831570D01*
X89267694Y-166801076D01*
X89307381Y-166739322D01*
X89307381Y-165827619D01*
X89486067Y-165827619D01*
X89538528Y-165812215D01*
X89586599Y-165756738D01*
X89597046Y-165684079D01*
X89566552Y-165617306D01*
X89504798Y-165577619D01*
X89191320Y-165577619D01*
X89163841Y-165573668D01*
X89155189Y-165577619D01*
X88878695Y-165577619D01*
X88826234Y-165593023D01*
X88778163Y-165648500D01*
X88767716Y-165721159D01*
X88663412Y-165721159D01*
X88653313Y-165711060D01*
X88629860Y-165685847D01*
X88627494Y-165685242D01*
X88615183Y-165672931D01*
X88604444Y-165654849D01*
X88573629Y-165639441D01*
X88543406Y-165622938D01*
X88540970Y-165623112D01*
X88482392Y-165593822D01*
X88457179Y-165577619D01*
X88431633Y-165577619D01*
X88406492Y-165573095D01*
X88395584Y-165577619D01*
X88048463Y-165577619D01*
X88020984Y-165573668D01*
X87995729Y-165585201D01*
X87969091Y-165593023D01*
X87962862Y-165600210D01*
X87954211Y-165604162D01*
X87939200Y-165627518D01*
X87921020Y-165648500D01*
X87919666Y-165657914D01*
X87914524Y-165665916D01*
X87914524Y-165693680D01*
X87910573Y-165721159D01*
X87914524Y-165729811D01*
X87914524Y-166217489D01*
X87910573Y-166244968D01*
X87685401Y-166244968D01*
X87498592Y-165684541D01*
X87499102Y-165670458D01*
X87487210Y-165650395D01*
X87485759Y-165646041D01*
X87478080Y-165634992D01*
X87461673Y-165607311D01*
X87457330Y-165605134D01*
X87454556Y-165601143D01*
X87424806Y-165588836D01*
X87396046Y-165574423D01*
X87391216Y-165574940D01*
X87386725Y-165573082D01*
X87355044Y-165578812D01*
X87323057Y-165582237D01*
X87319273Y-165585282D01*
X87314491Y-165586148D01*
X87290943Y-165608090D01*
X87265878Y-165628271D01*
X87264341Y-165632880D01*
X87260787Y-165636193D01*
X87252842Y-165667376D01*
X87024029Y-166353816D01*
X87016258Y-166362785D01*
X87012630Y-166388012D01*
X86915255Y-166680140D01*
X86913279Y-166734780D01*
X86708714Y-166734780D01*
X86722962Y-166721527D01*
X86723566Y-166719161D01*
X86735878Y-166706849D01*
X86753960Y-166696110D01*
X86769366Y-166665297D01*
X86785871Y-166635071D01*
X86785696Y-166632636D01*
X86814986Y-166574058D01*
X86831190Y-166548845D01*
X86831190Y-166523299D01*
X86835714Y-166498158D01*
X86831190Y-166487250D01*
X86831190Y-165684647D01*
X86815786Y-165632186D01*
X86760309Y-165584115D01*
X86687650Y-165573668D01*
X86620877Y-165604162D01*
X86581190Y-165665916D01*
X86581190Y-166482634D01*
X86555838Y-166533335D01*
X86536906Y-166552268D01*
X86486206Y-166577619D01*
X86354746Y-166577619D01*
X86304045Y-166552268D01*
X86285112Y-166533335D01*
X86259762Y-166482634D01*
X86259762Y-165684647D01*
X86244358Y-165632186D01*
X86188881Y-165584115D01*
X86116222Y-165573668D01*
X86049449Y-165604162D01*
X86009762Y-165665916D01*
X86009762Y-166505417D01*
X86006545Y-166535216D01*
X85166310Y-166535216D01*
X85166310Y-164909643D01*
X90293691Y-164909643D01*
X90293691Y-167570357D01*
G37*
D11*
X77327142Y-141777380D02*
X77279523Y-141825000D01*
X77279523Y-141825000D02*
X77136666Y-141872619D01*
X77136666Y-141872619D02*
X77041428Y-141872619D01*
X77041428Y-141872619D02*
X76898571Y-141825000D01*
X76898571Y-141825000D02*
X76803333Y-141729761D01*
X76803333Y-141729761D02*
X76755714Y-141634523D01*
X76755714Y-141634523D02*
X76708095Y-141444047D01*
X76708095Y-141444047D02*
X76708095Y-141301190D01*
X76708095Y-141301190D02*
X76755714Y-141110714D01*
X76755714Y-141110714D02*
X76803333Y-141015476D01*
X76803333Y-141015476D02*
X76898571Y-140920238D01*
X76898571Y-140920238D02*
X77041428Y-140872619D01*
X77041428Y-140872619D02*
X77136666Y-140872619D01*
X77136666Y-140872619D02*
X77279523Y-140920238D01*
X77279523Y-140920238D02*
X77327142Y-140967857D01*
X78279523Y-141872619D02*
X77708095Y-141872619D01*
X77993809Y-141872619D02*
X77993809Y-140872619D01*
X77993809Y-140872619D02*
X77898571Y-141015476D01*
X77898571Y-141015476D02*
X77803333Y-141110714D01*
X77803333Y-141110714D02*
X77708095Y-141158333D01*
X78898571Y-140872619D02*
X78993809Y-140872619D01*
X78993809Y-140872619D02*
X79089047Y-140920238D01*
X79089047Y-140920238D02*
X79136666Y-140967857D01*
X79136666Y-140967857D02*
X79184285Y-141063095D01*
X79184285Y-141063095D02*
X79231904Y-141253571D01*
X79231904Y-141253571D02*
X79231904Y-141491666D01*
X79231904Y-141491666D02*
X79184285Y-141682142D01*
X79184285Y-141682142D02*
X79136666Y-141777380D01*
X79136666Y-141777380D02*
X79089047Y-141825000D01*
X79089047Y-141825000D02*
X78993809Y-141872619D01*
X78993809Y-141872619D02*
X78898571Y-141872619D01*
X78898571Y-141872619D02*
X78803333Y-141825000D01*
X78803333Y-141825000D02*
X78755714Y-141777380D01*
X78755714Y-141777380D02*
X78708095Y-141682142D01*
X78708095Y-141682142D02*
X78660476Y-141491666D01*
X78660476Y-141491666D02*
X78660476Y-141253571D01*
X78660476Y-141253571D02*
X78708095Y-141063095D01*
X78708095Y-141063095D02*
X78755714Y-140967857D01*
X78755714Y-140967857D02*
X78803333Y-140920238D01*
X78803333Y-140920238D02*
X78898571Y-140872619D01*
X83317142Y-148617380D02*
X83269523Y-148665000D01*
X83269523Y-148665000D02*
X83126666Y-148712619D01*
X83126666Y-148712619D02*
X83031428Y-148712619D01*
X83031428Y-148712619D02*
X82888571Y-148665000D01*
X82888571Y-148665000D02*
X82793333Y-148569761D01*
X82793333Y-148569761D02*
X82745714Y-148474523D01*
X82745714Y-148474523D02*
X82698095Y-148284047D01*
X82698095Y-148284047D02*
X82698095Y-148141190D01*
X82698095Y-148141190D02*
X82745714Y-147950714D01*
X82745714Y-147950714D02*
X82793333Y-147855476D01*
X82793333Y-147855476D02*
X82888571Y-147760238D01*
X82888571Y-147760238D02*
X83031428Y-147712619D01*
X83031428Y-147712619D02*
X83126666Y-147712619D01*
X83126666Y-147712619D02*
X83269523Y-147760238D01*
X83269523Y-147760238D02*
X83317142Y-147807857D01*
X84269523Y-148712619D02*
X83698095Y-148712619D01*
X83983809Y-148712619D02*
X83983809Y-147712619D01*
X83983809Y-147712619D02*
X83888571Y-147855476D01*
X83888571Y-147855476D02*
X83793333Y-147950714D01*
X83793333Y-147950714D02*
X83698095Y-147998333D01*
X85174285Y-147712619D02*
X84698095Y-147712619D01*
X84698095Y-147712619D02*
X84650476Y-148188809D01*
X84650476Y-148188809D02*
X84698095Y-148141190D01*
X84698095Y-148141190D02*
X84793333Y-148093571D01*
X84793333Y-148093571D02*
X85031428Y-148093571D01*
X85031428Y-148093571D02*
X85126666Y-148141190D01*
X85126666Y-148141190D02*
X85174285Y-148188809D01*
X85174285Y-148188809D02*
X85221904Y-148284047D01*
X85221904Y-148284047D02*
X85221904Y-148522142D01*
X85221904Y-148522142D02*
X85174285Y-148617380D01*
X85174285Y-148617380D02*
X85126666Y-148665000D01*
X85126666Y-148665000D02*
X85031428Y-148712619D01*
X85031428Y-148712619D02*
X84793333Y-148712619D01*
X84793333Y-148712619D02*
X84698095Y-148665000D01*
X84698095Y-148665000D02*
X84650476Y-148617380D01*
D13*
X105980000Y-153915000D02*
X105980000Y-154595000D01*
X105980000Y-154595000D02*
X106110000Y-154595000D01*
X118550000Y-154595000D02*
X118680000Y-154595000D01*
X118680000Y-154595000D02*
X118680000Y-153915000D01*
D10*
X104430000Y-134920000D02*
G75*
G03*
X104430000Y-134920000I-100000J0D01*
G01*
D14*
X124800000Y-154200580D02*
X124800000Y-153919420D01*
X125820000Y-154200580D02*
X125820000Y-153919420D01*
X79280000Y-166960000D02*
X79280000Y-165630000D01*
X80610000Y-166960000D02*
X79280000Y-166960000D01*
X81880000Y-166960000D02*
X84480000Y-166960000D01*
X81880000Y-166960000D02*
X81880000Y-164300000D01*
X84480000Y-166960000D02*
X84480000Y-164300000D01*
X81880000Y-164300000D02*
X84480000Y-164300000D01*
X97452500Y-137407742D02*
X97452500Y-137882258D01*
X96407500Y-137407742D02*
X96407500Y-137882258D01*
X107597500Y-169072258D02*
X107597500Y-168597742D01*
X108642500Y-169072258D02*
X108642500Y-168597742D01*
X95827258Y-143342500D02*
X95352742Y-143342500D01*
X95827258Y-142297500D02*
X95352742Y-142297500D01*
X81125580Y-144980000D02*
X80844420Y-144980000D01*
X81125580Y-143960000D02*
X80844420Y-143960000D01*
X115360000Y-168330000D02*
X115360000Y-169660000D01*
X114030000Y-168330000D02*
X115360000Y-168330000D01*
X112760000Y-168330000D02*
X110160000Y-168330000D01*
X112760000Y-168330000D02*
X112760000Y-170990000D01*
X110160000Y-168330000D02*
X110160000Y-170990000D01*
X112760000Y-170990000D02*
X110160000Y-170990000D01*
X80650000Y-135360000D02*
X86770000Y-135360000D01*
X80650000Y-139060000D02*
X80650000Y-135360000D01*
X86770000Y-135360000D02*
X86770000Y-139060000D01*
X86770000Y-139060000D02*
X80650000Y-139060000D01*
X105750000Y-168210000D02*
X105750000Y-169540000D01*
X104420000Y-168210000D02*
X105750000Y-168210000D01*
X103150000Y-168210000D02*
X92930000Y-168210000D01*
X103150000Y-168210000D02*
X103150000Y-170870000D01*
X92930000Y-168210000D02*
X92930000Y-170870000D01*
X103150000Y-170870000D02*
X92930000Y-170870000D01*
X81125580Y-143440000D02*
X80844420Y-143440000D01*
X81125580Y-142420000D02*
X80844420Y-142420000D01*
X121690000Y-164270000D02*
X121690000Y-165600000D01*
X120360000Y-164270000D02*
X121690000Y-164270000D01*
X119090000Y-164270000D02*
X116490000Y-164270000D01*
X119090000Y-164270000D02*
X119090000Y-166930000D01*
X116490000Y-164270000D02*
X116490000Y-166930000D01*
X119090000Y-166930000D02*
X116490000Y-166930000D01*
X95807258Y-144922500D02*
X95332742Y-144922500D01*
X95807258Y-143877500D02*
X95332742Y-143877500D01*
X81125580Y-146520000D02*
X80844420Y-146520000D01*
X81125580Y-145500000D02*
X80844420Y-145500000D01*
X89055000Y-143270000D02*
X89055000Y-145870000D01*
X89055000Y-143270000D02*
X91715000Y-143270000D01*
X89055000Y-145870000D02*
X91715000Y-145870000D01*
X90385000Y-140670000D02*
X91715000Y-140670000D01*
X91715000Y-140670000D02*
X91715000Y-142000000D01*
X91715000Y-143270000D02*
X91715000Y-145870000D01*
X92790000Y-137815580D02*
X92790000Y-137534420D01*
X93810000Y-137815580D02*
X93810000Y-137534420D01*
X95865000Y-136182500D02*
X94395000Y-136182500D01*
X94395000Y-136182500D02*
X94395000Y-138467500D01*
X95865000Y-138467500D02*
X95865000Y-136182500D01*
X88035000Y-156380000D02*
X88035000Y-149980000D01*
X93085000Y-156380000D02*
X93085000Y-149980000D01*
X88035000Y-156380000D02*
G75*
G03*
X93085000Y-156380000I2525000J0D01*
G01*
X93085000Y-149980000D02*
G75*
G03*
X88035000Y-149980000I-2525000J0D01*
G01*
X74590000Y-154035580D02*
X74590000Y-153754420D01*
X75610000Y-154035580D02*
X75610000Y-153754420D01*
X81060580Y-150480000D02*
X80779420Y-150480000D01*
X81060580Y-149460000D02*
X80779420Y-149460000D01*
X91240000Y-168170000D02*
X91240000Y-169500000D01*
X89910000Y-168170000D02*
X91240000Y-168170000D01*
X88640000Y-168170000D02*
X80960000Y-168170000D01*
X88640000Y-168170000D02*
X88640000Y-170830000D01*
X80960000Y-168170000D02*
X80960000Y-170830000D01*
X88640000Y-170830000D02*
X80960000Y-170830000D01*
X81120580Y-141870000D02*
X80839420Y-141870000D01*
X81120580Y-140850000D02*
X80839420Y-140850000D01*
X81070580Y-148780000D02*
X80789420Y-148780000D01*
X81070580Y-147760000D02*
X80789420Y-147760000D01*
%LPC*%
D15*
X105980000Y-135095000D03*
X105980000Y-136595000D03*
X105980000Y-138095000D03*
X105980000Y-139595000D03*
X105980000Y-141095000D03*
X105980000Y-142595000D03*
X105980000Y-144095000D03*
X105980000Y-145595000D03*
X105980000Y-147095000D03*
X105980000Y-148595000D03*
X105980000Y-150095000D03*
X105980000Y-151595000D03*
X105980000Y-153095000D03*
D16*
X107080000Y-154595000D03*
X108580000Y-154595000D03*
X110080000Y-154595000D03*
X111580000Y-154595000D03*
X113080000Y-154595000D03*
X114580000Y-154595000D03*
X116080000Y-154595000D03*
X117580000Y-154595000D03*
D17*
X118680000Y-153095000D03*
X118680000Y-151595000D03*
X118680000Y-150095000D03*
X118680000Y-148595000D03*
X118680000Y-147095000D03*
X118680000Y-145595000D03*
X118680000Y-144095000D03*
X118680000Y-142595000D03*
X118680000Y-141095000D03*
X118680000Y-139595000D03*
X118680000Y-138095000D03*
X118680000Y-136595000D03*
X118680000Y-135095000D03*
D18*
X125310000Y-154835000D03*
X125310000Y-153285000D03*
D19*
X125476000Y-138176000D03*
D20*
X80610000Y-165630000D03*
D21*
X83150000Y-165630000D03*
D19*
X125476000Y-167894000D03*
D22*
X96930000Y-136820000D03*
X96930000Y-138470000D03*
D23*
X108120000Y-169660000D03*
X108120000Y-168010000D03*
D24*
X96415000Y-142820000D03*
X94765000Y-142820000D03*
D25*
X81760000Y-144470000D03*
X80210000Y-144470000D03*
D20*
X114030000Y-169660000D03*
D21*
X111490000Y-169660000D03*
D26*
X79810000Y-137210000D03*
X87610000Y-137210000D03*
D20*
X104420000Y-169540000D03*
D21*
X101880000Y-169540000D03*
X99340000Y-169540000D03*
X96800000Y-169540000D03*
X94260000Y-169540000D03*
D25*
X81760000Y-142930000D03*
X80210000Y-142930000D03*
D19*
X75184000Y-167894000D03*
D20*
X120360000Y-165600000D03*
D21*
X117820000Y-165600000D03*
D24*
X96395000Y-144400000D03*
X94745000Y-144400000D03*
D25*
X81760000Y-146010000D03*
X80210000Y-146010000D03*
D20*
X90385000Y-142000000D03*
D21*
X90385000Y-144540000D03*
D18*
X93300000Y-138450000D03*
X93300000Y-136900000D03*
D27*
X95130000Y-136880000D03*
X95130000Y-138455000D03*
D19*
X159338000Y-161925000D03*
D28*
X90560000Y-155620000D03*
X90560000Y-150740000D03*
D18*
X75100000Y-154670000D03*
X75100000Y-153120000D03*
D19*
X75184000Y-138176000D03*
X159338000Y-144145000D03*
D25*
X81695000Y-149970000D03*
X80145000Y-149970000D03*
D20*
X89910000Y-169500000D03*
D21*
X87370000Y-169500000D03*
X84830000Y-169500000D03*
X82290000Y-169500000D03*
D19*
X41322000Y-161925000D03*
D25*
X81755000Y-141360000D03*
X80205000Y-141360000D03*
D19*
X41322000Y-144145000D03*
D25*
X81705000Y-148270000D03*
X80155000Y-148270000D03*
M02*
