G04 #@! TF.GenerationSoftware,KiCad,Pcbnew,7.0.1*
G04 #@! TF.CreationDate,2024-07-14T18:55:08+02:00*
G04 #@! TF.ProjectId,Gruzik2.0,4772757a-696b-4322-9e30-2e6b69636164,rev?*
G04 #@! TF.SameCoordinates,Original*
G04 #@! TF.FileFunction,Copper,L2,Inr*
G04 #@! TF.FilePolarity,Positive*
%FSLAX46Y46*%
G04 Gerber Fmt 4.6, Leading zero omitted, Abs format (unit mm)*
G04 Created by KiCad (PCBNEW 7.0.1) date 2024-07-14 18:55:08*
%MOMM*%
%LPD*%
G01*
G04 APERTURE LIST*
G04 #@! TA.AperFunction,ComponentPad*
%ADD10R,1.700000X1.700000*%
G04 #@! TD*
G04 #@! TA.AperFunction,ComponentPad*
%ADD11O,1.700000X1.700000*%
G04 #@! TD*
G04 #@! TA.AperFunction,ComponentPad*
%ADD12C,1.500000*%
G04 #@! TD*
G04 #@! TA.AperFunction,ViaPad*
%ADD13C,0.550000*%
G04 #@! TD*
G04 #@! TA.AperFunction,ViaPad*
%ADD14C,0.700000*%
G04 #@! TD*
G04 #@! TA.AperFunction,Conductor*
%ADD15C,0.300000*%
G04 #@! TD*
G04 APERTURE END LIST*
D10*
X80610000Y-165630000D03*
D11*
X83150000Y-165630000D03*
D10*
X114030000Y-169660000D03*
D11*
X111490000Y-169660000D03*
D10*
X104420000Y-169540000D03*
D11*
X101880000Y-169540000D03*
X99340000Y-169540000D03*
X96800000Y-169540000D03*
X94260000Y-169540000D03*
D10*
X120360000Y-165600000D03*
D11*
X117820000Y-165600000D03*
D10*
X90385000Y-142000000D03*
D11*
X90385000Y-144540000D03*
D12*
X90560000Y-155620000D03*
X90560000Y-150740000D03*
D10*
X89910000Y-169500000D03*
D11*
X87370000Y-169500000D03*
X84830000Y-169500000D03*
X82290000Y-169500000D03*
D13*
X104450000Y-152300000D03*
D14*
X108040000Y-142840000D03*
D13*
X101530000Y-150550000D03*
D14*
X83897500Y-161412500D03*
X79930000Y-161200000D03*
D13*
X81215307Y-154304203D03*
X100820000Y-157110000D03*
D14*
X120050000Y-154010000D03*
D13*
X103240000Y-159650000D03*
X106840000Y-166650000D03*
D14*
X112310000Y-142050000D03*
X104170000Y-150950000D03*
X111300000Y-150430000D03*
X99480000Y-158744500D03*
X125310000Y-155890000D03*
X116020000Y-161710000D03*
X81760000Y-147160000D03*
X88000000Y-146440000D03*
X75070000Y-156010000D03*
X108120000Y-166310000D03*
X86010000Y-138610000D03*
X84310000Y-138680000D03*
X81940000Y-138680000D03*
X83180000Y-139810000D03*
X83200000Y-144460000D03*
D13*
X97900000Y-152490000D03*
D14*
X120770000Y-146810000D03*
D13*
X109710000Y-152410000D03*
X105920000Y-158700000D03*
X96390000Y-145650000D03*
X104260706Y-147790000D03*
D14*
X116690000Y-149700000D03*
D13*
X108210000Y-147240000D03*
X83170000Y-153830000D03*
X104714500Y-149170000D03*
X103430000Y-149790000D03*
X82520000Y-156200000D03*
X109706161Y-150110661D03*
X110768133Y-148914955D03*
X105040000Y-158040000D03*
X116415000Y-157210000D03*
X118445000Y-156750000D03*
X104760500Y-156324058D03*
X81865000Y-153930500D03*
X118040000Y-157490000D03*
X103894500Y-157270000D03*
X101540000Y-152350000D03*
X84115000Y-150605000D03*
X78660000Y-150340000D03*
X120050000Y-154870000D03*
X102300000Y-157420500D03*
X90920000Y-138480000D03*
X95515000Y-150069500D03*
D14*
X119800000Y-162040000D03*
X86450000Y-152300000D03*
X113420000Y-159910000D03*
X84690000Y-141340000D03*
X79380000Y-154900000D03*
X118760000Y-162070000D03*
X77080000Y-154940000D03*
D15*
X103240000Y-159650000D02*
X106840000Y-163250000D01*
X106840000Y-163250000D02*
X106840000Y-166650000D01*
X83490000Y-150863884D02*
X86456116Y-153830000D01*
X104714500Y-149170000D02*
X104374500Y-148830000D01*
X86456116Y-153830000D02*
X83170000Y-153830000D01*
X104374500Y-148830000D02*
X85006116Y-148830000D01*
X83490000Y-150346116D02*
X83490000Y-150863884D01*
X85006116Y-148830000D02*
X83490000Y-150346116D01*
X104973384Y-149795000D02*
X105339500Y-149428884D01*
X104570000Y-149790000D02*
X104575000Y-149795000D01*
X105339500Y-147985616D02*
X104518884Y-147165000D01*
X104518884Y-147165000D02*
X85964010Y-147165000D01*
X104575000Y-149795000D02*
X104973384Y-149795000D01*
X82520000Y-150609010D02*
X82520000Y-156200000D01*
X105339500Y-149428884D02*
X105339500Y-147985616D01*
X103430000Y-149790000D02*
X104570000Y-149790000D01*
X85964010Y-147165000D02*
X82520000Y-150609010D01*
X106360000Y-158040000D02*
X109720000Y-154680000D01*
X105040000Y-158040000D02*
X106360000Y-158040000D01*
X116370000Y-157210000D02*
X116415000Y-157210000D01*
X109720000Y-154680000D02*
X113840000Y-154680000D01*
X113840000Y-154680000D02*
X116370000Y-157210000D01*
X114735000Y-153040000D02*
X118445000Y-156750000D01*
X104760500Y-156324058D02*
X104765942Y-156324058D01*
X108050000Y-153040000D02*
X114735000Y-153040000D01*
X104765942Y-156324058D02*
X108050000Y-153040000D01*
X114730000Y-154180000D02*
X108680000Y-154180000D01*
X108680000Y-154180000D02*
X105590000Y-157270000D01*
X105590000Y-157270000D02*
X103894500Y-157270000D01*
X118040000Y-157490000D02*
X114730000Y-154180000D01*
X98635000Y-149445000D02*
X85275000Y-149445000D01*
X101540000Y-152350000D02*
X98635000Y-149445000D01*
X85275000Y-149445000D02*
X84115000Y-150605000D01*
X115370000Y-151785000D02*
X118455000Y-154870000D01*
X118455000Y-154870000D02*
X120050000Y-154870000D01*
X102300000Y-157420500D02*
X102449500Y-157420500D01*
X108085000Y-151785000D02*
X115370000Y-151785000D01*
X102449500Y-157420500D02*
X108085000Y-151785000D01*
X95515000Y-168255000D02*
X95515000Y-150075000D01*
X96800000Y-169540000D02*
X95515000Y-168255000D01*
G04 #@! TA.AperFunction,Conductor*
G36*
X104435466Y-157117886D02*
G01*
X104441967Y-157122008D01*
X104444500Y-157129278D01*
X104444500Y-157410722D01*
X104441967Y-157417992D01*
X104435466Y-157422113D01*
X104296686Y-157454586D01*
X104009378Y-157521811D01*
X104001388Y-157520837D01*
X103995919Y-157514934D01*
X103895386Y-157274511D01*
X103894481Y-157270000D01*
X103895386Y-157265488D01*
X103995919Y-157025063D01*
X104001388Y-157019162D01*
X104009376Y-157018188D01*
X104435466Y-157117886D01*
G37*
G04 #@! TD.AperFunction*
G04 #@! TA.AperFunction,Conductor*
G36*
X125479033Y-134526649D02*
G01*
X125827632Y-134543774D01*
X125839740Y-134544966D01*
X126181966Y-134595731D01*
X126193880Y-134598101D01*
X126529494Y-134682168D01*
X126541132Y-134685699D01*
X126866862Y-134802248D01*
X126878103Y-134806904D01*
X127100710Y-134912188D01*
X127190863Y-134954827D01*
X127201580Y-134960555D01*
X127498324Y-135138417D01*
X127508442Y-135145177D01*
X127786329Y-135351272D01*
X127795735Y-135358992D01*
X128052079Y-135591329D01*
X128060670Y-135599920D01*
X128257808Y-135817428D01*
X128293007Y-135856264D01*
X128300727Y-135865670D01*
X128506822Y-136143557D01*
X128513582Y-136153675D01*
X128671332Y-136416865D01*
X128691437Y-136450407D01*
X128697174Y-136461140D01*
X128845095Y-136773896D01*
X128849751Y-136785137D01*
X128966300Y-137110867D01*
X128969833Y-137122512D01*
X129053895Y-137458106D01*
X129056269Y-137470041D01*
X129107032Y-137812258D01*
X129108225Y-137824368D01*
X129125351Y-138172966D01*
X129125500Y-138179051D01*
X129125500Y-143236137D01*
X129162616Y-143636686D01*
X129162617Y-143636691D01*
X129236534Y-144032113D01*
X129236536Y-144032120D01*
X129346617Y-144419019D01*
X129491939Y-144794139D01*
X129614291Y-145039853D01*
X129671246Y-145154234D01*
X129792594Y-145350218D01*
X129883016Y-145496254D01*
X130125439Y-145817275D01*
X130396445Y-146114554D01*
X130693724Y-146385560D01*
X131009902Y-146624326D01*
X131014748Y-146627985D01*
X131356766Y-146839754D01*
X131480554Y-146901393D01*
X131716860Y-147019060D01*
X131716864Y-147019061D01*
X131716865Y-147019062D01*
X131930999Y-147102018D01*
X132091980Y-147164382D01*
X132268368Y-147214568D01*
X132478887Y-147274466D01*
X132874309Y-147348383D01*
X133188412Y-147377489D01*
X133274863Y-147385500D01*
X133274864Y-147385500D01*
X133417512Y-147385500D01*
X133476000Y-147385500D01*
X133531514Y-147385500D01*
X152118376Y-147385500D01*
X152128614Y-147385923D01*
X152167344Y-147389132D01*
X152205038Y-147379586D01*
X152215030Y-147377491D01*
X152253381Y-147371092D01*
X152253382Y-147371091D01*
X152253773Y-147371026D01*
X152280404Y-147360635D01*
X152280738Y-147360416D01*
X152280741Y-147360416D01*
X152313282Y-147339154D01*
X152322073Y-147333916D01*
X152356258Y-147315418D01*
X152356258Y-147315417D01*
X152356612Y-147315226D01*
X152378421Y-147296754D01*
X152378666Y-147296438D01*
X152378669Y-147296437D01*
X152402537Y-147265768D01*
X152409159Y-147257951D01*
X152435484Y-147229356D01*
X152435485Y-147229352D01*
X152435753Y-147229062D01*
X152450386Y-147204506D01*
X152450516Y-147204127D01*
X152450517Y-147204126D01*
X152463138Y-147167360D01*
X152466862Y-147157819D01*
X152470125Y-147150381D01*
X152482473Y-147122232D01*
X152482473Y-147122227D01*
X152482632Y-147121866D01*
X152488500Y-147093889D01*
X152488500Y-147054624D01*
X152488923Y-147044386D01*
X152490901Y-147020509D01*
X152492132Y-147005656D01*
X152492131Y-147005652D01*
X152492164Y-147005255D01*
X152488500Y-146975858D01*
X152488500Y-146009500D01*
X152505113Y-145947500D01*
X152550500Y-145902113D01*
X152612500Y-145885500D01*
X155018376Y-145885500D01*
X155028614Y-145885923D01*
X155067344Y-145889132D01*
X155105038Y-145879586D01*
X155115030Y-145877491D01*
X155153381Y-145871092D01*
X155153382Y-145871091D01*
X155153773Y-145871026D01*
X155180404Y-145860635D01*
X155180738Y-145860416D01*
X155180741Y-145860416D01*
X155213282Y-145839154D01*
X155222073Y-145833916D01*
X155256258Y-145815418D01*
X155256258Y-145815417D01*
X155256612Y-145815226D01*
X155278421Y-145796754D01*
X155278666Y-145796438D01*
X155278669Y-145796437D01*
X155302537Y-145765768D01*
X155309159Y-145757951D01*
X155335484Y-145729356D01*
X155335485Y-145729352D01*
X155335753Y-145729062D01*
X155350386Y-145704506D01*
X155350516Y-145704127D01*
X155350517Y-145704126D01*
X155363138Y-145667360D01*
X155366862Y-145657819D01*
X155370292Y-145650000D01*
X155382473Y-145622232D01*
X155382473Y-145622227D01*
X155382632Y-145621866D01*
X155388500Y-145593889D01*
X155388500Y-145554624D01*
X155388923Y-145544386D01*
X155390901Y-145520509D01*
X155392132Y-145505656D01*
X155392131Y-145505652D01*
X155392164Y-145505255D01*
X155388500Y-145475858D01*
X155388500Y-144147872D01*
X155388566Y-144145000D01*
X158032531Y-144145000D01*
X158052364Y-144371689D01*
X158111261Y-144591497D01*
X158207432Y-144797735D01*
X158337953Y-144984140D01*
X158498859Y-145145046D01*
X158685264Y-145275567D01*
X158685265Y-145275567D01*
X158685266Y-145275568D01*
X158891504Y-145371739D01*
X159111308Y-145430635D01*
X159196261Y-145438067D01*
X159281214Y-145445500D01*
X159281216Y-145445500D01*
X159394784Y-145445500D01*
X159394786Y-145445500D01*
X159462747Y-145439553D01*
X159564692Y-145430635D01*
X159784496Y-145371739D01*
X159990734Y-145275568D01*
X160177139Y-145145047D01*
X160338047Y-144984139D01*
X160468568Y-144797734D01*
X160564739Y-144591496D01*
X160623635Y-144371692D01*
X160643468Y-144145000D01*
X160623635Y-143918308D01*
X160564739Y-143698504D01*
X160468568Y-143492266D01*
X160456847Y-143475527D01*
X160338046Y-143305859D01*
X160177140Y-143144953D01*
X159990735Y-143014432D01*
X159784497Y-142918261D01*
X159564689Y-142859364D01*
X159394786Y-142844500D01*
X159394784Y-142844500D01*
X159281216Y-142844500D01*
X159281214Y-142844500D01*
X159111310Y-142859364D01*
X158891502Y-142918261D01*
X158685264Y-143014432D01*
X158498859Y-143144953D01*
X158337953Y-143305859D01*
X158207432Y-143492264D01*
X158111261Y-143698502D01*
X158052364Y-143918310D01*
X158032531Y-144145000D01*
X155388566Y-144145000D01*
X155388632Y-144142145D01*
X155391204Y-144086512D01*
X155405083Y-143786300D01*
X155406140Y-143774905D01*
X155454958Y-143424944D01*
X155457058Y-143413708D01*
X155537961Y-143069732D01*
X155541084Y-143058753D01*
X155653387Y-142723685D01*
X155657510Y-142713046D01*
X155800245Y-142389781D01*
X155805328Y-142379572D01*
X155977278Y-142070862D01*
X155983304Y-142061130D01*
X156006909Y-142026671D01*
X156182999Y-141769612D01*
X156189881Y-141760498D01*
X156415636Y-141488630D01*
X156423332Y-141480190D01*
X156673190Y-141230332D01*
X156681630Y-141222636D01*
X156953498Y-140996881D01*
X156962612Y-140989999D01*
X157254136Y-140790300D01*
X157263862Y-140784278D01*
X157572572Y-140612328D01*
X157582781Y-140607245D01*
X157906046Y-140464510D01*
X157916685Y-140460387D01*
X158251753Y-140348084D01*
X158262732Y-140344961D01*
X158606708Y-140264058D01*
X158617944Y-140261958D01*
X158967914Y-140213139D01*
X158979300Y-140212083D01*
X159332290Y-140195764D01*
X159343710Y-140195764D01*
X159696697Y-140212083D01*
X159708086Y-140213139D01*
X160058051Y-140261957D01*
X160069295Y-140264059D01*
X160413261Y-140344959D01*
X160424251Y-140348086D01*
X160759306Y-140460385D01*
X160769960Y-140464513D01*
X161093209Y-140607241D01*
X161103436Y-140612333D01*
X161344689Y-140746710D01*
X161412131Y-140784275D01*
X161421869Y-140790304D01*
X161713374Y-140989990D01*
X161722511Y-140996890D01*
X161777456Y-141042515D01*
X161994356Y-141222626D01*
X162002820Y-141230343D01*
X162252656Y-141480179D01*
X162260373Y-141488643D01*
X162486107Y-141760485D01*
X162493009Y-141769625D01*
X162692695Y-142061130D01*
X162698724Y-142070868D01*
X162870659Y-142379550D01*
X162875764Y-142389803D01*
X163018481Y-142713026D01*
X163022619Y-142723706D01*
X163134909Y-143058735D01*
X163138043Y-143069751D01*
X163218938Y-143413696D01*
X163221043Y-143424955D01*
X163269859Y-143774905D01*
X163270916Y-143786309D01*
X163287368Y-144142145D01*
X163287500Y-144147872D01*
X163287500Y-161922128D01*
X163287368Y-161927855D01*
X163270916Y-162283690D01*
X163269859Y-162295094D01*
X163221043Y-162645044D01*
X163218938Y-162656303D01*
X163138043Y-163000248D01*
X163134909Y-163011264D01*
X163022619Y-163346293D01*
X163018481Y-163356973D01*
X162875764Y-163680196D01*
X162870659Y-163690449D01*
X162698724Y-163999131D01*
X162692695Y-164008869D01*
X162493009Y-164300374D01*
X162486107Y-164309514D01*
X162260373Y-164581356D01*
X162252656Y-164589820D01*
X162002820Y-164839656D01*
X161994356Y-164847373D01*
X161722514Y-165073107D01*
X161713374Y-165080009D01*
X161421869Y-165279695D01*
X161412131Y-165285724D01*
X161103449Y-165457659D01*
X161093196Y-165462764D01*
X160769973Y-165605481D01*
X160759293Y-165609619D01*
X160424264Y-165721909D01*
X160413248Y-165725043D01*
X160069303Y-165805938D01*
X160058044Y-165808043D01*
X159708094Y-165856859D01*
X159696690Y-165857916D01*
X159343727Y-165874235D01*
X159332273Y-165874235D01*
X158979309Y-165857916D01*
X158967905Y-165856859D01*
X158617955Y-165808043D01*
X158606696Y-165805938D01*
X158262751Y-165725043D01*
X158251735Y-165721909D01*
X157916706Y-165609619D01*
X157906026Y-165605481D01*
X157893613Y-165600000D01*
X157582799Y-165462762D01*
X157572555Y-165457661D01*
X157391786Y-165356974D01*
X157263868Y-165285724D01*
X157254130Y-165279695D01*
X156962625Y-165080009D01*
X156953485Y-165073107D01*
X156681643Y-164847373D01*
X156673179Y-164839656D01*
X156423343Y-164589820D01*
X156415626Y-164581356D01*
X156189890Y-164309511D01*
X156182990Y-164300374D01*
X156148140Y-164249500D01*
X156107024Y-164189478D01*
X155983304Y-164008869D01*
X155977275Y-163999131D01*
X155939710Y-163931689D01*
X155805333Y-163690436D01*
X155800241Y-163680209D01*
X155657513Y-163356960D01*
X155653385Y-163346306D01*
X155541086Y-163011251D01*
X155537959Y-163000261D01*
X155457059Y-162656295D01*
X155454956Y-162645044D01*
X155439269Y-162532590D01*
X155406139Y-162295086D01*
X155405083Y-162283690D01*
X155404126Y-162263000D01*
X155388632Y-161927855D01*
X155388566Y-161925000D01*
X158032531Y-161925000D01*
X158052364Y-162151689D01*
X158111261Y-162371497D01*
X158207432Y-162577735D01*
X158337953Y-162764140D01*
X158498859Y-162925046D01*
X158685264Y-163055567D01*
X158685265Y-163055567D01*
X158685266Y-163055568D01*
X158891504Y-163151739D01*
X159111308Y-163210635D01*
X159196261Y-163218067D01*
X159281214Y-163225500D01*
X159281216Y-163225500D01*
X159394784Y-163225500D01*
X159394786Y-163225500D01*
X159462747Y-163219553D01*
X159564692Y-163210635D01*
X159784496Y-163151739D01*
X159990734Y-163055568D01*
X160177139Y-162925047D01*
X160338047Y-162764139D01*
X160468568Y-162577734D01*
X160564739Y-162371496D01*
X160623635Y-162151692D01*
X160643468Y-161925000D01*
X160623635Y-161698308D01*
X160564739Y-161478504D01*
X160468568Y-161272266D01*
X160457648Y-161256671D01*
X160338046Y-161085859D01*
X160177140Y-160924953D01*
X159990735Y-160794432D01*
X159784497Y-160698261D01*
X159564689Y-160639364D01*
X159394786Y-160624500D01*
X159394784Y-160624500D01*
X159281216Y-160624500D01*
X159281214Y-160624500D01*
X159111310Y-160639364D01*
X158891502Y-160698261D01*
X158685264Y-160794432D01*
X158498859Y-160924953D01*
X158337953Y-161085859D01*
X158207432Y-161272264D01*
X158111261Y-161478502D01*
X158052364Y-161698310D01*
X158032531Y-161925000D01*
X155388566Y-161925000D01*
X155388500Y-161922128D01*
X155388500Y-160554624D01*
X155388923Y-160544386D01*
X155390901Y-160520509D01*
X155392132Y-160505656D01*
X155382592Y-160467983D01*
X155380488Y-160457951D01*
X155378789Y-160447768D01*
X155374092Y-160419619D01*
X155374090Y-160419616D01*
X155374026Y-160419228D01*
X155363632Y-160392588D01*
X155342157Y-160359717D01*
X155336911Y-160350914D01*
X155318228Y-160316391D01*
X155299751Y-160294575D01*
X155268770Y-160270462D01*
X155260951Y-160263839D01*
X155232069Y-160237252D01*
X155207501Y-160222611D01*
X155170370Y-160209863D01*
X155160827Y-160206139D01*
X155124870Y-160190367D01*
X155096886Y-160184500D01*
X155096488Y-160184500D01*
X155057624Y-160184500D01*
X155047386Y-160184077D01*
X155044302Y-160183821D01*
X155008655Y-160180868D01*
X155008255Y-160180835D01*
X154978858Y-160184500D01*
X152612500Y-160184500D01*
X152550500Y-160167887D01*
X152505113Y-160122500D01*
X152488500Y-160060500D01*
X152488500Y-159054624D01*
X152488923Y-159044386D01*
X152488975Y-159043755D01*
X152492132Y-159005656D01*
X152482592Y-158967983D01*
X152480488Y-158957951D01*
X152478789Y-158947768D01*
X152474092Y-158919619D01*
X152474090Y-158919616D01*
X152474026Y-158919228D01*
X152463632Y-158892588D01*
X152442157Y-158859717D01*
X152436911Y-158850914D01*
X152418228Y-158816391D01*
X152399751Y-158794575D01*
X152368770Y-158770462D01*
X152360951Y-158763839D01*
X152332069Y-158737252D01*
X152307501Y-158722611D01*
X152270370Y-158709863D01*
X152260827Y-158706139D01*
X152224870Y-158690367D01*
X152196886Y-158684500D01*
X152196488Y-158684500D01*
X152157624Y-158684500D01*
X152147386Y-158684077D01*
X152144302Y-158683821D01*
X152108655Y-158680868D01*
X152108255Y-158680835D01*
X152078858Y-158684500D01*
X133274863Y-158684500D01*
X132874313Y-158721616D01*
X132759267Y-158743122D01*
X132478887Y-158795534D01*
X132478881Y-158795535D01*
X132478879Y-158795536D01*
X132091980Y-158905617D01*
X131716860Y-159050939D01*
X131356769Y-159230244D01*
X131014745Y-159442016D01*
X130693724Y-159684439D01*
X130396445Y-159955445D01*
X130125439Y-160252724D01*
X129883016Y-160573745D01*
X129671244Y-160915769D01*
X129491939Y-161275860D01*
X129346617Y-161650980D01*
X129243521Y-162013329D01*
X129236534Y-162037887D01*
X129197294Y-162247803D01*
X129162616Y-162433313D01*
X129125500Y-162833863D01*
X129125500Y-167890949D01*
X129125351Y-167897034D01*
X129108225Y-168245631D01*
X129107032Y-168257741D01*
X129056269Y-168599958D01*
X129053895Y-168611893D01*
X128969833Y-168947487D01*
X128966300Y-168959132D01*
X128849751Y-169284862D01*
X128845095Y-169296103D01*
X128697174Y-169608859D01*
X128691437Y-169619592D01*
X128513582Y-169916324D01*
X128506822Y-169926442D01*
X128300727Y-170204329D01*
X128293007Y-170213735D01*
X128060677Y-170470072D01*
X128052072Y-170478677D01*
X127795735Y-170711007D01*
X127786329Y-170718727D01*
X127508442Y-170924822D01*
X127498324Y-170931582D01*
X127201592Y-171109437D01*
X127190859Y-171115174D01*
X126878103Y-171263095D01*
X126866862Y-171267751D01*
X126541132Y-171384300D01*
X126529487Y-171387833D01*
X126193893Y-171471895D01*
X126181958Y-171474269D01*
X125839741Y-171525032D01*
X125827631Y-171526225D01*
X125497960Y-171542421D01*
X125479032Y-171543351D01*
X125472949Y-171543500D01*
X75187051Y-171543500D01*
X75180967Y-171543351D01*
X75160920Y-171542366D01*
X74832368Y-171526225D01*
X74820258Y-171525032D01*
X74478041Y-171474269D01*
X74466106Y-171471895D01*
X74130512Y-171387833D01*
X74118867Y-171384300D01*
X73793137Y-171267751D01*
X73781896Y-171263095D01*
X73469140Y-171115174D01*
X73458412Y-171109439D01*
X73165547Y-170933903D01*
X73161675Y-170931582D01*
X73151557Y-170924822D01*
X72873670Y-170718727D01*
X72864264Y-170711007D01*
X72733324Y-170592330D01*
X72607920Y-170478670D01*
X72599329Y-170470079D01*
X72366992Y-170213735D01*
X72359272Y-170204329D01*
X72153177Y-169926442D01*
X72146417Y-169916324D01*
X71968555Y-169619580D01*
X71962825Y-169608859D01*
X71930257Y-169540000D01*
X71911339Y-169500000D01*
X80934340Y-169500000D01*
X80954936Y-169735407D01*
X80997808Y-169895407D01*
X81016097Y-169963663D01*
X81115965Y-170177830D01*
X81251505Y-170371401D01*
X81418599Y-170538495D01*
X81612170Y-170674035D01*
X81826337Y-170773903D01*
X82054592Y-170835063D01*
X82290000Y-170855659D01*
X82525408Y-170835063D01*
X82753663Y-170773903D01*
X82967830Y-170674035D01*
X83161401Y-170538495D01*
X83328495Y-170371401D01*
X83458426Y-170185839D01*
X83502743Y-170146976D01*
X83560000Y-170132965D01*
X83617257Y-170146976D01*
X83661573Y-170185839D01*
X83791505Y-170371401D01*
X83958599Y-170538495D01*
X84152170Y-170674035D01*
X84366337Y-170773903D01*
X84594592Y-170835063D01*
X84830000Y-170855659D01*
X85065408Y-170835063D01*
X85293663Y-170773903D01*
X85507830Y-170674035D01*
X85701401Y-170538495D01*
X85868495Y-170371401D01*
X85998426Y-170185839D01*
X86042743Y-170146976D01*
X86100000Y-170132965D01*
X86157257Y-170146976D01*
X86201573Y-170185839D01*
X86331505Y-170371401D01*
X86498599Y-170538495D01*
X86692170Y-170674035D01*
X86906337Y-170773903D01*
X87134592Y-170835063D01*
X87370000Y-170855659D01*
X87605408Y-170835063D01*
X87833663Y-170773903D01*
X88047830Y-170674035D01*
X88241401Y-170538495D01*
X88363329Y-170416566D01*
X88416072Y-170385273D01*
X88477365Y-170383084D01*
X88532209Y-170410537D01*
X88567189Y-170460916D01*
X88616204Y-170592331D01*
X88702454Y-170707546D01*
X88817669Y-170793796D01*
X88952517Y-170844091D01*
X89012127Y-170850500D01*
X90807872Y-170850499D01*
X90867483Y-170844091D01*
X91002331Y-170793796D01*
X91117546Y-170707546D01*
X91203796Y-170592331D01*
X91254091Y-170457483D01*
X91260500Y-170397873D01*
X91260499Y-168602128D01*
X91254091Y-168542517D01*
X91203796Y-168407669D01*
X91117546Y-168292454D01*
X91002331Y-168206204D01*
X90867483Y-168155909D01*
X90807873Y-168149500D01*
X90807869Y-168149500D01*
X89012130Y-168149500D01*
X88952515Y-168155909D01*
X88817669Y-168206204D01*
X88702454Y-168292454D01*
X88616204Y-168407669D01*
X88567189Y-168539083D01*
X88532209Y-168589462D01*
X88477365Y-168616915D01*
X88416072Y-168614726D01*
X88363326Y-168583430D01*
X88241404Y-168461508D01*
X88241401Y-168461505D01*
X88047830Y-168325965D01*
X87833663Y-168226097D01*
X87772502Y-168209709D01*
X87605407Y-168164936D01*
X87370000Y-168144340D01*
X87134592Y-168164936D01*
X86906336Y-168226097D01*
X86692170Y-168325965D01*
X86498598Y-168461505D01*
X86331508Y-168628595D01*
X86201574Y-168814160D01*
X86157255Y-168853026D01*
X86099999Y-168867036D01*
X86042742Y-168853025D01*
X85998426Y-168814161D01*
X85868495Y-168628599D01*
X85701401Y-168461505D01*
X85507830Y-168325965D01*
X85293663Y-168226097D01*
X85232502Y-168209709D01*
X85065407Y-168164936D01*
X84830000Y-168144340D01*
X84594592Y-168164936D01*
X84366336Y-168226097D01*
X84152170Y-168325965D01*
X83958598Y-168461505D01*
X83791508Y-168628595D01*
X83661574Y-168814160D01*
X83617255Y-168853026D01*
X83559999Y-168867036D01*
X83502742Y-168853025D01*
X83458426Y-168814161D01*
X83328495Y-168628599D01*
X83161401Y-168461505D01*
X82967830Y-168325965D01*
X82753663Y-168226097D01*
X82692502Y-168209709D01*
X82525407Y-168164936D01*
X82290000Y-168144340D01*
X82054592Y-168164936D01*
X81826336Y-168226097D01*
X81612170Y-168325965D01*
X81418598Y-168461505D01*
X81251505Y-168628598D01*
X81115965Y-168822170D01*
X81016097Y-169036336D01*
X80954936Y-169264592D01*
X80934340Y-169500000D01*
X71911339Y-169500000D01*
X71875674Y-169424592D01*
X71814904Y-169296103D01*
X71810248Y-169284862D01*
X71693699Y-168959132D01*
X71690166Y-168947487D01*
X71670014Y-168867036D01*
X71606101Y-168611880D01*
X71603730Y-168599958D01*
X71601278Y-168583430D01*
X71552966Y-168257740D01*
X71551774Y-168245630D01*
X71551527Y-168240610D01*
X71534649Y-167897033D01*
X71534575Y-167893999D01*
X73878531Y-167893999D01*
X73898364Y-168120689D01*
X73957261Y-168340497D01*
X74053432Y-168546735D01*
X74183953Y-168733140D01*
X74344859Y-168894046D01*
X74531264Y-169024567D01*
X74531265Y-169024567D01*
X74531266Y-169024568D01*
X74737504Y-169120739D01*
X74957308Y-169179635D01*
X75042261Y-169187067D01*
X75127214Y-169194500D01*
X75127216Y-169194500D01*
X75240784Y-169194500D01*
X75240786Y-169194500D01*
X75308747Y-169188553D01*
X75410692Y-169179635D01*
X75630496Y-169120739D01*
X75836734Y-169024568D01*
X76023139Y-168894047D01*
X76184047Y-168733139D01*
X76314568Y-168546734D01*
X76410739Y-168340496D01*
X76469635Y-168120692D01*
X76489468Y-167894000D01*
X76469635Y-167667308D01*
X76410739Y-167447504D01*
X76314568Y-167241266D01*
X76184047Y-167054861D01*
X76184046Y-167054859D01*
X76023140Y-166893953D01*
X75836735Y-166763432D01*
X75630497Y-166667261D01*
X75410689Y-166608364D01*
X75240786Y-166593500D01*
X75240784Y-166593500D01*
X75127216Y-166593500D01*
X75127214Y-166593500D01*
X74957310Y-166608364D01*
X74737502Y-166667261D01*
X74531264Y-166763432D01*
X74344859Y-166893953D01*
X74183953Y-167054859D01*
X74053432Y-167241264D01*
X73957261Y-167447502D01*
X73898364Y-167667310D01*
X73878531Y-167893999D01*
X71534575Y-167893999D01*
X71534500Y-167890949D01*
X71534500Y-166527869D01*
X79259500Y-166527869D01*
X79265909Y-166587484D01*
X79268153Y-166593500D01*
X79316204Y-166722331D01*
X79402454Y-166837546D01*
X79517669Y-166923796D01*
X79652517Y-166974091D01*
X79712127Y-166980500D01*
X81507872Y-166980499D01*
X81567483Y-166974091D01*
X81702331Y-166923796D01*
X81817546Y-166837546D01*
X81903796Y-166722331D01*
X81952810Y-166590916D01*
X81987789Y-166540537D01*
X82042634Y-166513084D01*
X82103927Y-166515273D01*
X82156673Y-166546569D01*
X82278599Y-166668495D01*
X82472170Y-166804035D01*
X82686337Y-166903903D01*
X82914592Y-166965063D01*
X83150000Y-166985659D01*
X83385408Y-166965063D01*
X83613663Y-166903903D01*
X83827830Y-166804035D01*
X84021401Y-166668495D01*
X84188495Y-166501401D01*
X84324035Y-166307830D01*
X84423903Y-166093663D01*
X84485063Y-165865408D01*
X84505659Y-165630000D01*
X84504609Y-165618004D01*
X84485063Y-165394592D01*
X84455144Y-165282933D01*
X84423903Y-165166337D01*
X84324035Y-164952171D01*
X84188495Y-164758599D01*
X84021401Y-164591505D01*
X83827830Y-164455965D01*
X83613663Y-164356097D01*
X83552502Y-164339709D01*
X83385407Y-164294936D01*
X83150000Y-164274340D01*
X82914592Y-164294936D01*
X82686336Y-164356097D01*
X82472170Y-164455965D01*
X82278601Y-164591503D01*
X82156673Y-164713431D01*
X82103926Y-164744726D01*
X82042634Y-164746915D01*
X81987789Y-164719462D01*
X81952810Y-164669082D01*
X81941621Y-164639083D01*
X81903796Y-164537669D01*
X81817546Y-164422454D01*
X81702331Y-164336204D01*
X81567483Y-164285909D01*
X81507873Y-164279500D01*
X81507869Y-164279500D01*
X79712130Y-164279500D01*
X79652515Y-164285909D01*
X79517669Y-164336204D01*
X79402454Y-164422454D01*
X79316204Y-164537668D01*
X79298266Y-164585761D01*
X79265909Y-164672517D01*
X79259880Y-164728599D01*
X79259500Y-164732130D01*
X79259500Y-166527869D01*
X71534500Y-166527869D01*
X71534500Y-162833863D01*
X71519828Y-162675526D01*
X71497383Y-162433309D01*
X71423466Y-162037887D01*
X71344496Y-161760335D01*
X71313382Y-161650980D01*
X71280977Y-161567334D01*
X71168062Y-161275865D01*
X71143566Y-161226671D01*
X71130285Y-161200000D01*
X79074815Y-161200000D01*
X79093503Y-161377804D01*
X79148749Y-161547835D01*
X79238140Y-161702665D01*
X79357771Y-161835527D01*
X79502403Y-161940610D01*
X79665735Y-162013330D01*
X79840607Y-162050500D01*
X79840609Y-162050500D01*
X80019391Y-162050500D01*
X80019393Y-162050500D01*
X80194264Y-162013330D01*
X80194265Y-162013329D01*
X80194267Y-162013329D01*
X80357593Y-161940612D01*
X80502230Y-161835526D01*
X80621859Y-161702665D01*
X80711250Y-161547835D01*
X80755223Y-161412500D01*
X83042315Y-161412500D01*
X83061003Y-161590304D01*
X83116249Y-161760335D01*
X83205640Y-161915165D01*
X83325271Y-162048027D01*
X83469903Y-162153110D01*
X83633235Y-162225830D01*
X83808107Y-162263000D01*
X83808109Y-162263000D01*
X83986891Y-162263000D01*
X83986893Y-162263000D01*
X84161764Y-162225830D01*
X84161765Y-162225829D01*
X84161767Y-162225829D01*
X84325093Y-162153112D01*
X84327048Y-162151692D01*
X84366159Y-162123274D01*
X84469730Y-162048026D01*
X84589359Y-161915165D01*
X84678750Y-161760335D01*
X84733997Y-161590303D01*
X84752685Y-161412500D01*
X84733997Y-161234697D01*
X84685637Y-161085861D01*
X84678750Y-161064664D01*
X84589359Y-160909834D01*
X84469728Y-160776972D01*
X84325096Y-160671889D01*
X84161764Y-160599169D01*
X83986893Y-160562000D01*
X83986891Y-160562000D01*
X83808109Y-160562000D01*
X83808107Y-160562000D01*
X83633235Y-160599169D01*
X83469908Y-160671887D01*
X83325268Y-160776974D01*
X83205640Y-160909834D01*
X83116249Y-161064664D01*
X83061003Y-161234695D01*
X83042315Y-161412500D01*
X80755223Y-161412500D01*
X80766497Y-161377803D01*
X80785185Y-161200000D01*
X80766497Y-161022197D01*
X80729988Y-160909834D01*
X80711250Y-160852164D01*
X80621859Y-160697334D01*
X80502228Y-160564472D01*
X80357596Y-160459389D01*
X80194264Y-160386669D01*
X80019393Y-160349500D01*
X80019391Y-160349500D01*
X79840609Y-160349500D01*
X79840607Y-160349500D01*
X79665735Y-160386669D01*
X79502408Y-160459387D01*
X79357768Y-160564474D01*
X79238140Y-160697334D01*
X79148749Y-160852164D01*
X79093503Y-161022195D01*
X79074815Y-161200000D01*
X71130285Y-161200000D01*
X71034405Y-161007446D01*
X70988754Y-160915766D01*
X70776985Y-160573748D01*
X70770661Y-160565374D01*
X70534560Y-160252724D01*
X70263554Y-159955445D01*
X69966275Y-159684439D01*
X69645254Y-159442016D01*
X69434292Y-159311394D01*
X69303234Y-159230246D01*
X69181013Y-159169387D01*
X68943139Y-159050939D01*
X68568019Y-158905617D01*
X68181120Y-158795536D01*
X68181113Y-158795534D01*
X67819826Y-158727997D01*
X67785686Y-158721616D01*
X67385137Y-158684500D01*
X67385136Y-158684500D01*
X67242488Y-158684500D01*
X48541624Y-158684500D01*
X48531386Y-158684077D01*
X48528598Y-158683846D01*
X48492655Y-158680868D01*
X48492653Y-158680868D01*
X48454977Y-158690408D01*
X48444952Y-158692510D01*
X48406232Y-158698972D01*
X48379587Y-158709368D01*
X48346720Y-158730841D01*
X48337920Y-158736085D01*
X48303393Y-158754770D01*
X48281571Y-158773253D01*
X48257463Y-158804227D01*
X48250842Y-158812045D01*
X48224247Y-158840935D01*
X48209613Y-158865494D01*
X48208206Y-158869593D01*
X48200312Y-158892588D01*
X48196869Y-158902616D01*
X48193145Y-158912158D01*
X48177368Y-158948127D01*
X48171500Y-158976115D01*
X48171500Y-159015376D01*
X48171076Y-159025614D01*
X48170001Y-159038607D01*
X48167835Y-159064744D01*
X48171500Y-159094142D01*
X48171500Y-160060500D01*
X48154887Y-160122500D01*
X48109500Y-160167887D01*
X48047500Y-160184500D01*
X45641624Y-160184500D01*
X45631386Y-160184077D01*
X45628598Y-160183846D01*
X45592655Y-160180868D01*
X45592653Y-160180868D01*
X45554977Y-160190408D01*
X45544952Y-160192510D01*
X45506232Y-160198972D01*
X45479587Y-160209368D01*
X45446720Y-160230841D01*
X45437920Y-160236085D01*
X45403393Y-160254770D01*
X45381571Y-160273253D01*
X45357463Y-160304227D01*
X45350842Y-160312045D01*
X45324247Y-160340935D01*
X45309613Y-160365494D01*
X45309483Y-160365874D01*
X45300312Y-160392588D01*
X45296869Y-160402616D01*
X45293145Y-160412158D01*
X45277368Y-160448127D01*
X45271500Y-160476115D01*
X45271500Y-160515376D01*
X45271076Y-160525614D01*
X45268622Y-160555251D01*
X45267835Y-160564744D01*
X45271500Y-160594142D01*
X45271500Y-161922128D01*
X45271368Y-161927855D01*
X45254916Y-162283690D01*
X45253859Y-162295094D01*
X45205043Y-162645044D01*
X45202938Y-162656303D01*
X45122043Y-163000248D01*
X45118909Y-163011264D01*
X45006619Y-163346293D01*
X45002481Y-163356973D01*
X44859764Y-163680196D01*
X44854659Y-163690449D01*
X44682724Y-163999131D01*
X44676695Y-164008869D01*
X44477009Y-164300374D01*
X44470107Y-164309514D01*
X44244373Y-164581356D01*
X44236656Y-164589820D01*
X43986820Y-164839656D01*
X43978356Y-164847373D01*
X43706514Y-165073107D01*
X43697374Y-165080009D01*
X43405869Y-165279695D01*
X43396131Y-165285724D01*
X43087449Y-165457659D01*
X43077196Y-165462764D01*
X42753973Y-165605481D01*
X42743293Y-165609619D01*
X42408264Y-165721909D01*
X42397248Y-165725043D01*
X42053303Y-165805938D01*
X42042044Y-165808043D01*
X41692094Y-165856859D01*
X41680690Y-165857916D01*
X41327727Y-165874235D01*
X41316273Y-165874235D01*
X40963309Y-165857916D01*
X40951905Y-165856859D01*
X40601955Y-165808043D01*
X40590696Y-165805938D01*
X40246751Y-165725043D01*
X40235735Y-165721909D01*
X39900706Y-165609619D01*
X39890026Y-165605481D01*
X39877613Y-165600000D01*
X39566799Y-165462762D01*
X39556555Y-165457661D01*
X39375786Y-165356974D01*
X39247868Y-165285724D01*
X39238130Y-165279695D01*
X38946625Y-165080009D01*
X38937485Y-165073107D01*
X38665643Y-164847373D01*
X38657179Y-164839656D01*
X38407343Y-164589820D01*
X38399626Y-164581356D01*
X38173890Y-164309511D01*
X38166990Y-164300374D01*
X38132140Y-164249500D01*
X38091024Y-164189478D01*
X37967304Y-164008869D01*
X37961275Y-163999131D01*
X37923710Y-163931689D01*
X37789333Y-163690436D01*
X37784241Y-163680209D01*
X37641513Y-163356960D01*
X37637385Y-163346306D01*
X37525086Y-163011251D01*
X37521959Y-163000261D01*
X37441059Y-162656295D01*
X37438956Y-162645044D01*
X37423269Y-162532590D01*
X37390139Y-162295086D01*
X37389083Y-162283690D01*
X37388126Y-162263000D01*
X37372632Y-161927855D01*
X37372566Y-161925000D01*
X40016531Y-161925000D01*
X40036364Y-162151689D01*
X40095261Y-162371497D01*
X40191432Y-162577735D01*
X40321953Y-162764140D01*
X40482859Y-162925046D01*
X40669264Y-163055567D01*
X40669265Y-163055567D01*
X40669266Y-163055568D01*
X40875504Y-163151739D01*
X41095308Y-163210635D01*
X41180261Y-163218067D01*
X41265214Y-163225500D01*
X41265216Y-163225500D01*
X41378784Y-163225500D01*
X41378786Y-163225500D01*
X41446747Y-163219553D01*
X41548692Y-163210635D01*
X41768496Y-163151739D01*
X41974734Y-163055568D01*
X42161139Y-162925047D01*
X42322047Y-162764139D01*
X42452568Y-162577734D01*
X42548739Y-162371496D01*
X42607635Y-162151692D01*
X42627468Y-161925000D01*
X42607635Y-161698308D01*
X42548739Y-161478504D01*
X42452568Y-161272266D01*
X42441648Y-161256671D01*
X42322046Y-161085859D01*
X42161140Y-160924953D01*
X41974735Y-160794432D01*
X41768497Y-160698261D01*
X41548689Y-160639364D01*
X41378786Y-160624500D01*
X41378784Y-160624500D01*
X41265216Y-160624500D01*
X41265214Y-160624500D01*
X41095310Y-160639364D01*
X40875502Y-160698261D01*
X40669264Y-160794432D01*
X40482859Y-160924953D01*
X40321953Y-161085859D01*
X40191432Y-161272264D01*
X40095261Y-161478502D01*
X40036364Y-161698310D01*
X40016531Y-161925000D01*
X37372566Y-161925000D01*
X37372500Y-161922128D01*
X37372500Y-154939999D01*
X76224815Y-154939999D01*
X76243503Y-155117804D01*
X76298749Y-155287835D01*
X76388140Y-155442665D01*
X76486063Y-155551418D01*
X76505605Y-155573122D01*
X76507771Y-155575527D01*
X76652403Y-155680610D01*
X76815735Y-155753330D01*
X76990607Y-155790500D01*
X76990609Y-155790500D01*
X77169391Y-155790500D01*
X77169393Y-155790500D01*
X77344264Y-155753330D01*
X77344265Y-155753329D01*
X77344267Y-155753329D01*
X77507593Y-155680612D01*
X77652230Y-155575526D01*
X77771859Y-155442665D01*
X77861250Y-155287835D01*
X77916497Y-155117803D01*
X77935185Y-154940000D01*
X77930981Y-154900000D01*
X78524815Y-154900000D01*
X78543503Y-155077804D01*
X78598749Y-155247835D01*
X78688140Y-155402665D01*
X78807771Y-155535527D01*
X78952403Y-155640610D01*
X78952406Y-155640611D01*
X78952407Y-155640612D01*
X79042249Y-155680612D01*
X79115735Y-155713330D01*
X79290607Y-155750500D01*
X79290609Y-155750500D01*
X79469391Y-155750500D01*
X79469393Y-155750500D01*
X79644264Y-155713330D01*
X79644265Y-155713329D01*
X79644267Y-155713329D01*
X79807593Y-155640612D01*
X79821042Y-155630841D01*
X79904400Y-155570277D01*
X79952230Y-155535526D01*
X80071859Y-155402665D01*
X80161250Y-155247835D01*
X80216497Y-155077803D01*
X80235185Y-154900000D01*
X80216497Y-154722197D01*
X80161250Y-154552165D01*
X80161250Y-154552164D01*
X80071859Y-154397334D01*
X79988002Y-154304203D01*
X80434899Y-154304203D01*
X80454465Y-154477860D01*
X80512184Y-154642809D01*
X80605159Y-154790779D01*
X80728730Y-154914350D01*
X80876700Y-155007325D01*
X81041649Y-155065044D01*
X81215307Y-155084610D01*
X81388964Y-155065044D01*
X81553913Y-155007325D01*
X81577727Y-154992362D01*
X81679529Y-154928397D01*
X81742023Y-154909440D01*
X81805482Y-154924864D01*
X81852303Y-154970390D01*
X81869500Y-155033391D01*
X81869500Y-155555963D01*
X81866239Y-155584214D01*
X81775982Y-155969954D01*
X81775684Y-155972039D01*
X81769976Y-155995427D01*
X81759158Y-156026342D01*
X81739592Y-156200000D01*
X81759158Y-156373657D01*
X81816877Y-156538606D01*
X81909852Y-156686576D01*
X82033423Y-156810147D01*
X82181393Y-156903122D01*
X82346342Y-156960841D01*
X82520000Y-156980407D01*
X82693657Y-156960841D01*
X82858606Y-156903122D01*
X83006576Y-156810147D01*
X83130147Y-156686576D01*
X83223122Y-156538606D01*
X83280841Y-156373657D01*
X83300407Y-156200000D01*
X83280841Y-156026343D01*
X83270022Y-155995427D01*
X83264313Y-155972026D01*
X83264016Y-155969949D01*
X83209528Y-155737079D01*
X83182133Y-155620000D01*
X89304722Y-155620000D01*
X89323792Y-155837974D01*
X89380425Y-156049331D01*
X89422637Y-156139855D01*
X89472898Y-156247639D01*
X89598402Y-156426877D01*
X89753123Y-156581598D01*
X89932361Y-156707102D01*
X90130670Y-156799575D01*
X90342023Y-156856207D01*
X90560000Y-156875277D01*
X90777977Y-156856207D01*
X90989330Y-156799575D01*
X91187639Y-156707102D01*
X91366877Y-156581598D01*
X91521598Y-156426877D01*
X91647102Y-156247639D01*
X91739575Y-156049330D01*
X91796207Y-155837977D01*
X91815277Y-155620000D01*
X91796207Y-155402023D01*
X91739575Y-155190670D01*
X91647102Y-154992362D01*
X91521598Y-154813123D01*
X91366877Y-154658402D01*
X91187639Y-154532898D01*
X91066620Y-154476466D01*
X90989331Y-154440425D01*
X90777974Y-154383792D01*
X90560000Y-154364722D01*
X90342025Y-154383792D01*
X90130668Y-154440425D01*
X89932361Y-154532898D01*
X89753122Y-154658402D01*
X89598402Y-154813122D01*
X89472898Y-154992361D01*
X89380425Y-155190668D01*
X89323792Y-155402025D01*
X89304722Y-155620000D01*
X83182133Y-155620000D01*
X83173760Y-155584214D01*
X83170500Y-155555964D01*
X83170500Y-154721164D01*
X83184870Y-154663223D01*
X83224649Y-154618710D01*
X83280617Y-154597944D01*
X83298823Y-154595892D01*
X83343657Y-154590841D01*
X83374575Y-154580021D01*
X83397978Y-154574312D01*
X83400047Y-154574017D01*
X83785782Y-154483760D01*
X83814033Y-154480500D01*
X86395166Y-154480500D01*
X86414564Y-154482026D01*
X86435520Y-154485346D01*
X86480968Y-154481049D01*
X86492636Y-154480500D01*
X86497037Y-154480500D01*
X86497041Y-154480500D01*
X86525657Y-154476884D01*
X86529403Y-154476471D01*
X86599145Y-154469879D01*
X86599146Y-154469878D01*
X86601744Y-154469633D01*
X86616754Y-154466028D01*
X86619169Y-154465071D01*
X86619174Y-154465071D01*
X86684291Y-154439287D01*
X86687934Y-154437912D01*
X86689540Y-154437334D01*
X86753784Y-154414206D01*
X86753786Y-154414204D01*
X86756229Y-154413325D01*
X86769884Y-154406096D01*
X86800581Y-154383793D01*
X86828675Y-154363381D01*
X86831775Y-154361202D01*
X86889718Y-154321825D01*
X86889721Y-154321821D01*
X86891873Y-154320359D01*
X86903296Y-154309965D01*
X86904950Y-154307964D01*
X86904953Y-154307963D01*
X86949601Y-154253990D01*
X86952118Y-154251045D01*
X86962807Y-154238920D01*
X86998407Y-154198541D01*
X86998408Y-154198537D01*
X87000125Y-154196591D01*
X87008611Y-154183674D01*
X87009716Y-154181326D01*
X87039537Y-154117950D01*
X87041219Y-154114516D01*
X87073023Y-154052100D01*
X87073024Y-154052094D01*
X87074202Y-154049783D01*
X87079208Y-154035162D01*
X87079693Y-154032615D01*
X87079695Y-154032613D01*
X87092819Y-153963811D01*
X87093609Y-153960000D01*
X87109443Y-153889165D01*
X87110655Y-153873768D01*
X87108039Y-153832197D01*
X87106095Y-153801294D01*
X87105912Y-153797414D01*
X87103631Y-153724830D01*
X87100975Y-153709614D01*
X87100172Y-153707143D01*
X87100172Y-153707140D01*
X87078535Y-153640548D01*
X87077395Y-153636843D01*
X87057860Y-153569601D01*
X87057858Y-153569598D01*
X87057134Y-153567105D01*
X87050775Y-153553020D01*
X87011882Y-153491735D01*
X87009846Y-153488413D01*
X86972877Y-153425903D01*
X86963210Y-153413837D01*
X86910282Y-153364134D01*
X86907485Y-153361423D01*
X86803873Y-153257811D01*
X86773131Y-153206900D01*
X86769631Y-153147531D01*
X86794176Y-153093360D01*
X86841119Y-153056850D01*
X86877593Y-153040612D01*
X87022230Y-152935526D01*
X87141859Y-152802665D01*
X87231250Y-152647835D01*
X87286497Y-152477803D01*
X87305185Y-152300000D01*
X87286497Y-152122197D01*
X87250495Y-152011394D01*
X87231250Y-151952164D01*
X87141859Y-151797334D01*
X87028679Y-151671636D01*
X87022230Y-151664474D01*
X87022229Y-151664473D01*
X87022228Y-151664472D01*
X86877596Y-151559389D01*
X86714264Y-151486669D01*
X86539393Y-151449500D01*
X86539391Y-151449500D01*
X86360609Y-151449500D01*
X86360607Y-151449500D01*
X86185735Y-151486669D01*
X86022408Y-151559387D01*
X85877768Y-151664474D01*
X85758141Y-151797333D01*
X85687133Y-151920323D01*
X85648636Y-151961424D01*
X85595931Y-151981261D01*
X85539887Y-151975741D01*
X85492065Y-151946003D01*
X84761302Y-151215240D01*
X84731942Y-151168514D01*
X84725763Y-151113676D01*
X84743986Y-151061593D01*
X84793393Y-150982960D01*
X84799146Y-150974593D01*
X84803766Y-150968432D01*
X85012705Y-150631848D01*
X85030369Y-150609575D01*
X85508126Y-150131818D01*
X85548354Y-150104939D01*
X85595807Y-150095500D01*
X89286119Y-150095500D01*
X89345762Y-150110786D01*
X89390699Y-150152875D01*
X89409853Y-150211390D01*
X89398501Y-150271904D01*
X89380426Y-150310665D01*
X89323792Y-150522025D01*
X89304722Y-150739999D01*
X89323792Y-150957974D01*
X89380425Y-151169331D01*
X89413705Y-151240700D01*
X89472898Y-151367639D01*
X89598402Y-151546877D01*
X89753123Y-151701598D01*
X89932361Y-151827102D01*
X90130670Y-151919575D01*
X90342023Y-151976207D01*
X90560000Y-151995277D01*
X90777977Y-151976207D01*
X90989330Y-151919575D01*
X91187639Y-151827102D01*
X91366877Y-151701598D01*
X91521598Y-151546877D01*
X91647102Y-151367639D01*
X91739575Y-151169330D01*
X91796207Y-150957977D01*
X91815277Y-150740000D01*
X91811709Y-150699222D01*
X91800440Y-150570407D01*
X91796207Y-150522023D01*
X91739575Y-150310670D01*
X91739573Y-150310665D01*
X91721499Y-150271904D01*
X91710147Y-150211390D01*
X91729301Y-150152875D01*
X91774238Y-150110786D01*
X91833881Y-150095500D01*
X94626709Y-150095500D01*
X94684650Y-150109870D01*
X94729163Y-150149649D01*
X94749929Y-150205617D01*
X94754158Y-150243155D01*
X94764975Y-150274068D01*
X94770682Y-150297454D01*
X94770979Y-150299533D01*
X94861239Y-150685285D01*
X94864500Y-150713536D01*
X94864500Y-168142234D01*
X94851712Y-168197078D01*
X94815987Y-168240610D01*
X94764691Y-168263851D01*
X94708407Y-168262009D01*
X94495407Y-168204936D01*
X94260000Y-168184340D01*
X94024592Y-168204936D01*
X93796336Y-168266097D01*
X93582170Y-168365965D01*
X93388598Y-168501505D01*
X93221505Y-168668598D01*
X93085965Y-168862170D01*
X92986097Y-169076336D01*
X92924936Y-169304592D01*
X92904340Y-169540000D01*
X92924936Y-169775407D01*
X92962695Y-169916324D01*
X92986097Y-170003663D01*
X93085965Y-170217830D01*
X93221505Y-170411401D01*
X93388599Y-170578495D01*
X93582170Y-170714035D01*
X93796337Y-170813903D01*
X93996538Y-170867546D01*
X94024592Y-170875063D01*
X94259999Y-170895659D01*
X94259999Y-170895658D01*
X94260000Y-170895659D01*
X94495408Y-170875063D01*
X94723663Y-170813903D01*
X94937830Y-170714035D01*
X95131401Y-170578495D01*
X95298495Y-170411401D01*
X95428426Y-170225839D01*
X95472743Y-170186975D01*
X95530000Y-170172964D01*
X95587257Y-170186975D01*
X95631573Y-170225839D01*
X95761505Y-170411401D01*
X95928599Y-170578495D01*
X96122170Y-170714035D01*
X96336337Y-170813903D01*
X96536538Y-170867546D01*
X96564592Y-170875063D01*
X96799999Y-170895659D01*
X96799999Y-170895658D01*
X96800000Y-170895659D01*
X97035408Y-170875063D01*
X97263663Y-170813903D01*
X97477830Y-170714035D01*
X97671401Y-170578495D01*
X97838495Y-170411401D01*
X97968426Y-170225839D01*
X98012743Y-170186975D01*
X98070000Y-170172964D01*
X98127257Y-170186975D01*
X98171573Y-170225839D01*
X98301505Y-170411401D01*
X98468599Y-170578495D01*
X98662170Y-170714035D01*
X98876337Y-170813903D01*
X99076538Y-170867546D01*
X99104592Y-170875063D01*
X99339999Y-170895659D01*
X99339999Y-170895658D01*
X99340000Y-170895659D01*
X99575408Y-170875063D01*
X99803663Y-170813903D01*
X100017830Y-170714035D01*
X100211401Y-170578495D01*
X100378495Y-170411401D01*
X100508426Y-170225839D01*
X100552743Y-170186975D01*
X100610000Y-170172964D01*
X100667257Y-170186975D01*
X100711573Y-170225839D01*
X100841505Y-170411401D01*
X101008599Y-170578495D01*
X101202170Y-170714035D01*
X101416337Y-170813903D01*
X101616538Y-170867546D01*
X101644592Y-170875063D01*
X101879999Y-170895659D01*
X101879999Y-170895658D01*
X101880000Y-170895659D01*
X102115408Y-170875063D01*
X102343663Y-170813903D01*
X102557830Y-170714035D01*
X102751401Y-170578495D01*
X102873329Y-170456566D01*
X102926072Y-170425273D01*
X102987365Y-170423084D01*
X103042209Y-170450537D01*
X103077189Y-170500916D01*
X103091204Y-170538491D01*
X103126204Y-170632331D01*
X103212454Y-170747546D01*
X103327669Y-170833796D01*
X103462517Y-170884091D01*
X103522127Y-170890500D01*
X105317872Y-170890499D01*
X105377483Y-170884091D01*
X105512331Y-170833796D01*
X105627546Y-170747546D01*
X105713796Y-170632331D01*
X105764091Y-170497483D01*
X105770500Y-170437873D01*
X105770500Y-169660000D01*
X110134340Y-169660000D01*
X110154936Y-169895407D01*
X110175468Y-169972032D01*
X110216097Y-170123663D01*
X110315965Y-170337830D01*
X110451505Y-170531401D01*
X110618599Y-170698495D01*
X110812170Y-170834035D01*
X111026337Y-170933903D01*
X111254592Y-170995063D01*
X111490000Y-171015659D01*
X111725408Y-170995063D01*
X111953663Y-170933903D01*
X112167830Y-170834035D01*
X112361401Y-170698495D01*
X112483329Y-170576566D01*
X112536072Y-170545273D01*
X112597365Y-170543084D01*
X112652209Y-170570537D01*
X112687189Y-170620916D01*
X112707836Y-170676272D01*
X112736204Y-170752331D01*
X112822454Y-170867546D01*
X112937669Y-170953796D01*
X113072517Y-171004091D01*
X113132127Y-171010500D01*
X114927872Y-171010499D01*
X114987483Y-171004091D01*
X115122331Y-170953796D01*
X115237546Y-170867546D01*
X115323796Y-170752331D01*
X115374091Y-170617483D01*
X115380500Y-170557873D01*
X115380499Y-168762128D01*
X115374091Y-168702517D01*
X115323796Y-168567669D01*
X115237546Y-168452454D01*
X115122331Y-168366204D01*
X114987483Y-168315909D01*
X114927873Y-168309500D01*
X114927869Y-168309500D01*
X113132130Y-168309500D01*
X113072515Y-168315909D01*
X112937669Y-168366204D01*
X112822454Y-168452454D01*
X112736204Y-168567669D01*
X112687189Y-168699083D01*
X112652209Y-168749462D01*
X112597365Y-168776915D01*
X112536072Y-168774726D01*
X112483326Y-168743430D01*
X112361404Y-168621508D01*
X112361401Y-168621505D01*
X112167830Y-168485965D01*
X111953663Y-168386097D01*
X111892502Y-168369709D01*
X111725407Y-168324936D01*
X111490000Y-168304340D01*
X111254592Y-168324936D01*
X111026336Y-168386097D01*
X110812170Y-168485965D01*
X110618598Y-168621505D01*
X110451505Y-168788598D01*
X110315965Y-168982170D01*
X110216097Y-169196336D01*
X110154936Y-169424592D01*
X110134340Y-169660000D01*
X105770500Y-169660000D01*
X105770499Y-168642128D01*
X105764091Y-168582517D01*
X105713796Y-168447669D01*
X105627546Y-168332454D01*
X105512331Y-168246204D01*
X105377483Y-168195909D01*
X105317873Y-168189500D01*
X105317869Y-168189500D01*
X103522130Y-168189500D01*
X103462515Y-168195909D01*
X103327669Y-168246204D01*
X103212454Y-168332454D01*
X103126204Y-168447669D01*
X103077189Y-168579083D01*
X103042209Y-168629462D01*
X102987365Y-168656915D01*
X102926072Y-168654726D01*
X102873326Y-168623430D01*
X102751404Y-168501508D01*
X102751401Y-168501505D01*
X102557830Y-168365965D01*
X102343663Y-168266097D01*
X102282501Y-168249709D01*
X102115407Y-168204936D01*
X101880000Y-168184340D01*
X101644592Y-168204936D01*
X101416336Y-168266097D01*
X101202170Y-168365965D01*
X101008598Y-168501505D01*
X100841505Y-168668598D01*
X100711575Y-168854159D01*
X100667257Y-168893025D01*
X100610000Y-168907036D01*
X100552743Y-168893025D01*
X100508425Y-168854159D01*
X100480417Y-168814159D01*
X100378495Y-168668599D01*
X100211401Y-168501505D01*
X100017830Y-168365965D01*
X99803663Y-168266097D01*
X99742501Y-168249709D01*
X99575407Y-168204936D01*
X99340000Y-168184340D01*
X99104592Y-168204936D01*
X98876336Y-168266097D01*
X98662170Y-168365965D01*
X98468598Y-168501505D01*
X98301505Y-168668598D01*
X98171575Y-168854159D01*
X98127257Y-168893025D01*
X98070000Y-168907036D01*
X98012743Y-168893025D01*
X97968425Y-168854159D01*
X97940417Y-168814159D01*
X97838495Y-168668599D01*
X97671401Y-168501505D01*
X97477830Y-168365965D01*
X97356741Y-168309500D01*
X97315730Y-168290376D01*
X97310140Y-168287596D01*
X97288384Y-168276084D01*
X97277603Y-168272117D01*
X97268026Y-168268131D01*
X97263663Y-168266097D01*
X97263664Y-168266097D01*
X97263657Y-168266094D01*
X97260151Y-168265155D01*
X97249439Y-168261757D01*
X96257984Y-167897033D01*
X96249740Y-167894000D01*
X124170531Y-167894000D01*
X124190364Y-168120689D01*
X124249261Y-168340497D01*
X124345432Y-168546735D01*
X124475953Y-168733140D01*
X124636859Y-168894046D01*
X124823264Y-169024567D01*
X124823265Y-169024567D01*
X124823266Y-169024568D01*
X125029504Y-169120739D01*
X125249308Y-169179635D01*
X125334261Y-169187067D01*
X125419214Y-169194500D01*
X125419216Y-169194500D01*
X125532784Y-169194500D01*
X125532786Y-169194500D01*
X125600747Y-169188553D01*
X125702692Y-169179635D01*
X125922496Y-169120739D01*
X126128734Y-169024568D01*
X126315139Y-168894047D01*
X126476047Y-168733139D01*
X126606568Y-168546734D01*
X126702739Y-168340496D01*
X126761635Y-168120692D01*
X126781468Y-167894000D01*
X126761635Y-167667308D01*
X126702739Y-167447504D01*
X126606568Y-167241266D01*
X126476047Y-167054861D01*
X126476046Y-167054859D01*
X126315140Y-166893953D01*
X126128735Y-166763432D01*
X125922497Y-166667261D01*
X125702689Y-166608364D01*
X125532786Y-166593500D01*
X125532784Y-166593500D01*
X125419216Y-166593500D01*
X125419214Y-166593500D01*
X125249310Y-166608364D01*
X125029502Y-166667261D01*
X124823264Y-166763432D01*
X124636859Y-166893953D01*
X124475953Y-167054859D01*
X124345432Y-167241264D01*
X124249261Y-167447502D01*
X124190364Y-167667310D01*
X124170531Y-167894000D01*
X96249740Y-167894000D01*
X96246688Y-167892877D01*
X96204200Y-167866502D01*
X96175585Y-167825486D01*
X96165500Y-167776503D01*
X96165500Y-159650000D01*
X102459592Y-159650000D01*
X102479158Y-159823657D01*
X102536877Y-159988606D01*
X102629852Y-160136576D01*
X102753421Y-160260145D01*
X102861996Y-160328367D01*
X102870407Y-160334149D01*
X102876558Y-160338760D01*
X102876563Y-160338763D01*
X102876567Y-160338766D01*
X103209639Y-160545526D01*
X103213146Y-160547703D01*
X103235428Y-160565374D01*
X106153181Y-163483126D01*
X106180061Y-163523354D01*
X106189500Y-163570807D01*
X106189500Y-166005963D01*
X106186239Y-166034214D01*
X106095982Y-166419954D01*
X106095684Y-166422039D01*
X106089976Y-166445427D01*
X106079158Y-166476342D01*
X106059592Y-166650000D01*
X106079158Y-166823657D01*
X106136877Y-166988606D01*
X106229852Y-167136576D01*
X106353423Y-167260147D01*
X106501393Y-167353122D01*
X106666342Y-167410841D01*
X106840000Y-167430407D01*
X107013657Y-167410841D01*
X107178606Y-167353122D01*
X107326576Y-167260147D01*
X107450147Y-167136576D01*
X107543122Y-166988606D01*
X107600841Y-166823657D01*
X107620407Y-166650000D01*
X107600841Y-166476343D01*
X107590022Y-166445427D01*
X107584313Y-166422026D01*
X107584016Y-166419949D01*
X107493761Y-166034215D01*
X107490500Y-166005964D01*
X107490500Y-165599999D01*
X116464340Y-165599999D01*
X116484936Y-165835407D01*
X116529709Y-166002501D01*
X116546097Y-166063663D01*
X116645965Y-166277830D01*
X116781505Y-166471401D01*
X116948599Y-166638495D01*
X117142170Y-166774035D01*
X117356337Y-166873903D01*
X117584592Y-166935063D01*
X117820000Y-166955659D01*
X118055408Y-166935063D01*
X118283663Y-166873903D01*
X118497830Y-166774035D01*
X118691401Y-166638495D01*
X118813329Y-166516566D01*
X118866072Y-166485273D01*
X118927365Y-166483084D01*
X118982209Y-166510537D01*
X119017189Y-166560916D01*
X119028379Y-166590917D01*
X119066204Y-166692331D01*
X119152454Y-166807546D01*
X119267669Y-166893796D01*
X119402517Y-166944091D01*
X119462127Y-166950500D01*
X121257872Y-166950499D01*
X121317483Y-166944091D01*
X121452331Y-166893796D01*
X121567546Y-166807546D01*
X121653796Y-166692331D01*
X121704091Y-166557483D01*
X121710500Y-166497873D01*
X121710499Y-164702128D01*
X121704091Y-164642517D01*
X121653796Y-164507669D01*
X121567546Y-164392454D01*
X121452331Y-164306204D01*
X121317483Y-164255909D01*
X121257873Y-164249500D01*
X121257869Y-164249500D01*
X119462130Y-164249500D01*
X119402515Y-164255909D01*
X119267669Y-164306204D01*
X119152454Y-164392454D01*
X119066204Y-164507669D01*
X119017189Y-164639083D01*
X118982209Y-164689462D01*
X118927365Y-164716915D01*
X118866072Y-164714726D01*
X118813326Y-164683430D01*
X118691404Y-164561508D01*
X118691403Y-164561507D01*
X118691401Y-164561505D01*
X118497830Y-164425965D01*
X118283663Y-164326097D01*
X118221774Y-164309514D01*
X118055407Y-164264936D01*
X117820000Y-164244340D01*
X117584592Y-164264936D01*
X117356336Y-164326097D01*
X117142170Y-164425965D01*
X116948598Y-164561505D01*
X116781505Y-164728598D01*
X116645965Y-164922170D01*
X116546097Y-165136336D01*
X116484936Y-165364592D01*
X116464340Y-165599999D01*
X107490500Y-165599999D01*
X107490500Y-163335505D01*
X107492841Y-163314294D01*
X107490561Y-163241724D01*
X107490500Y-163237829D01*
X107490500Y-163209082D01*
X107490500Y-163209075D01*
X107489947Y-163204700D01*
X107489031Y-163193063D01*
X107487598Y-163147431D01*
X107481677Y-163127051D01*
X107477730Y-163108001D01*
X107475071Y-163086942D01*
X107458264Y-163044493D01*
X107454481Y-163033445D01*
X107446496Y-163005960D01*
X107441744Y-162989602D01*
X107430937Y-162971329D01*
X107422382Y-162953866D01*
X107414568Y-162934129D01*
X107387733Y-162897193D01*
X107381325Y-162887436D01*
X107358084Y-162848138D01*
X107358081Y-162848135D01*
X107343068Y-162833122D01*
X107330435Y-162818330D01*
X107324826Y-162810610D01*
X107317963Y-162801163D01*
X107287031Y-162775574D01*
X107282779Y-162772056D01*
X107274140Y-162764194D01*
X106579946Y-162070000D01*
X117904815Y-162070000D01*
X117923503Y-162247804D01*
X117978749Y-162417835D01*
X118068140Y-162572665D01*
X118187771Y-162705527D01*
X118332403Y-162810610D01*
X118332406Y-162810611D01*
X118332407Y-162810612D01*
X118384630Y-162833863D01*
X118495735Y-162883330D01*
X118670607Y-162920500D01*
X118670609Y-162920500D01*
X118849391Y-162920500D01*
X118849393Y-162920500D01*
X119024262Y-162883330D01*
X119024261Y-162883330D01*
X119024267Y-162883329D01*
X119187593Y-162810612D01*
X119227760Y-162781428D01*
X119274862Y-162760456D01*
X119326425Y-162760456D01*
X119360382Y-162775574D01*
X119360500Y-162775311D01*
X119535735Y-162853330D01*
X119710607Y-162890500D01*
X119710609Y-162890500D01*
X119889391Y-162890500D01*
X119889393Y-162890500D01*
X120064264Y-162853330D01*
X120064265Y-162853329D01*
X120064267Y-162853329D01*
X120227593Y-162780612D01*
X120372230Y-162675526D01*
X120491859Y-162542665D01*
X120581250Y-162387835D01*
X120636497Y-162217803D01*
X120655185Y-162040000D01*
X120636497Y-161862197D01*
X120590998Y-161722165D01*
X120581250Y-161692164D01*
X120491859Y-161537334D01*
X120372228Y-161404472D01*
X120227596Y-161299389D01*
X120064264Y-161226669D01*
X119889393Y-161189500D01*
X119889391Y-161189500D01*
X119710609Y-161189500D01*
X119710607Y-161189500D01*
X119535735Y-161226669D01*
X119372409Y-161299387D01*
X119356821Y-161310712D01*
X119332238Y-161328572D01*
X119285136Y-161349543D01*
X119233574Y-161349543D01*
X119199617Y-161334424D01*
X119199500Y-161334689D01*
X119024264Y-161256669D01*
X118849393Y-161219500D01*
X118849391Y-161219500D01*
X118670609Y-161219500D01*
X118670607Y-161219500D01*
X118495735Y-161256669D01*
X118332408Y-161329387D01*
X118187768Y-161434474D01*
X118068140Y-161567334D01*
X117978749Y-161722164D01*
X117923503Y-161892195D01*
X117904815Y-162070000D01*
X106579946Y-162070000D01*
X104419946Y-159910000D01*
X112564815Y-159910000D01*
X112583503Y-160087804D01*
X112638749Y-160257835D01*
X112728140Y-160412665D01*
X112847771Y-160545527D01*
X112992403Y-160650610D01*
X113155735Y-160723330D01*
X113330607Y-160760500D01*
X113330609Y-160760500D01*
X113509391Y-160760500D01*
X113509393Y-160760500D01*
X113684264Y-160723330D01*
X113684265Y-160723329D01*
X113684267Y-160723329D01*
X113847593Y-160650612D01*
X113863075Y-160639364D01*
X113925316Y-160594142D01*
X113992230Y-160545526D01*
X114111859Y-160412665D01*
X114201250Y-160257835D01*
X114256497Y-160087803D01*
X114275185Y-159910000D01*
X114256497Y-159732197D01*
X114201250Y-159562165D01*
X114201250Y-159562164D01*
X114111859Y-159407334D01*
X114003119Y-159286567D01*
X113992230Y-159274474D01*
X113992229Y-159274473D01*
X113992228Y-159274472D01*
X113847596Y-159169389D01*
X113684264Y-159096669D01*
X113509393Y-159059500D01*
X113509391Y-159059500D01*
X113330609Y-159059500D01*
X113330607Y-159059500D01*
X113155735Y-159096669D01*
X112992408Y-159169387D01*
X112847768Y-159274474D01*
X112728140Y-159407334D01*
X112638749Y-159562164D01*
X112583503Y-159732195D01*
X112564815Y-159910000D01*
X104419946Y-159910000D01*
X104155374Y-159645428D01*
X104137703Y-159623146D01*
X104049095Y-159480407D01*
X103928766Y-159286567D01*
X103928763Y-159286563D01*
X103928760Y-159286558D01*
X103924149Y-159280407D01*
X103918367Y-159271996D01*
X103850145Y-159163421D01*
X103726576Y-159039852D01*
X103578606Y-158946877D01*
X103413657Y-158889158D01*
X103240000Y-158869592D01*
X103066342Y-158889158D01*
X102901393Y-158946877D01*
X102753423Y-159039852D01*
X102629852Y-159163423D01*
X102536877Y-159311393D01*
X102479158Y-159476342D01*
X102459592Y-159650000D01*
X96165500Y-159650000D01*
X96165500Y-157110000D01*
X100039592Y-157110000D01*
X100059158Y-157283657D01*
X100116877Y-157448606D01*
X100209852Y-157596576D01*
X100333423Y-157720147D01*
X100481393Y-157813122D01*
X100646342Y-157870841D01*
X100820000Y-157890407D01*
X100993657Y-157870841D01*
X101158606Y-157813122D01*
X101272473Y-157741575D01*
X101306573Y-157720149D01*
X101306573Y-157720148D01*
X101306576Y-157720147D01*
X101371986Y-157654736D01*
X101425337Y-157623266D01*
X101487258Y-157621528D01*
X101542292Y-157649959D01*
X101576707Y-157701463D01*
X101596878Y-157759107D01*
X101689852Y-157907076D01*
X101813423Y-158030647D01*
X101961393Y-158123622D01*
X102126342Y-158181341D01*
X102299999Y-158200907D01*
X102299999Y-158200906D01*
X102300000Y-158200907D01*
X102473657Y-158181341D01*
X102638606Y-158123622D01*
X102786576Y-158030647D01*
X102835064Y-157982157D01*
X102843950Y-157974095D01*
X102872919Y-157950274D01*
X103081120Y-157726308D01*
X103127797Y-157694859D01*
X103183571Y-157687284D01*
X103236948Y-157705146D01*
X103276930Y-157744764D01*
X103284352Y-157756576D01*
X103407923Y-157880147D01*
X103555893Y-157973122D01*
X103720842Y-158030841D01*
X103894500Y-158050407D01*
X104068157Y-158030841D01*
X104099075Y-158020021D01*
X104122476Y-158014313D01*
X104124547Y-158014017D01*
X104124557Y-158014014D01*
X104128117Y-158013506D01*
X104192980Y-158021647D01*
X104244689Y-158061642D01*
X104268873Y-158122375D01*
X104279158Y-158213657D01*
X104336877Y-158378606D01*
X104429852Y-158526576D01*
X104553423Y-158650147D01*
X104701393Y-158743122D01*
X104866342Y-158800841D01*
X105053884Y-158821972D01*
X105053845Y-158822317D01*
X105093281Y-158826759D01*
X105140010Y-158856119D01*
X105169372Y-158902846D01*
X105216878Y-159038607D01*
X105309852Y-159186576D01*
X105433423Y-159310147D01*
X105581393Y-159403122D01*
X105746342Y-159460841D01*
X105920000Y-159480407D01*
X106093657Y-159460841D01*
X106258606Y-159403122D01*
X106406576Y-159310147D01*
X106530147Y-159186576D01*
X106623122Y-159038606D01*
X106680841Y-158873657D01*
X106700407Y-158700000D01*
X106698613Y-158684077D01*
X106698242Y-158680781D01*
X106701980Y-158633730D01*
X106723030Y-158591484D01*
X106758341Y-158560165D01*
X106761865Y-158558081D01*
X106776874Y-158543071D01*
X106791663Y-158530439D01*
X106808837Y-158517963D01*
X106837946Y-158482774D01*
X106845790Y-158474154D01*
X109953126Y-155366819D01*
X109993355Y-155339939D01*
X110040808Y-155330500D01*
X113519192Y-155330500D01*
X113566645Y-155339939D01*
X113606873Y-155366819D01*
X115489597Y-157249543D01*
X115503149Y-157265615D01*
X115777879Y-157653996D01*
X115781640Y-157659633D01*
X115804854Y-157696578D01*
X115825660Y-157717384D01*
X115833766Y-157726319D01*
X115846308Y-157741575D01*
X115883257Y-157775177D01*
X115887512Y-157779235D01*
X115928424Y-157820147D01*
X116076393Y-157913122D01*
X116241342Y-157970841D01*
X116415000Y-157990407D01*
X116588657Y-157970841D01*
X116753606Y-157913122D01*
X116901576Y-157820147D01*
X117025147Y-157696576D01*
X117034565Y-157681586D01*
X117079725Y-157638949D01*
X117139897Y-157623557D01*
X117199984Y-157639275D01*
X117244911Y-157682157D01*
X117351233Y-157853432D01*
X117355857Y-157859599D01*
X117361622Y-157867985D01*
X117413327Y-157950274D01*
X117429855Y-157976579D01*
X117553423Y-158100147D01*
X117701393Y-158193122D01*
X117866342Y-158250841D01*
X118040000Y-158270407D01*
X118213657Y-158250841D01*
X118378606Y-158193122D01*
X118526576Y-158100147D01*
X118650147Y-157976576D01*
X118743122Y-157828606D01*
X118800841Y-157663657D01*
X118813804Y-157548606D01*
X118820997Y-157484767D01*
X118839224Y-157432677D01*
X118878247Y-157393655D01*
X118931576Y-157360147D01*
X119055147Y-157236576D01*
X119148122Y-157088606D01*
X119205841Y-156923657D01*
X119225407Y-156750000D01*
X119221731Y-156717378D01*
X119205841Y-156576342D01*
X119148122Y-156411393D01*
X119055147Y-156263423D01*
X118931579Y-156139855D01*
X118931576Y-156139853D01*
X118822985Y-156071622D01*
X118814599Y-156065857D01*
X118808432Y-156061233D01*
X118789259Y-156049331D01*
X118471852Y-155852295D01*
X118449570Y-155834624D01*
X118352025Y-155737079D01*
X118318692Y-155676447D01*
X118323037Y-155607394D01*
X118363707Y-155551418D01*
X118428038Y-155525948D01*
X118434401Y-155525346D01*
X118434405Y-155525347D01*
X118470572Y-155521928D01*
X118479862Y-155521050D01*
X118491530Y-155520500D01*
X119405966Y-155520500D01*
X119434216Y-155523760D01*
X119819952Y-155614017D01*
X119822019Y-155614312D01*
X119845429Y-155620023D01*
X119876343Y-155630841D01*
X120049999Y-155650407D01*
X120049999Y-155650406D01*
X120050000Y-155650407D01*
X120223657Y-155630841D01*
X120388606Y-155573122D01*
X120536576Y-155480147D01*
X120660147Y-155356576D01*
X120753122Y-155208606D01*
X120810841Y-155043657D01*
X120830407Y-154870000D01*
X120810841Y-154696343D01*
X120792108Y-154642809D01*
X120763579Y-154561277D01*
X120757162Y-154508745D01*
X120773231Y-154458326D01*
X120831250Y-154357835D01*
X120886497Y-154187803D01*
X120905185Y-154010000D01*
X120886497Y-153832197D01*
X120831250Y-153662165D01*
X120831250Y-153662164D01*
X120741859Y-153507334D01*
X120622228Y-153374472D01*
X120477596Y-153269389D01*
X120314264Y-153196669D01*
X120139393Y-153159500D01*
X120139391Y-153159500D01*
X119960609Y-153159500D01*
X119960607Y-153159500D01*
X119785735Y-153196669D01*
X119622408Y-153269387D01*
X119477768Y-153374474D01*
X119358140Y-153507334D01*
X119268749Y-153662164D01*
X119213503Y-153832195D01*
X119200070Y-153960000D01*
X119194815Y-154010000D01*
X119202439Y-154082541D01*
X119190570Y-154149858D01*
X119144829Y-154200658D01*
X119079119Y-154219500D01*
X118775808Y-154219500D01*
X118728355Y-154210061D01*
X118688127Y-154183181D01*
X115890434Y-151385488D01*
X115877091Y-151368833D01*
X115824166Y-151319134D01*
X115821369Y-151316423D01*
X115801034Y-151296088D01*
X115797547Y-151293383D01*
X115788671Y-151285801D01*
X115755394Y-151254552D01*
X115736793Y-151244326D01*
X115720532Y-151233645D01*
X115703764Y-151220638D01*
X115680177Y-151210431D01*
X115661869Y-151202508D01*
X115651379Y-151197369D01*
X115611367Y-151175372D01*
X115590800Y-151170091D01*
X115572398Y-151163791D01*
X115552924Y-151155364D01*
X115507837Y-151148223D01*
X115496398Y-151145854D01*
X115452178Y-151134500D01*
X115452177Y-151134500D01*
X115430955Y-151134500D01*
X115411556Y-151132973D01*
X115390596Y-151129653D01*
X115390595Y-151129653D01*
X115368558Y-151131736D01*
X115345139Y-151133950D01*
X115333470Y-151134500D01*
X109753670Y-151134500D01*
X109706161Y-151122245D01*
X109658652Y-151134500D01*
X108170505Y-151134500D01*
X108149294Y-151132158D01*
X108076724Y-151134439D01*
X108072829Y-151134500D01*
X108044074Y-151134500D01*
X108039701Y-151135052D01*
X108028069Y-151135967D01*
X107982428Y-151137401D01*
X107962041Y-151143324D01*
X107942998Y-151147268D01*
X107921942Y-151149928D01*
X107879496Y-151166733D01*
X107868450Y-151170514D01*
X107824602Y-151183254D01*
X107806324Y-151194063D01*
X107788861Y-151202618D01*
X107769130Y-151210431D01*
X107732187Y-151237270D01*
X107722428Y-151243680D01*
X107683135Y-151266918D01*
X107668125Y-151281928D01*
X107653336Y-151294558D01*
X107636164Y-151307034D01*
X107607057Y-151342218D01*
X107599196Y-151350856D01*
X102399997Y-156550055D01*
X102351968Y-156579863D01*
X102044929Y-156683487D01*
X102020359Y-156695715D01*
X102006071Y-156701743D01*
X101961393Y-156717378D01*
X101813425Y-156810351D01*
X101748014Y-156875762D01*
X101694660Y-156907234D01*
X101632740Y-156908971D01*
X101577706Y-156880540D01*
X101543292Y-156829035D01*
X101523122Y-156771393D01*
X101430147Y-156623423D01*
X101306576Y-156499852D01*
X101158606Y-156406877D01*
X100993657Y-156349158D01*
X100820000Y-156329592D01*
X100646342Y-156349158D01*
X100481393Y-156406877D01*
X100333423Y-156499852D01*
X100209852Y-156623423D01*
X100116877Y-156771393D01*
X100059158Y-156936342D01*
X100039592Y-157110000D01*
X96165500Y-157110000D01*
X96165500Y-152490000D01*
X97119592Y-152490000D01*
X97139158Y-152663657D01*
X97196877Y-152828606D01*
X97289852Y-152976576D01*
X97413423Y-153100147D01*
X97561393Y-153193122D01*
X97726342Y-153250841D01*
X97900000Y-153270407D01*
X98073657Y-153250841D01*
X98238606Y-153193122D01*
X98386576Y-153100147D01*
X98510147Y-152976576D01*
X98603122Y-152828606D01*
X98660841Y-152663657D01*
X98680407Y-152490000D01*
X98678566Y-152473657D01*
X98660841Y-152316342D01*
X98603122Y-152151393D01*
X98510147Y-152003423D01*
X98386576Y-151879852D01*
X98238606Y-151786877D01*
X98073657Y-151729158D01*
X97900000Y-151709592D01*
X97726342Y-151729158D01*
X97561393Y-151786877D01*
X97413423Y-151879852D01*
X97289852Y-152003423D01*
X97196877Y-152151393D01*
X97139158Y-152316342D01*
X97119592Y-152490000D01*
X96165500Y-152490000D01*
X96165500Y-150713535D01*
X96168761Y-150685284D01*
X96259017Y-150299545D01*
X96259312Y-150297482D01*
X96265026Y-150274061D01*
X96275841Y-150243157D01*
X96280071Y-150205617D01*
X96300837Y-150149649D01*
X96345349Y-150109870D01*
X96403291Y-150095500D01*
X98314192Y-150095500D01*
X98361645Y-150104939D01*
X98401873Y-150131819D01*
X100624624Y-152354570D01*
X100642295Y-152376852D01*
X100820334Y-152663657D01*
X100851233Y-152713432D01*
X100855857Y-152719599D01*
X100861622Y-152727985D01*
X100908546Y-152802665D01*
X100929855Y-152836579D01*
X101053423Y-152960147D01*
X101201393Y-153053122D01*
X101366342Y-153110841D01*
X101540000Y-153130407D01*
X101713657Y-153110841D01*
X101878606Y-153053122D01*
X102026576Y-152960147D01*
X102150147Y-152836576D01*
X102243122Y-152688606D01*
X102300841Y-152523657D01*
X102320407Y-152350000D01*
X102316615Y-152316342D01*
X102314774Y-152300000D01*
X103669592Y-152300000D01*
X103689158Y-152473657D01*
X103746877Y-152638606D01*
X103839852Y-152786576D01*
X103963423Y-152910147D01*
X104111393Y-153003122D01*
X104276342Y-153060841D01*
X104450000Y-153080407D01*
X104623657Y-153060841D01*
X104788606Y-153003122D01*
X104936576Y-152910147D01*
X105060147Y-152786576D01*
X105153122Y-152638606D01*
X105210841Y-152473657D01*
X105230407Y-152300000D01*
X105210841Y-152126343D01*
X105209390Y-152122197D01*
X105153122Y-151961393D01*
X105060147Y-151813423D01*
X104936576Y-151689852D01*
X104788606Y-151596877D01*
X104623657Y-151539158D01*
X104450000Y-151519592D01*
X104276342Y-151539158D01*
X104111393Y-151596877D01*
X103963423Y-151689852D01*
X103839852Y-151813423D01*
X103746877Y-151961393D01*
X103689158Y-152126342D01*
X103669592Y-152300000D01*
X102314774Y-152300000D01*
X102300841Y-152176342D01*
X102243122Y-152011393D01*
X102150147Y-151863423D01*
X102026579Y-151739855D01*
X102009556Y-151729159D01*
X101917985Y-151671622D01*
X101909599Y-151665857D01*
X101903432Y-151661233D01*
X101799762Y-151596878D01*
X101690739Y-151529200D01*
X101644639Y-151478106D01*
X101632880Y-151410300D01*
X101659086Y-151346667D01*
X101715179Y-151306808D01*
X101868606Y-151253122D01*
X102016576Y-151160147D01*
X102140147Y-151036576D01*
X102233122Y-150888606D01*
X102290841Y-150723657D01*
X102310407Y-150550000D01*
X102296895Y-150430071D01*
X102290841Y-150376342D01*
X102233122Y-150211393D01*
X102140147Y-150063423D01*
X102016576Y-149939852D01*
X101868606Y-149846877D01*
X101703657Y-149789158D01*
X101530000Y-149769592D01*
X101356342Y-149789158D01*
X101191393Y-149846877D01*
X101043423Y-149939852D01*
X100919852Y-150063423D01*
X100826877Y-150211393D01*
X100764544Y-150389531D01*
X100763370Y-150389120D01*
X100743065Y-150438134D01*
X100687073Y-150477858D01*
X100618528Y-150481706D01*
X100558442Y-150448496D01*
X99802127Y-149692181D01*
X99771877Y-149642818D01*
X99767335Y-149585102D01*
X99789490Y-149531615D01*
X99833513Y-149494015D01*
X99889808Y-149480500D01*
X102545709Y-149480500D01*
X102611681Y-149499506D01*
X102657429Y-149550698D01*
X102668929Y-149618384D01*
X102649592Y-149790000D01*
X102669158Y-149963657D01*
X102726877Y-150128606D01*
X102819852Y-150276576D01*
X102943423Y-150400147D01*
X103091393Y-150493122D01*
X103256342Y-150550841D01*
X103430000Y-150570407D01*
X103603657Y-150550841D01*
X103634575Y-150540021D01*
X103657978Y-150534312D01*
X103660047Y-150534017D01*
X104045782Y-150443760D01*
X104074033Y-150440500D01*
X104457685Y-150440500D01*
X104488522Y-150444395D01*
X104492823Y-150445500D01*
X104514045Y-150445500D01*
X104533444Y-150447027D01*
X104535799Y-150447399D01*
X104554405Y-150450347D01*
X104596319Y-150446384D01*
X104599861Y-150446050D01*
X104611530Y-150445500D01*
X104887879Y-150445500D01*
X104909088Y-150447841D01*
X104911678Y-150447759D01*
X104911680Y-150447760D01*
X104981646Y-150445560D01*
X104985541Y-150445500D01*
X105014304Y-150445500D01*
X105014309Y-150445500D01*
X105018686Y-150444946D01*
X105030325Y-150444030D01*
X105075953Y-150442597D01*
X105096333Y-150436675D01*
X105115373Y-150432732D01*
X105136442Y-150430071D01*
X105178904Y-150413258D01*
X105189941Y-150409480D01*
X105233782Y-150396744D01*
X105252054Y-150385936D01*
X105269520Y-150377380D01*
X105289255Y-150369568D01*
X105326200Y-150342725D01*
X105335932Y-150336332D01*
X105375249Y-150313081D01*
X105390258Y-150298071D01*
X105405047Y-150285439D01*
X105422221Y-150272963D01*
X105451330Y-150237774D01*
X105459174Y-150229154D01*
X105577667Y-150110661D01*
X108925753Y-150110661D01*
X108945319Y-150284318D01*
X109003038Y-150449267D01*
X109096013Y-150597237D01*
X109219584Y-150720808D01*
X109367554Y-150813783D01*
X109532503Y-150871502D01*
X109672536Y-150887280D01*
X109706161Y-150900115D01*
X109739786Y-150887280D01*
X109879818Y-150871502D01*
X110044767Y-150813783D01*
X110192737Y-150720808D01*
X110316308Y-150597237D01*
X110409283Y-150449267D01*
X110467002Y-150284318D01*
X110486568Y-150110661D01*
X110467002Y-149937003D01*
X110430106Y-149831561D01*
X110426256Y-149763012D01*
X110459468Y-149702923D01*
X110464757Y-149700000D01*
X115834815Y-149700000D01*
X115853503Y-149877804D01*
X115908749Y-150047835D01*
X115998140Y-150202665D01*
X116117771Y-150335527D01*
X116262403Y-150440610D01*
X116262406Y-150440611D01*
X116262407Y-150440612D01*
X116346063Y-150477858D01*
X116425735Y-150513330D01*
X116600607Y-150550500D01*
X116600609Y-150550500D01*
X116779391Y-150550500D01*
X116779393Y-150550500D01*
X116954264Y-150513330D01*
X116954265Y-150513329D01*
X116954267Y-150513329D01*
X117117593Y-150440612D01*
X117262230Y-150335526D01*
X117381859Y-150202665D01*
X117471250Y-150047835D01*
X117526497Y-149877803D01*
X117545185Y-149700000D01*
X117526497Y-149522197D01*
X117471250Y-149352165D01*
X117471250Y-149352164D01*
X117381859Y-149197334D01*
X117262228Y-149064472D01*
X117117596Y-148959389D01*
X116954264Y-148886669D01*
X116779393Y-148849500D01*
X116779391Y-148849500D01*
X116600609Y-148849500D01*
X116600607Y-148849500D01*
X116425735Y-148886669D01*
X116262408Y-148959387D01*
X116117768Y-149064474D01*
X115998140Y-149197334D01*
X115908749Y-149352164D01*
X115853503Y-149522195D01*
X115834815Y-149700000D01*
X110464757Y-149700000D01*
X110519558Y-149669714D01*
X110588102Y-149673565D01*
X110594476Y-149675796D01*
X110768133Y-149695362D01*
X110941790Y-149675796D01*
X111106739Y-149618077D01*
X111254709Y-149525102D01*
X111378280Y-149401531D01*
X111471255Y-149253561D01*
X111528974Y-149088612D01*
X111548540Y-148914955D01*
X111528974Y-148741297D01*
X111471255Y-148576348D01*
X111378280Y-148428378D01*
X111254709Y-148304807D01*
X111106739Y-148211832D01*
X110941790Y-148154113D01*
X110768133Y-148134547D01*
X110594475Y-148154113D01*
X110429526Y-148211832D01*
X110281556Y-148304807D01*
X110157985Y-148428378D01*
X110065010Y-148576348D01*
X110007291Y-148741297D01*
X109987725Y-148914955D01*
X110007291Y-149088609D01*
X110044188Y-149194055D01*
X110048037Y-149262602D01*
X110014826Y-149322691D01*
X109954737Y-149355900D01*
X109886191Y-149352050D01*
X109879818Y-149349820D01*
X109879817Y-149349819D01*
X109879815Y-149349819D01*
X109706161Y-149330253D01*
X109532503Y-149349819D01*
X109367554Y-149407538D01*
X109219584Y-149500513D01*
X109096013Y-149624084D01*
X109003038Y-149772054D01*
X108945319Y-149937003D01*
X108925753Y-150110661D01*
X105577667Y-150110661D01*
X105739013Y-149949315D01*
X105755662Y-149935978D01*
X105757436Y-149934088D01*
X105757440Y-149934086D01*
X105805398Y-149883014D01*
X105808046Y-149880282D01*
X105828411Y-149859919D01*
X105831111Y-149856436D01*
X105838687Y-149847565D01*
X105869948Y-149814277D01*
X105880175Y-149795671D01*
X105890848Y-149779423D01*
X105903862Y-149762648D01*
X105921995Y-149720741D01*
X105927125Y-149710271D01*
X105949127Y-149670252D01*
X105954403Y-149649697D01*
X105960706Y-149631286D01*
X105969135Y-149611811D01*
X105976277Y-149566709D01*
X105978640Y-149555302D01*
X105990000Y-149511061D01*
X105990000Y-149489833D01*
X105991527Y-149470434D01*
X105994846Y-149449479D01*
X105990550Y-149404032D01*
X105990000Y-149392363D01*
X105990000Y-148071120D01*
X105992341Y-148049910D01*
X105990061Y-147977353D01*
X105990000Y-147973458D01*
X105990000Y-147944697D01*
X105990000Y-147944691D01*
X105989446Y-147940311D01*
X105988530Y-147928670D01*
X105988434Y-147925617D01*
X105987097Y-147883046D01*
X105981175Y-147862663D01*
X105977232Y-147843626D01*
X105974571Y-147822558D01*
X105957766Y-147780114D01*
X105953981Y-147769060D01*
X105941244Y-147725218D01*
X105941244Y-147725217D01*
X105930434Y-147706938D01*
X105921880Y-147689478D01*
X105914068Y-147669745D01*
X105887223Y-147632796D01*
X105880832Y-147623067D01*
X105857581Y-147583751D01*
X105842568Y-147568738D01*
X105829935Y-147553946D01*
X105827511Y-147550610D01*
X105817463Y-147536779D01*
X105782279Y-147507672D01*
X105773640Y-147499810D01*
X105513829Y-147239999D01*
X107429592Y-147239999D01*
X107449158Y-147413657D01*
X107506877Y-147578606D01*
X107599852Y-147726576D01*
X107723423Y-147850147D01*
X107871393Y-147943122D01*
X108036342Y-148000841D01*
X108210000Y-148020407D01*
X108383657Y-148000841D01*
X108548606Y-147943122D01*
X108696576Y-147850147D01*
X108820147Y-147726576D01*
X108913122Y-147578606D01*
X108970841Y-147413657D01*
X108990407Y-147240000D01*
X108987680Y-147215801D01*
X108970841Y-147066342D01*
X108913122Y-146901393D01*
X108855696Y-146809999D01*
X119914815Y-146809999D01*
X119933503Y-146987804D01*
X119988749Y-147157835D01*
X120078140Y-147312665D01*
X120197771Y-147445527D01*
X120342403Y-147550610D01*
X120342406Y-147550611D01*
X120342407Y-147550612D01*
X120383135Y-147568745D01*
X120505735Y-147623330D01*
X120680607Y-147660500D01*
X120680609Y-147660500D01*
X120859391Y-147660500D01*
X120859393Y-147660500D01*
X121034264Y-147623330D01*
X121034265Y-147623329D01*
X121034267Y-147623329D01*
X121197593Y-147550612D01*
X121342230Y-147445526D01*
X121461859Y-147312665D01*
X121551250Y-147157835D01*
X121606497Y-146987803D01*
X121625185Y-146810000D01*
X121606497Y-146632197D01*
X121569197Y-146517401D01*
X121551250Y-146462164D01*
X121461859Y-146307334D01*
X121342228Y-146174472D01*
X121197596Y-146069389D01*
X121034264Y-145996669D01*
X120859393Y-145959500D01*
X120859391Y-145959500D01*
X120680609Y-145959500D01*
X120680607Y-145959500D01*
X120505735Y-145996669D01*
X120342408Y-146069387D01*
X120197768Y-146174474D01*
X120078140Y-146307334D01*
X119988749Y-146462164D01*
X119933503Y-146632195D01*
X119914815Y-146809999D01*
X108855696Y-146809999D01*
X108820147Y-146753423D01*
X108696576Y-146629852D01*
X108548606Y-146536877D01*
X108383657Y-146479158D01*
X108210000Y-146459592D01*
X108036342Y-146479158D01*
X107871393Y-146536877D01*
X107723423Y-146629852D01*
X107599852Y-146753423D01*
X107506877Y-146901393D01*
X107449158Y-147066342D01*
X107429592Y-147239999D01*
X105513829Y-147239999D01*
X105039318Y-146765488D01*
X105025975Y-146748833D01*
X104973050Y-146699134D01*
X104970253Y-146696423D01*
X104949918Y-146676088D01*
X104946431Y-146673383D01*
X104937555Y-146665801D01*
X104904278Y-146634552D01*
X104885677Y-146624326D01*
X104869416Y-146613645D01*
X104852648Y-146600638D01*
X104829061Y-146590431D01*
X104810753Y-146582508D01*
X104800263Y-146577369D01*
X104760251Y-146555372D01*
X104739684Y-146550091D01*
X104721282Y-146543791D01*
X104701808Y-146535364D01*
X104656721Y-146528223D01*
X104645282Y-146525854D01*
X104601062Y-146514500D01*
X104601061Y-146514500D01*
X104579839Y-146514500D01*
X104560440Y-146512973D01*
X104539480Y-146509653D01*
X104539479Y-146509653D01*
X104517442Y-146511736D01*
X104494023Y-146513950D01*
X104482354Y-146514500D01*
X96902189Y-146514500D01*
X96840994Y-146498348D01*
X96795741Y-146454099D01*
X96778220Y-146393282D01*
X96792995Y-146331740D01*
X96836218Y-146285506D01*
X96876576Y-146260147D01*
X97000147Y-146136576D01*
X97093122Y-145988606D01*
X97150841Y-145823657D01*
X97170407Y-145649999D01*
X97150841Y-145476342D01*
X97093122Y-145311393D01*
X97000147Y-145163423D01*
X96876576Y-145039852D01*
X96728606Y-144946877D01*
X96563657Y-144889158D01*
X96390000Y-144869592D01*
X96216342Y-144889158D01*
X96051393Y-144946877D01*
X95903423Y-145039852D01*
X95779852Y-145163423D01*
X95686877Y-145311393D01*
X95629158Y-145476342D01*
X95609592Y-145649999D01*
X95629158Y-145823657D01*
X95686877Y-145988606D01*
X95779852Y-146136576D01*
X95903423Y-146260147D01*
X95943782Y-146285506D01*
X95987005Y-146331740D01*
X96001780Y-146393282D01*
X95984259Y-146454099D01*
X95939006Y-146498348D01*
X95877811Y-146514500D01*
X86049515Y-146514500D01*
X86028304Y-146512158D01*
X85955734Y-146514439D01*
X85951839Y-146514500D01*
X85923084Y-146514500D01*
X85918711Y-146515052D01*
X85907079Y-146515967D01*
X85861438Y-146517401D01*
X85841051Y-146523324D01*
X85822008Y-146527268D01*
X85800952Y-146529928D01*
X85758506Y-146546733D01*
X85747460Y-146550514D01*
X85703612Y-146563254D01*
X85685334Y-146574063D01*
X85667871Y-146582618D01*
X85648140Y-146590431D01*
X85611197Y-146617270D01*
X85601438Y-146623680D01*
X85562145Y-146646918D01*
X85547135Y-146661928D01*
X85532346Y-146674558D01*
X85515174Y-146687034D01*
X85486067Y-146722218D01*
X85478206Y-146730856D01*
X82120484Y-150088578D01*
X82103831Y-150101920D01*
X82054133Y-150154843D01*
X82051427Y-150157636D01*
X82031083Y-150177981D01*
X82028376Y-150181470D01*
X82020807Y-150190331D01*
X81989551Y-150223617D01*
X81979322Y-150242222D01*
X81968645Y-150258477D01*
X81955636Y-150275248D01*
X81937506Y-150317142D01*
X81932370Y-150327626D01*
X81910372Y-150367642D01*
X81905091Y-150388209D01*
X81898791Y-150406610D01*
X81890364Y-150426084D01*
X81883223Y-150471171D01*
X81880855Y-150482603D01*
X81870735Y-150522025D01*
X81869500Y-150526834D01*
X81869500Y-150548055D01*
X81867973Y-150567454D01*
X81864653Y-150588413D01*
X81868950Y-150633871D01*
X81869500Y-150645540D01*
X81869500Y-153038772D01*
X81855130Y-153096713D01*
X81815352Y-153141225D01*
X81759384Y-153161992D01*
X81691343Y-153169658D01*
X81526393Y-153227377D01*
X81378426Y-153320350D01*
X81254853Y-153443924D01*
X81235625Y-153474525D01*
X81196603Y-153513545D01*
X81144516Y-153531771D01*
X81041650Y-153543361D01*
X80876700Y-153601080D01*
X80728730Y-153694055D01*
X80605159Y-153817626D01*
X80512184Y-153965596D01*
X80454465Y-154130545D01*
X80434899Y-154304203D01*
X79988002Y-154304203D01*
X79952228Y-154264472D01*
X79807596Y-154159389D01*
X79644264Y-154086669D01*
X79469393Y-154049500D01*
X79469391Y-154049500D01*
X79290609Y-154049500D01*
X79290607Y-154049500D01*
X79115735Y-154086669D01*
X78952408Y-154159387D01*
X78807768Y-154264474D01*
X78688140Y-154397334D01*
X78598749Y-154552164D01*
X78543503Y-154722195D01*
X78524815Y-154900000D01*
X77930981Y-154900000D01*
X77916497Y-154762197D01*
X77861250Y-154592165D01*
X77861250Y-154592164D01*
X77771859Y-154437334D01*
X77657174Y-154309965D01*
X77652230Y-154304474D01*
X77652229Y-154304473D01*
X77652228Y-154304472D01*
X77507596Y-154199389D01*
X77344264Y-154126669D01*
X77169393Y-154089500D01*
X77169391Y-154089500D01*
X76990609Y-154089500D01*
X76990607Y-154089500D01*
X76815735Y-154126669D01*
X76652408Y-154199387D01*
X76507768Y-154304474D01*
X76388140Y-154437334D01*
X76298749Y-154592164D01*
X76243503Y-154762195D01*
X76224815Y-154939999D01*
X37372500Y-154939999D01*
X37372500Y-150340000D01*
X77879592Y-150340000D01*
X77899158Y-150513657D01*
X77956877Y-150678606D01*
X78049852Y-150826576D01*
X78173423Y-150950147D01*
X78321393Y-151043122D01*
X78486342Y-151100841D01*
X78660000Y-151120407D01*
X78833657Y-151100841D01*
X78998606Y-151043122D01*
X79146576Y-150950147D01*
X79270147Y-150826576D01*
X79363122Y-150678606D01*
X79420841Y-150513657D01*
X79440407Y-150340000D01*
X79435684Y-150298079D01*
X79420841Y-150166342D01*
X79363122Y-150001393D01*
X79270147Y-149853423D01*
X79146576Y-149729852D01*
X78998606Y-149636877D01*
X78833657Y-149579158D01*
X78660000Y-149559592D01*
X78486342Y-149579158D01*
X78321393Y-149636877D01*
X78173423Y-149729852D01*
X78049852Y-149853423D01*
X77956877Y-150001393D01*
X77899158Y-150166342D01*
X77879592Y-150340000D01*
X37372500Y-150340000D01*
X37372500Y-144147872D01*
X37372566Y-144145000D01*
X40016531Y-144145000D01*
X40036364Y-144371689D01*
X40095261Y-144591497D01*
X40191432Y-144797735D01*
X40321953Y-144984140D01*
X40482859Y-145145046D01*
X40669264Y-145275567D01*
X40669265Y-145275567D01*
X40669266Y-145275568D01*
X40875504Y-145371739D01*
X41095308Y-145430635D01*
X41180261Y-145438067D01*
X41265214Y-145445500D01*
X41265216Y-145445500D01*
X41378784Y-145445500D01*
X41378786Y-145445500D01*
X41446747Y-145439553D01*
X41548692Y-145430635D01*
X41768496Y-145371739D01*
X41974734Y-145275568D01*
X42161139Y-145145047D01*
X42322047Y-144984139D01*
X42452568Y-144797734D01*
X42548739Y-144591496D01*
X42607635Y-144371692D01*
X42627468Y-144145000D01*
X42607635Y-143918308D01*
X42548739Y-143698504D01*
X42452568Y-143492266D01*
X42440847Y-143475527D01*
X42322046Y-143305859D01*
X42161140Y-143144953D01*
X41974735Y-143014432D01*
X41768497Y-142918261D01*
X41548689Y-142859364D01*
X41378786Y-142844500D01*
X41378784Y-142844500D01*
X41265216Y-142844500D01*
X41265214Y-142844500D01*
X41095310Y-142859364D01*
X40875502Y-142918261D01*
X40669264Y-143014432D01*
X40482859Y-143144953D01*
X40321953Y-143305859D01*
X40191432Y-143492264D01*
X40095261Y-143698502D01*
X40036364Y-143918310D01*
X40016531Y-144145000D01*
X37372566Y-144145000D01*
X37372632Y-144142145D01*
X37375204Y-144086512D01*
X37389083Y-143786300D01*
X37390140Y-143774905D01*
X37438958Y-143424944D01*
X37441058Y-143413708D01*
X37521961Y-143069732D01*
X37525084Y-143058753D01*
X37637387Y-142723685D01*
X37641510Y-142713046D01*
X37784245Y-142389781D01*
X37789328Y-142379572D01*
X37961278Y-142070862D01*
X37967304Y-142061130D01*
X37990909Y-142026671D01*
X38166999Y-141769612D01*
X38173881Y-141760498D01*
X38399636Y-141488630D01*
X38407332Y-141480190D01*
X38657190Y-141230332D01*
X38665630Y-141222636D01*
X38937498Y-140996881D01*
X38946612Y-140989999D01*
X39238136Y-140790300D01*
X39247862Y-140784278D01*
X39556572Y-140612328D01*
X39566781Y-140607245D01*
X39890046Y-140464510D01*
X39900685Y-140460387D01*
X40235753Y-140348084D01*
X40246732Y-140344961D01*
X40590708Y-140264058D01*
X40601944Y-140261958D01*
X40951914Y-140213139D01*
X40963300Y-140212083D01*
X41316290Y-140195764D01*
X41327710Y-140195764D01*
X41680697Y-140212083D01*
X41692086Y-140213139D01*
X42042051Y-140261957D01*
X42053295Y-140264059D01*
X42397261Y-140344959D01*
X42408251Y-140348086D01*
X42743306Y-140460385D01*
X42753960Y-140464513D01*
X43077209Y-140607241D01*
X43087436Y-140612333D01*
X43328689Y-140746710D01*
X43396131Y-140784275D01*
X43405869Y-140790304D01*
X43697374Y-140989990D01*
X43706511Y-140996890D01*
X43761456Y-141042515D01*
X43978356Y-141222626D01*
X43986820Y-141230343D01*
X44236656Y-141480179D01*
X44244373Y-141488643D01*
X44470107Y-141760485D01*
X44477009Y-141769625D01*
X44676695Y-142061130D01*
X44682724Y-142070868D01*
X44854659Y-142379550D01*
X44859764Y-142389803D01*
X45002481Y-142713026D01*
X45006619Y-142723706D01*
X45118909Y-143058735D01*
X45122043Y-143069751D01*
X45202938Y-143413696D01*
X45205043Y-143424955D01*
X45253859Y-143774905D01*
X45254916Y-143786309D01*
X45271368Y-144142145D01*
X45271500Y-144147872D01*
X45271500Y-145515376D01*
X45271076Y-145525614D01*
X45267868Y-145564344D01*
X45275349Y-145593889D01*
X45277408Y-145602018D01*
X45279507Y-145612029D01*
X45283561Y-145636318D01*
X45285973Y-145650773D01*
X45296367Y-145677409D01*
X45317836Y-145710270D01*
X45323081Y-145719072D01*
X45341771Y-145753608D01*
X45360249Y-145775424D01*
X45360562Y-145775667D01*
X45360563Y-145775669D01*
X45383974Y-145793890D01*
X45391234Y-145799541D01*
X45399055Y-145806166D01*
X45427934Y-145832752D01*
X45452494Y-145847386D01*
X45452872Y-145847516D01*
X45452874Y-145847517D01*
X45489623Y-145860133D01*
X45499165Y-145863856D01*
X45535133Y-145879633D01*
X45563114Y-145885500D01*
X45563512Y-145885500D01*
X45602376Y-145885500D01*
X45612614Y-145885923D01*
X45651344Y-145889132D01*
X45651347Y-145889131D01*
X45651744Y-145889164D01*
X45681142Y-145885500D01*
X48047500Y-145885500D01*
X48109500Y-145902113D01*
X48154887Y-145947500D01*
X48171500Y-146009500D01*
X48171500Y-147015376D01*
X48171076Y-147025614D01*
X48167868Y-147064344D01*
X48175349Y-147093889D01*
X48177408Y-147102018D01*
X48179507Y-147112029D01*
X48183561Y-147136318D01*
X48185973Y-147150773D01*
X48196367Y-147177409D01*
X48217836Y-147210270D01*
X48223081Y-147219072D01*
X48241771Y-147253608D01*
X48260249Y-147275424D01*
X48260562Y-147275667D01*
X48260563Y-147275669D01*
X48283974Y-147293890D01*
X48291234Y-147299541D01*
X48299055Y-147306166D01*
X48327934Y-147332752D01*
X48352494Y-147347386D01*
X48352872Y-147347516D01*
X48352874Y-147347517D01*
X48389623Y-147360133D01*
X48399165Y-147363856D01*
X48435133Y-147379633D01*
X48463114Y-147385500D01*
X48463512Y-147385500D01*
X48502376Y-147385500D01*
X48512614Y-147385923D01*
X48551344Y-147389132D01*
X48551347Y-147389131D01*
X48551744Y-147389164D01*
X48581142Y-147385500D01*
X67385137Y-147385500D01*
X67471588Y-147377489D01*
X67785691Y-147348383D01*
X68181113Y-147274466D01*
X68521066Y-147177741D01*
X68568019Y-147164382D01*
X68568023Y-147164380D01*
X68568028Y-147164379D01*
X68943135Y-147019062D01*
X69303234Y-146839754D01*
X69645252Y-146627985D01*
X69966272Y-146385563D01*
X70263554Y-146114554D01*
X70534563Y-145817272D01*
X70776985Y-145496252D01*
X70988754Y-145154234D01*
X71168062Y-144794135D01*
X71297506Y-144460000D01*
X82344815Y-144460000D01*
X82363503Y-144637804D01*
X82418749Y-144807835D01*
X82508140Y-144962665D01*
X82627771Y-145095527D01*
X82772403Y-145200610D01*
X82772406Y-145200611D01*
X82772407Y-145200612D01*
X82841940Y-145231570D01*
X82935735Y-145273330D01*
X83110607Y-145310500D01*
X83110609Y-145310500D01*
X83289391Y-145310500D01*
X83289393Y-145310500D01*
X83464264Y-145273330D01*
X83464265Y-145273329D01*
X83464267Y-145273329D01*
X83627593Y-145200612D01*
X83629939Y-145198908D01*
X83704072Y-145145046D01*
X83772230Y-145095526D01*
X83891859Y-144962665D01*
X83981250Y-144807835D01*
X84036497Y-144637803D01*
X84046777Y-144540000D01*
X89029340Y-144540000D01*
X89049936Y-144775407D01*
X89075173Y-144869592D01*
X89111097Y-145003663D01*
X89210965Y-145217830D01*
X89346505Y-145411401D01*
X89513599Y-145578495D01*
X89707170Y-145714035D01*
X89921337Y-145813903D01*
X90149592Y-145875063D01*
X90385000Y-145895659D01*
X90620408Y-145875063D01*
X90848663Y-145813903D01*
X91062830Y-145714035D01*
X91256401Y-145578495D01*
X91423495Y-145411401D01*
X91559035Y-145217830D01*
X91658903Y-145003663D01*
X91720063Y-144775408D01*
X91740659Y-144540000D01*
X91720063Y-144304592D01*
X91658903Y-144076337D01*
X91559035Y-143862171D01*
X91423495Y-143668599D01*
X91301569Y-143546673D01*
X91270273Y-143493927D01*
X91268084Y-143432634D01*
X91295537Y-143377789D01*
X91345916Y-143342810D01*
X91477331Y-143293796D01*
X91592546Y-143207546D01*
X91678796Y-143092331D01*
X91729091Y-142957483D01*
X91735500Y-142897873D01*
X91735500Y-142840000D01*
X107184815Y-142840000D01*
X107203503Y-143017804D01*
X107258749Y-143187835D01*
X107348140Y-143342665D01*
X107467771Y-143475527D01*
X107612403Y-143580610D01*
X107775735Y-143653330D01*
X107950607Y-143690500D01*
X107950609Y-143690500D01*
X108129391Y-143690500D01*
X108129393Y-143690500D01*
X108304264Y-143653330D01*
X108304265Y-143653329D01*
X108304267Y-143653329D01*
X108467593Y-143580612D01*
X108612230Y-143475526D01*
X108731859Y-143342665D01*
X108821250Y-143187835D01*
X108876497Y-143017803D01*
X108895185Y-142840000D01*
X108876497Y-142662197D01*
X108821250Y-142492165D01*
X108821250Y-142492164D01*
X108731859Y-142337334D01*
X108612228Y-142204472D01*
X108467596Y-142099389D01*
X108304264Y-142026669D01*
X108129393Y-141989500D01*
X108129391Y-141989500D01*
X107950609Y-141989500D01*
X107950607Y-141989500D01*
X107775735Y-142026669D01*
X107612408Y-142099387D01*
X107467768Y-142204474D01*
X107348140Y-142337334D01*
X107258749Y-142492164D01*
X107203503Y-142662195D01*
X107184815Y-142840000D01*
X91735500Y-142840000D01*
X91735499Y-141102128D01*
X91729091Y-141042517D01*
X91678796Y-140907669D01*
X91592546Y-140792454D01*
X91477331Y-140706204D01*
X91342483Y-140655909D01*
X91282873Y-140649500D01*
X91282869Y-140649500D01*
X89487130Y-140649500D01*
X89427515Y-140655909D01*
X89292669Y-140706204D01*
X89177454Y-140792454D01*
X89091204Y-140907668D01*
X89040909Y-141042516D01*
X89034500Y-141102130D01*
X89034500Y-142897869D01*
X89040909Y-142957484D01*
X89062150Y-143014432D01*
X89091204Y-143092331D01*
X89177454Y-143207546D01*
X89292669Y-143293796D01*
X89404907Y-143335658D01*
X89424082Y-143342810D01*
X89474462Y-143377789D01*
X89501915Y-143432634D01*
X89499726Y-143493926D01*
X89468431Y-143546673D01*
X89346503Y-143668601D01*
X89210965Y-143862170D01*
X89111097Y-144076336D01*
X89049936Y-144304592D01*
X89029340Y-144540000D01*
X84046777Y-144540000D01*
X84055185Y-144460000D01*
X84036497Y-144282197D01*
X83981250Y-144112165D01*
X83981250Y-144112164D01*
X83891859Y-143957334D01*
X83772228Y-143824472D01*
X83627596Y-143719389D01*
X83464264Y-143646669D01*
X83289393Y-143609500D01*
X83289391Y-143609500D01*
X83110609Y-143609500D01*
X83110607Y-143609500D01*
X82935735Y-143646669D01*
X82772408Y-143719387D01*
X82627768Y-143824474D01*
X82508140Y-143957334D01*
X82418749Y-144112164D01*
X82363503Y-144282195D01*
X82344815Y-144460000D01*
X71297506Y-144460000D01*
X71313379Y-144419028D01*
X71326848Y-144371692D01*
X71352311Y-144282195D01*
X71423466Y-144032113D01*
X71497383Y-143636691D01*
X71534500Y-143236136D01*
X71534500Y-143035000D01*
X71534500Y-142979486D01*
X71534500Y-141340000D01*
X83834815Y-141340000D01*
X83853503Y-141517804D01*
X83908749Y-141687835D01*
X83998140Y-141842665D01*
X84117771Y-141975527D01*
X84262403Y-142080610D01*
X84425735Y-142153330D01*
X84600607Y-142190500D01*
X84600609Y-142190500D01*
X84779391Y-142190500D01*
X84779393Y-142190500D01*
X84954264Y-142153330D01*
X84954265Y-142153329D01*
X84954267Y-142153329D01*
X85117593Y-142080612D01*
X85262230Y-141975526D01*
X85381859Y-141842665D01*
X85471250Y-141687835D01*
X85526497Y-141517803D01*
X85545185Y-141340000D01*
X85526497Y-141162197D01*
X85497840Y-141074001D01*
X85471250Y-140992164D01*
X85381859Y-140837334D01*
X85262228Y-140704472D01*
X85117596Y-140599389D01*
X84954264Y-140526669D01*
X84779393Y-140489500D01*
X84779391Y-140489500D01*
X84600609Y-140489500D01*
X84600607Y-140489500D01*
X84425735Y-140526669D01*
X84262408Y-140599387D01*
X84117768Y-140704474D01*
X83998140Y-140837334D01*
X83908749Y-140992164D01*
X83853503Y-141162195D01*
X83834815Y-141340000D01*
X71534500Y-141340000D01*
X71534500Y-138179051D01*
X71534575Y-138175999D01*
X73878531Y-138175999D01*
X73898364Y-138402689D01*
X73957261Y-138622497D01*
X74053432Y-138828735D01*
X74183953Y-139015140D01*
X74344859Y-139176046D01*
X74531264Y-139306567D01*
X74531265Y-139306567D01*
X74531266Y-139306568D01*
X74737504Y-139402739D01*
X74957308Y-139461635D01*
X75042261Y-139469067D01*
X75127214Y-139476500D01*
X75127216Y-139476500D01*
X75240784Y-139476500D01*
X75240786Y-139476500D01*
X75308747Y-139470553D01*
X75410692Y-139461635D01*
X75630496Y-139402739D01*
X75836734Y-139306568D01*
X76023139Y-139176047D01*
X76184047Y-139015139D01*
X76314568Y-138828734D01*
X76383925Y-138679999D01*
X81084815Y-138679999D01*
X81103503Y-138857804D01*
X81158749Y-139027835D01*
X81248140Y-139182665D01*
X81367771Y-139315527D01*
X81512403Y-139420610D01*
X81512406Y-139420611D01*
X81512407Y-139420612D01*
X81604547Y-139461635D01*
X81675735Y-139493330D01*
X81850607Y-139530500D01*
X81850609Y-139530500D01*
X82029391Y-139530500D01*
X82029393Y-139530500D01*
X82194672Y-139495369D01*
X82252547Y-139496884D01*
X82303425Y-139524509D01*
X82336217Y-139572221D01*
X82343774Y-139629621D01*
X82324815Y-139809999D01*
X82343503Y-139987804D01*
X82398749Y-140157835D01*
X82488140Y-140312665D01*
X82607771Y-140445527D01*
X82752403Y-140550610D01*
X82915735Y-140623330D01*
X83090607Y-140660500D01*
X83090609Y-140660500D01*
X83269391Y-140660500D01*
X83269393Y-140660500D01*
X83444264Y-140623330D01*
X83444265Y-140623329D01*
X83444267Y-140623329D01*
X83607593Y-140550612D01*
X83752230Y-140445526D01*
X83871859Y-140312665D01*
X83961250Y-140157835D01*
X84016497Y-139987803D01*
X84035185Y-139810000D01*
X84018739Y-139653532D01*
X84026296Y-139596137D01*
X84059088Y-139548424D01*
X84109967Y-139520799D01*
X84167841Y-139519284D01*
X84220608Y-139530500D01*
X84220609Y-139530500D01*
X84399391Y-139530500D01*
X84399393Y-139530500D01*
X84574264Y-139493330D01*
X84574265Y-139493329D01*
X84574267Y-139493329D01*
X84737593Y-139420612D01*
X84882230Y-139315526D01*
X85001859Y-139182665D01*
X85027411Y-139138407D01*
X85072820Y-139059757D01*
X85118207Y-139014370D01*
X85180207Y-138997757D01*
X85242207Y-139014370D01*
X85287594Y-139059757D01*
X85318140Y-139112665D01*
X85437771Y-139245527D01*
X85582403Y-139350610D01*
X85582406Y-139350611D01*
X85582407Y-139350612D01*
X85691290Y-139399089D01*
X85745735Y-139423330D01*
X85920607Y-139460500D01*
X85920609Y-139460500D01*
X86099391Y-139460500D01*
X86099393Y-139460500D01*
X86274264Y-139423330D01*
X86274265Y-139423329D01*
X86274267Y-139423329D01*
X86437593Y-139350612D01*
X86582230Y-139245526D01*
X86701859Y-139112665D01*
X86791250Y-138957835D01*
X86846497Y-138787803D01*
X86865185Y-138610000D01*
X86851521Y-138480000D01*
X90139592Y-138480000D01*
X90159158Y-138653657D01*
X90216877Y-138818606D01*
X90309852Y-138966576D01*
X90433423Y-139090147D01*
X90581393Y-139183122D01*
X90746342Y-139240841D01*
X90920000Y-139260407D01*
X91093657Y-139240841D01*
X91258606Y-139183122D01*
X91406576Y-139090147D01*
X91530147Y-138966576D01*
X91623122Y-138818606D01*
X91680841Y-138653657D01*
X91700407Y-138480000D01*
X91680841Y-138306343D01*
X91665382Y-138262165D01*
X91635232Y-138176000D01*
X124170531Y-138176000D01*
X124190364Y-138402689D01*
X124249261Y-138622497D01*
X124345432Y-138828735D01*
X124475953Y-139015140D01*
X124636859Y-139176046D01*
X124823264Y-139306567D01*
X124823265Y-139306567D01*
X124823266Y-139306568D01*
X125029504Y-139402739D01*
X125249308Y-139461635D01*
X125334261Y-139469067D01*
X125419214Y-139476500D01*
X125419216Y-139476500D01*
X125532784Y-139476500D01*
X125532786Y-139476500D01*
X125600747Y-139470553D01*
X125702692Y-139461635D01*
X125922496Y-139402739D01*
X126128734Y-139306568D01*
X126315139Y-139176047D01*
X126476047Y-139015139D01*
X126606568Y-138828734D01*
X126702739Y-138622496D01*
X126761635Y-138402692D01*
X126781468Y-138176000D01*
X126761635Y-137949308D01*
X126702739Y-137729504D01*
X126606568Y-137523266D01*
X126565082Y-137464018D01*
X126476046Y-137336859D01*
X126315140Y-137175953D01*
X126128735Y-137045432D01*
X125922497Y-136949261D01*
X125702689Y-136890364D01*
X125532786Y-136875500D01*
X125532784Y-136875500D01*
X125419216Y-136875500D01*
X125419214Y-136875500D01*
X125249310Y-136890364D01*
X125029502Y-136949261D01*
X124823264Y-137045432D01*
X124636859Y-137175953D01*
X124475953Y-137336859D01*
X124345432Y-137523264D01*
X124249261Y-137729502D01*
X124190364Y-137949310D01*
X124170531Y-138176000D01*
X91635232Y-138176000D01*
X91623122Y-138141393D01*
X91530147Y-137993423D01*
X91406576Y-137869852D01*
X91258606Y-137776877D01*
X91093657Y-137719158D01*
X90920000Y-137699592D01*
X90746342Y-137719158D01*
X90581393Y-137776877D01*
X90433423Y-137869852D01*
X90309852Y-137993423D01*
X90216877Y-138141393D01*
X90159158Y-138306342D01*
X90139592Y-138480000D01*
X86851521Y-138480000D01*
X86846497Y-138432197D01*
X86817840Y-138344001D01*
X86791250Y-138262164D01*
X86701859Y-138107334D01*
X86582228Y-137974472D01*
X86437596Y-137869389D01*
X86274264Y-137796669D01*
X86099393Y-137759500D01*
X86099391Y-137759500D01*
X85920609Y-137759500D01*
X85920607Y-137759500D01*
X85745735Y-137796669D01*
X85582408Y-137869387D01*
X85437768Y-137974474D01*
X85318141Y-138107333D01*
X85247179Y-138230243D01*
X85201791Y-138275630D01*
X85139791Y-138292242D01*
X85077791Y-138275629D01*
X85032405Y-138230241D01*
X85001860Y-138177336D01*
X84882228Y-138044472D01*
X84737596Y-137939389D01*
X84574264Y-137866669D01*
X84399393Y-137829500D01*
X84399391Y-137829500D01*
X84220609Y-137829500D01*
X84220607Y-137829500D01*
X84045735Y-137866669D01*
X83882408Y-137939387D01*
X83737768Y-138044474D01*
X83618140Y-138177334D01*
X83528749Y-138332164D01*
X83473503Y-138502195D01*
X83454815Y-138680000D01*
X83471260Y-138836464D01*
X83463703Y-138893862D01*
X83430912Y-138941575D01*
X83380033Y-138969200D01*
X83322159Y-138970716D01*
X83297567Y-138965489D01*
X83269391Y-138959500D01*
X83090609Y-138959500D01*
X83044974Y-138969200D01*
X82925326Y-138994631D01*
X82867452Y-138993115D01*
X82816573Y-138965489D01*
X82783782Y-138917777D01*
X82776225Y-138860378D01*
X82776495Y-138857809D01*
X82776497Y-138857803D01*
X82795185Y-138680000D01*
X82776497Y-138502197D01*
X82721250Y-138332165D01*
X82721250Y-138332164D01*
X82631859Y-138177334D01*
X82512228Y-138044472D01*
X82367596Y-137939389D01*
X82204264Y-137866669D01*
X82029393Y-137829500D01*
X82029391Y-137829500D01*
X81850609Y-137829500D01*
X81850607Y-137829500D01*
X81675735Y-137866669D01*
X81512408Y-137939387D01*
X81367768Y-138044474D01*
X81248140Y-138177334D01*
X81158749Y-138332164D01*
X81103503Y-138502195D01*
X81084815Y-138679999D01*
X76383925Y-138679999D01*
X76410739Y-138622496D01*
X76469635Y-138402692D01*
X76489468Y-138176000D01*
X76469635Y-137949308D01*
X76410739Y-137729504D01*
X76314568Y-137523266D01*
X76273082Y-137464018D01*
X76184046Y-137336859D01*
X76023140Y-137175953D01*
X75836735Y-137045432D01*
X75630497Y-136949261D01*
X75410689Y-136890364D01*
X75240786Y-136875500D01*
X75240784Y-136875500D01*
X75127216Y-136875500D01*
X75127214Y-136875500D01*
X74957310Y-136890364D01*
X74737502Y-136949261D01*
X74531264Y-137045432D01*
X74344859Y-137175953D01*
X74183953Y-137336859D01*
X74053432Y-137523264D01*
X73957261Y-137729502D01*
X73898364Y-137949310D01*
X73878531Y-138175999D01*
X71534575Y-138175999D01*
X71534649Y-138172967D01*
X71549540Y-137869852D01*
X71551774Y-137824365D01*
X71552967Y-137812258D01*
X71555279Y-137796671D01*
X71603732Y-137470029D01*
X71606100Y-137458122D01*
X71690169Y-137122500D01*
X71693699Y-137110867D01*
X71717113Y-137045432D01*
X71810249Y-136785133D01*
X71814904Y-136773896D01*
X71849453Y-136700846D01*
X71962831Y-136461127D01*
X71968550Y-136450427D01*
X72146425Y-136153662D01*
X72153168Y-136143569D01*
X72359280Y-135865659D01*
X72366983Y-135856274D01*
X72599339Y-135599909D01*
X72607909Y-135591339D01*
X72864274Y-135358983D01*
X72873659Y-135351280D01*
X73151569Y-135145168D01*
X73161662Y-135138425D01*
X73458427Y-134960550D01*
X73469127Y-134954831D01*
X73781896Y-134806904D01*
X73793133Y-134802249D01*
X74118875Y-134685696D01*
X74130500Y-134682169D01*
X74466122Y-134598100D01*
X74478029Y-134595732D01*
X74820261Y-134544966D01*
X74832365Y-134543774D01*
X75180966Y-134526649D01*
X75187051Y-134526500D01*
X75239514Y-134526500D01*
X125420486Y-134526500D01*
X125472949Y-134526500D01*
X125479033Y-134526649D01*
G37*
G04 #@! TD.AperFunction*
G04 #@! TA.AperFunction,Conductor*
G36*
X106987992Y-166102533D02*
G01*
X106992114Y-166109034D01*
X107091811Y-166535121D01*
X107090837Y-166543111D01*
X107084933Y-166548581D01*
X106844514Y-166649112D01*
X106840000Y-166650018D01*
X106835486Y-166649112D01*
X106595066Y-166548581D01*
X106589162Y-166543111D01*
X106588188Y-166535123D01*
X106687886Y-166109033D01*
X106692008Y-166102533D01*
X106699278Y-166100000D01*
X106980722Y-166100000D01*
X106987992Y-166102533D01*
G37*
G04 #@! TD.AperFunction*
G04 #@! TA.AperFunction,Conductor*
G36*
X117765039Y-156999918D02*
G01*
X117767726Y-157001586D01*
X118136826Y-157230711D01*
X118141787Y-157237049D01*
X118141479Y-157245092D01*
X118042563Y-157486180D01*
X118040012Y-157490012D01*
X118036180Y-157492563D01*
X117795092Y-157591479D01*
X117787049Y-157591787D01*
X117780711Y-157586826D01*
X117722196Y-157492563D01*
X117549918Y-157215039D01*
X117548236Y-157207528D01*
X117551585Y-157200598D01*
X117750598Y-157001585D01*
X117757528Y-156998236D01*
X117765039Y-156999918D01*
G37*
G04 #@! TD.AperFunction*
G04 #@! TA.AperFunction,Conductor*
G36*
X101265039Y-151859918D02*
G01*
X101267726Y-151861586D01*
X101636826Y-152090711D01*
X101641787Y-152097049D01*
X101641479Y-152105092D01*
X101542563Y-152346180D01*
X101540012Y-152350012D01*
X101536180Y-152352563D01*
X101295092Y-152451479D01*
X101287049Y-152451787D01*
X101280711Y-152446826D01*
X101222196Y-152352563D01*
X101049918Y-152075039D01*
X101048236Y-152067528D01*
X101051585Y-152060598D01*
X101250598Y-151861585D01*
X101257528Y-151858236D01*
X101265039Y-151859918D01*
G37*
G04 #@! TD.AperFunction*
G04 #@! TA.AperFunction,Conductor*
G36*
X82667992Y-155652533D02*
G01*
X82672114Y-155659034D01*
X82771811Y-156085121D01*
X82770837Y-156093111D01*
X82764933Y-156098581D01*
X82524514Y-156199112D01*
X82520000Y-156200018D01*
X82515486Y-156199112D01*
X82275066Y-156098581D01*
X82269162Y-156093111D01*
X82268188Y-156085123D01*
X82367886Y-155659033D01*
X82372008Y-155652533D01*
X82379278Y-155650000D01*
X82660722Y-155650000D01*
X82667992Y-155652533D01*
G37*
G04 #@! TD.AperFunction*
G04 #@! TA.AperFunction,Conductor*
G36*
X118170039Y-156259918D02*
G01*
X118172726Y-156261586D01*
X118541826Y-156490711D01*
X118546787Y-156497049D01*
X118546479Y-156505092D01*
X118447563Y-156746180D01*
X118445012Y-156750012D01*
X118441180Y-156752563D01*
X118200092Y-156851479D01*
X118192049Y-156851787D01*
X118185711Y-156846826D01*
X118127196Y-156752563D01*
X117954918Y-156475039D01*
X117953236Y-156467528D01*
X117956585Y-156460598D01*
X118155598Y-156261585D01*
X118162528Y-156258236D01*
X118170039Y-156259918D01*
G37*
G04 #@! TD.AperFunction*
G04 #@! TA.AperFunction,Conductor*
G36*
X95519511Y-150070386D02*
G01*
X95759934Y-150170919D01*
X95765837Y-150176388D01*
X95766811Y-150184378D01*
X95667114Y-150610466D01*
X95662992Y-150616967D01*
X95655722Y-150619500D01*
X95374278Y-150619500D01*
X95367008Y-150616967D01*
X95362886Y-150610466D01*
X95263188Y-150184376D01*
X95264162Y-150176388D01*
X95270063Y-150170919D01*
X95510488Y-150070386D01*
X95515000Y-150069481D01*
X95519511Y-150070386D01*
G37*
G04 #@! TD.AperFunction*
G04 #@! TA.AperFunction,Conductor*
G36*
X104321911Y-148687604D02*
G01*
X104809527Y-148911250D01*
X104815533Y-148917592D01*
X104815473Y-148926326D01*
X104717352Y-149165485D01*
X104714809Y-149169309D01*
X104710990Y-149171860D01*
X104470292Y-149271170D01*
X104461841Y-149271353D01*
X104455472Y-149265795D01*
X104306674Y-148982554D01*
X104305333Y-148977114D01*
X104305333Y-148698239D01*
X104307840Y-148691002D01*
X104314287Y-148686866D01*
X104321911Y-148687604D01*
G37*
G04 #@! TD.AperFunction*
G04 #@! TA.AperFunction,Conductor*
G36*
X103499288Y-159553173D02*
G01*
X103558956Y-159649293D01*
X103720352Y-159909288D01*
X103730080Y-159924958D01*
X103731763Y-159932471D01*
X103728413Y-159939402D01*
X103529402Y-160138413D01*
X103522471Y-160141763D01*
X103514958Y-160140080D01*
X103143173Y-159909288D01*
X103138212Y-159902950D01*
X103138520Y-159894907D01*
X103237436Y-159653819D01*
X103239987Y-159649987D01*
X103243819Y-159647436D01*
X103484907Y-159548519D01*
X103492950Y-159548212D01*
X103499288Y-159553173D01*
G37*
G04 #@! TD.AperFunction*
G04 #@! TA.AperFunction,Conductor*
G36*
X102647700Y-157020436D02*
G01*
X102846721Y-157219457D01*
X102850146Y-157227517D01*
X102847017Y-157235696D01*
X102502685Y-157606098D01*
X102497432Y-157609352D01*
X102491253Y-157609476D01*
X102485873Y-157606435D01*
X102300974Y-157422876D01*
X102298393Y-157419014D01*
X102199496Y-157177971D01*
X102198761Y-157171718D01*
X102201375Y-157165989D01*
X102206576Y-157162445D01*
X102635689Y-157017622D01*
X102642094Y-157017317D01*
X102647700Y-157020436D01*
G37*
G04 #@! TD.AperFunction*
G04 #@! TA.AperFunction,Conductor*
G36*
X95711003Y-168234434D02*
G01*
X97031286Y-168720124D01*
X97113861Y-168750501D01*
X97118907Y-168754110D01*
X97121399Y-168759791D01*
X97120636Y-168765948D01*
X96802562Y-169536214D01*
X96800021Y-169540021D01*
X96796214Y-169542562D01*
X96025948Y-169860636D01*
X96019791Y-169861399D01*
X96014110Y-169858907D01*
X96010501Y-169853861D01*
X95893649Y-169536214D01*
X95494434Y-168451003D01*
X95493989Y-168444454D01*
X95497141Y-168438696D01*
X95698696Y-168237141D01*
X95704454Y-168233989D01*
X95711003Y-168234434D01*
G37*
G04 #@! TD.AperFunction*
G04 #@! TA.AperFunction,Conductor*
G36*
X103970966Y-149637886D02*
G01*
X103977467Y-149642008D01*
X103980000Y-149649278D01*
X103980000Y-149930722D01*
X103977467Y-149937992D01*
X103970966Y-149942113D01*
X103832186Y-149974586D01*
X103544878Y-150041811D01*
X103536888Y-150040837D01*
X103531419Y-150034934D01*
X103430886Y-149794511D01*
X103429981Y-149790000D01*
X103430886Y-149785488D01*
X103531419Y-149545063D01*
X103536888Y-149539162D01*
X103544876Y-149538188D01*
X103970966Y-149637886D01*
G37*
G04 #@! TD.AperFunction*
G04 #@! TA.AperFunction,Conductor*
G36*
X84404402Y-150116586D02*
G01*
X84603413Y-150315597D01*
X84606763Y-150322528D01*
X84605080Y-150330041D01*
X84374288Y-150701826D01*
X84367950Y-150706787D01*
X84359907Y-150706479D01*
X84118819Y-150607563D01*
X84114987Y-150605012D01*
X84112436Y-150601180D01*
X84013520Y-150360092D01*
X84013212Y-150352049D01*
X84018171Y-150345712D01*
X84389960Y-150114918D01*
X84397471Y-150113236D01*
X84404402Y-150116586D01*
G37*
G04 #@! TD.AperFunction*
G04 #@! TA.AperFunction,Conductor*
G36*
X105052025Y-155838849D02*
G01*
X105251039Y-156037863D01*
X105254394Y-156044840D01*
X105252658Y-156052385D01*
X105019812Y-156420992D01*
X105013478Y-156425889D01*
X105005479Y-156425567D01*
X104764319Y-156326621D01*
X104760487Y-156324070D01*
X104757936Y-156320238D01*
X104721915Y-156232446D01*
X104659051Y-156079228D01*
X104658760Y-156071139D01*
X104663788Y-156064798D01*
X105037667Y-155837128D01*
X105045144Y-155835505D01*
X105052025Y-155838849D01*
G37*
G04 #@! TD.AperFunction*
G04 #@! TA.AperFunction,Conductor*
G36*
X83710966Y-153677886D02*
G01*
X83717467Y-153682008D01*
X83720000Y-153689278D01*
X83720000Y-153970722D01*
X83717467Y-153977992D01*
X83710966Y-153982113D01*
X83572186Y-154014586D01*
X83284878Y-154081811D01*
X83276888Y-154080837D01*
X83271419Y-154074934D01*
X83170886Y-153834511D01*
X83169981Y-153830000D01*
X83170886Y-153825488D01*
X83271419Y-153585063D01*
X83276888Y-153579162D01*
X83284876Y-153578188D01*
X83710966Y-153677886D01*
G37*
G04 #@! TD.AperFunction*
G04 #@! TA.AperFunction,Conductor*
G36*
X105580966Y-157887886D02*
G01*
X105587467Y-157892008D01*
X105590000Y-157899278D01*
X105590000Y-158180722D01*
X105587467Y-158187992D01*
X105580966Y-158192113D01*
X105442186Y-158224586D01*
X105154878Y-158291811D01*
X105146888Y-158290837D01*
X105141419Y-158284934D01*
X105040886Y-158044512D01*
X105039981Y-158039999D01*
X105040886Y-158035489D01*
X105141419Y-157795063D01*
X105146888Y-157789162D01*
X105154876Y-157788188D01*
X105580966Y-157887886D01*
G37*
G04 #@! TD.AperFunction*
G04 #@! TA.AperFunction,Conductor*
G36*
X119943111Y-154619162D02*
G01*
X119948581Y-154625066D01*
X120049112Y-154865486D01*
X120050018Y-154870000D01*
X120049112Y-154874514D01*
X119948581Y-155114933D01*
X119943111Y-155120837D01*
X119935121Y-155121811D01*
X119738809Y-155075877D01*
X119509033Y-155022113D01*
X119502533Y-155017992D01*
X119500000Y-155010722D01*
X119500000Y-154729278D01*
X119502533Y-154722008D01*
X119509033Y-154717886D01*
X119935123Y-154618188D01*
X119943111Y-154619162D01*
G37*
G04 #@! TD.AperFunction*
G04 #@! TA.AperFunction,Conductor*
G36*
X116121760Y-156746018D02*
G01*
X116472050Y-156930548D01*
X116510830Y-156950977D01*
X116516374Y-156957336D01*
X116516201Y-156965770D01*
X116416606Y-157208514D01*
X116414025Y-157212376D01*
X116230357Y-157394713D01*
X116224470Y-157397870D01*
X116217816Y-157397292D01*
X116212562Y-157393167D01*
X115907698Y-156962186D01*
X115905592Y-156954437D01*
X115908976Y-156947157D01*
X116108037Y-156748096D01*
X116114556Y-156744803D01*
X116121760Y-156746018D01*
G37*
G04 #@! TD.AperFunction*
M02*
