G04 #@! TF.GenerationSoftware,KiCad,Pcbnew,7.0.1*
G04 #@! TF.CreationDate,2023-11-29T16:19:33+01:00*
G04 #@! TF.ProjectId,Gruzik2.0,4772757a-696b-4322-9e30-2e6b69636164,rev?*
G04 #@! TF.SameCoordinates,Original*
G04 #@! TF.FileFunction,Soldermask,Bot*
G04 #@! TF.FilePolarity,Negative*
%FSLAX46Y46*%
G04 Gerber Fmt 4.6, Leading zero omitted, Abs format (unit mm)*
G04 Created by KiCad (PCBNEW 7.0.1) date 2023-11-29 16:19:33*
%MOMM*%
%LPD*%
G01*
G04 APERTURE LIST*
G04 Aperture macros list*
%AMRoundRect*
0 Rectangle with rounded corners*
0 $1 Rounding radius*
0 $2 $3 $4 $5 $6 $7 $8 $9 X,Y pos of 4 corners*
0 Add a 4 corners polygon primitive as box body*
4,1,4,$2,$3,$4,$5,$6,$7,$8,$9,$2,$3,0*
0 Add four circle primitives for the rounded corners*
1,1,$1+$1,$2,$3*
1,1,$1+$1,$4,$5*
1,1,$1+$1,$6,$7*
1,1,$1+$1,$8,$9*
0 Add four rect primitives between the rounded corners*
20,1,$1+$1,$2,$3,$4,$5,0*
20,1,$1+$1,$4,$5,$6,$7,0*
20,1,$1+$1,$6,$7,$8,$9,0*
20,1,$1+$1,$8,$9,$2,$3,0*%
G04 Aperture macros list end*
%ADD10C,1.500000*%
%ADD11C,2.100000*%
%ADD12R,1.700000X1.700000*%
%ADD13O,1.700000X1.700000*%
%ADD14R,1.500000X2.000000*%
%ADD15R,3.800000X2.000000*%
%ADD16RoundRect,0.225000X0.250000X-0.225000X0.250000X0.225000X-0.250000X0.225000X-0.250000X-0.225000X0*%
%ADD17RoundRect,0.225000X0.225000X0.250000X-0.225000X0.250000X-0.225000X-0.250000X0.225000X-0.250000X0*%
%ADD18R,0.450000X1.750000*%
%ADD19RoundRect,0.225000X-0.225000X-0.250000X0.225000X-0.250000X0.225000X0.250000X-0.225000X0.250000X0*%
%ADD20RoundRect,0.200000X-0.275000X0.200000X-0.275000X-0.200000X0.275000X-0.200000X0.275000X0.200000X0*%
%ADD21RoundRect,0.218750X-0.256250X0.218750X-0.256250X-0.218750X0.256250X-0.218750X0.256250X0.218750X0*%
%ADD22RoundRect,0.075000X-0.662500X-0.075000X0.662500X-0.075000X0.662500X0.075000X-0.662500X0.075000X0*%
%ADD23RoundRect,0.075000X-0.075000X-0.662500X0.075000X-0.662500X0.075000X0.662500X-0.075000X0.662500X0*%
%ADD24R,0.400000X1.000000*%
%ADD25R,2.000000X1.300000*%
G04 APERTURE END LIST*
D10*
X87426800Y-151751200D03*
X87426800Y-146871200D03*
D11*
X75184000Y-167894000D03*
D12*
X138379200Y-135585200D03*
D13*
X140919200Y-135585200D03*
D12*
X49885600Y-170688000D03*
D13*
X52425600Y-170688000D03*
D12*
X43434000Y-135382000D03*
D13*
X45974000Y-135382000D03*
X48514000Y-135382000D03*
X51054000Y-135382000D03*
D12*
X150774400Y-170992800D03*
D13*
X148234400Y-170992800D03*
D11*
X41322000Y-144145000D03*
X125476000Y-138176000D03*
X159338000Y-161925000D03*
D12*
X148437600Y-135636000D03*
D13*
X150977600Y-135636000D03*
X153517600Y-135636000D03*
X156057600Y-135636000D03*
X158597600Y-135636000D03*
D11*
X159338000Y-144145000D03*
X75184000Y-138176000D03*
D12*
X131666000Y-158496000D03*
D13*
X131666000Y-155956000D03*
X131666000Y-153416000D03*
X131666000Y-150876000D03*
X131666000Y-148336000D03*
X131666000Y-145796000D03*
D12*
X68834000Y-145796000D03*
D13*
X68834000Y-148336000D03*
X68834000Y-150876000D03*
X68834000Y-153416000D03*
X68834000Y-155956000D03*
X68834000Y-158496000D03*
D11*
X41322000Y-161925000D03*
D12*
X133604000Y-169722800D03*
D13*
X136144000Y-169722800D03*
D11*
X125476000Y-167894000D03*
D14*
X110984000Y-164744000D03*
X113284000Y-164744000D03*
D15*
X113284000Y-171044000D03*
D14*
X115584000Y-164744000D03*
D16*
X105460800Y-153479800D03*
X105460800Y-151929800D03*
D14*
X100366800Y-164794400D03*
X102666800Y-164794400D03*
D15*
X102666800Y-171094400D03*
D14*
X104966800Y-164794400D03*
D17*
X87376000Y-145389600D03*
X85826000Y-145389600D03*
D18*
X151142000Y-156806000D03*
X150492000Y-156806000D03*
X149842000Y-156806000D03*
X149192000Y-156806000D03*
X148542000Y-156806000D03*
X147892000Y-156806000D03*
X147242000Y-156806000D03*
X146592000Y-156806000D03*
X145942000Y-156806000D03*
X145292000Y-156806000D03*
X144642000Y-156806000D03*
X143992000Y-156806000D03*
X143992000Y-149606000D03*
X144642000Y-149606000D03*
X145292000Y-149606000D03*
X145942000Y-149606000D03*
X146592000Y-149606000D03*
X147242000Y-149606000D03*
X147892000Y-149606000D03*
X148542000Y-149606000D03*
X149192000Y-149606000D03*
X149842000Y-149606000D03*
X150492000Y-149606000D03*
X151142000Y-149606000D03*
D16*
X113182400Y-162573000D03*
X113182400Y-161023000D03*
D19*
X94221000Y-157022800D03*
X95771000Y-157022800D03*
X60362476Y-145860000D03*
X61912476Y-145860000D03*
D20*
X107188000Y-164110400D03*
X107188000Y-165760400D03*
D16*
X82753200Y-138049600D03*
X82753200Y-136499600D03*
X102285800Y-146418600D03*
X102285800Y-144868600D03*
D17*
X86830200Y-148742400D03*
X85280200Y-148742400D03*
D19*
X60362476Y-147638000D03*
X61912476Y-147638000D03*
D21*
X86055200Y-153619200D03*
X86055200Y-155194200D03*
D18*
X56956000Y-156552000D03*
X56306000Y-156552000D03*
X55656000Y-156552000D03*
X55006000Y-156552000D03*
X54356000Y-156552000D03*
X53706000Y-156552000D03*
X53056000Y-156552000D03*
X52406000Y-156552000D03*
X51756000Y-156552000D03*
X51106000Y-156552000D03*
X50456000Y-156552000D03*
X49806000Y-156552000D03*
X49806000Y-149352000D03*
X50456000Y-149352000D03*
X51106000Y-149352000D03*
X51756000Y-149352000D03*
X52406000Y-149352000D03*
X53056000Y-149352000D03*
X53706000Y-149352000D03*
X54356000Y-149352000D03*
X55006000Y-149352000D03*
X55656000Y-149352000D03*
X56306000Y-149352000D03*
X56956000Y-149352000D03*
D16*
X89611200Y-155169200D03*
X89611200Y-153619200D03*
D17*
X101968600Y-162458400D03*
X100418600Y-162458400D03*
D16*
X116840000Y-162573000D03*
X116840000Y-161023000D03*
D20*
X108762800Y-164073800D03*
X108762800Y-165723800D03*
D19*
X94221000Y-158597600D03*
X95771000Y-158597600D03*
D17*
X139261476Y-147320000D03*
X137711476Y-147320000D03*
D16*
X118668800Y-162573000D03*
X118668800Y-161023000D03*
D22*
X94107500Y-153781500D03*
X94107500Y-153281500D03*
X94107500Y-152781500D03*
X94107500Y-152281500D03*
X94107500Y-151781500D03*
X94107500Y-151281500D03*
X94107500Y-150781500D03*
X94107500Y-150281500D03*
X94107500Y-149781500D03*
X94107500Y-149281500D03*
X94107500Y-148781500D03*
X94107500Y-148281500D03*
D23*
X95520000Y-146869000D03*
X96020000Y-146869000D03*
X96520000Y-146869000D03*
X97020000Y-146869000D03*
X97520000Y-146869000D03*
X98020000Y-146869000D03*
X98520000Y-146869000D03*
X99020000Y-146869000D03*
X99520000Y-146869000D03*
X100020000Y-146869000D03*
X100520000Y-146869000D03*
X101020000Y-146869000D03*
D22*
X102432500Y-148281500D03*
X102432500Y-148781500D03*
X102432500Y-149281500D03*
X102432500Y-149781500D03*
X102432500Y-150281500D03*
X102432500Y-150781500D03*
X102432500Y-151281500D03*
X102432500Y-151781500D03*
X102432500Y-152281500D03*
X102432500Y-152781500D03*
X102432500Y-153281500D03*
X102432500Y-153781500D03*
D23*
X101020000Y-155194000D03*
X100520000Y-155194000D03*
X100020000Y-155194000D03*
X99520000Y-155194000D03*
X99020000Y-155194000D03*
X98520000Y-155194000D03*
X98020000Y-155194000D03*
X97520000Y-155194000D03*
X97020000Y-155194000D03*
X96520000Y-155194000D03*
X96020000Y-155194000D03*
X95520000Y-155194000D03*
D17*
X131064000Y-170738800D03*
X129514000Y-170738800D03*
D16*
X87833200Y-155169200D03*
X87833200Y-153619200D03*
D24*
X92867200Y-138836400D03*
X93867200Y-138836400D03*
X94867200Y-138836400D03*
X95867200Y-138836400D03*
X96867200Y-138836400D03*
X97867200Y-138836400D03*
X98867200Y-138836400D03*
X99867200Y-138836400D03*
X100867200Y-138836400D03*
X101867200Y-138836400D03*
X102867200Y-138836400D03*
X103867200Y-138836400D03*
X104867200Y-138836400D03*
X105867200Y-138836400D03*
X106867200Y-138836400D03*
X107867200Y-138836400D03*
D25*
X90067200Y-136136400D03*
X110667200Y-136136400D03*
D17*
X139274476Y-145288000D03*
X137724476Y-145288000D03*
D16*
X114960400Y-162573000D03*
X114960400Y-161023000D03*
X104063800Y-146418600D03*
X104063800Y-144868600D03*
M02*
